%TF.GenerationSoftware,KiCad,Pcbnew,(5.1.10)-1*%
%TF.CreationDate,2021-11-23T09:49:32-07:00*%
%TF.ProjectId,SolarGPS,536f6c61-7247-4505-932e-6b696361645f,rev?*%
%TF.SameCoordinates,Original*%
%TF.FileFunction,Legend,Top*%
%TF.FilePolarity,Positive*%
%FSLAX46Y46*%
G04 Gerber Fmt 4.6, Leading zero omitted, Abs format (unit mm)*
G04 Created by KiCad (PCBNEW (5.1.10)-1) date 2021-11-23 09:49:32*
%MOMM*%
%LPD*%
G01*
G04 APERTURE LIST*
%ADD10C,0.120000*%
%ADD11C,0.250000*%
%ADD12C,0.150000*%
%ADD13C,0.300000*%
G04 APERTURE END LIST*
D10*
X76000000Y-86000000D02*
X106300000Y-86000000D01*
X76000000Y-113000000D02*
X76000000Y-86000000D01*
D11*
X77050000Y-85857142D02*
X77264285Y-85928571D01*
X77621428Y-85928571D01*
X77764285Y-85857142D01*
X77835714Y-85785714D01*
X77907142Y-85642857D01*
X77907142Y-85500000D01*
X77835714Y-85357142D01*
X77764285Y-85285714D01*
X77621428Y-85214285D01*
X77335714Y-85142857D01*
X77192857Y-85071428D01*
X77121428Y-85000000D01*
X77050000Y-84857142D01*
X77050000Y-84714285D01*
X77121428Y-84571428D01*
X77192857Y-84500000D01*
X77335714Y-84428571D01*
X77692857Y-84428571D01*
X77907142Y-84500000D01*
X78407142Y-84428571D02*
X78764285Y-85928571D01*
X79050000Y-84857142D01*
X79335714Y-85928571D01*
X79692857Y-84428571D01*
X80192857Y-84571428D02*
X80264285Y-84500000D01*
X80407142Y-84428571D01*
X80764285Y-84428571D01*
X80907142Y-84500000D01*
X80978571Y-84571428D01*
X81050000Y-84714285D01*
X81050000Y-84857142D01*
X80978571Y-85071428D01*
X80121428Y-85928571D01*
X81050000Y-85928571D01*
X87850000Y-85857142D02*
X88064285Y-85928571D01*
X88421428Y-85928571D01*
X88564285Y-85857142D01*
X88635714Y-85785714D01*
X88707142Y-85642857D01*
X88707142Y-85500000D01*
X88635714Y-85357142D01*
X88564285Y-85285714D01*
X88421428Y-85214285D01*
X88135714Y-85142857D01*
X87992857Y-85071428D01*
X87921428Y-85000000D01*
X87850000Y-84857142D01*
X87850000Y-84714285D01*
X87921428Y-84571428D01*
X87992857Y-84500000D01*
X88135714Y-84428571D01*
X88492857Y-84428571D01*
X88707142Y-84500000D01*
X89207142Y-84428571D02*
X89564285Y-85928571D01*
X89850000Y-84857142D01*
X90135714Y-85928571D01*
X90492857Y-84428571D01*
X91850000Y-85928571D02*
X90992857Y-85928571D01*
X91421428Y-85928571D02*
X91421428Y-84428571D01*
X91278571Y-84642857D01*
X91135714Y-84785714D01*
X90992857Y-84857142D01*
X106078571Y-68228571D02*
X105364285Y-68728571D01*
X106078571Y-69085714D02*
X104578571Y-69085714D01*
X104578571Y-68514285D01*
X104650000Y-68371428D01*
X104721428Y-68300000D01*
X104864285Y-68228571D01*
X105078571Y-68228571D01*
X105221428Y-68300000D01*
X105292857Y-68371428D01*
X105364285Y-68514285D01*
X105364285Y-69085714D01*
X105292857Y-67585714D02*
X105292857Y-67085714D01*
X106078571Y-66871428D02*
X106078571Y-67585714D01*
X104578571Y-67585714D01*
X104578571Y-66871428D01*
X106007142Y-66300000D02*
X106078571Y-66085714D01*
X106078571Y-65728571D01*
X106007142Y-65585714D01*
X105935714Y-65514285D01*
X105792857Y-65442857D01*
X105650000Y-65442857D01*
X105507142Y-65514285D01*
X105435714Y-65585714D01*
X105364285Y-65728571D01*
X105292857Y-66014285D01*
X105221428Y-66157142D01*
X105150000Y-66228571D01*
X105007142Y-66300000D01*
X104864285Y-66300000D01*
X104721428Y-66228571D01*
X104650000Y-66157142D01*
X104578571Y-66014285D01*
X104578571Y-65657142D01*
X104650000Y-65442857D01*
X105292857Y-64800000D02*
X105292857Y-64300000D01*
X106078571Y-64085714D02*
X106078571Y-64800000D01*
X104578571Y-64800000D01*
X104578571Y-64085714D01*
X104578571Y-63657142D02*
X104578571Y-62800000D01*
X106078571Y-63228571D02*
X104578571Y-63228571D01*
D12*
%TO.C,AE1*%
X97950000Y-76450000D02*
X80850000Y-76450000D01*
X76850000Y-72450000D02*
X76850000Y-55400000D01*
X80850000Y-51350000D02*
X97950000Y-51350000D01*
X101950000Y-55350000D02*
X101950000Y-72450000D01*
X76850000Y-55350000D02*
G75*
G02*
X80850000Y-51350000I4000000J0D01*
G01*
X97950000Y-51350000D02*
G75*
G02*
X101950000Y-55350000I0J-4000000D01*
G01*
X101950000Y-72450000D02*
G75*
G02*
X97950000Y-76450000I-4000000J0D01*
G01*
X80850000Y-76450000D02*
G75*
G02*
X76850000Y-72450000I0J4000000D01*
G01*
%TO.C,SC1*%
X50000000Y-113000000D02*
X50000000Y-50000000D01*
X50000000Y-50000000D02*
X73000000Y-50000000D01*
X73000000Y-50000000D02*
X73000000Y-113000000D01*
X73000000Y-113000000D02*
X50000000Y-113000000D01*
D10*
%TO.C,D2*%
X106210000Y-72250000D02*
X106210000Y-69565000D01*
X106210000Y-69565000D02*
X104290000Y-69565000D01*
X104290000Y-69565000D02*
X104290000Y-72250000D01*
%TO.C,R3*%
X104640000Y-74700279D02*
X104640000Y-74374721D01*
X105660000Y-74700279D02*
X105660000Y-74374721D01*
%TO.C,SW2*%
X75870000Y-84330000D02*
X75870000Y-84300000D01*
X75870000Y-77870000D02*
X75870000Y-77900000D01*
X82330000Y-77870000D02*
X82330000Y-77900000D01*
X82330000Y-84300000D02*
X82330000Y-84330000D01*
X75870000Y-82400000D02*
X75870000Y-79800000D01*
X82330000Y-84330000D02*
X75870000Y-84330000D01*
X82330000Y-82400000D02*
X82330000Y-79800000D01*
X82330000Y-77870000D02*
X75870000Y-77870000D01*
%TO.C,SW1*%
X86670000Y-84330000D02*
X86670000Y-84300000D01*
X86670000Y-77870000D02*
X86670000Y-77900000D01*
X93130000Y-77870000D02*
X93130000Y-77900000D01*
X93130000Y-84300000D02*
X93130000Y-84330000D01*
X86670000Y-82400000D02*
X86670000Y-79800000D01*
X93130000Y-84330000D02*
X86670000Y-84330000D01*
X93130000Y-82400000D02*
X93130000Y-79800000D01*
X93130000Y-77870000D02*
X86670000Y-77870000D01*
%TO.C,J4*%
X95640000Y-83060000D02*
X95640000Y-78940000D01*
X105760000Y-83060000D02*
X105760000Y-78940000D01*
X95940000Y-84315000D02*
X95940000Y-83060000D01*
X95640000Y-83060000D02*
X95940000Y-83060000D01*
X95640000Y-78940000D02*
X95940000Y-78940000D01*
X105460000Y-83060000D02*
X105760000Y-83060000D01*
X105460000Y-78940000D02*
X105760000Y-78940000D01*
X97460000Y-83060000D02*
X97940000Y-83060000D01*
X97460000Y-78940000D02*
X97940000Y-78940000D01*
X99460000Y-83060000D02*
X99940000Y-83060000D01*
X99460000Y-78940000D02*
X99940000Y-78940000D01*
X101460000Y-83060000D02*
X101940000Y-83060000D01*
X101460000Y-78940000D02*
X101940000Y-78940000D01*
X103460000Y-83060000D02*
X103940000Y-83060000D01*
X103460000Y-78940000D02*
X103940000Y-78940000D01*
%TO.C,AE1*%
D12*
X92133333Y-62366666D02*
X92609523Y-62366666D01*
X92038095Y-62652380D02*
X92371428Y-61652380D01*
X92704761Y-62652380D01*
X93038095Y-62128571D02*
X93371428Y-62128571D01*
X93514285Y-62652380D02*
X93038095Y-62652380D01*
X93038095Y-61652380D01*
X93514285Y-61652380D01*
X94466666Y-62652380D02*
X93895238Y-62652380D01*
X94180952Y-62652380D02*
X94180952Y-61652380D01*
X94085714Y-61795238D01*
X93990476Y-61890476D01*
X93895238Y-61938095D01*
%TO.C,SC1*%
X62304761Y-83961904D02*
X62352380Y-83819047D01*
X62352380Y-83580952D01*
X62304761Y-83485714D01*
X62257142Y-83438095D01*
X62161904Y-83390476D01*
X62066666Y-83390476D01*
X61971428Y-83438095D01*
X61923809Y-83485714D01*
X61876190Y-83580952D01*
X61828571Y-83771428D01*
X61780952Y-83866666D01*
X61733333Y-83914285D01*
X61638095Y-83961904D01*
X61542857Y-83961904D01*
X61447619Y-83914285D01*
X61400000Y-83866666D01*
X61352380Y-83771428D01*
X61352380Y-83533333D01*
X61400000Y-83390476D01*
X62257142Y-82390476D02*
X62304761Y-82438095D01*
X62352380Y-82580952D01*
X62352380Y-82676190D01*
X62304761Y-82819047D01*
X62209523Y-82914285D01*
X62114285Y-82961904D01*
X61923809Y-83009523D01*
X61780952Y-83009523D01*
X61590476Y-82961904D01*
X61495238Y-82914285D01*
X61400000Y-82819047D01*
X61352380Y-82676190D01*
X61352380Y-82580952D01*
X61400000Y-82438095D01*
X61447619Y-82390476D01*
X62352380Y-81438095D02*
X62352380Y-82009523D01*
X62352380Y-81723809D02*
X61352380Y-81723809D01*
X61495238Y-81819047D01*
X61590476Y-81914285D01*
X61638095Y-82009523D01*
X57804761Y-85995238D02*
X57852380Y-85852380D01*
X57852380Y-85614285D01*
X57804761Y-85519047D01*
X57757142Y-85471428D01*
X57661904Y-85423809D01*
X57566666Y-85423809D01*
X57471428Y-85471428D01*
X57423809Y-85519047D01*
X57376190Y-85614285D01*
X57328571Y-85804761D01*
X57280952Y-85900000D01*
X57233333Y-85947619D01*
X57138095Y-85995238D01*
X57042857Y-85995238D01*
X56947619Y-85947619D01*
X56900000Y-85900000D01*
X56852380Y-85804761D01*
X56852380Y-85566666D01*
X56900000Y-85423809D01*
X57852380Y-84852380D02*
X57804761Y-84947619D01*
X57757142Y-84995238D01*
X57661904Y-85042857D01*
X57376190Y-85042857D01*
X57280952Y-84995238D01*
X57233333Y-84947619D01*
X57185714Y-84852380D01*
X57185714Y-84709523D01*
X57233333Y-84614285D01*
X57280952Y-84566666D01*
X57376190Y-84519047D01*
X57661904Y-84519047D01*
X57757142Y-84566666D01*
X57804761Y-84614285D01*
X57852380Y-84709523D01*
X57852380Y-84852380D01*
X57852380Y-83947619D02*
X57804761Y-84042857D01*
X57709523Y-84090476D01*
X56852380Y-84090476D01*
X57852380Y-83138095D02*
X57328571Y-83138095D01*
X57233333Y-83185714D01*
X57185714Y-83280952D01*
X57185714Y-83471428D01*
X57233333Y-83566666D01*
X57804761Y-83138095D02*
X57852380Y-83233333D01*
X57852380Y-83471428D01*
X57804761Y-83566666D01*
X57709523Y-83614285D01*
X57614285Y-83614285D01*
X57519047Y-83566666D01*
X57471428Y-83471428D01*
X57471428Y-83233333D01*
X57423809Y-83138095D01*
X57852380Y-82661904D02*
X57185714Y-82661904D01*
X57376190Y-82661904D02*
X57280952Y-82614285D01*
X57233333Y-82566666D01*
X57185714Y-82471428D01*
X57185714Y-82376190D01*
X57947619Y-82280952D02*
X57947619Y-81519047D01*
X57757142Y-80709523D02*
X57804761Y-80757142D01*
X57852380Y-80900000D01*
X57852380Y-80995238D01*
X57804761Y-81138095D01*
X57709523Y-81233333D01*
X57614285Y-81280952D01*
X57423809Y-81328571D01*
X57280952Y-81328571D01*
X57090476Y-81280952D01*
X56995238Y-81233333D01*
X56900000Y-81138095D01*
X56852380Y-80995238D01*
X56852380Y-80900000D01*
X56900000Y-80757142D01*
X56947619Y-80709523D01*
X57804761Y-79900000D02*
X57852380Y-79995238D01*
X57852380Y-80185714D01*
X57804761Y-80280952D01*
X57709523Y-80328571D01*
X57328571Y-80328571D01*
X57233333Y-80280952D01*
X57185714Y-80185714D01*
X57185714Y-79995238D01*
X57233333Y-79900000D01*
X57328571Y-79852380D01*
X57423809Y-79852380D01*
X57519047Y-80328571D01*
X57852380Y-79280952D02*
X57804761Y-79376190D01*
X57709523Y-79423809D01*
X56852380Y-79423809D01*
X57852380Y-78757142D02*
X57804761Y-78852380D01*
X57709523Y-78900000D01*
X56852380Y-78900000D01*
D13*
X61514285Y-58842857D02*
X61514285Y-56557142D01*
X62014285Y-102842857D02*
X62014285Y-100557142D01*
X63157142Y-101700000D02*
X60871428Y-101700000D01*
%TO.C,D2*%
D12*
X103902380Y-72288095D02*
X102902380Y-72288095D01*
X102902380Y-72050000D01*
X102950000Y-71907142D01*
X103045238Y-71811904D01*
X103140476Y-71764285D01*
X103330952Y-71716666D01*
X103473809Y-71716666D01*
X103664285Y-71764285D01*
X103759523Y-71811904D01*
X103854761Y-71907142D01*
X103902380Y-72050000D01*
X103902380Y-72288095D01*
X102997619Y-71335714D02*
X102950000Y-71288095D01*
X102902380Y-71192857D01*
X102902380Y-70954761D01*
X102950000Y-70859523D01*
X102997619Y-70811904D01*
X103092857Y-70764285D01*
X103188095Y-70764285D01*
X103330952Y-70811904D01*
X103902380Y-71383333D01*
X103902380Y-70764285D01*
%TO.C,R3*%
X104172380Y-74704166D02*
X103696190Y-75037500D01*
X104172380Y-75275595D02*
X103172380Y-75275595D01*
X103172380Y-74894642D01*
X103220000Y-74799404D01*
X103267619Y-74751785D01*
X103362857Y-74704166D01*
X103505714Y-74704166D01*
X103600952Y-74751785D01*
X103648571Y-74799404D01*
X103696190Y-74894642D01*
X103696190Y-75275595D01*
X103172380Y-74370833D02*
X103172380Y-73751785D01*
X103553333Y-74085119D01*
X103553333Y-73942261D01*
X103600952Y-73847023D01*
X103648571Y-73799404D01*
X103743809Y-73751785D01*
X103981904Y-73751785D01*
X104077142Y-73799404D01*
X104124761Y-73847023D01*
X104172380Y-73942261D01*
X104172380Y-74227976D01*
X104124761Y-74323214D01*
X104077142Y-74370833D01*
%TO.C,SW2*%
X77666666Y-81304761D02*
X77809523Y-81352380D01*
X78047619Y-81352380D01*
X78142857Y-81304761D01*
X78190476Y-81257142D01*
X78238095Y-81161904D01*
X78238095Y-81066666D01*
X78190476Y-80971428D01*
X78142857Y-80923809D01*
X78047619Y-80876190D01*
X77857142Y-80828571D01*
X77761904Y-80780952D01*
X77714285Y-80733333D01*
X77666666Y-80638095D01*
X77666666Y-80542857D01*
X77714285Y-80447619D01*
X77761904Y-80400000D01*
X77857142Y-80352380D01*
X78095238Y-80352380D01*
X78238095Y-80400000D01*
X78571428Y-80352380D02*
X78809523Y-81352380D01*
X79000000Y-80638095D01*
X79190476Y-81352380D01*
X79428571Y-80352380D01*
X79761904Y-80447619D02*
X79809523Y-80400000D01*
X79904761Y-80352380D01*
X80142857Y-80352380D01*
X80238095Y-80400000D01*
X80285714Y-80447619D01*
X80333333Y-80542857D01*
X80333333Y-80638095D01*
X80285714Y-80780952D01*
X79714285Y-81352380D01*
X80333333Y-81352380D01*
%TO.C,SW1*%
X88466666Y-81504761D02*
X88609523Y-81552380D01*
X88847619Y-81552380D01*
X88942857Y-81504761D01*
X88990476Y-81457142D01*
X89038095Y-81361904D01*
X89038095Y-81266666D01*
X88990476Y-81171428D01*
X88942857Y-81123809D01*
X88847619Y-81076190D01*
X88657142Y-81028571D01*
X88561904Y-80980952D01*
X88514285Y-80933333D01*
X88466666Y-80838095D01*
X88466666Y-80742857D01*
X88514285Y-80647619D01*
X88561904Y-80600000D01*
X88657142Y-80552380D01*
X88895238Y-80552380D01*
X89038095Y-80600000D01*
X89371428Y-80552380D02*
X89609523Y-81552380D01*
X89800000Y-80838095D01*
X89990476Y-81552380D01*
X90228571Y-80552380D01*
X91133333Y-81552380D02*
X90561904Y-81552380D01*
X90847619Y-81552380D02*
X90847619Y-80552380D01*
X90752380Y-80695238D01*
X90657142Y-80790476D01*
X90561904Y-80838095D01*
%TO.C,J4*%
X104166666Y-76052380D02*
X104166666Y-76766666D01*
X104119047Y-76909523D01*
X104023809Y-77004761D01*
X103880952Y-77052380D01*
X103785714Y-77052380D01*
X105071428Y-76385714D02*
X105071428Y-77052380D01*
X104833333Y-76004761D02*
X104595238Y-76719047D01*
X105214285Y-76719047D01*
%TD*%
M02*
