%TF.GenerationSoftware,KiCad,Pcbnew,(5.1.10)-1*%
%TF.CreationDate,2021-11-23T09:49:32-07:00*%
%TF.ProjectId,SolarGPS,536f6c61-7247-4505-932e-6b696361645f,rev?*%
%TF.SameCoordinates,Original*%
%TF.FileFunction,Paste,Bot*%
%TF.FilePolarity,Positive*%
%FSLAX46Y46*%
G04 Gerber Fmt 4.6, Leading zero omitted, Abs format (unit mm)*
G04 Created by KiCad (PCBNEW (5.1.10)-1) date 2021-11-23 09:49:32*
%MOMM*%
%LPD*%
G01*
G04 APERTURE LIST*
%ADD10R,0.650000X1.060000*%
%ADD11R,0.600000X0.700000*%
%ADD12R,1.060000X0.650000*%
%ADD13R,1.450000X1.150000*%
%ADD14R,1.900000X1.750000*%
%ADD15R,1.400000X0.400000*%
%ADD16R,0.800000X0.400000*%
%ADD17R,0.800000X0.300000*%
%ADD18R,1.800000X1.000000*%
%ADD19R,1.000000X4.300000*%
G04 APERTURE END LIST*
D10*
%TO.C,U5*%
X64800000Y-62400000D03*
X62900000Y-62400000D03*
X62900000Y-64600000D03*
X63850000Y-64600000D03*
X64800000Y-64600000D03*
%TD*%
%TO.C,R7*%
G36*
G01*
X74600000Y-109675000D02*
X74600000Y-110225000D01*
G75*
G02*
X74400000Y-110425000I-200000J0D01*
G01*
X74000000Y-110425000D01*
G75*
G02*
X73800000Y-110225000I0J200000D01*
G01*
X73800000Y-109675000D01*
G75*
G02*
X74000000Y-109475000I200000J0D01*
G01*
X74400000Y-109475000D01*
G75*
G02*
X74600000Y-109675000I0J-200000D01*
G01*
G37*
G36*
G01*
X76250000Y-109675000D02*
X76250000Y-110225000D01*
G75*
G02*
X76050000Y-110425000I-200000J0D01*
G01*
X75650000Y-110425000D01*
G75*
G02*
X75450000Y-110225000I0J200000D01*
G01*
X75450000Y-109675000D01*
G75*
G02*
X75650000Y-109475000I200000J0D01*
G01*
X76050000Y-109475000D01*
G75*
G02*
X76250000Y-109675000I0J-200000D01*
G01*
G37*
%TD*%
D11*
%TO.C,D6*%
X71450000Y-109950000D03*
X72850000Y-109950000D03*
%TD*%
D12*
%TO.C,U4*%
X97800000Y-96000000D03*
X97800000Y-97900000D03*
X100000000Y-97900000D03*
X100000000Y-96950000D03*
X100000000Y-96000000D03*
%TD*%
D13*
%TO.C,J2*%
X102620000Y-89455000D03*
X102620000Y-94095000D03*
D14*
X104850000Y-90650000D03*
D15*
X102200000Y-91775000D03*
X102200000Y-92425000D03*
X102200000Y-93075000D03*
X102200000Y-90475000D03*
X102200000Y-91125000D03*
D14*
X104850000Y-92900000D03*
%TD*%
D11*
%TO.C,D5*%
X102250000Y-99200000D03*
X103650000Y-99200000D03*
%TD*%
%TO.C,D4*%
X99100000Y-84250000D03*
X100500000Y-84250000D03*
%TD*%
%TO.C,D3*%
X98450000Y-82750000D03*
X99850000Y-82750000D03*
%TD*%
%TO.C,C27*%
G36*
G01*
X103300000Y-97650000D02*
X103300000Y-97150000D01*
G75*
G02*
X103525000Y-96925000I225000J0D01*
G01*
X103975000Y-96925000D01*
G75*
G02*
X104200000Y-97150000I0J-225000D01*
G01*
X104200000Y-97650000D01*
G75*
G02*
X103975000Y-97875000I-225000J0D01*
G01*
X103525000Y-97875000D01*
G75*
G02*
X103300000Y-97650000I0J225000D01*
G01*
G37*
G36*
G01*
X101750000Y-97650000D02*
X101750000Y-97150000D01*
G75*
G02*
X101975000Y-96925000I225000J0D01*
G01*
X102425000Y-96925000D01*
G75*
G02*
X102650000Y-97150000I0J-225000D01*
G01*
X102650000Y-97650000D01*
G75*
G02*
X102425000Y-97875000I-225000J0D01*
G01*
X101975000Y-97875000D01*
G75*
G02*
X101750000Y-97650000I0J225000D01*
G01*
G37*
%TD*%
%TO.C,C19*%
G36*
G01*
X96400000Y-94000000D02*
X96400000Y-94500000D01*
G75*
G02*
X96175000Y-94725000I-225000J0D01*
G01*
X95725000Y-94725000D01*
G75*
G02*
X95500000Y-94500000I0J225000D01*
G01*
X95500000Y-94000000D01*
G75*
G02*
X95725000Y-93775000I225000J0D01*
G01*
X96175000Y-93775000D01*
G75*
G02*
X96400000Y-94000000I0J-225000D01*
G01*
G37*
G36*
G01*
X97950000Y-94000000D02*
X97950000Y-94500000D01*
G75*
G02*
X97725000Y-94725000I-225000J0D01*
G01*
X97275000Y-94725000D01*
G75*
G02*
X97050000Y-94500000I0J225000D01*
G01*
X97050000Y-94000000D01*
G75*
G02*
X97275000Y-93775000I225000J0D01*
G01*
X97725000Y-93775000D01*
G75*
G02*
X97950000Y-94000000I0J-225000D01*
G01*
G37*
%TD*%
%TO.C,C17*%
G36*
G01*
X97350000Y-92925000D02*
X97350000Y-91975000D01*
G75*
G02*
X97600000Y-91725000I250000J0D01*
G01*
X98100000Y-91725000D01*
G75*
G02*
X98350000Y-91975000I0J-250000D01*
G01*
X98350000Y-92925000D01*
G75*
G02*
X98100000Y-93175000I-250000J0D01*
G01*
X97600000Y-93175000D01*
G75*
G02*
X97350000Y-92925000I0J250000D01*
G01*
G37*
G36*
G01*
X95450000Y-92925000D02*
X95450000Y-91975000D01*
G75*
G02*
X95700000Y-91725000I250000J0D01*
G01*
X96200000Y-91725000D01*
G75*
G02*
X96450000Y-91975000I0J-250000D01*
G01*
X96450000Y-92925000D01*
G75*
G02*
X96200000Y-93175000I-250000J0D01*
G01*
X95700000Y-93175000D01*
G75*
G02*
X95450000Y-92925000I0J250000D01*
G01*
G37*
%TD*%
%TO.C,U3*%
G36*
G01*
X74165000Y-76615000D02*
X73535000Y-76615000D01*
G75*
G02*
X73285000Y-76365000I0J250000D01*
G01*
X73285000Y-75735000D01*
G75*
G02*
X73535000Y-75485000I250000J0D01*
G01*
X74165000Y-75485000D01*
G75*
G02*
X74415000Y-75735000I0J-250000D01*
G01*
X74415000Y-76365000D01*
G75*
G02*
X74165000Y-76615000I-250000J0D01*
G01*
G37*
G36*
G01*
X75565000Y-76615000D02*
X74935000Y-76615000D01*
G75*
G02*
X74685000Y-76365000I0J250000D01*
G01*
X74685000Y-75735000D01*
G75*
G02*
X74935000Y-75485000I250000J0D01*
G01*
X75565000Y-75485000D01*
G75*
G02*
X75815000Y-75735000I0J-250000D01*
G01*
X75815000Y-76365000D01*
G75*
G02*
X75565000Y-76615000I-250000J0D01*
G01*
G37*
G36*
G01*
X76965000Y-76615000D02*
X76335000Y-76615000D01*
G75*
G02*
X76085000Y-76365000I0J250000D01*
G01*
X76085000Y-75735000D01*
G75*
G02*
X76335000Y-75485000I250000J0D01*
G01*
X76965000Y-75485000D01*
G75*
G02*
X77215000Y-75735000I0J-250000D01*
G01*
X77215000Y-76365000D01*
G75*
G02*
X76965000Y-76615000I-250000J0D01*
G01*
G37*
G36*
G01*
X78365000Y-76615000D02*
X77735000Y-76615000D01*
G75*
G02*
X77485000Y-76365000I0J250000D01*
G01*
X77485000Y-75735000D01*
G75*
G02*
X77735000Y-75485000I250000J0D01*
G01*
X78365000Y-75485000D01*
G75*
G02*
X78615000Y-75735000I0J-250000D01*
G01*
X78615000Y-76365000D01*
G75*
G02*
X78365000Y-76615000I-250000J0D01*
G01*
G37*
G36*
G01*
X74165000Y-78015000D02*
X73535000Y-78015000D01*
G75*
G02*
X73285000Y-77765000I0J250000D01*
G01*
X73285000Y-77135000D01*
G75*
G02*
X73535000Y-76885000I250000J0D01*
G01*
X74165000Y-76885000D01*
G75*
G02*
X74415000Y-77135000I0J-250000D01*
G01*
X74415000Y-77765000D01*
G75*
G02*
X74165000Y-78015000I-250000J0D01*
G01*
G37*
G36*
G01*
X75565000Y-78015000D02*
X74935000Y-78015000D01*
G75*
G02*
X74685000Y-77765000I0J250000D01*
G01*
X74685000Y-77135000D01*
G75*
G02*
X74935000Y-76885000I250000J0D01*
G01*
X75565000Y-76885000D01*
G75*
G02*
X75815000Y-77135000I0J-250000D01*
G01*
X75815000Y-77765000D01*
G75*
G02*
X75565000Y-78015000I-250000J0D01*
G01*
G37*
G36*
G01*
X76965000Y-78015000D02*
X76335000Y-78015000D01*
G75*
G02*
X76085000Y-77765000I0J250000D01*
G01*
X76085000Y-77135000D01*
G75*
G02*
X76335000Y-76885000I250000J0D01*
G01*
X76965000Y-76885000D01*
G75*
G02*
X77215000Y-77135000I0J-250000D01*
G01*
X77215000Y-77765000D01*
G75*
G02*
X76965000Y-78015000I-250000J0D01*
G01*
G37*
G36*
G01*
X78365000Y-78015000D02*
X77735000Y-78015000D01*
G75*
G02*
X77485000Y-77765000I0J250000D01*
G01*
X77485000Y-77135000D01*
G75*
G02*
X77735000Y-76885000I250000J0D01*
G01*
X78365000Y-76885000D01*
G75*
G02*
X78615000Y-77135000I0J-250000D01*
G01*
X78615000Y-77765000D01*
G75*
G02*
X78365000Y-78015000I-250000J0D01*
G01*
G37*
G36*
G01*
X74165000Y-79415000D02*
X73535000Y-79415000D01*
G75*
G02*
X73285000Y-79165000I0J250000D01*
G01*
X73285000Y-78535000D01*
G75*
G02*
X73535000Y-78285000I250000J0D01*
G01*
X74165000Y-78285000D01*
G75*
G02*
X74415000Y-78535000I0J-250000D01*
G01*
X74415000Y-79165000D01*
G75*
G02*
X74165000Y-79415000I-250000J0D01*
G01*
G37*
G36*
G01*
X75565000Y-79415000D02*
X74935000Y-79415000D01*
G75*
G02*
X74685000Y-79165000I0J250000D01*
G01*
X74685000Y-78535000D01*
G75*
G02*
X74935000Y-78285000I250000J0D01*
G01*
X75565000Y-78285000D01*
G75*
G02*
X75815000Y-78535000I0J-250000D01*
G01*
X75815000Y-79165000D01*
G75*
G02*
X75565000Y-79415000I-250000J0D01*
G01*
G37*
G36*
G01*
X76965000Y-79415000D02*
X76335000Y-79415000D01*
G75*
G02*
X76085000Y-79165000I0J250000D01*
G01*
X76085000Y-78535000D01*
G75*
G02*
X76335000Y-78285000I250000J0D01*
G01*
X76965000Y-78285000D01*
G75*
G02*
X77215000Y-78535000I0J-250000D01*
G01*
X77215000Y-79165000D01*
G75*
G02*
X76965000Y-79415000I-250000J0D01*
G01*
G37*
G36*
G01*
X78365000Y-79415000D02*
X77735000Y-79415000D01*
G75*
G02*
X77485000Y-79165000I0J250000D01*
G01*
X77485000Y-78535000D01*
G75*
G02*
X77735000Y-78285000I250000J0D01*
G01*
X78365000Y-78285000D01*
G75*
G02*
X78615000Y-78535000I0J-250000D01*
G01*
X78615000Y-79165000D01*
G75*
G02*
X78365000Y-79415000I-250000J0D01*
G01*
G37*
G36*
G01*
X74165000Y-80815000D02*
X73535000Y-80815000D01*
G75*
G02*
X73285000Y-80565000I0J250000D01*
G01*
X73285000Y-79935000D01*
G75*
G02*
X73535000Y-79685000I250000J0D01*
G01*
X74165000Y-79685000D01*
G75*
G02*
X74415000Y-79935000I0J-250000D01*
G01*
X74415000Y-80565000D01*
G75*
G02*
X74165000Y-80815000I-250000J0D01*
G01*
G37*
G36*
G01*
X75565000Y-80815000D02*
X74935000Y-80815000D01*
G75*
G02*
X74685000Y-80565000I0J250000D01*
G01*
X74685000Y-79935000D01*
G75*
G02*
X74935000Y-79685000I250000J0D01*
G01*
X75565000Y-79685000D01*
G75*
G02*
X75815000Y-79935000I0J-250000D01*
G01*
X75815000Y-80565000D01*
G75*
G02*
X75565000Y-80815000I-250000J0D01*
G01*
G37*
G36*
G01*
X76965000Y-80815000D02*
X76335000Y-80815000D01*
G75*
G02*
X76085000Y-80565000I0J250000D01*
G01*
X76085000Y-79935000D01*
G75*
G02*
X76335000Y-79685000I250000J0D01*
G01*
X76965000Y-79685000D01*
G75*
G02*
X77215000Y-79935000I0J-250000D01*
G01*
X77215000Y-80565000D01*
G75*
G02*
X76965000Y-80815000I-250000J0D01*
G01*
G37*
G36*
G01*
X78365000Y-80815000D02*
X77735000Y-80815000D01*
G75*
G02*
X77485000Y-80565000I0J250000D01*
G01*
X77485000Y-79935000D01*
G75*
G02*
X77735000Y-79685000I250000J0D01*
G01*
X78365000Y-79685000D01*
G75*
G02*
X78615000Y-79935000I0J-250000D01*
G01*
X78615000Y-80565000D01*
G75*
G02*
X78365000Y-80815000I-250000J0D01*
G01*
G37*
G36*
G01*
X79762500Y-81025000D02*
X79012500Y-81025000D01*
G75*
G02*
X78950000Y-80962500I0J62500D01*
G01*
X78950000Y-80837500D01*
G75*
G02*
X79012500Y-80775000I62500J0D01*
G01*
X79762500Y-80775000D01*
G75*
G02*
X79825000Y-80837500I0J-62500D01*
G01*
X79825000Y-80962500D01*
G75*
G02*
X79762500Y-81025000I-62500J0D01*
G01*
G37*
G36*
G01*
X79762500Y-80525000D02*
X79012500Y-80525000D01*
G75*
G02*
X78950000Y-80462500I0J62500D01*
G01*
X78950000Y-80337500D01*
G75*
G02*
X79012500Y-80275000I62500J0D01*
G01*
X79762500Y-80275000D01*
G75*
G02*
X79825000Y-80337500I0J-62500D01*
G01*
X79825000Y-80462500D01*
G75*
G02*
X79762500Y-80525000I-62500J0D01*
G01*
G37*
G36*
G01*
X79762500Y-80025000D02*
X79012500Y-80025000D01*
G75*
G02*
X78950000Y-79962500I0J62500D01*
G01*
X78950000Y-79837500D01*
G75*
G02*
X79012500Y-79775000I62500J0D01*
G01*
X79762500Y-79775000D01*
G75*
G02*
X79825000Y-79837500I0J-62500D01*
G01*
X79825000Y-79962500D01*
G75*
G02*
X79762500Y-80025000I-62500J0D01*
G01*
G37*
G36*
G01*
X79762500Y-79525000D02*
X79012500Y-79525000D01*
G75*
G02*
X78950000Y-79462500I0J62500D01*
G01*
X78950000Y-79337500D01*
G75*
G02*
X79012500Y-79275000I62500J0D01*
G01*
X79762500Y-79275000D01*
G75*
G02*
X79825000Y-79337500I0J-62500D01*
G01*
X79825000Y-79462500D01*
G75*
G02*
X79762500Y-79525000I-62500J0D01*
G01*
G37*
G36*
G01*
X79762500Y-79025000D02*
X79012500Y-79025000D01*
G75*
G02*
X78950000Y-78962500I0J62500D01*
G01*
X78950000Y-78837500D01*
G75*
G02*
X79012500Y-78775000I62500J0D01*
G01*
X79762500Y-78775000D01*
G75*
G02*
X79825000Y-78837500I0J-62500D01*
G01*
X79825000Y-78962500D01*
G75*
G02*
X79762500Y-79025000I-62500J0D01*
G01*
G37*
G36*
G01*
X79762500Y-78525000D02*
X79012500Y-78525000D01*
G75*
G02*
X78950000Y-78462500I0J62500D01*
G01*
X78950000Y-78337500D01*
G75*
G02*
X79012500Y-78275000I62500J0D01*
G01*
X79762500Y-78275000D01*
G75*
G02*
X79825000Y-78337500I0J-62500D01*
G01*
X79825000Y-78462500D01*
G75*
G02*
X79762500Y-78525000I-62500J0D01*
G01*
G37*
G36*
G01*
X79762500Y-78025000D02*
X79012500Y-78025000D01*
G75*
G02*
X78950000Y-77962500I0J62500D01*
G01*
X78950000Y-77837500D01*
G75*
G02*
X79012500Y-77775000I62500J0D01*
G01*
X79762500Y-77775000D01*
G75*
G02*
X79825000Y-77837500I0J-62500D01*
G01*
X79825000Y-77962500D01*
G75*
G02*
X79762500Y-78025000I-62500J0D01*
G01*
G37*
G36*
G01*
X79762500Y-77525000D02*
X79012500Y-77525000D01*
G75*
G02*
X78950000Y-77462500I0J62500D01*
G01*
X78950000Y-77337500D01*
G75*
G02*
X79012500Y-77275000I62500J0D01*
G01*
X79762500Y-77275000D01*
G75*
G02*
X79825000Y-77337500I0J-62500D01*
G01*
X79825000Y-77462500D01*
G75*
G02*
X79762500Y-77525000I-62500J0D01*
G01*
G37*
G36*
G01*
X79762500Y-77025000D02*
X79012500Y-77025000D01*
G75*
G02*
X78950000Y-76962500I0J62500D01*
G01*
X78950000Y-76837500D01*
G75*
G02*
X79012500Y-76775000I62500J0D01*
G01*
X79762500Y-76775000D01*
G75*
G02*
X79825000Y-76837500I0J-62500D01*
G01*
X79825000Y-76962500D01*
G75*
G02*
X79762500Y-77025000I-62500J0D01*
G01*
G37*
G36*
G01*
X79762500Y-76525000D02*
X79012500Y-76525000D01*
G75*
G02*
X78950000Y-76462500I0J62500D01*
G01*
X78950000Y-76337500D01*
G75*
G02*
X79012500Y-76275000I62500J0D01*
G01*
X79762500Y-76275000D01*
G75*
G02*
X79825000Y-76337500I0J-62500D01*
G01*
X79825000Y-76462500D01*
G75*
G02*
X79762500Y-76525000I-62500J0D01*
G01*
G37*
G36*
G01*
X79762500Y-76025000D02*
X79012500Y-76025000D01*
G75*
G02*
X78950000Y-75962500I0J62500D01*
G01*
X78950000Y-75837500D01*
G75*
G02*
X79012500Y-75775000I62500J0D01*
G01*
X79762500Y-75775000D01*
G75*
G02*
X79825000Y-75837500I0J-62500D01*
G01*
X79825000Y-75962500D01*
G75*
G02*
X79762500Y-76025000I-62500J0D01*
G01*
G37*
G36*
G01*
X79762500Y-75525000D02*
X79012500Y-75525000D01*
G75*
G02*
X78950000Y-75462500I0J62500D01*
G01*
X78950000Y-75337500D01*
G75*
G02*
X79012500Y-75275000I62500J0D01*
G01*
X79762500Y-75275000D01*
G75*
G02*
X79825000Y-75337500I0J-62500D01*
G01*
X79825000Y-75462500D01*
G75*
G02*
X79762500Y-75525000I-62500J0D01*
G01*
G37*
G36*
G01*
X78762500Y-75150000D02*
X78637500Y-75150000D01*
G75*
G02*
X78575000Y-75087500I0J62500D01*
G01*
X78575000Y-74337500D01*
G75*
G02*
X78637500Y-74275000I62500J0D01*
G01*
X78762500Y-74275000D01*
G75*
G02*
X78825000Y-74337500I0J-62500D01*
G01*
X78825000Y-75087500D01*
G75*
G02*
X78762500Y-75150000I-62500J0D01*
G01*
G37*
G36*
G01*
X78262500Y-75150000D02*
X78137500Y-75150000D01*
G75*
G02*
X78075000Y-75087500I0J62500D01*
G01*
X78075000Y-74337500D01*
G75*
G02*
X78137500Y-74275000I62500J0D01*
G01*
X78262500Y-74275000D01*
G75*
G02*
X78325000Y-74337500I0J-62500D01*
G01*
X78325000Y-75087500D01*
G75*
G02*
X78262500Y-75150000I-62500J0D01*
G01*
G37*
G36*
G01*
X77762500Y-75150000D02*
X77637500Y-75150000D01*
G75*
G02*
X77575000Y-75087500I0J62500D01*
G01*
X77575000Y-74337500D01*
G75*
G02*
X77637500Y-74275000I62500J0D01*
G01*
X77762500Y-74275000D01*
G75*
G02*
X77825000Y-74337500I0J-62500D01*
G01*
X77825000Y-75087500D01*
G75*
G02*
X77762500Y-75150000I-62500J0D01*
G01*
G37*
G36*
G01*
X77262500Y-75150000D02*
X77137500Y-75150000D01*
G75*
G02*
X77075000Y-75087500I0J62500D01*
G01*
X77075000Y-74337500D01*
G75*
G02*
X77137500Y-74275000I62500J0D01*
G01*
X77262500Y-74275000D01*
G75*
G02*
X77325000Y-74337500I0J-62500D01*
G01*
X77325000Y-75087500D01*
G75*
G02*
X77262500Y-75150000I-62500J0D01*
G01*
G37*
G36*
G01*
X76762500Y-75150000D02*
X76637500Y-75150000D01*
G75*
G02*
X76575000Y-75087500I0J62500D01*
G01*
X76575000Y-74337500D01*
G75*
G02*
X76637500Y-74275000I62500J0D01*
G01*
X76762500Y-74275000D01*
G75*
G02*
X76825000Y-74337500I0J-62500D01*
G01*
X76825000Y-75087500D01*
G75*
G02*
X76762500Y-75150000I-62500J0D01*
G01*
G37*
G36*
G01*
X76262500Y-75150000D02*
X76137500Y-75150000D01*
G75*
G02*
X76075000Y-75087500I0J62500D01*
G01*
X76075000Y-74337500D01*
G75*
G02*
X76137500Y-74275000I62500J0D01*
G01*
X76262500Y-74275000D01*
G75*
G02*
X76325000Y-74337500I0J-62500D01*
G01*
X76325000Y-75087500D01*
G75*
G02*
X76262500Y-75150000I-62500J0D01*
G01*
G37*
G36*
G01*
X75762500Y-75150000D02*
X75637500Y-75150000D01*
G75*
G02*
X75575000Y-75087500I0J62500D01*
G01*
X75575000Y-74337500D01*
G75*
G02*
X75637500Y-74275000I62500J0D01*
G01*
X75762500Y-74275000D01*
G75*
G02*
X75825000Y-74337500I0J-62500D01*
G01*
X75825000Y-75087500D01*
G75*
G02*
X75762500Y-75150000I-62500J0D01*
G01*
G37*
G36*
G01*
X75262500Y-75150000D02*
X75137500Y-75150000D01*
G75*
G02*
X75075000Y-75087500I0J62500D01*
G01*
X75075000Y-74337500D01*
G75*
G02*
X75137500Y-74275000I62500J0D01*
G01*
X75262500Y-74275000D01*
G75*
G02*
X75325000Y-74337500I0J-62500D01*
G01*
X75325000Y-75087500D01*
G75*
G02*
X75262500Y-75150000I-62500J0D01*
G01*
G37*
G36*
G01*
X74762500Y-75150000D02*
X74637500Y-75150000D01*
G75*
G02*
X74575000Y-75087500I0J62500D01*
G01*
X74575000Y-74337500D01*
G75*
G02*
X74637500Y-74275000I62500J0D01*
G01*
X74762500Y-74275000D01*
G75*
G02*
X74825000Y-74337500I0J-62500D01*
G01*
X74825000Y-75087500D01*
G75*
G02*
X74762500Y-75150000I-62500J0D01*
G01*
G37*
G36*
G01*
X74262500Y-75150000D02*
X74137500Y-75150000D01*
G75*
G02*
X74075000Y-75087500I0J62500D01*
G01*
X74075000Y-74337500D01*
G75*
G02*
X74137500Y-74275000I62500J0D01*
G01*
X74262500Y-74275000D01*
G75*
G02*
X74325000Y-74337500I0J-62500D01*
G01*
X74325000Y-75087500D01*
G75*
G02*
X74262500Y-75150000I-62500J0D01*
G01*
G37*
G36*
G01*
X73762500Y-75150000D02*
X73637500Y-75150000D01*
G75*
G02*
X73575000Y-75087500I0J62500D01*
G01*
X73575000Y-74337500D01*
G75*
G02*
X73637500Y-74275000I62500J0D01*
G01*
X73762500Y-74275000D01*
G75*
G02*
X73825000Y-74337500I0J-62500D01*
G01*
X73825000Y-75087500D01*
G75*
G02*
X73762500Y-75150000I-62500J0D01*
G01*
G37*
G36*
G01*
X73262500Y-75150000D02*
X73137500Y-75150000D01*
G75*
G02*
X73075000Y-75087500I0J62500D01*
G01*
X73075000Y-74337500D01*
G75*
G02*
X73137500Y-74275000I62500J0D01*
G01*
X73262500Y-74275000D01*
G75*
G02*
X73325000Y-74337500I0J-62500D01*
G01*
X73325000Y-75087500D01*
G75*
G02*
X73262500Y-75150000I-62500J0D01*
G01*
G37*
G36*
G01*
X72887500Y-75525000D02*
X72137500Y-75525000D01*
G75*
G02*
X72075000Y-75462500I0J62500D01*
G01*
X72075000Y-75337500D01*
G75*
G02*
X72137500Y-75275000I62500J0D01*
G01*
X72887500Y-75275000D01*
G75*
G02*
X72950000Y-75337500I0J-62500D01*
G01*
X72950000Y-75462500D01*
G75*
G02*
X72887500Y-75525000I-62500J0D01*
G01*
G37*
G36*
G01*
X72887500Y-76025000D02*
X72137500Y-76025000D01*
G75*
G02*
X72075000Y-75962500I0J62500D01*
G01*
X72075000Y-75837500D01*
G75*
G02*
X72137500Y-75775000I62500J0D01*
G01*
X72887500Y-75775000D01*
G75*
G02*
X72950000Y-75837500I0J-62500D01*
G01*
X72950000Y-75962500D01*
G75*
G02*
X72887500Y-76025000I-62500J0D01*
G01*
G37*
G36*
G01*
X72887500Y-76525000D02*
X72137500Y-76525000D01*
G75*
G02*
X72075000Y-76462500I0J62500D01*
G01*
X72075000Y-76337500D01*
G75*
G02*
X72137500Y-76275000I62500J0D01*
G01*
X72887500Y-76275000D01*
G75*
G02*
X72950000Y-76337500I0J-62500D01*
G01*
X72950000Y-76462500D01*
G75*
G02*
X72887500Y-76525000I-62500J0D01*
G01*
G37*
G36*
G01*
X72887500Y-77025000D02*
X72137500Y-77025000D01*
G75*
G02*
X72075000Y-76962500I0J62500D01*
G01*
X72075000Y-76837500D01*
G75*
G02*
X72137500Y-76775000I62500J0D01*
G01*
X72887500Y-76775000D01*
G75*
G02*
X72950000Y-76837500I0J-62500D01*
G01*
X72950000Y-76962500D01*
G75*
G02*
X72887500Y-77025000I-62500J0D01*
G01*
G37*
G36*
G01*
X72887500Y-77525000D02*
X72137500Y-77525000D01*
G75*
G02*
X72075000Y-77462500I0J62500D01*
G01*
X72075000Y-77337500D01*
G75*
G02*
X72137500Y-77275000I62500J0D01*
G01*
X72887500Y-77275000D01*
G75*
G02*
X72950000Y-77337500I0J-62500D01*
G01*
X72950000Y-77462500D01*
G75*
G02*
X72887500Y-77525000I-62500J0D01*
G01*
G37*
G36*
G01*
X72887500Y-78025000D02*
X72137500Y-78025000D01*
G75*
G02*
X72075000Y-77962500I0J62500D01*
G01*
X72075000Y-77837500D01*
G75*
G02*
X72137500Y-77775000I62500J0D01*
G01*
X72887500Y-77775000D01*
G75*
G02*
X72950000Y-77837500I0J-62500D01*
G01*
X72950000Y-77962500D01*
G75*
G02*
X72887500Y-78025000I-62500J0D01*
G01*
G37*
G36*
G01*
X72887500Y-78525000D02*
X72137500Y-78525000D01*
G75*
G02*
X72075000Y-78462500I0J62500D01*
G01*
X72075000Y-78337500D01*
G75*
G02*
X72137500Y-78275000I62500J0D01*
G01*
X72887500Y-78275000D01*
G75*
G02*
X72950000Y-78337500I0J-62500D01*
G01*
X72950000Y-78462500D01*
G75*
G02*
X72887500Y-78525000I-62500J0D01*
G01*
G37*
G36*
G01*
X72887500Y-79025000D02*
X72137500Y-79025000D01*
G75*
G02*
X72075000Y-78962500I0J62500D01*
G01*
X72075000Y-78837500D01*
G75*
G02*
X72137500Y-78775000I62500J0D01*
G01*
X72887500Y-78775000D01*
G75*
G02*
X72950000Y-78837500I0J-62500D01*
G01*
X72950000Y-78962500D01*
G75*
G02*
X72887500Y-79025000I-62500J0D01*
G01*
G37*
G36*
G01*
X72887500Y-79525000D02*
X72137500Y-79525000D01*
G75*
G02*
X72075000Y-79462500I0J62500D01*
G01*
X72075000Y-79337500D01*
G75*
G02*
X72137500Y-79275000I62500J0D01*
G01*
X72887500Y-79275000D01*
G75*
G02*
X72950000Y-79337500I0J-62500D01*
G01*
X72950000Y-79462500D01*
G75*
G02*
X72887500Y-79525000I-62500J0D01*
G01*
G37*
G36*
G01*
X72887500Y-80025000D02*
X72137500Y-80025000D01*
G75*
G02*
X72075000Y-79962500I0J62500D01*
G01*
X72075000Y-79837500D01*
G75*
G02*
X72137500Y-79775000I62500J0D01*
G01*
X72887500Y-79775000D01*
G75*
G02*
X72950000Y-79837500I0J-62500D01*
G01*
X72950000Y-79962500D01*
G75*
G02*
X72887500Y-80025000I-62500J0D01*
G01*
G37*
G36*
G01*
X72887500Y-80525000D02*
X72137500Y-80525000D01*
G75*
G02*
X72075000Y-80462500I0J62500D01*
G01*
X72075000Y-80337500D01*
G75*
G02*
X72137500Y-80275000I62500J0D01*
G01*
X72887500Y-80275000D01*
G75*
G02*
X72950000Y-80337500I0J-62500D01*
G01*
X72950000Y-80462500D01*
G75*
G02*
X72887500Y-80525000I-62500J0D01*
G01*
G37*
G36*
G01*
X72887500Y-81025000D02*
X72137500Y-81025000D01*
G75*
G02*
X72075000Y-80962500I0J62500D01*
G01*
X72075000Y-80837500D01*
G75*
G02*
X72137500Y-80775000I62500J0D01*
G01*
X72887500Y-80775000D01*
G75*
G02*
X72950000Y-80837500I0J-62500D01*
G01*
X72950000Y-80962500D01*
G75*
G02*
X72887500Y-81025000I-62500J0D01*
G01*
G37*
G36*
G01*
X73262500Y-82025000D02*
X73137500Y-82025000D01*
G75*
G02*
X73075000Y-81962500I0J62500D01*
G01*
X73075000Y-81212500D01*
G75*
G02*
X73137500Y-81150000I62500J0D01*
G01*
X73262500Y-81150000D01*
G75*
G02*
X73325000Y-81212500I0J-62500D01*
G01*
X73325000Y-81962500D01*
G75*
G02*
X73262500Y-82025000I-62500J0D01*
G01*
G37*
G36*
G01*
X73762500Y-82025000D02*
X73637500Y-82025000D01*
G75*
G02*
X73575000Y-81962500I0J62500D01*
G01*
X73575000Y-81212500D01*
G75*
G02*
X73637500Y-81150000I62500J0D01*
G01*
X73762500Y-81150000D01*
G75*
G02*
X73825000Y-81212500I0J-62500D01*
G01*
X73825000Y-81962500D01*
G75*
G02*
X73762500Y-82025000I-62500J0D01*
G01*
G37*
G36*
G01*
X74262500Y-82025000D02*
X74137500Y-82025000D01*
G75*
G02*
X74075000Y-81962500I0J62500D01*
G01*
X74075000Y-81212500D01*
G75*
G02*
X74137500Y-81150000I62500J0D01*
G01*
X74262500Y-81150000D01*
G75*
G02*
X74325000Y-81212500I0J-62500D01*
G01*
X74325000Y-81962500D01*
G75*
G02*
X74262500Y-82025000I-62500J0D01*
G01*
G37*
G36*
G01*
X74762500Y-82025000D02*
X74637500Y-82025000D01*
G75*
G02*
X74575000Y-81962500I0J62500D01*
G01*
X74575000Y-81212500D01*
G75*
G02*
X74637500Y-81150000I62500J0D01*
G01*
X74762500Y-81150000D01*
G75*
G02*
X74825000Y-81212500I0J-62500D01*
G01*
X74825000Y-81962500D01*
G75*
G02*
X74762500Y-82025000I-62500J0D01*
G01*
G37*
G36*
G01*
X75262500Y-82025000D02*
X75137500Y-82025000D01*
G75*
G02*
X75075000Y-81962500I0J62500D01*
G01*
X75075000Y-81212500D01*
G75*
G02*
X75137500Y-81150000I62500J0D01*
G01*
X75262500Y-81150000D01*
G75*
G02*
X75325000Y-81212500I0J-62500D01*
G01*
X75325000Y-81962500D01*
G75*
G02*
X75262500Y-82025000I-62500J0D01*
G01*
G37*
G36*
G01*
X75762500Y-82025000D02*
X75637500Y-82025000D01*
G75*
G02*
X75575000Y-81962500I0J62500D01*
G01*
X75575000Y-81212500D01*
G75*
G02*
X75637500Y-81150000I62500J0D01*
G01*
X75762500Y-81150000D01*
G75*
G02*
X75825000Y-81212500I0J-62500D01*
G01*
X75825000Y-81962500D01*
G75*
G02*
X75762500Y-82025000I-62500J0D01*
G01*
G37*
G36*
G01*
X76262500Y-82025000D02*
X76137500Y-82025000D01*
G75*
G02*
X76075000Y-81962500I0J62500D01*
G01*
X76075000Y-81212500D01*
G75*
G02*
X76137500Y-81150000I62500J0D01*
G01*
X76262500Y-81150000D01*
G75*
G02*
X76325000Y-81212500I0J-62500D01*
G01*
X76325000Y-81962500D01*
G75*
G02*
X76262500Y-82025000I-62500J0D01*
G01*
G37*
G36*
G01*
X76762500Y-82025000D02*
X76637500Y-82025000D01*
G75*
G02*
X76575000Y-81962500I0J62500D01*
G01*
X76575000Y-81212500D01*
G75*
G02*
X76637500Y-81150000I62500J0D01*
G01*
X76762500Y-81150000D01*
G75*
G02*
X76825000Y-81212500I0J-62500D01*
G01*
X76825000Y-81962500D01*
G75*
G02*
X76762500Y-82025000I-62500J0D01*
G01*
G37*
G36*
G01*
X77262500Y-82025000D02*
X77137500Y-82025000D01*
G75*
G02*
X77075000Y-81962500I0J62500D01*
G01*
X77075000Y-81212500D01*
G75*
G02*
X77137500Y-81150000I62500J0D01*
G01*
X77262500Y-81150000D01*
G75*
G02*
X77325000Y-81212500I0J-62500D01*
G01*
X77325000Y-81962500D01*
G75*
G02*
X77262500Y-82025000I-62500J0D01*
G01*
G37*
G36*
G01*
X77762500Y-82025000D02*
X77637500Y-82025000D01*
G75*
G02*
X77575000Y-81962500I0J62500D01*
G01*
X77575000Y-81212500D01*
G75*
G02*
X77637500Y-81150000I62500J0D01*
G01*
X77762500Y-81150000D01*
G75*
G02*
X77825000Y-81212500I0J-62500D01*
G01*
X77825000Y-81962500D01*
G75*
G02*
X77762500Y-82025000I-62500J0D01*
G01*
G37*
G36*
G01*
X78262500Y-82025000D02*
X78137500Y-82025000D01*
G75*
G02*
X78075000Y-81962500I0J62500D01*
G01*
X78075000Y-81212500D01*
G75*
G02*
X78137500Y-81150000I62500J0D01*
G01*
X78262500Y-81150000D01*
G75*
G02*
X78325000Y-81212500I0J-62500D01*
G01*
X78325000Y-81962500D01*
G75*
G02*
X78262500Y-82025000I-62500J0D01*
G01*
G37*
G36*
G01*
X78762500Y-82025000D02*
X78637500Y-82025000D01*
G75*
G02*
X78575000Y-81962500I0J62500D01*
G01*
X78575000Y-81212500D01*
G75*
G02*
X78637500Y-81150000I62500J0D01*
G01*
X78762500Y-81150000D01*
G75*
G02*
X78825000Y-81212500I0J-62500D01*
G01*
X78825000Y-81962500D01*
G75*
G02*
X78762500Y-82025000I-62500J0D01*
G01*
G37*
%TD*%
%TO.C,D1*%
X66950000Y-66900000D03*
X65550000Y-66900000D03*
%TD*%
%TO.C,R6*%
G36*
G01*
X68275000Y-66700000D02*
X68825000Y-66700000D01*
G75*
G02*
X69025000Y-66900000I0J-200000D01*
G01*
X69025000Y-67300000D01*
G75*
G02*
X68825000Y-67500000I-200000J0D01*
G01*
X68275000Y-67500000D01*
G75*
G02*
X68075000Y-67300000I0J200000D01*
G01*
X68075000Y-66900000D01*
G75*
G02*
X68275000Y-66700000I200000J0D01*
G01*
G37*
G36*
G01*
X68275000Y-65050000D02*
X68825000Y-65050000D01*
G75*
G02*
X69025000Y-65250000I0J-200000D01*
G01*
X69025000Y-65650000D01*
G75*
G02*
X68825000Y-65850000I-200000J0D01*
G01*
X68275000Y-65850000D01*
G75*
G02*
X68075000Y-65650000I0J200000D01*
G01*
X68075000Y-65250000D01*
G75*
G02*
X68275000Y-65050000I200000J0D01*
G01*
G37*
%TD*%
%TO.C,C16*%
G36*
G01*
X70550001Y-61625000D02*
X68349999Y-61625000D01*
G75*
G02*
X68100000Y-61375001I0J249999D01*
G01*
X68100000Y-60724999D01*
G75*
G02*
X68349999Y-60475000I249999J0D01*
G01*
X70550001Y-60475000D01*
G75*
G02*
X70800000Y-60724999I0J-249999D01*
G01*
X70800000Y-61375001D01*
G75*
G02*
X70550001Y-61625000I-249999J0D01*
G01*
G37*
G36*
G01*
X70550001Y-64575000D02*
X68349999Y-64575000D01*
G75*
G02*
X68100000Y-64325001I0J249999D01*
G01*
X68100000Y-63674999D01*
G75*
G02*
X68349999Y-63425000I249999J0D01*
G01*
X70550001Y-63425000D01*
G75*
G02*
X70800000Y-63674999I0J-249999D01*
G01*
X70800000Y-64325001D01*
G75*
G02*
X70550001Y-64575000I-249999J0D01*
G01*
G37*
%TD*%
%TO.C,R5*%
G36*
G01*
X55825000Y-111375000D02*
X55825000Y-111925000D01*
G75*
G02*
X55625000Y-112125000I-200000J0D01*
G01*
X55225000Y-112125000D01*
G75*
G02*
X55025000Y-111925000I0J200000D01*
G01*
X55025000Y-111375000D01*
G75*
G02*
X55225000Y-111175000I200000J0D01*
G01*
X55625000Y-111175000D01*
G75*
G02*
X55825000Y-111375000I0J-200000D01*
G01*
G37*
G36*
G01*
X57475000Y-111375000D02*
X57475000Y-111925000D01*
G75*
G02*
X57275000Y-112125000I-200000J0D01*
G01*
X56875000Y-112125000D01*
G75*
G02*
X56675000Y-111925000I0J200000D01*
G01*
X56675000Y-111375000D01*
G75*
G02*
X56875000Y-111175000I200000J0D01*
G01*
X57275000Y-111175000D01*
G75*
G02*
X57475000Y-111375000I0J-200000D01*
G01*
G37*
%TD*%
D16*
%TO.C,J1*%
X86900000Y-96250000D03*
X86900000Y-102750000D03*
D17*
X89400000Y-97250000D03*
X89400000Y-97750000D03*
X89400000Y-98250000D03*
X89400000Y-98750000D03*
X89400000Y-99250000D03*
X89400000Y-99750000D03*
X89400000Y-100250000D03*
X89400000Y-100750000D03*
X89400000Y-101250000D03*
X89400000Y-101750000D03*
%TD*%
D18*
%TO.C,Y1*%
X80050000Y-84850000D03*
X80050000Y-87350000D03*
%TD*%
%TO.C,U2*%
G36*
G01*
X84750000Y-69275000D02*
X84750000Y-68925000D01*
G75*
G02*
X84925000Y-68750000I175000J0D01*
G01*
X86375000Y-68750000D01*
G75*
G02*
X86550000Y-68925000I0J-175000D01*
G01*
X86550000Y-69275000D01*
G75*
G02*
X86375000Y-69450000I-175000J0D01*
G01*
X84925000Y-69450000D01*
G75*
G02*
X84750000Y-69275000I0J175000D01*
G01*
G37*
G36*
G01*
X84750000Y-68200000D02*
X84750000Y-67800000D01*
G75*
G02*
X84950000Y-67600000I200000J0D01*
G01*
X86350000Y-67600000D01*
G75*
G02*
X86550000Y-67800000I0J-200000D01*
G01*
X86550000Y-68200000D01*
G75*
G02*
X86350000Y-68400000I-200000J0D01*
G01*
X84950000Y-68400000D01*
G75*
G02*
X84750000Y-68200000I0J200000D01*
G01*
G37*
G36*
G01*
X84750000Y-67100000D02*
X84750000Y-66700000D01*
G75*
G02*
X84950000Y-66500000I200000J0D01*
G01*
X86350000Y-66500000D01*
G75*
G02*
X86550000Y-66700000I0J-200000D01*
G01*
X86550000Y-67100000D01*
G75*
G02*
X86350000Y-67300000I-200000J0D01*
G01*
X84950000Y-67300000D01*
G75*
G02*
X84750000Y-67100000I0J200000D01*
G01*
G37*
G36*
G01*
X84750000Y-66000000D02*
X84750000Y-65600000D01*
G75*
G02*
X84950000Y-65400000I200000J0D01*
G01*
X86350000Y-65400000D01*
G75*
G02*
X86550000Y-65600000I0J-200000D01*
G01*
X86550000Y-66000000D01*
G75*
G02*
X86350000Y-66200000I-200000J0D01*
G01*
X84950000Y-66200000D01*
G75*
G02*
X84750000Y-66000000I0J200000D01*
G01*
G37*
G36*
G01*
X84750000Y-64900000D02*
X84750000Y-64500000D01*
G75*
G02*
X84950000Y-64300000I200000J0D01*
G01*
X86350000Y-64300000D01*
G75*
G02*
X86550000Y-64500000I0J-200000D01*
G01*
X86550000Y-64900000D01*
G75*
G02*
X86350000Y-65100000I-200000J0D01*
G01*
X84950000Y-65100000D01*
G75*
G02*
X84750000Y-64900000I0J200000D01*
G01*
G37*
G36*
G01*
X84750000Y-63800000D02*
X84750000Y-63400000D01*
G75*
G02*
X84950000Y-63200000I200000J0D01*
G01*
X86350000Y-63200000D01*
G75*
G02*
X86550000Y-63400000I0J-200000D01*
G01*
X86550000Y-63800000D01*
G75*
G02*
X86350000Y-64000000I-200000J0D01*
G01*
X84950000Y-64000000D01*
G75*
G02*
X84750000Y-63800000I0J200000D01*
G01*
G37*
G36*
G01*
X84750000Y-62700000D02*
X84750000Y-62300000D01*
G75*
G02*
X84950000Y-62100000I200000J0D01*
G01*
X86350000Y-62100000D01*
G75*
G02*
X86550000Y-62300000I0J-200000D01*
G01*
X86550000Y-62700000D01*
G75*
G02*
X86350000Y-62900000I-200000J0D01*
G01*
X84950000Y-62900000D01*
G75*
G02*
X84750000Y-62700000I0J200000D01*
G01*
G37*
G36*
G01*
X84750000Y-61600000D02*
X84750000Y-61200000D01*
G75*
G02*
X84950000Y-61000000I200000J0D01*
G01*
X86350000Y-61000000D01*
G75*
G02*
X86550000Y-61200000I0J-200000D01*
G01*
X86550000Y-61600000D01*
G75*
G02*
X86350000Y-61800000I-200000J0D01*
G01*
X84950000Y-61800000D01*
G75*
G02*
X84750000Y-61600000I0J200000D01*
G01*
G37*
G36*
G01*
X84750000Y-60475000D02*
X84750000Y-60125000D01*
G75*
G02*
X84925000Y-59950000I175000J0D01*
G01*
X86375000Y-59950000D01*
G75*
G02*
X86550000Y-60125000I0J-175000D01*
G01*
X86550000Y-60475000D01*
G75*
G02*
X86375000Y-60650000I-175000J0D01*
G01*
X84925000Y-60650000D01*
G75*
G02*
X84750000Y-60475000I0J175000D01*
G01*
G37*
G36*
G01*
X75250000Y-60475000D02*
X75250000Y-60125000D01*
G75*
G02*
X75425000Y-59950000I175000J0D01*
G01*
X76875000Y-59950000D01*
G75*
G02*
X77050000Y-60125000I0J-175000D01*
G01*
X77050000Y-60475000D01*
G75*
G02*
X76875000Y-60650000I-175000J0D01*
G01*
X75425000Y-60650000D01*
G75*
G02*
X75250000Y-60475000I0J175000D01*
G01*
G37*
G36*
G01*
X75250000Y-61600000D02*
X75250000Y-61200000D01*
G75*
G02*
X75450000Y-61000000I200000J0D01*
G01*
X76850000Y-61000000D01*
G75*
G02*
X77050000Y-61200000I0J-200000D01*
G01*
X77050000Y-61600000D01*
G75*
G02*
X76850000Y-61800000I-200000J0D01*
G01*
X75450000Y-61800000D01*
G75*
G02*
X75250000Y-61600000I0J200000D01*
G01*
G37*
G36*
G01*
X75250000Y-62700000D02*
X75250000Y-62300000D01*
G75*
G02*
X75450000Y-62100000I200000J0D01*
G01*
X76850000Y-62100000D01*
G75*
G02*
X77050000Y-62300000I0J-200000D01*
G01*
X77050000Y-62700000D01*
G75*
G02*
X76850000Y-62900000I-200000J0D01*
G01*
X75450000Y-62900000D01*
G75*
G02*
X75250000Y-62700000I0J200000D01*
G01*
G37*
G36*
G01*
X75250000Y-63800000D02*
X75250000Y-63400000D01*
G75*
G02*
X75450000Y-63200000I200000J0D01*
G01*
X76850000Y-63200000D01*
G75*
G02*
X77050000Y-63400000I0J-200000D01*
G01*
X77050000Y-63800000D01*
G75*
G02*
X76850000Y-64000000I-200000J0D01*
G01*
X75450000Y-64000000D01*
G75*
G02*
X75250000Y-63800000I0J200000D01*
G01*
G37*
G36*
G01*
X75250000Y-64900000D02*
X75250000Y-64500000D01*
G75*
G02*
X75450000Y-64300000I200000J0D01*
G01*
X76850000Y-64300000D01*
G75*
G02*
X77050000Y-64500000I0J-200000D01*
G01*
X77050000Y-64900000D01*
G75*
G02*
X76850000Y-65100000I-200000J0D01*
G01*
X75450000Y-65100000D01*
G75*
G02*
X75250000Y-64900000I0J200000D01*
G01*
G37*
G36*
G01*
X75250000Y-66000000D02*
X75250000Y-65600000D01*
G75*
G02*
X75450000Y-65400000I200000J0D01*
G01*
X76850000Y-65400000D01*
G75*
G02*
X77050000Y-65600000I0J-200000D01*
G01*
X77050000Y-66000000D01*
G75*
G02*
X76850000Y-66200000I-200000J0D01*
G01*
X75450000Y-66200000D01*
G75*
G02*
X75250000Y-66000000I0J200000D01*
G01*
G37*
G36*
G01*
X75250000Y-67100000D02*
X75250000Y-66700000D01*
G75*
G02*
X75450000Y-66500000I200000J0D01*
G01*
X76850000Y-66500000D01*
G75*
G02*
X77050000Y-66700000I0J-200000D01*
G01*
X77050000Y-67100000D01*
G75*
G02*
X76850000Y-67300000I-200000J0D01*
G01*
X75450000Y-67300000D01*
G75*
G02*
X75250000Y-67100000I0J200000D01*
G01*
G37*
G36*
G01*
X75250000Y-68200000D02*
X75250000Y-67800000D01*
G75*
G02*
X75450000Y-67600000I200000J0D01*
G01*
X76850000Y-67600000D01*
G75*
G02*
X77050000Y-67800000I0J-200000D01*
G01*
X77050000Y-68200000D01*
G75*
G02*
X76850000Y-68400000I-200000J0D01*
G01*
X75450000Y-68400000D01*
G75*
G02*
X75250000Y-68200000I0J200000D01*
G01*
G37*
G36*
G01*
X75250000Y-69275000D02*
X75250000Y-68925000D01*
G75*
G02*
X75425000Y-68750000I175000J0D01*
G01*
X76875000Y-68750000D01*
G75*
G02*
X77050000Y-68925000I0J-175000D01*
G01*
X77050000Y-69275000D01*
G75*
G02*
X76875000Y-69450000I-175000J0D01*
G01*
X75425000Y-69450000D01*
G75*
G02*
X75250000Y-69275000I0J175000D01*
G01*
G37*
%TD*%
%TO.C,U1*%
G36*
G01*
X62156811Y-96722460D02*
X61870433Y-96436082D01*
G75*
G02*
X61870433Y-96149704I143189J143189D01*
G01*
X62156811Y-95863326D01*
G75*
G02*
X62443189Y-95863326I143189J-143189D01*
G01*
X62729567Y-96149704D01*
G75*
G02*
X62729567Y-96436082I-143189J-143189D01*
G01*
X62443189Y-96722460D01*
G75*
G02*
X62156811Y-96722460I-143189J143189D01*
G01*
G37*
G36*
G01*
X62863918Y-97429567D02*
X62577540Y-97143189D01*
G75*
G02*
X62577540Y-96856811I143189J143189D01*
G01*
X62863918Y-96570433D01*
G75*
G02*
X63150296Y-96570433I143189J-143189D01*
G01*
X63436674Y-96856811D01*
G75*
G02*
X63436674Y-97143189I-143189J-143189D01*
G01*
X63150296Y-97429567D01*
G75*
G02*
X62863918Y-97429567I-143189J143189D01*
G01*
G37*
G36*
G01*
X61449704Y-97429567D02*
X61163326Y-97143189D01*
G75*
G02*
X61163326Y-96856811I143189J143189D01*
G01*
X61449704Y-96570433D01*
G75*
G02*
X61736082Y-96570433I143189J-143189D01*
G01*
X62022460Y-96856811D01*
G75*
G02*
X62022460Y-97143189I-143189J-143189D01*
G01*
X61736082Y-97429567D01*
G75*
G02*
X61449704Y-97429567I-143189J143189D01*
G01*
G37*
G36*
G01*
X62156811Y-98136674D02*
X61870433Y-97850296D01*
G75*
G02*
X61870433Y-97563918I143189J143189D01*
G01*
X62156811Y-97277540D01*
G75*
G02*
X62443189Y-97277540I143189J-143189D01*
G01*
X62729567Y-97563918D01*
G75*
G02*
X62729567Y-97850296I-143189J-143189D01*
G01*
X62443189Y-98136674D01*
G75*
G02*
X62156811Y-98136674I-143189J143189D01*
G01*
G37*
G36*
G01*
X62962913Y-99253902D02*
X62432583Y-98723572D01*
G75*
G02*
X62432583Y-98635184I44194J44194D01*
G01*
X62520971Y-98546796D01*
G75*
G02*
X62609359Y-98546796I44194J-44194D01*
G01*
X63139689Y-99077126D01*
G75*
G02*
X63139689Y-99165514I-44194J-44194D01*
G01*
X63051301Y-99253902D01*
G75*
G02*
X62962913Y-99253902I-44194J44194D01*
G01*
G37*
G36*
G01*
X63316466Y-98900349D02*
X62786136Y-98370019D01*
G75*
G02*
X62786136Y-98281631I44194J44194D01*
G01*
X62874524Y-98193243D01*
G75*
G02*
X62962912Y-98193243I44194J-44194D01*
G01*
X63493242Y-98723573D01*
G75*
G02*
X63493242Y-98811961I-44194J-44194D01*
G01*
X63404854Y-98900349D01*
G75*
G02*
X63316466Y-98900349I-44194J44194D01*
G01*
G37*
G36*
G01*
X63670020Y-98546796D02*
X63139690Y-98016466D01*
G75*
G02*
X63139690Y-97928078I44194J44194D01*
G01*
X63228078Y-97839690D01*
G75*
G02*
X63316466Y-97839690I44194J-44194D01*
G01*
X63846796Y-98370020D01*
G75*
G02*
X63846796Y-98458408I-44194J-44194D01*
G01*
X63758408Y-98546796D01*
G75*
G02*
X63670020Y-98546796I-44194J44194D01*
G01*
G37*
G36*
G01*
X64023573Y-98193242D02*
X63493243Y-97662912D01*
G75*
G02*
X63493243Y-97574524I44194J44194D01*
G01*
X63581631Y-97486136D01*
G75*
G02*
X63670019Y-97486136I44194J-44194D01*
G01*
X64200349Y-98016466D01*
G75*
G02*
X64200349Y-98104854I-44194J-44194D01*
G01*
X64111961Y-98193242D01*
G75*
G02*
X64023573Y-98193242I-44194J44194D01*
G01*
G37*
G36*
G01*
X64377126Y-97839689D02*
X63846796Y-97309359D01*
G75*
G02*
X63846796Y-97220971I44194J44194D01*
G01*
X63935184Y-97132583D01*
G75*
G02*
X64023572Y-97132583I44194J-44194D01*
G01*
X64553902Y-97662913D01*
G75*
G02*
X64553902Y-97751301I-44194J-44194D01*
G01*
X64465514Y-97839689D01*
G75*
G02*
X64377126Y-97839689I-44194J44194D01*
G01*
G37*
G36*
G01*
X63935184Y-96867417D02*
X63846796Y-96779029D01*
G75*
G02*
X63846796Y-96690641I44194J44194D01*
G01*
X64377126Y-96160311D01*
G75*
G02*
X64465514Y-96160311I44194J-44194D01*
G01*
X64553902Y-96248699D01*
G75*
G02*
X64553902Y-96337087I-44194J-44194D01*
G01*
X64023572Y-96867417D01*
G75*
G02*
X63935184Y-96867417I-44194J44194D01*
G01*
G37*
G36*
G01*
X63581631Y-96513864D02*
X63493243Y-96425476D01*
G75*
G02*
X63493243Y-96337088I44194J44194D01*
G01*
X64023573Y-95806758D01*
G75*
G02*
X64111961Y-95806758I44194J-44194D01*
G01*
X64200349Y-95895146D01*
G75*
G02*
X64200349Y-95983534I-44194J-44194D01*
G01*
X63670019Y-96513864D01*
G75*
G02*
X63581631Y-96513864I-44194J44194D01*
G01*
G37*
G36*
G01*
X63228078Y-96160310D02*
X63139690Y-96071922D01*
G75*
G02*
X63139690Y-95983534I44194J44194D01*
G01*
X63670020Y-95453204D01*
G75*
G02*
X63758408Y-95453204I44194J-44194D01*
G01*
X63846796Y-95541592D01*
G75*
G02*
X63846796Y-95629980I-44194J-44194D01*
G01*
X63316466Y-96160310D01*
G75*
G02*
X63228078Y-96160310I-44194J44194D01*
G01*
G37*
G36*
G01*
X62874524Y-95806757D02*
X62786136Y-95718369D01*
G75*
G02*
X62786136Y-95629981I44194J44194D01*
G01*
X63316466Y-95099651D01*
G75*
G02*
X63404854Y-95099651I44194J-44194D01*
G01*
X63493242Y-95188039D01*
G75*
G02*
X63493242Y-95276427I-44194J-44194D01*
G01*
X62962912Y-95806757D01*
G75*
G02*
X62874524Y-95806757I-44194J44194D01*
G01*
G37*
G36*
G01*
X62520971Y-95453204D02*
X62432583Y-95364816D01*
G75*
G02*
X62432583Y-95276428I44194J44194D01*
G01*
X62962913Y-94746098D01*
G75*
G02*
X63051301Y-94746098I44194J-44194D01*
G01*
X63139689Y-94834486D01*
G75*
G02*
X63139689Y-94922874I-44194J-44194D01*
G01*
X62609359Y-95453204D01*
G75*
G02*
X62520971Y-95453204I-44194J44194D01*
G01*
G37*
G36*
G01*
X61990641Y-95453204D02*
X61460311Y-94922874D01*
G75*
G02*
X61460311Y-94834486I44194J44194D01*
G01*
X61548699Y-94746098D01*
G75*
G02*
X61637087Y-94746098I44194J-44194D01*
G01*
X62167417Y-95276428D01*
G75*
G02*
X62167417Y-95364816I-44194J-44194D01*
G01*
X62079029Y-95453204D01*
G75*
G02*
X61990641Y-95453204I-44194J44194D01*
G01*
G37*
G36*
G01*
X61637088Y-95806757D02*
X61106758Y-95276427D01*
G75*
G02*
X61106758Y-95188039I44194J44194D01*
G01*
X61195146Y-95099651D01*
G75*
G02*
X61283534Y-95099651I44194J-44194D01*
G01*
X61813864Y-95629981D01*
G75*
G02*
X61813864Y-95718369I-44194J-44194D01*
G01*
X61725476Y-95806757D01*
G75*
G02*
X61637088Y-95806757I-44194J44194D01*
G01*
G37*
G36*
G01*
X61283534Y-96160310D02*
X60753204Y-95629980D01*
G75*
G02*
X60753204Y-95541592I44194J44194D01*
G01*
X60841592Y-95453204D01*
G75*
G02*
X60929980Y-95453204I44194J-44194D01*
G01*
X61460310Y-95983534D01*
G75*
G02*
X61460310Y-96071922I-44194J-44194D01*
G01*
X61371922Y-96160310D01*
G75*
G02*
X61283534Y-96160310I-44194J44194D01*
G01*
G37*
G36*
G01*
X60929981Y-96513864D02*
X60399651Y-95983534D01*
G75*
G02*
X60399651Y-95895146I44194J44194D01*
G01*
X60488039Y-95806758D01*
G75*
G02*
X60576427Y-95806758I44194J-44194D01*
G01*
X61106757Y-96337088D01*
G75*
G02*
X61106757Y-96425476I-44194J-44194D01*
G01*
X61018369Y-96513864D01*
G75*
G02*
X60929981Y-96513864I-44194J44194D01*
G01*
G37*
G36*
G01*
X60576428Y-96867417D02*
X60046098Y-96337087D01*
G75*
G02*
X60046098Y-96248699I44194J44194D01*
G01*
X60134486Y-96160311D01*
G75*
G02*
X60222874Y-96160311I44194J-44194D01*
G01*
X60753204Y-96690641D01*
G75*
G02*
X60753204Y-96779029I-44194J-44194D01*
G01*
X60664816Y-96867417D01*
G75*
G02*
X60576428Y-96867417I-44194J44194D01*
G01*
G37*
G36*
G01*
X60134486Y-97839689D02*
X60046098Y-97751301D01*
G75*
G02*
X60046098Y-97662913I44194J44194D01*
G01*
X60576428Y-97132583D01*
G75*
G02*
X60664816Y-97132583I44194J-44194D01*
G01*
X60753204Y-97220971D01*
G75*
G02*
X60753204Y-97309359I-44194J-44194D01*
G01*
X60222874Y-97839689D01*
G75*
G02*
X60134486Y-97839689I-44194J44194D01*
G01*
G37*
G36*
G01*
X60488039Y-98193242D02*
X60399651Y-98104854D01*
G75*
G02*
X60399651Y-98016466I44194J44194D01*
G01*
X60929981Y-97486136D01*
G75*
G02*
X61018369Y-97486136I44194J-44194D01*
G01*
X61106757Y-97574524D01*
G75*
G02*
X61106757Y-97662912I-44194J-44194D01*
G01*
X60576427Y-98193242D01*
G75*
G02*
X60488039Y-98193242I-44194J44194D01*
G01*
G37*
G36*
G01*
X60841592Y-98546796D02*
X60753204Y-98458408D01*
G75*
G02*
X60753204Y-98370020I44194J44194D01*
G01*
X61283534Y-97839690D01*
G75*
G02*
X61371922Y-97839690I44194J-44194D01*
G01*
X61460310Y-97928078D01*
G75*
G02*
X61460310Y-98016466I-44194J-44194D01*
G01*
X60929980Y-98546796D01*
G75*
G02*
X60841592Y-98546796I-44194J44194D01*
G01*
G37*
G36*
G01*
X61195146Y-98900349D02*
X61106758Y-98811961D01*
G75*
G02*
X61106758Y-98723573I44194J44194D01*
G01*
X61637088Y-98193243D01*
G75*
G02*
X61725476Y-98193243I44194J-44194D01*
G01*
X61813864Y-98281631D01*
G75*
G02*
X61813864Y-98370019I-44194J-44194D01*
G01*
X61283534Y-98900349D01*
G75*
G02*
X61195146Y-98900349I-44194J44194D01*
G01*
G37*
G36*
G01*
X61548699Y-99253902D02*
X61460311Y-99165514D01*
G75*
G02*
X61460311Y-99077126I44194J44194D01*
G01*
X61990641Y-98546796D01*
G75*
G02*
X62079029Y-98546796I44194J-44194D01*
G01*
X62167417Y-98635184D01*
G75*
G02*
X62167417Y-98723572I-44194J-44194D01*
G01*
X61637087Y-99253902D01*
G75*
G02*
X61548699Y-99253902I-44194J44194D01*
G01*
G37*
%TD*%
%TO.C,ROV2*%
G36*
G01*
X58775000Y-90775000D02*
X58225000Y-90775000D01*
G75*
G02*
X58025000Y-90575000I0J200000D01*
G01*
X58025000Y-90175000D01*
G75*
G02*
X58225000Y-89975000I200000J0D01*
G01*
X58775000Y-89975000D01*
G75*
G02*
X58975000Y-90175000I0J-200000D01*
G01*
X58975000Y-90575000D01*
G75*
G02*
X58775000Y-90775000I-200000J0D01*
G01*
G37*
G36*
G01*
X58775000Y-92425000D02*
X58225000Y-92425000D01*
G75*
G02*
X58025000Y-92225000I0J200000D01*
G01*
X58025000Y-91825000D01*
G75*
G02*
X58225000Y-91625000I200000J0D01*
G01*
X58775000Y-91625000D01*
G75*
G02*
X58975000Y-91825000I0J-200000D01*
G01*
X58975000Y-92225000D01*
G75*
G02*
X58775000Y-92425000I-200000J0D01*
G01*
G37*
%TD*%
%TO.C,ROV1*%
G36*
G01*
X58775000Y-87950000D02*
X58225000Y-87950000D01*
G75*
G02*
X58025000Y-87750000I0J200000D01*
G01*
X58025000Y-87350000D01*
G75*
G02*
X58225000Y-87150000I200000J0D01*
G01*
X58775000Y-87150000D01*
G75*
G02*
X58975000Y-87350000I0J-200000D01*
G01*
X58975000Y-87750000D01*
G75*
G02*
X58775000Y-87950000I-200000J0D01*
G01*
G37*
G36*
G01*
X58775000Y-89600000D02*
X58225000Y-89600000D01*
G75*
G02*
X58025000Y-89400000I0J200000D01*
G01*
X58025000Y-89000000D01*
G75*
G02*
X58225000Y-88800000I200000J0D01*
G01*
X58775000Y-88800000D01*
G75*
G02*
X58975000Y-89000000I0J-200000D01*
G01*
X58975000Y-89400000D01*
G75*
G02*
X58775000Y-89600000I-200000J0D01*
G01*
G37*
%TD*%
%TO.C,ROUT2*%
G36*
G01*
X61375000Y-90775000D02*
X60825000Y-90775000D01*
G75*
G02*
X60625000Y-90575000I0J200000D01*
G01*
X60625000Y-90175000D01*
G75*
G02*
X60825000Y-89975000I200000J0D01*
G01*
X61375000Y-89975000D01*
G75*
G02*
X61575000Y-90175000I0J-200000D01*
G01*
X61575000Y-90575000D01*
G75*
G02*
X61375000Y-90775000I-200000J0D01*
G01*
G37*
G36*
G01*
X61375000Y-92425000D02*
X60825000Y-92425000D01*
G75*
G02*
X60625000Y-92225000I0J200000D01*
G01*
X60625000Y-91825000D01*
G75*
G02*
X60825000Y-91625000I200000J0D01*
G01*
X61375000Y-91625000D01*
G75*
G02*
X61575000Y-91825000I0J-200000D01*
G01*
X61575000Y-92225000D01*
G75*
G02*
X61375000Y-92425000I-200000J0D01*
G01*
G37*
%TD*%
%TO.C,ROUT1*%
G36*
G01*
X61375000Y-87950000D02*
X60825000Y-87950000D01*
G75*
G02*
X60625000Y-87750000I0J200000D01*
G01*
X60625000Y-87350000D01*
G75*
G02*
X60825000Y-87150000I200000J0D01*
G01*
X61375000Y-87150000D01*
G75*
G02*
X61575000Y-87350000I0J-200000D01*
G01*
X61575000Y-87750000D01*
G75*
G02*
X61375000Y-87950000I-200000J0D01*
G01*
G37*
G36*
G01*
X61375000Y-89600000D02*
X60825000Y-89600000D01*
G75*
G02*
X60625000Y-89400000I0J200000D01*
G01*
X60625000Y-89000000D01*
G75*
G02*
X60825000Y-88800000I200000J0D01*
G01*
X61375000Y-88800000D01*
G75*
G02*
X61575000Y-89000000I0J-200000D01*
G01*
X61575000Y-89400000D01*
G75*
G02*
X61375000Y-89600000I-200000J0D01*
G01*
G37*
%TD*%
%TO.C,ROK3*%
G36*
G01*
X60075000Y-90775000D02*
X59525000Y-90775000D01*
G75*
G02*
X59325000Y-90575000I0J200000D01*
G01*
X59325000Y-90175000D01*
G75*
G02*
X59525000Y-89975000I200000J0D01*
G01*
X60075000Y-89975000D01*
G75*
G02*
X60275000Y-90175000I0J-200000D01*
G01*
X60275000Y-90575000D01*
G75*
G02*
X60075000Y-90775000I-200000J0D01*
G01*
G37*
G36*
G01*
X60075000Y-92425000D02*
X59525000Y-92425000D01*
G75*
G02*
X59325000Y-92225000I0J200000D01*
G01*
X59325000Y-91825000D01*
G75*
G02*
X59525000Y-91625000I200000J0D01*
G01*
X60075000Y-91625000D01*
G75*
G02*
X60275000Y-91825000I0J-200000D01*
G01*
X60275000Y-92225000D01*
G75*
G02*
X60075000Y-92425000I-200000J0D01*
G01*
G37*
%TD*%
%TO.C,ROK2*%
G36*
G01*
X63625000Y-90675000D02*
X63625000Y-90125000D01*
G75*
G02*
X63825000Y-89925000I200000J0D01*
G01*
X64225000Y-89925000D01*
G75*
G02*
X64425000Y-90125000I0J-200000D01*
G01*
X64425000Y-90675000D01*
G75*
G02*
X64225000Y-90875000I-200000J0D01*
G01*
X63825000Y-90875000D01*
G75*
G02*
X63625000Y-90675000I0J200000D01*
G01*
G37*
G36*
G01*
X61975000Y-90675000D02*
X61975000Y-90125000D01*
G75*
G02*
X62175000Y-89925000I200000J0D01*
G01*
X62575000Y-89925000D01*
G75*
G02*
X62775000Y-90125000I0J-200000D01*
G01*
X62775000Y-90675000D01*
G75*
G02*
X62575000Y-90875000I-200000J0D01*
G01*
X62175000Y-90875000D01*
G75*
G02*
X61975000Y-90675000I0J200000D01*
G01*
G37*
%TD*%
%TO.C,ROK1*%
G36*
G01*
X64275000Y-87850000D02*
X63725000Y-87850000D01*
G75*
G02*
X63525000Y-87650000I0J200000D01*
G01*
X63525000Y-87250000D01*
G75*
G02*
X63725000Y-87050000I200000J0D01*
G01*
X64275000Y-87050000D01*
G75*
G02*
X64475000Y-87250000I0J-200000D01*
G01*
X64475000Y-87650000D01*
G75*
G02*
X64275000Y-87850000I-200000J0D01*
G01*
G37*
G36*
G01*
X64275000Y-89500000D02*
X63725000Y-89500000D01*
G75*
G02*
X63525000Y-89300000I0J200000D01*
G01*
X63525000Y-88900000D01*
G75*
G02*
X63725000Y-88700000I200000J0D01*
G01*
X64275000Y-88700000D01*
G75*
G02*
X64475000Y-88900000I0J-200000D01*
G01*
X64475000Y-89300000D01*
G75*
G02*
X64275000Y-89500000I-200000J0D01*
G01*
G37*
%TD*%
%TO.C,R15*%
G36*
G01*
X56625000Y-80075000D02*
X56075000Y-80075000D01*
G75*
G02*
X55875000Y-79875000I0J200000D01*
G01*
X55875000Y-79475000D01*
G75*
G02*
X56075000Y-79275000I200000J0D01*
G01*
X56625000Y-79275000D01*
G75*
G02*
X56825000Y-79475000I0J-200000D01*
G01*
X56825000Y-79875000D01*
G75*
G02*
X56625000Y-80075000I-200000J0D01*
G01*
G37*
G36*
G01*
X56625000Y-81725000D02*
X56075000Y-81725000D01*
G75*
G02*
X55875000Y-81525000I0J200000D01*
G01*
X55875000Y-81125000D01*
G75*
G02*
X56075000Y-80925000I200000J0D01*
G01*
X56625000Y-80925000D01*
G75*
G02*
X56825000Y-81125000I0J-200000D01*
G01*
X56825000Y-81525000D01*
G75*
G02*
X56625000Y-81725000I-200000J0D01*
G01*
G37*
%TD*%
%TO.C,R14*%
G36*
G01*
X53725000Y-79425000D02*
X53725000Y-79975000D01*
G75*
G02*
X53525000Y-80175000I-200000J0D01*
G01*
X53125000Y-80175000D01*
G75*
G02*
X52925000Y-79975000I0J200000D01*
G01*
X52925000Y-79425000D01*
G75*
G02*
X53125000Y-79225000I200000J0D01*
G01*
X53525000Y-79225000D01*
G75*
G02*
X53725000Y-79425000I0J-200000D01*
G01*
G37*
G36*
G01*
X55375000Y-79425000D02*
X55375000Y-79975000D01*
G75*
G02*
X55175000Y-80175000I-200000J0D01*
G01*
X54775000Y-80175000D01*
G75*
G02*
X54575000Y-79975000I0J200000D01*
G01*
X54575000Y-79425000D01*
G75*
G02*
X54775000Y-79225000I200000J0D01*
G01*
X55175000Y-79225000D01*
G75*
G02*
X55375000Y-79425000I0J-200000D01*
G01*
G37*
%TD*%
%TO.C,R13*%
G36*
G01*
X59125000Y-84650000D02*
X58575000Y-84650000D01*
G75*
G02*
X58375000Y-84450000I0J200000D01*
G01*
X58375000Y-84050000D01*
G75*
G02*
X58575000Y-83850000I200000J0D01*
G01*
X59125000Y-83850000D01*
G75*
G02*
X59325000Y-84050000I0J-200000D01*
G01*
X59325000Y-84450000D01*
G75*
G02*
X59125000Y-84650000I-200000J0D01*
G01*
G37*
G36*
G01*
X59125000Y-86300000D02*
X58575000Y-86300000D01*
G75*
G02*
X58375000Y-86100000I0J200000D01*
G01*
X58375000Y-85700000D01*
G75*
G02*
X58575000Y-85500000I200000J0D01*
G01*
X59125000Y-85500000D01*
G75*
G02*
X59325000Y-85700000I0J-200000D01*
G01*
X59325000Y-86100000D01*
G75*
G02*
X59125000Y-86300000I-200000J0D01*
G01*
G37*
%TD*%
%TO.C,R12*%
G36*
G01*
X54900000Y-83975000D02*
X54900000Y-84525000D01*
G75*
G02*
X54700000Y-84725000I-200000J0D01*
G01*
X54300000Y-84725000D01*
G75*
G02*
X54100000Y-84525000I0J200000D01*
G01*
X54100000Y-83975000D01*
G75*
G02*
X54300000Y-83775000I200000J0D01*
G01*
X54700000Y-83775000D01*
G75*
G02*
X54900000Y-83975000I0J-200000D01*
G01*
G37*
G36*
G01*
X56550000Y-83975000D02*
X56550000Y-84525000D01*
G75*
G02*
X56350000Y-84725000I-200000J0D01*
G01*
X55950000Y-84725000D01*
G75*
G02*
X55750000Y-84525000I0J200000D01*
G01*
X55750000Y-83975000D01*
G75*
G02*
X55950000Y-83775000I200000J0D01*
G01*
X56350000Y-83775000D01*
G75*
G02*
X56550000Y-83975000I0J-200000D01*
G01*
G37*
%TD*%
%TO.C,R11*%
G36*
G01*
X85425000Y-80775000D02*
X85425000Y-80225000D01*
G75*
G02*
X85625000Y-80025000I200000J0D01*
G01*
X86025000Y-80025000D01*
G75*
G02*
X86225000Y-80225000I0J-200000D01*
G01*
X86225000Y-80775000D01*
G75*
G02*
X86025000Y-80975000I-200000J0D01*
G01*
X85625000Y-80975000D01*
G75*
G02*
X85425000Y-80775000I0J200000D01*
G01*
G37*
G36*
G01*
X83775000Y-80775000D02*
X83775000Y-80225000D01*
G75*
G02*
X83975000Y-80025000I200000J0D01*
G01*
X84375000Y-80025000D01*
G75*
G02*
X84575000Y-80225000I0J-200000D01*
G01*
X84575000Y-80775000D01*
G75*
G02*
X84375000Y-80975000I-200000J0D01*
G01*
X83975000Y-80975000D01*
G75*
G02*
X83775000Y-80775000I0J200000D01*
G01*
G37*
%TD*%
%TO.C,R4*%
G36*
G01*
X56325000Y-93150000D02*
X56875000Y-93150000D01*
G75*
G02*
X57075000Y-93350000I0J-200000D01*
G01*
X57075000Y-93750000D01*
G75*
G02*
X56875000Y-93950000I-200000J0D01*
G01*
X56325000Y-93950000D01*
G75*
G02*
X56125000Y-93750000I0J200000D01*
G01*
X56125000Y-93350000D01*
G75*
G02*
X56325000Y-93150000I200000J0D01*
G01*
G37*
G36*
G01*
X56325000Y-91500000D02*
X56875000Y-91500000D01*
G75*
G02*
X57075000Y-91700000I0J-200000D01*
G01*
X57075000Y-92100000D01*
G75*
G02*
X56875000Y-92300000I-200000J0D01*
G01*
X56325000Y-92300000D01*
G75*
G02*
X56125000Y-92100000I0J200000D01*
G01*
X56125000Y-91700000D01*
G75*
G02*
X56325000Y-91500000I200000J0D01*
G01*
G37*
%TD*%
%TO.C,R2*%
G36*
G01*
X93675000Y-91375000D02*
X94225000Y-91375000D01*
G75*
G02*
X94425000Y-91575000I0J-200000D01*
G01*
X94425000Y-91975000D01*
G75*
G02*
X94225000Y-92175000I-200000J0D01*
G01*
X93675000Y-92175000D01*
G75*
G02*
X93475000Y-91975000I0J200000D01*
G01*
X93475000Y-91575000D01*
G75*
G02*
X93675000Y-91375000I200000J0D01*
G01*
G37*
G36*
G01*
X93675000Y-89725000D02*
X94225000Y-89725000D01*
G75*
G02*
X94425000Y-89925000I0J-200000D01*
G01*
X94425000Y-90325000D01*
G75*
G02*
X94225000Y-90525000I-200000J0D01*
G01*
X93675000Y-90525000D01*
G75*
G02*
X93475000Y-90325000I0J200000D01*
G01*
X93475000Y-89925000D01*
G75*
G02*
X93675000Y-89725000I200000J0D01*
G01*
G37*
%TD*%
%TO.C,R1*%
G36*
G01*
X74325000Y-87500000D02*
X74875000Y-87500000D01*
G75*
G02*
X75075000Y-87700000I0J-200000D01*
G01*
X75075000Y-88100000D01*
G75*
G02*
X74875000Y-88300000I-200000J0D01*
G01*
X74325000Y-88300000D01*
G75*
G02*
X74125000Y-88100000I0J200000D01*
G01*
X74125000Y-87700000D01*
G75*
G02*
X74325000Y-87500000I200000J0D01*
G01*
G37*
G36*
G01*
X74325000Y-85850000D02*
X74875000Y-85850000D01*
G75*
G02*
X75075000Y-86050000I0J-200000D01*
G01*
X75075000Y-86450000D01*
G75*
G02*
X74875000Y-86650000I-200000J0D01*
G01*
X74325000Y-86650000D01*
G75*
G02*
X74125000Y-86450000I0J200000D01*
G01*
X74125000Y-86050000D01*
G75*
G02*
X74325000Y-85850000I200000J0D01*
G01*
G37*
%TD*%
%TO.C,L2*%
G36*
G01*
X68450000Y-95700000D02*
X65750000Y-95700000D01*
G75*
G02*
X65500000Y-95450000I0J250000D01*
G01*
X65500000Y-94950000D01*
G75*
G02*
X65750000Y-94700000I250000J0D01*
G01*
X68450000Y-94700000D01*
G75*
G02*
X68700000Y-94950000I0J-250000D01*
G01*
X68700000Y-95450000D01*
G75*
G02*
X68450000Y-95700000I-250000J0D01*
G01*
G37*
G36*
G01*
X68450000Y-97900000D02*
X65750000Y-97900000D01*
G75*
G02*
X65500000Y-97650000I0J250000D01*
G01*
X65500000Y-97150000D01*
G75*
G02*
X65750000Y-96900000I250000J0D01*
G01*
X68450000Y-96900000D01*
G75*
G02*
X68700000Y-97150000I0J-250000D01*
G01*
X68700000Y-97650000D01*
G75*
G02*
X68450000Y-97900000I-250000J0D01*
G01*
G37*
%TD*%
D19*
%TO.C,L1*%
X63200000Y-102200000D03*
X59900000Y-102200000D03*
%TD*%
%TO.C,C28*%
G36*
G01*
X58000000Y-80150000D02*
X57500000Y-80150000D01*
G75*
G02*
X57275000Y-79925000I0J225000D01*
G01*
X57275000Y-79475000D01*
G75*
G02*
X57500000Y-79250000I225000J0D01*
G01*
X58000000Y-79250000D01*
G75*
G02*
X58225000Y-79475000I0J-225000D01*
G01*
X58225000Y-79925000D01*
G75*
G02*
X58000000Y-80150000I-225000J0D01*
G01*
G37*
G36*
G01*
X58000000Y-81700000D02*
X57500000Y-81700000D01*
G75*
G02*
X57275000Y-81475000I0J225000D01*
G01*
X57275000Y-81025000D01*
G75*
G02*
X57500000Y-80800000I225000J0D01*
G01*
X58000000Y-80800000D01*
G75*
G02*
X58225000Y-81025000I0J-225000D01*
G01*
X58225000Y-81475000D01*
G75*
G02*
X58000000Y-81700000I-225000J0D01*
G01*
G37*
%TD*%
%TO.C,C26*%
G36*
G01*
X74150000Y-61375000D02*
X73650000Y-61375000D01*
G75*
G02*
X73425000Y-61150000I0J225000D01*
G01*
X73425000Y-60700000D01*
G75*
G02*
X73650000Y-60475000I225000J0D01*
G01*
X74150000Y-60475000D01*
G75*
G02*
X74375000Y-60700000I0J-225000D01*
G01*
X74375000Y-61150000D01*
G75*
G02*
X74150000Y-61375000I-225000J0D01*
G01*
G37*
G36*
G01*
X74150000Y-62925000D02*
X73650000Y-62925000D01*
G75*
G02*
X73425000Y-62700000I0J225000D01*
G01*
X73425000Y-62250000D01*
G75*
G02*
X73650000Y-62025000I225000J0D01*
G01*
X74150000Y-62025000D01*
G75*
G02*
X74375000Y-62250000I0J-225000D01*
G01*
X74375000Y-62700000D01*
G75*
G02*
X74150000Y-62925000I-225000J0D01*
G01*
G37*
%TD*%
%TO.C,C25*%
G36*
G01*
X83100000Y-87550000D02*
X83100000Y-87050000D01*
G75*
G02*
X83325000Y-86825000I225000J0D01*
G01*
X83775000Y-86825000D01*
G75*
G02*
X84000000Y-87050000I0J-225000D01*
G01*
X84000000Y-87550000D01*
G75*
G02*
X83775000Y-87775000I-225000J0D01*
G01*
X83325000Y-87775000D01*
G75*
G02*
X83100000Y-87550000I0J225000D01*
G01*
G37*
G36*
G01*
X81550000Y-87550000D02*
X81550000Y-87050000D01*
G75*
G02*
X81775000Y-86825000I225000J0D01*
G01*
X82225000Y-86825000D01*
G75*
G02*
X82450000Y-87050000I0J-225000D01*
G01*
X82450000Y-87550000D01*
G75*
G02*
X82225000Y-87775000I-225000J0D01*
G01*
X81775000Y-87775000D01*
G75*
G02*
X81550000Y-87550000I0J225000D01*
G01*
G37*
%TD*%
%TO.C,C24*%
G36*
G01*
X72550000Y-61400000D02*
X72050000Y-61400000D01*
G75*
G02*
X71825000Y-61175000I0J225000D01*
G01*
X71825000Y-60725000D01*
G75*
G02*
X72050000Y-60500000I225000J0D01*
G01*
X72550000Y-60500000D01*
G75*
G02*
X72775000Y-60725000I0J-225000D01*
G01*
X72775000Y-61175000D01*
G75*
G02*
X72550000Y-61400000I-225000J0D01*
G01*
G37*
G36*
G01*
X72550000Y-62950000D02*
X72050000Y-62950000D01*
G75*
G02*
X71825000Y-62725000I0J225000D01*
G01*
X71825000Y-62275000D01*
G75*
G02*
X72050000Y-62050000I225000J0D01*
G01*
X72550000Y-62050000D01*
G75*
G02*
X72775000Y-62275000I0J-225000D01*
G01*
X72775000Y-62725000D01*
G75*
G02*
X72550000Y-62950000I-225000J0D01*
G01*
G37*
%TD*%
%TO.C,C23*%
G36*
G01*
X57700000Y-84700000D02*
X57200000Y-84700000D01*
G75*
G02*
X56975000Y-84475000I0J225000D01*
G01*
X56975000Y-84025000D01*
G75*
G02*
X57200000Y-83800000I225000J0D01*
G01*
X57700000Y-83800000D01*
G75*
G02*
X57925000Y-84025000I0J-225000D01*
G01*
X57925000Y-84475000D01*
G75*
G02*
X57700000Y-84700000I-225000J0D01*
G01*
G37*
G36*
G01*
X57700000Y-86250000D02*
X57200000Y-86250000D01*
G75*
G02*
X56975000Y-86025000I0J225000D01*
G01*
X56975000Y-85575000D01*
G75*
G02*
X57200000Y-85350000I225000J0D01*
G01*
X57700000Y-85350000D01*
G75*
G02*
X57925000Y-85575000I0J-225000D01*
G01*
X57925000Y-86025000D01*
G75*
G02*
X57700000Y-86250000I-225000J0D01*
G01*
G37*
%TD*%
%TO.C,C22*%
G36*
G01*
X73475000Y-84450000D02*
X73475000Y-84950000D01*
G75*
G02*
X73250000Y-85175000I-225000J0D01*
G01*
X72800000Y-85175000D01*
G75*
G02*
X72575000Y-84950000I0J225000D01*
G01*
X72575000Y-84450000D01*
G75*
G02*
X72800000Y-84225000I225000J0D01*
G01*
X73250000Y-84225000D01*
G75*
G02*
X73475000Y-84450000I0J-225000D01*
G01*
G37*
G36*
G01*
X75025000Y-84450000D02*
X75025000Y-84950000D01*
G75*
G02*
X74800000Y-85175000I-225000J0D01*
G01*
X74350000Y-85175000D01*
G75*
G02*
X74125000Y-84950000I0J225000D01*
G01*
X74125000Y-84450000D01*
G75*
G02*
X74350000Y-84225000I225000J0D01*
G01*
X74800000Y-84225000D01*
G75*
G02*
X75025000Y-84450000I0J-225000D01*
G01*
G37*
%TD*%
%TO.C,C21*%
G36*
G01*
X81400000Y-82650000D02*
X81400000Y-82150000D01*
G75*
G02*
X81625000Y-81925000I225000J0D01*
G01*
X82075000Y-81925000D01*
G75*
G02*
X82300000Y-82150000I0J-225000D01*
G01*
X82300000Y-82650000D01*
G75*
G02*
X82075000Y-82875000I-225000J0D01*
G01*
X81625000Y-82875000D01*
G75*
G02*
X81400000Y-82650000I0J225000D01*
G01*
G37*
G36*
G01*
X79850000Y-82650000D02*
X79850000Y-82150000D01*
G75*
G02*
X80075000Y-81925000I225000J0D01*
G01*
X80525000Y-81925000D01*
G75*
G02*
X80750000Y-82150000I0J-225000D01*
G01*
X80750000Y-82650000D01*
G75*
G02*
X80525000Y-82875000I-225000J0D01*
G01*
X80075000Y-82875000D01*
G75*
G02*
X79850000Y-82650000I0J225000D01*
G01*
G37*
%TD*%
%TO.C,C20*%
G36*
G01*
X70625000Y-73600000D02*
X70625000Y-74100000D01*
G75*
G02*
X70400000Y-74325000I-225000J0D01*
G01*
X69950000Y-74325000D01*
G75*
G02*
X69725000Y-74100000I0J225000D01*
G01*
X69725000Y-73600000D01*
G75*
G02*
X69950000Y-73375000I225000J0D01*
G01*
X70400000Y-73375000D01*
G75*
G02*
X70625000Y-73600000I0J-225000D01*
G01*
G37*
G36*
G01*
X72175000Y-73600000D02*
X72175000Y-74100000D01*
G75*
G02*
X71950000Y-74325000I-225000J0D01*
G01*
X71500000Y-74325000D01*
G75*
G02*
X71275000Y-74100000I0J225000D01*
G01*
X71275000Y-73600000D01*
G75*
G02*
X71500000Y-73375000I225000J0D01*
G01*
X71950000Y-73375000D01*
G75*
G02*
X72175000Y-73600000I0J-225000D01*
G01*
G37*
%TD*%
%TO.C,C18*%
G36*
G01*
X97700000Y-87550000D02*
X98200000Y-87550000D01*
G75*
G02*
X98425000Y-87775000I0J-225000D01*
G01*
X98425000Y-88225000D01*
G75*
G02*
X98200000Y-88450000I-225000J0D01*
G01*
X97700000Y-88450000D01*
G75*
G02*
X97475000Y-88225000I0J225000D01*
G01*
X97475000Y-87775000D01*
G75*
G02*
X97700000Y-87550000I225000J0D01*
G01*
G37*
G36*
G01*
X97700000Y-86000000D02*
X98200000Y-86000000D01*
G75*
G02*
X98425000Y-86225000I0J-225000D01*
G01*
X98425000Y-86675000D01*
G75*
G02*
X98200000Y-86900000I-225000J0D01*
G01*
X97700000Y-86900000D01*
G75*
G02*
X97475000Y-86675000I0J225000D01*
G01*
X97475000Y-86225000D01*
G75*
G02*
X97700000Y-86000000I225000J0D01*
G01*
G37*
%TD*%
%TO.C,C15*%
G36*
G01*
X92550000Y-97175000D02*
X92050000Y-97175000D01*
G75*
G02*
X91825000Y-96950000I0J225000D01*
G01*
X91825000Y-96500000D01*
G75*
G02*
X92050000Y-96275000I225000J0D01*
G01*
X92550000Y-96275000D01*
G75*
G02*
X92775000Y-96500000I0J-225000D01*
G01*
X92775000Y-96950000D01*
G75*
G02*
X92550000Y-97175000I-225000J0D01*
G01*
G37*
G36*
G01*
X92550000Y-98725000D02*
X92050000Y-98725000D01*
G75*
G02*
X91825000Y-98500000I0J225000D01*
G01*
X91825000Y-98050000D01*
G75*
G02*
X92050000Y-97825000I225000J0D01*
G01*
X92550000Y-97825000D01*
G75*
G02*
X92775000Y-98050000I0J-225000D01*
G01*
X92775000Y-98500000D01*
G75*
G02*
X92550000Y-98725000I-225000J0D01*
G01*
G37*
%TD*%
%TO.C,C13*%
G36*
G01*
X93350000Y-100050000D02*
X93350000Y-99550000D01*
G75*
G02*
X93575000Y-99325000I225000J0D01*
G01*
X94025000Y-99325000D01*
G75*
G02*
X94250000Y-99550000I0J-225000D01*
G01*
X94250000Y-100050000D01*
G75*
G02*
X94025000Y-100275000I-225000J0D01*
G01*
X93575000Y-100275000D01*
G75*
G02*
X93350000Y-100050000I0J225000D01*
G01*
G37*
G36*
G01*
X91800000Y-100050000D02*
X91800000Y-99550000D01*
G75*
G02*
X92025000Y-99325000I225000J0D01*
G01*
X92475000Y-99325000D01*
G75*
G02*
X92700000Y-99550000I0J-225000D01*
G01*
X92700000Y-100050000D01*
G75*
G02*
X92475000Y-100275000I-225000J0D01*
G01*
X92025000Y-100275000D01*
G75*
G02*
X91800000Y-100050000I0J225000D01*
G01*
G37*
%TD*%
%TO.C,C12*%
G36*
G01*
X67075000Y-103650001D02*
X67075000Y-102349999D01*
G75*
G02*
X67324999Y-102100000I249999J0D01*
G01*
X67975001Y-102100000D01*
G75*
G02*
X68225000Y-102349999I0J-249999D01*
G01*
X68225000Y-103650001D01*
G75*
G02*
X67975001Y-103900000I-249999J0D01*
G01*
X67324999Y-103900000D01*
G75*
G02*
X67075000Y-103650001I0J249999D01*
G01*
G37*
G36*
G01*
X64125000Y-103650001D02*
X64125000Y-102349999D01*
G75*
G02*
X64374999Y-102100000I249999J0D01*
G01*
X65025001Y-102100000D01*
G75*
G02*
X65275000Y-102349999I0J-249999D01*
G01*
X65275000Y-103650001D01*
G75*
G02*
X65025001Y-103900000I-249999J0D01*
G01*
X64374999Y-103900000D01*
G75*
G02*
X64125000Y-103650001I0J249999D01*
G01*
G37*
%TD*%
%TO.C,C11*%
G36*
G01*
X66450000Y-99450000D02*
X66450000Y-99950000D01*
G75*
G02*
X66225000Y-100175000I-225000J0D01*
G01*
X65775000Y-100175000D01*
G75*
G02*
X65550000Y-99950000I0J225000D01*
G01*
X65550000Y-99450000D01*
G75*
G02*
X65775000Y-99225000I225000J0D01*
G01*
X66225000Y-99225000D01*
G75*
G02*
X66450000Y-99450000I0J-225000D01*
G01*
G37*
G36*
G01*
X68000000Y-99450000D02*
X68000000Y-99950000D01*
G75*
G02*
X67775000Y-100175000I-225000J0D01*
G01*
X67325000Y-100175000D01*
G75*
G02*
X67100000Y-99950000I0J225000D01*
G01*
X67100000Y-99450000D01*
G75*
G02*
X67325000Y-99225000I225000J0D01*
G01*
X67775000Y-99225000D01*
G75*
G02*
X68000000Y-99450000I0J-225000D01*
G01*
G37*
%TD*%
%TO.C,C10*%
G36*
G01*
X64850000Y-100200000D02*
X64350000Y-100200000D01*
G75*
G02*
X64125000Y-99975000I0J225000D01*
G01*
X64125000Y-99525000D01*
G75*
G02*
X64350000Y-99300000I225000J0D01*
G01*
X64850000Y-99300000D01*
G75*
G02*
X65075000Y-99525000I0J-225000D01*
G01*
X65075000Y-99975000D01*
G75*
G02*
X64850000Y-100200000I-225000J0D01*
G01*
G37*
G36*
G01*
X64850000Y-101750000D02*
X64350000Y-101750000D01*
G75*
G02*
X64125000Y-101525000I0J225000D01*
G01*
X64125000Y-101075000D01*
G75*
G02*
X64350000Y-100850000I225000J0D01*
G01*
X64850000Y-100850000D01*
G75*
G02*
X65075000Y-101075000I0J-225000D01*
G01*
X65075000Y-101525000D01*
G75*
G02*
X64850000Y-101750000I-225000J0D01*
G01*
G37*
%TD*%
%TO.C,C9*%
G36*
G01*
X64200000Y-81500001D02*
X64200000Y-80199999D01*
G75*
G02*
X64449999Y-79950000I249999J0D01*
G01*
X65100001Y-79950000D01*
G75*
G02*
X65350000Y-80199999I0J-249999D01*
G01*
X65350000Y-81500001D01*
G75*
G02*
X65100001Y-81750000I-249999J0D01*
G01*
X64449999Y-81750000D01*
G75*
G02*
X64200000Y-81500001I0J249999D01*
G01*
G37*
G36*
G01*
X61250000Y-81500001D02*
X61250000Y-80199999D01*
G75*
G02*
X61499999Y-79950000I249999J0D01*
G01*
X62150001Y-79950000D01*
G75*
G02*
X62400000Y-80199999I0J-249999D01*
G01*
X62400000Y-81500001D01*
G75*
G02*
X62150001Y-81750000I-249999J0D01*
G01*
X61499999Y-81750000D01*
G75*
G02*
X61250000Y-81500001I0J249999D01*
G01*
G37*
%TD*%
%TO.C,C8*%
G36*
G01*
X69300000Y-92699999D02*
X69300000Y-94000001D01*
G75*
G02*
X69050001Y-94250000I-249999J0D01*
G01*
X68399999Y-94250000D01*
G75*
G02*
X68150000Y-94000001I0J249999D01*
G01*
X68150000Y-92699999D01*
G75*
G02*
X68399999Y-92450000I249999J0D01*
G01*
X69050001Y-92450000D01*
G75*
G02*
X69300000Y-92699999I0J-249999D01*
G01*
G37*
G36*
G01*
X72250000Y-92699999D02*
X72250000Y-94000001D01*
G75*
G02*
X72000001Y-94250000I-249999J0D01*
G01*
X71349999Y-94250000D01*
G75*
G02*
X71100000Y-94000001I0J249999D01*
G01*
X71100000Y-92699999D01*
G75*
G02*
X71349999Y-92450000I249999J0D01*
G01*
X72000001Y-92450000D01*
G75*
G02*
X72250000Y-92699999I0J-249999D01*
G01*
G37*
%TD*%
%TO.C,C7*%
G36*
G01*
X65150000Y-93350000D02*
X65650000Y-93350000D01*
G75*
G02*
X65875000Y-93575000I0J-225000D01*
G01*
X65875000Y-94025000D01*
G75*
G02*
X65650000Y-94250000I-225000J0D01*
G01*
X65150000Y-94250000D01*
G75*
G02*
X64925000Y-94025000I0J225000D01*
G01*
X64925000Y-93575000D01*
G75*
G02*
X65150000Y-93350000I225000J0D01*
G01*
G37*
G36*
G01*
X65150000Y-91800000D02*
X65650000Y-91800000D01*
G75*
G02*
X65875000Y-92025000I0J-225000D01*
G01*
X65875000Y-92475000D01*
G75*
G02*
X65650000Y-92700000I-225000J0D01*
G01*
X65150000Y-92700000D01*
G75*
G02*
X64925000Y-92475000I0J225000D01*
G01*
X64925000Y-92025000D01*
G75*
G02*
X65150000Y-91800000I225000J0D01*
G01*
G37*
%TD*%
%TO.C,C6*%
G36*
G01*
X58000000Y-101475000D02*
X58000000Y-100525000D01*
G75*
G02*
X58250000Y-100275000I250000J0D01*
G01*
X58750000Y-100275000D01*
G75*
G02*
X59000000Y-100525000I0J-250000D01*
G01*
X59000000Y-101475000D01*
G75*
G02*
X58750000Y-101725000I-250000J0D01*
G01*
X58250000Y-101725000D01*
G75*
G02*
X58000000Y-101475000I0J250000D01*
G01*
G37*
G36*
G01*
X56100000Y-101475000D02*
X56100000Y-100525000D01*
G75*
G02*
X56350000Y-100275000I250000J0D01*
G01*
X56850000Y-100275000D01*
G75*
G02*
X57100000Y-100525000I0J-250000D01*
G01*
X57100000Y-101475000D01*
G75*
G02*
X56850000Y-101725000I-250000J0D01*
G01*
X56350000Y-101725000D01*
G75*
G02*
X56100000Y-101475000I0J250000D01*
G01*
G37*
%TD*%
%TO.C,C5*%
G36*
G01*
X66550000Y-93350000D02*
X67050000Y-93350000D01*
G75*
G02*
X67275000Y-93575000I0J-225000D01*
G01*
X67275000Y-94025000D01*
G75*
G02*
X67050000Y-94250000I-225000J0D01*
G01*
X66550000Y-94250000D01*
G75*
G02*
X66325000Y-94025000I0J225000D01*
G01*
X66325000Y-93575000D01*
G75*
G02*
X66550000Y-93350000I225000J0D01*
G01*
G37*
G36*
G01*
X66550000Y-91800000D02*
X67050000Y-91800000D01*
G75*
G02*
X67275000Y-92025000I0J-225000D01*
G01*
X67275000Y-92475000D01*
G75*
G02*
X67050000Y-92700000I-225000J0D01*
G01*
X66550000Y-92700000D01*
G75*
G02*
X66325000Y-92475000I0J225000D01*
G01*
X66325000Y-92025000D01*
G75*
G02*
X66550000Y-91800000I225000J0D01*
G01*
G37*
%TD*%
%TO.C,C4*%
G36*
G01*
X57575000Y-95150000D02*
X57575000Y-95650000D01*
G75*
G02*
X57350000Y-95875000I-225000J0D01*
G01*
X56900000Y-95875000D01*
G75*
G02*
X56675000Y-95650000I0J225000D01*
G01*
X56675000Y-95150000D01*
G75*
G02*
X56900000Y-94925000I225000J0D01*
G01*
X57350000Y-94925000D01*
G75*
G02*
X57575000Y-95150000I0J-225000D01*
G01*
G37*
G36*
G01*
X59125000Y-95150000D02*
X59125000Y-95650000D01*
G75*
G02*
X58900000Y-95875000I-225000J0D01*
G01*
X58450000Y-95875000D01*
G75*
G02*
X58225000Y-95650000I0J225000D01*
G01*
X58225000Y-95150000D01*
G75*
G02*
X58450000Y-94925000I225000J0D01*
G01*
X58900000Y-94925000D01*
G75*
G02*
X59125000Y-95150000I0J-225000D01*
G01*
G37*
%TD*%
%TO.C,C3*%
G36*
G01*
X57175000Y-98350000D02*
X57175000Y-98850000D01*
G75*
G02*
X56950000Y-99075000I-225000J0D01*
G01*
X56500000Y-99075000D01*
G75*
G02*
X56275000Y-98850000I0J225000D01*
G01*
X56275000Y-98350000D01*
G75*
G02*
X56500000Y-98125000I225000J0D01*
G01*
X56950000Y-98125000D01*
G75*
G02*
X57175000Y-98350000I0J-225000D01*
G01*
G37*
G36*
G01*
X58725000Y-98350000D02*
X58725000Y-98850000D01*
G75*
G02*
X58500000Y-99075000I-225000J0D01*
G01*
X58050000Y-99075000D01*
G75*
G02*
X57825000Y-98850000I0J225000D01*
G01*
X57825000Y-98350000D01*
G75*
G02*
X58050000Y-98125000I225000J0D01*
G01*
X58500000Y-98125000D01*
G75*
G02*
X58725000Y-98350000I0J-225000D01*
G01*
G37*
%TD*%
%TO.C,C2*%
G36*
G01*
X83125000Y-85050000D02*
X83125000Y-84550000D01*
G75*
G02*
X83350000Y-84325000I225000J0D01*
G01*
X83800000Y-84325000D01*
G75*
G02*
X84025000Y-84550000I0J-225000D01*
G01*
X84025000Y-85050000D01*
G75*
G02*
X83800000Y-85275000I-225000J0D01*
G01*
X83350000Y-85275000D01*
G75*
G02*
X83125000Y-85050000I0J225000D01*
G01*
G37*
G36*
G01*
X81575000Y-85050000D02*
X81575000Y-84550000D01*
G75*
G02*
X81800000Y-84325000I225000J0D01*
G01*
X82250000Y-84325000D01*
G75*
G02*
X82475000Y-84550000I0J-225000D01*
G01*
X82475000Y-85050000D01*
G75*
G02*
X82250000Y-85275000I-225000J0D01*
G01*
X81800000Y-85275000D01*
G75*
G02*
X81575000Y-85050000I0J225000D01*
G01*
G37*
%TD*%
%TO.C,C1*%
G36*
G01*
X57000000Y-103025000D02*
X57000000Y-103975000D01*
G75*
G02*
X56750000Y-104225000I-250000J0D01*
G01*
X56250000Y-104225000D01*
G75*
G02*
X56000000Y-103975000I0J250000D01*
G01*
X56000000Y-103025000D01*
G75*
G02*
X56250000Y-102775000I250000J0D01*
G01*
X56750000Y-102775000D01*
G75*
G02*
X57000000Y-103025000I0J-250000D01*
G01*
G37*
G36*
G01*
X58900000Y-103025000D02*
X58900000Y-103975000D01*
G75*
G02*
X58650000Y-104225000I-250000J0D01*
G01*
X58150000Y-104225000D01*
G75*
G02*
X57900000Y-103975000I0J250000D01*
G01*
X57900000Y-103025000D01*
G75*
G02*
X58150000Y-102775000I250000J0D01*
G01*
X58650000Y-102775000D01*
G75*
G02*
X58900000Y-103025000I0J-250000D01*
G01*
G37*
%TD*%
M02*
