M48
; DRILL file {KiCad (5.1.10)-1} date 11/23/21 09:49:30
; FORMAT={-:-/ absolute / inch / decimal}
; #@! TF.CreationDate,2021-11-23T09:49:30-07:00
; #@! TF.GenerationSoftware,Kicad,Pcbnew,(5.1.10)-1
; #@! TF.FileFunction,Plated,1,2,PTH
FMAT,2
INCH
T1C0.0118
T2C0.0157
T3C0.0177
T4C0.0197
T5C0.0394
T6C0.0472
T7C0.1142
%
G90
G05
T1
X2.1693Y-3.1988
X2.2008Y-3.7539
X2.2126Y-3.3701
X2.2244Y-4.1339
X2.2283Y-3.5709
X2.2283Y-4.0236
X2.248Y-3.8189
X2.2894Y-4.3957
X2.3169Y-3.1949
X2.3228Y-3.1378
X2.3386Y-3.9094
X2.3543Y-3.4449
X2.3642Y-3.3169
X2.3937Y-3.7008
X2.4409Y-3.8189
X2.4567Y-3.4409
X2.4685Y-3.8189
X2.5059Y-2.8209
X2.5136Y-3.9076
X2.5138Y-2.5
X2.5354Y-3.6732
X2.5433Y-4.1181
X2.5709Y-3.4409
X2.6299Y-3.5787
X2.6457Y-2.5728
X2.6742Y-3.0049
X2.7047Y-2.9665
X2.7087Y-3.9252
X2.7126Y-2.3504
X2.748Y-2.3504
X2.7638Y-2.9587
X2.8194Y-2.8587
X2.8228Y-3.7362
X2.8268Y-3.2205
X2.8287Y-3.2579
X2.8287Y-3.2953
X2.8327Y-3.3406
X2.8425Y-2.3465
X2.8858Y-2.8602
X2.8996Y-2.6083
X2.9094Y-2.3465
X2.9193Y-2.7106
X2.9882Y-3.3937
X2.9961Y-2.7618
X3.0866Y-3.2913
X3.1102Y-3.2559
X3.1614Y-3.2756
X3.1888Y-3.886
X3.2264Y-3.1949
X3.2697Y-3.1673
X3.2933Y-3.3878
X3.2943Y-3.9756
X3.3381Y-3.9946
X3.3478Y-3.8921
X3.3535Y-3.9476
X3.3681Y-3.8346
X3.374Y-3.2126
X3.439Y-2.502
X3.4429Y-2.3287
X3.4705Y-2.5276
X3.4803Y-2.311
X3.5079Y-2.5374
X3.5217Y-2.2992
X3.5512Y-2.5354
X3.563Y-2.3051
X3.5925Y-2.5177
X3.6004Y-2.3209
X3.6201Y-2.3701
X3.626Y-2.4843
X3.6358Y-2.4232
X3.685Y-3.8031
X3.6909Y-3.9803
X3.6969Y-3.5118
X3.6969Y-3.6555
X3.7008Y-3.0299
X3.7067Y-3.872
X3.7382Y-3.9331
X3.8031Y-2.9193
X3.8366Y-3.0118
X3.8563Y-3.3583
X3.8583Y-3.5138
X3.8819Y-3.0417
X3.8917Y-3.815
X3.9409Y-3.7362
X3.9827Y-3.502
X4.0413Y-3.0256
X4.0453Y-3.2008
X4.1201Y-3.3504
X4.1319Y-3.8268
X4.1319Y-3.9075
X4.1457Y-2.7146
T2
X2.5512Y-3.1063
X2.6634Y-4.1594
X2.7362Y-3.5433
X2.939Y-3.5157
T4
X2.002Y-3.9823
X2.002Y-4.0925
X2.002Y-4.2028
X2.5413Y-4.4094
T5
X2.0433Y-4.2953
X2.0433Y-4.3953
T6
X3.5197Y-2.4173
T7
X2.4213Y-2.0866
X2.4213Y-4.3307
T3
G00X4.1122Y-3.4724
M15
G01X4.1437Y-3.4724
M16
G05
G00X4.1437Y-3.7539
M15
G01X4.1122Y-3.7539
M16
G05
T0
M30
