%TF.GenerationSoftware,KiCad,Pcbnew,(5.1.10)-1*%
%TF.CreationDate,2021-11-23T09:49:32-07:00*%
%TF.ProjectId,SolarGPS,536f6c61-7247-4505-932e-6b696361645f,rev?*%
%TF.SameCoordinates,Original*%
%TF.FileFunction,Copper,L1,Top*%
%TF.FilePolarity,Positive*%
%FSLAX46Y46*%
G04 Gerber Fmt 4.6, Leading zero omitted, Abs format (unit mm)*
G04 Created by KiCad (PCBNEW (5.1.10)-1) date 2021-11-23 09:49:32*
%MOMM*%
%LPD*%
G01*
G04 APERTURE LIST*
%TA.AperFunction,ComponentPad*%
%ADD10O,1.900000X1.050000*%
%TD*%
%TA.AperFunction,ComponentPad*%
%ADD11R,1.000000X1.000000*%
%TD*%
%TA.AperFunction,ComponentPad*%
%ADD12C,2.500000*%
%TD*%
%TA.AperFunction,ComponentPad*%
%ADD13C,4.000000*%
%TD*%
%TA.AperFunction,ComponentPad*%
%ADD14O,1.700000X1.700000*%
%TD*%
%TA.AperFunction,ComponentPad*%
%ADD15R,1.700000X1.700000*%
%TD*%
%TA.AperFunction,SMDPad,CuDef*%
%ADD16R,1.550000X1.300000*%
%TD*%
%TA.AperFunction,SMDPad,CuDef*%
%ADD17R,1.000000X2.580000*%
%TD*%
%TA.AperFunction,ViaPad*%
%ADD18C,0.600000*%
%TD*%
%TA.AperFunction,ViaPad*%
%ADD19C,0.800000*%
%TD*%
%TA.AperFunction,Conductor*%
%ADD20C,0.200000*%
%TD*%
%TA.AperFunction,Conductor*%
%ADD21C,0.300000*%
%TD*%
%TA.AperFunction,Conductor*%
%ADD22C,0.400000*%
%TD*%
%TA.AperFunction,Conductor*%
%ADD23C,0.100000*%
%TD*%
G04 APERTURE END LIST*
D10*
%TO.P,J2,6*%
%TO.N,GND*%
X104850000Y-95350000D03*
X104850000Y-88200000D03*
%TD*%
D11*
%TO.P,TPGND1,1*%
%TO.N,GND*%
X50850000Y-101150000D03*
%TD*%
%TO.P,TPSHNT1,1*%
%TO.N,Net-(C14-Pad2)*%
X50850000Y-106750000D03*
%TD*%
D12*
%TO.P,AE1,1*%
%TO.N,Net-(AE1-Pad1)*%
X89400000Y-61400000D03*
%TD*%
D13*
%TO.P,SC1,2*%
%TO.N,GND*%
X61500000Y-53000000D03*
%TO.P,SC1,1*%
%TO.N,SOLAR+*%
X61500000Y-110000000D03*
%TD*%
D14*
%TO.P,C14,2*%
%TO.N,Net-(C14-Pad2)*%
X51900000Y-111640000D03*
D15*
%TO.P,C14,1*%
%TO.N,/VBAT*%
X51900000Y-109100000D03*
%TD*%
%TO.P,D2,2*%
%TO.N,Net-(D2-Pad2)*%
%TA.AperFunction,SMDPad,CuDef*%
G36*
G01*
X104793750Y-71700000D02*
X105706250Y-71700000D01*
G75*
G02*
X105950000Y-71943750I0J-243750D01*
G01*
X105950000Y-72431250D01*
G75*
G02*
X105706250Y-72675000I-243750J0D01*
G01*
X104793750Y-72675000D01*
G75*
G02*
X104550000Y-72431250I0J243750D01*
G01*
X104550000Y-71943750D01*
G75*
G02*
X104793750Y-71700000I243750J0D01*
G01*
G37*
%TD.AperFunction*%
%TO.P,D2,1*%
%TO.N,GND*%
%TA.AperFunction,SMDPad,CuDef*%
G36*
G01*
X104793750Y-69825000D02*
X105706250Y-69825000D01*
G75*
G02*
X105950000Y-70068750I0J-243750D01*
G01*
X105950000Y-70556250D01*
G75*
G02*
X105706250Y-70800000I-243750J0D01*
G01*
X104793750Y-70800000D01*
G75*
G02*
X104550000Y-70556250I0J243750D01*
G01*
X104550000Y-70068750D01*
G75*
G02*
X104793750Y-69825000I243750J0D01*
G01*
G37*
%TD.AperFunction*%
%TD*%
%TO.P,R3,2*%
%TO.N,Net-(D2-Pad2)*%
%TA.AperFunction,SMDPad,CuDef*%
G36*
G01*
X105406250Y-74187500D02*
X104893750Y-74187500D01*
G75*
G02*
X104675000Y-73968750I0J218750D01*
G01*
X104675000Y-73531250D01*
G75*
G02*
X104893750Y-73312500I218750J0D01*
G01*
X105406250Y-73312500D01*
G75*
G02*
X105625000Y-73531250I0J-218750D01*
G01*
X105625000Y-73968750D01*
G75*
G02*
X105406250Y-74187500I-218750J0D01*
G01*
G37*
%TD.AperFunction*%
%TO.P,R3,1*%
%TO.N,LED*%
%TA.AperFunction,SMDPad,CuDef*%
G36*
G01*
X105406250Y-75762500D02*
X104893750Y-75762500D01*
G75*
G02*
X104675000Y-75543750I0J218750D01*
G01*
X104675000Y-75106250D01*
G75*
G02*
X104893750Y-74887500I218750J0D01*
G01*
X105406250Y-74887500D01*
G75*
G02*
X105625000Y-75106250I0J-218750D01*
G01*
X105625000Y-75543750D01*
G75*
G02*
X105406250Y-75762500I-218750J0D01*
G01*
G37*
%TD.AperFunction*%
%TD*%
D11*
%TO.P,TPBAT1,1*%
%TO.N,/VBAT*%
X50850000Y-103950000D03*
%TD*%
%TO.P,TPSOLAR1,1*%
%TO.N,SOLAR+*%
X64550000Y-112000000D03*
%TD*%
D16*
%TO.P,SW2,2*%
%TO.N,VDD*%
X75125000Y-78850000D03*
%TO.P,SW2,1*%
%TO.N,BOOT0*%
X75125000Y-83350000D03*
X83075000Y-83350000D03*
%TO.P,SW2,2*%
%TO.N,VDD*%
X83075000Y-78850000D03*
%TD*%
%TO.P,SW1,2*%
%TO.N,VDD*%
X85925000Y-78850000D03*
%TO.P,SW1,1*%
%TO.N,USER1*%
X85925000Y-83350000D03*
X93875000Y-83350000D03*
%TO.P,SW1,2*%
%TO.N,VDD*%
X93875000Y-78850000D03*
%TD*%
D17*
%TO.P,J4,10*%
%TO.N,RESET*%
X104700000Y-78915000D03*
%TO.P,J4,9*%
%TO.N,GND*%
X104700000Y-83085000D03*
%TO.P,J4,8*%
%TO.N,DEBUG_UART_MISO*%
X102700000Y-78915000D03*
%TO.P,J4,7*%
%TO.N,DEBUG_UART_MOSI*%
X102700000Y-83085000D03*
%TO.P,J4,6*%
%TO.N,SWO*%
X100700000Y-78915000D03*
%TO.P,J4,5*%
%TO.N,GND*%
X100700000Y-83085000D03*
%TO.P,J4,4*%
%TO.N,SWCLK*%
X98700000Y-78915000D03*
%TO.P,J4,3*%
%TO.N,GND*%
X98700000Y-83085000D03*
%TO.P,J4,2*%
%TO.N,SWDIO*%
X96700000Y-78915000D03*
%TO.P,J4,1*%
%TO.N,VDD*%
X96700000Y-83085000D03*
%TD*%
D18*
%TO.N,GND*%
X62700000Y-97000000D03*
X62000000Y-97000000D03*
X64600000Y-104600000D03*
X68800000Y-99700000D03*
X56500000Y-105000000D03*
X56600000Y-102200000D03*
X57100000Y-97000000D03*
X59800000Y-87500000D03*
X62400000Y-87400000D03*
X65300000Y-87400000D03*
X66800000Y-90900000D03*
X87450000Y-59150000D03*
X88400000Y-58700000D03*
X90500000Y-58550000D03*
X91450000Y-58950000D03*
X91950000Y-60200000D03*
X92350000Y-61550000D03*
X92100000Y-63100000D03*
X90200000Y-64400000D03*
X88150000Y-64200000D03*
X87350000Y-63550000D03*
X89450000Y-58400000D03*
X89100000Y-64450000D03*
X91250000Y-63950000D03*
X75900000Y-86200000D03*
X71700000Y-94900000D03*
X71950000Y-84850000D03*
X68900000Y-59700000D03*
X69800000Y-59700000D03*
X72200000Y-59600000D03*
X73900000Y-59600000D03*
X76100000Y-70150000D03*
X70200000Y-75150000D03*
X81950000Y-81150000D03*
X83650000Y-86050000D03*
X85700000Y-81600000D03*
X93600000Y-96600000D03*
X93750000Y-101100000D03*
X93900000Y-92850000D03*
X104650000Y-85100000D03*
X105300000Y-68950000D03*
X55100000Y-81250000D03*
X58850000Y-81150000D03*
X56200000Y-85600000D03*
X55900000Y-95350000D03*
X60800000Y-94000000D03*
X58150000Y-111650000D03*
X104950000Y-97200000D03*
X104950000Y-99250000D03*
X98850000Y-96900000D03*
X94950000Y-99900000D03*
X98000000Y-89250000D03*
X63850000Y-63500000D03*
%TO.N,VBAT_SENSE*%
X71850000Y-82750000D03*
X60050000Y-84250000D03*
%TO.N,VDD*%
X80300000Y-83200000D03*
D19*
X64800000Y-78900000D03*
D18*
X94150000Y-98350000D03*
D19*
X69500000Y-90000000D03*
X74650000Y-89300000D03*
D18*
X71612954Y-72609901D03*
%TO.N,VSTOR*%
X63846446Y-99253554D03*
X59400000Y-99300000D03*
D19*
%TO.N,/VBAT*%
X67650000Y-105650000D03*
D18*
%TO.N,SOLAR_SENSE*%
X71800000Y-81800000D03*
X59000000Y-79700000D03*
%TO.N,RESET*%
X97950000Y-85300000D03*
%TO.N,SWDIO*%
X96600000Y-74150000D03*
%TO.N,SWCLK*%
X98600000Y-77260010D03*
%TO.N,DISP_EN*%
X85550000Y-97400000D03*
X80994881Y-98705119D03*
%TO.N,BOOT0*%
X83050000Y-80450000D03*
X78400000Y-83600000D03*
%TO.N,USER1*%
X93900000Y-89200000D03*
%TO.N,GPS_EXINT*%
X74150000Y-68850000D03*
X73650000Y-66250000D03*
%TO.N,DISP_CLK*%
X84788146Y-101461856D03*
X85178257Y-100268019D03*
%TO.N,EXTCOMIN*%
X85033047Y-98860010D03*
X83674300Y-100980002D03*
%TO.N,VBAT_OK*%
X64400000Y-93300000D03*
X56600000Y-90700000D03*
X71850000Y-83700000D03*
%TO.N,GPS_UART_MISO*%
X67924454Y-76325546D03*
X68700000Y-75350000D03*
%TO.N,DEBUG_UART_MISO*%
X102650000Y-76850000D03*
%TO.N,DEBUG_UART_MOSI*%
X102750000Y-81300000D03*
%TO.N,LED*%
X94000000Y-76960010D03*
%TO.N,GPS_VBAT*%
X79000000Y-82700000D03*
X67200000Y-65350000D03*
%TO.N,SWO*%
X97450000Y-76500000D03*
%TO.N,VUSB*%
X100100000Y-94900000D03*
X101160010Y-88950000D03*
%TO.N,GPSEN*%
X63650000Y-71650000D03*
X73300000Y-72650000D03*
%TD*%
D20*
%TO.N,VBAT_SENSE*%
X70350000Y-84250000D02*
X71850000Y-82750000D01*
X60050000Y-84250000D02*
X70350000Y-84250000D01*
D21*
%TO.N,VDD*%
X83075000Y-78850000D02*
X85925000Y-78850000D01*
X85925000Y-78850000D02*
X93875000Y-78850000D01*
X76550000Y-78850000D02*
X75125000Y-78850000D01*
D20*
X80300000Y-78950000D02*
X80200000Y-78850000D01*
D21*
X80200000Y-78850000D02*
X76550000Y-78850000D01*
X80300000Y-83200000D02*
X80300000Y-78950000D01*
X83075000Y-78850000D02*
X80200000Y-78850000D01*
D22*
X64850000Y-78850000D02*
X64800000Y-78900000D01*
X75125000Y-78850000D02*
X71550000Y-78850000D01*
X71550000Y-78850000D02*
X64850000Y-78850000D01*
D21*
X93875000Y-80260000D02*
X96700000Y-83085000D01*
X93875000Y-78850000D02*
X93875000Y-80260000D01*
X96700000Y-95800000D02*
X94150000Y-98350000D01*
X96700000Y-83085000D02*
X96700000Y-95800000D01*
X73950000Y-90000000D02*
X74650000Y-89300000D01*
X69500000Y-90000000D02*
X73950000Y-90000000D01*
X71550000Y-72672855D02*
X71612954Y-72609901D01*
X71550000Y-78850000D02*
X71550000Y-72672855D01*
D20*
%TO.N,VSTOR*%
X63800000Y-99300000D02*
X63846446Y-99253554D01*
X59400000Y-99300000D02*
X63800000Y-99300000D01*
D22*
%TO.N,/VBAT*%
X67600000Y-105700000D02*
X67650000Y-105650000D01*
X54400000Y-105700000D02*
X67600000Y-105700000D01*
X51900000Y-108200000D02*
X54400000Y-105700000D01*
X51900000Y-109100000D02*
X51900000Y-108200000D01*
D20*
X52650000Y-103950000D02*
X54400000Y-105700000D01*
X50850000Y-103950000D02*
X52650000Y-103950000D01*
%TO.N,SOLAR_SENSE*%
X61100000Y-81800000D02*
X59000000Y-79700000D01*
X71800000Y-81800000D02*
X61100000Y-81800000D01*
%TO.N,RESET*%
X104700000Y-80350000D02*
X104700000Y-78915000D01*
X103650000Y-81400000D02*
X104700000Y-80350000D01*
X103650000Y-85050000D02*
X103650000Y-81400000D01*
X103400000Y-85300000D02*
X103650000Y-85050000D01*
X97950000Y-85300000D02*
X103400000Y-85300000D01*
%TO.N,SWDIO*%
X96700000Y-78915000D02*
X96600000Y-78815000D01*
X96600000Y-78815000D02*
X96600000Y-74150000D01*
%TO.N,SWCLK*%
X98700000Y-78915000D02*
X98700000Y-77360010D01*
X98700000Y-77360010D02*
X98600000Y-77260010D01*
%TO.N,DISP_EN*%
X82300000Y-97400000D02*
X80994881Y-98705119D01*
X85550000Y-97400000D02*
X82300000Y-97400000D01*
D21*
%TO.N,BOOT0*%
X81975000Y-84450000D02*
X83075000Y-83350000D01*
X75125000Y-83350000D02*
X76225000Y-84450000D01*
X83075000Y-80475000D02*
X83050000Y-80450000D01*
X83075000Y-83350000D02*
X83075000Y-80475000D01*
X81200000Y-84450000D02*
X81975000Y-84450000D01*
X76225000Y-84450000D02*
X78200000Y-84450000D01*
X78900000Y-84450000D02*
X81200000Y-84450000D01*
X78200000Y-84450000D02*
X78900000Y-84450000D01*
D20*
X78900000Y-84450000D02*
X78900000Y-84100000D01*
X78900000Y-84100000D02*
X78400000Y-83600000D01*
%TO.N,USER1*%
X85925000Y-83350000D02*
X93875000Y-83350000D01*
X93900000Y-83375000D02*
X93875000Y-83350000D01*
X93900000Y-89200000D02*
X93900000Y-83375000D01*
%TO.N,GPS_EXINT*%
X73650000Y-68350000D02*
X73650000Y-66250000D01*
X74150000Y-68850000D02*
X73650000Y-68350000D01*
%TO.N,DISP_CLK*%
X84788146Y-101461856D02*
X85178257Y-101071745D01*
X85178257Y-101071745D02*
X85178257Y-100268019D01*
%TO.N,EXTCOMIN*%
X85033047Y-99621255D02*
X83674300Y-100980002D01*
X85033047Y-98860010D02*
X85033047Y-99621255D01*
%TO.N,VBAT_OK*%
X59200000Y-93300000D02*
X56600000Y-90700000D01*
X64400000Y-93300000D02*
X59200000Y-93300000D01*
X70939990Y-84610010D02*
X61689990Y-84610010D01*
X71850000Y-83700000D02*
X70939990Y-84610010D01*
X56600000Y-89700000D02*
X56600000Y-90700000D01*
X61689990Y-84610010D02*
X56600000Y-89700000D01*
%TO.N,GPS_UART_MISO*%
X67924454Y-76125546D02*
X68700000Y-75350000D01*
X67924454Y-76325546D02*
X67924454Y-76125546D01*
%TO.N,Net-(D2-Pad2)*%
X105150000Y-72287500D02*
X105250000Y-72187500D01*
X105150000Y-73750000D02*
X105150000Y-72287500D01*
%TO.N,DEBUG_UART_MISO*%
X102700000Y-76900000D02*
X102650000Y-76850000D01*
X102700000Y-78915000D02*
X102700000Y-76900000D01*
%TO.N,DEBUG_UART_MOSI*%
X102750000Y-83035000D02*
X102700000Y-83085000D01*
X102750000Y-81300000D02*
X102750000Y-83035000D01*
%TO.N,LED*%
X102939998Y-73589998D02*
X96331198Y-73589998D01*
X105150000Y-75325000D02*
X104675000Y-75325000D01*
X94000000Y-75921196D02*
X94000000Y-76960010D01*
X104675000Y-75325000D02*
X102939998Y-73589998D01*
X96331198Y-73589998D02*
X94000000Y-75921196D01*
%TO.N,GPS_VBAT*%
X79000000Y-82700000D02*
X76750000Y-80450000D01*
X76750000Y-80450000D02*
X64100000Y-80450000D01*
X64100000Y-80450000D02*
X62800000Y-79150000D01*
X62800000Y-79150000D02*
X62800000Y-66650000D01*
X64100000Y-65350000D02*
X67200000Y-65350000D01*
X62800000Y-66650000D02*
X64100000Y-65350000D01*
%TO.N,SWO*%
X99775000Y-76500000D02*
X97450000Y-76500000D01*
X100700000Y-78915000D02*
X100700000Y-77425000D01*
X100700000Y-77425000D02*
X99775000Y-76500000D01*
%TO.N,VUSB*%
X100100000Y-90010010D02*
X101160010Y-88950000D01*
X100100000Y-94900000D02*
X100100000Y-90010010D01*
%TO.N,GPSEN*%
X63650000Y-71650000D02*
X72300000Y-71650000D01*
X72300000Y-71650000D02*
X73300000Y-72650000D01*
%TD*%
%TO.N,GND*%
X105430805Y-50339384D02*
X105556629Y-50377373D01*
X105672675Y-50439076D01*
X105774532Y-50522148D01*
X105858310Y-50623418D01*
X105920819Y-50739027D01*
X105959686Y-50864586D01*
X105975000Y-51010285D01*
X105975000Y-69325043D01*
X105950000Y-69322581D01*
X105475000Y-69325000D01*
X105350000Y-69450000D01*
X105350000Y-70212500D01*
X105370000Y-70212500D01*
X105370000Y-70412500D01*
X105350000Y-70412500D01*
X105350000Y-71175000D01*
X105475000Y-71300000D01*
X105950000Y-71302419D01*
X105975000Y-71299957D01*
X105975000Y-71472180D01*
X105914889Y-71440050D01*
X105812613Y-71409025D01*
X105706250Y-71398549D01*
X104793750Y-71398549D01*
X104687387Y-71409025D01*
X104585111Y-71440050D01*
X104490853Y-71490432D01*
X104408235Y-71558235D01*
X104340432Y-71640853D01*
X104290050Y-71735111D01*
X104259025Y-71837387D01*
X104248549Y-71943750D01*
X104248549Y-72431250D01*
X104259025Y-72537613D01*
X104290050Y-72639889D01*
X104340432Y-72734147D01*
X104408235Y-72816765D01*
X104490853Y-72884568D01*
X104585111Y-72934950D01*
X104687387Y-72965975D01*
X104750001Y-72972142D01*
X104750000Y-73033865D01*
X104694678Y-73050647D01*
X104604742Y-73098719D01*
X104525912Y-73163412D01*
X104461219Y-73242242D01*
X104413147Y-73332178D01*
X104383545Y-73429764D01*
X104373549Y-73531250D01*
X104373549Y-73968750D01*
X104383545Y-74070236D01*
X104413147Y-74167822D01*
X104461219Y-74257758D01*
X104525912Y-74336588D01*
X104604742Y-74401281D01*
X104694678Y-74449353D01*
X104792264Y-74478955D01*
X104893750Y-74488951D01*
X105406250Y-74488951D01*
X105507736Y-74478955D01*
X105605322Y-74449353D01*
X105695258Y-74401281D01*
X105774088Y-74336588D01*
X105838781Y-74257758D01*
X105886853Y-74167822D01*
X105916455Y-74070236D01*
X105926451Y-73968750D01*
X105926451Y-73531250D01*
X105916455Y-73429764D01*
X105886853Y-73332178D01*
X105838781Y-73242242D01*
X105774088Y-73163412D01*
X105695258Y-73098719D01*
X105605322Y-73050647D01*
X105550000Y-73033865D01*
X105550000Y-72976451D01*
X105706250Y-72976451D01*
X105812613Y-72965975D01*
X105914889Y-72934950D01*
X105975000Y-72902820D01*
X105975001Y-87450608D01*
X105927606Y-87403301D01*
X105759638Y-87291292D01*
X105573046Y-87214204D01*
X105375000Y-87175000D01*
X104950000Y-87175000D01*
X104950000Y-88100000D01*
X104970000Y-88100000D01*
X104970000Y-88300000D01*
X104950000Y-88300000D01*
X104950000Y-89225000D01*
X105375000Y-89225000D01*
X105573046Y-89185796D01*
X105759638Y-89108708D01*
X105927606Y-88996699D01*
X105975001Y-88949392D01*
X105975001Y-94600608D01*
X105927606Y-94553301D01*
X105759638Y-94441292D01*
X105573046Y-94364204D01*
X105375000Y-94325000D01*
X104950000Y-94325000D01*
X104950000Y-95250000D01*
X104970000Y-95250000D01*
X104970000Y-95450000D01*
X104950000Y-95450000D01*
X104950000Y-96375000D01*
X105375000Y-96375000D01*
X105573046Y-96335796D01*
X105759638Y-96258708D01*
X105927606Y-96146699D01*
X105975001Y-96099392D01*
X105975001Y-112675000D01*
X65294473Y-112675000D01*
X65300647Y-112667477D01*
X65328504Y-112615360D01*
X65345659Y-112558810D01*
X65351451Y-112500000D01*
X65351451Y-111500000D01*
X65345659Y-111441190D01*
X65328504Y-111384640D01*
X65300647Y-111332523D01*
X65263158Y-111286842D01*
X65217477Y-111249353D01*
X65165360Y-111221496D01*
X65108810Y-111204341D01*
X65050000Y-111198549D01*
X64050000Y-111198549D01*
X63991190Y-111204341D01*
X63934640Y-111221496D01*
X63882523Y-111249353D01*
X63836842Y-111286842D01*
X63799353Y-111332523D01*
X63771496Y-111384640D01*
X63754341Y-111441190D01*
X63748549Y-111500000D01*
X63748549Y-112500000D01*
X63754341Y-112558810D01*
X63771496Y-112615360D01*
X63799353Y-112667477D01*
X63805527Y-112675000D01*
X52406382Y-112675000D01*
X52444729Y-112659116D01*
X52633082Y-112533263D01*
X52793263Y-112373082D01*
X52919116Y-112184729D01*
X53005806Y-111975443D01*
X53050000Y-111753265D01*
X53050000Y-111526735D01*
X53005806Y-111304557D01*
X52919116Y-111095271D01*
X52793263Y-110906918D01*
X52633082Y-110746737D01*
X52444729Y-110620884D01*
X52235443Y-110534194D01*
X52013265Y-110490000D01*
X51786735Y-110490000D01*
X51564557Y-110534194D01*
X51355271Y-110620884D01*
X51166918Y-110746737D01*
X51006737Y-110906918D01*
X50880884Y-111095271D01*
X50794194Y-111304557D01*
X50750000Y-111526735D01*
X50750000Y-111753265D01*
X50794194Y-111975443D01*
X50880884Y-112184729D01*
X51006737Y-112373082D01*
X51166918Y-112533263D01*
X51355271Y-112659116D01*
X51393618Y-112675000D01*
X50325000Y-112675000D01*
X50325000Y-107548989D01*
X50350000Y-107551451D01*
X51350000Y-107551451D01*
X51408810Y-107545659D01*
X51465360Y-107528504D01*
X51517477Y-107500647D01*
X51563158Y-107463158D01*
X51600647Y-107417477D01*
X51628504Y-107365360D01*
X51645659Y-107308810D01*
X51651451Y-107250000D01*
X51651451Y-106250000D01*
X51645659Y-106191190D01*
X51628504Y-106134640D01*
X51600647Y-106082523D01*
X51563158Y-106036842D01*
X51517477Y-105999353D01*
X51465360Y-105971496D01*
X51408810Y-105954341D01*
X51350000Y-105948549D01*
X50350000Y-105948549D01*
X50325000Y-105951011D01*
X50325000Y-104748989D01*
X50350000Y-104751451D01*
X51350000Y-104751451D01*
X51408810Y-104745659D01*
X51465360Y-104728504D01*
X51517477Y-104700647D01*
X51563158Y-104663158D01*
X51600647Y-104617477D01*
X51628504Y-104565360D01*
X51645659Y-104508810D01*
X51651451Y-104450000D01*
X51651451Y-104350000D01*
X52484315Y-104350000D01*
X53763605Y-105629290D01*
X51563819Y-107829076D01*
X51544737Y-107844736D01*
X51482255Y-107920871D01*
X51467461Y-107948549D01*
X51050000Y-107948549D01*
X50991190Y-107954341D01*
X50934640Y-107971496D01*
X50882523Y-107999353D01*
X50836842Y-108036842D01*
X50799353Y-108082523D01*
X50771496Y-108134640D01*
X50754341Y-108191190D01*
X50748549Y-108250000D01*
X50748549Y-109950000D01*
X50754341Y-110008810D01*
X50771496Y-110065360D01*
X50799353Y-110117477D01*
X50836842Y-110163158D01*
X50882523Y-110200647D01*
X50934640Y-110228504D01*
X50991190Y-110245659D01*
X51050000Y-110251451D01*
X52750000Y-110251451D01*
X52808810Y-110245659D01*
X52865360Y-110228504D01*
X52917477Y-110200647D01*
X52963158Y-110163158D01*
X53000647Y-110117477D01*
X53028504Y-110065360D01*
X53045659Y-110008810D01*
X53051451Y-109950000D01*
X53051451Y-109773470D01*
X59200000Y-109773470D01*
X59200000Y-110226530D01*
X59288387Y-110670885D01*
X59461766Y-111089459D01*
X59713473Y-111466165D01*
X60033835Y-111786527D01*
X60410541Y-112038234D01*
X60829115Y-112211613D01*
X61273470Y-112300000D01*
X61726530Y-112300000D01*
X62170885Y-112211613D01*
X62589459Y-112038234D01*
X62966165Y-111786527D01*
X63286527Y-111466165D01*
X63538234Y-111089459D01*
X63711613Y-110670885D01*
X63800000Y-110226530D01*
X63800000Y-109773470D01*
X63711613Y-109329115D01*
X63538234Y-108910541D01*
X63286527Y-108533835D01*
X62966165Y-108213473D01*
X62589459Y-107961766D01*
X62170885Y-107788387D01*
X61726530Y-107700000D01*
X61273470Y-107700000D01*
X60829115Y-107788387D01*
X60410541Y-107961766D01*
X60033835Y-108213473D01*
X59713473Y-108533835D01*
X59461766Y-108910541D01*
X59288387Y-109329115D01*
X59200000Y-109773470D01*
X53051451Y-109773470D01*
X53051451Y-108250000D01*
X53045659Y-108191190D01*
X53028504Y-108134640D01*
X53000647Y-108082523D01*
X52963158Y-108036842D01*
X52917477Y-107999353D01*
X52865360Y-107971496D01*
X52842534Y-107964571D01*
X54607106Y-106200000D01*
X67213166Y-106200000D01*
X67318426Y-106270332D01*
X67445818Y-106323099D01*
X67581056Y-106350000D01*
X67718944Y-106350000D01*
X67854182Y-106323099D01*
X67981574Y-106270332D01*
X68096224Y-106193726D01*
X68193726Y-106096224D01*
X68270332Y-105981574D01*
X68323099Y-105854182D01*
X68350000Y-105718944D01*
X68350000Y-105581056D01*
X68323099Y-105445818D01*
X68270332Y-105318426D01*
X68193726Y-105203776D01*
X68096224Y-105106274D01*
X67981574Y-105029668D01*
X67854182Y-104976901D01*
X67718944Y-104950000D01*
X67581056Y-104950000D01*
X67445818Y-104976901D01*
X67318426Y-105029668D01*
X67203776Y-105106274D01*
X67110050Y-105200000D01*
X54465685Y-105200000D01*
X52946737Y-103681052D01*
X52934211Y-103665789D01*
X52873303Y-103615803D01*
X52803814Y-103578660D01*
X52728414Y-103555788D01*
X52669647Y-103550000D01*
X52669646Y-103550000D01*
X52650000Y-103548065D01*
X52630354Y-103550000D01*
X51651451Y-103550000D01*
X51651451Y-103515960D01*
X72675000Y-103515960D01*
X72675111Y-103517091D01*
X72675154Y-103523209D01*
X72676697Y-103537890D01*
X72676697Y-103552658D01*
X72677171Y-103557171D01*
X72709804Y-103848095D01*
X72715924Y-103876884D01*
X72721650Y-103905803D01*
X72722992Y-103910138D01*
X72811510Y-104189183D01*
X72823108Y-104216244D01*
X72834339Y-104243491D01*
X72836497Y-104247483D01*
X72977530Y-104504021D01*
X72994169Y-104528322D01*
X73010473Y-104552860D01*
X73013366Y-104556357D01*
X73201541Y-104780615D01*
X73222544Y-104801182D01*
X73243342Y-104822126D01*
X73246859Y-104824994D01*
X73475009Y-105008431D01*
X73499643Y-105024551D01*
X73524076Y-105041031D01*
X73528083Y-105043162D01*
X73787518Y-105178792D01*
X73814839Y-105189830D01*
X73841985Y-105201241D01*
X73846329Y-105202553D01*
X74127167Y-105285208D01*
X74156102Y-105290727D01*
X74184957Y-105296650D01*
X74189473Y-105297093D01*
X74481017Y-105323626D01*
X74510477Y-105323420D01*
X74539927Y-105323625D01*
X74544443Y-105323183D01*
X74835588Y-105292583D01*
X74864449Y-105286658D01*
X74893378Y-105281140D01*
X74897722Y-105279828D01*
X75177378Y-105193261D01*
X75204513Y-105181854D01*
X75231844Y-105170811D01*
X75235851Y-105168680D01*
X75493367Y-105029442D01*
X75517787Y-105012970D01*
X75542435Y-104996841D01*
X75545952Y-104993973D01*
X75771519Y-104807368D01*
X75792283Y-104786458D01*
X75813320Y-104765857D01*
X75816213Y-104762361D01*
X76001239Y-104535497D01*
X76017562Y-104510929D01*
X76034181Y-104486657D01*
X76036340Y-104482665D01*
X76173777Y-104224184D01*
X76184993Y-104196970D01*
X76196605Y-104169877D01*
X76197948Y-104165542D01*
X76282562Y-103885287D01*
X76288284Y-103856389D01*
X76294407Y-103827579D01*
X76294882Y-103823066D01*
X76323449Y-103531714D01*
X76323449Y-103531708D01*
X76325000Y-103515961D01*
X76325000Y-100920907D01*
X83074300Y-100920907D01*
X83074300Y-101039097D01*
X83097358Y-101155016D01*
X83142587Y-101264209D01*
X83208250Y-101362480D01*
X83291822Y-101446052D01*
X83390093Y-101511715D01*
X83499286Y-101556944D01*
X83615205Y-101580002D01*
X83733395Y-101580002D01*
X83849314Y-101556944D01*
X83958507Y-101511715D01*
X84056778Y-101446052D01*
X84140350Y-101362480D01*
X84206013Y-101264209D01*
X84251242Y-101155016D01*
X84274300Y-101039097D01*
X84274300Y-100945687D01*
X84655042Y-100564945D01*
X84712207Y-100650497D01*
X84778257Y-100716547D01*
X84778257Y-100861856D01*
X84729051Y-100861856D01*
X84613132Y-100884914D01*
X84503939Y-100930143D01*
X84405668Y-100995806D01*
X84322096Y-101079378D01*
X84256433Y-101177649D01*
X84211204Y-101286842D01*
X84188146Y-101402761D01*
X84188146Y-101520951D01*
X84211204Y-101636870D01*
X84256433Y-101746063D01*
X84322096Y-101844334D01*
X84405668Y-101927906D01*
X84503939Y-101993569D01*
X84613132Y-102038798D01*
X84729051Y-102061856D01*
X84847241Y-102061856D01*
X84963160Y-102038798D01*
X85072353Y-101993569D01*
X85170624Y-101927906D01*
X85254196Y-101844334D01*
X85319859Y-101746063D01*
X85365088Y-101636870D01*
X85388146Y-101520951D01*
X85388146Y-101427542D01*
X85447211Y-101368477D01*
X85462468Y-101355956D01*
X85512454Y-101295048D01*
X85549597Y-101225559D01*
X85572469Y-101150159D01*
X85578257Y-101091392D01*
X85578257Y-101091382D01*
X85580191Y-101071746D01*
X85578257Y-101052110D01*
X85578257Y-100716547D01*
X85644307Y-100650497D01*
X85709970Y-100552226D01*
X85755199Y-100443033D01*
X85778257Y-100327114D01*
X85778257Y-100208924D01*
X85755199Y-100093005D01*
X85709970Y-99983812D01*
X85644307Y-99885541D01*
X85560735Y-99801969D01*
X85462464Y-99736306D01*
X85421316Y-99719262D01*
X85427259Y-99699669D01*
X85433047Y-99640902D01*
X85433047Y-99640892D01*
X85434981Y-99621256D01*
X85433047Y-99601620D01*
X85433047Y-99308538D01*
X85499097Y-99242488D01*
X85564760Y-99144217D01*
X85609989Y-99035024D01*
X85633047Y-98919105D01*
X85633047Y-98800915D01*
X85609989Y-98684996D01*
X85564760Y-98575803D01*
X85499097Y-98477532D01*
X85415525Y-98393960D01*
X85317254Y-98328297D01*
X85208061Y-98283068D01*
X85092142Y-98260010D01*
X84973952Y-98260010D01*
X84858033Y-98283068D01*
X84748840Y-98328297D01*
X84650569Y-98393960D01*
X84566997Y-98477532D01*
X84501334Y-98575803D01*
X84456105Y-98684996D01*
X84433047Y-98800915D01*
X84433047Y-98919105D01*
X84456105Y-99035024D01*
X84501334Y-99144217D01*
X84566997Y-99242488D01*
X84633048Y-99308539D01*
X84633048Y-99455569D01*
X83708615Y-100380002D01*
X83615205Y-100380002D01*
X83499286Y-100403060D01*
X83390093Y-100448289D01*
X83291822Y-100513952D01*
X83208250Y-100597524D01*
X83142587Y-100695795D01*
X83097358Y-100804988D01*
X83074300Y-100920907D01*
X76325000Y-100920907D01*
X76325000Y-98646024D01*
X80394881Y-98646024D01*
X80394881Y-98764214D01*
X80417939Y-98880133D01*
X80463168Y-98989326D01*
X80528831Y-99087597D01*
X80612403Y-99171169D01*
X80710674Y-99236832D01*
X80819867Y-99282061D01*
X80935786Y-99305119D01*
X81053976Y-99305119D01*
X81169895Y-99282061D01*
X81279088Y-99236832D01*
X81377359Y-99171169D01*
X81460931Y-99087597D01*
X81526594Y-98989326D01*
X81571823Y-98880133D01*
X81594881Y-98764214D01*
X81594881Y-98670804D01*
X82465686Y-97800000D01*
X85101472Y-97800000D01*
X85167522Y-97866050D01*
X85265793Y-97931713D01*
X85374986Y-97976942D01*
X85490905Y-98000000D01*
X85609095Y-98000000D01*
X85725014Y-97976942D01*
X85834207Y-97931713D01*
X85932478Y-97866050D01*
X86016050Y-97782478D01*
X86081713Y-97684207D01*
X86126942Y-97575014D01*
X86150000Y-97459095D01*
X86150000Y-97340905D01*
X86126942Y-97224986D01*
X86081713Y-97115793D01*
X86016050Y-97017522D01*
X85932478Y-96933950D01*
X85834207Y-96868287D01*
X85725014Y-96823058D01*
X85609095Y-96800000D01*
X85490905Y-96800000D01*
X85374986Y-96823058D01*
X85265793Y-96868287D01*
X85167522Y-96933950D01*
X85101472Y-97000000D01*
X82319646Y-97000000D01*
X82300000Y-96998065D01*
X82280353Y-97000000D01*
X82221586Y-97005788D01*
X82146186Y-97028660D01*
X82076697Y-97065803D01*
X82031049Y-97103265D01*
X82031047Y-97103267D01*
X82015789Y-97115789D01*
X82003267Y-97131047D01*
X81029196Y-98105119D01*
X80935786Y-98105119D01*
X80819867Y-98128177D01*
X80710674Y-98173406D01*
X80612403Y-98239069D01*
X80528831Y-98322641D01*
X80463168Y-98420912D01*
X80417939Y-98530105D01*
X80394881Y-98646024D01*
X76325000Y-98646024D01*
X76325000Y-95484039D01*
X76324889Y-95482908D01*
X76324846Y-95476791D01*
X76323303Y-95462110D01*
X76323303Y-95447342D01*
X76322828Y-95442829D01*
X76290196Y-95151904D01*
X76284074Y-95123107D01*
X76278350Y-95094197D01*
X76277008Y-95089862D01*
X76188490Y-94810817D01*
X76176903Y-94783785D01*
X76165661Y-94756509D01*
X76163503Y-94752517D01*
X76022470Y-94495979D01*
X76005831Y-94471678D01*
X75989527Y-94447140D01*
X75986634Y-94443643D01*
X75798459Y-94219385D01*
X75777403Y-94198765D01*
X75756657Y-94177874D01*
X75753141Y-94175006D01*
X75524991Y-93991569D01*
X75500339Y-93975437D01*
X75475923Y-93958969D01*
X75471917Y-93956838D01*
X75212482Y-93821208D01*
X75185173Y-93810175D01*
X75158015Y-93798759D01*
X75153671Y-93797447D01*
X74872833Y-93714792D01*
X74843900Y-93709273D01*
X74815044Y-93703350D01*
X74810529Y-93702907D01*
X74810527Y-93702907D01*
X74518983Y-93676375D01*
X74489562Y-93676580D01*
X74460074Y-93676375D01*
X74455557Y-93676817D01*
X74164412Y-93707417D01*
X74135558Y-93713340D01*
X74106622Y-93718860D01*
X74102278Y-93720172D01*
X73822622Y-93806740D01*
X73795507Y-93818138D01*
X73768156Y-93829189D01*
X73764149Y-93831320D01*
X73506633Y-93970559D01*
X73482240Y-93987012D01*
X73457565Y-94003159D01*
X73454048Y-94006027D01*
X73228481Y-94192632D01*
X73207733Y-94213526D01*
X73186680Y-94234143D01*
X73183787Y-94237639D01*
X72998761Y-94464503D01*
X72982454Y-94489048D01*
X72965819Y-94513343D01*
X72963660Y-94517335D01*
X72826223Y-94775816D01*
X72815007Y-94803030D01*
X72803395Y-94830123D01*
X72802052Y-94834458D01*
X72717438Y-95114712D01*
X72711714Y-95143625D01*
X72705593Y-95172421D01*
X72705118Y-95176934D01*
X72676551Y-95468286D01*
X72676551Y-95468302D01*
X72675001Y-95484039D01*
X72675000Y-103515960D01*
X51651451Y-103515960D01*
X51651451Y-103450000D01*
X51645659Y-103391190D01*
X51628504Y-103334640D01*
X51600647Y-103282523D01*
X51563158Y-103236842D01*
X51517477Y-103199353D01*
X51465360Y-103171496D01*
X51408810Y-103154341D01*
X51350000Y-103148549D01*
X50350000Y-103148549D01*
X50325000Y-103151011D01*
X50325000Y-102149957D01*
X50350000Y-102152419D01*
X50625000Y-102150000D01*
X50750000Y-102025000D01*
X50750000Y-101250000D01*
X50950000Y-101250000D01*
X50950000Y-102025000D01*
X51075000Y-102150000D01*
X51350000Y-102152419D01*
X51448017Y-102142765D01*
X51542267Y-102114175D01*
X51629129Y-102067746D01*
X51705264Y-102005264D01*
X51767746Y-101929129D01*
X51814175Y-101842267D01*
X51842765Y-101748017D01*
X51852419Y-101650000D01*
X51850000Y-101375000D01*
X51725000Y-101250000D01*
X50950000Y-101250000D01*
X50750000Y-101250000D01*
X50730000Y-101250000D01*
X50730000Y-101050000D01*
X50750000Y-101050000D01*
X50750000Y-100275000D01*
X50950000Y-100275000D01*
X50950000Y-101050000D01*
X51725000Y-101050000D01*
X51850000Y-100925000D01*
X51852419Y-100650000D01*
X51842765Y-100551983D01*
X51814175Y-100457733D01*
X51767746Y-100370871D01*
X51705264Y-100294736D01*
X51629129Y-100232254D01*
X51542267Y-100185825D01*
X51448017Y-100157235D01*
X51350000Y-100147581D01*
X51075000Y-100150000D01*
X50950000Y-100275000D01*
X50750000Y-100275000D01*
X50625000Y-100150000D01*
X50350000Y-100147581D01*
X50325000Y-100150043D01*
X50325000Y-99240905D01*
X58800000Y-99240905D01*
X58800000Y-99359095D01*
X58823058Y-99475014D01*
X58868287Y-99584207D01*
X58933950Y-99682478D01*
X59017522Y-99766050D01*
X59115793Y-99831713D01*
X59224986Y-99876942D01*
X59340905Y-99900000D01*
X59459095Y-99900000D01*
X59575014Y-99876942D01*
X59684207Y-99831713D01*
X59782478Y-99766050D01*
X59848528Y-99700000D01*
X63444364Y-99700000D01*
X63463968Y-99719604D01*
X63562239Y-99785267D01*
X63671432Y-99830496D01*
X63787351Y-99853554D01*
X63905541Y-99853554D01*
X64021460Y-99830496D01*
X64130653Y-99785267D01*
X64228924Y-99719604D01*
X64312496Y-99636032D01*
X64378159Y-99537761D01*
X64423388Y-99428568D01*
X64446446Y-99312649D01*
X64446446Y-99194459D01*
X64423388Y-99078540D01*
X64378159Y-98969347D01*
X64312496Y-98871076D01*
X64228924Y-98787504D01*
X64130653Y-98721841D01*
X64021460Y-98676612D01*
X63905541Y-98653554D01*
X63787351Y-98653554D01*
X63671432Y-98676612D01*
X63562239Y-98721841D01*
X63463968Y-98787504D01*
X63380396Y-98871076D01*
X63361069Y-98900000D01*
X59848528Y-98900000D01*
X59782478Y-98833950D01*
X59684207Y-98768287D01*
X59575014Y-98723058D01*
X59459095Y-98700000D01*
X59340905Y-98700000D01*
X59224986Y-98723058D01*
X59115793Y-98768287D01*
X59017522Y-98833950D01*
X58933950Y-98917522D01*
X58868287Y-99015793D01*
X58823058Y-99124986D01*
X58800000Y-99240905D01*
X50325000Y-99240905D01*
X50325000Y-90640905D01*
X56000000Y-90640905D01*
X56000000Y-90759095D01*
X56023058Y-90875014D01*
X56068287Y-90984207D01*
X56133950Y-91082478D01*
X56217522Y-91166050D01*
X56315793Y-91231713D01*
X56424986Y-91276942D01*
X56540905Y-91300000D01*
X56634315Y-91300000D01*
X58903267Y-93568953D01*
X58915789Y-93584211D01*
X58931047Y-93596733D01*
X58931049Y-93596735D01*
X58962982Y-93622941D01*
X58976697Y-93634197D01*
X59046186Y-93671340D01*
X59121586Y-93694212D01*
X59180353Y-93700000D01*
X59180363Y-93700000D01*
X59199999Y-93701934D01*
X59219635Y-93700000D01*
X63951472Y-93700000D01*
X64017522Y-93766050D01*
X64115793Y-93831713D01*
X64224986Y-93876942D01*
X64340905Y-93900000D01*
X64459095Y-93900000D01*
X64575014Y-93876942D01*
X64684207Y-93831713D01*
X64782478Y-93766050D01*
X64866050Y-93682478D01*
X64931713Y-93584207D01*
X64976942Y-93475014D01*
X65000000Y-93359095D01*
X65000000Y-93240905D01*
X64976942Y-93124986D01*
X64931713Y-93015793D01*
X64866050Y-92917522D01*
X64782478Y-92833950D01*
X64684207Y-92768287D01*
X64575014Y-92723058D01*
X64459095Y-92700000D01*
X64340905Y-92700000D01*
X64224986Y-92723058D01*
X64115793Y-92768287D01*
X64017522Y-92833950D01*
X63951472Y-92900000D01*
X59365686Y-92900000D01*
X57200000Y-90734315D01*
X57200000Y-90640905D01*
X57176942Y-90524986D01*
X57131713Y-90415793D01*
X57066050Y-90317522D01*
X57000000Y-90251472D01*
X57000000Y-89931056D01*
X68800000Y-89931056D01*
X68800000Y-90068944D01*
X68826901Y-90204182D01*
X68879668Y-90331574D01*
X68956274Y-90446224D01*
X69053776Y-90543726D01*
X69168426Y-90620332D01*
X69295818Y-90673099D01*
X69431056Y-90700000D01*
X69568944Y-90700000D01*
X69704182Y-90673099D01*
X69831574Y-90620332D01*
X69946224Y-90543726D01*
X70039950Y-90450000D01*
X73927906Y-90450000D01*
X73950000Y-90452176D01*
X73972094Y-90450000D01*
X73972105Y-90450000D01*
X74038215Y-90443489D01*
X74123041Y-90417757D01*
X74201216Y-90375971D01*
X74269737Y-90319737D01*
X74283828Y-90302567D01*
X74586395Y-90000000D01*
X74718944Y-90000000D01*
X74854182Y-89973099D01*
X74981574Y-89920332D01*
X75096224Y-89843726D01*
X75193726Y-89746224D01*
X75270332Y-89631574D01*
X75323099Y-89504182D01*
X75350000Y-89368944D01*
X75350000Y-89231056D01*
X75323099Y-89095818D01*
X75270332Y-88968426D01*
X75193726Y-88853776D01*
X75096224Y-88756274D01*
X74981574Y-88679668D01*
X74854182Y-88626901D01*
X74718944Y-88600000D01*
X74581056Y-88600000D01*
X74445818Y-88626901D01*
X74318426Y-88679668D01*
X74203776Y-88756274D01*
X74106274Y-88853776D01*
X74029668Y-88968426D01*
X73976901Y-89095818D01*
X73950000Y-89231056D01*
X73950000Y-89363605D01*
X73763605Y-89550000D01*
X70039950Y-89550000D01*
X69946224Y-89456274D01*
X69831574Y-89379668D01*
X69704182Y-89326901D01*
X69568944Y-89300000D01*
X69431056Y-89300000D01*
X69295818Y-89326901D01*
X69168426Y-89379668D01*
X69053776Y-89456274D01*
X68956274Y-89553776D01*
X68879668Y-89668426D01*
X68826901Y-89795818D01*
X68800000Y-89931056D01*
X57000000Y-89931056D01*
X57000000Y-89865685D01*
X61855676Y-85010010D01*
X70920344Y-85010010D01*
X70939990Y-85011945D01*
X70959636Y-85010010D01*
X70959637Y-85010010D01*
X71018404Y-85004222D01*
X71093804Y-84981350D01*
X71163293Y-84944207D01*
X71224201Y-84894221D01*
X71236727Y-84878958D01*
X71815685Y-84300000D01*
X71909095Y-84300000D01*
X72025014Y-84276942D01*
X72134207Y-84231713D01*
X72232478Y-84166050D01*
X72316050Y-84082478D01*
X72381713Y-83984207D01*
X72426942Y-83875014D01*
X72450000Y-83759095D01*
X72450000Y-83640905D01*
X72426942Y-83524986D01*
X72381713Y-83415793D01*
X72316050Y-83317522D01*
X72232478Y-83233950D01*
X72219083Y-83225000D01*
X72232478Y-83216050D01*
X72316050Y-83132478D01*
X72381713Y-83034207D01*
X72426942Y-82925014D01*
X72450000Y-82809095D01*
X72450000Y-82690905D01*
X72426942Y-82574986D01*
X72381713Y-82465793D01*
X72316050Y-82367522D01*
X72232478Y-82283950D01*
X72191775Y-82256753D01*
X72266050Y-82182478D01*
X72331713Y-82084207D01*
X72376942Y-81975014D01*
X72400000Y-81859095D01*
X72400000Y-81740905D01*
X72376942Y-81624986D01*
X72331713Y-81515793D01*
X72266050Y-81417522D01*
X72182478Y-81333950D01*
X72084207Y-81268287D01*
X71975014Y-81223058D01*
X71859095Y-81200000D01*
X71740905Y-81200000D01*
X71624986Y-81223058D01*
X71515793Y-81268287D01*
X71417522Y-81333950D01*
X71351472Y-81400000D01*
X61265685Y-81400000D01*
X59600000Y-79734315D01*
X59600000Y-79640905D01*
X59576942Y-79524986D01*
X59531713Y-79415793D01*
X59466050Y-79317522D01*
X59382478Y-79233950D01*
X59284207Y-79168287D01*
X59175014Y-79123058D01*
X59059095Y-79100000D01*
X58940905Y-79100000D01*
X58824986Y-79123058D01*
X58715793Y-79168287D01*
X58617522Y-79233950D01*
X58533950Y-79317522D01*
X58468287Y-79415793D01*
X58423058Y-79524986D01*
X58400000Y-79640905D01*
X58400000Y-79759095D01*
X58423058Y-79875014D01*
X58468287Y-79984207D01*
X58533950Y-80082478D01*
X58617522Y-80166050D01*
X58715793Y-80231713D01*
X58824986Y-80276942D01*
X58940905Y-80300000D01*
X59034315Y-80300000D01*
X60803263Y-82068948D01*
X60815789Y-82084211D01*
X60876697Y-82134197D01*
X60946186Y-82171340D01*
X61021586Y-82194212D01*
X61080353Y-82200000D01*
X61080363Y-82200000D01*
X61099999Y-82201934D01*
X61119635Y-82200000D01*
X71351472Y-82200000D01*
X71417522Y-82266050D01*
X71458225Y-82293247D01*
X71383950Y-82367522D01*
X71318287Y-82465793D01*
X71273058Y-82574986D01*
X71250000Y-82690905D01*
X71250000Y-82784315D01*
X70184315Y-83850000D01*
X60498528Y-83850000D01*
X60432478Y-83783950D01*
X60334207Y-83718287D01*
X60225014Y-83673058D01*
X60109095Y-83650000D01*
X59990905Y-83650000D01*
X59874986Y-83673058D01*
X59765793Y-83718287D01*
X59667522Y-83783950D01*
X59583950Y-83867522D01*
X59518287Y-83965793D01*
X59473058Y-84074986D01*
X59450000Y-84190905D01*
X59450000Y-84309095D01*
X59473058Y-84425014D01*
X59518287Y-84534207D01*
X59583950Y-84632478D01*
X59667522Y-84716050D01*
X59765793Y-84781713D01*
X59874986Y-84826942D01*
X59990905Y-84850000D01*
X60109095Y-84850000D01*
X60225014Y-84826942D01*
X60334207Y-84781713D01*
X60432478Y-84716050D01*
X60498528Y-84650000D01*
X61084314Y-84650000D01*
X56331052Y-89403263D01*
X56315789Y-89415789D01*
X56265803Y-89476698D01*
X56228660Y-89546187D01*
X56214092Y-89594212D01*
X56205788Y-89621587D01*
X56198065Y-89700000D01*
X56200000Y-89719647D01*
X56200001Y-90251471D01*
X56133950Y-90317522D01*
X56068287Y-90415793D01*
X56023058Y-90524986D01*
X56000000Y-90640905D01*
X50325000Y-90640905D01*
X50325000Y-66650000D01*
X62398065Y-66650000D01*
X62400001Y-66669657D01*
X62400000Y-79130354D01*
X62398065Y-79150000D01*
X62400000Y-79169646D01*
X62405788Y-79228413D01*
X62428660Y-79303813D01*
X62465803Y-79373302D01*
X62515789Y-79434211D01*
X62531052Y-79446737D01*
X63803263Y-80718948D01*
X63815789Y-80734211D01*
X63831050Y-80746735D01*
X63876697Y-80784197D01*
X63946186Y-80821340D01*
X64021586Y-80844212D01*
X64100000Y-80851935D01*
X64119647Y-80850000D01*
X76584315Y-80850000D01*
X78400000Y-82665685D01*
X78400000Y-82759095D01*
X78423058Y-82875014D01*
X78468287Y-82984207D01*
X78481866Y-83004530D01*
X78459095Y-83000000D01*
X78340905Y-83000000D01*
X78224986Y-83023058D01*
X78115793Y-83068287D01*
X78017522Y-83133950D01*
X77933950Y-83217522D01*
X77868287Y-83315793D01*
X77823058Y-83424986D01*
X77800000Y-83540905D01*
X77800000Y-83659095D01*
X77823058Y-83775014D01*
X77868287Y-83884207D01*
X77933950Y-83982478D01*
X77951472Y-84000000D01*
X76411396Y-84000000D01*
X76201451Y-83790055D01*
X76201451Y-82700000D01*
X76195659Y-82641190D01*
X76178504Y-82584640D01*
X76150647Y-82532523D01*
X76113158Y-82486842D01*
X76067477Y-82449353D01*
X76015360Y-82421496D01*
X75958810Y-82404341D01*
X75900000Y-82398549D01*
X74350000Y-82398549D01*
X74291190Y-82404341D01*
X74234640Y-82421496D01*
X74182523Y-82449353D01*
X74136842Y-82486842D01*
X74099353Y-82532523D01*
X74071496Y-82584640D01*
X74054341Y-82641190D01*
X74048549Y-82700000D01*
X74048549Y-84000000D01*
X74054341Y-84058810D01*
X74071496Y-84115360D01*
X74099353Y-84167477D01*
X74136842Y-84213158D01*
X74182523Y-84250647D01*
X74234640Y-84278504D01*
X74291190Y-84295659D01*
X74350000Y-84301451D01*
X75440055Y-84301451D01*
X75891176Y-84752572D01*
X75905263Y-84769737D01*
X75922428Y-84783824D01*
X75922432Y-84783828D01*
X75973783Y-84825971D01*
X76051959Y-84867757D01*
X76136785Y-84893489D01*
X76202895Y-84900000D01*
X76202905Y-84900000D01*
X76225000Y-84902176D01*
X76247094Y-84900000D01*
X81952906Y-84900000D01*
X81975000Y-84902176D01*
X81997094Y-84900000D01*
X81997105Y-84900000D01*
X82063215Y-84893489D01*
X82148041Y-84867757D01*
X82226216Y-84825971D01*
X82294737Y-84769737D01*
X82308829Y-84752566D01*
X82759944Y-84301451D01*
X83850000Y-84301451D01*
X83908810Y-84295659D01*
X83965360Y-84278504D01*
X84017477Y-84250647D01*
X84063158Y-84213158D01*
X84100647Y-84167477D01*
X84128504Y-84115360D01*
X84145659Y-84058810D01*
X84151451Y-84000000D01*
X84151451Y-82700000D01*
X84848549Y-82700000D01*
X84848549Y-84000000D01*
X84854341Y-84058810D01*
X84871496Y-84115360D01*
X84899353Y-84167477D01*
X84936842Y-84213158D01*
X84982523Y-84250647D01*
X85034640Y-84278504D01*
X85091190Y-84295659D01*
X85150000Y-84301451D01*
X86700000Y-84301451D01*
X86758810Y-84295659D01*
X86815360Y-84278504D01*
X86867477Y-84250647D01*
X86913158Y-84213158D01*
X86950647Y-84167477D01*
X86978504Y-84115360D01*
X86995659Y-84058810D01*
X87001451Y-84000000D01*
X87001451Y-83750000D01*
X92798549Y-83750000D01*
X92798549Y-84000000D01*
X92804341Y-84058810D01*
X92821496Y-84115360D01*
X92849353Y-84167477D01*
X92886842Y-84213158D01*
X92932523Y-84250647D01*
X92984640Y-84278504D01*
X93041190Y-84295659D01*
X93100000Y-84301451D01*
X93500001Y-84301451D01*
X93500000Y-88751472D01*
X93433950Y-88817522D01*
X93368287Y-88915793D01*
X93323058Y-89024986D01*
X93300000Y-89140905D01*
X93300000Y-89259095D01*
X93323058Y-89375014D01*
X93368287Y-89484207D01*
X93433950Y-89582478D01*
X93517522Y-89666050D01*
X93615793Y-89731713D01*
X93724986Y-89776942D01*
X93840905Y-89800000D01*
X93959095Y-89800000D01*
X94075014Y-89776942D01*
X94184207Y-89731713D01*
X94282478Y-89666050D01*
X94366050Y-89582478D01*
X94431713Y-89484207D01*
X94476942Y-89375014D01*
X94500000Y-89259095D01*
X94500000Y-89140905D01*
X94476942Y-89024986D01*
X94431713Y-88915793D01*
X94366050Y-88817522D01*
X94300000Y-88751472D01*
X94300000Y-84301451D01*
X94650000Y-84301451D01*
X94708810Y-84295659D01*
X94765360Y-84278504D01*
X94817477Y-84250647D01*
X94863158Y-84213158D01*
X94900647Y-84167477D01*
X94928504Y-84115360D01*
X94945659Y-84058810D01*
X94951451Y-84000000D01*
X94951451Y-82700000D01*
X94945659Y-82641190D01*
X94928504Y-82584640D01*
X94900647Y-82532523D01*
X94863158Y-82486842D01*
X94817477Y-82449353D01*
X94765360Y-82421496D01*
X94708810Y-82404341D01*
X94650000Y-82398549D01*
X93100000Y-82398549D01*
X93041190Y-82404341D01*
X92984640Y-82421496D01*
X92932523Y-82449353D01*
X92886842Y-82486842D01*
X92849353Y-82532523D01*
X92821496Y-82584640D01*
X92804341Y-82641190D01*
X92798549Y-82700000D01*
X92798549Y-82950000D01*
X87001451Y-82950000D01*
X87001451Y-82700000D01*
X86995659Y-82641190D01*
X86978504Y-82584640D01*
X86950647Y-82532523D01*
X86913158Y-82486842D01*
X86867477Y-82449353D01*
X86815360Y-82421496D01*
X86758810Y-82404341D01*
X86700000Y-82398549D01*
X85150000Y-82398549D01*
X85091190Y-82404341D01*
X85034640Y-82421496D01*
X84982523Y-82449353D01*
X84936842Y-82486842D01*
X84899353Y-82532523D01*
X84871496Y-82584640D01*
X84854341Y-82641190D01*
X84848549Y-82700000D01*
X84151451Y-82700000D01*
X84145659Y-82641190D01*
X84128504Y-82584640D01*
X84100647Y-82532523D01*
X84063158Y-82486842D01*
X84017477Y-82449353D01*
X83965360Y-82421496D01*
X83908810Y-82404341D01*
X83850000Y-82398549D01*
X83525000Y-82398549D01*
X83525000Y-80819083D01*
X83581713Y-80734207D01*
X83626942Y-80625014D01*
X83650000Y-80509095D01*
X83650000Y-80390905D01*
X83626942Y-80274986D01*
X83581713Y-80165793D01*
X83516050Y-80067522D01*
X83432478Y-79983950D01*
X83334207Y-79918287D01*
X83225014Y-79873058D01*
X83109095Y-79850000D01*
X82990905Y-79850000D01*
X82874986Y-79873058D01*
X82765793Y-79918287D01*
X82667522Y-79983950D01*
X82583950Y-80067522D01*
X82518287Y-80165793D01*
X82473058Y-80274986D01*
X82450000Y-80390905D01*
X82450000Y-80509095D01*
X82473058Y-80625014D01*
X82518287Y-80734207D01*
X82583950Y-80832478D01*
X82625001Y-80873529D01*
X82625000Y-82398549D01*
X82300000Y-82398549D01*
X82241190Y-82404341D01*
X82184640Y-82421496D01*
X82132523Y-82449353D01*
X82086842Y-82486842D01*
X82049353Y-82532523D01*
X82021496Y-82584640D01*
X82004341Y-82641190D01*
X81998549Y-82700000D01*
X81998549Y-83790056D01*
X81788605Y-84000000D01*
X79287664Y-84000000D01*
X79271340Y-83946186D01*
X79234197Y-83876697D01*
X79196735Y-83831049D01*
X79196733Y-83831047D01*
X79184211Y-83815789D01*
X79168953Y-83803267D01*
X79000000Y-83634314D01*
X79000000Y-83540905D01*
X78976942Y-83424986D01*
X78931713Y-83315793D01*
X78918134Y-83295470D01*
X78940905Y-83300000D01*
X79059095Y-83300000D01*
X79175014Y-83276942D01*
X79284207Y-83231713D01*
X79382478Y-83166050D01*
X79466050Y-83082478D01*
X79531713Y-82984207D01*
X79576942Y-82875014D01*
X79600000Y-82759095D01*
X79600000Y-82640905D01*
X79576942Y-82524986D01*
X79531713Y-82415793D01*
X79466050Y-82317522D01*
X79382478Y-82233950D01*
X79284207Y-82168287D01*
X79175014Y-82123058D01*
X79059095Y-82100000D01*
X78965685Y-82100000D01*
X77046735Y-80181050D01*
X77034211Y-80165789D01*
X76973303Y-80115803D01*
X76903814Y-80078660D01*
X76828414Y-80055788D01*
X76769647Y-80050000D01*
X76769646Y-80050000D01*
X76750000Y-80048065D01*
X76730354Y-80050000D01*
X64265685Y-80050000D01*
X63200000Y-78984315D01*
X63200000Y-76266451D01*
X67324454Y-76266451D01*
X67324454Y-76384641D01*
X67347512Y-76500560D01*
X67392741Y-76609753D01*
X67458404Y-76708024D01*
X67541976Y-76791596D01*
X67640247Y-76857259D01*
X67749440Y-76902488D01*
X67865359Y-76925546D01*
X67983549Y-76925546D01*
X68099468Y-76902488D01*
X68208661Y-76857259D01*
X68306932Y-76791596D01*
X68390504Y-76708024D01*
X68456167Y-76609753D01*
X68501396Y-76500560D01*
X68524454Y-76384641D01*
X68524454Y-76266451D01*
X68501396Y-76150532D01*
X68490781Y-76124904D01*
X68665685Y-75950000D01*
X68759095Y-75950000D01*
X68875014Y-75926942D01*
X68984207Y-75881713D01*
X69082478Y-75816050D01*
X69166050Y-75732478D01*
X69231713Y-75634207D01*
X69276942Y-75525014D01*
X69300000Y-75409095D01*
X69300000Y-75290905D01*
X69276942Y-75174986D01*
X69231713Y-75065793D01*
X69166050Y-74967522D01*
X69082478Y-74883950D01*
X68984207Y-74818287D01*
X68875014Y-74773058D01*
X68759095Y-74750000D01*
X68640905Y-74750000D01*
X68524986Y-74773058D01*
X68415793Y-74818287D01*
X68317522Y-74883950D01*
X68233950Y-74967522D01*
X68168287Y-75065793D01*
X68123058Y-75174986D01*
X68100000Y-75290905D01*
X68100000Y-75384315D01*
X67726003Y-75758312D01*
X67640247Y-75793833D01*
X67541976Y-75859496D01*
X67458404Y-75943068D01*
X67392741Y-76041339D01*
X67347512Y-76150532D01*
X67324454Y-76266451D01*
X63200000Y-76266451D01*
X63200000Y-72048528D01*
X63267522Y-72116050D01*
X63365793Y-72181713D01*
X63474986Y-72226942D01*
X63590905Y-72250000D01*
X63709095Y-72250000D01*
X63825014Y-72226942D01*
X63934207Y-72181713D01*
X64032478Y-72116050D01*
X64098528Y-72050000D01*
X71396799Y-72050000D01*
X71328747Y-72078188D01*
X71230476Y-72143851D01*
X71146904Y-72227423D01*
X71081241Y-72325694D01*
X71036012Y-72434887D01*
X71012954Y-72550806D01*
X71012954Y-72668996D01*
X71036012Y-72784915D01*
X71081241Y-72894108D01*
X71100001Y-72922184D01*
X71100000Y-78350000D01*
X65236834Y-78350000D01*
X65131574Y-78279668D01*
X65004182Y-78226901D01*
X64868944Y-78200000D01*
X64731056Y-78200000D01*
X64595818Y-78226901D01*
X64468426Y-78279668D01*
X64353776Y-78356274D01*
X64256274Y-78453776D01*
X64179668Y-78568426D01*
X64126901Y-78695818D01*
X64100000Y-78831056D01*
X64100000Y-78968944D01*
X64126901Y-79104182D01*
X64179668Y-79231574D01*
X64256274Y-79346224D01*
X64353776Y-79443726D01*
X64468426Y-79520332D01*
X64595818Y-79573099D01*
X64731056Y-79600000D01*
X64868944Y-79600000D01*
X65004182Y-79573099D01*
X65131574Y-79520332D01*
X65246224Y-79443726D01*
X65339950Y-79350000D01*
X74048549Y-79350000D01*
X74048549Y-79500000D01*
X74054341Y-79558810D01*
X74071496Y-79615360D01*
X74099353Y-79667477D01*
X74136842Y-79713158D01*
X74182523Y-79750647D01*
X74234640Y-79778504D01*
X74291190Y-79795659D01*
X74350000Y-79801451D01*
X75900000Y-79801451D01*
X75958810Y-79795659D01*
X76015360Y-79778504D01*
X76067477Y-79750647D01*
X76113158Y-79713158D01*
X76150647Y-79667477D01*
X76178504Y-79615360D01*
X76195659Y-79558810D01*
X76201451Y-79500000D01*
X76201451Y-79300000D01*
X79850001Y-79300000D01*
X79850000Y-82801472D01*
X79833950Y-82817522D01*
X79768287Y-82915793D01*
X79723058Y-83024986D01*
X79700000Y-83140905D01*
X79700000Y-83259095D01*
X79723058Y-83375014D01*
X79768287Y-83484207D01*
X79833950Y-83582478D01*
X79917522Y-83666050D01*
X80015793Y-83731713D01*
X80124986Y-83776942D01*
X80240905Y-83800000D01*
X80359095Y-83800000D01*
X80475014Y-83776942D01*
X80584207Y-83731713D01*
X80682478Y-83666050D01*
X80766050Y-83582478D01*
X80831713Y-83484207D01*
X80876942Y-83375014D01*
X80900000Y-83259095D01*
X80900000Y-83140905D01*
X80876942Y-83024986D01*
X80831713Y-82915793D01*
X80766050Y-82817522D01*
X80750000Y-82801472D01*
X80750000Y-79300000D01*
X81998549Y-79300000D01*
X81998549Y-79500000D01*
X82004341Y-79558810D01*
X82021496Y-79615360D01*
X82049353Y-79667477D01*
X82086842Y-79713158D01*
X82132523Y-79750647D01*
X82184640Y-79778504D01*
X82241190Y-79795659D01*
X82300000Y-79801451D01*
X83850000Y-79801451D01*
X83908810Y-79795659D01*
X83965360Y-79778504D01*
X84017477Y-79750647D01*
X84063158Y-79713158D01*
X84100647Y-79667477D01*
X84128504Y-79615360D01*
X84145659Y-79558810D01*
X84151451Y-79500000D01*
X84151451Y-79300000D01*
X84848549Y-79300000D01*
X84848549Y-79500000D01*
X84854341Y-79558810D01*
X84871496Y-79615360D01*
X84899353Y-79667477D01*
X84936842Y-79713158D01*
X84982523Y-79750647D01*
X85034640Y-79778504D01*
X85091190Y-79795659D01*
X85150000Y-79801451D01*
X86700000Y-79801451D01*
X86758810Y-79795659D01*
X86815360Y-79778504D01*
X86867477Y-79750647D01*
X86913158Y-79713158D01*
X86950647Y-79667477D01*
X86978504Y-79615360D01*
X86995659Y-79558810D01*
X87001451Y-79500000D01*
X87001451Y-79300000D01*
X92798549Y-79300000D01*
X92798549Y-79500000D01*
X92804341Y-79558810D01*
X92821496Y-79615360D01*
X92849353Y-79667477D01*
X92886842Y-79713158D01*
X92932523Y-79750647D01*
X92984640Y-79778504D01*
X93041190Y-79795659D01*
X93100000Y-79801451D01*
X93425001Y-79801451D01*
X93425001Y-80237896D01*
X93422824Y-80260000D01*
X93431512Y-80348215D01*
X93457243Y-80433040D01*
X93499029Y-80511216D01*
X93541172Y-80562567D01*
X93541177Y-80562572D01*
X93555264Y-80579737D01*
X93572429Y-80593824D01*
X95898549Y-82919945D01*
X95898549Y-84375000D01*
X95904341Y-84433810D01*
X95921496Y-84490360D01*
X95949353Y-84542477D01*
X95986842Y-84588158D01*
X96032523Y-84625647D01*
X96084640Y-84653504D01*
X96141190Y-84670659D01*
X96200000Y-84676451D01*
X96250000Y-84676451D01*
X96250001Y-95613603D01*
X94113605Y-97750000D01*
X94090905Y-97750000D01*
X93974986Y-97773058D01*
X93865793Y-97818287D01*
X93767522Y-97883950D01*
X93683950Y-97967522D01*
X93618287Y-98065793D01*
X93573058Y-98174986D01*
X93550000Y-98290905D01*
X93550000Y-98409095D01*
X93573058Y-98525014D01*
X93618287Y-98634207D01*
X93683950Y-98732478D01*
X93767522Y-98816050D01*
X93865793Y-98881713D01*
X93974986Y-98926942D01*
X94090905Y-98950000D01*
X94209095Y-98950000D01*
X94325014Y-98926942D01*
X94434207Y-98881713D01*
X94532478Y-98816050D01*
X94616050Y-98732478D01*
X94681713Y-98634207D01*
X94726942Y-98525014D01*
X94750000Y-98409095D01*
X94750000Y-98386395D01*
X97002572Y-96133824D01*
X97019737Y-96119737D01*
X97033824Y-96102572D01*
X97033828Y-96102568D01*
X97075971Y-96051217D01*
X97117757Y-95973041D01*
X97143489Y-95888215D01*
X97150000Y-95822105D01*
X97150000Y-95822094D01*
X97152176Y-95800000D01*
X97150000Y-95777906D01*
X97150000Y-95608349D01*
X103433093Y-95608349D01*
X103439755Y-95649863D01*
X103517187Y-95836313D01*
X103629505Y-96004074D01*
X103772394Y-96146699D01*
X103940362Y-96258708D01*
X104126954Y-96335796D01*
X104325000Y-96375000D01*
X104750000Y-96375000D01*
X104750000Y-95450000D01*
X103530573Y-95450000D01*
X103433093Y-95608349D01*
X97150000Y-95608349D01*
X97150000Y-94840905D01*
X99500000Y-94840905D01*
X99500000Y-94959095D01*
X99523058Y-95075014D01*
X99568287Y-95184207D01*
X99633950Y-95282478D01*
X99717522Y-95366050D01*
X99815793Y-95431713D01*
X99924986Y-95476942D01*
X100040905Y-95500000D01*
X100159095Y-95500000D01*
X100275014Y-95476942D01*
X100384207Y-95431713D01*
X100482478Y-95366050D01*
X100566050Y-95282478D01*
X100631713Y-95184207D01*
X100670050Y-95091651D01*
X103433093Y-95091651D01*
X103530573Y-95250000D01*
X104750000Y-95250000D01*
X104750000Y-94325000D01*
X104325000Y-94325000D01*
X104126954Y-94364204D01*
X103940362Y-94441292D01*
X103772394Y-94553301D01*
X103629505Y-94695926D01*
X103517187Y-94863687D01*
X103439755Y-95050137D01*
X103433093Y-95091651D01*
X100670050Y-95091651D01*
X100676942Y-95075014D01*
X100700000Y-94959095D01*
X100700000Y-94840905D01*
X100676942Y-94724986D01*
X100631713Y-94615793D01*
X100566050Y-94517522D01*
X100500000Y-94451472D01*
X100500000Y-90175695D01*
X101125695Y-89550000D01*
X101219105Y-89550000D01*
X101335024Y-89526942D01*
X101444217Y-89481713D01*
X101542488Y-89416050D01*
X101626060Y-89332478D01*
X101691723Y-89234207D01*
X101736952Y-89125014D01*
X101760010Y-89009095D01*
X101760010Y-88890905D01*
X101736952Y-88774986D01*
X101691723Y-88665793D01*
X101626060Y-88567522D01*
X101542488Y-88483950D01*
X101504174Y-88458349D01*
X103433093Y-88458349D01*
X103439755Y-88499863D01*
X103517187Y-88686313D01*
X103629505Y-88854074D01*
X103772394Y-88996699D01*
X103940362Y-89108708D01*
X104126954Y-89185796D01*
X104325000Y-89225000D01*
X104750000Y-89225000D01*
X104750000Y-88300000D01*
X103530573Y-88300000D01*
X103433093Y-88458349D01*
X101504174Y-88458349D01*
X101444217Y-88418287D01*
X101335024Y-88373058D01*
X101219105Y-88350000D01*
X101100915Y-88350000D01*
X100984996Y-88373058D01*
X100875803Y-88418287D01*
X100777532Y-88483950D01*
X100693960Y-88567522D01*
X100628297Y-88665793D01*
X100583068Y-88774986D01*
X100560010Y-88890905D01*
X100560010Y-88984315D01*
X99831048Y-89713277D01*
X99815790Y-89725799D01*
X99803268Y-89741057D01*
X99803265Y-89741060D01*
X99765803Y-89786708D01*
X99728661Y-89856196D01*
X99705788Y-89931597D01*
X99698065Y-90010010D01*
X99700001Y-90029666D01*
X99700000Y-94451472D01*
X99633950Y-94517522D01*
X99568287Y-94615793D01*
X99523058Y-94724986D01*
X99500000Y-94840905D01*
X97150000Y-94840905D01*
X97150000Y-87941651D01*
X103433093Y-87941651D01*
X103530573Y-88100000D01*
X104750000Y-88100000D01*
X104750000Y-87175000D01*
X104325000Y-87175000D01*
X104126954Y-87214204D01*
X103940362Y-87291292D01*
X103772394Y-87403301D01*
X103629505Y-87545926D01*
X103517187Y-87713687D01*
X103439755Y-87900137D01*
X103433093Y-87941651D01*
X97150000Y-87941651D01*
X97150000Y-85240905D01*
X97350000Y-85240905D01*
X97350000Y-85359095D01*
X97373058Y-85475014D01*
X97418287Y-85584207D01*
X97483950Y-85682478D01*
X97567522Y-85766050D01*
X97665793Y-85831713D01*
X97774986Y-85876942D01*
X97890905Y-85900000D01*
X98009095Y-85900000D01*
X98125014Y-85876942D01*
X98234207Y-85831713D01*
X98332478Y-85766050D01*
X98398528Y-85700000D01*
X103380354Y-85700000D01*
X103400000Y-85701935D01*
X103419646Y-85700000D01*
X103419647Y-85700000D01*
X103478414Y-85694212D01*
X103553814Y-85671340D01*
X103623303Y-85634197D01*
X103684211Y-85584211D01*
X103696738Y-85568947D01*
X103918944Y-85346740D01*
X103934211Y-85334211D01*
X103984197Y-85273303D01*
X104021340Y-85203814D01*
X104044212Y-85128414D01*
X104050000Y-85069647D01*
X104050000Y-85069637D01*
X104051934Y-85050001D01*
X104050000Y-85030365D01*
X104050000Y-84851996D01*
X104101983Y-84867765D01*
X104200000Y-84877419D01*
X104475000Y-84875000D01*
X104600000Y-84750000D01*
X104600000Y-83185000D01*
X104800000Y-83185000D01*
X104800000Y-84750000D01*
X104925000Y-84875000D01*
X105200000Y-84877419D01*
X105298017Y-84867765D01*
X105392267Y-84839175D01*
X105479129Y-84792746D01*
X105555264Y-84730264D01*
X105617746Y-84654129D01*
X105664175Y-84567267D01*
X105692765Y-84473017D01*
X105702419Y-84375000D01*
X105700000Y-83310000D01*
X105575000Y-83185000D01*
X104800000Y-83185000D01*
X104600000Y-83185000D01*
X104580000Y-83185000D01*
X104580000Y-82985000D01*
X104600000Y-82985000D01*
X104600000Y-81420000D01*
X104800000Y-81420000D01*
X104800000Y-82985000D01*
X105575000Y-82985000D01*
X105700000Y-82860000D01*
X105702419Y-81795000D01*
X105692765Y-81696983D01*
X105664175Y-81602733D01*
X105617746Y-81515871D01*
X105555264Y-81439736D01*
X105479129Y-81377254D01*
X105392267Y-81330825D01*
X105298017Y-81302235D01*
X105200000Y-81292581D01*
X104925000Y-81295000D01*
X104800000Y-81420000D01*
X104600000Y-81420000D01*
X104475000Y-81295000D01*
X104322031Y-81293654D01*
X104968954Y-80646732D01*
X104984211Y-80634211D01*
X105034197Y-80573303D01*
X105069930Y-80506451D01*
X105200000Y-80506451D01*
X105258810Y-80500659D01*
X105315360Y-80483504D01*
X105367477Y-80455647D01*
X105413158Y-80418158D01*
X105450647Y-80372477D01*
X105478504Y-80320360D01*
X105495659Y-80263810D01*
X105501451Y-80205000D01*
X105501451Y-77625000D01*
X105495659Y-77566190D01*
X105478504Y-77509640D01*
X105450647Y-77457523D01*
X105413158Y-77411842D01*
X105367477Y-77374353D01*
X105315360Y-77346496D01*
X105258810Y-77329341D01*
X105200000Y-77323549D01*
X104200000Y-77323549D01*
X104141190Y-77329341D01*
X104084640Y-77346496D01*
X104032523Y-77374353D01*
X103986842Y-77411842D01*
X103949353Y-77457523D01*
X103921496Y-77509640D01*
X103904341Y-77566190D01*
X103898549Y-77625000D01*
X103898549Y-80205000D01*
X103904341Y-80263810D01*
X103921496Y-80320360D01*
X103949353Y-80372477D01*
X103986842Y-80418158D01*
X104030405Y-80453909D01*
X103381048Y-81103267D01*
X103365790Y-81115789D01*
X103353268Y-81131047D01*
X103353265Y-81131050D01*
X103333048Y-81155684D01*
X103326942Y-81124986D01*
X103281713Y-81015793D01*
X103216050Y-80917522D01*
X103132478Y-80833950D01*
X103034207Y-80768287D01*
X102925014Y-80723058D01*
X102809095Y-80700000D01*
X102690905Y-80700000D01*
X102574986Y-80723058D01*
X102465793Y-80768287D01*
X102367522Y-80833950D01*
X102283950Y-80917522D01*
X102218287Y-81015793D01*
X102173058Y-81124986D01*
X102150000Y-81240905D01*
X102150000Y-81359095D01*
X102173058Y-81475014D01*
X102181490Y-81495372D01*
X102141190Y-81499341D01*
X102084640Y-81516496D01*
X102032523Y-81544353D01*
X101986842Y-81581842D01*
X101949353Y-81627523D01*
X101921496Y-81679640D01*
X101904341Y-81736190D01*
X101898549Y-81795000D01*
X101898549Y-84375000D01*
X101904341Y-84433810D01*
X101921496Y-84490360D01*
X101949353Y-84542477D01*
X101986842Y-84588158D01*
X102032523Y-84625647D01*
X102084640Y-84653504D01*
X102141190Y-84670659D01*
X102200000Y-84676451D01*
X103200000Y-84676451D01*
X103250000Y-84671527D01*
X103250000Y-84884315D01*
X103234315Y-84900000D01*
X98398528Y-84900000D01*
X98374413Y-84875885D01*
X98475000Y-84875000D01*
X98600000Y-84750000D01*
X98600000Y-83185000D01*
X98800000Y-83185000D01*
X98800000Y-84750000D01*
X98925000Y-84875000D01*
X99200000Y-84877419D01*
X99298017Y-84867765D01*
X99392267Y-84839175D01*
X99479129Y-84792746D01*
X99555264Y-84730264D01*
X99617746Y-84654129D01*
X99664175Y-84567267D01*
X99692765Y-84473017D01*
X99700000Y-84399560D01*
X99707235Y-84473017D01*
X99735825Y-84567267D01*
X99782254Y-84654129D01*
X99844736Y-84730264D01*
X99920871Y-84792746D01*
X100007733Y-84839175D01*
X100101983Y-84867765D01*
X100200000Y-84877419D01*
X100475000Y-84875000D01*
X100600000Y-84750000D01*
X100600000Y-83185000D01*
X100800000Y-83185000D01*
X100800000Y-84750000D01*
X100925000Y-84875000D01*
X101200000Y-84877419D01*
X101298017Y-84867765D01*
X101392267Y-84839175D01*
X101479129Y-84792746D01*
X101555264Y-84730264D01*
X101617746Y-84654129D01*
X101664175Y-84567267D01*
X101692765Y-84473017D01*
X101702419Y-84375000D01*
X101700000Y-83310000D01*
X101575000Y-83185000D01*
X100800000Y-83185000D01*
X100600000Y-83185000D01*
X99825000Y-83185000D01*
X99700000Y-83310000D01*
X99575000Y-83185000D01*
X98800000Y-83185000D01*
X98600000Y-83185000D01*
X97825000Y-83185000D01*
X97700000Y-83310000D01*
X97697581Y-84375000D01*
X97707235Y-84473017D01*
X97735825Y-84567267D01*
X97782254Y-84654129D01*
X97829864Y-84712142D01*
X97774986Y-84723058D01*
X97665793Y-84768287D01*
X97567522Y-84833950D01*
X97483950Y-84917522D01*
X97418287Y-85015793D01*
X97373058Y-85124986D01*
X97350000Y-85240905D01*
X97150000Y-85240905D01*
X97150000Y-84676451D01*
X97200000Y-84676451D01*
X97258810Y-84670659D01*
X97315360Y-84653504D01*
X97367477Y-84625647D01*
X97413158Y-84588158D01*
X97450647Y-84542477D01*
X97478504Y-84490360D01*
X97495659Y-84433810D01*
X97501451Y-84375000D01*
X97501451Y-81795000D01*
X97697581Y-81795000D01*
X97700000Y-82860000D01*
X97825000Y-82985000D01*
X98600000Y-82985000D01*
X98600000Y-81420000D01*
X98800000Y-81420000D01*
X98800000Y-82985000D01*
X99575000Y-82985000D01*
X99700000Y-82860000D01*
X99825000Y-82985000D01*
X100600000Y-82985000D01*
X100600000Y-81420000D01*
X100800000Y-81420000D01*
X100800000Y-82985000D01*
X101575000Y-82985000D01*
X101700000Y-82860000D01*
X101702419Y-81795000D01*
X101692765Y-81696983D01*
X101664175Y-81602733D01*
X101617746Y-81515871D01*
X101555264Y-81439736D01*
X101479129Y-81377254D01*
X101392267Y-81330825D01*
X101298017Y-81302235D01*
X101200000Y-81292581D01*
X100925000Y-81295000D01*
X100800000Y-81420000D01*
X100600000Y-81420000D01*
X100475000Y-81295000D01*
X100200000Y-81292581D01*
X100101983Y-81302235D01*
X100007733Y-81330825D01*
X99920871Y-81377254D01*
X99844736Y-81439736D01*
X99782254Y-81515871D01*
X99735825Y-81602733D01*
X99707235Y-81696983D01*
X99700000Y-81770440D01*
X99692765Y-81696983D01*
X99664175Y-81602733D01*
X99617746Y-81515871D01*
X99555264Y-81439736D01*
X99479129Y-81377254D01*
X99392267Y-81330825D01*
X99298017Y-81302235D01*
X99200000Y-81292581D01*
X98925000Y-81295000D01*
X98800000Y-81420000D01*
X98600000Y-81420000D01*
X98475000Y-81295000D01*
X98200000Y-81292581D01*
X98101983Y-81302235D01*
X98007733Y-81330825D01*
X97920871Y-81377254D01*
X97844736Y-81439736D01*
X97782254Y-81515871D01*
X97735825Y-81602733D01*
X97707235Y-81696983D01*
X97697581Y-81795000D01*
X97501451Y-81795000D01*
X97495659Y-81736190D01*
X97478504Y-81679640D01*
X97450647Y-81627523D01*
X97413158Y-81581842D01*
X97367477Y-81544353D01*
X97315360Y-81516496D01*
X97258810Y-81499341D01*
X97200000Y-81493549D01*
X96200000Y-81493549D01*
X96141190Y-81499341D01*
X96084640Y-81516496D01*
X96032523Y-81544353D01*
X95986842Y-81581842D01*
X95949353Y-81627523D01*
X95924819Y-81673423D01*
X94325000Y-80073605D01*
X94325000Y-79801451D01*
X94650000Y-79801451D01*
X94708810Y-79795659D01*
X94765360Y-79778504D01*
X94817477Y-79750647D01*
X94863158Y-79713158D01*
X94900647Y-79667477D01*
X94928504Y-79615360D01*
X94945659Y-79558810D01*
X94951451Y-79500000D01*
X94951451Y-78200000D01*
X94945659Y-78141190D01*
X94928504Y-78084640D01*
X94900647Y-78032523D01*
X94863158Y-77986842D01*
X94817477Y-77949353D01*
X94765360Y-77921496D01*
X94708810Y-77904341D01*
X94650000Y-77898549D01*
X93100000Y-77898549D01*
X93041190Y-77904341D01*
X92984640Y-77921496D01*
X92932523Y-77949353D01*
X92886842Y-77986842D01*
X92849353Y-78032523D01*
X92821496Y-78084640D01*
X92804341Y-78141190D01*
X92798549Y-78200000D01*
X92798549Y-78400000D01*
X87001451Y-78400000D01*
X87001451Y-78200000D01*
X86995659Y-78141190D01*
X86978504Y-78084640D01*
X86950647Y-78032523D01*
X86913158Y-77986842D01*
X86867477Y-77949353D01*
X86815360Y-77921496D01*
X86758810Y-77904341D01*
X86700000Y-77898549D01*
X85150000Y-77898549D01*
X85091190Y-77904341D01*
X85034640Y-77921496D01*
X84982523Y-77949353D01*
X84936842Y-77986842D01*
X84899353Y-78032523D01*
X84871496Y-78084640D01*
X84854341Y-78141190D01*
X84848549Y-78200000D01*
X84848549Y-78400000D01*
X84151451Y-78400000D01*
X84151451Y-78200000D01*
X84145659Y-78141190D01*
X84128504Y-78084640D01*
X84100647Y-78032523D01*
X84063158Y-77986842D01*
X84017477Y-77949353D01*
X83965360Y-77921496D01*
X83908810Y-77904341D01*
X83850000Y-77898549D01*
X82300000Y-77898549D01*
X82241190Y-77904341D01*
X82184640Y-77921496D01*
X82132523Y-77949353D01*
X82086842Y-77986842D01*
X82049353Y-78032523D01*
X82021496Y-78084640D01*
X82004341Y-78141190D01*
X81998549Y-78200000D01*
X81998549Y-78400000D01*
X76201451Y-78400000D01*
X76201451Y-78200000D01*
X76195659Y-78141190D01*
X76178504Y-78084640D01*
X76150647Y-78032523D01*
X76113158Y-77986842D01*
X76067477Y-77949353D01*
X76015360Y-77921496D01*
X75958810Y-77904341D01*
X75900000Y-77898549D01*
X74350000Y-77898549D01*
X74291190Y-77904341D01*
X74234640Y-77921496D01*
X74182523Y-77949353D01*
X74136842Y-77986842D01*
X74099353Y-78032523D01*
X74071496Y-78084640D01*
X74054341Y-78141190D01*
X74048549Y-78200000D01*
X74048549Y-78350000D01*
X72000000Y-78350000D01*
X72000000Y-76900915D01*
X93400000Y-76900915D01*
X93400000Y-77019105D01*
X93423058Y-77135024D01*
X93468287Y-77244217D01*
X93533950Y-77342488D01*
X93617522Y-77426060D01*
X93715793Y-77491723D01*
X93824986Y-77536952D01*
X93940905Y-77560010D01*
X94059095Y-77560010D01*
X94175014Y-77536952D01*
X94284207Y-77491723D01*
X94382478Y-77426060D01*
X94466050Y-77342488D01*
X94531713Y-77244217D01*
X94576942Y-77135024D01*
X94600000Y-77019105D01*
X94600000Y-76900915D01*
X94576942Y-76784996D01*
X94531713Y-76675803D01*
X94466050Y-76577532D01*
X94400000Y-76511482D01*
X94400000Y-76086881D01*
X96063714Y-74423167D01*
X96068287Y-74434207D01*
X96133950Y-74532478D01*
X96200001Y-74598529D01*
X96200000Y-77323549D01*
X96141190Y-77329341D01*
X96084640Y-77346496D01*
X96032523Y-77374353D01*
X95986842Y-77411842D01*
X95949353Y-77457523D01*
X95921496Y-77509640D01*
X95904341Y-77566190D01*
X95898549Y-77625000D01*
X95898549Y-80205000D01*
X95904341Y-80263810D01*
X95921496Y-80320360D01*
X95949353Y-80372477D01*
X95986842Y-80418158D01*
X96032523Y-80455647D01*
X96084640Y-80483504D01*
X96141190Y-80500659D01*
X96200000Y-80506451D01*
X97200000Y-80506451D01*
X97258810Y-80500659D01*
X97315360Y-80483504D01*
X97367477Y-80455647D01*
X97413158Y-80418158D01*
X97450647Y-80372477D01*
X97478504Y-80320360D01*
X97495659Y-80263810D01*
X97501451Y-80205000D01*
X97501451Y-77625000D01*
X97495659Y-77566190D01*
X97478504Y-77509640D01*
X97450647Y-77457523D01*
X97413158Y-77411842D01*
X97367477Y-77374353D01*
X97315360Y-77346496D01*
X97258810Y-77329341D01*
X97200000Y-77323549D01*
X97000000Y-77323549D01*
X97000000Y-76898528D01*
X97067522Y-76966050D01*
X97165793Y-77031713D01*
X97274986Y-77076942D01*
X97390905Y-77100000D01*
X97509095Y-77100000D01*
X97625014Y-77076942D01*
X97734207Y-77031713D01*
X97832478Y-76966050D01*
X97898528Y-76900000D01*
X98118937Y-76900000D01*
X98068287Y-76975803D01*
X98023058Y-77084996D01*
X98000000Y-77200915D01*
X98000000Y-77319105D01*
X98014012Y-77389545D01*
X97986842Y-77411842D01*
X97949353Y-77457523D01*
X97921496Y-77509640D01*
X97904341Y-77566190D01*
X97898549Y-77625000D01*
X97898549Y-80205000D01*
X97904341Y-80263810D01*
X97921496Y-80320360D01*
X97949353Y-80372477D01*
X97986842Y-80418158D01*
X98032523Y-80455647D01*
X98084640Y-80483504D01*
X98141190Y-80500659D01*
X98200000Y-80506451D01*
X99200000Y-80506451D01*
X99258810Y-80500659D01*
X99315360Y-80483504D01*
X99367477Y-80455647D01*
X99413158Y-80418158D01*
X99450647Y-80372477D01*
X99478504Y-80320360D01*
X99495659Y-80263810D01*
X99501451Y-80205000D01*
X99501451Y-77625000D01*
X99495659Y-77566190D01*
X99478504Y-77509640D01*
X99450647Y-77457523D01*
X99413158Y-77411842D01*
X99367477Y-77374353D01*
X99315360Y-77346496D01*
X99258810Y-77329341D01*
X99200000Y-77323549D01*
X99199116Y-77323549D01*
X99200000Y-77319105D01*
X99200000Y-77200915D01*
X99176942Y-77084996D01*
X99131713Y-76975803D01*
X99081063Y-76900000D01*
X99609315Y-76900000D01*
X100065853Y-77356538D01*
X100032523Y-77374353D01*
X99986842Y-77411842D01*
X99949353Y-77457523D01*
X99921496Y-77509640D01*
X99904341Y-77566190D01*
X99898549Y-77625000D01*
X99898549Y-80205000D01*
X99904341Y-80263810D01*
X99921496Y-80320360D01*
X99949353Y-80372477D01*
X99986842Y-80418158D01*
X100032523Y-80455647D01*
X100084640Y-80483504D01*
X100141190Y-80500659D01*
X100200000Y-80506451D01*
X101200000Y-80506451D01*
X101258810Y-80500659D01*
X101315360Y-80483504D01*
X101367477Y-80455647D01*
X101413158Y-80418158D01*
X101450647Y-80372477D01*
X101478504Y-80320360D01*
X101495659Y-80263810D01*
X101501451Y-80205000D01*
X101501451Y-77625000D01*
X101898549Y-77625000D01*
X101898549Y-80205000D01*
X101904341Y-80263810D01*
X101921496Y-80320360D01*
X101949353Y-80372477D01*
X101986842Y-80418158D01*
X102032523Y-80455647D01*
X102084640Y-80483504D01*
X102141190Y-80500659D01*
X102200000Y-80506451D01*
X103200000Y-80506451D01*
X103258810Y-80500659D01*
X103315360Y-80483504D01*
X103367477Y-80455647D01*
X103413158Y-80418158D01*
X103450647Y-80372477D01*
X103478504Y-80320360D01*
X103495659Y-80263810D01*
X103501451Y-80205000D01*
X103501451Y-77625000D01*
X103495659Y-77566190D01*
X103478504Y-77509640D01*
X103450647Y-77457523D01*
X103413158Y-77411842D01*
X103367477Y-77374353D01*
X103315360Y-77346496D01*
X103258810Y-77329341D01*
X103200000Y-77323549D01*
X103100000Y-77323549D01*
X103100000Y-77248528D01*
X103116050Y-77232478D01*
X103181713Y-77134207D01*
X103226942Y-77025014D01*
X103250000Y-76909095D01*
X103250000Y-76790905D01*
X103226942Y-76674986D01*
X103181713Y-76565793D01*
X103116050Y-76467522D01*
X103032478Y-76383950D01*
X102934207Y-76318287D01*
X102825014Y-76273058D01*
X102709095Y-76250000D01*
X102590905Y-76250000D01*
X102474986Y-76273058D01*
X102365793Y-76318287D01*
X102267522Y-76383950D01*
X102183950Y-76467522D01*
X102118287Y-76565793D01*
X102073058Y-76674986D01*
X102050000Y-76790905D01*
X102050000Y-76909095D01*
X102073058Y-77025014D01*
X102118287Y-77134207D01*
X102183950Y-77232478D01*
X102267522Y-77316050D01*
X102278745Y-77323549D01*
X102200000Y-77323549D01*
X102141190Y-77329341D01*
X102084640Y-77346496D01*
X102032523Y-77374353D01*
X101986842Y-77411842D01*
X101949353Y-77457523D01*
X101921496Y-77509640D01*
X101904341Y-77566190D01*
X101898549Y-77625000D01*
X101501451Y-77625000D01*
X101495659Y-77566190D01*
X101478504Y-77509640D01*
X101450647Y-77457523D01*
X101413158Y-77411842D01*
X101367477Y-77374353D01*
X101315360Y-77346496D01*
X101258810Y-77329341D01*
X101200000Y-77323549D01*
X101087224Y-77323549D01*
X101071340Y-77271186D01*
X101034197Y-77201697D01*
X101030125Y-77196735D01*
X100984211Y-77140789D01*
X100968948Y-77128263D01*
X100071737Y-76231052D01*
X100059211Y-76215789D01*
X99998303Y-76165803D01*
X99928814Y-76128660D01*
X99853414Y-76105788D01*
X99794647Y-76100000D01*
X99794646Y-76100000D01*
X99775000Y-76098065D01*
X99755354Y-76100000D01*
X97898528Y-76100000D01*
X97832478Y-76033950D01*
X97734207Y-75968287D01*
X97625014Y-75923058D01*
X97509095Y-75900000D01*
X97390905Y-75900000D01*
X97274986Y-75923058D01*
X97165793Y-75968287D01*
X97067522Y-76033950D01*
X97000000Y-76101472D01*
X97000000Y-74598528D01*
X97066050Y-74532478D01*
X97131713Y-74434207D01*
X97176942Y-74325014D01*
X97200000Y-74209095D01*
X97200000Y-74090905D01*
X97179928Y-73989998D01*
X102774313Y-73989998D01*
X104378263Y-75593948D01*
X104378525Y-75594267D01*
X104383545Y-75645236D01*
X104413147Y-75742822D01*
X104461219Y-75832758D01*
X104525912Y-75911588D01*
X104604742Y-75976281D01*
X104694678Y-76024353D01*
X104792264Y-76053955D01*
X104893750Y-76063951D01*
X105406250Y-76063951D01*
X105507736Y-76053955D01*
X105605322Y-76024353D01*
X105695258Y-75976281D01*
X105774088Y-75911588D01*
X105838781Y-75832758D01*
X105886853Y-75742822D01*
X105916455Y-75645236D01*
X105926451Y-75543750D01*
X105926451Y-75106250D01*
X105916455Y-75004764D01*
X105886853Y-74907178D01*
X105838781Y-74817242D01*
X105774088Y-74738412D01*
X105695258Y-74673719D01*
X105605322Y-74625647D01*
X105507736Y-74596045D01*
X105406250Y-74586049D01*
X104893750Y-74586049D01*
X104792264Y-74596045D01*
X104694678Y-74625647D01*
X104604742Y-74673719D01*
X104596318Y-74680633D01*
X103236735Y-73321050D01*
X103224209Y-73305787D01*
X103163301Y-73255801D01*
X103093812Y-73218658D01*
X103018412Y-73195786D01*
X102959645Y-73189998D01*
X102959644Y-73189998D01*
X102939998Y-73188063D01*
X102920352Y-73189998D01*
X96350845Y-73189998D01*
X96331198Y-73188063D01*
X96252784Y-73195786D01*
X96177384Y-73218658D01*
X96107895Y-73255801D01*
X96062247Y-73293263D01*
X96062245Y-73293265D01*
X96046987Y-73305787D01*
X96034465Y-73321045D01*
X93731052Y-75624459D01*
X93715789Y-75636985D01*
X93665803Y-75697894D01*
X93628660Y-75767383D01*
X93620637Y-75793833D01*
X93605788Y-75842783D01*
X93598065Y-75921196D01*
X93600000Y-75940843D01*
X93600001Y-76511481D01*
X93533950Y-76577532D01*
X93468287Y-76675803D01*
X93423058Y-76784996D01*
X93400000Y-76900915D01*
X72000000Y-76900915D01*
X72000000Y-73071383D01*
X72079004Y-72992379D01*
X72144667Y-72894108D01*
X72189896Y-72784915D01*
X72212954Y-72668996D01*
X72212954Y-72550806D01*
X72189896Y-72434887D01*
X72144667Y-72325694D01*
X72079004Y-72227423D01*
X71995432Y-72143851D01*
X71897161Y-72078188D01*
X71829109Y-72050000D01*
X72134315Y-72050000D01*
X72700000Y-72615685D01*
X72700000Y-72709095D01*
X72723058Y-72825014D01*
X72768287Y-72934207D01*
X72833950Y-73032478D01*
X72917522Y-73116050D01*
X73015793Y-73181713D01*
X73124986Y-73226942D01*
X73240905Y-73250000D01*
X73359095Y-73250000D01*
X73475014Y-73226942D01*
X73584207Y-73181713D01*
X73682478Y-73116050D01*
X73766050Y-73032478D01*
X73831713Y-72934207D01*
X73876942Y-72825014D01*
X73900000Y-72709095D01*
X73900000Y-72590905D01*
X73876942Y-72474986D01*
X73831713Y-72365793D01*
X73766050Y-72267522D01*
X73682478Y-72183950D01*
X73584207Y-72118287D01*
X73475014Y-72073058D01*
X73359095Y-72050000D01*
X73265685Y-72050000D01*
X72596737Y-71381052D01*
X72584211Y-71365789D01*
X72523303Y-71315803D01*
X72453814Y-71278660D01*
X72378414Y-71255788D01*
X72319647Y-71250000D01*
X72319646Y-71250000D01*
X72300000Y-71248065D01*
X72280354Y-71250000D01*
X64098528Y-71250000D01*
X64032478Y-71183950D01*
X63934207Y-71118287D01*
X63825014Y-71073058D01*
X63709095Y-71050000D01*
X63590905Y-71050000D01*
X63474986Y-71073058D01*
X63365793Y-71118287D01*
X63267522Y-71183950D01*
X63200000Y-71251472D01*
X63200000Y-70800000D01*
X104047581Y-70800000D01*
X104057235Y-70898017D01*
X104085825Y-70992267D01*
X104132254Y-71079129D01*
X104194736Y-71155264D01*
X104270871Y-71217746D01*
X104357733Y-71264175D01*
X104451983Y-71292765D01*
X104550000Y-71302419D01*
X105025000Y-71300000D01*
X105150000Y-71175000D01*
X105150000Y-70412500D01*
X104175000Y-70412500D01*
X104050000Y-70537500D01*
X104047581Y-70800000D01*
X63200000Y-70800000D01*
X63200000Y-69825000D01*
X104047581Y-69825000D01*
X104050000Y-70087500D01*
X104175000Y-70212500D01*
X105150000Y-70212500D01*
X105150000Y-69450000D01*
X105025000Y-69325000D01*
X104550000Y-69322581D01*
X104451983Y-69332235D01*
X104357733Y-69360825D01*
X104270871Y-69407254D01*
X104194736Y-69469736D01*
X104132254Y-69545871D01*
X104085825Y-69632733D01*
X104057235Y-69726983D01*
X104047581Y-69825000D01*
X63200000Y-69825000D01*
X63200000Y-66815685D01*
X63824780Y-66190905D01*
X73050000Y-66190905D01*
X73050000Y-66309095D01*
X73073058Y-66425014D01*
X73118287Y-66534207D01*
X73183950Y-66632478D01*
X73250001Y-66698529D01*
X73250000Y-68330353D01*
X73248065Y-68350000D01*
X73250000Y-68369646D01*
X73255788Y-68428413D01*
X73278660Y-68503813D01*
X73315803Y-68573302D01*
X73365789Y-68634211D01*
X73381052Y-68646737D01*
X73550000Y-68815685D01*
X73550000Y-68909095D01*
X73573058Y-69025014D01*
X73618287Y-69134207D01*
X73683950Y-69232478D01*
X73767522Y-69316050D01*
X73865793Y-69381713D01*
X73974986Y-69426942D01*
X74090905Y-69450000D01*
X74209095Y-69450000D01*
X74325014Y-69426942D01*
X74434207Y-69381713D01*
X74532478Y-69316050D01*
X74616050Y-69232478D01*
X74681713Y-69134207D01*
X74726942Y-69025014D01*
X74750000Y-68909095D01*
X74750000Y-68790905D01*
X74726942Y-68674986D01*
X74681713Y-68565793D01*
X74616050Y-68467522D01*
X74532478Y-68383950D01*
X74434207Y-68318287D01*
X74325014Y-68273058D01*
X74209095Y-68250000D01*
X74115685Y-68250000D01*
X74050000Y-68184315D01*
X74050000Y-66698528D01*
X74116050Y-66632478D01*
X74181713Y-66534207D01*
X74226942Y-66425014D01*
X74250000Y-66309095D01*
X74250000Y-66190905D01*
X74226942Y-66074986D01*
X74181713Y-65965793D01*
X74116050Y-65867522D01*
X74032478Y-65783950D01*
X73934207Y-65718287D01*
X73825014Y-65673058D01*
X73709095Y-65650000D01*
X73590905Y-65650000D01*
X73474986Y-65673058D01*
X73365793Y-65718287D01*
X73267522Y-65783950D01*
X73183950Y-65867522D01*
X73118287Y-65965793D01*
X73073058Y-66074986D01*
X73050000Y-66190905D01*
X63824780Y-66190905D01*
X64265685Y-65750000D01*
X66751472Y-65750000D01*
X66817522Y-65816050D01*
X66915793Y-65881713D01*
X67024986Y-65926942D01*
X67140905Y-65950000D01*
X67259095Y-65950000D01*
X67375014Y-65926942D01*
X67484207Y-65881713D01*
X67582478Y-65816050D01*
X67666050Y-65732478D01*
X67731713Y-65634207D01*
X67776942Y-65525014D01*
X67800000Y-65409095D01*
X67800000Y-65290905D01*
X67776942Y-65174986D01*
X67731713Y-65065793D01*
X67666050Y-64967522D01*
X67582478Y-64883950D01*
X67484207Y-64818287D01*
X67375014Y-64773058D01*
X67259095Y-64750000D01*
X67140905Y-64750000D01*
X67024986Y-64773058D01*
X66915793Y-64818287D01*
X66817522Y-64883950D01*
X66751472Y-64950000D01*
X64119647Y-64950000D01*
X64100000Y-64948065D01*
X64080353Y-64950000D01*
X64021586Y-64955788D01*
X63946186Y-64978660D01*
X63876697Y-65015803D01*
X63815789Y-65065789D01*
X63803263Y-65081052D01*
X62531048Y-66353267D01*
X62515790Y-66365789D01*
X62503268Y-66381047D01*
X62503265Y-66381050D01*
X62465803Y-66426698D01*
X62428661Y-66496186D01*
X62405788Y-66571587D01*
X62398065Y-66650000D01*
X50325000Y-66650000D01*
X50325000Y-61237489D01*
X87750000Y-61237489D01*
X87750000Y-61562511D01*
X87813408Y-61881287D01*
X87937789Y-62181568D01*
X88118361Y-62451814D01*
X88348186Y-62681639D01*
X88618432Y-62862211D01*
X88918713Y-62986592D01*
X89237489Y-63050000D01*
X89562511Y-63050000D01*
X89881287Y-62986592D01*
X90181568Y-62862211D01*
X90451814Y-62681639D01*
X90681639Y-62451814D01*
X90862211Y-62181568D01*
X90986592Y-61881287D01*
X91050000Y-61562511D01*
X91050000Y-61237489D01*
X90986592Y-60918713D01*
X90862211Y-60618432D01*
X90681639Y-60348186D01*
X90451814Y-60118361D01*
X90181568Y-59937789D01*
X89881287Y-59813408D01*
X89562511Y-59750000D01*
X89237489Y-59750000D01*
X88918713Y-59813408D01*
X88618432Y-59937789D01*
X88348186Y-60118361D01*
X88118361Y-60348186D01*
X87937789Y-60618432D01*
X87813408Y-60918713D01*
X87750000Y-61237489D01*
X50325000Y-61237489D01*
X50325000Y-54757160D01*
X59884261Y-54757160D01*
X60105499Y-55089496D01*
X60539935Y-55321401D01*
X61011265Y-55464095D01*
X61501377Y-55512096D01*
X61991437Y-55463558D01*
X62462611Y-55320346D01*
X62894501Y-55089496D01*
X63115739Y-54757160D01*
X61500000Y-53141421D01*
X59884261Y-54757160D01*
X50325000Y-54757160D01*
X50325000Y-53001377D01*
X58987904Y-53001377D01*
X59036442Y-53491437D01*
X59179654Y-53962611D01*
X59410504Y-54394501D01*
X59742840Y-54615739D01*
X61358579Y-53000000D01*
X61641421Y-53000000D01*
X63257160Y-54615739D01*
X63589496Y-54394501D01*
X63821401Y-53960065D01*
X63964095Y-53488735D01*
X64012096Y-52998623D01*
X63963558Y-52508563D01*
X63820346Y-52037389D01*
X63589496Y-51605499D01*
X63257160Y-51384261D01*
X61641421Y-53000000D01*
X61358579Y-53000000D01*
X59742840Y-51384261D01*
X59410504Y-51605499D01*
X59178599Y-52039935D01*
X59035905Y-52511265D01*
X58987904Y-53001377D01*
X50325000Y-53001377D01*
X50325000Y-51242840D01*
X59884261Y-51242840D01*
X61500000Y-52858579D01*
X63115739Y-51242840D01*
X62894501Y-50910504D01*
X62460065Y-50678599D01*
X61988735Y-50535905D01*
X61498623Y-50487904D01*
X61008563Y-50536442D01*
X60537389Y-50679654D01*
X60105499Y-50910504D01*
X59884261Y-51242840D01*
X50325000Y-51242840D01*
X50325000Y-50325000D01*
X105284103Y-50325000D01*
X105430805Y-50339384D01*
%TA.AperFunction,Conductor*%
D23*
G36*
X105430805Y-50339384D02*
G01*
X105556629Y-50377373D01*
X105672675Y-50439076D01*
X105774532Y-50522148D01*
X105858310Y-50623418D01*
X105920819Y-50739027D01*
X105959686Y-50864586D01*
X105975000Y-51010285D01*
X105975000Y-69325043D01*
X105950000Y-69322581D01*
X105475000Y-69325000D01*
X105350000Y-69450000D01*
X105350000Y-70212500D01*
X105370000Y-70212500D01*
X105370000Y-70412500D01*
X105350000Y-70412500D01*
X105350000Y-71175000D01*
X105475000Y-71300000D01*
X105950000Y-71302419D01*
X105975000Y-71299957D01*
X105975000Y-71472180D01*
X105914889Y-71440050D01*
X105812613Y-71409025D01*
X105706250Y-71398549D01*
X104793750Y-71398549D01*
X104687387Y-71409025D01*
X104585111Y-71440050D01*
X104490853Y-71490432D01*
X104408235Y-71558235D01*
X104340432Y-71640853D01*
X104290050Y-71735111D01*
X104259025Y-71837387D01*
X104248549Y-71943750D01*
X104248549Y-72431250D01*
X104259025Y-72537613D01*
X104290050Y-72639889D01*
X104340432Y-72734147D01*
X104408235Y-72816765D01*
X104490853Y-72884568D01*
X104585111Y-72934950D01*
X104687387Y-72965975D01*
X104750001Y-72972142D01*
X104750000Y-73033865D01*
X104694678Y-73050647D01*
X104604742Y-73098719D01*
X104525912Y-73163412D01*
X104461219Y-73242242D01*
X104413147Y-73332178D01*
X104383545Y-73429764D01*
X104373549Y-73531250D01*
X104373549Y-73968750D01*
X104383545Y-74070236D01*
X104413147Y-74167822D01*
X104461219Y-74257758D01*
X104525912Y-74336588D01*
X104604742Y-74401281D01*
X104694678Y-74449353D01*
X104792264Y-74478955D01*
X104893750Y-74488951D01*
X105406250Y-74488951D01*
X105507736Y-74478955D01*
X105605322Y-74449353D01*
X105695258Y-74401281D01*
X105774088Y-74336588D01*
X105838781Y-74257758D01*
X105886853Y-74167822D01*
X105916455Y-74070236D01*
X105926451Y-73968750D01*
X105926451Y-73531250D01*
X105916455Y-73429764D01*
X105886853Y-73332178D01*
X105838781Y-73242242D01*
X105774088Y-73163412D01*
X105695258Y-73098719D01*
X105605322Y-73050647D01*
X105550000Y-73033865D01*
X105550000Y-72976451D01*
X105706250Y-72976451D01*
X105812613Y-72965975D01*
X105914889Y-72934950D01*
X105975000Y-72902820D01*
X105975001Y-87450608D01*
X105927606Y-87403301D01*
X105759638Y-87291292D01*
X105573046Y-87214204D01*
X105375000Y-87175000D01*
X104950000Y-87175000D01*
X104950000Y-88100000D01*
X104970000Y-88100000D01*
X104970000Y-88300000D01*
X104950000Y-88300000D01*
X104950000Y-89225000D01*
X105375000Y-89225000D01*
X105573046Y-89185796D01*
X105759638Y-89108708D01*
X105927606Y-88996699D01*
X105975001Y-88949392D01*
X105975001Y-94600608D01*
X105927606Y-94553301D01*
X105759638Y-94441292D01*
X105573046Y-94364204D01*
X105375000Y-94325000D01*
X104950000Y-94325000D01*
X104950000Y-95250000D01*
X104970000Y-95250000D01*
X104970000Y-95450000D01*
X104950000Y-95450000D01*
X104950000Y-96375000D01*
X105375000Y-96375000D01*
X105573046Y-96335796D01*
X105759638Y-96258708D01*
X105927606Y-96146699D01*
X105975001Y-96099392D01*
X105975001Y-112675000D01*
X65294473Y-112675000D01*
X65300647Y-112667477D01*
X65328504Y-112615360D01*
X65345659Y-112558810D01*
X65351451Y-112500000D01*
X65351451Y-111500000D01*
X65345659Y-111441190D01*
X65328504Y-111384640D01*
X65300647Y-111332523D01*
X65263158Y-111286842D01*
X65217477Y-111249353D01*
X65165360Y-111221496D01*
X65108810Y-111204341D01*
X65050000Y-111198549D01*
X64050000Y-111198549D01*
X63991190Y-111204341D01*
X63934640Y-111221496D01*
X63882523Y-111249353D01*
X63836842Y-111286842D01*
X63799353Y-111332523D01*
X63771496Y-111384640D01*
X63754341Y-111441190D01*
X63748549Y-111500000D01*
X63748549Y-112500000D01*
X63754341Y-112558810D01*
X63771496Y-112615360D01*
X63799353Y-112667477D01*
X63805527Y-112675000D01*
X52406382Y-112675000D01*
X52444729Y-112659116D01*
X52633082Y-112533263D01*
X52793263Y-112373082D01*
X52919116Y-112184729D01*
X53005806Y-111975443D01*
X53050000Y-111753265D01*
X53050000Y-111526735D01*
X53005806Y-111304557D01*
X52919116Y-111095271D01*
X52793263Y-110906918D01*
X52633082Y-110746737D01*
X52444729Y-110620884D01*
X52235443Y-110534194D01*
X52013265Y-110490000D01*
X51786735Y-110490000D01*
X51564557Y-110534194D01*
X51355271Y-110620884D01*
X51166918Y-110746737D01*
X51006737Y-110906918D01*
X50880884Y-111095271D01*
X50794194Y-111304557D01*
X50750000Y-111526735D01*
X50750000Y-111753265D01*
X50794194Y-111975443D01*
X50880884Y-112184729D01*
X51006737Y-112373082D01*
X51166918Y-112533263D01*
X51355271Y-112659116D01*
X51393618Y-112675000D01*
X50325000Y-112675000D01*
X50325000Y-107548989D01*
X50350000Y-107551451D01*
X51350000Y-107551451D01*
X51408810Y-107545659D01*
X51465360Y-107528504D01*
X51517477Y-107500647D01*
X51563158Y-107463158D01*
X51600647Y-107417477D01*
X51628504Y-107365360D01*
X51645659Y-107308810D01*
X51651451Y-107250000D01*
X51651451Y-106250000D01*
X51645659Y-106191190D01*
X51628504Y-106134640D01*
X51600647Y-106082523D01*
X51563158Y-106036842D01*
X51517477Y-105999353D01*
X51465360Y-105971496D01*
X51408810Y-105954341D01*
X51350000Y-105948549D01*
X50350000Y-105948549D01*
X50325000Y-105951011D01*
X50325000Y-104748989D01*
X50350000Y-104751451D01*
X51350000Y-104751451D01*
X51408810Y-104745659D01*
X51465360Y-104728504D01*
X51517477Y-104700647D01*
X51563158Y-104663158D01*
X51600647Y-104617477D01*
X51628504Y-104565360D01*
X51645659Y-104508810D01*
X51651451Y-104450000D01*
X51651451Y-104350000D01*
X52484315Y-104350000D01*
X53763605Y-105629290D01*
X51563819Y-107829076D01*
X51544737Y-107844736D01*
X51482255Y-107920871D01*
X51467461Y-107948549D01*
X51050000Y-107948549D01*
X50991190Y-107954341D01*
X50934640Y-107971496D01*
X50882523Y-107999353D01*
X50836842Y-108036842D01*
X50799353Y-108082523D01*
X50771496Y-108134640D01*
X50754341Y-108191190D01*
X50748549Y-108250000D01*
X50748549Y-109950000D01*
X50754341Y-110008810D01*
X50771496Y-110065360D01*
X50799353Y-110117477D01*
X50836842Y-110163158D01*
X50882523Y-110200647D01*
X50934640Y-110228504D01*
X50991190Y-110245659D01*
X51050000Y-110251451D01*
X52750000Y-110251451D01*
X52808810Y-110245659D01*
X52865360Y-110228504D01*
X52917477Y-110200647D01*
X52963158Y-110163158D01*
X53000647Y-110117477D01*
X53028504Y-110065360D01*
X53045659Y-110008810D01*
X53051451Y-109950000D01*
X53051451Y-109773470D01*
X59200000Y-109773470D01*
X59200000Y-110226530D01*
X59288387Y-110670885D01*
X59461766Y-111089459D01*
X59713473Y-111466165D01*
X60033835Y-111786527D01*
X60410541Y-112038234D01*
X60829115Y-112211613D01*
X61273470Y-112300000D01*
X61726530Y-112300000D01*
X62170885Y-112211613D01*
X62589459Y-112038234D01*
X62966165Y-111786527D01*
X63286527Y-111466165D01*
X63538234Y-111089459D01*
X63711613Y-110670885D01*
X63800000Y-110226530D01*
X63800000Y-109773470D01*
X63711613Y-109329115D01*
X63538234Y-108910541D01*
X63286527Y-108533835D01*
X62966165Y-108213473D01*
X62589459Y-107961766D01*
X62170885Y-107788387D01*
X61726530Y-107700000D01*
X61273470Y-107700000D01*
X60829115Y-107788387D01*
X60410541Y-107961766D01*
X60033835Y-108213473D01*
X59713473Y-108533835D01*
X59461766Y-108910541D01*
X59288387Y-109329115D01*
X59200000Y-109773470D01*
X53051451Y-109773470D01*
X53051451Y-108250000D01*
X53045659Y-108191190D01*
X53028504Y-108134640D01*
X53000647Y-108082523D01*
X52963158Y-108036842D01*
X52917477Y-107999353D01*
X52865360Y-107971496D01*
X52842534Y-107964571D01*
X54607106Y-106200000D01*
X67213166Y-106200000D01*
X67318426Y-106270332D01*
X67445818Y-106323099D01*
X67581056Y-106350000D01*
X67718944Y-106350000D01*
X67854182Y-106323099D01*
X67981574Y-106270332D01*
X68096224Y-106193726D01*
X68193726Y-106096224D01*
X68270332Y-105981574D01*
X68323099Y-105854182D01*
X68350000Y-105718944D01*
X68350000Y-105581056D01*
X68323099Y-105445818D01*
X68270332Y-105318426D01*
X68193726Y-105203776D01*
X68096224Y-105106274D01*
X67981574Y-105029668D01*
X67854182Y-104976901D01*
X67718944Y-104950000D01*
X67581056Y-104950000D01*
X67445818Y-104976901D01*
X67318426Y-105029668D01*
X67203776Y-105106274D01*
X67110050Y-105200000D01*
X54465685Y-105200000D01*
X52946737Y-103681052D01*
X52934211Y-103665789D01*
X52873303Y-103615803D01*
X52803814Y-103578660D01*
X52728414Y-103555788D01*
X52669647Y-103550000D01*
X52669646Y-103550000D01*
X52650000Y-103548065D01*
X52630354Y-103550000D01*
X51651451Y-103550000D01*
X51651451Y-103515960D01*
X72675000Y-103515960D01*
X72675111Y-103517091D01*
X72675154Y-103523209D01*
X72676697Y-103537890D01*
X72676697Y-103552658D01*
X72677171Y-103557171D01*
X72709804Y-103848095D01*
X72715924Y-103876884D01*
X72721650Y-103905803D01*
X72722992Y-103910138D01*
X72811510Y-104189183D01*
X72823108Y-104216244D01*
X72834339Y-104243491D01*
X72836497Y-104247483D01*
X72977530Y-104504021D01*
X72994169Y-104528322D01*
X73010473Y-104552860D01*
X73013366Y-104556357D01*
X73201541Y-104780615D01*
X73222544Y-104801182D01*
X73243342Y-104822126D01*
X73246859Y-104824994D01*
X73475009Y-105008431D01*
X73499643Y-105024551D01*
X73524076Y-105041031D01*
X73528083Y-105043162D01*
X73787518Y-105178792D01*
X73814839Y-105189830D01*
X73841985Y-105201241D01*
X73846329Y-105202553D01*
X74127167Y-105285208D01*
X74156102Y-105290727D01*
X74184957Y-105296650D01*
X74189473Y-105297093D01*
X74481017Y-105323626D01*
X74510477Y-105323420D01*
X74539927Y-105323625D01*
X74544443Y-105323183D01*
X74835588Y-105292583D01*
X74864449Y-105286658D01*
X74893378Y-105281140D01*
X74897722Y-105279828D01*
X75177378Y-105193261D01*
X75204513Y-105181854D01*
X75231844Y-105170811D01*
X75235851Y-105168680D01*
X75493367Y-105029442D01*
X75517787Y-105012970D01*
X75542435Y-104996841D01*
X75545952Y-104993973D01*
X75771519Y-104807368D01*
X75792283Y-104786458D01*
X75813320Y-104765857D01*
X75816213Y-104762361D01*
X76001239Y-104535497D01*
X76017562Y-104510929D01*
X76034181Y-104486657D01*
X76036340Y-104482665D01*
X76173777Y-104224184D01*
X76184993Y-104196970D01*
X76196605Y-104169877D01*
X76197948Y-104165542D01*
X76282562Y-103885287D01*
X76288284Y-103856389D01*
X76294407Y-103827579D01*
X76294882Y-103823066D01*
X76323449Y-103531714D01*
X76323449Y-103531708D01*
X76325000Y-103515961D01*
X76325000Y-100920907D01*
X83074300Y-100920907D01*
X83074300Y-101039097D01*
X83097358Y-101155016D01*
X83142587Y-101264209D01*
X83208250Y-101362480D01*
X83291822Y-101446052D01*
X83390093Y-101511715D01*
X83499286Y-101556944D01*
X83615205Y-101580002D01*
X83733395Y-101580002D01*
X83849314Y-101556944D01*
X83958507Y-101511715D01*
X84056778Y-101446052D01*
X84140350Y-101362480D01*
X84206013Y-101264209D01*
X84251242Y-101155016D01*
X84274300Y-101039097D01*
X84274300Y-100945687D01*
X84655042Y-100564945D01*
X84712207Y-100650497D01*
X84778257Y-100716547D01*
X84778257Y-100861856D01*
X84729051Y-100861856D01*
X84613132Y-100884914D01*
X84503939Y-100930143D01*
X84405668Y-100995806D01*
X84322096Y-101079378D01*
X84256433Y-101177649D01*
X84211204Y-101286842D01*
X84188146Y-101402761D01*
X84188146Y-101520951D01*
X84211204Y-101636870D01*
X84256433Y-101746063D01*
X84322096Y-101844334D01*
X84405668Y-101927906D01*
X84503939Y-101993569D01*
X84613132Y-102038798D01*
X84729051Y-102061856D01*
X84847241Y-102061856D01*
X84963160Y-102038798D01*
X85072353Y-101993569D01*
X85170624Y-101927906D01*
X85254196Y-101844334D01*
X85319859Y-101746063D01*
X85365088Y-101636870D01*
X85388146Y-101520951D01*
X85388146Y-101427542D01*
X85447211Y-101368477D01*
X85462468Y-101355956D01*
X85512454Y-101295048D01*
X85549597Y-101225559D01*
X85572469Y-101150159D01*
X85578257Y-101091392D01*
X85578257Y-101091382D01*
X85580191Y-101071746D01*
X85578257Y-101052110D01*
X85578257Y-100716547D01*
X85644307Y-100650497D01*
X85709970Y-100552226D01*
X85755199Y-100443033D01*
X85778257Y-100327114D01*
X85778257Y-100208924D01*
X85755199Y-100093005D01*
X85709970Y-99983812D01*
X85644307Y-99885541D01*
X85560735Y-99801969D01*
X85462464Y-99736306D01*
X85421316Y-99719262D01*
X85427259Y-99699669D01*
X85433047Y-99640902D01*
X85433047Y-99640892D01*
X85434981Y-99621256D01*
X85433047Y-99601620D01*
X85433047Y-99308538D01*
X85499097Y-99242488D01*
X85564760Y-99144217D01*
X85609989Y-99035024D01*
X85633047Y-98919105D01*
X85633047Y-98800915D01*
X85609989Y-98684996D01*
X85564760Y-98575803D01*
X85499097Y-98477532D01*
X85415525Y-98393960D01*
X85317254Y-98328297D01*
X85208061Y-98283068D01*
X85092142Y-98260010D01*
X84973952Y-98260010D01*
X84858033Y-98283068D01*
X84748840Y-98328297D01*
X84650569Y-98393960D01*
X84566997Y-98477532D01*
X84501334Y-98575803D01*
X84456105Y-98684996D01*
X84433047Y-98800915D01*
X84433047Y-98919105D01*
X84456105Y-99035024D01*
X84501334Y-99144217D01*
X84566997Y-99242488D01*
X84633048Y-99308539D01*
X84633048Y-99455569D01*
X83708615Y-100380002D01*
X83615205Y-100380002D01*
X83499286Y-100403060D01*
X83390093Y-100448289D01*
X83291822Y-100513952D01*
X83208250Y-100597524D01*
X83142587Y-100695795D01*
X83097358Y-100804988D01*
X83074300Y-100920907D01*
X76325000Y-100920907D01*
X76325000Y-98646024D01*
X80394881Y-98646024D01*
X80394881Y-98764214D01*
X80417939Y-98880133D01*
X80463168Y-98989326D01*
X80528831Y-99087597D01*
X80612403Y-99171169D01*
X80710674Y-99236832D01*
X80819867Y-99282061D01*
X80935786Y-99305119D01*
X81053976Y-99305119D01*
X81169895Y-99282061D01*
X81279088Y-99236832D01*
X81377359Y-99171169D01*
X81460931Y-99087597D01*
X81526594Y-98989326D01*
X81571823Y-98880133D01*
X81594881Y-98764214D01*
X81594881Y-98670804D01*
X82465686Y-97800000D01*
X85101472Y-97800000D01*
X85167522Y-97866050D01*
X85265793Y-97931713D01*
X85374986Y-97976942D01*
X85490905Y-98000000D01*
X85609095Y-98000000D01*
X85725014Y-97976942D01*
X85834207Y-97931713D01*
X85932478Y-97866050D01*
X86016050Y-97782478D01*
X86081713Y-97684207D01*
X86126942Y-97575014D01*
X86150000Y-97459095D01*
X86150000Y-97340905D01*
X86126942Y-97224986D01*
X86081713Y-97115793D01*
X86016050Y-97017522D01*
X85932478Y-96933950D01*
X85834207Y-96868287D01*
X85725014Y-96823058D01*
X85609095Y-96800000D01*
X85490905Y-96800000D01*
X85374986Y-96823058D01*
X85265793Y-96868287D01*
X85167522Y-96933950D01*
X85101472Y-97000000D01*
X82319646Y-97000000D01*
X82300000Y-96998065D01*
X82280353Y-97000000D01*
X82221586Y-97005788D01*
X82146186Y-97028660D01*
X82076697Y-97065803D01*
X82031049Y-97103265D01*
X82031047Y-97103267D01*
X82015789Y-97115789D01*
X82003267Y-97131047D01*
X81029196Y-98105119D01*
X80935786Y-98105119D01*
X80819867Y-98128177D01*
X80710674Y-98173406D01*
X80612403Y-98239069D01*
X80528831Y-98322641D01*
X80463168Y-98420912D01*
X80417939Y-98530105D01*
X80394881Y-98646024D01*
X76325000Y-98646024D01*
X76325000Y-95484039D01*
X76324889Y-95482908D01*
X76324846Y-95476791D01*
X76323303Y-95462110D01*
X76323303Y-95447342D01*
X76322828Y-95442829D01*
X76290196Y-95151904D01*
X76284074Y-95123107D01*
X76278350Y-95094197D01*
X76277008Y-95089862D01*
X76188490Y-94810817D01*
X76176903Y-94783785D01*
X76165661Y-94756509D01*
X76163503Y-94752517D01*
X76022470Y-94495979D01*
X76005831Y-94471678D01*
X75989527Y-94447140D01*
X75986634Y-94443643D01*
X75798459Y-94219385D01*
X75777403Y-94198765D01*
X75756657Y-94177874D01*
X75753141Y-94175006D01*
X75524991Y-93991569D01*
X75500339Y-93975437D01*
X75475923Y-93958969D01*
X75471917Y-93956838D01*
X75212482Y-93821208D01*
X75185173Y-93810175D01*
X75158015Y-93798759D01*
X75153671Y-93797447D01*
X74872833Y-93714792D01*
X74843900Y-93709273D01*
X74815044Y-93703350D01*
X74810529Y-93702907D01*
X74810527Y-93702907D01*
X74518983Y-93676375D01*
X74489562Y-93676580D01*
X74460074Y-93676375D01*
X74455557Y-93676817D01*
X74164412Y-93707417D01*
X74135558Y-93713340D01*
X74106622Y-93718860D01*
X74102278Y-93720172D01*
X73822622Y-93806740D01*
X73795507Y-93818138D01*
X73768156Y-93829189D01*
X73764149Y-93831320D01*
X73506633Y-93970559D01*
X73482240Y-93987012D01*
X73457565Y-94003159D01*
X73454048Y-94006027D01*
X73228481Y-94192632D01*
X73207733Y-94213526D01*
X73186680Y-94234143D01*
X73183787Y-94237639D01*
X72998761Y-94464503D01*
X72982454Y-94489048D01*
X72965819Y-94513343D01*
X72963660Y-94517335D01*
X72826223Y-94775816D01*
X72815007Y-94803030D01*
X72803395Y-94830123D01*
X72802052Y-94834458D01*
X72717438Y-95114712D01*
X72711714Y-95143625D01*
X72705593Y-95172421D01*
X72705118Y-95176934D01*
X72676551Y-95468286D01*
X72676551Y-95468302D01*
X72675001Y-95484039D01*
X72675000Y-103515960D01*
X51651451Y-103515960D01*
X51651451Y-103450000D01*
X51645659Y-103391190D01*
X51628504Y-103334640D01*
X51600647Y-103282523D01*
X51563158Y-103236842D01*
X51517477Y-103199353D01*
X51465360Y-103171496D01*
X51408810Y-103154341D01*
X51350000Y-103148549D01*
X50350000Y-103148549D01*
X50325000Y-103151011D01*
X50325000Y-102149957D01*
X50350000Y-102152419D01*
X50625000Y-102150000D01*
X50750000Y-102025000D01*
X50750000Y-101250000D01*
X50950000Y-101250000D01*
X50950000Y-102025000D01*
X51075000Y-102150000D01*
X51350000Y-102152419D01*
X51448017Y-102142765D01*
X51542267Y-102114175D01*
X51629129Y-102067746D01*
X51705264Y-102005264D01*
X51767746Y-101929129D01*
X51814175Y-101842267D01*
X51842765Y-101748017D01*
X51852419Y-101650000D01*
X51850000Y-101375000D01*
X51725000Y-101250000D01*
X50950000Y-101250000D01*
X50750000Y-101250000D01*
X50730000Y-101250000D01*
X50730000Y-101050000D01*
X50750000Y-101050000D01*
X50750000Y-100275000D01*
X50950000Y-100275000D01*
X50950000Y-101050000D01*
X51725000Y-101050000D01*
X51850000Y-100925000D01*
X51852419Y-100650000D01*
X51842765Y-100551983D01*
X51814175Y-100457733D01*
X51767746Y-100370871D01*
X51705264Y-100294736D01*
X51629129Y-100232254D01*
X51542267Y-100185825D01*
X51448017Y-100157235D01*
X51350000Y-100147581D01*
X51075000Y-100150000D01*
X50950000Y-100275000D01*
X50750000Y-100275000D01*
X50625000Y-100150000D01*
X50350000Y-100147581D01*
X50325000Y-100150043D01*
X50325000Y-99240905D01*
X58800000Y-99240905D01*
X58800000Y-99359095D01*
X58823058Y-99475014D01*
X58868287Y-99584207D01*
X58933950Y-99682478D01*
X59017522Y-99766050D01*
X59115793Y-99831713D01*
X59224986Y-99876942D01*
X59340905Y-99900000D01*
X59459095Y-99900000D01*
X59575014Y-99876942D01*
X59684207Y-99831713D01*
X59782478Y-99766050D01*
X59848528Y-99700000D01*
X63444364Y-99700000D01*
X63463968Y-99719604D01*
X63562239Y-99785267D01*
X63671432Y-99830496D01*
X63787351Y-99853554D01*
X63905541Y-99853554D01*
X64021460Y-99830496D01*
X64130653Y-99785267D01*
X64228924Y-99719604D01*
X64312496Y-99636032D01*
X64378159Y-99537761D01*
X64423388Y-99428568D01*
X64446446Y-99312649D01*
X64446446Y-99194459D01*
X64423388Y-99078540D01*
X64378159Y-98969347D01*
X64312496Y-98871076D01*
X64228924Y-98787504D01*
X64130653Y-98721841D01*
X64021460Y-98676612D01*
X63905541Y-98653554D01*
X63787351Y-98653554D01*
X63671432Y-98676612D01*
X63562239Y-98721841D01*
X63463968Y-98787504D01*
X63380396Y-98871076D01*
X63361069Y-98900000D01*
X59848528Y-98900000D01*
X59782478Y-98833950D01*
X59684207Y-98768287D01*
X59575014Y-98723058D01*
X59459095Y-98700000D01*
X59340905Y-98700000D01*
X59224986Y-98723058D01*
X59115793Y-98768287D01*
X59017522Y-98833950D01*
X58933950Y-98917522D01*
X58868287Y-99015793D01*
X58823058Y-99124986D01*
X58800000Y-99240905D01*
X50325000Y-99240905D01*
X50325000Y-90640905D01*
X56000000Y-90640905D01*
X56000000Y-90759095D01*
X56023058Y-90875014D01*
X56068287Y-90984207D01*
X56133950Y-91082478D01*
X56217522Y-91166050D01*
X56315793Y-91231713D01*
X56424986Y-91276942D01*
X56540905Y-91300000D01*
X56634315Y-91300000D01*
X58903267Y-93568953D01*
X58915789Y-93584211D01*
X58931047Y-93596733D01*
X58931049Y-93596735D01*
X58962982Y-93622941D01*
X58976697Y-93634197D01*
X59046186Y-93671340D01*
X59121586Y-93694212D01*
X59180353Y-93700000D01*
X59180363Y-93700000D01*
X59199999Y-93701934D01*
X59219635Y-93700000D01*
X63951472Y-93700000D01*
X64017522Y-93766050D01*
X64115793Y-93831713D01*
X64224986Y-93876942D01*
X64340905Y-93900000D01*
X64459095Y-93900000D01*
X64575014Y-93876942D01*
X64684207Y-93831713D01*
X64782478Y-93766050D01*
X64866050Y-93682478D01*
X64931713Y-93584207D01*
X64976942Y-93475014D01*
X65000000Y-93359095D01*
X65000000Y-93240905D01*
X64976942Y-93124986D01*
X64931713Y-93015793D01*
X64866050Y-92917522D01*
X64782478Y-92833950D01*
X64684207Y-92768287D01*
X64575014Y-92723058D01*
X64459095Y-92700000D01*
X64340905Y-92700000D01*
X64224986Y-92723058D01*
X64115793Y-92768287D01*
X64017522Y-92833950D01*
X63951472Y-92900000D01*
X59365686Y-92900000D01*
X57200000Y-90734315D01*
X57200000Y-90640905D01*
X57176942Y-90524986D01*
X57131713Y-90415793D01*
X57066050Y-90317522D01*
X57000000Y-90251472D01*
X57000000Y-89931056D01*
X68800000Y-89931056D01*
X68800000Y-90068944D01*
X68826901Y-90204182D01*
X68879668Y-90331574D01*
X68956274Y-90446224D01*
X69053776Y-90543726D01*
X69168426Y-90620332D01*
X69295818Y-90673099D01*
X69431056Y-90700000D01*
X69568944Y-90700000D01*
X69704182Y-90673099D01*
X69831574Y-90620332D01*
X69946224Y-90543726D01*
X70039950Y-90450000D01*
X73927906Y-90450000D01*
X73950000Y-90452176D01*
X73972094Y-90450000D01*
X73972105Y-90450000D01*
X74038215Y-90443489D01*
X74123041Y-90417757D01*
X74201216Y-90375971D01*
X74269737Y-90319737D01*
X74283828Y-90302567D01*
X74586395Y-90000000D01*
X74718944Y-90000000D01*
X74854182Y-89973099D01*
X74981574Y-89920332D01*
X75096224Y-89843726D01*
X75193726Y-89746224D01*
X75270332Y-89631574D01*
X75323099Y-89504182D01*
X75350000Y-89368944D01*
X75350000Y-89231056D01*
X75323099Y-89095818D01*
X75270332Y-88968426D01*
X75193726Y-88853776D01*
X75096224Y-88756274D01*
X74981574Y-88679668D01*
X74854182Y-88626901D01*
X74718944Y-88600000D01*
X74581056Y-88600000D01*
X74445818Y-88626901D01*
X74318426Y-88679668D01*
X74203776Y-88756274D01*
X74106274Y-88853776D01*
X74029668Y-88968426D01*
X73976901Y-89095818D01*
X73950000Y-89231056D01*
X73950000Y-89363605D01*
X73763605Y-89550000D01*
X70039950Y-89550000D01*
X69946224Y-89456274D01*
X69831574Y-89379668D01*
X69704182Y-89326901D01*
X69568944Y-89300000D01*
X69431056Y-89300000D01*
X69295818Y-89326901D01*
X69168426Y-89379668D01*
X69053776Y-89456274D01*
X68956274Y-89553776D01*
X68879668Y-89668426D01*
X68826901Y-89795818D01*
X68800000Y-89931056D01*
X57000000Y-89931056D01*
X57000000Y-89865685D01*
X61855676Y-85010010D01*
X70920344Y-85010010D01*
X70939990Y-85011945D01*
X70959636Y-85010010D01*
X70959637Y-85010010D01*
X71018404Y-85004222D01*
X71093804Y-84981350D01*
X71163293Y-84944207D01*
X71224201Y-84894221D01*
X71236727Y-84878958D01*
X71815685Y-84300000D01*
X71909095Y-84300000D01*
X72025014Y-84276942D01*
X72134207Y-84231713D01*
X72232478Y-84166050D01*
X72316050Y-84082478D01*
X72381713Y-83984207D01*
X72426942Y-83875014D01*
X72450000Y-83759095D01*
X72450000Y-83640905D01*
X72426942Y-83524986D01*
X72381713Y-83415793D01*
X72316050Y-83317522D01*
X72232478Y-83233950D01*
X72219083Y-83225000D01*
X72232478Y-83216050D01*
X72316050Y-83132478D01*
X72381713Y-83034207D01*
X72426942Y-82925014D01*
X72450000Y-82809095D01*
X72450000Y-82690905D01*
X72426942Y-82574986D01*
X72381713Y-82465793D01*
X72316050Y-82367522D01*
X72232478Y-82283950D01*
X72191775Y-82256753D01*
X72266050Y-82182478D01*
X72331713Y-82084207D01*
X72376942Y-81975014D01*
X72400000Y-81859095D01*
X72400000Y-81740905D01*
X72376942Y-81624986D01*
X72331713Y-81515793D01*
X72266050Y-81417522D01*
X72182478Y-81333950D01*
X72084207Y-81268287D01*
X71975014Y-81223058D01*
X71859095Y-81200000D01*
X71740905Y-81200000D01*
X71624986Y-81223058D01*
X71515793Y-81268287D01*
X71417522Y-81333950D01*
X71351472Y-81400000D01*
X61265685Y-81400000D01*
X59600000Y-79734315D01*
X59600000Y-79640905D01*
X59576942Y-79524986D01*
X59531713Y-79415793D01*
X59466050Y-79317522D01*
X59382478Y-79233950D01*
X59284207Y-79168287D01*
X59175014Y-79123058D01*
X59059095Y-79100000D01*
X58940905Y-79100000D01*
X58824986Y-79123058D01*
X58715793Y-79168287D01*
X58617522Y-79233950D01*
X58533950Y-79317522D01*
X58468287Y-79415793D01*
X58423058Y-79524986D01*
X58400000Y-79640905D01*
X58400000Y-79759095D01*
X58423058Y-79875014D01*
X58468287Y-79984207D01*
X58533950Y-80082478D01*
X58617522Y-80166050D01*
X58715793Y-80231713D01*
X58824986Y-80276942D01*
X58940905Y-80300000D01*
X59034315Y-80300000D01*
X60803263Y-82068948D01*
X60815789Y-82084211D01*
X60876697Y-82134197D01*
X60946186Y-82171340D01*
X61021586Y-82194212D01*
X61080353Y-82200000D01*
X61080363Y-82200000D01*
X61099999Y-82201934D01*
X61119635Y-82200000D01*
X71351472Y-82200000D01*
X71417522Y-82266050D01*
X71458225Y-82293247D01*
X71383950Y-82367522D01*
X71318287Y-82465793D01*
X71273058Y-82574986D01*
X71250000Y-82690905D01*
X71250000Y-82784315D01*
X70184315Y-83850000D01*
X60498528Y-83850000D01*
X60432478Y-83783950D01*
X60334207Y-83718287D01*
X60225014Y-83673058D01*
X60109095Y-83650000D01*
X59990905Y-83650000D01*
X59874986Y-83673058D01*
X59765793Y-83718287D01*
X59667522Y-83783950D01*
X59583950Y-83867522D01*
X59518287Y-83965793D01*
X59473058Y-84074986D01*
X59450000Y-84190905D01*
X59450000Y-84309095D01*
X59473058Y-84425014D01*
X59518287Y-84534207D01*
X59583950Y-84632478D01*
X59667522Y-84716050D01*
X59765793Y-84781713D01*
X59874986Y-84826942D01*
X59990905Y-84850000D01*
X60109095Y-84850000D01*
X60225014Y-84826942D01*
X60334207Y-84781713D01*
X60432478Y-84716050D01*
X60498528Y-84650000D01*
X61084314Y-84650000D01*
X56331052Y-89403263D01*
X56315789Y-89415789D01*
X56265803Y-89476698D01*
X56228660Y-89546187D01*
X56214092Y-89594212D01*
X56205788Y-89621587D01*
X56198065Y-89700000D01*
X56200000Y-89719647D01*
X56200001Y-90251471D01*
X56133950Y-90317522D01*
X56068287Y-90415793D01*
X56023058Y-90524986D01*
X56000000Y-90640905D01*
X50325000Y-90640905D01*
X50325000Y-66650000D01*
X62398065Y-66650000D01*
X62400001Y-66669657D01*
X62400000Y-79130354D01*
X62398065Y-79150000D01*
X62400000Y-79169646D01*
X62405788Y-79228413D01*
X62428660Y-79303813D01*
X62465803Y-79373302D01*
X62515789Y-79434211D01*
X62531052Y-79446737D01*
X63803263Y-80718948D01*
X63815789Y-80734211D01*
X63831050Y-80746735D01*
X63876697Y-80784197D01*
X63946186Y-80821340D01*
X64021586Y-80844212D01*
X64100000Y-80851935D01*
X64119647Y-80850000D01*
X76584315Y-80850000D01*
X78400000Y-82665685D01*
X78400000Y-82759095D01*
X78423058Y-82875014D01*
X78468287Y-82984207D01*
X78481866Y-83004530D01*
X78459095Y-83000000D01*
X78340905Y-83000000D01*
X78224986Y-83023058D01*
X78115793Y-83068287D01*
X78017522Y-83133950D01*
X77933950Y-83217522D01*
X77868287Y-83315793D01*
X77823058Y-83424986D01*
X77800000Y-83540905D01*
X77800000Y-83659095D01*
X77823058Y-83775014D01*
X77868287Y-83884207D01*
X77933950Y-83982478D01*
X77951472Y-84000000D01*
X76411396Y-84000000D01*
X76201451Y-83790055D01*
X76201451Y-82700000D01*
X76195659Y-82641190D01*
X76178504Y-82584640D01*
X76150647Y-82532523D01*
X76113158Y-82486842D01*
X76067477Y-82449353D01*
X76015360Y-82421496D01*
X75958810Y-82404341D01*
X75900000Y-82398549D01*
X74350000Y-82398549D01*
X74291190Y-82404341D01*
X74234640Y-82421496D01*
X74182523Y-82449353D01*
X74136842Y-82486842D01*
X74099353Y-82532523D01*
X74071496Y-82584640D01*
X74054341Y-82641190D01*
X74048549Y-82700000D01*
X74048549Y-84000000D01*
X74054341Y-84058810D01*
X74071496Y-84115360D01*
X74099353Y-84167477D01*
X74136842Y-84213158D01*
X74182523Y-84250647D01*
X74234640Y-84278504D01*
X74291190Y-84295659D01*
X74350000Y-84301451D01*
X75440055Y-84301451D01*
X75891176Y-84752572D01*
X75905263Y-84769737D01*
X75922428Y-84783824D01*
X75922432Y-84783828D01*
X75973783Y-84825971D01*
X76051959Y-84867757D01*
X76136785Y-84893489D01*
X76202895Y-84900000D01*
X76202905Y-84900000D01*
X76225000Y-84902176D01*
X76247094Y-84900000D01*
X81952906Y-84900000D01*
X81975000Y-84902176D01*
X81997094Y-84900000D01*
X81997105Y-84900000D01*
X82063215Y-84893489D01*
X82148041Y-84867757D01*
X82226216Y-84825971D01*
X82294737Y-84769737D01*
X82308829Y-84752566D01*
X82759944Y-84301451D01*
X83850000Y-84301451D01*
X83908810Y-84295659D01*
X83965360Y-84278504D01*
X84017477Y-84250647D01*
X84063158Y-84213158D01*
X84100647Y-84167477D01*
X84128504Y-84115360D01*
X84145659Y-84058810D01*
X84151451Y-84000000D01*
X84151451Y-82700000D01*
X84848549Y-82700000D01*
X84848549Y-84000000D01*
X84854341Y-84058810D01*
X84871496Y-84115360D01*
X84899353Y-84167477D01*
X84936842Y-84213158D01*
X84982523Y-84250647D01*
X85034640Y-84278504D01*
X85091190Y-84295659D01*
X85150000Y-84301451D01*
X86700000Y-84301451D01*
X86758810Y-84295659D01*
X86815360Y-84278504D01*
X86867477Y-84250647D01*
X86913158Y-84213158D01*
X86950647Y-84167477D01*
X86978504Y-84115360D01*
X86995659Y-84058810D01*
X87001451Y-84000000D01*
X87001451Y-83750000D01*
X92798549Y-83750000D01*
X92798549Y-84000000D01*
X92804341Y-84058810D01*
X92821496Y-84115360D01*
X92849353Y-84167477D01*
X92886842Y-84213158D01*
X92932523Y-84250647D01*
X92984640Y-84278504D01*
X93041190Y-84295659D01*
X93100000Y-84301451D01*
X93500001Y-84301451D01*
X93500000Y-88751472D01*
X93433950Y-88817522D01*
X93368287Y-88915793D01*
X93323058Y-89024986D01*
X93300000Y-89140905D01*
X93300000Y-89259095D01*
X93323058Y-89375014D01*
X93368287Y-89484207D01*
X93433950Y-89582478D01*
X93517522Y-89666050D01*
X93615793Y-89731713D01*
X93724986Y-89776942D01*
X93840905Y-89800000D01*
X93959095Y-89800000D01*
X94075014Y-89776942D01*
X94184207Y-89731713D01*
X94282478Y-89666050D01*
X94366050Y-89582478D01*
X94431713Y-89484207D01*
X94476942Y-89375014D01*
X94500000Y-89259095D01*
X94500000Y-89140905D01*
X94476942Y-89024986D01*
X94431713Y-88915793D01*
X94366050Y-88817522D01*
X94300000Y-88751472D01*
X94300000Y-84301451D01*
X94650000Y-84301451D01*
X94708810Y-84295659D01*
X94765360Y-84278504D01*
X94817477Y-84250647D01*
X94863158Y-84213158D01*
X94900647Y-84167477D01*
X94928504Y-84115360D01*
X94945659Y-84058810D01*
X94951451Y-84000000D01*
X94951451Y-82700000D01*
X94945659Y-82641190D01*
X94928504Y-82584640D01*
X94900647Y-82532523D01*
X94863158Y-82486842D01*
X94817477Y-82449353D01*
X94765360Y-82421496D01*
X94708810Y-82404341D01*
X94650000Y-82398549D01*
X93100000Y-82398549D01*
X93041190Y-82404341D01*
X92984640Y-82421496D01*
X92932523Y-82449353D01*
X92886842Y-82486842D01*
X92849353Y-82532523D01*
X92821496Y-82584640D01*
X92804341Y-82641190D01*
X92798549Y-82700000D01*
X92798549Y-82950000D01*
X87001451Y-82950000D01*
X87001451Y-82700000D01*
X86995659Y-82641190D01*
X86978504Y-82584640D01*
X86950647Y-82532523D01*
X86913158Y-82486842D01*
X86867477Y-82449353D01*
X86815360Y-82421496D01*
X86758810Y-82404341D01*
X86700000Y-82398549D01*
X85150000Y-82398549D01*
X85091190Y-82404341D01*
X85034640Y-82421496D01*
X84982523Y-82449353D01*
X84936842Y-82486842D01*
X84899353Y-82532523D01*
X84871496Y-82584640D01*
X84854341Y-82641190D01*
X84848549Y-82700000D01*
X84151451Y-82700000D01*
X84145659Y-82641190D01*
X84128504Y-82584640D01*
X84100647Y-82532523D01*
X84063158Y-82486842D01*
X84017477Y-82449353D01*
X83965360Y-82421496D01*
X83908810Y-82404341D01*
X83850000Y-82398549D01*
X83525000Y-82398549D01*
X83525000Y-80819083D01*
X83581713Y-80734207D01*
X83626942Y-80625014D01*
X83650000Y-80509095D01*
X83650000Y-80390905D01*
X83626942Y-80274986D01*
X83581713Y-80165793D01*
X83516050Y-80067522D01*
X83432478Y-79983950D01*
X83334207Y-79918287D01*
X83225014Y-79873058D01*
X83109095Y-79850000D01*
X82990905Y-79850000D01*
X82874986Y-79873058D01*
X82765793Y-79918287D01*
X82667522Y-79983950D01*
X82583950Y-80067522D01*
X82518287Y-80165793D01*
X82473058Y-80274986D01*
X82450000Y-80390905D01*
X82450000Y-80509095D01*
X82473058Y-80625014D01*
X82518287Y-80734207D01*
X82583950Y-80832478D01*
X82625001Y-80873529D01*
X82625000Y-82398549D01*
X82300000Y-82398549D01*
X82241190Y-82404341D01*
X82184640Y-82421496D01*
X82132523Y-82449353D01*
X82086842Y-82486842D01*
X82049353Y-82532523D01*
X82021496Y-82584640D01*
X82004341Y-82641190D01*
X81998549Y-82700000D01*
X81998549Y-83790056D01*
X81788605Y-84000000D01*
X79287664Y-84000000D01*
X79271340Y-83946186D01*
X79234197Y-83876697D01*
X79196735Y-83831049D01*
X79196733Y-83831047D01*
X79184211Y-83815789D01*
X79168953Y-83803267D01*
X79000000Y-83634314D01*
X79000000Y-83540905D01*
X78976942Y-83424986D01*
X78931713Y-83315793D01*
X78918134Y-83295470D01*
X78940905Y-83300000D01*
X79059095Y-83300000D01*
X79175014Y-83276942D01*
X79284207Y-83231713D01*
X79382478Y-83166050D01*
X79466050Y-83082478D01*
X79531713Y-82984207D01*
X79576942Y-82875014D01*
X79600000Y-82759095D01*
X79600000Y-82640905D01*
X79576942Y-82524986D01*
X79531713Y-82415793D01*
X79466050Y-82317522D01*
X79382478Y-82233950D01*
X79284207Y-82168287D01*
X79175014Y-82123058D01*
X79059095Y-82100000D01*
X78965685Y-82100000D01*
X77046735Y-80181050D01*
X77034211Y-80165789D01*
X76973303Y-80115803D01*
X76903814Y-80078660D01*
X76828414Y-80055788D01*
X76769647Y-80050000D01*
X76769646Y-80050000D01*
X76750000Y-80048065D01*
X76730354Y-80050000D01*
X64265685Y-80050000D01*
X63200000Y-78984315D01*
X63200000Y-76266451D01*
X67324454Y-76266451D01*
X67324454Y-76384641D01*
X67347512Y-76500560D01*
X67392741Y-76609753D01*
X67458404Y-76708024D01*
X67541976Y-76791596D01*
X67640247Y-76857259D01*
X67749440Y-76902488D01*
X67865359Y-76925546D01*
X67983549Y-76925546D01*
X68099468Y-76902488D01*
X68208661Y-76857259D01*
X68306932Y-76791596D01*
X68390504Y-76708024D01*
X68456167Y-76609753D01*
X68501396Y-76500560D01*
X68524454Y-76384641D01*
X68524454Y-76266451D01*
X68501396Y-76150532D01*
X68490781Y-76124904D01*
X68665685Y-75950000D01*
X68759095Y-75950000D01*
X68875014Y-75926942D01*
X68984207Y-75881713D01*
X69082478Y-75816050D01*
X69166050Y-75732478D01*
X69231713Y-75634207D01*
X69276942Y-75525014D01*
X69300000Y-75409095D01*
X69300000Y-75290905D01*
X69276942Y-75174986D01*
X69231713Y-75065793D01*
X69166050Y-74967522D01*
X69082478Y-74883950D01*
X68984207Y-74818287D01*
X68875014Y-74773058D01*
X68759095Y-74750000D01*
X68640905Y-74750000D01*
X68524986Y-74773058D01*
X68415793Y-74818287D01*
X68317522Y-74883950D01*
X68233950Y-74967522D01*
X68168287Y-75065793D01*
X68123058Y-75174986D01*
X68100000Y-75290905D01*
X68100000Y-75384315D01*
X67726003Y-75758312D01*
X67640247Y-75793833D01*
X67541976Y-75859496D01*
X67458404Y-75943068D01*
X67392741Y-76041339D01*
X67347512Y-76150532D01*
X67324454Y-76266451D01*
X63200000Y-76266451D01*
X63200000Y-72048528D01*
X63267522Y-72116050D01*
X63365793Y-72181713D01*
X63474986Y-72226942D01*
X63590905Y-72250000D01*
X63709095Y-72250000D01*
X63825014Y-72226942D01*
X63934207Y-72181713D01*
X64032478Y-72116050D01*
X64098528Y-72050000D01*
X71396799Y-72050000D01*
X71328747Y-72078188D01*
X71230476Y-72143851D01*
X71146904Y-72227423D01*
X71081241Y-72325694D01*
X71036012Y-72434887D01*
X71012954Y-72550806D01*
X71012954Y-72668996D01*
X71036012Y-72784915D01*
X71081241Y-72894108D01*
X71100001Y-72922184D01*
X71100000Y-78350000D01*
X65236834Y-78350000D01*
X65131574Y-78279668D01*
X65004182Y-78226901D01*
X64868944Y-78200000D01*
X64731056Y-78200000D01*
X64595818Y-78226901D01*
X64468426Y-78279668D01*
X64353776Y-78356274D01*
X64256274Y-78453776D01*
X64179668Y-78568426D01*
X64126901Y-78695818D01*
X64100000Y-78831056D01*
X64100000Y-78968944D01*
X64126901Y-79104182D01*
X64179668Y-79231574D01*
X64256274Y-79346224D01*
X64353776Y-79443726D01*
X64468426Y-79520332D01*
X64595818Y-79573099D01*
X64731056Y-79600000D01*
X64868944Y-79600000D01*
X65004182Y-79573099D01*
X65131574Y-79520332D01*
X65246224Y-79443726D01*
X65339950Y-79350000D01*
X74048549Y-79350000D01*
X74048549Y-79500000D01*
X74054341Y-79558810D01*
X74071496Y-79615360D01*
X74099353Y-79667477D01*
X74136842Y-79713158D01*
X74182523Y-79750647D01*
X74234640Y-79778504D01*
X74291190Y-79795659D01*
X74350000Y-79801451D01*
X75900000Y-79801451D01*
X75958810Y-79795659D01*
X76015360Y-79778504D01*
X76067477Y-79750647D01*
X76113158Y-79713158D01*
X76150647Y-79667477D01*
X76178504Y-79615360D01*
X76195659Y-79558810D01*
X76201451Y-79500000D01*
X76201451Y-79300000D01*
X79850001Y-79300000D01*
X79850000Y-82801472D01*
X79833950Y-82817522D01*
X79768287Y-82915793D01*
X79723058Y-83024986D01*
X79700000Y-83140905D01*
X79700000Y-83259095D01*
X79723058Y-83375014D01*
X79768287Y-83484207D01*
X79833950Y-83582478D01*
X79917522Y-83666050D01*
X80015793Y-83731713D01*
X80124986Y-83776942D01*
X80240905Y-83800000D01*
X80359095Y-83800000D01*
X80475014Y-83776942D01*
X80584207Y-83731713D01*
X80682478Y-83666050D01*
X80766050Y-83582478D01*
X80831713Y-83484207D01*
X80876942Y-83375014D01*
X80900000Y-83259095D01*
X80900000Y-83140905D01*
X80876942Y-83024986D01*
X80831713Y-82915793D01*
X80766050Y-82817522D01*
X80750000Y-82801472D01*
X80750000Y-79300000D01*
X81998549Y-79300000D01*
X81998549Y-79500000D01*
X82004341Y-79558810D01*
X82021496Y-79615360D01*
X82049353Y-79667477D01*
X82086842Y-79713158D01*
X82132523Y-79750647D01*
X82184640Y-79778504D01*
X82241190Y-79795659D01*
X82300000Y-79801451D01*
X83850000Y-79801451D01*
X83908810Y-79795659D01*
X83965360Y-79778504D01*
X84017477Y-79750647D01*
X84063158Y-79713158D01*
X84100647Y-79667477D01*
X84128504Y-79615360D01*
X84145659Y-79558810D01*
X84151451Y-79500000D01*
X84151451Y-79300000D01*
X84848549Y-79300000D01*
X84848549Y-79500000D01*
X84854341Y-79558810D01*
X84871496Y-79615360D01*
X84899353Y-79667477D01*
X84936842Y-79713158D01*
X84982523Y-79750647D01*
X85034640Y-79778504D01*
X85091190Y-79795659D01*
X85150000Y-79801451D01*
X86700000Y-79801451D01*
X86758810Y-79795659D01*
X86815360Y-79778504D01*
X86867477Y-79750647D01*
X86913158Y-79713158D01*
X86950647Y-79667477D01*
X86978504Y-79615360D01*
X86995659Y-79558810D01*
X87001451Y-79500000D01*
X87001451Y-79300000D01*
X92798549Y-79300000D01*
X92798549Y-79500000D01*
X92804341Y-79558810D01*
X92821496Y-79615360D01*
X92849353Y-79667477D01*
X92886842Y-79713158D01*
X92932523Y-79750647D01*
X92984640Y-79778504D01*
X93041190Y-79795659D01*
X93100000Y-79801451D01*
X93425001Y-79801451D01*
X93425001Y-80237896D01*
X93422824Y-80260000D01*
X93431512Y-80348215D01*
X93457243Y-80433040D01*
X93499029Y-80511216D01*
X93541172Y-80562567D01*
X93541177Y-80562572D01*
X93555264Y-80579737D01*
X93572429Y-80593824D01*
X95898549Y-82919945D01*
X95898549Y-84375000D01*
X95904341Y-84433810D01*
X95921496Y-84490360D01*
X95949353Y-84542477D01*
X95986842Y-84588158D01*
X96032523Y-84625647D01*
X96084640Y-84653504D01*
X96141190Y-84670659D01*
X96200000Y-84676451D01*
X96250000Y-84676451D01*
X96250001Y-95613603D01*
X94113605Y-97750000D01*
X94090905Y-97750000D01*
X93974986Y-97773058D01*
X93865793Y-97818287D01*
X93767522Y-97883950D01*
X93683950Y-97967522D01*
X93618287Y-98065793D01*
X93573058Y-98174986D01*
X93550000Y-98290905D01*
X93550000Y-98409095D01*
X93573058Y-98525014D01*
X93618287Y-98634207D01*
X93683950Y-98732478D01*
X93767522Y-98816050D01*
X93865793Y-98881713D01*
X93974986Y-98926942D01*
X94090905Y-98950000D01*
X94209095Y-98950000D01*
X94325014Y-98926942D01*
X94434207Y-98881713D01*
X94532478Y-98816050D01*
X94616050Y-98732478D01*
X94681713Y-98634207D01*
X94726942Y-98525014D01*
X94750000Y-98409095D01*
X94750000Y-98386395D01*
X97002572Y-96133824D01*
X97019737Y-96119737D01*
X97033824Y-96102572D01*
X97033828Y-96102568D01*
X97075971Y-96051217D01*
X97117757Y-95973041D01*
X97143489Y-95888215D01*
X97150000Y-95822105D01*
X97150000Y-95822094D01*
X97152176Y-95800000D01*
X97150000Y-95777906D01*
X97150000Y-95608349D01*
X103433093Y-95608349D01*
X103439755Y-95649863D01*
X103517187Y-95836313D01*
X103629505Y-96004074D01*
X103772394Y-96146699D01*
X103940362Y-96258708D01*
X104126954Y-96335796D01*
X104325000Y-96375000D01*
X104750000Y-96375000D01*
X104750000Y-95450000D01*
X103530573Y-95450000D01*
X103433093Y-95608349D01*
X97150000Y-95608349D01*
X97150000Y-94840905D01*
X99500000Y-94840905D01*
X99500000Y-94959095D01*
X99523058Y-95075014D01*
X99568287Y-95184207D01*
X99633950Y-95282478D01*
X99717522Y-95366050D01*
X99815793Y-95431713D01*
X99924986Y-95476942D01*
X100040905Y-95500000D01*
X100159095Y-95500000D01*
X100275014Y-95476942D01*
X100384207Y-95431713D01*
X100482478Y-95366050D01*
X100566050Y-95282478D01*
X100631713Y-95184207D01*
X100670050Y-95091651D01*
X103433093Y-95091651D01*
X103530573Y-95250000D01*
X104750000Y-95250000D01*
X104750000Y-94325000D01*
X104325000Y-94325000D01*
X104126954Y-94364204D01*
X103940362Y-94441292D01*
X103772394Y-94553301D01*
X103629505Y-94695926D01*
X103517187Y-94863687D01*
X103439755Y-95050137D01*
X103433093Y-95091651D01*
X100670050Y-95091651D01*
X100676942Y-95075014D01*
X100700000Y-94959095D01*
X100700000Y-94840905D01*
X100676942Y-94724986D01*
X100631713Y-94615793D01*
X100566050Y-94517522D01*
X100500000Y-94451472D01*
X100500000Y-90175695D01*
X101125695Y-89550000D01*
X101219105Y-89550000D01*
X101335024Y-89526942D01*
X101444217Y-89481713D01*
X101542488Y-89416050D01*
X101626060Y-89332478D01*
X101691723Y-89234207D01*
X101736952Y-89125014D01*
X101760010Y-89009095D01*
X101760010Y-88890905D01*
X101736952Y-88774986D01*
X101691723Y-88665793D01*
X101626060Y-88567522D01*
X101542488Y-88483950D01*
X101504174Y-88458349D01*
X103433093Y-88458349D01*
X103439755Y-88499863D01*
X103517187Y-88686313D01*
X103629505Y-88854074D01*
X103772394Y-88996699D01*
X103940362Y-89108708D01*
X104126954Y-89185796D01*
X104325000Y-89225000D01*
X104750000Y-89225000D01*
X104750000Y-88300000D01*
X103530573Y-88300000D01*
X103433093Y-88458349D01*
X101504174Y-88458349D01*
X101444217Y-88418287D01*
X101335024Y-88373058D01*
X101219105Y-88350000D01*
X101100915Y-88350000D01*
X100984996Y-88373058D01*
X100875803Y-88418287D01*
X100777532Y-88483950D01*
X100693960Y-88567522D01*
X100628297Y-88665793D01*
X100583068Y-88774986D01*
X100560010Y-88890905D01*
X100560010Y-88984315D01*
X99831048Y-89713277D01*
X99815790Y-89725799D01*
X99803268Y-89741057D01*
X99803265Y-89741060D01*
X99765803Y-89786708D01*
X99728661Y-89856196D01*
X99705788Y-89931597D01*
X99698065Y-90010010D01*
X99700001Y-90029666D01*
X99700000Y-94451472D01*
X99633950Y-94517522D01*
X99568287Y-94615793D01*
X99523058Y-94724986D01*
X99500000Y-94840905D01*
X97150000Y-94840905D01*
X97150000Y-87941651D01*
X103433093Y-87941651D01*
X103530573Y-88100000D01*
X104750000Y-88100000D01*
X104750000Y-87175000D01*
X104325000Y-87175000D01*
X104126954Y-87214204D01*
X103940362Y-87291292D01*
X103772394Y-87403301D01*
X103629505Y-87545926D01*
X103517187Y-87713687D01*
X103439755Y-87900137D01*
X103433093Y-87941651D01*
X97150000Y-87941651D01*
X97150000Y-85240905D01*
X97350000Y-85240905D01*
X97350000Y-85359095D01*
X97373058Y-85475014D01*
X97418287Y-85584207D01*
X97483950Y-85682478D01*
X97567522Y-85766050D01*
X97665793Y-85831713D01*
X97774986Y-85876942D01*
X97890905Y-85900000D01*
X98009095Y-85900000D01*
X98125014Y-85876942D01*
X98234207Y-85831713D01*
X98332478Y-85766050D01*
X98398528Y-85700000D01*
X103380354Y-85700000D01*
X103400000Y-85701935D01*
X103419646Y-85700000D01*
X103419647Y-85700000D01*
X103478414Y-85694212D01*
X103553814Y-85671340D01*
X103623303Y-85634197D01*
X103684211Y-85584211D01*
X103696738Y-85568947D01*
X103918944Y-85346740D01*
X103934211Y-85334211D01*
X103984197Y-85273303D01*
X104021340Y-85203814D01*
X104044212Y-85128414D01*
X104050000Y-85069647D01*
X104050000Y-85069637D01*
X104051934Y-85050001D01*
X104050000Y-85030365D01*
X104050000Y-84851996D01*
X104101983Y-84867765D01*
X104200000Y-84877419D01*
X104475000Y-84875000D01*
X104600000Y-84750000D01*
X104600000Y-83185000D01*
X104800000Y-83185000D01*
X104800000Y-84750000D01*
X104925000Y-84875000D01*
X105200000Y-84877419D01*
X105298017Y-84867765D01*
X105392267Y-84839175D01*
X105479129Y-84792746D01*
X105555264Y-84730264D01*
X105617746Y-84654129D01*
X105664175Y-84567267D01*
X105692765Y-84473017D01*
X105702419Y-84375000D01*
X105700000Y-83310000D01*
X105575000Y-83185000D01*
X104800000Y-83185000D01*
X104600000Y-83185000D01*
X104580000Y-83185000D01*
X104580000Y-82985000D01*
X104600000Y-82985000D01*
X104600000Y-81420000D01*
X104800000Y-81420000D01*
X104800000Y-82985000D01*
X105575000Y-82985000D01*
X105700000Y-82860000D01*
X105702419Y-81795000D01*
X105692765Y-81696983D01*
X105664175Y-81602733D01*
X105617746Y-81515871D01*
X105555264Y-81439736D01*
X105479129Y-81377254D01*
X105392267Y-81330825D01*
X105298017Y-81302235D01*
X105200000Y-81292581D01*
X104925000Y-81295000D01*
X104800000Y-81420000D01*
X104600000Y-81420000D01*
X104475000Y-81295000D01*
X104322031Y-81293654D01*
X104968954Y-80646732D01*
X104984211Y-80634211D01*
X105034197Y-80573303D01*
X105069930Y-80506451D01*
X105200000Y-80506451D01*
X105258810Y-80500659D01*
X105315360Y-80483504D01*
X105367477Y-80455647D01*
X105413158Y-80418158D01*
X105450647Y-80372477D01*
X105478504Y-80320360D01*
X105495659Y-80263810D01*
X105501451Y-80205000D01*
X105501451Y-77625000D01*
X105495659Y-77566190D01*
X105478504Y-77509640D01*
X105450647Y-77457523D01*
X105413158Y-77411842D01*
X105367477Y-77374353D01*
X105315360Y-77346496D01*
X105258810Y-77329341D01*
X105200000Y-77323549D01*
X104200000Y-77323549D01*
X104141190Y-77329341D01*
X104084640Y-77346496D01*
X104032523Y-77374353D01*
X103986842Y-77411842D01*
X103949353Y-77457523D01*
X103921496Y-77509640D01*
X103904341Y-77566190D01*
X103898549Y-77625000D01*
X103898549Y-80205000D01*
X103904341Y-80263810D01*
X103921496Y-80320360D01*
X103949353Y-80372477D01*
X103986842Y-80418158D01*
X104030405Y-80453909D01*
X103381048Y-81103267D01*
X103365790Y-81115789D01*
X103353268Y-81131047D01*
X103353265Y-81131050D01*
X103333048Y-81155684D01*
X103326942Y-81124986D01*
X103281713Y-81015793D01*
X103216050Y-80917522D01*
X103132478Y-80833950D01*
X103034207Y-80768287D01*
X102925014Y-80723058D01*
X102809095Y-80700000D01*
X102690905Y-80700000D01*
X102574986Y-80723058D01*
X102465793Y-80768287D01*
X102367522Y-80833950D01*
X102283950Y-80917522D01*
X102218287Y-81015793D01*
X102173058Y-81124986D01*
X102150000Y-81240905D01*
X102150000Y-81359095D01*
X102173058Y-81475014D01*
X102181490Y-81495372D01*
X102141190Y-81499341D01*
X102084640Y-81516496D01*
X102032523Y-81544353D01*
X101986842Y-81581842D01*
X101949353Y-81627523D01*
X101921496Y-81679640D01*
X101904341Y-81736190D01*
X101898549Y-81795000D01*
X101898549Y-84375000D01*
X101904341Y-84433810D01*
X101921496Y-84490360D01*
X101949353Y-84542477D01*
X101986842Y-84588158D01*
X102032523Y-84625647D01*
X102084640Y-84653504D01*
X102141190Y-84670659D01*
X102200000Y-84676451D01*
X103200000Y-84676451D01*
X103250000Y-84671527D01*
X103250000Y-84884315D01*
X103234315Y-84900000D01*
X98398528Y-84900000D01*
X98374413Y-84875885D01*
X98475000Y-84875000D01*
X98600000Y-84750000D01*
X98600000Y-83185000D01*
X98800000Y-83185000D01*
X98800000Y-84750000D01*
X98925000Y-84875000D01*
X99200000Y-84877419D01*
X99298017Y-84867765D01*
X99392267Y-84839175D01*
X99479129Y-84792746D01*
X99555264Y-84730264D01*
X99617746Y-84654129D01*
X99664175Y-84567267D01*
X99692765Y-84473017D01*
X99700000Y-84399560D01*
X99707235Y-84473017D01*
X99735825Y-84567267D01*
X99782254Y-84654129D01*
X99844736Y-84730264D01*
X99920871Y-84792746D01*
X100007733Y-84839175D01*
X100101983Y-84867765D01*
X100200000Y-84877419D01*
X100475000Y-84875000D01*
X100600000Y-84750000D01*
X100600000Y-83185000D01*
X100800000Y-83185000D01*
X100800000Y-84750000D01*
X100925000Y-84875000D01*
X101200000Y-84877419D01*
X101298017Y-84867765D01*
X101392267Y-84839175D01*
X101479129Y-84792746D01*
X101555264Y-84730264D01*
X101617746Y-84654129D01*
X101664175Y-84567267D01*
X101692765Y-84473017D01*
X101702419Y-84375000D01*
X101700000Y-83310000D01*
X101575000Y-83185000D01*
X100800000Y-83185000D01*
X100600000Y-83185000D01*
X99825000Y-83185000D01*
X99700000Y-83310000D01*
X99575000Y-83185000D01*
X98800000Y-83185000D01*
X98600000Y-83185000D01*
X97825000Y-83185000D01*
X97700000Y-83310000D01*
X97697581Y-84375000D01*
X97707235Y-84473017D01*
X97735825Y-84567267D01*
X97782254Y-84654129D01*
X97829864Y-84712142D01*
X97774986Y-84723058D01*
X97665793Y-84768287D01*
X97567522Y-84833950D01*
X97483950Y-84917522D01*
X97418287Y-85015793D01*
X97373058Y-85124986D01*
X97350000Y-85240905D01*
X97150000Y-85240905D01*
X97150000Y-84676451D01*
X97200000Y-84676451D01*
X97258810Y-84670659D01*
X97315360Y-84653504D01*
X97367477Y-84625647D01*
X97413158Y-84588158D01*
X97450647Y-84542477D01*
X97478504Y-84490360D01*
X97495659Y-84433810D01*
X97501451Y-84375000D01*
X97501451Y-81795000D01*
X97697581Y-81795000D01*
X97700000Y-82860000D01*
X97825000Y-82985000D01*
X98600000Y-82985000D01*
X98600000Y-81420000D01*
X98800000Y-81420000D01*
X98800000Y-82985000D01*
X99575000Y-82985000D01*
X99700000Y-82860000D01*
X99825000Y-82985000D01*
X100600000Y-82985000D01*
X100600000Y-81420000D01*
X100800000Y-81420000D01*
X100800000Y-82985000D01*
X101575000Y-82985000D01*
X101700000Y-82860000D01*
X101702419Y-81795000D01*
X101692765Y-81696983D01*
X101664175Y-81602733D01*
X101617746Y-81515871D01*
X101555264Y-81439736D01*
X101479129Y-81377254D01*
X101392267Y-81330825D01*
X101298017Y-81302235D01*
X101200000Y-81292581D01*
X100925000Y-81295000D01*
X100800000Y-81420000D01*
X100600000Y-81420000D01*
X100475000Y-81295000D01*
X100200000Y-81292581D01*
X100101983Y-81302235D01*
X100007733Y-81330825D01*
X99920871Y-81377254D01*
X99844736Y-81439736D01*
X99782254Y-81515871D01*
X99735825Y-81602733D01*
X99707235Y-81696983D01*
X99700000Y-81770440D01*
X99692765Y-81696983D01*
X99664175Y-81602733D01*
X99617746Y-81515871D01*
X99555264Y-81439736D01*
X99479129Y-81377254D01*
X99392267Y-81330825D01*
X99298017Y-81302235D01*
X99200000Y-81292581D01*
X98925000Y-81295000D01*
X98800000Y-81420000D01*
X98600000Y-81420000D01*
X98475000Y-81295000D01*
X98200000Y-81292581D01*
X98101983Y-81302235D01*
X98007733Y-81330825D01*
X97920871Y-81377254D01*
X97844736Y-81439736D01*
X97782254Y-81515871D01*
X97735825Y-81602733D01*
X97707235Y-81696983D01*
X97697581Y-81795000D01*
X97501451Y-81795000D01*
X97495659Y-81736190D01*
X97478504Y-81679640D01*
X97450647Y-81627523D01*
X97413158Y-81581842D01*
X97367477Y-81544353D01*
X97315360Y-81516496D01*
X97258810Y-81499341D01*
X97200000Y-81493549D01*
X96200000Y-81493549D01*
X96141190Y-81499341D01*
X96084640Y-81516496D01*
X96032523Y-81544353D01*
X95986842Y-81581842D01*
X95949353Y-81627523D01*
X95924819Y-81673423D01*
X94325000Y-80073605D01*
X94325000Y-79801451D01*
X94650000Y-79801451D01*
X94708810Y-79795659D01*
X94765360Y-79778504D01*
X94817477Y-79750647D01*
X94863158Y-79713158D01*
X94900647Y-79667477D01*
X94928504Y-79615360D01*
X94945659Y-79558810D01*
X94951451Y-79500000D01*
X94951451Y-78200000D01*
X94945659Y-78141190D01*
X94928504Y-78084640D01*
X94900647Y-78032523D01*
X94863158Y-77986842D01*
X94817477Y-77949353D01*
X94765360Y-77921496D01*
X94708810Y-77904341D01*
X94650000Y-77898549D01*
X93100000Y-77898549D01*
X93041190Y-77904341D01*
X92984640Y-77921496D01*
X92932523Y-77949353D01*
X92886842Y-77986842D01*
X92849353Y-78032523D01*
X92821496Y-78084640D01*
X92804341Y-78141190D01*
X92798549Y-78200000D01*
X92798549Y-78400000D01*
X87001451Y-78400000D01*
X87001451Y-78200000D01*
X86995659Y-78141190D01*
X86978504Y-78084640D01*
X86950647Y-78032523D01*
X86913158Y-77986842D01*
X86867477Y-77949353D01*
X86815360Y-77921496D01*
X86758810Y-77904341D01*
X86700000Y-77898549D01*
X85150000Y-77898549D01*
X85091190Y-77904341D01*
X85034640Y-77921496D01*
X84982523Y-77949353D01*
X84936842Y-77986842D01*
X84899353Y-78032523D01*
X84871496Y-78084640D01*
X84854341Y-78141190D01*
X84848549Y-78200000D01*
X84848549Y-78400000D01*
X84151451Y-78400000D01*
X84151451Y-78200000D01*
X84145659Y-78141190D01*
X84128504Y-78084640D01*
X84100647Y-78032523D01*
X84063158Y-77986842D01*
X84017477Y-77949353D01*
X83965360Y-77921496D01*
X83908810Y-77904341D01*
X83850000Y-77898549D01*
X82300000Y-77898549D01*
X82241190Y-77904341D01*
X82184640Y-77921496D01*
X82132523Y-77949353D01*
X82086842Y-77986842D01*
X82049353Y-78032523D01*
X82021496Y-78084640D01*
X82004341Y-78141190D01*
X81998549Y-78200000D01*
X81998549Y-78400000D01*
X76201451Y-78400000D01*
X76201451Y-78200000D01*
X76195659Y-78141190D01*
X76178504Y-78084640D01*
X76150647Y-78032523D01*
X76113158Y-77986842D01*
X76067477Y-77949353D01*
X76015360Y-77921496D01*
X75958810Y-77904341D01*
X75900000Y-77898549D01*
X74350000Y-77898549D01*
X74291190Y-77904341D01*
X74234640Y-77921496D01*
X74182523Y-77949353D01*
X74136842Y-77986842D01*
X74099353Y-78032523D01*
X74071496Y-78084640D01*
X74054341Y-78141190D01*
X74048549Y-78200000D01*
X74048549Y-78350000D01*
X72000000Y-78350000D01*
X72000000Y-76900915D01*
X93400000Y-76900915D01*
X93400000Y-77019105D01*
X93423058Y-77135024D01*
X93468287Y-77244217D01*
X93533950Y-77342488D01*
X93617522Y-77426060D01*
X93715793Y-77491723D01*
X93824986Y-77536952D01*
X93940905Y-77560010D01*
X94059095Y-77560010D01*
X94175014Y-77536952D01*
X94284207Y-77491723D01*
X94382478Y-77426060D01*
X94466050Y-77342488D01*
X94531713Y-77244217D01*
X94576942Y-77135024D01*
X94600000Y-77019105D01*
X94600000Y-76900915D01*
X94576942Y-76784996D01*
X94531713Y-76675803D01*
X94466050Y-76577532D01*
X94400000Y-76511482D01*
X94400000Y-76086881D01*
X96063714Y-74423167D01*
X96068287Y-74434207D01*
X96133950Y-74532478D01*
X96200001Y-74598529D01*
X96200000Y-77323549D01*
X96141190Y-77329341D01*
X96084640Y-77346496D01*
X96032523Y-77374353D01*
X95986842Y-77411842D01*
X95949353Y-77457523D01*
X95921496Y-77509640D01*
X95904341Y-77566190D01*
X95898549Y-77625000D01*
X95898549Y-80205000D01*
X95904341Y-80263810D01*
X95921496Y-80320360D01*
X95949353Y-80372477D01*
X95986842Y-80418158D01*
X96032523Y-80455647D01*
X96084640Y-80483504D01*
X96141190Y-80500659D01*
X96200000Y-80506451D01*
X97200000Y-80506451D01*
X97258810Y-80500659D01*
X97315360Y-80483504D01*
X97367477Y-80455647D01*
X97413158Y-80418158D01*
X97450647Y-80372477D01*
X97478504Y-80320360D01*
X97495659Y-80263810D01*
X97501451Y-80205000D01*
X97501451Y-77625000D01*
X97495659Y-77566190D01*
X97478504Y-77509640D01*
X97450647Y-77457523D01*
X97413158Y-77411842D01*
X97367477Y-77374353D01*
X97315360Y-77346496D01*
X97258810Y-77329341D01*
X97200000Y-77323549D01*
X97000000Y-77323549D01*
X97000000Y-76898528D01*
X97067522Y-76966050D01*
X97165793Y-77031713D01*
X97274986Y-77076942D01*
X97390905Y-77100000D01*
X97509095Y-77100000D01*
X97625014Y-77076942D01*
X97734207Y-77031713D01*
X97832478Y-76966050D01*
X97898528Y-76900000D01*
X98118937Y-76900000D01*
X98068287Y-76975803D01*
X98023058Y-77084996D01*
X98000000Y-77200915D01*
X98000000Y-77319105D01*
X98014012Y-77389545D01*
X97986842Y-77411842D01*
X97949353Y-77457523D01*
X97921496Y-77509640D01*
X97904341Y-77566190D01*
X97898549Y-77625000D01*
X97898549Y-80205000D01*
X97904341Y-80263810D01*
X97921496Y-80320360D01*
X97949353Y-80372477D01*
X97986842Y-80418158D01*
X98032523Y-80455647D01*
X98084640Y-80483504D01*
X98141190Y-80500659D01*
X98200000Y-80506451D01*
X99200000Y-80506451D01*
X99258810Y-80500659D01*
X99315360Y-80483504D01*
X99367477Y-80455647D01*
X99413158Y-80418158D01*
X99450647Y-80372477D01*
X99478504Y-80320360D01*
X99495659Y-80263810D01*
X99501451Y-80205000D01*
X99501451Y-77625000D01*
X99495659Y-77566190D01*
X99478504Y-77509640D01*
X99450647Y-77457523D01*
X99413158Y-77411842D01*
X99367477Y-77374353D01*
X99315360Y-77346496D01*
X99258810Y-77329341D01*
X99200000Y-77323549D01*
X99199116Y-77323549D01*
X99200000Y-77319105D01*
X99200000Y-77200915D01*
X99176942Y-77084996D01*
X99131713Y-76975803D01*
X99081063Y-76900000D01*
X99609315Y-76900000D01*
X100065853Y-77356538D01*
X100032523Y-77374353D01*
X99986842Y-77411842D01*
X99949353Y-77457523D01*
X99921496Y-77509640D01*
X99904341Y-77566190D01*
X99898549Y-77625000D01*
X99898549Y-80205000D01*
X99904341Y-80263810D01*
X99921496Y-80320360D01*
X99949353Y-80372477D01*
X99986842Y-80418158D01*
X100032523Y-80455647D01*
X100084640Y-80483504D01*
X100141190Y-80500659D01*
X100200000Y-80506451D01*
X101200000Y-80506451D01*
X101258810Y-80500659D01*
X101315360Y-80483504D01*
X101367477Y-80455647D01*
X101413158Y-80418158D01*
X101450647Y-80372477D01*
X101478504Y-80320360D01*
X101495659Y-80263810D01*
X101501451Y-80205000D01*
X101501451Y-77625000D01*
X101898549Y-77625000D01*
X101898549Y-80205000D01*
X101904341Y-80263810D01*
X101921496Y-80320360D01*
X101949353Y-80372477D01*
X101986842Y-80418158D01*
X102032523Y-80455647D01*
X102084640Y-80483504D01*
X102141190Y-80500659D01*
X102200000Y-80506451D01*
X103200000Y-80506451D01*
X103258810Y-80500659D01*
X103315360Y-80483504D01*
X103367477Y-80455647D01*
X103413158Y-80418158D01*
X103450647Y-80372477D01*
X103478504Y-80320360D01*
X103495659Y-80263810D01*
X103501451Y-80205000D01*
X103501451Y-77625000D01*
X103495659Y-77566190D01*
X103478504Y-77509640D01*
X103450647Y-77457523D01*
X103413158Y-77411842D01*
X103367477Y-77374353D01*
X103315360Y-77346496D01*
X103258810Y-77329341D01*
X103200000Y-77323549D01*
X103100000Y-77323549D01*
X103100000Y-77248528D01*
X103116050Y-77232478D01*
X103181713Y-77134207D01*
X103226942Y-77025014D01*
X103250000Y-76909095D01*
X103250000Y-76790905D01*
X103226942Y-76674986D01*
X103181713Y-76565793D01*
X103116050Y-76467522D01*
X103032478Y-76383950D01*
X102934207Y-76318287D01*
X102825014Y-76273058D01*
X102709095Y-76250000D01*
X102590905Y-76250000D01*
X102474986Y-76273058D01*
X102365793Y-76318287D01*
X102267522Y-76383950D01*
X102183950Y-76467522D01*
X102118287Y-76565793D01*
X102073058Y-76674986D01*
X102050000Y-76790905D01*
X102050000Y-76909095D01*
X102073058Y-77025014D01*
X102118287Y-77134207D01*
X102183950Y-77232478D01*
X102267522Y-77316050D01*
X102278745Y-77323549D01*
X102200000Y-77323549D01*
X102141190Y-77329341D01*
X102084640Y-77346496D01*
X102032523Y-77374353D01*
X101986842Y-77411842D01*
X101949353Y-77457523D01*
X101921496Y-77509640D01*
X101904341Y-77566190D01*
X101898549Y-77625000D01*
X101501451Y-77625000D01*
X101495659Y-77566190D01*
X101478504Y-77509640D01*
X101450647Y-77457523D01*
X101413158Y-77411842D01*
X101367477Y-77374353D01*
X101315360Y-77346496D01*
X101258810Y-77329341D01*
X101200000Y-77323549D01*
X101087224Y-77323549D01*
X101071340Y-77271186D01*
X101034197Y-77201697D01*
X101030125Y-77196735D01*
X100984211Y-77140789D01*
X100968948Y-77128263D01*
X100071737Y-76231052D01*
X100059211Y-76215789D01*
X99998303Y-76165803D01*
X99928814Y-76128660D01*
X99853414Y-76105788D01*
X99794647Y-76100000D01*
X99794646Y-76100000D01*
X99775000Y-76098065D01*
X99755354Y-76100000D01*
X97898528Y-76100000D01*
X97832478Y-76033950D01*
X97734207Y-75968287D01*
X97625014Y-75923058D01*
X97509095Y-75900000D01*
X97390905Y-75900000D01*
X97274986Y-75923058D01*
X97165793Y-75968287D01*
X97067522Y-76033950D01*
X97000000Y-76101472D01*
X97000000Y-74598528D01*
X97066050Y-74532478D01*
X97131713Y-74434207D01*
X97176942Y-74325014D01*
X97200000Y-74209095D01*
X97200000Y-74090905D01*
X97179928Y-73989998D01*
X102774313Y-73989998D01*
X104378263Y-75593948D01*
X104378525Y-75594267D01*
X104383545Y-75645236D01*
X104413147Y-75742822D01*
X104461219Y-75832758D01*
X104525912Y-75911588D01*
X104604742Y-75976281D01*
X104694678Y-76024353D01*
X104792264Y-76053955D01*
X104893750Y-76063951D01*
X105406250Y-76063951D01*
X105507736Y-76053955D01*
X105605322Y-76024353D01*
X105695258Y-75976281D01*
X105774088Y-75911588D01*
X105838781Y-75832758D01*
X105886853Y-75742822D01*
X105916455Y-75645236D01*
X105926451Y-75543750D01*
X105926451Y-75106250D01*
X105916455Y-75004764D01*
X105886853Y-74907178D01*
X105838781Y-74817242D01*
X105774088Y-74738412D01*
X105695258Y-74673719D01*
X105605322Y-74625647D01*
X105507736Y-74596045D01*
X105406250Y-74586049D01*
X104893750Y-74586049D01*
X104792264Y-74596045D01*
X104694678Y-74625647D01*
X104604742Y-74673719D01*
X104596318Y-74680633D01*
X103236735Y-73321050D01*
X103224209Y-73305787D01*
X103163301Y-73255801D01*
X103093812Y-73218658D01*
X103018412Y-73195786D01*
X102959645Y-73189998D01*
X102959644Y-73189998D01*
X102939998Y-73188063D01*
X102920352Y-73189998D01*
X96350845Y-73189998D01*
X96331198Y-73188063D01*
X96252784Y-73195786D01*
X96177384Y-73218658D01*
X96107895Y-73255801D01*
X96062247Y-73293263D01*
X96062245Y-73293265D01*
X96046987Y-73305787D01*
X96034465Y-73321045D01*
X93731052Y-75624459D01*
X93715789Y-75636985D01*
X93665803Y-75697894D01*
X93628660Y-75767383D01*
X93620637Y-75793833D01*
X93605788Y-75842783D01*
X93598065Y-75921196D01*
X93600000Y-75940843D01*
X93600001Y-76511481D01*
X93533950Y-76577532D01*
X93468287Y-76675803D01*
X93423058Y-76784996D01*
X93400000Y-76900915D01*
X72000000Y-76900915D01*
X72000000Y-73071383D01*
X72079004Y-72992379D01*
X72144667Y-72894108D01*
X72189896Y-72784915D01*
X72212954Y-72668996D01*
X72212954Y-72550806D01*
X72189896Y-72434887D01*
X72144667Y-72325694D01*
X72079004Y-72227423D01*
X71995432Y-72143851D01*
X71897161Y-72078188D01*
X71829109Y-72050000D01*
X72134315Y-72050000D01*
X72700000Y-72615685D01*
X72700000Y-72709095D01*
X72723058Y-72825014D01*
X72768287Y-72934207D01*
X72833950Y-73032478D01*
X72917522Y-73116050D01*
X73015793Y-73181713D01*
X73124986Y-73226942D01*
X73240905Y-73250000D01*
X73359095Y-73250000D01*
X73475014Y-73226942D01*
X73584207Y-73181713D01*
X73682478Y-73116050D01*
X73766050Y-73032478D01*
X73831713Y-72934207D01*
X73876942Y-72825014D01*
X73900000Y-72709095D01*
X73900000Y-72590905D01*
X73876942Y-72474986D01*
X73831713Y-72365793D01*
X73766050Y-72267522D01*
X73682478Y-72183950D01*
X73584207Y-72118287D01*
X73475014Y-72073058D01*
X73359095Y-72050000D01*
X73265685Y-72050000D01*
X72596737Y-71381052D01*
X72584211Y-71365789D01*
X72523303Y-71315803D01*
X72453814Y-71278660D01*
X72378414Y-71255788D01*
X72319647Y-71250000D01*
X72319646Y-71250000D01*
X72300000Y-71248065D01*
X72280354Y-71250000D01*
X64098528Y-71250000D01*
X64032478Y-71183950D01*
X63934207Y-71118287D01*
X63825014Y-71073058D01*
X63709095Y-71050000D01*
X63590905Y-71050000D01*
X63474986Y-71073058D01*
X63365793Y-71118287D01*
X63267522Y-71183950D01*
X63200000Y-71251472D01*
X63200000Y-70800000D01*
X104047581Y-70800000D01*
X104057235Y-70898017D01*
X104085825Y-70992267D01*
X104132254Y-71079129D01*
X104194736Y-71155264D01*
X104270871Y-71217746D01*
X104357733Y-71264175D01*
X104451983Y-71292765D01*
X104550000Y-71302419D01*
X105025000Y-71300000D01*
X105150000Y-71175000D01*
X105150000Y-70412500D01*
X104175000Y-70412500D01*
X104050000Y-70537500D01*
X104047581Y-70800000D01*
X63200000Y-70800000D01*
X63200000Y-69825000D01*
X104047581Y-69825000D01*
X104050000Y-70087500D01*
X104175000Y-70212500D01*
X105150000Y-70212500D01*
X105150000Y-69450000D01*
X105025000Y-69325000D01*
X104550000Y-69322581D01*
X104451983Y-69332235D01*
X104357733Y-69360825D01*
X104270871Y-69407254D01*
X104194736Y-69469736D01*
X104132254Y-69545871D01*
X104085825Y-69632733D01*
X104057235Y-69726983D01*
X104047581Y-69825000D01*
X63200000Y-69825000D01*
X63200000Y-66815685D01*
X63824780Y-66190905D01*
X73050000Y-66190905D01*
X73050000Y-66309095D01*
X73073058Y-66425014D01*
X73118287Y-66534207D01*
X73183950Y-66632478D01*
X73250001Y-66698529D01*
X73250000Y-68330353D01*
X73248065Y-68350000D01*
X73250000Y-68369646D01*
X73255788Y-68428413D01*
X73278660Y-68503813D01*
X73315803Y-68573302D01*
X73365789Y-68634211D01*
X73381052Y-68646737D01*
X73550000Y-68815685D01*
X73550000Y-68909095D01*
X73573058Y-69025014D01*
X73618287Y-69134207D01*
X73683950Y-69232478D01*
X73767522Y-69316050D01*
X73865793Y-69381713D01*
X73974986Y-69426942D01*
X74090905Y-69450000D01*
X74209095Y-69450000D01*
X74325014Y-69426942D01*
X74434207Y-69381713D01*
X74532478Y-69316050D01*
X74616050Y-69232478D01*
X74681713Y-69134207D01*
X74726942Y-69025014D01*
X74750000Y-68909095D01*
X74750000Y-68790905D01*
X74726942Y-68674986D01*
X74681713Y-68565793D01*
X74616050Y-68467522D01*
X74532478Y-68383950D01*
X74434207Y-68318287D01*
X74325014Y-68273058D01*
X74209095Y-68250000D01*
X74115685Y-68250000D01*
X74050000Y-68184315D01*
X74050000Y-66698528D01*
X74116050Y-66632478D01*
X74181713Y-66534207D01*
X74226942Y-66425014D01*
X74250000Y-66309095D01*
X74250000Y-66190905D01*
X74226942Y-66074986D01*
X74181713Y-65965793D01*
X74116050Y-65867522D01*
X74032478Y-65783950D01*
X73934207Y-65718287D01*
X73825014Y-65673058D01*
X73709095Y-65650000D01*
X73590905Y-65650000D01*
X73474986Y-65673058D01*
X73365793Y-65718287D01*
X73267522Y-65783950D01*
X73183950Y-65867522D01*
X73118287Y-65965793D01*
X73073058Y-66074986D01*
X73050000Y-66190905D01*
X63824780Y-66190905D01*
X64265685Y-65750000D01*
X66751472Y-65750000D01*
X66817522Y-65816050D01*
X66915793Y-65881713D01*
X67024986Y-65926942D01*
X67140905Y-65950000D01*
X67259095Y-65950000D01*
X67375014Y-65926942D01*
X67484207Y-65881713D01*
X67582478Y-65816050D01*
X67666050Y-65732478D01*
X67731713Y-65634207D01*
X67776942Y-65525014D01*
X67800000Y-65409095D01*
X67800000Y-65290905D01*
X67776942Y-65174986D01*
X67731713Y-65065793D01*
X67666050Y-64967522D01*
X67582478Y-64883950D01*
X67484207Y-64818287D01*
X67375014Y-64773058D01*
X67259095Y-64750000D01*
X67140905Y-64750000D01*
X67024986Y-64773058D01*
X66915793Y-64818287D01*
X66817522Y-64883950D01*
X66751472Y-64950000D01*
X64119647Y-64950000D01*
X64100000Y-64948065D01*
X64080353Y-64950000D01*
X64021586Y-64955788D01*
X63946186Y-64978660D01*
X63876697Y-65015803D01*
X63815789Y-65065789D01*
X63803263Y-65081052D01*
X62531048Y-66353267D01*
X62515790Y-66365789D01*
X62503268Y-66381047D01*
X62503265Y-66381050D01*
X62465803Y-66426698D01*
X62428661Y-66496186D01*
X62405788Y-66571587D01*
X62398065Y-66650000D01*
X50325000Y-66650000D01*
X50325000Y-61237489D01*
X87750000Y-61237489D01*
X87750000Y-61562511D01*
X87813408Y-61881287D01*
X87937789Y-62181568D01*
X88118361Y-62451814D01*
X88348186Y-62681639D01*
X88618432Y-62862211D01*
X88918713Y-62986592D01*
X89237489Y-63050000D01*
X89562511Y-63050000D01*
X89881287Y-62986592D01*
X90181568Y-62862211D01*
X90451814Y-62681639D01*
X90681639Y-62451814D01*
X90862211Y-62181568D01*
X90986592Y-61881287D01*
X91050000Y-61562511D01*
X91050000Y-61237489D01*
X90986592Y-60918713D01*
X90862211Y-60618432D01*
X90681639Y-60348186D01*
X90451814Y-60118361D01*
X90181568Y-59937789D01*
X89881287Y-59813408D01*
X89562511Y-59750000D01*
X89237489Y-59750000D01*
X88918713Y-59813408D01*
X88618432Y-59937789D01*
X88348186Y-60118361D01*
X88118361Y-60348186D01*
X87937789Y-60618432D01*
X87813408Y-60918713D01*
X87750000Y-61237489D01*
X50325000Y-61237489D01*
X50325000Y-54757160D01*
X59884261Y-54757160D01*
X60105499Y-55089496D01*
X60539935Y-55321401D01*
X61011265Y-55464095D01*
X61501377Y-55512096D01*
X61991437Y-55463558D01*
X62462611Y-55320346D01*
X62894501Y-55089496D01*
X63115739Y-54757160D01*
X61500000Y-53141421D01*
X59884261Y-54757160D01*
X50325000Y-54757160D01*
X50325000Y-53001377D01*
X58987904Y-53001377D01*
X59036442Y-53491437D01*
X59179654Y-53962611D01*
X59410504Y-54394501D01*
X59742840Y-54615739D01*
X61358579Y-53000000D01*
X61641421Y-53000000D01*
X63257160Y-54615739D01*
X63589496Y-54394501D01*
X63821401Y-53960065D01*
X63964095Y-53488735D01*
X64012096Y-52998623D01*
X63963558Y-52508563D01*
X63820346Y-52037389D01*
X63589496Y-51605499D01*
X63257160Y-51384261D01*
X61641421Y-53000000D01*
X61358579Y-53000000D01*
X59742840Y-51384261D01*
X59410504Y-51605499D01*
X59178599Y-52039935D01*
X59035905Y-52511265D01*
X58987904Y-53001377D01*
X50325000Y-53001377D01*
X50325000Y-51242840D01*
X59884261Y-51242840D01*
X61500000Y-52858579D01*
X63115739Y-51242840D01*
X62894501Y-50910504D01*
X62460065Y-50678599D01*
X61988735Y-50535905D01*
X61498623Y-50487904D01*
X61008563Y-50536442D01*
X60537389Y-50679654D01*
X60105499Y-50910504D01*
X59884261Y-51242840D01*
X50325000Y-51242840D01*
X50325000Y-50325000D01*
X105284103Y-50325000D01*
X105430805Y-50339384D01*
G37*
%TD.AperFunction*%
%TD*%
M02*
