%TF.GenerationSoftware,KiCad,Pcbnew,(6.0.2)*%
%TF.CreationDate,2022-04-09T16:32:05-06:00*%
%TF.ProjectId,SolarGPS,536f6c61-7247-4505-932e-6b696361645f,rev?*%
%TF.SameCoordinates,Original*%
%TF.FileFunction,Paste,Bot*%
%TF.FilePolarity,Positive*%
%FSLAX46Y46*%
G04 Gerber Fmt 4.6, Leading zero omitted, Abs format (unit mm)*
G04 Created by KiCad (PCBNEW (6.0.2)) date 2022-04-09 16:32:05*
%MOMM*%
%LPD*%
G01*
G04 APERTURE LIST*
G04 Aperture macros list*
%AMRoundRect*
0 Rectangle with rounded corners*
0 $1 Rounding radius*
0 $2 $3 $4 $5 $6 $7 $8 $9 X,Y pos of 4 corners*
0 Add a 4 corners polygon primitive as box body*
4,1,4,$2,$3,$4,$5,$6,$7,$8,$9,$2,$3,0*
0 Add four circle primitives for the rounded corners*
1,1,$1+$1,$2,$3*
1,1,$1+$1,$4,$5*
1,1,$1+$1,$6,$7*
1,1,$1+$1,$8,$9*
0 Add four rect primitives between the rounded corners*
20,1,$1+$1,$2,$3,$4,$5,0*
20,1,$1+$1,$4,$5,$6,$7,0*
20,1,$1+$1,$6,$7,$8,$9,0*
20,1,$1+$1,$8,$9,$2,$3,0*%
%AMFreePoly0*
4,1,17,0.364320,0.111820,0.377500,0.080000,0.377500,0.053642,0.377501,0.053640,0.369779,0.035000,0.364320,0.021820,0.364318,0.021819,0.230680,-0.111820,0.198860,-0.125000,-0.332500,-0.125000,-0.364320,-0.111820,-0.377500,-0.080000,-0.377500,0.080000,-0.364320,0.111820,-0.332500,0.125000,0.332500,0.125000,0.364320,0.111820,0.364320,0.111820,$1*%
%AMFreePoly1*
4,1,17,0.230680,0.111820,0.364318,-0.021819,0.364320,-0.021820,0.364320,-0.021821,0.377501,-0.053640,0.377500,-0.053642,0.377500,-0.080000,0.364320,-0.111820,0.332500,-0.125000,-0.332500,-0.125000,-0.364320,-0.111820,-0.377500,-0.080000,-0.377500,0.080000,-0.364320,0.111820,-0.332500,0.125000,0.198860,0.125000,0.230680,0.111820,0.230680,0.111820,$1*%
%AMFreePoly2*
4,1,17,0.111820,0.364320,0.125000,0.332500,0.125000,-0.332500,0.111820,-0.364320,0.080000,-0.377500,0.053642,-0.377500,0.053640,-0.377501,0.031140,-0.368181,0.021820,-0.364320,0.021819,-0.364318,-0.111820,-0.230680,-0.125000,-0.198860,-0.125000,0.332500,-0.111820,0.364320,-0.080000,0.377500,0.080000,0.377500,0.111820,0.364320,0.111820,0.364320,$1*%
%AMFreePoly3*
4,1,17,0.111820,0.364320,0.125000,0.332500,0.125000,-0.198858,0.125001,-0.198860,0.115681,-0.221360,0.111820,-0.230680,0.111818,-0.230681,-0.021820,-0.364320,-0.053640,-0.377500,-0.080000,-0.377500,-0.111820,-0.364320,-0.125000,-0.332500,-0.125000,0.332500,-0.111820,0.364320,-0.080000,0.377500,0.080000,0.377500,0.111820,0.364320,0.111820,0.364320,$1*%
%AMFreePoly4*
4,1,17,-0.198858,0.125000,0.332500,0.125000,0.364320,0.111820,0.377500,0.080000,0.377500,-0.080000,0.364320,-0.111820,0.332500,-0.125000,-0.332500,-0.125000,-0.364320,-0.111820,-0.377500,-0.080000,-0.377500,-0.053640,-0.364320,-0.021820,-0.230681,0.111818,-0.230680,0.111820,-0.221360,0.115681,-0.198860,0.125001,-0.198858,0.125000,-0.198858,0.125000,$1*%
%AMFreePoly5*
4,1,17,0.364320,0.111820,0.377500,0.080000,0.377500,-0.080000,0.364320,-0.111820,0.332500,-0.125000,-0.198858,-0.125000,-0.198860,-0.125001,-0.221360,-0.115681,-0.230680,-0.111820,-0.230681,-0.111818,-0.364320,0.021820,-0.377500,0.053640,-0.377500,0.080000,-0.364320,0.111820,-0.332500,0.125000,0.332500,0.125000,0.364320,0.111820,0.364320,0.111820,$1*%
%AMFreePoly6*
4,1,17,-0.021820,0.364320,0.111818,0.230681,0.111820,0.230680,0.111820,0.230679,0.125001,0.198860,0.125000,0.198858,0.125000,-0.332500,0.111820,-0.364320,0.080000,-0.377500,-0.080000,-0.377500,-0.111820,-0.364320,-0.125000,-0.332500,-0.125000,0.332500,-0.111820,0.364320,-0.080000,0.377500,-0.053640,0.377500,-0.021820,0.364320,-0.021820,0.364320,$1*%
%AMFreePoly7*
4,1,17,0.053642,0.377500,0.080000,0.377500,0.111820,0.364320,0.125000,0.332500,0.125000,-0.332500,0.111820,-0.364320,0.080000,-0.377500,-0.080000,-0.377500,-0.111820,-0.364320,-0.125000,-0.332500,-0.125000,0.198860,-0.111820,0.230680,0.021819,0.364318,0.021820,0.364320,0.031140,0.368181,0.053640,0.377501,0.053642,0.377500,0.053642,0.377500,$1*%
G04 Aperture macros list end*
%ADD10RoundRect,0.218750X-0.256250X0.218750X-0.256250X-0.218750X0.256250X-0.218750X0.256250X0.218750X0*%
%ADD11RoundRect,0.218750X0.256250X-0.218750X0.256250X0.218750X-0.256250X0.218750X-0.256250X-0.218750X0*%
%ADD12RoundRect,0.218750X0.218750X0.256250X-0.218750X0.256250X-0.218750X-0.256250X0.218750X-0.256250X0*%
%ADD13RoundRect,0.218750X-0.218750X-0.256250X0.218750X-0.256250X0.218750X0.256250X-0.218750X0.256250X0*%
%ADD14RoundRect,0.225000X0.335876X0.017678X0.017678X0.335876X-0.335876X-0.017678X-0.017678X-0.335876X0*%
%ADD15RoundRect,0.225000X0.250000X-0.225000X0.250000X0.225000X-0.250000X0.225000X-0.250000X-0.225000X0*%
%ADD16RoundRect,0.087500X0.087500X-0.187500X0.087500X0.187500X-0.087500X0.187500X-0.087500X-0.187500X0*%
%ADD17RoundRect,0.087500X0.187500X-0.087500X0.187500X0.087500X-0.187500X0.087500X-0.187500X-0.087500X0*%
%ADD18RoundRect,0.200000X-0.275000X0.200000X-0.275000X-0.200000X0.275000X-0.200000X0.275000X0.200000X0*%
%ADD19RoundRect,0.200000X-0.200000X-0.275000X0.200000X-0.275000X0.200000X0.275000X-0.200000X0.275000X0*%
%ADD20RoundRect,0.225000X-0.225000X-0.250000X0.225000X-0.250000X0.225000X0.250000X-0.225000X0.250000X0*%
%ADD21RoundRect,0.202500X0.202500X0.202500X-0.202500X0.202500X-0.202500X-0.202500X0.202500X-0.202500X0*%
%ADD22RoundRect,0.062500X0.375000X0.062500X-0.375000X0.062500X-0.375000X-0.062500X0.375000X-0.062500X0*%
%ADD23RoundRect,0.062500X0.062500X0.375000X-0.062500X0.375000X-0.062500X-0.375000X0.062500X-0.375000X0*%
%ADD24RoundRect,0.225000X-0.250000X0.225000X-0.250000X-0.225000X0.250000X-0.225000X0.250000X0.225000X0*%
%ADD25RoundRect,0.225000X0.225000X0.250000X-0.225000X0.250000X-0.225000X-0.250000X0.225000X-0.250000X0*%
%ADD26RoundRect,0.200000X0.200000X0.275000X-0.200000X0.275000X-0.200000X-0.275000X0.200000X-0.275000X0*%
%ADD27RoundRect,0.250000X0.250000X0.475000X-0.250000X0.475000X-0.250000X-0.475000X0.250000X-0.475000X0*%
%ADD28RoundRect,0.250000X-0.250000X-0.475000X0.250000X-0.475000X0.250000X0.475000X-0.250000X0.475000X0*%
%ADD29R,1.000000X1.000000*%
%ADD30R,1.000000X4.300000*%
%ADD31FreePoly0,135.000000*%
%ADD32RoundRect,0.062500X0.309359X-0.220971X-0.220971X0.309359X-0.309359X0.220971X0.220971X-0.309359X0*%
%ADD33FreePoly1,135.000000*%
%ADD34FreePoly2,135.000000*%
%ADD35RoundRect,0.062500X0.309359X0.220971X0.220971X0.309359X-0.309359X-0.220971X-0.220971X-0.309359X0*%
%ADD36FreePoly3,135.000000*%
%ADD37FreePoly4,135.000000*%
%ADD38FreePoly5,135.000000*%
%ADD39FreePoly6,135.000000*%
%ADD40FreePoly7,135.000000*%
%ADD41RoundRect,0.200000X0.275000X-0.200000X0.275000X0.200000X-0.275000X0.200000X-0.275000X-0.200000X0*%
%ADD42R,0.900000X1.200000*%
%ADD43R,1.200000X0.900000*%
%ADD44R,1.200000X3.700000*%
%ADD45RoundRect,0.150000X0.150000X-0.587500X0.150000X0.587500X-0.150000X0.587500X-0.150000X-0.587500X0*%
%ADD46RoundRect,0.250000X0.250000X1.350000X-0.250000X1.350000X-0.250000X-1.350000X0.250000X-1.350000X0*%
%ADD47R,1.800000X1.000000*%
G04 APERTURE END LIST*
D10*
%TO.C,R3*%
X64600000Y-71362500D03*
X64600000Y-72937500D03*
%TD*%
D11*
%TO.C,C5*%
X124550000Y-79637500D03*
X124550000Y-78062500D03*
%TD*%
D12*
%TO.C,C9*%
X57787500Y-66900000D03*
X56212500Y-66900000D03*
%TD*%
D13*
%TO.C,C20*%
X63962500Y-61850000D03*
X65537500Y-61850000D03*
%TD*%
D14*
%TO.C,C25*%
X75198008Y-74148008D03*
X74101992Y-73051992D03*
%TD*%
D15*
%TO.C,C26*%
X90850000Y-75850000D03*
X90850000Y-74300000D03*
%TD*%
D16*
%TO.C,U6*%
X89050000Y-74175000D03*
X88550000Y-74175000D03*
X88050000Y-74175000D03*
X87550000Y-74175000D03*
X87050000Y-74175000D03*
D17*
X86825000Y-73450000D03*
X86825000Y-72950000D03*
X86825000Y-72450000D03*
D16*
X87050000Y-71725000D03*
X87550000Y-71725000D03*
X88050000Y-71725000D03*
X88550000Y-71725000D03*
X89050000Y-71725000D03*
D17*
X89275000Y-72450000D03*
X89275000Y-72950000D03*
X89275000Y-73450000D03*
%TD*%
D18*
%TO.C,R7*%
X122250000Y-77975000D03*
X122250000Y-79625000D03*
%TD*%
D19*
%TO.C,ROUT2*%
X76075000Y-56400000D03*
X77725000Y-56400000D03*
%TD*%
D20*
%TO.C,C10*%
X86275000Y-78250000D03*
X87825000Y-78250000D03*
%TD*%
D21*
%TO.C,U3*%
X86650000Y-57050000D03*
X85650000Y-57050000D03*
X85650000Y-56050000D03*
X86650000Y-56050000D03*
D22*
X87837500Y-55550000D03*
X87837500Y-56050000D03*
X87837500Y-56550000D03*
X87837500Y-57050000D03*
X87837500Y-57550000D03*
D23*
X87150000Y-58237500D03*
X86650000Y-58237500D03*
X86150000Y-58237500D03*
X85650000Y-58237500D03*
X85150000Y-58237500D03*
D22*
X84462500Y-57550000D03*
X84462500Y-57050000D03*
X84462500Y-56550000D03*
X84462500Y-56050000D03*
X84462500Y-55550000D03*
D23*
X85150000Y-54862500D03*
X85650000Y-54862500D03*
X86150000Y-54862500D03*
X86650000Y-54862500D03*
X87150000Y-54862500D03*
%TD*%
D24*
%TO.C,C27*%
X87500000Y-50925000D03*
X87500000Y-52475000D03*
%TD*%
D18*
%TO.C,ROK1*%
X80950000Y-59075000D03*
X80950000Y-60725000D03*
%TD*%
D25*
%TO.C,C14*%
X94975000Y-59350000D03*
X93425000Y-59350000D03*
%TD*%
D24*
%TO.C,C21*%
X62250000Y-56575000D03*
X62250000Y-58125000D03*
%TD*%
D19*
%TO.C,R12*%
X69900000Y-67600000D03*
X71550000Y-67600000D03*
%TD*%
D26*
%TO.C,ROV1*%
X86825000Y-60350000D03*
X85175000Y-60350000D03*
%TD*%
D27*
%TO.C,C12*%
X96250000Y-55400000D03*
X94350000Y-55400000D03*
%TD*%
D24*
%TO.C,C13*%
X71550000Y-64475000D03*
X71550000Y-66025000D03*
%TD*%
D25*
%TO.C,C17*%
X92075000Y-57800000D03*
X90525000Y-57800000D03*
%TD*%
D20*
%TO.C,C3*%
X63975000Y-60300000D03*
X65525000Y-60300000D03*
%TD*%
D15*
%TO.C,C22*%
X67200000Y-61725000D03*
X67200000Y-60175000D03*
%TD*%
D28*
%TO.C,C19*%
X77550000Y-52000000D03*
X79450000Y-52000000D03*
%TD*%
D29*
%TO.C,D1*%
X94300000Y-53400000D03*
X96800000Y-53400000D03*
%TD*%
D30*
%TO.C,L2*%
X92575000Y-52700000D03*
X89275000Y-52700000D03*
%TD*%
D31*
%TO.C,U1*%
X81473106Y-76601786D03*
D32*
X81077126Y-76912913D03*
X80723573Y-77266466D03*
X80370019Y-77620019D03*
X80016466Y-77973573D03*
X79662913Y-78327126D03*
D33*
X79351786Y-78723106D03*
D34*
X78648214Y-78723106D03*
D35*
X78337087Y-78327126D03*
X77983534Y-77973573D03*
X77629981Y-77620019D03*
X77276427Y-77266466D03*
X76922874Y-76912913D03*
D36*
X76526894Y-76601786D03*
D37*
X76526894Y-75898214D03*
D32*
X76922874Y-75587087D03*
X77276427Y-75233534D03*
X77629981Y-74879981D03*
X77983534Y-74526427D03*
X78337087Y-74172874D03*
D38*
X78648214Y-73776894D03*
D39*
X79351786Y-73776894D03*
D35*
X79662913Y-74172874D03*
X80016466Y-74526427D03*
X80370019Y-74879981D03*
X80723573Y-75233534D03*
X81077126Y-75587087D03*
D40*
X81473106Y-75898214D03*
%TD*%
D15*
%TO.C,C2*%
X60650000Y-58125000D03*
X60650000Y-56575000D03*
%TD*%
D41*
%TO.C,R4*%
X91800000Y-60975000D03*
X91800000Y-59325000D03*
%TD*%
D42*
%TO.C,D5*%
X67100000Y-58200000D03*
X63800000Y-58200000D03*
%TD*%
D26*
%TO.C,ROV2*%
X89875000Y-60350000D03*
X88225000Y-60350000D03*
%TD*%
D19*
%TO.C,ROK3*%
X76125000Y-57950000D03*
X77775000Y-57950000D03*
%TD*%
D20*
%TO.C,C16*%
X60775000Y-63750000D03*
X62325000Y-63750000D03*
%TD*%
D29*
%TO.C,D3*%
X94300000Y-51400000D03*
X96800000Y-51400000D03*
%TD*%
D42*
%TO.C,D4*%
X63950000Y-63750000D03*
X67250000Y-63750000D03*
%TD*%
D20*
%TO.C,C18*%
X76025000Y-81000000D03*
X77575000Y-81000000D03*
%TD*%
D15*
%TO.C,C6*%
X59100000Y-58125000D03*
X59100000Y-56575000D03*
%TD*%
D20*
%TO.C,C23*%
X79375000Y-55800000D03*
X80925000Y-55800000D03*
%TD*%
%TO.C,C11*%
X82875000Y-79600000D03*
X84425000Y-79600000D03*
%TD*%
D18*
%TO.C,ROK2*%
X82550000Y-57975000D03*
X82550000Y-59625000D03*
%TD*%
%TO.C,R2*%
X73350000Y-76125000D03*
X73350000Y-77775000D03*
%TD*%
D20*
%TO.C,C4*%
X86275000Y-76700000D03*
X87825000Y-76700000D03*
%TD*%
D18*
%TO.C,R13*%
X70000000Y-64425000D03*
X70000000Y-66075000D03*
%TD*%
D27*
%TO.C,C24*%
X96250000Y-57450000D03*
X94350000Y-57450000D03*
%TD*%
D18*
%TO.C,R1*%
X90850000Y-77375000D03*
X90850000Y-79025000D03*
%TD*%
D43*
%TO.C,D6*%
X69150000Y-61200000D03*
X69150000Y-57900000D03*
%TD*%
D44*
%TO.C,L1*%
X64400000Y-67100000D03*
X67200000Y-67100000D03*
%TD*%
D45*
%TO.C,Q1*%
X68200000Y-72387500D03*
X66300000Y-72387500D03*
X67250000Y-70512500D03*
%TD*%
D24*
%TO.C,C7*%
X85950000Y-50925000D03*
X85950000Y-52475000D03*
%TD*%
D46*
%TO.C,L3*%
X83150000Y-53150000D03*
X80950000Y-53150000D03*
%TD*%
D47*
%TO.C,Y1*%
X84300000Y-77850000D03*
X84300000Y-75350000D03*
%TD*%
D18*
%TO.C,ROUT1*%
X79350000Y-57225000D03*
X79350000Y-58875000D03*
%TD*%
D20*
%TO.C,C15*%
X56225000Y-65350000D03*
X57775000Y-65350000D03*
%TD*%
M02*
