%TF.GenerationSoftware,KiCad,Pcbnew,(6.0.2)*%
%TF.CreationDate,2022-04-09T16:32:05-06:00*%
%TF.ProjectId,SolarGPS,536f6c61-7247-4505-932e-6b696361645f,rev?*%
%TF.SameCoordinates,Original*%
%TF.FileFunction,Copper,L1,Top*%
%TF.FilePolarity,Positive*%
%FSLAX46Y46*%
G04 Gerber Fmt 4.6, Leading zero omitted, Abs format (unit mm)*
G04 Created by KiCad (PCBNEW (6.0.2)) date 2022-04-09 16:32:05*
%MOMM*%
%LPD*%
G01*
G04 APERTURE LIST*
G04 Aperture macros list*
%AMRoundRect*
0 Rectangle with rounded corners*
0 $1 Rounding radius*
0 $2 $3 $4 $5 $6 $7 $8 $9 X,Y pos of 4 corners*
0 Add a 4 corners polygon primitive as box body*
4,1,4,$2,$3,$4,$5,$6,$7,$8,$9,$2,$3,0*
0 Add four circle primitives for the rounded corners*
1,1,$1+$1,$2,$3*
1,1,$1+$1,$4,$5*
1,1,$1+$1,$6,$7*
1,1,$1+$1,$8,$9*
0 Add four rect primitives between the rounded corners*
20,1,$1+$1,$2,$3,$4,$5,0*
20,1,$1+$1,$4,$5,$6,$7,0*
20,1,$1+$1,$6,$7,$8,$9,0*
20,1,$1+$1,$8,$9,$2,$3,0*%
%AMOutline4P*
0 Free polygon, 4 corners , with rotation*
0 The origin of the aperture is its center*
0 number of corners: always 4*
0 $1 to $8 corner X, Y*
0 $9 Rotation angle, in degrees counterclockwise*
0 create outline with 4 corners*
4,1,4,$1,$2,$3,$4,$5,$6,$7,$8,$1,$2,$9*%
G04 Aperture macros list end*
%TA.AperFunction,SMDPad,CuDef*%
%ADD10RoundRect,0.243750X-0.243750X-0.456250X0.243750X-0.456250X0.243750X0.456250X-0.243750X0.456250X0*%
%TD*%
%TA.AperFunction,ComponentPad*%
%ADD11C,3.000000*%
%TD*%
%TA.AperFunction,SMDPad,CuDef*%
%ADD12RoundRect,0.147500X0.161973X0.158988X-0.131904X0.184699X-0.161973X-0.158988X0.131904X-0.184699X0*%
%TD*%
%TA.AperFunction,SMDPad,CuDef*%
%ADD13RoundRect,0.175000X0.175000X-0.725000X0.175000X0.725000X-0.175000X0.725000X-0.175000X-0.725000X0*%
%TD*%
%TA.AperFunction,SMDPad,CuDef*%
%ADD14RoundRect,0.200000X0.200000X-0.700000X0.200000X0.700000X-0.200000X0.700000X-0.200000X-0.700000X0*%
%TD*%
%TA.AperFunction,SMDPad,CuDef*%
%ADD15Outline4P,-0.400000X-0.325000X0.400000X-0.325000X0.400000X0.325000X-0.400000X0.325000X270.000000*%
%TD*%
%TA.AperFunction,SMDPad,CuDef*%
%ADD16Outline4P,-0.400000X-0.800000X0.400000X-0.800000X0.400000X0.800000X-0.400000X0.800000X270.000000*%
%TD*%
%TA.AperFunction,SMDPad,CuDef*%
%ADD17R,1.300000X0.300000*%
%TD*%
%TA.AperFunction,SMDPad,CuDef*%
%ADD18R,2.200000X1.800000*%
%TD*%
%TA.AperFunction,ConnectorPad*%
%ADD19C,0.787400*%
%TD*%
%TA.AperFunction,ComponentPad*%
%ADD20R,1.700000X1.700000*%
%TD*%
%TA.AperFunction,ComponentPad*%
%ADD21C,1.800000*%
%TD*%
%TA.AperFunction,ComponentPad*%
%ADD22O,1.700000X1.700000*%
%TD*%
%TA.AperFunction,ViaPad*%
%ADD23C,0.600000*%
%TD*%
%TA.AperFunction,ViaPad*%
%ADD24C,0.800000*%
%TD*%
%TA.AperFunction,Conductor*%
%ADD25C,0.300000*%
%TD*%
%TA.AperFunction,Conductor*%
%ADD26C,0.200000*%
%TD*%
%TA.AperFunction,Conductor*%
%ADD27C,0.350000*%
%TD*%
%TA.AperFunction,Conductor*%
%ADD28C,0.500000*%
%TD*%
G04 APERTURE END LIST*
D10*
%TO.P,D2,1,K*%
%TO.N,GND*%
X68362500Y-75150000D03*
%TO.P,D2,2,A*%
%TO.N,Net-(D2-Pad2)*%
X70237500Y-75150000D03*
%TD*%
D11*
%TO.P,J7,1,Pin_1*%
%TO.N,GND*%
X57000000Y-62250000D03*
X52000000Y-62250000D03*
X52000000Y-69750000D03*
X57000000Y-69750000D03*
%TD*%
D12*
%TO.P,C1,1*%
%TO.N,GND*%
X126733154Y-68292271D03*
%TO.P,C1,2*%
%TO.N,/GPS_RF*%
X125766846Y-68207729D03*
%TD*%
D13*
%TO.P,U2,1,GND*%
%TO.N,GND*%
X117900000Y-79750000D03*
D14*
%TO.P,U2,2,TXD*%
%TO.N,GPS_UART_MISO*%
X119000000Y-79750000D03*
%TO.P,U2,3,RXD*%
%TO.N,GPS_UART_MOSI*%
X120100000Y-79750000D03*
%TO.P,U2,4,TIMEPULSE*%
%TO.N,unconnected-(U2-Pad4)*%
X121200000Y-79750000D03*
%TO.P,U2,5,EXTINT*%
%TO.N,GPS_EXINT*%
X122300000Y-79750000D03*
%TO.P,U2,6,V_BCKP*%
%TO.N,VDD*%
X123400000Y-79750000D03*
%TO.P,U2,7,VCC_IO*%
X124500000Y-79750000D03*
%TO.P,U2,8,VCC*%
X125600000Y-79750000D03*
D13*
%TO.P,U2,9,~{RESET}*%
%TO.N,unconnected-(U2-Pad9)*%
X126700000Y-79750000D03*
%TO.P,U2,10,GND*%
%TO.N,GND*%
X126700000Y-70250000D03*
D14*
%TO.P,U2,11,RF_IN*%
%TO.N,/GPS_RF*%
X125600000Y-70250000D03*
%TO.P,U2,12,GND*%
%TO.N,GND*%
X124500000Y-70250000D03*
%TO.P,U2,13,LNA_EN*%
%TO.N,unconnected-(U2-Pad13)*%
X123400000Y-70250000D03*
%TO.P,U2,14,VCC_RF*%
%TO.N,unconnected-(U2-Pad14)*%
X122300000Y-70250000D03*
%TO.P,U2,15,Reserved*%
%TO.N,unconnected-(U2-Pad15)*%
X121200000Y-70250000D03*
%TO.P,U2,16,SDA*%
%TO.N,unconnected-(U2-Pad16)*%
X120100000Y-70250000D03*
%TO.P,U2,17,SCL*%
%TO.N,unconnected-(U2-Pad17)*%
X119000000Y-70250000D03*
D13*
%TO.P,U2,18,~{SAFEBOOT}*%
%TO.N,unconnected-(U2-Pad18)*%
X117900000Y-70250000D03*
%TD*%
D15*
%TO.P,AE1,1,A*%
%TO.N,/GPS_RF*%
X125900000Y-66600000D03*
%TO.P,AE1,2,Shield*%
%TO.N,GND*%
X126900000Y-66600000D03*
D16*
X126400000Y-63400000D03*
%TD*%
D17*
%TO.P,J1,1,Pin_1*%
%TO.N,unconnected-(J1-Pad1)*%
X60650000Y-71750000D03*
%TO.P,J1,2,Pin_2*%
%TO.N,/GDR*%
X60650000Y-71250000D03*
%TO.P,J1,3,Pin_3*%
%TO.N,/RESE*%
X60650000Y-70750000D03*
%TO.P,J1,4,Pin_4*%
%TO.N,unconnected-(J1-Pad4)*%
X60650000Y-70250000D03*
%TO.P,J1,5,Pin_5*%
%TO.N,/VSH2*%
X60650000Y-69750000D03*
%TO.P,J1,6,Pin_6*%
%TO.N,unconnected-(J1-Pad6)*%
X60650000Y-69250000D03*
%TO.P,J1,7,Pin_7*%
%TO.N,unconnected-(J1-Pad7)*%
X60650000Y-68750000D03*
%TO.P,J1,8,Pin_8*%
%TO.N,GND*%
X60650000Y-68250000D03*
%TO.P,J1,9,Pin_9*%
%TO.N,DISP_BUSY*%
X60650000Y-67750000D03*
%TO.P,J1,10,Pin_10*%
%TO.N,DISP_RES#*%
X60650000Y-67250000D03*
%TO.P,J1,11,Pin_11*%
%TO.N,DISP_DC*%
X60650000Y-66750000D03*
%TO.P,J1,12,Pin_12*%
%TO.N,DISP_CS*%
X60650000Y-66250000D03*
%TO.P,J1,13,Pin_13*%
%TO.N,SPI_CLK*%
X60650000Y-65750000D03*
%TO.P,J1,14,Pin_14*%
%TO.N,SPI_MOSI*%
X60650000Y-65250000D03*
%TO.P,J1,15,Pin_15*%
%TO.N,VDD*%
X60650000Y-64750000D03*
%TO.P,J1,16,Pin_16*%
X60650000Y-64250000D03*
%TO.P,J1,17,Pin_17*%
%TO.N,GND*%
X60650000Y-63750000D03*
%TO.P,J1,18,Pin_18*%
%TO.N,Net-(C16-Pad1)*%
X60650000Y-63250000D03*
%TO.P,J1,19,Pin_19*%
%TO.N,unconnected-(J1-Pad19)*%
X60650000Y-62750000D03*
%TO.P,J1,20,Pin_20*%
%TO.N,/VSH1*%
X60650000Y-62250000D03*
%TO.P,J1,21,Pin_21*%
%TO.N,/VGH*%
X60650000Y-61750000D03*
%TO.P,J1,22,Pin_22*%
%TO.N,/VSL*%
X60650000Y-61250000D03*
%TO.P,J1,23,Pin_23*%
%TO.N,/VGL*%
X60650000Y-60750000D03*
%TO.P,J1,24,Pin_24*%
%TO.N,/VCOM*%
X60650000Y-60250000D03*
D18*
%TO.P,J1,MP*%
%TO.N,N/C*%
X63900000Y-73650000D03*
X63900000Y-58350000D03*
%TD*%
D19*
%TO.P,J4,1,Pin_1*%
%TO.N,VDD*%
X61830000Y-79685000D03*
%TO.P,J4,2,Pin_2*%
%TO.N,/SWDIO*%
X61830000Y-78415000D03*
%TO.P,J4,3,Pin_3*%
%TO.N,RESET*%
X63100000Y-79685000D03*
%TO.P,J4,4,Pin_4*%
%TO.N,/SWDCLK*%
X63100000Y-78415000D03*
%TO.P,J4,5,Pin_5*%
%TO.N,GND*%
X64370000Y-79685000D03*
%TO.P,J4,6,Pin_6*%
%TO.N,unconnected-(J4-Pad6)*%
X64370000Y-78415000D03*
%TD*%
D20*
%TO.P,J2,1,Pin_1*%
%TO.N,GND*%
X57000000Y-80000000D03*
%TD*%
%TO.P,J3,1,Pin_1*%
%TO.N,GND*%
X57000000Y-52000000D03*
%TD*%
D21*
%TO.P,C8,1*%
%TO.N,VBAT*%
X74000000Y-68750000D03*
%TO.P,C8,2*%
%TO.N,GND*%
X74000000Y-63250000D03*
%TD*%
D20*
%TO.P,J6,1,Pin_1*%
%TO.N,Net-(D3-Pad2)*%
X115000000Y-52000000D03*
%TD*%
%TO.P,J5,1,Pin_1*%
%TO.N,Net-(D1-Pad2)*%
X115000000Y-80000000D03*
%TD*%
%TO.P,J8,1,Pin_1*%
%TO.N,VDD*%
X112525000Y-68750000D03*
D22*
%TO.P,J8,2,Pin_2*%
%TO.N,GPS_UART_MOSI*%
X112525000Y-71290000D03*
%TO.P,J8,3,Pin_3*%
%TO.N,GPS_UART_MISO*%
X112525000Y-73830000D03*
%TO.P,J8,4,Pin_4*%
%TO.N,GND*%
X112525000Y-76370000D03*
%TD*%
D23*
%TO.N,VDD*%
X64400000Y-65212456D03*
%TO.N,Net-(C16-Pad1)*%
X59350000Y-63250000D03*
%TO.N,GND*%
X122950000Y-62450000D03*
X122550000Y-51100000D03*
X77750000Y-66650000D03*
X67050000Y-79100000D03*
X86150000Y-56550000D03*
X89100000Y-75300000D03*
X97700000Y-57050000D03*
X126450000Y-62350000D03*
X73300000Y-73900000D03*
X54650000Y-66750000D03*
X75500000Y-52400000D03*
X84600000Y-50850000D03*
X77700000Y-50650000D03*
X62800000Y-69150000D03*
X97450000Y-54800000D03*
X82050000Y-50600000D03*
X75800000Y-59300000D03*
X77950000Y-59300000D03*
X92350000Y-76000000D03*
X98950000Y-80250000D03*
X83850000Y-61850000D03*
X122950000Y-65650000D03*
X124500000Y-67400000D03*
X89550000Y-70450000D03*
X76150000Y-75000000D03*
X68950000Y-59750000D03*
X117850000Y-81350000D03*
X77650000Y-54350000D03*
X60700000Y-55100000D03*
X127550000Y-70250000D03*
X124500000Y-68300000D03*
X89850000Y-61950000D03*
X106050000Y-55550000D03*
X123450000Y-67600000D03*
X67000000Y-75150000D03*
X96600000Y-71500000D03*
X63450000Y-56350000D03*
X78950000Y-62450000D03*
X89250000Y-55450000D03*
X101450000Y-76000000D03*
X64600000Y-70050000D03*
X104750000Y-80500000D03*
X116450000Y-69750000D03*
X127050000Y-53250000D03*
X125750000Y-50950000D03*
X97650000Y-57900000D03*
X110350000Y-66400000D03*
X105500000Y-76200000D03*
X70550000Y-61250000D03*
X65800000Y-58250000D03*
X54650000Y-65350000D03*
X73000000Y-64950000D03*
X81450000Y-68350000D03*
X89100000Y-68250000D03*
X124000000Y-62400000D03*
X118100000Y-51100000D03*
X106050000Y-72250000D03*
X127450000Y-62350000D03*
X96600000Y-59250000D03*
X65650000Y-64050000D03*
X92400000Y-79950000D03*
X83300000Y-55350000D03*
X127300000Y-57300000D03*
X125500000Y-62400000D03*
X94200000Y-77800000D03*
X87950000Y-79950000D03*
X123500000Y-68750000D03*
X89100000Y-57900000D03*
X85700000Y-79900000D03*
X122950000Y-63650000D03*
X89350000Y-77150000D03*
X57350000Y-56550000D03*
X110350000Y-60550000D03*
X86250000Y-70400000D03*
X97650000Y-55750000D03*
X110300000Y-54350000D03*
X127200000Y-59550000D03*
X122950000Y-66750000D03*
X122950000Y-64700000D03*
X84750000Y-53500000D03*
X68850000Y-64400000D03*
X106000000Y-65200000D03*
%TO.N,VDD*%
X59150000Y-64800000D03*
D24*
X73450000Y-60450000D03*
X61750000Y-80950000D03*
X124500000Y-81250000D03*
D23*
%TO.N,GPS_EXINT*%
X94700000Y-80900000D03*
X82300000Y-75300000D03*
X122250000Y-81300000D03*
%TO.N,DISP_CS*%
X77941500Y-72358404D03*
%TO.N,GPS_UART_MOSI*%
X109900000Y-77600000D03*
%TO.N,Net-(D2-Pad2)*%
X72250000Y-76150000D03*
%TO.N,VBAT*%
X85900000Y-53300000D03*
%TO.N,RESET*%
X81800000Y-78550000D03*
X78650000Y-80900000D03*
%TO.N,/SWDIO*%
X78950000Y-72150000D03*
%TO.N,SPI_MOSI*%
X83400000Y-73550000D03*
%TO.N,SPI_CLK*%
X81350000Y-73050000D03*
X87550000Y-75000000D03*
%TO.N,LIS_INT*%
X85300000Y-74200000D03*
X88000000Y-70400000D03*
%TO.N,Net-(D1-Pad2)*%
X108450000Y-80200000D03*
X108400000Y-53300000D03*
%TO.N,BOOT0*%
X89750000Y-79100000D03*
X82300000Y-76350000D03*
%TO.N,VSTOR*%
X87500000Y-53400000D03*
X90950000Y-56550000D03*
%TO.N,/SWDCLK*%
X79900000Y-71900000D03*
%TO.N,/VCOM*%
X60650000Y-59350000D03*
%TO.N,/VSL*%
X62750000Y-61050000D03*
%TO.N,/VSH1*%
X59500000Y-62300000D03*
%TO.N,/VGL*%
X62350000Y-60100000D03*
%TO.N,/VGH*%
X62800000Y-62400000D03*
%TO.N,DISP_BUSY*%
X75900000Y-77750000D03*
%TO.N,DISP_RES#*%
X76810832Y-73489072D03*
%TO.N,DISP_DC*%
X77000000Y-72550000D03*
%TO.N,/VSH2*%
X59050000Y-66900000D03*
%TO.N,/GDR*%
X67850000Y-72550000D03*
%TO.N,/RESE*%
X62700000Y-70400000D03*
%TO.N,VBAT_OK*%
X93200000Y-60850000D03*
X76900000Y-70000000D03*
X82100000Y-56300000D03*
%TD*%
D25*
%TO.N,VDD*%
X66487544Y-65212456D02*
X64400000Y-65212456D01*
X68450000Y-63250000D02*
X66487544Y-65212456D01*
X70650000Y-63250000D02*
X68450000Y-63250000D01*
X73450000Y-60450000D02*
X70650000Y-63250000D01*
D26*
%TO.N,SPI_CLK*%
X80099511Y-71099511D02*
X81350000Y-72350000D01*
X81350000Y-72350000D02*
X81350000Y-73050000D01*
X71734518Y-71099511D02*
X80099511Y-71099511D01*
X66806474Y-66171467D02*
X71734518Y-71099511D01*
X60650000Y-65750000D02*
X62327138Y-65750000D01*
X62327138Y-65750000D02*
X62748605Y-66171467D01*
X62748605Y-66171467D02*
X66806474Y-66171467D01*
%TO.N,DISP_CS*%
X77082118Y-71499022D02*
X77941500Y-72358404D01*
X71569036Y-71499022D02*
X77082118Y-71499022D01*
X66600992Y-66530978D02*
X71569036Y-71499022D01*
X62543123Y-66530978D02*
X66600992Y-66530978D01*
X62262145Y-66250000D02*
X62543123Y-66530978D01*
X60650000Y-66250000D02*
X62262145Y-66250000D01*
%TO.N,DISP_DC*%
X76348533Y-71898533D02*
X77000000Y-72550000D01*
X66395507Y-66890489D02*
X71403551Y-71898533D01*
X62337641Y-66890489D02*
X66395507Y-66890489D01*
X62197152Y-66750000D02*
X62337641Y-66890489D01*
X60650000Y-66750000D02*
X62197152Y-66750000D01*
X71403551Y-71898533D02*
X76348533Y-71898533D01*
%TO.N,DISP_RES#*%
X75619804Y-72298044D02*
X76810832Y-73489072D01*
X71238068Y-72298044D02*
X75619804Y-72298044D01*
X66190024Y-67250000D02*
X71238068Y-72298044D01*
X60650000Y-67250000D02*
X66190024Y-67250000D01*
%TO.N,SPI_MOSI*%
X62926252Y-65811956D02*
X62364296Y-65250000D01*
X71900000Y-70700000D02*
X67011956Y-65811956D01*
X82200000Y-70700000D02*
X71900000Y-70700000D01*
X83400000Y-71900000D02*
X82200000Y-70700000D01*
D25*
%TO.N,VDD*%
X63937544Y-64750000D02*
X64400000Y-65212456D01*
D26*
%TO.N,SPI_MOSI*%
X67011956Y-65811956D02*
X62926252Y-65811956D01*
X83400000Y-73550000D02*
X83400000Y-71900000D01*
X62364296Y-65250000D02*
X60650000Y-65250000D01*
D25*
%TO.N,VDD*%
X62500000Y-64750000D02*
X63937544Y-64750000D01*
D26*
%TO.N,DISP_BUSY*%
X65900000Y-67750000D02*
X75900000Y-77750000D01*
X60650000Y-67750000D02*
X65900000Y-67750000D01*
%TO.N,VDD*%
X62500000Y-64750000D02*
X62000000Y-64250000D01*
X60650000Y-64750000D02*
X62500000Y-64750000D01*
X62000000Y-64250000D02*
X60650000Y-64250000D01*
X60650000Y-64750000D02*
X59200000Y-64750000D01*
X59200000Y-64750000D02*
X59150000Y-64800000D01*
X59700000Y-64250000D02*
X59150000Y-64800000D01*
X60650000Y-64250000D02*
X59700000Y-64250000D01*
%TO.N,Net-(C16-Pad1)*%
X60650000Y-63250000D02*
X59350000Y-63250000D01*
D25*
%TO.N,VDD*%
X123400000Y-78500000D02*
X113650000Y-68750000D01*
D26*
X61750000Y-80950000D02*
X61750000Y-79765000D01*
D25*
X113650000Y-68750000D02*
X112525000Y-68750000D01*
X123400000Y-79750000D02*
X123400000Y-78500000D01*
D26*
X61750000Y-79765000D02*
X61830000Y-79685000D01*
D25*
X123400000Y-79750000D02*
X125600000Y-79750000D01*
D27*
X124500000Y-79750000D02*
X124500000Y-81250000D01*
D26*
%TO.N,GPS_EXINT*%
X82300000Y-75300000D02*
X85100000Y-78100000D01*
X122250000Y-79800000D02*
X122300000Y-79750000D01*
X122250000Y-81300000D02*
X122250000Y-79800000D01*
X91900000Y-78100000D02*
X94700000Y-80900000D01*
X85100000Y-78100000D02*
X91900000Y-78100000D01*
%TO.N,GPS_UART_MOSI*%
X109900000Y-77600000D02*
X109900000Y-73915000D01*
X109900000Y-73915000D02*
X112525000Y-71290000D01*
X120100000Y-79750000D02*
X120100000Y-76850000D01*
X120100000Y-76850000D02*
X114540000Y-71290000D01*
X114540000Y-71290000D02*
X112525000Y-71290000D01*
%TO.N,GPS_UART_MISO*%
X116515006Y-73830000D02*
X112525000Y-73830000D01*
X119000000Y-76314994D02*
X116515006Y-73830000D01*
X119000000Y-79750000D02*
X119000000Y-76314994D01*
%TO.N,Net-(D2-Pad2)*%
X71250000Y-75150000D02*
X70237500Y-75150000D01*
X72250000Y-76150000D02*
X71250000Y-75150000D01*
D28*
%TO.N,/GPS_RF*%
X125900000Y-66600000D02*
X125600000Y-70250000D01*
D25*
%TO.N,VBAT*%
X76650000Y-66100000D02*
X76650000Y-57050000D01*
X80900000Y-52800000D02*
X85400000Y-52800000D01*
X76650000Y-57050000D02*
X80900000Y-52800000D01*
X85400000Y-52800000D02*
X85900000Y-53300000D01*
X74000000Y-68750000D02*
X76650000Y-66100000D01*
D26*
%TO.N,RESET*%
X78650000Y-80900000D02*
X79450000Y-80900000D01*
X78550000Y-81000000D02*
X78650000Y-80900000D01*
X64200000Y-81000000D02*
X78550000Y-81000000D01*
X63100000Y-79685000D02*
X63100000Y-79900000D01*
X79450000Y-80900000D02*
X81800000Y-78550000D01*
X63100000Y-79900000D02*
X64200000Y-81000000D01*
%TO.N,/SWDIO*%
X61830000Y-78415000D02*
X63545000Y-76700000D01*
X63545000Y-76700000D02*
X66450000Y-76700000D01*
X66450000Y-76700000D02*
X69139101Y-79389101D01*
X78950000Y-77100000D02*
X78950000Y-72150000D01*
X76660899Y-79389101D02*
X78950000Y-77100000D01*
X69139101Y-79389101D02*
X76660899Y-79389101D01*
%TO.N,SPI_CLK*%
X83300000Y-75000000D02*
X87550000Y-75000000D01*
X81350000Y-73050000D02*
X83300000Y-75000000D01*
%TO.N,LIS_INT*%
X85300000Y-74200000D02*
X85300000Y-73100000D01*
X85300000Y-73100000D02*
X88000000Y-70400000D01*
D25*
%TO.N,Net-(D1-Pad2)*%
X108400000Y-80150000D02*
X108450000Y-80200000D01*
X108400000Y-53300000D02*
X108400000Y-80150000D01*
D26*
%TO.N,BOOT0*%
X85050000Y-79100000D02*
X89750000Y-79100000D01*
X82300000Y-76350000D02*
X85050000Y-79100000D01*
%TO.N,VSTOR*%
X89850000Y-53400000D02*
X87500000Y-53400000D01*
X90950000Y-56550000D02*
X90950000Y-54500000D01*
X90950000Y-54500000D02*
X89850000Y-53400000D01*
%TO.N,/SWDCLK*%
X69030185Y-79788611D02*
X76826383Y-79788611D01*
X79900000Y-76714994D02*
X79900000Y-71900000D01*
X76826383Y-79788611D02*
X79900000Y-76714994D01*
X64365000Y-77150000D02*
X66391574Y-77150000D01*
X66391574Y-77150000D02*
X69030185Y-79788611D01*
X63100000Y-78415000D02*
X64365000Y-77150000D01*
%TO.N,/VCOM*%
X60650000Y-60250000D02*
X60650000Y-59350000D01*
%TO.N,/VSL*%
X62550000Y-61250000D02*
X62750000Y-61050000D01*
X60650000Y-61250000D02*
X62550000Y-61250000D01*
%TO.N,/VSH1*%
X59550000Y-62250000D02*
X59500000Y-62300000D01*
X60650000Y-62250000D02*
X59550000Y-62250000D01*
%TO.N,/VGL*%
X60650000Y-60750000D02*
X61700000Y-60750000D01*
X61700000Y-60750000D02*
X62350000Y-60100000D01*
%TO.N,/VGH*%
X60650000Y-61750000D02*
X62150000Y-61750000D01*
X62150000Y-61750000D02*
X62800000Y-62400000D01*
%TO.N,/VSH2*%
X59350000Y-69349022D02*
X59350000Y-67200000D01*
X59750978Y-69750000D02*
X59350000Y-69349022D01*
X59350000Y-67200000D02*
X59050000Y-66900000D01*
X60650000Y-69750000D02*
X59750978Y-69750000D01*
%TO.N,/GDR*%
X66550000Y-71250000D02*
X67850000Y-72550000D01*
X60650000Y-71250000D02*
X66550000Y-71250000D01*
%TO.N,/RESE*%
X60650000Y-70750000D02*
X62350000Y-70750000D01*
X62350000Y-70750000D02*
X62700000Y-70400000D01*
%TO.N,VBAT_OK*%
X82100000Y-56300000D02*
X82100000Y-64800000D01*
X86650000Y-60850000D02*
X93200000Y-60850000D01*
X82100000Y-56300000D02*
X86650000Y-60850000D01*
X82100000Y-64800000D02*
X76900000Y-70000000D01*
%TD*%
%TA.AperFunction,Conductor*%
%TO.N,GND*%
G36*
X124985461Y-50201882D02*
G01*
X124991522Y-50203276D01*
X124991523Y-50203276D01*
X124999642Y-50205143D01*
X125007806Y-50203296D01*
X125028281Y-50201589D01*
X125144227Y-50208100D01*
X125309367Y-50217374D01*
X125317595Y-50218302D01*
X125618956Y-50269505D01*
X125627046Y-50271351D01*
X125920792Y-50355978D01*
X125928624Y-50358719D01*
X126211040Y-50475699D01*
X126218513Y-50479298D01*
X126486044Y-50627158D01*
X126493072Y-50631572D01*
X126742386Y-50808470D01*
X126748870Y-50813642D01*
X126976800Y-51017333D01*
X126982667Y-51023200D01*
X127186358Y-51251130D01*
X127191533Y-51257618D01*
X127368428Y-51506929D01*
X127372842Y-51513956D01*
X127520702Y-51781487D01*
X127524301Y-51788960D01*
X127592288Y-51953096D01*
X127641281Y-52071376D01*
X127644022Y-52079208D01*
X127728649Y-52372954D01*
X127730495Y-52381043D01*
X127781698Y-52682405D01*
X127782626Y-52690633D01*
X127798385Y-52971247D01*
X127796726Y-52990723D01*
X127796725Y-52991520D01*
X127794857Y-52999642D01*
X127796696Y-53007769D01*
X127796696Y-53007771D01*
X127798175Y-53014306D01*
X127800000Y-53030637D01*
X127800000Y-63776000D01*
X127782687Y-63823566D01*
X127738850Y-63848876D01*
X127726000Y-63850000D01*
X125824000Y-63850000D01*
X125776434Y-63832687D01*
X125751124Y-63788850D01*
X125750000Y-63776000D01*
X125750000Y-63050000D01*
X123400000Y-63050000D01*
X123400000Y-67050000D01*
X125327716Y-67050000D01*
X125375282Y-67067313D01*
X125389249Y-67082894D01*
X125391873Y-67086822D01*
X125404091Y-67133990D01*
X125348614Y-67808965D01*
X125338260Y-67841071D01*
X125306905Y-67893151D01*
X125291141Y-67959839D01*
X125290907Y-67962508D01*
X125290907Y-67962511D01*
X125256377Y-68357191D01*
X125255322Y-68369247D01*
X125259392Y-68438263D01*
X125278402Y-68487402D01*
X125284193Y-68502370D01*
X125288929Y-68535132D01*
X125240693Y-69122013D01*
X125238955Y-69143153D01*
X125217804Y-69189141D01*
X125198800Y-69203025D01*
X125161658Y-69221950D01*
X125101973Y-69281635D01*
X125056097Y-69303027D01*
X125007202Y-69289926D01*
X124997321Y-69281635D01*
X124942164Y-69226478D01*
X124932853Y-69219713D01*
X124830342Y-69167481D01*
X124819393Y-69163923D01*
X124734354Y-69150455D01*
X124728572Y-69150000D01*
X124640048Y-69150000D01*
X124630052Y-69153638D01*
X124627000Y-69158925D01*
X124627000Y-71336951D01*
X124630638Y-71346947D01*
X124635925Y-71349999D01*
X124728571Y-71349999D01*
X124734354Y-71349544D01*
X124819394Y-71336076D01*
X124830340Y-71332519D01*
X124932853Y-71280287D01*
X124942164Y-71273522D01*
X124997321Y-71218365D01*
X125043197Y-71196973D01*
X125092092Y-71210074D01*
X125101973Y-71218365D01*
X125161658Y-71278050D01*
X125166848Y-71280694D01*
X125166850Y-71280696D01*
X125269502Y-71333000D01*
X125269505Y-71333001D01*
X125274696Y-71335646D01*
X125280448Y-71336557D01*
X125280451Y-71336558D01*
X125365318Y-71349999D01*
X125368481Y-71350500D01*
X125600000Y-71350500D01*
X125831518Y-71350499D01*
X125834390Y-71350044D01*
X125834392Y-71350044D01*
X125866090Y-71345024D01*
X125925304Y-71335646D01*
X126020312Y-71287237D01*
X126033150Y-71280696D01*
X126033152Y-71280694D01*
X126038342Y-71278050D01*
X126115652Y-71200740D01*
X126161528Y-71179348D01*
X126210423Y-71192449D01*
X126220258Y-71200695D01*
X126299895Y-71280194D01*
X126309717Y-71287199D01*
X126411226Y-71336818D01*
X126422070Y-71340169D01*
X126486805Y-71349613D01*
X126492139Y-71350000D01*
X126559952Y-71350000D01*
X126569948Y-71346362D01*
X126573000Y-71341075D01*
X126573000Y-71336952D01*
X126827000Y-71336952D01*
X126830638Y-71346948D01*
X126835925Y-71350000D01*
X126907843Y-71350000D01*
X126913212Y-71349607D01*
X126978564Y-71339987D01*
X126989408Y-71336618D01*
X127090826Y-71286824D01*
X127100634Y-71279801D01*
X127180196Y-71200101D01*
X127187199Y-71190283D01*
X127236818Y-71088774D01*
X127240169Y-71077930D01*
X127249613Y-71013195D01*
X127250000Y-71007861D01*
X127250000Y-70390048D01*
X127246362Y-70380052D01*
X127241075Y-70377000D01*
X126840048Y-70377000D01*
X126830052Y-70380638D01*
X126827000Y-70385925D01*
X126827000Y-71336952D01*
X126573000Y-71336952D01*
X126573000Y-70109952D01*
X126827000Y-70109952D01*
X126830638Y-70119948D01*
X126835925Y-70123000D01*
X127236952Y-70123000D01*
X127246948Y-70119362D01*
X127250000Y-70114075D01*
X127250000Y-69492157D01*
X127249607Y-69486788D01*
X127239987Y-69421436D01*
X127236618Y-69410592D01*
X127186824Y-69309174D01*
X127179801Y-69299366D01*
X127100101Y-69219804D01*
X127090283Y-69212801D01*
X126988774Y-69163182D01*
X126977930Y-69159831D01*
X126913195Y-69150387D01*
X126907861Y-69150000D01*
X126840048Y-69150000D01*
X126830052Y-69153638D01*
X126827000Y-69158925D01*
X126827000Y-70109952D01*
X126573000Y-70109952D01*
X126573000Y-69163048D01*
X126569362Y-69153052D01*
X126564075Y-69150000D01*
X126492157Y-69150000D01*
X126486788Y-69150393D01*
X126421436Y-69160013D01*
X126410592Y-69163382D01*
X126309174Y-69213176D01*
X126299365Y-69220199D01*
X126264725Y-69254899D01*
X126218867Y-69276331D01*
X126169961Y-69263272D01*
X126140892Y-69221832D01*
X126138603Y-69196556D01*
X126138740Y-69194899D01*
X126187422Y-68602600D01*
X126197776Y-68570494D01*
X126223825Y-68527227D01*
X126226787Y-68522307D01*
X126242551Y-68455619D01*
X126243708Y-68442392D01*
X126278135Y-68048902D01*
X126278135Y-68048896D01*
X126278370Y-68046211D01*
X126274300Y-67977195D01*
X126251168Y-67917402D01*
X126246432Y-67884641D01*
X126300715Y-67224206D01*
X126321866Y-67178218D01*
X126333353Y-67168740D01*
X126363491Y-67148602D01*
X126369552Y-67144552D01*
X126373602Y-67138491D01*
X126409816Y-67084294D01*
X126409816Y-67084293D01*
X126413867Y-67078231D01*
X126425500Y-67019748D01*
X126425500Y-66324000D01*
X126442813Y-66276434D01*
X126486650Y-66251124D01*
X126499500Y-66250000D01*
X127726000Y-66250000D01*
X127773566Y-66267313D01*
X127798876Y-66311150D01*
X127800000Y-66324000D01*
X127800000Y-79968877D01*
X127798118Y-79985461D01*
X127794857Y-79999642D01*
X127796697Y-80007773D01*
X127796694Y-80009405D01*
X127798161Y-80028050D01*
X127784918Y-80230111D01*
X127783654Y-80239707D01*
X127779210Y-80262049D01*
X127742644Y-80445883D01*
X127739614Y-80461114D01*
X127737111Y-80470459D01*
X127666082Y-80679702D01*
X127664542Y-80684238D01*
X127660839Y-80693178D01*
X127617919Y-80780211D01*
X127560991Y-80895650D01*
X127556151Y-80904033D01*
X127430731Y-81091737D01*
X127424838Y-81099417D01*
X127365202Y-81167419D01*
X127275986Y-81269150D01*
X127269150Y-81275986D01*
X127184282Y-81350414D01*
X127099417Y-81424838D01*
X127091737Y-81430731D01*
X126904033Y-81556151D01*
X126895650Y-81560991D01*
X126876755Y-81570309D01*
X126715697Y-81649734D01*
X126693180Y-81660838D01*
X126684241Y-81664541D01*
X126470459Y-81737111D01*
X126461117Y-81739613D01*
X126376774Y-81756390D01*
X126239707Y-81783654D01*
X126230112Y-81784918D01*
X126028519Y-81798131D01*
X126011108Y-81796729D01*
X126008479Y-81796724D01*
X126000358Y-81794857D01*
X125992231Y-81796696D01*
X125992229Y-81796696D01*
X125985694Y-81798175D01*
X125969363Y-81800000D01*
X124984320Y-81800000D01*
X124936754Y-81782687D01*
X124911444Y-81738850D01*
X124920234Y-81689000D01*
X124928393Y-81678367D01*
X124928282Y-81678282D01*
X125021584Y-81556689D01*
X125021586Y-81556685D01*
X125024536Y-81552841D01*
X125085044Y-81406762D01*
X125085702Y-81401770D01*
X125105049Y-81254808D01*
X125105682Y-81250000D01*
X125099033Y-81199498D01*
X125085677Y-81098043D01*
X125085676Y-81098040D01*
X125085044Y-81093238D01*
X125024536Y-80947159D01*
X125021586Y-80943315D01*
X125021584Y-80943311D01*
X124953197Y-80854187D01*
X124937975Y-80805911D01*
X124959579Y-80756813D01*
X124997674Y-80718718D01*
X125043550Y-80697326D01*
X125092445Y-80710427D01*
X125102326Y-80718718D01*
X125161658Y-80778050D01*
X125166848Y-80780694D01*
X125166850Y-80780696D01*
X125269502Y-80833000D01*
X125269505Y-80833001D01*
X125274696Y-80835646D01*
X125280448Y-80836557D01*
X125280451Y-80836558D01*
X125365324Y-80850000D01*
X125368481Y-80850500D01*
X125600000Y-80850500D01*
X125831518Y-80850499D01*
X125834390Y-80850044D01*
X125834392Y-80850044D01*
X125866090Y-80845024D01*
X125925304Y-80835646D01*
X125989732Y-80802818D01*
X126033150Y-80780696D01*
X126033152Y-80780694D01*
X126038342Y-80778050D01*
X126115298Y-80701094D01*
X126161174Y-80679702D01*
X126210069Y-80692803D01*
X126219904Y-80701048D01*
X126265775Y-80746838D01*
X126303931Y-80784927D01*
X126376034Y-80820172D01*
X126411081Y-80837304D01*
X126411083Y-80837305D01*
X126416241Y-80839826D01*
X126421924Y-80840655D01*
X126485983Y-80850000D01*
X126489410Y-80850500D01*
X126910590Y-80850500D01*
X126916616Y-80849613D01*
X126922858Y-80848694D01*
X126984396Y-80839635D01*
X127096610Y-80784541D01*
X127184927Y-80696069D01*
X127220944Y-80622388D01*
X127237304Y-80588919D01*
X127237305Y-80588917D01*
X127239826Y-80583759D01*
X127250500Y-80510590D01*
X127250500Y-78989410D01*
X127239635Y-78915604D01*
X127184541Y-78803390D01*
X127096069Y-78715073D01*
X127008572Y-78672303D01*
X126988919Y-78662696D01*
X126988917Y-78662695D01*
X126983759Y-78660174D01*
X126934939Y-78653052D01*
X126913243Y-78649887D01*
X126910590Y-78649500D01*
X126489410Y-78649500D01*
X126486741Y-78649893D01*
X126486740Y-78649893D01*
X126483344Y-78650393D01*
X126415604Y-78660365D01*
X126303390Y-78715459D01*
X126220065Y-78798931D01*
X126174208Y-78820363D01*
X126125303Y-78807305D01*
X126115368Y-78798976D01*
X126038342Y-78721950D01*
X126033152Y-78719306D01*
X126033150Y-78719304D01*
X125930498Y-78667000D01*
X125930495Y-78666999D01*
X125925304Y-78664354D01*
X125919552Y-78663443D01*
X125919549Y-78663442D01*
X125834392Y-78649955D01*
X125831519Y-78649500D01*
X125828610Y-78649500D01*
X125600001Y-78649501D01*
X125368482Y-78649501D01*
X125365610Y-78649956D01*
X125365608Y-78649956D01*
X125346060Y-78653052D01*
X125274696Y-78664354D01*
X125226055Y-78689138D01*
X125166850Y-78719304D01*
X125166848Y-78719306D01*
X125161658Y-78721950D01*
X125102326Y-78781282D01*
X125056450Y-78802674D01*
X125007555Y-78789573D01*
X124997674Y-78781282D01*
X124938342Y-78721950D01*
X124933152Y-78719306D01*
X124933150Y-78719304D01*
X124830498Y-78667000D01*
X124830495Y-78666999D01*
X124825304Y-78664354D01*
X124819552Y-78663443D01*
X124819549Y-78663442D01*
X124734392Y-78649955D01*
X124731519Y-78649500D01*
X124728610Y-78649500D01*
X124500001Y-78649501D01*
X124268482Y-78649501D01*
X124265610Y-78649956D01*
X124265608Y-78649956D01*
X124246060Y-78653052D01*
X124174696Y-78664354D01*
X124126055Y-78689138D01*
X124066850Y-78719304D01*
X124066848Y-78719306D01*
X124061658Y-78721950D01*
X124002326Y-78781282D01*
X123956450Y-78802674D01*
X123907555Y-78789573D01*
X123897674Y-78781282D01*
X123838342Y-78721950D01*
X123790904Y-78697779D01*
X123756382Y-78660758D01*
X123750500Y-78631845D01*
X123750500Y-78545287D01*
X123752158Y-78529712D01*
X123753663Y-78522722D01*
X123753663Y-78522721D01*
X123754951Y-78516739D01*
X123753461Y-78504145D01*
X123751013Y-78483467D01*
X123750500Y-78474769D01*
X123750500Y-78470885D01*
X123747403Y-78452280D01*
X123746915Y-78448845D01*
X123741955Y-78406934D01*
X123741955Y-78406933D01*
X123741236Y-78400861D01*
X123738589Y-78395349D01*
X123738259Y-78394212D01*
X123738076Y-78393407D01*
X123737889Y-78392817D01*
X123737582Y-78392067D01*
X123737192Y-78390928D01*
X123736188Y-78384897D01*
X123713234Y-78342358D01*
X123711651Y-78339251D01*
X123692741Y-78299870D01*
X123692740Y-78299869D01*
X123690726Y-78295674D01*
X123687408Y-78291726D01*
X123686455Y-78290773D01*
X123683532Y-78287310D01*
X123680778Y-78282206D01*
X123643623Y-78247860D01*
X123641528Y-78245846D01*
X116406272Y-71010590D01*
X117349500Y-71010590D01*
X117360365Y-71084396D01*
X117415459Y-71196610D01*
X117503931Y-71284927D01*
X117559510Y-71312095D01*
X117611081Y-71337304D01*
X117611083Y-71337305D01*
X117616241Y-71339826D01*
X117621924Y-71340655D01*
X117685983Y-71350000D01*
X117689410Y-71350500D01*
X118110590Y-71350500D01*
X118113994Y-71349999D01*
X118119598Y-71349174D01*
X118184396Y-71339635D01*
X118296610Y-71284541D01*
X118379935Y-71201069D01*
X118425792Y-71179637D01*
X118474697Y-71192695D01*
X118484632Y-71201024D01*
X118561658Y-71278050D01*
X118566848Y-71280694D01*
X118566850Y-71280696D01*
X118669502Y-71333000D01*
X118669505Y-71333001D01*
X118674696Y-71335646D01*
X118680448Y-71336557D01*
X118680451Y-71336558D01*
X118765318Y-71349999D01*
X118768481Y-71350500D01*
X119000000Y-71350500D01*
X119231518Y-71350499D01*
X119234390Y-71350044D01*
X119234392Y-71350044D01*
X119266090Y-71345024D01*
X119325304Y-71335646D01*
X119420312Y-71287237D01*
X119433150Y-71280696D01*
X119433152Y-71280694D01*
X119438342Y-71278050D01*
X119497674Y-71218718D01*
X119543550Y-71197326D01*
X119592445Y-71210427D01*
X119602326Y-71218718D01*
X119661658Y-71278050D01*
X119666848Y-71280694D01*
X119666850Y-71280696D01*
X119769502Y-71333000D01*
X119769505Y-71333001D01*
X119774696Y-71335646D01*
X119780448Y-71336557D01*
X119780451Y-71336558D01*
X119865318Y-71349999D01*
X119868481Y-71350500D01*
X120100000Y-71350500D01*
X120331518Y-71350499D01*
X120334390Y-71350044D01*
X120334392Y-71350044D01*
X120366090Y-71345024D01*
X120425304Y-71335646D01*
X120520312Y-71287237D01*
X120533150Y-71280696D01*
X120533152Y-71280694D01*
X120538342Y-71278050D01*
X120597674Y-71218718D01*
X120643550Y-71197326D01*
X120692445Y-71210427D01*
X120702326Y-71218718D01*
X120761658Y-71278050D01*
X120766848Y-71280694D01*
X120766850Y-71280696D01*
X120869502Y-71333000D01*
X120869505Y-71333001D01*
X120874696Y-71335646D01*
X120880448Y-71336557D01*
X120880451Y-71336558D01*
X120965318Y-71349999D01*
X120968481Y-71350500D01*
X121200000Y-71350500D01*
X121431518Y-71350499D01*
X121434390Y-71350044D01*
X121434392Y-71350044D01*
X121466090Y-71345024D01*
X121525304Y-71335646D01*
X121620312Y-71287237D01*
X121633150Y-71280696D01*
X121633152Y-71280694D01*
X121638342Y-71278050D01*
X121697674Y-71218718D01*
X121743550Y-71197326D01*
X121792445Y-71210427D01*
X121802326Y-71218718D01*
X121861658Y-71278050D01*
X121866848Y-71280694D01*
X121866850Y-71280696D01*
X121969502Y-71333000D01*
X121969505Y-71333001D01*
X121974696Y-71335646D01*
X121980448Y-71336557D01*
X121980451Y-71336558D01*
X122065318Y-71349999D01*
X122068481Y-71350500D01*
X122300000Y-71350500D01*
X122531518Y-71350499D01*
X122534390Y-71350044D01*
X122534392Y-71350044D01*
X122566090Y-71345024D01*
X122625304Y-71335646D01*
X122720312Y-71287237D01*
X122733150Y-71280696D01*
X122733152Y-71280694D01*
X122738342Y-71278050D01*
X122797674Y-71218718D01*
X122843550Y-71197326D01*
X122892445Y-71210427D01*
X122902326Y-71218718D01*
X122961658Y-71278050D01*
X122966848Y-71280694D01*
X122966850Y-71280696D01*
X123069502Y-71333000D01*
X123069505Y-71333001D01*
X123074696Y-71335646D01*
X123080448Y-71336557D01*
X123080451Y-71336558D01*
X123165318Y-71349999D01*
X123168481Y-71350500D01*
X123400000Y-71350500D01*
X123631518Y-71350499D01*
X123634390Y-71350044D01*
X123634392Y-71350044D01*
X123666090Y-71345024D01*
X123725304Y-71335646D01*
X123820312Y-71287237D01*
X123833150Y-71280696D01*
X123833152Y-71280694D01*
X123838342Y-71278050D01*
X123898027Y-71218365D01*
X123943903Y-71196973D01*
X123992798Y-71210074D01*
X124002679Y-71218365D01*
X124057836Y-71273522D01*
X124067147Y-71280287D01*
X124169658Y-71332519D01*
X124180607Y-71336077D01*
X124265646Y-71349545D01*
X124271428Y-71350000D01*
X124359952Y-71350000D01*
X124369948Y-71346362D01*
X124373000Y-71341075D01*
X124373000Y-69163049D01*
X124369362Y-69153053D01*
X124364075Y-69150001D01*
X124271429Y-69150001D01*
X124265646Y-69150456D01*
X124180606Y-69163924D01*
X124169660Y-69167481D01*
X124067147Y-69219713D01*
X124057836Y-69226478D01*
X124002679Y-69281635D01*
X123956803Y-69303027D01*
X123907908Y-69289926D01*
X123898027Y-69281635D01*
X123838342Y-69221950D01*
X123833152Y-69219306D01*
X123833150Y-69219304D01*
X123730498Y-69167000D01*
X123730495Y-69166999D01*
X123725304Y-69164354D01*
X123719552Y-69163443D01*
X123719549Y-69163442D01*
X123634392Y-69149955D01*
X123631519Y-69149500D01*
X123628610Y-69149500D01*
X123400001Y-69149501D01*
X123168482Y-69149501D01*
X123165610Y-69149956D01*
X123165608Y-69149956D01*
X123142360Y-69153638D01*
X123074696Y-69164354D01*
X123035574Y-69184288D01*
X122966850Y-69219304D01*
X122966848Y-69219306D01*
X122961658Y-69221950D01*
X122902326Y-69281282D01*
X122856450Y-69302674D01*
X122807555Y-69289573D01*
X122797674Y-69281282D01*
X122738342Y-69221950D01*
X122733152Y-69219306D01*
X122733150Y-69219304D01*
X122630498Y-69167000D01*
X122630495Y-69166999D01*
X122625304Y-69164354D01*
X122619552Y-69163443D01*
X122619549Y-69163442D01*
X122534392Y-69149955D01*
X122531519Y-69149500D01*
X122528610Y-69149500D01*
X122300001Y-69149501D01*
X122068482Y-69149501D01*
X122065610Y-69149956D01*
X122065608Y-69149956D01*
X122042360Y-69153638D01*
X121974696Y-69164354D01*
X121935574Y-69184288D01*
X121866850Y-69219304D01*
X121866848Y-69219306D01*
X121861658Y-69221950D01*
X121802326Y-69281282D01*
X121756450Y-69302674D01*
X121707555Y-69289573D01*
X121697674Y-69281282D01*
X121638342Y-69221950D01*
X121633152Y-69219306D01*
X121633150Y-69219304D01*
X121530498Y-69167000D01*
X121530495Y-69166999D01*
X121525304Y-69164354D01*
X121519552Y-69163443D01*
X121519549Y-69163442D01*
X121434392Y-69149955D01*
X121431519Y-69149500D01*
X121428610Y-69149500D01*
X121200001Y-69149501D01*
X120968482Y-69149501D01*
X120965610Y-69149956D01*
X120965608Y-69149956D01*
X120942360Y-69153638D01*
X120874696Y-69164354D01*
X120835574Y-69184288D01*
X120766850Y-69219304D01*
X120766848Y-69219306D01*
X120761658Y-69221950D01*
X120702326Y-69281282D01*
X120656450Y-69302674D01*
X120607555Y-69289573D01*
X120597674Y-69281282D01*
X120538342Y-69221950D01*
X120533152Y-69219306D01*
X120533150Y-69219304D01*
X120430498Y-69167000D01*
X120430495Y-69166999D01*
X120425304Y-69164354D01*
X120419552Y-69163443D01*
X120419549Y-69163442D01*
X120334392Y-69149955D01*
X120331519Y-69149500D01*
X120328610Y-69149500D01*
X120100001Y-69149501D01*
X119868482Y-69149501D01*
X119865610Y-69149956D01*
X119865608Y-69149956D01*
X119842360Y-69153638D01*
X119774696Y-69164354D01*
X119735574Y-69184288D01*
X119666850Y-69219304D01*
X119666848Y-69219306D01*
X119661658Y-69221950D01*
X119602326Y-69281282D01*
X119556450Y-69302674D01*
X119507555Y-69289573D01*
X119497674Y-69281282D01*
X119438342Y-69221950D01*
X119433152Y-69219306D01*
X119433150Y-69219304D01*
X119330498Y-69167000D01*
X119330495Y-69166999D01*
X119325304Y-69164354D01*
X119319552Y-69163443D01*
X119319549Y-69163442D01*
X119234392Y-69149955D01*
X119231519Y-69149500D01*
X119228610Y-69149500D01*
X119000001Y-69149501D01*
X118768482Y-69149501D01*
X118765610Y-69149956D01*
X118765608Y-69149956D01*
X118742360Y-69153638D01*
X118674696Y-69164354D01*
X118635574Y-69184288D01*
X118566850Y-69219304D01*
X118566848Y-69219306D01*
X118561658Y-69221950D01*
X118484702Y-69298906D01*
X118438826Y-69320298D01*
X118389931Y-69307197D01*
X118380096Y-69298952D01*
X118334225Y-69253162D01*
X118296069Y-69215073D01*
X118206279Y-69171182D01*
X118188919Y-69162696D01*
X118188917Y-69162695D01*
X118183759Y-69160174D01*
X118117143Y-69150456D01*
X118113243Y-69149887D01*
X118110590Y-69149500D01*
X117689410Y-69149500D01*
X117686741Y-69149893D01*
X117686740Y-69149893D01*
X117683344Y-69150393D01*
X117615604Y-69160365D01*
X117503390Y-69215459D01*
X117415073Y-69303931D01*
X117407073Y-69320298D01*
X117368610Y-69398984D01*
X117360174Y-69416241D01*
X117349500Y-69489410D01*
X117349500Y-71010590D01*
X116406272Y-71010590D01*
X113929866Y-68534184D01*
X113920025Y-68521998D01*
X113916145Y-68515989D01*
X113916143Y-68515987D01*
X113912825Y-68510848D01*
X113886514Y-68490106D01*
X113880001Y-68484319D01*
X113877254Y-68481572D01*
X113874776Y-68479801D01*
X113874771Y-68479797D01*
X113861920Y-68470614D01*
X113859157Y-68468540D01*
X113821189Y-68438608D01*
X113815420Y-68436582D01*
X113814383Y-68436012D01*
X113813680Y-68435570D01*
X113813140Y-68435289D01*
X113812383Y-68434972D01*
X113811307Y-68434445D01*
X113806331Y-68430889D01*
X113760023Y-68417040D01*
X113756707Y-68415963D01*
X113749374Y-68413388D01*
X113711094Y-68399945D01*
X113705956Y-68399500D01*
X113704619Y-68399500D01*
X113700088Y-68399116D01*
X113694536Y-68397456D01*
X113688426Y-68397696D01*
X113688425Y-68397696D01*
X113652405Y-68399111D01*
X113604195Y-68383679D01*
X113577185Y-68340869D01*
X113575500Y-68325168D01*
X113575500Y-67880252D01*
X113563867Y-67821769D01*
X113523682Y-67761628D01*
X113523602Y-67761509D01*
X113519552Y-67755448D01*
X113453231Y-67711133D01*
X113408705Y-67702276D01*
X113398318Y-67700210D01*
X113398317Y-67700210D01*
X113394748Y-67699500D01*
X111655252Y-67699500D01*
X111651683Y-67700210D01*
X111651682Y-67700210D01*
X111641295Y-67702276D01*
X111596769Y-67711133D01*
X111530448Y-67755448D01*
X111526398Y-67761509D01*
X111526319Y-67761628D01*
X111486133Y-67821769D01*
X111474500Y-67880252D01*
X111474500Y-69619748D01*
X111486133Y-69678231D01*
X111530448Y-69744552D01*
X111596769Y-69788867D01*
X111641295Y-69797724D01*
X111651682Y-69799790D01*
X111651683Y-69799790D01*
X111655252Y-69800500D01*
X113394748Y-69800500D01*
X113398317Y-69799790D01*
X113398318Y-69799790D01*
X113408705Y-69797724D01*
X113453231Y-69788867D01*
X113519552Y-69744552D01*
X113563867Y-69678231D01*
X113575500Y-69619748D01*
X113575500Y-69349834D01*
X113592813Y-69302268D01*
X113636650Y-69276958D01*
X113686500Y-69285748D01*
X113701826Y-69297508D01*
X122998685Y-78594367D01*
X123020077Y-78640243D01*
X123006976Y-78689138D01*
X122979956Y-78712626D01*
X122968407Y-78718511D01*
X122961658Y-78721950D01*
X122902326Y-78781282D01*
X122856450Y-78802674D01*
X122807555Y-78789573D01*
X122797674Y-78781282D01*
X122738342Y-78721950D01*
X122733152Y-78719306D01*
X122733150Y-78719304D01*
X122630498Y-78667000D01*
X122630495Y-78666999D01*
X122625304Y-78664354D01*
X122619552Y-78663443D01*
X122619549Y-78663442D01*
X122534392Y-78649955D01*
X122531519Y-78649500D01*
X122528610Y-78649500D01*
X122300001Y-78649501D01*
X122068482Y-78649501D01*
X122065610Y-78649956D01*
X122065608Y-78649956D01*
X122046060Y-78653052D01*
X121974696Y-78664354D01*
X121926055Y-78689138D01*
X121866850Y-78719304D01*
X121866848Y-78719306D01*
X121861658Y-78721950D01*
X121802326Y-78781282D01*
X121756450Y-78802674D01*
X121707555Y-78789573D01*
X121697674Y-78781282D01*
X121638342Y-78721950D01*
X121633152Y-78719306D01*
X121633150Y-78719304D01*
X121530498Y-78667000D01*
X121530495Y-78666999D01*
X121525304Y-78664354D01*
X121519552Y-78663443D01*
X121519549Y-78663442D01*
X121434392Y-78649955D01*
X121431519Y-78649500D01*
X121428610Y-78649500D01*
X121200001Y-78649501D01*
X120968482Y-78649501D01*
X120965610Y-78649956D01*
X120965608Y-78649956D01*
X120946060Y-78653052D01*
X120874696Y-78664354D01*
X120826055Y-78689138D01*
X120766850Y-78719304D01*
X120766848Y-78719306D01*
X120761658Y-78721950D01*
X120702326Y-78781282D01*
X120656450Y-78802674D01*
X120607555Y-78789573D01*
X120597674Y-78781282D01*
X120538342Y-78721950D01*
X120533152Y-78719306D01*
X120533150Y-78719304D01*
X120440905Y-78672303D01*
X120406383Y-78635283D01*
X120400500Y-78606369D01*
X120400500Y-76904567D01*
X120400902Y-76899094D01*
X120402425Y-76894658D01*
X120400658Y-76847569D01*
X120400552Y-76844758D01*
X120400500Y-76841982D01*
X120400500Y-76822052D01*
X120399876Y-76818700D01*
X120399563Y-76815309D01*
X120399753Y-76815291D01*
X120399294Y-76811242D01*
X120398226Y-76782791D01*
X120395530Y-76776516D01*
X120395529Y-76776512D01*
X120392584Y-76769658D01*
X120387825Y-76753995D01*
X120386460Y-76746664D01*
X120386460Y-76746663D01*
X120385209Y-76739947D01*
X120381624Y-76734132D01*
X120381623Y-76734128D01*
X120370270Y-76715710D01*
X120365274Y-76706093D01*
X120356099Y-76684738D01*
X120356098Y-76684736D01*
X120354036Y-76679937D01*
X120350022Y-76675051D01*
X120343591Y-76668620D01*
X120332923Y-76655124D01*
X120330053Y-76650468D01*
X120326468Y-76644652D01*
X120301888Y-76625961D01*
X120294354Y-76619383D01*
X114791070Y-71116099D01*
X114787485Y-71111946D01*
X114785425Y-71107731D01*
X114748818Y-71073773D01*
X114746819Y-71071848D01*
X114732723Y-71057752D01*
X114729912Y-71055824D01*
X114727293Y-71053647D01*
X114727403Y-71053515D01*
X114724227Y-71050961D01*
X114708364Y-71036246D01*
X114708363Y-71036245D01*
X114703354Y-71031599D01*
X114697012Y-71029069D01*
X114697006Y-71029065D01*
X114690077Y-71026301D01*
X114675641Y-71018593D01*
X114669493Y-71014376D01*
X114669492Y-71014375D01*
X114663854Y-71010508D01*
X114657204Y-71008930D01*
X114657202Y-71008929D01*
X114636160Y-71003936D01*
X114625824Y-71000668D01*
X114614740Y-70996246D01*
X114599378Y-70990117D01*
X114593085Y-70989500D01*
X114583988Y-70989500D01*
X114566901Y-70987500D01*
X114561585Y-70986238D01*
X114561583Y-70986238D01*
X114554934Y-70984660D01*
X114534066Y-70987500D01*
X114524337Y-70988824D01*
X114514358Y-70989500D01*
X113586614Y-70989500D01*
X113539048Y-70972187D01*
X113515773Y-70936889D01*
X113501983Y-70891217D01*
X113501980Y-70891209D01*
X113500935Y-70887749D01*
X113404218Y-70705849D01*
X113274011Y-70546200D01*
X113136193Y-70432187D01*
X113118070Y-70417194D01*
X113118069Y-70417193D01*
X113115275Y-70414882D01*
X113111203Y-70412680D01*
X112937238Y-70318618D01*
X112934055Y-70316897D01*
X112930605Y-70315829D01*
X112930600Y-70315827D01*
X112760901Y-70263297D01*
X112737254Y-70255977D01*
X112532369Y-70234443D01*
X112528765Y-70234771D01*
X112528764Y-70234771D01*
X112528215Y-70234821D01*
X112327203Y-70253114D01*
X112292604Y-70263297D01*
X112133043Y-70310258D01*
X112133039Y-70310260D01*
X112129572Y-70311280D01*
X112033633Y-70361436D01*
X111950209Y-70405049D01*
X111950206Y-70405051D01*
X111947002Y-70406726D01*
X111944184Y-70408992D01*
X111944182Y-70408993D01*
X111789266Y-70533548D01*
X111789263Y-70533551D01*
X111786447Y-70535815D01*
X111784121Y-70538587D01*
X111784119Y-70538589D01*
X111656351Y-70690856D01*
X111656348Y-70690860D01*
X111654024Y-70693630D01*
X111554776Y-70874162D01*
X111553682Y-70877611D01*
X111495774Y-71060162D01*
X111492484Y-71070532D01*
X111492081Y-71074123D01*
X111492081Y-71074124D01*
X111491794Y-71076682D01*
X111469520Y-71275262D01*
X111469823Y-71278871D01*
X111469823Y-71278873D01*
X111484481Y-71453430D01*
X111486759Y-71480553D01*
X111543544Y-71678586D01*
X111545196Y-71681800D01*
X111545197Y-71681803D01*
X111575874Y-71741494D01*
X111582218Y-71791714D01*
X111562383Y-71827645D01*
X109726099Y-73663930D01*
X109721946Y-73667515D01*
X109717731Y-73669575D01*
X109686045Y-73703733D01*
X109683774Y-73706181D01*
X109681848Y-73708181D01*
X109667752Y-73722277D01*
X109665824Y-73725088D01*
X109663647Y-73727707D01*
X109663515Y-73727597D01*
X109660961Y-73730773D01*
X109641599Y-73751646D01*
X109639069Y-73757988D01*
X109639065Y-73757994D01*
X109636301Y-73764923D01*
X109628593Y-73779359D01*
X109624376Y-73785507D01*
X109620508Y-73791146D01*
X109618930Y-73797796D01*
X109618929Y-73797798D01*
X109613936Y-73818840D01*
X109610668Y-73829176D01*
X109600117Y-73855622D01*
X109599500Y-73861915D01*
X109599500Y-73871012D01*
X109597500Y-73888098D01*
X109594660Y-73900066D01*
X109595582Y-73906839D01*
X109598824Y-73930663D01*
X109599500Y-73940642D01*
X109599500Y-77158553D01*
X109582187Y-77206119D01*
X109575379Y-77212975D01*
X109572280Y-77214930D01*
X109542163Y-77249031D01*
X109506445Y-77289475D01*
X109477377Y-77322388D01*
X109416447Y-77452163D01*
X109415637Y-77457368D01*
X109415636Y-77457370D01*
X109412491Y-77477572D01*
X109394391Y-77593823D01*
X109395074Y-77599046D01*
X109395074Y-77599049D01*
X109397183Y-77615177D01*
X109412980Y-77735979D01*
X109470720Y-77867203D01*
X109483792Y-77882754D01*
X109559580Y-77972916D01*
X109559583Y-77972919D01*
X109562970Y-77976948D01*
X109600844Y-78002159D01*
X109677924Y-78053469D01*
X109677927Y-78053470D01*
X109682313Y-78056390D01*
X109819157Y-78099142D01*
X109824425Y-78099239D01*
X109824428Y-78099239D01*
X109884733Y-78100344D01*
X109962499Y-78101770D01*
X109967582Y-78100384D01*
X109967584Y-78100384D01*
X110095727Y-78065448D01*
X110095729Y-78065447D01*
X110100817Y-78064060D01*
X110201633Y-78002159D01*
X110218498Y-77991804D01*
X110218499Y-77991803D01*
X110222991Y-77989045D01*
X110319200Y-77882754D01*
X110381710Y-77753733D01*
X110405496Y-77612354D01*
X110405647Y-77600000D01*
X110394463Y-77521903D01*
X110386070Y-77463297D01*
X110386070Y-77463296D01*
X110385323Y-77458082D01*
X110363824Y-77410796D01*
X110328166Y-77332371D01*
X110325984Y-77327572D01*
X110232400Y-77218963D01*
X110227973Y-77216093D01*
X110225854Y-77214245D01*
X110201391Y-77169930D01*
X110200500Y-77158481D01*
X110200500Y-76504792D01*
X111482577Y-76504792D01*
X111486949Y-76556854D01*
X111488250Y-76563942D01*
X111543013Y-76754922D01*
X111545663Y-76761617D01*
X111636479Y-76938326D01*
X111640384Y-76944384D01*
X111763789Y-77100083D01*
X111768794Y-77105267D01*
X111920094Y-77234032D01*
X111926013Y-77238146D01*
X112099440Y-77335072D01*
X112106041Y-77337955D01*
X112294991Y-77399348D01*
X112302036Y-77400897D01*
X112385043Y-77410796D01*
X112395399Y-77408367D01*
X112398000Y-77404891D01*
X112398000Y-77400329D01*
X112652000Y-77400329D01*
X112655638Y-77410325D01*
X112659875Y-77412771D01*
X112704603Y-77409330D01*
X112711701Y-77408078D01*
X112903062Y-77354649D01*
X112909770Y-77352047D01*
X113087107Y-77262468D01*
X113093195Y-77258604D01*
X113249751Y-77136289D01*
X113254970Y-77131319D01*
X113384791Y-76980920D01*
X113388939Y-76975040D01*
X113487078Y-76802283D01*
X113490006Y-76795708D01*
X113552719Y-76607189D01*
X113554316Y-76600155D01*
X113565713Y-76509946D01*
X113563356Y-76499573D01*
X113559966Y-76497000D01*
X112665048Y-76497000D01*
X112655052Y-76500638D01*
X112652000Y-76505925D01*
X112652000Y-77400329D01*
X112398000Y-77400329D01*
X112398000Y-76510048D01*
X112394362Y-76500052D01*
X112389075Y-76497000D01*
X111494971Y-76497000D01*
X111484975Y-76500638D01*
X111482577Y-76504792D01*
X110200500Y-76504792D01*
X110200500Y-76230034D01*
X111484069Y-76230034D01*
X111486571Y-76240372D01*
X111490136Y-76243000D01*
X112384952Y-76243000D01*
X112394948Y-76239362D01*
X112398000Y-76234075D01*
X112398000Y-76229952D01*
X112652000Y-76229952D01*
X112655638Y-76239948D01*
X112660925Y-76243000D01*
X113554580Y-76243000D01*
X113564576Y-76239362D01*
X113566880Y-76235371D01*
X113560340Y-76168669D01*
X113558941Y-76161602D01*
X113501516Y-75971403D01*
X113498772Y-75964745D01*
X113405498Y-75789322D01*
X113401512Y-75783323D01*
X113275942Y-75629358D01*
X113270866Y-75624247D01*
X113117789Y-75497610D01*
X113111804Y-75493573D01*
X112937043Y-75399081D01*
X112930405Y-75396290D01*
X112740612Y-75337540D01*
X112733552Y-75336091D01*
X112664977Y-75328883D01*
X112654657Y-75331456D01*
X112652000Y-75335113D01*
X112652000Y-76229952D01*
X112398000Y-76229952D01*
X112398000Y-75340221D01*
X112394362Y-75330225D01*
X112390290Y-75327875D01*
X112330912Y-75333278D01*
X112323818Y-75334631D01*
X112133231Y-75390724D01*
X112126555Y-75393422D01*
X111950483Y-75485469D01*
X111944456Y-75489413D01*
X111789619Y-75613906D01*
X111784471Y-75618947D01*
X111656765Y-75771140D01*
X111652696Y-75777083D01*
X111556980Y-75951191D01*
X111554144Y-75957808D01*
X111494071Y-76147181D01*
X111492571Y-76154237D01*
X111484069Y-76230034D01*
X110200500Y-76230034D01*
X110200500Y-74070123D01*
X110217813Y-74022557D01*
X110222174Y-74017797D01*
X111986023Y-72253948D01*
X112031899Y-72232556D01*
X112074451Y-72241678D01*
X112099239Y-72255532D01*
X112099243Y-72255534D01*
X112102398Y-72257297D01*
X112105834Y-72258414D01*
X112105840Y-72258416D01*
X112215121Y-72293923D01*
X112298329Y-72320959D01*
X112362176Y-72328572D01*
X112499294Y-72344922D01*
X112499297Y-72344922D01*
X112502894Y-72345351D01*
X112571714Y-72340056D01*
X112704689Y-72329824D01*
X112704691Y-72329824D01*
X112708300Y-72329546D01*
X112877263Y-72282371D01*
X112903244Y-72275117D01*
X112903245Y-72275117D01*
X112906725Y-72274145D01*
X112915610Y-72269657D01*
X113087376Y-72182892D01*
X113087379Y-72182890D01*
X113090610Y-72181258D01*
X113252951Y-72054424D01*
X113272680Y-72031568D01*
X113385201Y-71901210D01*
X113385203Y-71901208D01*
X113387564Y-71898472D01*
X113389347Y-71895333D01*
X113389350Y-71895329D01*
X113449215Y-71789947D01*
X113489323Y-71719344D01*
X113515338Y-71641141D01*
X113546781Y-71601472D01*
X113585555Y-71590500D01*
X114384877Y-71590500D01*
X114432443Y-71607813D01*
X114437203Y-71612174D01*
X116228203Y-73403174D01*
X116249595Y-73449050D01*
X116236494Y-73497945D01*
X116195030Y-73526979D01*
X116175877Y-73529500D01*
X113586614Y-73529500D01*
X113539048Y-73512187D01*
X113515773Y-73476889D01*
X113501983Y-73431217D01*
X113501980Y-73431209D01*
X113500935Y-73427749D01*
X113404218Y-73245849D01*
X113274011Y-73086200D01*
X113174007Y-73003469D01*
X113118070Y-72957194D01*
X113118069Y-72957193D01*
X113115275Y-72954882D01*
X113106104Y-72949923D01*
X112937238Y-72858618D01*
X112934055Y-72856897D01*
X112930605Y-72855829D01*
X112930600Y-72855827D01*
X112798042Y-72814794D01*
X112737254Y-72795977D01*
X112532369Y-72774443D01*
X112528765Y-72774771D01*
X112528764Y-72774771D01*
X112445252Y-72782371D01*
X112327203Y-72793114D01*
X112278247Y-72807522D01*
X112133043Y-72850258D01*
X112133039Y-72850260D01*
X112129572Y-72851280D01*
X112041363Y-72897395D01*
X111950209Y-72945049D01*
X111950206Y-72945051D01*
X111947002Y-72946726D01*
X111944184Y-72948992D01*
X111944182Y-72948993D01*
X111789266Y-73073548D01*
X111789263Y-73073551D01*
X111786447Y-73075815D01*
X111784121Y-73078587D01*
X111784119Y-73078589D01*
X111656351Y-73230856D01*
X111656348Y-73230860D01*
X111654024Y-73233630D01*
X111554776Y-73414162D01*
X111553682Y-73417611D01*
X111504342Y-73573152D01*
X111492484Y-73610532D01*
X111492081Y-73614123D01*
X111492081Y-73614124D01*
X111488864Y-73642805D01*
X111469520Y-73815262D01*
X111469823Y-73818871D01*
X111469823Y-73818873D01*
X111484148Y-73989456D01*
X111486759Y-74020553D01*
X111543544Y-74218586D01*
X111545196Y-74221800D01*
X111545197Y-74221803D01*
X111610326Y-74348531D01*
X111637712Y-74401818D01*
X111765677Y-74563270D01*
X111768430Y-74565613D01*
X111768433Y-74565616D01*
X111799062Y-74591683D01*
X111922564Y-74696791D01*
X111969266Y-74722892D01*
X112099239Y-74795532D01*
X112099243Y-74795534D01*
X112102398Y-74797297D01*
X112105834Y-74798414D01*
X112105840Y-74798416D01*
X112209778Y-74832187D01*
X112298329Y-74860959D01*
X112362176Y-74868572D01*
X112499294Y-74884922D01*
X112499297Y-74884922D01*
X112502894Y-74885351D01*
X112590723Y-74878593D01*
X112704689Y-74869824D01*
X112704691Y-74869824D01*
X112708300Y-74869546D01*
X112906725Y-74814145D01*
X112933777Y-74800480D01*
X113087376Y-74722892D01*
X113087379Y-74722890D01*
X113090610Y-74721258D01*
X113252951Y-74594424D01*
X113335264Y-74499063D01*
X113385201Y-74441210D01*
X113385203Y-74441208D01*
X113387564Y-74438472D01*
X113389347Y-74435333D01*
X113389350Y-74435329D01*
X113445788Y-74335979D01*
X113489323Y-74259344D01*
X113515338Y-74181141D01*
X113546781Y-74141472D01*
X113585555Y-74130500D01*
X116359883Y-74130500D01*
X116407449Y-74147813D01*
X116412209Y-74152174D01*
X118677826Y-76417792D01*
X118699218Y-76463668D01*
X118699500Y-76470118D01*
X118699500Y-78606369D01*
X118682187Y-78653935D01*
X118659095Y-78672303D01*
X118566850Y-78719304D01*
X118566848Y-78719306D01*
X118561658Y-78721950D01*
X118484348Y-78799260D01*
X118438472Y-78820652D01*
X118389577Y-78807551D01*
X118379742Y-78799305D01*
X118300105Y-78719806D01*
X118290283Y-78712801D01*
X118188774Y-78663182D01*
X118177930Y-78659831D01*
X118113195Y-78650387D01*
X118107861Y-78650000D01*
X118040048Y-78650000D01*
X118030052Y-78653638D01*
X118027000Y-78658925D01*
X118027000Y-80836952D01*
X118030638Y-80846948D01*
X118035925Y-80850000D01*
X118107843Y-80850000D01*
X118113212Y-80849607D01*
X118178564Y-80839987D01*
X118189408Y-80836618D01*
X118290826Y-80786824D01*
X118300638Y-80779799D01*
X118379582Y-80700717D01*
X118425439Y-80679284D01*
X118474345Y-80692343D01*
X118484279Y-80700671D01*
X118561658Y-80778050D01*
X118566848Y-80780694D01*
X118566850Y-80780696D01*
X118669502Y-80833000D01*
X118669505Y-80833001D01*
X118674696Y-80835646D01*
X118680448Y-80836557D01*
X118680451Y-80836558D01*
X118765324Y-80850000D01*
X118768481Y-80850500D01*
X119000000Y-80850500D01*
X119231518Y-80850499D01*
X119234390Y-80850044D01*
X119234392Y-80850044D01*
X119266090Y-80845024D01*
X119325304Y-80835646D01*
X119389732Y-80802818D01*
X119433150Y-80780696D01*
X119433152Y-80780694D01*
X119438342Y-80778050D01*
X119497674Y-80718718D01*
X119543550Y-80697326D01*
X119592445Y-80710427D01*
X119602326Y-80718718D01*
X119661658Y-80778050D01*
X119666848Y-80780694D01*
X119666850Y-80780696D01*
X119769502Y-80833000D01*
X119769505Y-80833001D01*
X119774696Y-80835646D01*
X119780448Y-80836557D01*
X119780451Y-80836558D01*
X119865324Y-80850000D01*
X119868481Y-80850500D01*
X120100000Y-80850500D01*
X120331518Y-80850499D01*
X120334390Y-80850044D01*
X120334392Y-80850044D01*
X120366090Y-80845024D01*
X120425304Y-80835646D01*
X120489732Y-80802818D01*
X120533150Y-80780696D01*
X120533152Y-80780694D01*
X120538342Y-80778050D01*
X120597674Y-80718718D01*
X120643550Y-80697326D01*
X120692445Y-80710427D01*
X120702326Y-80718718D01*
X120761658Y-80778050D01*
X120766848Y-80780694D01*
X120766850Y-80780696D01*
X120869502Y-80833000D01*
X120869505Y-80833001D01*
X120874696Y-80835646D01*
X120880448Y-80836557D01*
X120880451Y-80836558D01*
X120965324Y-80850000D01*
X120968481Y-80850500D01*
X121200000Y-80850500D01*
X121431518Y-80850499D01*
X121434390Y-80850044D01*
X121434392Y-80850044D01*
X121466090Y-80845024D01*
X121525304Y-80835646D01*
X121589732Y-80802818D01*
X121633150Y-80780696D01*
X121633152Y-80780694D01*
X121638342Y-80778050D01*
X121697674Y-80718718D01*
X121743550Y-80697326D01*
X121792445Y-80710427D01*
X121802326Y-80718718D01*
X121861658Y-80778050D01*
X121902039Y-80798626D01*
X121936561Y-80835645D01*
X121939209Y-80886195D01*
X121921046Y-80913841D01*
X121922280Y-80914930D01*
X121832301Y-81016813D01*
X121827377Y-81022388D01*
X121766447Y-81152163D01*
X121765637Y-81157368D01*
X121765636Y-81157370D01*
X121759695Y-81195528D01*
X121744391Y-81293823D01*
X121745074Y-81299046D01*
X121745074Y-81299049D01*
X121747183Y-81315177D01*
X121762980Y-81435979D01*
X121820720Y-81567203D01*
X121824112Y-81571238D01*
X121912970Y-81676948D01*
X121911289Y-81678361D01*
X121931174Y-81715447D01*
X121920821Y-81764996D01*
X121881041Y-81796298D01*
X121857930Y-81800000D01*
X51031124Y-81800000D01*
X51014540Y-81798118D01*
X51014231Y-81798047D01*
X51000359Y-81794857D01*
X50992230Y-81796697D01*
X50983898Y-81796682D01*
X50983898Y-81796582D01*
X50972505Y-81797292D01*
X50937322Y-81793827D01*
X50851181Y-81785342D01*
X50836954Y-81782512D01*
X50750841Y-81756390D01*
X50700822Y-81741217D01*
X50687430Y-81735669D01*
X50561969Y-81668609D01*
X50549913Y-81660553D01*
X50536730Y-81649734D01*
X50439947Y-81570307D01*
X50429691Y-81560051D01*
X50426491Y-81556151D01*
X50339447Y-81450087D01*
X50331391Y-81438031D01*
X50264331Y-81312570D01*
X50258782Y-81299175D01*
X50258175Y-81297172D01*
X50239725Y-81236353D01*
X50217488Y-81163046D01*
X50214658Y-81148819D01*
X50203828Y-81038867D01*
X50202753Y-81027951D01*
X50203466Y-81016813D01*
X50203261Y-81016813D01*
X50203276Y-81008478D01*
X50205143Y-81000357D01*
X50201825Y-80985693D01*
X50200000Y-80969362D01*
X50200000Y-80866058D01*
X55950000Y-80866058D01*
X55950710Y-80873268D01*
X55960182Y-80920890D01*
X55965652Y-80934094D01*
X56001759Y-80988132D01*
X56011868Y-80998241D01*
X56065906Y-81034348D01*
X56079110Y-81039818D01*
X56126732Y-81049290D01*
X56133942Y-81050000D01*
X56859952Y-81050000D01*
X56869948Y-81046362D01*
X56873000Y-81041075D01*
X56873000Y-81036952D01*
X57127000Y-81036952D01*
X57130638Y-81046948D01*
X57135925Y-81050000D01*
X57866058Y-81050000D01*
X57873268Y-81049290D01*
X57920890Y-81039818D01*
X57934094Y-81034348D01*
X57988132Y-80998241D01*
X57998241Y-80988132D01*
X58034348Y-80934094D01*
X58039818Y-80920890D01*
X58049290Y-80873268D01*
X58050000Y-80866058D01*
X58050000Y-80140048D01*
X58046362Y-80130052D01*
X58041075Y-80127000D01*
X57140048Y-80127000D01*
X57130052Y-80130638D01*
X57127000Y-80135925D01*
X57127000Y-81036952D01*
X56873000Y-81036952D01*
X56873000Y-80140048D01*
X56869362Y-80130052D01*
X56864075Y-80127000D01*
X55963048Y-80127000D01*
X55953052Y-80130638D01*
X55950000Y-80135925D01*
X55950000Y-80866058D01*
X50200000Y-80866058D01*
X50200000Y-79859952D01*
X55950000Y-79859952D01*
X55953638Y-79869948D01*
X55958925Y-79873000D01*
X56859952Y-79873000D01*
X56869948Y-79869362D01*
X56873000Y-79864075D01*
X56873000Y-79859952D01*
X57127000Y-79859952D01*
X57130638Y-79869948D01*
X57135925Y-79873000D01*
X58036952Y-79873000D01*
X58046948Y-79869362D01*
X58050000Y-79864075D01*
X58050000Y-79133942D01*
X58049290Y-79126732D01*
X58039818Y-79079110D01*
X58034348Y-79065906D01*
X57998241Y-79011868D01*
X57988132Y-79001759D01*
X57934094Y-78965652D01*
X57920890Y-78960182D01*
X57873268Y-78950710D01*
X57866058Y-78950000D01*
X57140048Y-78950000D01*
X57130052Y-78953638D01*
X57127000Y-78958925D01*
X57127000Y-79859952D01*
X56873000Y-79859952D01*
X56873000Y-78963048D01*
X56869362Y-78953052D01*
X56864075Y-78950000D01*
X56133942Y-78950000D01*
X56126732Y-78950710D01*
X56079110Y-78960182D01*
X56065906Y-78965652D01*
X56011868Y-79001759D01*
X56001759Y-79011868D01*
X55965652Y-79065906D01*
X55960182Y-79079110D01*
X55950710Y-79126732D01*
X55950000Y-79133942D01*
X55950000Y-79859952D01*
X50200000Y-79859952D01*
X50200000Y-75657530D01*
X67675000Y-75657530D01*
X67675163Y-75660998D01*
X67677513Y-75685856D01*
X67679430Y-75694590D01*
X67720318Y-75811021D01*
X67725436Y-75820687D01*
X67798141Y-75919124D01*
X67805876Y-75926859D01*
X67904313Y-75999564D01*
X67913979Y-76004682D01*
X68030410Y-76045570D01*
X68039144Y-76047487D01*
X68064002Y-76049837D01*
X68067470Y-76050000D01*
X68222452Y-76050000D01*
X68232448Y-76046362D01*
X68235500Y-76041075D01*
X68235500Y-76036952D01*
X68489500Y-76036952D01*
X68493138Y-76046948D01*
X68498425Y-76050000D01*
X68657530Y-76050000D01*
X68660998Y-76049837D01*
X68685856Y-76047487D01*
X68694590Y-76045570D01*
X68811021Y-76004682D01*
X68820687Y-75999564D01*
X68919124Y-75926859D01*
X68926859Y-75919124D01*
X68999564Y-75820687D01*
X69004682Y-75811021D01*
X69045570Y-75694590D01*
X69047487Y-75685856D01*
X69049837Y-75660998D01*
X69050000Y-75657530D01*
X69050000Y-75290048D01*
X69046362Y-75280052D01*
X69041075Y-75277000D01*
X68502548Y-75277000D01*
X68492552Y-75280638D01*
X68489500Y-75285925D01*
X68489500Y-76036952D01*
X68235500Y-76036952D01*
X68235500Y-75290048D01*
X68231862Y-75280052D01*
X68226575Y-75277000D01*
X67688048Y-75277000D01*
X67678052Y-75280638D01*
X67675000Y-75285925D01*
X67675000Y-75657530D01*
X50200000Y-75657530D01*
X50200000Y-75009952D01*
X67675000Y-75009952D01*
X67678638Y-75019948D01*
X67683925Y-75023000D01*
X68222452Y-75023000D01*
X68232448Y-75019362D01*
X68235500Y-75014075D01*
X68235500Y-75009952D01*
X68489500Y-75009952D01*
X68493138Y-75019948D01*
X68498425Y-75023000D01*
X69036952Y-75023000D01*
X69046948Y-75019362D01*
X69050000Y-75014075D01*
X69050000Y-74642470D01*
X69049915Y-74640667D01*
X69549500Y-74640667D01*
X69549501Y-75659332D01*
X69552440Y-75690434D01*
X69553933Y-75694685D01*
X69553934Y-75694690D01*
X69576234Y-75758190D01*
X69596702Y-75816476D01*
X69676070Y-75923930D01*
X69783524Y-76003298D01*
X69909566Y-76047560D01*
X69914049Y-76047984D01*
X69914050Y-76047984D01*
X69938939Y-76050337D01*
X69938946Y-76050337D01*
X69940667Y-76050500D01*
X70237329Y-76050500D01*
X70534332Y-76050499D01*
X70565434Y-76047560D01*
X70569686Y-76046067D01*
X70569690Y-76046066D01*
X70686259Y-76005130D01*
X70691476Y-76003298D01*
X70798930Y-75923930D01*
X70878298Y-75816476D01*
X70922560Y-75690434D01*
X70922984Y-75685950D01*
X70925337Y-75661061D01*
X70925337Y-75661054D01*
X70925500Y-75659333D01*
X70925500Y-75524500D01*
X70942813Y-75476934D01*
X70986650Y-75451624D01*
X70999500Y-75450500D01*
X71094877Y-75450500D01*
X71142443Y-75467813D01*
X71147203Y-75472174D01*
X71727847Y-76052818D01*
X71749239Y-76098694D01*
X71748640Y-76116526D01*
X71745202Y-76138613D01*
X71744391Y-76143823D01*
X71745074Y-76149046D01*
X71745074Y-76149049D01*
X71746440Y-76159491D01*
X71762980Y-76285979D01*
X71791150Y-76350000D01*
X71817845Y-76410668D01*
X71820720Y-76417203D01*
X71837076Y-76436661D01*
X71909580Y-76522916D01*
X71909583Y-76522919D01*
X71912970Y-76526948D01*
X71917357Y-76529868D01*
X72027924Y-76603469D01*
X72027927Y-76603470D01*
X72032313Y-76606390D01*
X72169157Y-76649142D01*
X72174425Y-76649239D01*
X72174428Y-76649239D01*
X72234733Y-76650344D01*
X72312499Y-76651770D01*
X72317582Y-76650384D01*
X72317584Y-76650384D01*
X72445727Y-76615448D01*
X72445729Y-76615447D01*
X72450817Y-76614060D01*
X72572991Y-76539045D01*
X72669200Y-76432754D01*
X72731710Y-76303733D01*
X72755496Y-76162354D01*
X72755647Y-76150000D01*
X72750853Y-76116526D01*
X72736070Y-76013297D01*
X72736070Y-76013296D01*
X72735323Y-76008082D01*
X72675984Y-75877572D01*
X72618640Y-75811021D01*
X72585840Y-75772955D01*
X72585839Y-75772954D01*
X72582400Y-75768963D01*
X72577981Y-75766099D01*
X72577979Y-75766097D01*
X72538068Y-75740228D01*
X72462095Y-75690985D01*
X72350229Y-75657530D01*
X72329792Y-75651418D01*
X72329791Y-75651418D01*
X72324739Y-75649907D01*
X72275244Y-75649605D01*
X72204344Y-75649171D01*
X72156884Y-75631567D01*
X72152470Y-75627498D01*
X71501070Y-74976099D01*
X71497485Y-74971946D01*
X71495425Y-74967731D01*
X71458818Y-74933773D01*
X71456819Y-74931848D01*
X71442723Y-74917752D01*
X71439912Y-74915824D01*
X71437293Y-74913647D01*
X71437403Y-74913515D01*
X71434227Y-74910961D01*
X71418364Y-74896246D01*
X71418363Y-74896245D01*
X71413354Y-74891599D01*
X71407012Y-74889069D01*
X71407006Y-74889065D01*
X71400077Y-74886301D01*
X71385641Y-74878593D01*
X71379493Y-74874376D01*
X71379492Y-74874375D01*
X71373854Y-74870508D01*
X71367204Y-74868930D01*
X71367202Y-74868929D01*
X71346160Y-74863936D01*
X71335824Y-74860668D01*
X71329342Y-74858082D01*
X71309378Y-74850117D01*
X71303085Y-74849500D01*
X71293988Y-74849500D01*
X71276901Y-74847500D01*
X71271585Y-74846238D01*
X71271583Y-74846238D01*
X71264934Y-74844660D01*
X71236761Y-74848494D01*
X71234337Y-74848824D01*
X71224358Y-74849500D01*
X70999499Y-74849500D01*
X70951933Y-74832187D01*
X70926623Y-74788350D01*
X70925499Y-74775500D01*
X70925499Y-74640668D01*
X70922560Y-74609566D01*
X70921067Y-74605314D01*
X70921066Y-74605310D01*
X70880130Y-74488741D01*
X70878298Y-74483524D01*
X70798930Y-74376070D01*
X70691476Y-74296702D01*
X70565434Y-74252440D01*
X70560951Y-74252016D01*
X70560950Y-74252016D01*
X70536061Y-74249663D01*
X70536054Y-74249663D01*
X70534333Y-74249500D01*
X70237671Y-74249500D01*
X69940668Y-74249501D01*
X69909566Y-74252440D01*
X69905314Y-74253933D01*
X69905310Y-74253934D01*
X69797547Y-74291778D01*
X69783524Y-74296702D01*
X69676070Y-74376070D01*
X69596702Y-74483524D01*
X69552440Y-74609566D01*
X69552016Y-74614049D01*
X69552016Y-74614050D01*
X69549664Y-74638936D01*
X69549500Y-74640667D01*
X69049915Y-74640667D01*
X69049837Y-74639002D01*
X69047487Y-74614144D01*
X69045570Y-74605410D01*
X69004682Y-74488979D01*
X68999564Y-74479313D01*
X68926859Y-74380876D01*
X68919124Y-74373141D01*
X68820687Y-74300436D01*
X68811021Y-74295318D01*
X68694590Y-74254430D01*
X68685856Y-74252513D01*
X68660998Y-74250163D01*
X68657530Y-74250000D01*
X68502548Y-74250000D01*
X68492552Y-74253638D01*
X68489500Y-74258925D01*
X68489500Y-75009952D01*
X68235500Y-75009952D01*
X68235500Y-74263048D01*
X68231862Y-74253052D01*
X68226575Y-74250000D01*
X68067470Y-74250000D01*
X68064002Y-74250163D01*
X68039144Y-74252513D01*
X68030410Y-74254430D01*
X67913979Y-74295318D01*
X67904313Y-74300436D01*
X67805876Y-74373141D01*
X67798141Y-74380876D01*
X67725436Y-74479313D01*
X67720318Y-74488979D01*
X67679430Y-74605410D01*
X67677513Y-74614144D01*
X67675163Y-74639002D01*
X67675000Y-74642470D01*
X67675000Y-75009952D01*
X50200000Y-75009952D01*
X50200000Y-74569748D01*
X62599500Y-74569748D01*
X62611133Y-74628231D01*
X62615184Y-74634293D01*
X62615184Y-74634294D01*
X62642039Y-74674485D01*
X62655448Y-74694552D01*
X62661509Y-74698602D01*
X62699397Y-74723918D01*
X62721769Y-74738867D01*
X62766295Y-74747724D01*
X62776682Y-74749790D01*
X62776683Y-74749790D01*
X62780252Y-74750500D01*
X65019748Y-74750500D01*
X65023317Y-74749790D01*
X65023318Y-74749790D01*
X65033705Y-74747724D01*
X65078231Y-74738867D01*
X65100604Y-74723918D01*
X65138491Y-74698602D01*
X65144552Y-74694552D01*
X65157961Y-74674485D01*
X65184816Y-74634294D01*
X65184816Y-74634293D01*
X65188867Y-74628231D01*
X65200500Y-74569748D01*
X65200500Y-72730252D01*
X65199430Y-72724870D01*
X65192653Y-72690803D01*
X65188867Y-72671769D01*
X65169422Y-72642667D01*
X65148602Y-72611509D01*
X65144552Y-72605448D01*
X65138491Y-72601398D01*
X65084294Y-72565184D01*
X65084293Y-72565184D01*
X65078231Y-72561133D01*
X65033705Y-72552276D01*
X65023318Y-72550210D01*
X65023317Y-72550210D01*
X65019748Y-72549500D01*
X62780252Y-72549500D01*
X62776683Y-72550210D01*
X62776682Y-72550210D01*
X62766295Y-72552276D01*
X62721769Y-72561133D01*
X62715707Y-72565184D01*
X62715706Y-72565184D01*
X62661509Y-72601398D01*
X62655448Y-72605448D01*
X62651398Y-72611509D01*
X62630579Y-72642667D01*
X62611133Y-72671769D01*
X62607347Y-72690803D01*
X62600571Y-72724870D01*
X62599500Y-72730252D01*
X62599500Y-74569748D01*
X50200000Y-74569748D01*
X50200000Y-71041973D01*
X50892776Y-71041973D01*
X50894173Y-71047183D01*
X50895059Y-71047941D01*
X51094404Y-71194105D01*
X51099033Y-71196998D01*
X51317796Y-71312095D01*
X51322817Y-71314279D01*
X51556181Y-71395773D01*
X51561476Y-71397191D01*
X51804316Y-71443297D01*
X51809758Y-71443917D01*
X52056751Y-71453621D01*
X52062229Y-71453430D01*
X52307933Y-71426521D01*
X52313331Y-71425520D01*
X52552359Y-71362589D01*
X52557540Y-71360805D01*
X52784649Y-71263232D01*
X52789513Y-71260699D01*
X52999701Y-71130631D01*
X53004136Y-71127408D01*
X53099056Y-71047053D01*
X53101959Y-71041973D01*
X55892776Y-71041973D01*
X55894173Y-71047183D01*
X55895059Y-71047941D01*
X56094404Y-71194105D01*
X56099033Y-71196998D01*
X56317796Y-71312095D01*
X56322817Y-71314279D01*
X56556181Y-71395773D01*
X56561476Y-71397191D01*
X56804316Y-71443297D01*
X56809758Y-71443917D01*
X57056751Y-71453621D01*
X57062229Y-71453430D01*
X57307933Y-71426521D01*
X57313331Y-71425520D01*
X57552359Y-71362589D01*
X57557540Y-71360805D01*
X57784649Y-71263232D01*
X57789513Y-71260699D01*
X57999701Y-71130631D01*
X58004136Y-71127408D01*
X58099056Y-71047053D01*
X58104335Y-71037816D01*
X58103480Y-71033085D01*
X57009226Y-69938831D01*
X56999587Y-69934336D01*
X56993688Y-69935917D01*
X55897271Y-71032334D01*
X55892776Y-71041973D01*
X53101959Y-71041973D01*
X53104335Y-71037816D01*
X53103480Y-71033085D01*
X52009226Y-69938831D01*
X51999587Y-69934336D01*
X51993688Y-69935917D01*
X50897271Y-71032334D01*
X50892776Y-71041973D01*
X50200000Y-71041973D01*
X50200000Y-70166440D01*
X50217313Y-70118874D01*
X50261150Y-70093564D01*
X50311000Y-70102354D01*
X50343537Y-70141131D01*
X50346578Y-70152003D01*
X50356699Y-70202884D01*
X50358164Y-70208165D01*
X50441691Y-70440808D01*
X50443916Y-70445807D01*
X50560913Y-70663549D01*
X50563859Y-70668174D01*
X50700703Y-70851430D01*
X50709598Y-70857262D01*
X50713608Y-70856787D01*
X51811169Y-69759226D01*
X51815279Y-69750413D01*
X52184336Y-69750413D01*
X52185917Y-69756312D01*
X53279407Y-70849802D01*
X53289046Y-70854297D01*
X53293930Y-70852988D01*
X53359679Y-70778015D01*
X53362971Y-70773648D01*
X53496692Y-70565756D01*
X53499308Y-70560937D01*
X53600827Y-70335572D01*
X53602703Y-70330422D01*
X53669798Y-70092517D01*
X53670890Y-70087151D01*
X53702196Y-69841070D01*
X53702480Y-69837365D01*
X53704718Y-69751854D01*
X53704630Y-69748152D01*
X53701655Y-69708118D01*
X55295949Y-69708118D01*
X55307808Y-69955021D01*
X55308475Y-69960449D01*
X55356699Y-70202884D01*
X55358164Y-70208165D01*
X55441691Y-70440808D01*
X55443916Y-70445807D01*
X55560913Y-70663549D01*
X55563859Y-70668174D01*
X55700703Y-70851430D01*
X55709598Y-70857262D01*
X55713608Y-70856787D01*
X56811169Y-69759226D01*
X56815279Y-69750413D01*
X57184336Y-69750413D01*
X57185917Y-69756312D01*
X58279407Y-70849802D01*
X58289046Y-70854297D01*
X58293930Y-70852988D01*
X58359679Y-70778015D01*
X58362971Y-70773648D01*
X58496692Y-70565756D01*
X58499308Y-70560937D01*
X58600827Y-70335572D01*
X58602703Y-70330422D01*
X58669798Y-70092517D01*
X58670890Y-70087151D01*
X58702196Y-69841070D01*
X58702480Y-69837365D01*
X58704718Y-69751854D01*
X58704630Y-69748152D01*
X58686245Y-69500748D01*
X58685437Y-69495345D01*
X58630884Y-69254258D01*
X58629281Y-69249012D01*
X58539691Y-69018633D01*
X58537338Y-69013700D01*
X58414678Y-68799089D01*
X58411614Y-68794547D01*
X58297780Y-68650150D01*
X58288735Y-68644552D01*
X58284428Y-68645177D01*
X57188831Y-69740774D01*
X57184336Y-69750413D01*
X56815279Y-69750413D01*
X56815664Y-69749587D01*
X56814083Y-69743688D01*
X55720473Y-68650078D01*
X55710834Y-68645583D01*
X55706302Y-68646798D01*
X55613882Y-68757922D01*
X55610693Y-68762394D01*
X55482467Y-68973702D01*
X55479980Y-68978582D01*
X55384391Y-69206536D01*
X55382652Y-69211734D01*
X55321807Y-69451311D01*
X55320858Y-69456696D01*
X55296092Y-69702642D01*
X55295949Y-69708118D01*
X53701655Y-69708118D01*
X53686245Y-69500748D01*
X53685437Y-69495345D01*
X53630884Y-69254258D01*
X53629281Y-69249012D01*
X53539691Y-69018633D01*
X53537338Y-69013700D01*
X53414678Y-68799089D01*
X53411614Y-68794547D01*
X53297780Y-68650150D01*
X53288735Y-68644552D01*
X53284428Y-68645177D01*
X52188831Y-69740774D01*
X52184336Y-69750413D01*
X51815279Y-69750413D01*
X51815664Y-69749587D01*
X51814083Y-69743688D01*
X50720473Y-68650078D01*
X50710834Y-68645583D01*
X50706302Y-68646798D01*
X50613882Y-68757922D01*
X50610693Y-68762394D01*
X50482467Y-68973702D01*
X50479980Y-68978582D01*
X50384391Y-69206536D01*
X50382652Y-69211734D01*
X50345723Y-69357143D01*
X50317234Y-69398984D01*
X50268516Y-69412725D01*
X50222364Y-69391934D01*
X50200372Y-69346342D01*
X50200000Y-69338928D01*
X50200000Y-68461906D01*
X50895528Y-68461906D01*
X50896583Y-68466978D01*
X51990774Y-69561169D01*
X52000413Y-69565664D01*
X52006312Y-69564083D01*
X53100927Y-68469468D01*
X53104453Y-68461906D01*
X55895528Y-68461906D01*
X55896583Y-68466978D01*
X56990774Y-69561169D01*
X57000413Y-69565664D01*
X57006312Y-69564083D01*
X58100927Y-68469468D01*
X58105422Y-68459829D01*
X58103975Y-68454430D01*
X58074846Y-68427029D01*
X58070589Y-68423582D01*
X57867494Y-68282690D01*
X57862769Y-68279907D01*
X57641081Y-68170583D01*
X57635998Y-68168530D01*
X57400594Y-68093176D01*
X57395254Y-68091894D01*
X57151281Y-68052160D01*
X57145844Y-68051684D01*
X56898671Y-68048449D01*
X56893203Y-68048784D01*
X56648274Y-68082117D01*
X56642931Y-68083252D01*
X56405608Y-68152425D01*
X56400492Y-68154338D01*
X56176001Y-68257830D01*
X56171219Y-68260481D01*
X55964502Y-68396010D01*
X55960152Y-68399348D01*
X55900564Y-68452533D01*
X55895528Y-68461906D01*
X53104453Y-68461906D01*
X53105422Y-68459829D01*
X53103975Y-68454430D01*
X53074846Y-68427029D01*
X53070589Y-68423582D01*
X52867494Y-68282690D01*
X52862769Y-68279907D01*
X52641081Y-68170583D01*
X52635998Y-68168530D01*
X52400594Y-68093176D01*
X52395254Y-68091894D01*
X52151281Y-68052160D01*
X52145844Y-68051684D01*
X51898671Y-68048449D01*
X51893203Y-68048784D01*
X51648274Y-68082117D01*
X51642931Y-68083252D01*
X51405608Y-68152425D01*
X51400492Y-68154338D01*
X51176001Y-68257830D01*
X51171219Y-68260481D01*
X50964502Y-68396010D01*
X50960152Y-68399348D01*
X50900564Y-68452533D01*
X50895528Y-68461906D01*
X50200000Y-68461906D01*
X50200000Y-66893823D01*
X58544391Y-66893823D01*
X58545074Y-66899046D01*
X58545074Y-66899049D01*
X58545573Y-66902862D01*
X58562980Y-67035979D01*
X58620720Y-67167203D01*
X58629979Y-67178218D01*
X58709580Y-67272916D01*
X58709583Y-67272919D01*
X58712970Y-67276948D01*
X58717357Y-67279868D01*
X58827924Y-67353469D01*
X58827927Y-67353470D01*
X58832313Y-67356390D01*
X58969157Y-67399142D01*
X58974424Y-67399239D01*
X58974427Y-67399239D01*
X58976221Y-67399272D01*
X58976855Y-67399283D01*
X58978420Y-67399885D01*
X58979634Y-67400082D01*
X58979593Y-67400337D01*
X59024096Y-67417464D01*
X59048599Y-67461758D01*
X59049500Y-67473271D01*
X59049500Y-69294455D01*
X59049098Y-69299928D01*
X59047575Y-69304364D01*
X59047831Y-69311188D01*
X59047831Y-69311189D01*
X59049448Y-69354263D01*
X59049500Y-69357039D01*
X59049500Y-69376970D01*
X59050124Y-69380322D01*
X59050437Y-69383713D01*
X59050247Y-69383731D01*
X59050706Y-69387777D01*
X59051774Y-69416230D01*
X59054471Y-69422507D01*
X59054472Y-69422512D01*
X59057416Y-69429365D01*
X59062174Y-69445024D01*
X59064791Y-69459075D01*
X59068376Y-69464890D01*
X59068377Y-69464894D01*
X59079730Y-69483312D01*
X59084726Y-69492929D01*
X59088086Y-69500748D01*
X59095964Y-69519085D01*
X59099978Y-69523971D01*
X59106409Y-69530402D01*
X59117076Y-69543897D01*
X59123532Y-69554370D01*
X59128971Y-69558506D01*
X59148112Y-69573061D01*
X59155646Y-69579639D01*
X59499908Y-69923901D01*
X59503493Y-69928054D01*
X59505553Y-69932269D01*
X59514949Y-69940985D01*
X59542159Y-69966226D01*
X59544159Y-69968152D01*
X59558255Y-69982248D01*
X59561066Y-69984176D01*
X59563685Y-69986353D01*
X59563575Y-69986485D01*
X59566751Y-69989039D01*
X59581653Y-70002862D01*
X59587624Y-70008401D01*
X59600897Y-70013696D01*
X59615333Y-70021404D01*
X59627124Y-70029493D01*
X59649297Y-70034755D01*
X59654826Y-70036067D01*
X59665159Y-70039335D01*
X59686747Y-70047947D01*
X59691600Y-70049883D01*
X59697893Y-70050500D01*
X59706986Y-70050500D01*
X59724072Y-70052500D01*
X59736044Y-70055341D01*
X59735759Y-70056542D01*
X59775779Y-70073365D01*
X59798917Y-70118387D01*
X59799500Y-70127661D01*
X59799500Y-70419748D01*
X59800210Y-70423317D01*
X59800210Y-70423318D01*
X59809615Y-70470598D01*
X59809995Y-70472510D01*
X59809995Y-70472511D01*
X59811133Y-70478231D01*
X59810253Y-70478406D01*
X59812084Y-70520346D01*
X59811133Y-70521769D01*
X59809712Y-70528914D01*
X59809711Y-70528916D01*
X59805715Y-70549005D01*
X59799500Y-70580252D01*
X59799500Y-70919748D01*
X59800210Y-70923317D01*
X59800210Y-70923318D01*
X59809597Y-70970508D01*
X59809995Y-70972510D01*
X59809995Y-70972511D01*
X59811133Y-70978231D01*
X59810253Y-70978406D01*
X59812084Y-71020346D01*
X59811133Y-71021769D01*
X59809712Y-71028914D01*
X59809711Y-71028916D01*
X59800719Y-71074124D01*
X59799500Y-71080252D01*
X59799500Y-71419748D01*
X59800210Y-71423317D01*
X59800210Y-71423318D01*
X59807738Y-71461161D01*
X59809995Y-71472510D01*
X59809995Y-71472511D01*
X59811133Y-71478231D01*
X59810253Y-71478406D01*
X59812084Y-71520346D01*
X59811133Y-71521769D01*
X59799500Y-71580252D01*
X59799500Y-71919748D01*
X59811133Y-71978231D01*
X59815184Y-71984293D01*
X59815184Y-71984294D01*
X59846772Y-72031568D01*
X59855448Y-72044552D01*
X59861509Y-72048602D01*
X59900687Y-72074780D01*
X59921769Y-72088867D01*
X59966295Y-72097724D01*
X59976682Y-72099790D01*
X59976683Y-72099790D01*
X59980252Y-72100500D01*
X61319748Y-72100500D01*
X61323317Y-72099790D01*
X61323318Y-72099790D01*
X61333705Y-72097724D01*
X61378231Y-72088867D01*
X61399314Y-72074780D01*
X61438491Y-72048602D01*
X61444552Y-72044552D01*
X61453228Y-72031568D01*
X61484816Y-71984294D01*
X61484816Y-71984293D01*
X61488867Y-71978231D01*
X61500500Y-71919748D01*
X61500500Y-71624500D01*
X61517813Y-71576934D01*
X61561650Y-71551624D01*
X61574500Y-71550500D01*
X66394877Y-71550500D01*
X66442443Y-71567813D01*
X66447203Y-71572174D01*
X67327847Y-72452818D01*
X67349239Y-72498694D01*
X67348640Y-72516526D01*
X67345563Y-72536294D01*
X67344391Y-72543823D01*
X67345074Y-72549046D01*
X67345074Y-72549049D01*
X67346814Y-72562354D01*
X67362980Y-72685979D01*
X67420720Y-72817203D01*
X67426309Y-72823852D01*
X67509580Y-72922916D01*
X67509583Y-72922919D01*
X67512970Y-72926948D01*
X67547485Y-72949923D01*
X67627924Y-73003469D01*
X67627927Y-73003470D01*
X67632313Y-73006390D01*
X67769157Y-73049142D01*
X67774425Y-73049239D01*
X67774428Y-73049239D01*
X67834733Y-73050344D01*
X67912499Y-73051770D01*
X67917582Y-73050384D01*
X67917584Y-73050384D01*
X68045727Y-73015448D01*
X68045729Y-73015447D01*
X68050817Y-73014060D01*
X68142820Y-72957570D01*
X68168498Y-72941804D01*
X68168499Y-72941803D01*
X68172991Y-72939045D01*
X68269200Y-72832754D01*
X68331710Y-72703733D01*
X68355496Y-72562354D01*
X68355647Y-72550000D01*
X68351768Y-72522916D01*
X68336070Y-72413297D01*
X68336070Y-72413296D01*
X68335323Y-72408082D01*
X68292023Y-72312847D01*
X68278166Y-72282371D01*
X68275984Y-72277572D01*
X68191073Y-72179028D01*
X68185840Y-72172955D01*
X68185839Y-72172954D01*
X68182400Y-72168963D01*
X68177981Y-72166099D01*
X68177979Y-72166097D01*
X68111375Y-72122927D01*
X68062095Y-72090985D01*
X67947296Y-72056653D01*
X67929792Y-72051418D01*
X67929791Y-72051418D01*
X67924739Y-72049907D01*
X67875244Y-72049605D01*
X67804344Y-72049171D01*
X67756884Y-72031567D01*
X67752470Y-72027498D01*
X66801070Y-71076099D01*
X66797485Y-71071946D01*
X66795425Y-71067731D01*
X66758818Y-71033773D01*
X66756819Y-71031848D01*
X66742723Y-71017752D01*
X66739912Y-71015824D01*
X66737293Y-71013647D01*
X66737403Y-71013515D01*
X66734227Y-71010961D01*
X66718364Y-70996246D01*
X66718363Y-70996245D01*
X66713354Y-70991599D01*
X66707012Y-70989069D01*
X66707006Y-70989065D01*
X66700077Y-70986301D01*
X66685641Y-70978593D01*
X66679493Y-70974376D01*
X66679492Y-70974375D01*
X66673854Y-70970508D01*
X66667204Y-70968930D01*
X66667202Y-70968929D01*
X66646160Y-70963936D01*
X66635824Y-70960668D01*
X66633932Y-70959913D01*
X66609378Y-70950117D01*
X66603085Y-70949500D01*
X66593988Y-70949500D01*
X66576901Y-70947500D01*
X66571585Y-70946238D01*
X66571583Y-70946238D01*
X66564934Y-70944660D01*
X66536761Y-70948494D01*
X66534337Y-70948824D01*
X66524358Y-70949500D01*
X63023612Y-70949500D01*
X62976046Y-70932187D01*
X62950736Y-70888350D01*
X62959526Y-70838500D01*
X62984892Y-70812439D01*
X63018494Y-70791807D01*
X63018498Y-70791804D01*
X63022991Y-70789045D01*
X63119200Y-70682754D01*
X63181710Y-70553733D01*
X63205496Y-70412354D01*
X63205647Y-70400000D01*
X63193593Y-70315827D01*
X63186070Y-70263297D01*
X63186070Y-70263296D01*
X63185323Y-70258082D01*
X63125984Y-70127572D01*
X63064780Y-70056542D01*
X63035840Y-70022955D01*
X63035839Y-70022954D01*
X63032400Y-70018963D01*
X63027981Y-70016099D01*
X63027979Y-70016097D01*
X62975756Y-69982248D01*
X62912095Y-69940985D01*
X62808168Y-69909904D01*
X62779792Y-69901418D01*
X62779791Y-69901418D01*
X62774739Y-69899907D01*
X62701103Y-69899457D01*
X62636646Y-69899063D01*
X62636645Y-69899063D01*
X62631376Y-69899031D01*
X62493529Y-69938428D01*
X62372280Y-70014930D01*
X62335530Y-70056542D01*
X62280911Y-70118387D01*
X62277377Y-70122388D01*
X62216447Y-70252163D01*
X62203028Y-70338350D01*
X62195471Y-70386885D01*
X62171047Y-70431221D01*
X62122352Y-70449500D01*
X61574500Y-70449500D01*
X61526934Y-70432187D01*
X61501624Y-70388350D01*
X61500500Y-70375500D01*
X61500500Y-70080252D01*
X61491711Y-70036067D01*
X61490289Y-70028916D01*
X61490288Y-70028914D01*
X61488867Y-70021769D01*
X61489747Y-70021594D01*
X61487916Y-69979654D01*
X61488867Y-69978231D01*
X61491067Y-69967175D01*
X61499790Y-69923318D01*
X61499790Y-69923317D01*
X61500500Y-69919748D01*
X61500500Y-69580252D01*
X61496704Y-69561169D01*
X61490289Y-69528916D01*
X61490288Y-69528914D01*
X61488867Y-69521769D01*
X61489747Y-69521594D01*
X61487916Y-69479654D01*
X61488867Y-69478231D01*
X61491496Y-69465017D01*
X61499790Y-69423318D01*
X61499790Y-69423317D01*
X61500500Y-69419748D01*
X61500500Y-69080252D01*
X61488867Y-69021769D01*
X61489747Y-69021594D01*
X61487916Y-68979654D01*
X61488867Y-68978231D01*
X61500500Y-68919748D01*
X61500500Y-68580252D01*
X61488867Y-68521769D01*
X61489503Y-68521643D01*
X61487557Y-68477083D01*
X61489765Y-68471015D01*
X61489818Y-68470887D01*
X61499290Y-68423268D01*
X61500000Y-68416058D01*
X61500000Y-68390048D01*
X61496362Y-68380052D01*
X61491075Y-68377000D01*
X59813048Y-68377000D01*
X59803052Y-68380638D01*
X59800000Y-68385925D01*
X59800000Y-68416058D01*
X59800710Y-68423268D01*
X59810182Y-68470887D01*
X59810235Y-68471015D01*
X59810243Y-68471192D01*
X59811604Y-68478036D01*
X59810551Y-68478246D01*
X59812370Y-68519917D01*
X59811133Y-68521769D01*
X59799500Y-68580252D01*
X59799500Y-68919748D01*
X59809995Y-68972510D01*
X59809995Y-68972511D01*
X59811133Y-68978231D01*
X59810253Y-68978406D01*
X59812084Y-69020346D01*
X59811133Y-69021769D01*
X59799500Y-69080252D01*
X59799500Y-69194899D01*
X59782187Y-69242465D01*
X59738350Y-69267775D01*
X59688500Y-69258985D01*
X59673174Y-69247225D01*
X59672174Y-69246225D01*
X59650782Y-69200349D01*
X59650500Y-69193899D01*
X59650500Y-67254567D01*
X59650902Y-67249094D01*
X59652425Y-67244658D01*
X59652169Y-67237833D01*
X59652294Y-67236985D01*
X59653989Y-67233850D01*
X59651552Y-67221400D01*
X59650552Y-67194759D01*
X59650500Y-67191983D01*
X59650500Y-67172052D01*
X59649876Y-67168700D01*
X59649563Y-67165309D01*
X59649753Y-67165291D01*
X59649294Y-67161242D01*
X59648226Y-67132792D01*
X59645529Y-67126515D01*
X59645528Y-67126510D01*
X59642584Y-67119657D01*
X59637826Y-67103998D01*
X59636460Y-67096664D01*
X59635209Y-67089947D01*
X59631624Y-67084132D01*
X59631623Y-67084128D01*
X59620270Y-67065710D01*
X59615274Y-67056093D01*
X59606099Y-67034738D01*
X59606098Y-67034736D01*
X59604036Y-67029937D01*
X59600022Y-67025051D01*
X59593591Y-67018620D01*
X59582923Y-67005124D01*
X59580053Y-67000468D01*
X59576468Y-66994652D01*
X59571030Y-66990517D01*
X59570944Y-66990422D01*
X59551819Y-66943555D01*
X59552790Y-66928437D01*
X59555021Y-66915176D01*
X59555496Y-66912354D01*
X59555647Y-66900000D01*
X59535323Y-66758082D01*
X59475984Y-66627572D01*
X59382400Y-66518963D01*
X59377981Y-66516099D01*
X59377979Y-66516097D01*
X59319558Y-66478231D01*
X59262095Y-66440985D01*
X59158168Y-66409904D01*
X59129792Y-66401418D01*
X59129791Y-66401418D01*
X59124739Y-66399907D01*
X59051103Y-66399457D01*
X58986646Y-66399063D01*
X58986645Y-66399063D01*
X58981376Y-66399031D01*
X58843529Y-66438428D01*
X58722280Y-66514930D01*
X58627377Y-66622388D01*
X58566447Y-66752163D01*
X58544391Y-66893823D01*
X50200000Y-66893823D01*
X50200000Y-64793823D01*
X58644391Y-64793823D01*
X58645074Y-64799046D01*
X58645074Y-64799049D01*
X58649940Y-64836259D01*
X58662980Y-64935979D01*
X58720720Y-65067203D01*
X58724112Y-65071238D01*
X58809580Y-65172916D01*
X58809583Y-65172919D01*
X58812970Y-65176948D01*
X58825269Y-65185135D01*
X58927924Y-65253469D01*
X58927927Y-65253470D01*
X58932313Y-65256390D01*
X59069157Y-65299142D01*
X59074425Y-65299239D01*
X59074428Y-65299239D01*
X59134733Y-65300344D01*
X59212499Y-65301770D01*
X59217582Y-65300384D01*
X59217584Y-65300384D01*
X59345727Y-65265448D01*
X59345729Y-65265447D01*
X59350817Y-65264060D01*
X59472991Y-65189045D01*
X59533519Y-65122174D01*
X59565662Y-65086663D01*
X59565663Y-65086662D01*
X59569200Y-65082754D01*
X59569550Y-65082032D01*
X59609000Y-65053367D01*
X59629400Y-65050500D01*
X59725500Y-65050500D01*
X59773066Y-65067813D01*
X59798376Y-65111650D01*
X59799500Y-65124500D01*
X59799500Y-65419748D01*
X59809995Y-65472510D01*
X59809995Y-65472511D01*
X59811133Y-65478231D01*
X59810253Y-65478406D01*
X59812084Y-65520346D01*
X59811133Y-65521769D01*
X59809712Y-65528914D01*
X59809711Y-65528916D01*
X59808236Y-65536332D01*
X59799500Y-65580252D01*
X59799500Y-65919748D01*
X59809995Y-65972510D01*
X59809995Y-65972511D01*
X59811133Y-65978231D01*
X59810253Y-65978406D01*
X59812084Y-66020346D01*
X59811133Y-66021769D01*
X59799500Y-66080252D01*
X59799500Y-66419748D01*
X59800210Y-66423317D01*
X59800210Y-66423318D01*
X59804295Y-66443852D01*
X59809995Y-66472510D01*
X59809995Y-66472511D01*
X59811133Y-66478231D01*
X59810253Y-66478406D01*
X59812084Y-66520346D01*
X59811133Y-66521769D01*
X59799500Y-66580252D01*
X59799500Y-66919748D01*
X59800210Y-66923317D01*
X59800210Y-66923318D01*
X59804236Y-66943555D01*
X59809995Y-66972510D01*
X59809995Y-66972511D01*
X59811133Y-66978231D01*
X59810253Y-66978406D01*
X59812084Y-67020346D01*
X59811133Y-67021769D01*
X59809712Y-67028914D01*
X59809711Y-67028916D01*
X59802074Y-67067313D01*
X59799500Y-67080252D01*
X59799500Y-67218624D01*
X59795670Y-67229146D01*
X59797988Y-67232913D01*
X59799500Y-67247794D01*
X59799500Y-67419748D01*
X59809995Y-67472510D01*
X59809995Y-67472511D01*
X59811133Y-67478231D01*
X59810253Y-67478406D01*
X59812084Y-67520346D01*
X59811133Y-67521769D01*
X59799500Y-67580252D01*
X59799500Y-67919748D01*
X59810312Y-67974102D01*
X59811133Y-67978231D01*
X59810497Y-67978357D01*
X59812443Y-68022917D01*
X59810235Y-68028985D01*
X59810182Y-68029113D01*
X59800710Y-68076732D01*
X59800000Y-68083942D01*
X59800000Y-68109952D01*
X59803638Y-68119948D01*
X59808925Y-68123000D01*
X61486952Y-68123000D01*
X61496948Y-68119362D01*
X61508791Y-68098849D01*
X61509038Y-68098992D01*
X61521543Y-68072174D01*
X61567419Y-68050782D01*
X61573869Y-68050500D01*
X65744877Y-68050500D01*
X65792443Y-68067813D01*
X65797203Y-68072174D01*
X75377847Y-77652818D01*
X75399239Y-77698694D01*
X75398640Y-77716526D01*
X75396426Y-77730752D01*
X75394391Y-77743823D01*
X75395074Y-77749046D01*
X75395074Y-77749049D01*
X75396439Y-77759486D01*
X75412980Y-77885979D01*
X75470720Y-78017203D01*
X75474112Y-78021238D01*
X75559580Y-78122916D01*
X75559583Y-78122919D01*
X75562970Y-78126948D01*
X75567357Y-78129868D01*
X75677924Y-78203469D01*
X75677927Y-78203470D01*
X75682313Y-78206390D01*
X75819157Y-78249142D01*
X75824425Y-78249239D01*
X75824428Y-78249239D01*
X75884733Y-78250344D01*
X75962499Y-78251770D01*
X75967582Y-78250384D01*
X75967584Y-78250384D01*
X76095727Y-78215448D01*
X76095729Y-78215447D01*
X76100817Y-78214060D01*
X76167763Y-78172955D01*
X76218498Y-78141804D01*
X76218499Y-78141803D01*
X76222991Y-78139045D01*
X76319200Y-78032754D01*
X76381710Y-77903733D01*
X76405496Y-77762354D01*
X76405647Y-77750000D01*
X76398311Y-77698777D01*
X76386070Y-77613297D01*
X76386070Y-77613296D01*
X76385323Y-77608082D01*
X76373052Y-77581092D01*
X76328166Y-77482371D01*
X76325984Y-77477572D01*
X76232400Y-77368963D01*
X76227981Y-77366099D01*
X76227979Y-77366097D01*
X76180113Y-77335072D01*
X76112095Y-77290985D01*
X76003820Y-77258604D01*
X75979792Y-77251418D01*
X75979791Y-77251418D01*
X75974739Y-77249907D01*
X75925244Y-77249605D01*
X75854344Y-77249171D01*
X75806884Y-77231567D01*
X75802470Y-77227498D01*
X73558621Y-74983649D01*
X71299841Y-72724870D01*
X71278449Y-72678994D01*
X71291550Y-72630099D01*
X71333014Y-72601065D01*
X71352167Y-72598544D01*
X75464681Y-72598544D01*
X75512247Y-72615857D01*
X75517007Y-72620218D01*
X76288679Y-73391890D01*
X76310071Y-73437766D01*
X76309472Y-73455598D01*
X76306158Y-73476889D01*
X76305223Y-73482895D01*
X76305906Y-73488118D01*
X76305906Y-73488121D01*
X76306405Y-73491934D01*
X76323812Y-73625051D01*
X76381552Y-73756275D01*
X76390636Y-73767082D01*
X76470412Y-73861988D01*
X76470415Y-73861991D01*
X76473802Y-73866020D01*
X76496120Y-73880876D01*
X76588756Y-73942541D01*
X76588759Y-73942542D01*
X76593145Y-73945462D01*
X76729989Y-73988214D01*
X76735257Y-73988311D01*
X76735260Y-73988311D01*
X76795565Y-73989416D01*
X76873331Y-73990842D01*
X76878414Y-73989456D01*
X76878416Y-73989456D01*
X77006559Y-73954520D01*
X77006561Y-73954519D01*
X77011649Y-73953132D01*
X77133823Y-73878117D01*
X77230032Y-73771826D01*
X77292542Y-73642805D01*
X77316328Y-73501426D01*
X77316479Y-73489072D01*
X77311685Y-73455598D01*
X77296902Y-73352369D01*
X77296902Y-73352368D01*
X77296155Y-73347154D01*
X77280343Y-73312376D01*
X77238998Y-73221443D01*
X77236816Y-73216644D01*
X77228987Y-73207557D01*
X77195731Y-73168963D01*
X77165078Y-73133388D01*
X77147143Y-73086053D01*
X77163832Y-73038264D01*
X77191749Y-73017170D01*
X77195733Y-73015446D01*
X77200817Y-73014060D01*
X77292820Y-72957570D01*
X77318498Y-72941804D01*
X77318499Y-72941803D01*
X77322991Y-72939045D01*
X77419200Y-72832754D01*
X77467099Y-72733890D01*
X77503417Y-72698634D01*
X77553904Y-72694970D01*
X77590339Y-72718542D01*
X77601077Y-72731317D01*
X77601082Y-72731321D01*
X77604470Y-72735352D01*
X77608857Y-72738272D01*
X77719424Y-72811873D01*
X77719427Y-72811874D01*
X77723813Y-72814794D01*
X77860657Y-72857546D01*
X77865925Y-72857643D01*
X77865928Y-72857643D01*
X77926233Y-72858748D01*
X78003999Y-72860174D01*
X78009082Y-72858788D01*
X78009084Y-72858788D01*
X78137227Y-72823852D01*
X78137229Y-72823851D01*
X78142317Y-72822464D01*
X78264491Y-72747449D01*
X78360700Y-72641158D01*
X78423210Y-72512137D01*
X78426210Y-72494308D01*
X78451172Y-72450276D01*
X78498601Y-72432589D01*
X78546302Y-72449527D01*
X78555829Y-72458971D01*
X78609580Y-72522916D01*
X78609583Y-72522919D01*
X78612970Y-72526948D01*
X78617356Y-72529867D01*
X78621287Y-72533382D01*
X78620311Y-72534473D01*
X78646507Y-72570068D01*
X78649500Y-72590901D01*
X78649500Y-76944876D01*
X78632187Y-76992442D01*
X78627826Y-76997202D01*
X76558102Y-79066927D01*
X76512226Y-79088319D01*
X76505776Y-79088601D01*
X69294224Y-79088601D01*
X69246658Y-79071288D01*
X69241898Y-79066927D01*
X66701070Y-76526099D01*
X66697485Y-76521946D01*
X66695425Y-76517731D01*
X66658818Y-76483773D01*
X66656819Y-76481848D01*
X66642723Y-76467752D01*
X66639912Y-76465824D01*
X66637293Y-76463647D01*
X66637403Y-76463515D01*
X66634227Y-76460961D01*
X66618364Y-76446246D01*
X66618363Y-76446245D01*
X66613354Y-76441599D01*
X66607012Y-76439069D01*
X66607006Y-76439065D01*
X66600077Y-76436301D01*
X66585641Y-76428593D01*
X66579493Y-76424376D01*
X66579492Y-76424375D01*
X66573854Y-76420508D01*
X66567204Y-76418930D01*
X66567202Y-76418929D01*
X66546160Y-76413936D01*
X66535824Y-76410668D01*
X66520291Y-76404471D01*
X66509378Y-76400117D01*
X66503085Y-76399500D01*
X66493988Y-76399500D01*
X66476901Y-76397500D01*
X66471585Y-76396238D01*
X66471583Y-76396238D01*
X66464934Y-76394660D01*
X66444066Y-76397500D01*
X66434337Y-76398824D01*
X66424358Y-76399500D01*
X63599567Y-76399500D01*
X63594094Y-76399098D01*
X63589658Y-76397575D01*
X63582834Y-76397831D01*
X63582833Y-76397831D01*
X63539758Y-76399448D01*
X63536982Y-76399500D01*
X63517052Y-76399500D01*
X63513700Y-76400124D01*
X63510309Y-76400437D01*
X63510291Y-76400247D01*
X63506245Y-76400706D01*
X63477791Y-76401774D01*
X63471516Y-76404470D01*
X63471512Y-76404471D01*
X63464658Y-76407416D01*
X63448995Y-76412175D01*
X63441664Y-76413540D01*
X63441663Y-76413540D01*
X63434947Y-76414791D01*
X63429132Y-76418376D01*
X63429128Y-76418377D01*
X63410710Y-76429730D01*
X63401093Y-76434726D01*
X63379738Y-76443901D01*
X63379736Y-76443902D01*
X63374937Y-76445964D01*
X63370051Y-76449978D01*
X63363620Y-76456409D01*
X63350125Y-76467076D01*
X63339652Y-76473532D01*
X63335516Y-76478971D01*
X63320961Y-76498112D01*
X63314383Y-76505646D01*
X62009876Y-77810153D01*
X61964000Y-77831545D01*
X61947894Y-77831194D01*
X61830000Y-77815673D01*
X61825192Y-77816306D01*
X61679688Y-77835462D01*
X61679685Y-77835463D01*
X61674883Y-77836095D01*
X61530337Y-77895968D01*
X61526492Y-77898918D01*
X61526489Y-77898920D01*
X61501762Y-77917894D01*
X61406212Y-77991212D01*
X61403257Y-77995063D01*
X61313920Y-78111489D01*
X61313918Y-78111492D01*
X61310968Y-78115337D01*
X61251095Y-78259883D01*
X61250463Y-78264685D01*
X61250462Y-78264688D01*
X61233538Y-78393241D01*
X61230673Y-78415000D01*
X61239242Y-78480080D01*
X61239427Y-78481488D01*
X61228471Y-78530908D01*
X61188313Y-78561723D01*
X61137742Y-78559515D01*
X61111942Y-78541618D01*
X61111700Y-78541358D01*
X61109157Y-78537903D01*
X61104813Y-78534212D01*
X60979897Y-78428089D01*
X60976620Y-78425305D01*
X60821735Y-78346217D01*
X60652810Y-78304881D01*
X60641833Y-78304200D01*
X60516453Y-78304200D01*
X60514328Y-78304448D01*
X60514324Y-78304448D01*
X60391532Y-78318764D01*
X60391531Y-78318764D01*
X60387261Y-78319262D01*
X60383220Y-78320729D01*
X60383219Y-78320729D01*
X60227834Y-78377131D01*
X60227831Y-78377132D01*
X60223788Y-78378600D01*
X60078350Y-78473953D01*
X59958749Y-78600207D01*
X59956593Y-78603918D01*
X59956592Y-78603920D01*
X59919953Y-78667000D01*
X59871401Y-78750588D01*
X59820990Y-78917031D01*
X59820724Y-78921316D01*
X59820724Y-78921317D01*
X59810605Y-79084439D01*
X59810222Y-79090607D01*
X59839673Y-79262004D01*
X59841355Y-79265957D01*
X59900664Y-79405340D01*
X59907765Y-79422029D01*
X59923999Y-79444089D01*
X60004813Y-79553903D01*
X60010843Y-79562097D01*
X60014114Y-79564876D01*
X60014116Y-79564878D01*
X60078938Y-79619948D01*
X60143380Y-79674695D01*
X60298265Y-79753783D01*
X60467190Y-79795119D01*
X60478167Y-79795800D01*
X60603547Y-79795800D01*
X60605672Y-79795552D01*
X60605676Y-79795552D01*
X60728468Y-79781236D01*
X60728469Y-79781236D01*
X60732739Y-79780738D01*
X60736781Y-79779271D01*
X60892166Y-79722869D01*
X60892169Y-79722868D01*
X60896212Y-79721400D01*
X61041650Y-79626047D01*
X61113338Y-79550372D01*
X61158618Y-79527747D01*
X61207849Y-79539521D01*
X61237993Y-79580185D01*
X61240426Y-79610922D01*
X61230673Y-79685000D01*
X61231306Y-79689808D01*
X61247689Y-79814245D01*
X61251095Y-79840117D01*
X61310968Y-79984663D01*
X61313918Y-79988508D01*
X61313920Y-79988511D01*
X61391113Y-80089111D01*
X61406212Y-80108788D01*
X61420548Y-80119788D01*
X61447746Y-80162478D01*
X61449500Y-80178496D01*
X61449500Y-80387175D01*
X61432187Y-80434741D01*
X61420548Y-80445883D01*
X61334229Y-80512118D01*
X61321718Y-80521718D01*
X61318763Y-80525569D01*
X61228416Y-80643311D01*
X61228414Y-80643315D01*
X61225464Y-80647159D01*
X61164956Y-80793238D01*
X61164324Y-80798040D01*
X61164323Y-80798043D01*
X61148404Y-80918963D01*
X61144318Y-80950000D01*
X61144951Y-80954808D01*
X61163176Y-81093238D01*
X61164956Y-81106762D01*
X61225464Y-81252841D01*
X61228414Y-81256685D01*
X61228416Y-81256689D01*
X61273296Y-81315177D01*
X61321718Y-81378282D01*
X61325569Y-81381237D01*
X61443311Y-81471584D01*
X61443315Y-81471586D01*
X61447159Y-81474536D01*
X61593238Y-81535044D01*
X61598040Y-81535676D01*
X61598043Y-81535677D01*
X61745192Y-81555049D01*
X61750000Y-81555682D01*
X61754808Y-81555049D01*
X61901957Y-81535677D01*
X61901960Y-81535676D01*
X61906762Y-81535044D01*
X62052841Y-81474536D01*
X62056685Y-81471586D01*
X62056689Y-81471584D01*
X62174431Y-81381237D01*
X62178282Y-81378282D01*
X62226704Y-81315177D01*
X62271584Y-81256689D01*
X62271586Y-81256685D01*
X62274536Y-81252841D01*
X62335044Y-81106762D01*
X62336825Y-81093238D01*
X62355049Y-80954808D01*
X62355682Y-80950000D01*
X62351596Y-80918963D01*
X62335677Y-80798043D01*
X62335676Y-80798040D01*
X62335044Y-80793238D01*
X62274536Y-80647159D01*
X62271586Y-80643315D01*
X62271584Y-80643311D01*
X62181237Y-80525569D01*
X62178282Y-80521718D01*
X62165771Y-80512118D01*
X62079452Y-80445883D01*
X62052254Y-80403191D01*
X62050500Y-80387175D01*
X62050500Y-80286268D01*
X62067813Y-80238702D01*
X62096182Y-80217901D01*
X62125183Y-80205889D01*
X62125189Y-80205886D01*
X62129664Y-80204032D01*
X62253788Y-80108788D01*
X62268887Y-80089111D01*
X62346080Y-79988511D01*
X62346082Y-79988508D01*
X62349032Y-79984663D01*
X62396633Y-79869744D01*
X62430831Y-79832424D01*
X62481017Y-79825817D01*
X62523708Y-79853015D01*
X62533367Y-79869744D01*
X62580968Y-79984663D01*
X62583918Y-79988508D01*
X62583920Y-79988511D01*
X62661113Y-80089111D01*
X62676212Y-80108788D01*
X62800336Y-80204032D01*
X62944883Y-80263905D01*
X63019805Y-80273769D01*
X63028289Y-80274886D01*
X63070956Y-80295927D01*
X63948930Y-81173901D01*
X63952515Y-81178054D01*
X63954575Y-81182269D01*
X63991181Y-81216226D01*
X63993181Y-81218152D01*
X64007277Y-81232248D01*
X64010088Y-81234176D01*
X64012707Y-81236353D01*
X64012597Y-81236485D01*
X64015773Y-81239039D01*
X64029775Y-81252027D01*
X64036646Y-81258401D01*
X64042988Y-81260931D01*
X64042994Y-81260935D01*
X64049923Y-81263699D01*
X64064359Y-81271407D01*
X64070507Y-81275624D01*
X64076146Y-81279492D01*
X64082796Y-81281070D01*
X64082798Y-81281071D01*
X64103840Y-81286064D01*
X64114176Y-81289332D01*
X64140622Y-81299883D01*
X64146915Y-81300500D01*
X64156012Y-81300500D01*
X64173099Y-81302500D01*
X64178415Y-81303762D01*
X64178417Y-81303762D01*
X64185066Y-81305340D01*
X64215663Y-81301176D01*
X64225642Y-81300500D01*
X78325974Y-81300500D01*
X78366979Y-81312900D01*
X78427924Y-81353469D01*
X78427927Y-81353470D01*
X78432313Y-81356390D01*
X78569157Y-81399142D01*
X78574425Y-81399239D01*
X78574428Y-81399239D01*
X78634733Y-81400344D01*
X78712499Y-81401770D01*
X78717582Y-81400384D01*
X78717584Y-81400384D01*
X78845727Y-81365448D01*
X78845729Y-81365447D01*
X78850817Y-81364060D01*
X78935029Y-81312354D01*
X78968498Y-81291804D01*
X78968499Y-81291803D01*
X78972991Y-81289045D01*
X79021597Y-81235345D01*
X79031105Y-81224841D01*
X79075861Y-81201194D01*
X79085968Y-81200500D01*
X79395433Y-81200500D01*
X79400906Y-81200902D01*
X79405342Y-81202425D01*
X79412166Y-81202169D01*
X79412167Y-81202169D01*
X79455241Y-81200552D01*
X79458017Y-81200500D01*
X79477948Y-81200500D01*
X79481300Y-81199876D01*
X79484691Y-81199563D01*
X79484709Y-81199753D01*
X79488755Y-81199294D01*
X79517208Y-81198226D01*
X79523485Y-81195529D01*
X79523490Y-81195528D01*
X79530343Y-81192584D01*
X79546002Y-81187826D01*
X79553336Y-81186460D01*
X79560053Y-81185209D01*
X79565868Y-81181624D01*
X79565872Y-81181623D01*
X79584290Y-81170270D01*
X79593907Y-81165274D01*
X79615262Y-81156099D01*
X79615264Y-81156098D01*
X79620063Y-81154036D01*
X79624949Y-81150022D01*
X79631380Y-81143591D01*
X79644876Y-81132923D01*
X79649532Y-81130053D01*
X79655348Y-81126468D01*
X79673987Y-81101957D01*
X79674039Y-81101888D01*
X79680617Y-81094354D01*
X81703470Y-79071501D01*
X81749346Y-79050109D01*
X81757152Y-79049839D01*
X81812105Y-79050846D01*
X81862499Y-79051770D01*
X81867581Y-79050385D01*
X81867585Y-79050384D01*
X81995727Y-79015448D01*
X81995729Y-79015447D01*
X82000817Y-79014060D01*
X82079657Y-78965652D01*
X82118498Y-78941804D01*
X82118499Y-78941803D01*
X82122991Y-78939045D01*
X82219200Y-78832754D01*
X82281710Y-78703733D01*
X82305496Y-78562354D01*
X82305647Y-78550000D01*
X82296119Y-78483467D01*
X82286070Y-78413297D01*
X82286070Y-78413296D01*
X82285323Y-78408082D01*
X82278383Y-78392817D01*
X82228166Y-78282371D01*
X82225984Y-78277572D01*
X82132400Y-78168963D01*
X82127981Y-78166099D01*
X82127979Y-78166097D01*
X82061358Y-78122916D01*
X82012095Y-78090985D01*
X81886650Y-78053469D01*
X81879792Y-78051418D01*
X81879791Y-78051418D01*
X81874739Y-78049907D01*
X81801103Y-78049457D01*
X81736646Y-78049063D01*
X81736645Y-78049063D01*
X81731376Y-78049031D01*
X81593529Y-78088428D01*
X81589069Y-78091242D01*
X81574580Y-78100384D01*
X81472280Y-78164930D01*
X81465193Y-78172955D01*
X81399914Y-78246870D01*
X81377377Y-78272388D01*
X81316447Y-78402163D01*
X81294391Y-78543823D01*
X81295074Y-78549046D01*
X81295074Y-78549049D01*
X81299704Y-78584453D01*
X81288705Y-78633863D01*
X81278655Y-78646374D01*
X79347203Y-80577826D01*
X79301327Y-80599218D01*
X79294877Y-80599500D01*
X79085714Y-80599500D01*
X79038148Y-80582187D01*
X79029654Y-80573804D01*
X78985840Y-80522955D01*
X78985839Y-80522954D01*
X78982400Y-80518963D01*
X78977981Y-80516099D01*
X78977979Y-80516097D01*
X78932564Y-80486661D01*
X78862095Y-80440985D01*
X78735720Y-80403191D01*
X78729792Y-80401418D01*
X78729791Y-80401418D01*
X78724739Y-80399907D01*
X78651103Y-80399457D01*
X78586646Y-80399063D01*
X78586645Y-80399063D01*
X78581376Y-80399031D01*
X78443529Y-80438428D01*
X78322280Y-80514930D01*
X78227377Y-80622388D01*
X78225136Y-80627161D01*
X78211151Y-80656949D01*
X78175265Y-80692648D01*
X78144166Y-80699500D01*
X66239256Y-80699500D01*
X66191690Y-80682187D01*
X66166380Y-80638350D01*
X66175170Y-80588500D01*
X66185534Y-80574609D01*
X66238296Y-80518913D01*
X66238298Y-80518910D01*
X66241251Y-80515793D01*
X66245831Y-80507909D01*
X66326441Y-80369127D01*
X66328599Y-80365412D01*
X66379010Y-80198969D01*
X66383249Y-80130638D01*
X66389512Y-80029687D01*
X66389512Y-80029684D01*
X66389778Y-80025393D01*
X66370537Y-79913417D01*
X66361055Y-79858231D01*
X66361054Y-79858229D01*
X66360327Y-79853996D01*
X66351148Y-79832424D01*
X66293917Y-79697923D01*
X66293915Y-79697920D01*
X66292235Y-79693971D01*
X66242249Y-79626047D01*
X66191703Y-79557362D01*
X66191701Y-79557360D01*
X66189157Y-79553903D01*
X66180844Y-79546840D01*
X66059897Y-79444089D01*
X66056620Y-79441305D01*
X65901735Y-79362217D01*
X65732810Y-79320881D01*
X65721833Y-79320200D01*
X65596453Y-79320200D01*
X65594328Y-79320448D01*
X65594324Y-79320448D01*
X65471532Y-79334764D01*
X65471531Y-79334764D01*
X65467261Y-79335262D01*
X65463220Y-79336729D01*
X65463219Y-79336729D01*
X65307834Y-79393131D01*
X65307831Y-79393132D01*
X65303788Y-79394600D01*
X65158350Y-79489953D01*
X65076220Y-79576652D01*
X65030939Y-79599278D01*
X64981709Y-79587504D01*
X64951564Y-79546840D01*
X64949131Y-79535422D01*
X64949051Y-79534817D01*
X64946564Y-79525535D01*
X64890451Y-79390068D01*
X64885645Y-79381743D01*
X64879354Y-79373545D01*
X64870384Y-79367831D01*
X64866227Y-79368378D01*
X64558831Y-79675774D01*
X64554336Y-79685413D01*
X64555917Y-79691312D01*
X64871354Y-80006749D01*
X64892746Y-80052625D01*
X64892886Y-80063656D01*
X64891183Y-80091111D01*
X64890222Y-80106607D01*
X64890951Y-80110848D01*
X64917276Y-80264052D01*
X64919673Y-80278004D01*
X64921355Y-80281957D01*
X64982006Y-80424494D01*
X64987765Y-80438029D01*
X65090644Y-80577826D01*
X65090843Y-80578097D01*
X65090175Y-80578589D01*
X65108444Y-80621627D01*
X65093644Y-80670034D01*
X65051192Y-80697603D01*
X65034545Y-80699500D01*
X64355123Y-80699500D01*
X64307557Y-80682187D01*
X64302797Y-80677826D01*
X63811796Y-80186825D01*
X64052924Y-80186825D01*
X64054010Y-80190875D01*
X64066740Y-80200643D01*
X64075071Y-80205453D01*
X64210535Y-80261564D01*
X64219818Y-80264052D01*
X64365192Y-80283190D01*
X64374808Y-80283190D01*
X64520182Y-80264052D01*
X64529465Y-80261564D01*
X64664929Y-80205453D01*
X64673260Y-80200643D01*
X64681456Y-80194354D01*
X64687170Y-80185385D01*
X64686623Y-80181228D01*
X64379226Y-79873831D01*
X64369587Y-79869336D01*
X64363688Y-79870917D01*
X64057419Y-80177186D01*
X64052924Y-80186825D01*
X63811796Y-80186825D01*
X63651242Y-80026271D01*
X63629850Y-79980395D01*
X63635201Y-79945629D01*
X63666903Y-79869092D01*
X63701101Y-79831772D01*
X63751287Y-79825165D01*
X63793978Y-79852363D01*
X63803637Y-79869092D01*
X63849549Y-79979932D01*
X63854355Y-79988257D01*
X63860646Y-79996455D01*
X63869616Y-80002169D01*
X63873773Y-80001622D01*
X64181169Y-79694226D01*
X64185664Y-79684587D01*
X64184083Y-79678688D01*
X63877815Y-79372420D01*
X63868176Y-79367925D01*
X63864125Y-79369011D01*
X63854355Y-79381743D01*
X63849549Y-79390068D01*
X63803637Y-79500908D01*
X63769439Y-79538228D01*
X63719253Y-79544835D01*
X63676562Y-79517637D01*
X63666903Y-79500908D01*
X63658188Y-79479868D01*
X63619032Y-79385337D01*
X63616082Y-79381492D01*
X63616080Y-79381489D01*
X63526743Y-79265063D01*
X63523788Y-79261212D01*
X63399664Y-79165968D01*
X63284744Y-79118367D01*
X63247423Y-79084170D01*
X63240816Y-79033984D01*
X63268013Y-78991292D01*
X63284744Y-78981633D01*
X63323326Y-78965652D01*
X63399664Y-78934032D01*
X63523788Y-78838788D01*
X63537926Y-78820363D01*
X63616080Y-78718511D01*
X63616082Y-78718508D01*
X63619032Y-78714663D01*
X63666633Y-78599744D01*
X63700831Y-78562424D01*
X63751017Y-78555817D01*
X63793708Y-78583015D01*
X63803367Y-78599744D01*
X63850968Y-78714663D01*
X63853918Y-78718508D01*
X63853920Y-78718511D01*
X63932074Y-78820363D01*
X63946212Y-78838788D01*
X64070336Y-78934032D01*
X64185908Y-78981903D01*
X64223228Y-79016101D01*
X64229835Y-79066286D01*
X64202637Y-79108978D01*
X64185908Y-79118637D01*
X64075068Y-79164549D01*
X64066743Y-79169355D01*
X64058545Y-79175646D01*
X64052831Y-79184616D01*
X64053378Y-79188773D01*
X64360774Y-79496169D01*
X64370413Y-79500664D01*
X64376312Y-79499083D01*
X64682581Y-79192814D01*
X64687076Y-79183175D01*
X64685990Y-79179125D01*
X64673260Y-79169357D01*
X64664929Y-79164547D01*
X64554092Y-79118637D01*
X64516772Y-79084439D01*
X64510165Y-79034254D01*
X64537363Y-78991562D01*
X64554091Y-78981904D01*
X64669664Y-78934032D01*
X64793788Y-78838788D01*
X64807926Y-78820363D01*
X64886080Y-78718511D01*
X64886082Y-78718508D01*
X64889032Y-78714663D01*
X64948905Y-78570117D01*
X64949538Y-78565311D01*
X64950794Y-78560623D01*
X64952894Y-78561186D01*
X64972500Y-78523518D01*
X65019265Y-78504145D01*
X65067542Y-78519364D01*
X65082096Y-78534212D01*
X65088295Y-78542636D01*
X65088300Y-78542641D01*
X65090843Y-78546097D01*
X65094114Y-78548876D01*
X65094116Y-78548878D01*
X65199524Y-78638428D01*
X65223380Y-78658695D01*
X65378265Y-78737783D01*
X65547190Y-78779119D01*
X65558167Y-78779800D01*
X65683547Y-78779800D01*
X65685672Y-78779552D01*
X65685676Y-78779552D01*
X65808468Y-78765236D01*
X65808469Y-78765236D01*
X65812739Y-78764738D01*
X65840388Y-78754702D01*
X65972166Y-78706869D01*
X65972169Y-78706868D01*
X65976212Y-78705400D01*
X66121650Y-78610047D01*
X66241251Y-78483793D01*
X66246233Y-78475217D01*
X66326441Y-78337127D01*
X66328599Y-78333412D01*
X66379010Y-78166969D01*
X66383218Y-78099142D01*
X66389512Y-77997687D01*
X66389512Y-77997684D01*
X66389778Y-77993393D01*
X66372719Y-77894113D01*
X66361055Y-77826231D01*
X66361054Y-77826229D01*
X66360327Y-77821996D01*
X66356898Y-77813936D01*
X66303626Y-77688741D01*
X66300933Y-77638193D01*
X66331360Y-77597741D01*
X66380672Y-77586311D01*
X66424044Y-77607441D01*
X68779115Y-79962512D01*
X68782700Y-79966665D01*
X68784760Y-79970880D01*
X68817900Y-80001622D01*
X68821366Y-80004837D01*
X68823366Y-80006763D01*
X68837461Y-80020858D01*
X68840272Y-80022786D01*
X68842897Y-80024967D01*
X68842792Y-80025093D01*
X68845962Y-80027653D01*
X68861822Y-80042366D01*
X68861824Y-80042367D01*
X68866831Y-80047012D01*
X68873175Y-80049543D01*
X68873178Y-80049545D01*
X68880108Y-80052310D01*
X68894544Y-80060018D01*
X68899848Y-80063656D01*
X68906331Y-80068103D01*
X68912981Y-80069681D01*
X68912983Y-80069682D01*
X68934025Y-80074675D01*
X68944361Y-80077943D01*
X68970807Y-80088494D01*
X68977100Y-80089111D01*
X68986197Y-80089111D01*
X69003284Y-80091111D01*
X69008600Y-80092373D01*
X69008602Y-80092373D01*
X69015251Y-80093951D01*
X69045848Y-80089787D01*
X69055827Y-80089111D01*
X76771816Y-80089111D01*
X76777289Y-80089513D01*
X76781725Y-80091036D01*
X76788549Y-80090780D01*
X76788550Y-80090780D01*
X76831624Y-80089163D01*
X76834400Y-80089111D01*
X76854331Y-80089111D01*
X76857683Y-80088487D01*
X76861074Y-80088174D01*
X76861092Y-80088364D01*
X76865138Y-80087905D01*
X76893591Y-80086837D01*
X76899868Y-80084140D01*
X76899873Y-80084139D01*
X76906726Y-80081195D01*
X76922385Y-80076437D01*
X76929719Y-80075071D01*
X76936436Y-80073820D01*
X76942251Y-80070235D01*
X76942255Y-80070234D01*
X76960673Y-80058881D01*
X76970290Y-80053885D01*
X76991645Y-80044710D01*
X76991647Y-80044709D01*
X76996446Y-80042647D01*
X77001332Y-80038633D01*
X77007763Y-80032202D01*
X77021259Y-80021534D01*
X77025915Y-80018664D01*
X77031731Y-80015079D01*
X77043470Y-79999642D01*
X77050422Y-79990499D01*
X77057000Y-79982965D01*
X80073901Y-76966064D01*
X80078054Y-76962479D01*
X80082269Y-76960419D01*
X80116227Y-76923812D01*
X80118152Y-76921813D01*
X80132248Y-76907717D01*
X80134176Y-76904906D01*
X80136353Y-76902287D01*
X80136485Y-76902397D01*
X80139039Y-76899221D01*
X80153754Y-76883358D01*
X80153755Y-76883357D01*
X80158401Y-76878348D01*
X80163696Y-76865075D01*
X80171405Y-76850638D01*
X80175626Y-76844485D01*
X80179493Y-76838848D01*
X80186067Y-76811146D01*
X80189335Y-76800813D01*
X80197947Y-76779225D01*
X80197947Y-76779224D01*
X80199883Y-76774372D01*
X80200500Y-76768079D01*
X80200500Y-76758986D01*
X80202500Y-76741900D01*
X80203762Y-76736580D01*
X80203762Y-76736577D01*
X80205340Y-76729928D01*
X80201176Y-76699331D01*
X80200500Y-76689352D01*
X80200500Y-72341489D01*
X80217813Y-72293923D01*
X80222273Y-72289486D01*
X80222991Y-72289045D01*
X80319200Y-72182754D01*
X80381710Y-72053733D01*
X80393477Y-71983795D01*
X80418440Y-71939761D01*
X80465869Y-71922075D01*
X80513569Y-71939014D01*
X80518776Y-71943747D01*
X81027826Y-72452797D01*
X81049218Y-72498673D01*
X81049500Y-72505123D01*
X81049500Y-72608553D01*
X81032187Y-72656119D01*
X81025379Y-72662975D01*
X81022280Y-72664930D01*
X80999430Y-72690803D01*
X80946966Y-72750208D01*
X80927377Y-72772388D01*
X80866447Y-72902163D01*
X80865637Y-72907368D01*
X80865636Y-72907370D01*
X80860275Y-72941804D01*
X80844391Y-73043823D01*
X80845074Y-73049046D01*
X80845074Y-73049049D01*
X80845430Y-73051770D01*
X80862980Y-73185979D01*
X80920720Y-73317203D01*
X80924112Y-73321238D01*
X81009580Y-73422916D01*
X81009583Y-73422919D01*
X81012970Y-73426948D01*
X81029222Y-73437766D01*
X81127924Y-73503469D01*
X81127927Y-73503470D01*
X81132313Y-73506390D01*
X81269157Y-73549142D01*
X81274425Y-73549239D01*
X81274428Y-73549239D01*
X81397212Y-73551490D01*
X81448181Y-73573152D01*
X82598947Y-74723918D01*
X82620339Y-74769794D01*
X82607238Y-74818689D01*
X82565774Y-74847723D01*
X82515893Y-74843447D01*
X82512095Y-74840985D01*
X82507044Y-74839475D01*
X82507041Y-74839473D01*
X82379792Y-74801418D01*
X82379791Y-74801418D01*
X82374739Y-74799907D01*
X82301103Y-74799457D01*
X82236646Y-74799063D01*
X82236645Y-74799063D01*
X82231376Y-74799031D01*
X82093529Y-74838428D01*
X82089069Y-74841242D01*
X82081151Y-74846238D01*
X81972280Y-74914930D01*
X81957339Y-74931848D01*
X81884719Y-75014075D01*
X81877377Y-75022388D01*
X81816447Y-75152163D01*
X81815637Y-75157368D01*
X81815636Y-75157370D01*
X81811036Y-75186915D01*
X81794391Y-75293823D01*
X81795074Y-75299046D01*
X81795074Y-75299049D01*
X81799151Y-75330225D01*
X81812980Y-75435979D01*
X81870720Y-75567203D01*
X81874112Y-75571238D01*
X81959580Y-75672916D01*
X81959583Y-75672919D01*
X81962970Y-75676948D01*
X82082313Y-75756390D01*
X82087348Y-75757963D01*
X82087824Y-75758190D01*
X82123304Y-75794293D01*
X82127277Y-75844756D01*
X82097884Y-75885966D01*
X82093521Y-75888415D01*
X82093529Y-75888428D01*
X81972280Y-75964930D01*
X81936777Y-76005130D01*
X81894661Y-76052818D01*
X81877377Y-76072388D01*
X81816447Y-76202163D01*
X81815637Y-76207368D01*
X81815636Y-76207370D01*
X81810655Y-76239362D01*
X81794391Y-76343823D01*
X81795074Y-76349046D01*
X81795074Y-76349049D01*
X81796814Y-76362354D01*
X81812980Y-76485979D01*
X81870720Y-76617203D01*
X81874112Y-76621238D01*
X81959580Y-76722916D01*
X81959583Y-76722919D01*
X81962970Y-76726948D01*
X81977440Y-76736580D01*
X82077924Y-76803469D01*
X82077927Y-76803470D01*
X82082313Y-76806390D01*
X82219157Y-76849142D01*
X82224425Y-76849239D01*
X82224428Y-76849239D01*
X82347211Y-76851490D01*
X82398180Y-76873152D01*
X84798933Y-79273905D01*
X84802515Y-79278054D01*
X84804575Y-79282269D01*
X84809587Y-79286918D01*
X84841167Y-79316213D01*
X84843167Y-79318139D01*
X84857276Y-79332248D01*
X84860084Y-79334174D01*
X84862710Y-79336356D01*
X84862594Y-79336495D01*
X84865776Y-79339042D01*
X84881634Y-79353752D01*
X84886646Y-79358401D01*
X84899923Y-79363698D01*
X84914359Y-79371406D01*
X84926146Y-79379492D01*
X84932796Y-79381070D01*
X84932798Y-79381071D01*
X84953840Y-79386064D01*
X84964176Y-79389332D01*
X84990622Y-79399883D01*
X84996915Y-79400500D01*
X85006012Y-79400500D01*
X85023099Y-79402500D01*
X85028415Y-79403762D01*
X85028417Y-79403762D01*
X85035066Y-79405340D01*
X85065663Y-79401176D01*
X85075642Y-79400500D01*
X89314241Y-79400500D01*
X89361807Y-79417813D01*
X89370887Y-79426884D01*
X89409580Y-79472916D01*
X89409583Y-79472919D01*
X89412970Y-79476948D01*
X89417357Y-79479868D01*
X89527924Y-79553469D01*
X89527927Y-79553470D01*
X89532313Y-79556390D01*
X89669157Y-79599142D01*
X89674425Y-79599239D01*
X89674428Y-79599239D01*
X89734733Y-79600344D01*
X89812499Y-79601770D01*
X89817582Y-79600384D01*
X89817584Y-79600384D01*
X89945727Y-79565448D01*
X89945729Y-79565447D01*
X89950817Y-79564060D01*
X90027486Y-79516985D01*
X90068498Y-79491804D01*
X90068499Y-79491803D01*
X90072991Y-79489045D01*
X90169200Y-79382754D01*
X90231710Y-79253733D01*
X90255496Y-79112354D01*
X90255647Y-79100000D01*
X90248502Y-79050109D01*
X90236070Y-78963297D01*
X90236070Y-78963296D01*
X90235323Y-78958082D01*
X90180724Y-78837996D01*
X90178166Y-78832371D01*
X90175984Y-78827572D01*
X90099497Y-78738805D01*
X90085840Y-78722955D01*
X90085839Y-78722954D01*
X90082400Y-78718963D01*
X90077981Y-78716099D01*
X90077979Y-78716097D01*
X90017955Y-78677192D01*
X89962095Y-78640985D01*
X89838158Y-78603920D01*
X89829792Y-78601418D01*
X89829791Y-78601418D01*
X89824739Y-78599907D01*
X89751103Y-78599457D01*
X89686646Y-78599063D01*
X89686645Y-78599063D01*
X89681376Y-78599031D01*
X89543529Y-78638428D01*
X89539069Y-78641242D01*
X89520351Y-78653052D01*
X89422280Y-78714930D01*
X89403825Y-78735827D01*
X89369683Y-78774485D01*
X89325219Y-78798678D01*
X89314217Y-78799500D01*
X85205123Y-78799500D01*
X85157557Y-78782187D01*
X85152797Y-78777826D01*
X84850188Y-78475217D01*
X84828796Y-78429341D01*
X84841897Y-78380446D01*
X84883361Y-78351412D01*
X84933788Y-78355824D01*
X84933982Y-78355930D01*
X84936646Y-78358401D01*
X84942992Y-78360933D01*
X84942994Y-78360934D01*
X84949923Y-78363699D01*
X84964359Y-78371407D01*
X84970507Y-78375624D01*
X84976146Y-78379492D01*
X84982796Y-78381070D01*
X84982798Y-78381071D01*
X85003840Y-78386064D01*
X85014176Y-78389332D01*
X85040622Y-78399883D01*
X85046915Y-78400500D01*
X85056012Y-78400500D01*
X85073099Y-78402500D01*
X85078415Y-78403762D01*
X85078417Y-78403762D01*
X85085066Y-78405340D01*
X85115663Y-78401176D01*
X85125642Y-78400500D01*
X91744877Y-78400500D01*
X91792443Y-78417813D01*
X91797203Y-78422174D01*
X94177847Y-80802818D01*
X94199239Y-80848694D01*
X94198640Y-80866526D01*
X94195202Y-80888613D01*
X94194391Y-80893823D01*
X94195074Y-80899046D01*
X94195074Y-80899049D01*
X94201737Y-80950000D01*
X94212980Y-81035979D01*
X94270720Y-81167203D01*
X94279804Y-81178010D01*
X94359580Y-81272916D01*
X94359583Y-81272919D01*
X94362970Y-81276948D01*
X94397600Y-81300000D01*
X94477924Y-81353469D01*
X94477927Y-81353470D01*
X94482313Y-81356390D01*
X94619157Y-81399142D01*
X94624425Y-81399239D01*
X94624428Y-81399239D01*
X94684733Y-81400344D01*
X94762499Y-81401770D01*
X94767582Y-81400384D01*
X94767584Y-81400384D01*
X94895727Y-81365448D01*
X94895729Y-81365447D01*
X94900817Y-81364060D01*
X94985029Y-81312354D01*
X95018498Y-81291804D01*
X95018499Y-81291803D01*
X95022991Y-81289045D01*
X95119200Y-81182754D01*
X95181710Y-81053733D01*
X95205496Y-80912354D01*
X95205647Y-80900000D01*
X95201314Y-80869748D01*
X113949500Y-80869748D01*
X113961133Y-80928231D01*
X113965184Y-80934293D01*
X113965184Y-80934294D01*
X114001158Y-80988132D01*
X114005448Y-80994552D01*
X114011509Y-80998602D01*
X114027948Y-81009586D01*
X114071769Y-81038867D01*
X114109449Y-81046362D01*
X114126682Y-81049790D01*
X114126683Y-81049790D01*
X114130252Y-81050500D01*
X115869748Y-81050500D01*
X115873317Y-81049790D01*
X115873318Y-81049790D01*
X115890551Y-81046362D01*
X115928231Y-81038867D01*
X115972053Y-81009586D01*
X115988491Y-80998602D01*
X115994552Y-80994552D01*
X115998842Y-80988132D01*
X116034816Y-80934294D01*
X116034816Y-80934293D01*
X116038867Y-80928231D01*
X116050500Y-80869748D01*
X116050500Y-80507843D01*
X117350000Y-80507843D01*
X117350393Y-80513212D01*
X117360013Y-80578564D01*
X117363382Y-80589408D01*
X117413176Y-80690826D01*
X117420199Y-80700634D01*
X117499899Y-80780196D01*
X117509717Y-80787199D01*
X117611226Y-80836818D01*
X117622070Y-80840169D01*
X117686805Y-80849613D01*
X117692139Y-80850000D01*
X117759952Y-80850000D01*
X117769948Y-80846362D01*
X117773000Y-80841075D01*
X117773000Y-79890048D01*
X117769362Y-79880052D01*
X117764075Y-79877000D01*
X117363048Y-79877000D01*
X117353052Y-79880638D01*
X117350000Y-79885925D01*
X117350000Y-80507843D01*
X116050500Y-80507843D01*
X116050500Y-79609952D01*
X117350000Y-79609952D01*
X117353638Y-79619948D01*
X117358925Y-79623000D01*
X117759952Y-79623000D01*
X117769948Y-79619362D01*
X117773000Y-79614075D01*
X117773000Y-78663048D01*
X117769362Y-78653052D01*
X117764075Y-78650000D01*
X117692157Y-78650000D01*
X117686788Y-78650393D01*
X117621436Y-78660013D01*
X117610592Y-78663382D01*
X117509174Y-78713176D01*
X117499366Y-78720199D01*
X117419804Y-78799899D01*
X117412801Y-78809717D01*
X117363182Y-78911226D01*
X117359831Y-78922070D01*
X117350387Y-78986805D01*
X117350000Y-78992139D01*
X117350000Y-79609952D01*
X116050500Y-79609952D01*
X116050500Y-79130252D01*
X116038867Y-79071769D01*
X116013620Y-79033984D01*
X115998602Y-79011509D01*
X115994552Y-79005448D01*
X115974589Y-78992109D01*
X115934294Y-78965184D01*
X115934293Y-78965184D01*
X115928231Y-78961133D01*
X115883705Y-78952276D01*
X115873318Y-78950210D01*
X115873317Y-78950210D01*
X115869748Y-78949500D01*
X114130252Y-78949500D01*
X114126683Y-78950210D01*
X114126682Y-78950210D01*
X114116295Y-78952276D01*
X114071769Y-78961133D01*
X114065707Y-78965184D01*
X114065706Y-78965184D01*
X114025411Y-78992109D01*
X114005448Y-79005448D01*
X114001398Y-79011509D01*
X113986381Y-79033984D01*
X113961133Y-79071769D01*
X113949500Y-79130252D01*
X113949500Y-80869748D01*
X95201314Y-80869748D01*
X95198430Y-80849607D01*
X95186070Y-80763297D01*
X95186070Y-80763296D01*
X95185323Y-80758082D01*
X95125984Y-80627572D01*
X95032400Y-80518963D01*
X95027981Y-80516099D01*
X95027979Y-80516097D01*
X94982564Y-80486661D01*
X94912095Y-80440985D01*
X94785720Y-80403191D01*
X94779792Y-80401418D01*
X94779791Y-80401418D01*
X94774739Y-80399907D01*
X94724752Y-80399602D01*
X94654343Y-80399171D01*
X94606883Y-80381567D01*
X94602469Y-80377498D01*
X92151070Y-77926099D01*
X92147485Y-77921946D01*
X92145425Y-77917731D01*
X92108818Y-77883773D01*
X92106819Y-77881848D01*
X92092723Y-77867752D01*
X92089912Y-77865824D01*
X92087293Y-77863647D01*
X92087403Y-77863515D01*
X92084227Y-77860961D01*
X92068364Y-77846246D01*
X92068363Y-77846245D01*
X92063354Y-77841599D01*
X92057012Y-77839069D01*
X92057006Y-77839065D01*
X92050077Y-77836301D01*
X92035641Y-77828593D01*
X92029493Y-77824376D01*
X92029492Y-77824375D01*
X92023854Y-77820508D01*
X92017204Y-77818930D01*
X92017202Y-77818929D01*
X91996160Y-77813936D01*
X91985824Y-77810668D01*
X91983932Y-77809913D01*
X91959378Y-77800117D01*
X91953085Y-77799500D01*
X91943988Y-77799500D01*
X91926901Y-77797500D01*
X91921585Y-77796238D01*
X91921583Y-77796238D01*
X91914934Y-77794660D01*
X91894066Y-77797500D01*
X91884337Y-77798824D01*
X91874358Y-77799500D01*
X85255123Y-77799500D01*
X85207557Y-77782187D01*
X85202797Y-77777826D01*
X82822657Y-75397686D01*
X82801265Y-75351810D01*
X82802008Y-75333084D01*
X82802715Y-75328883D01*
X82805496Y-75312354D01*
X82805647Y-75300000D01*
X82788787Y-75182269D01*
X82786070Y-75163297D01*
X82786070Y-75163296D01*
X82785323Y-75158082D01*
X82747684Y-75075299D01*
X82743757Y-75024833D01*
X82773187Y-74983649D01*
X82822205Y-74971018D01*
X82867374Y-74992345D01*
X83048930Y-75173901D01*
X83052515Y-75178054D01*
X83054575Y-75182269D01*
X83091181Y-75216226D01*
X83093181Y-75218152D01*
X83107276Y-75232247D01*
X83110087Y-75234175D01*
X83112712Y-75236356D01*
X83112607Y-75236482D01*
X83115777Y-75239042D01*
X83131637Y-75253755D01*
X83131639Y-75253756D01*
X83136646Y-75258401D01*
X83142990Y-75260932D01*
X83142993Y-75260934D01*
X83149923Y-75263699D01*
X83164359Y-75271407D01*
X83170507Y-75275624D01*
X83176146Y-75279492D01*
X83182796Y-75281070D01*
X83182798Y-75281071D01*
X83203840Y-75286064D01*
X83214176Y-75289332D01*
X83240622Y-75299883D01*
X83246915Y-75300500D01*
X83256012Y-75300500D01*
X83273099Y-75302500D01*
X83278415Y-75303762D01*
X83278417Y-75303762D01*
X83285066Y-75305340D01*
X83315663Y-75301176D01*
X83325642Y-75300500D01*
X87114241Y-75300500D01*
X87161807Y-75317813D01*
X87170887Y-75326884D01*
X87209580Y-75372916D01*
X87209583Y-75372919D01*
X87212970Y-75376948D01*
X87217357Y-75379868D01*
X87327924Y-75453469D01*
X87327927Y-75453470D01*
X87332313Y-75456390D01*
X87469157Y-75499142D01*
X87474425Y-75499239D01*
X87474428Y-75499239D01*
X87534733Y-75500344D01*
X87612499Y-75501770D01*
X87617582Y-75500384D01*
X87617584Y-75500384D01*
X87745727Y-75465448D01*
X87745729Y-75465447D01*
X87750817Y-75464060D01*
X87858918Y-75397686D01*
X87868498Y-75391804D01*
X87868499Y-75391803D01*
X87872991Y-75389045D01*
X87969200Y-75282754D01*
X88031710Y-75153733D01*
X88055496Y-75012354D01*
X88055647Y-75000000D01*
X88045887Y-74931848D01*
X88036070Y-74863297D01*
X88036070Y-74863296D01*
X88035323Y-74858082D01*
X87981120Y-74738867D01*
X87978166Y-74732371D01*
X87975984Y-74727572D01*
X87901102Y-74640668D01*
X87885840Y-74622955D01*
X87885839Y-74622954D01*
X87882400Y-74618963D01*
X87877981Y-74616099D01*
X87877979Y-74616097D01*
X87835401Y-74588500D01*
X87762095Y-74540985D01*
X87658168Y-74509904D01*
X87629792Y-74501418D01*
X87629791Y-74501418D01*
X87624739Y-74499907D01*
X87551103Y-74499457D01*
X87486646Y-74499063D01*
X87486645Y-74499063D01*
X87481376Y-74499031D01*
X87343529Y-74538428D01*
X87222280Y-74614930D01*
X87198011Y-74642410D01*
X87169683Y-74674485D01*
X87125219Y-74698678D01*
X87114217Y-74699500D01*
X85689806Y-74699500D01*
X85642240Y-74682187D01*
X85616930Y-74638350D01*
X85625720Y-74588500D01*
X85634943Y-74575841D01*
X85704438Y-74499063D01*
X85719200Y-74482754D01*
X85781710Y-74353733D01*
X85805496Y-74212354D01*
X85805647Y-74200000D01*
X85795694Y-74130500D01*
X85786070Y-74063297D01*
X85786070Y-74063296D01*
X85785323Y-74058082D01*
X85725984Y-73927572D01*
X85632400Y-73818963D01*
X85627973Y-73816093D01*
X85625854Y-73814245D01*
X85601391Y-73769930D01*
X85600500Y-73758481D01*
X85600500Y-73255123D01*
X85617813Y-73207557D01*
X85622174Y-73202797D01*
X87903470Y-70921501D01*
X87949346Y-70900109D01*
X87957152Y-70899839D01*
X88012105Y-70900846D01*
X88062499Y-70901770D01*
X88067581Y-70900385D01*
X88067585Y-70900384D01*
X88195727Y-70865448D01*
X88195729Y-70865447D01*
X88200817Y-70864060D01*
X88322991Y-70789045D01*
X88419200Y-70682754D01*
X88481710Y-70553733D01*
X88505496Y-70412354D01*
X88505647Y-70400000D01*
X88493593Y-70315827D01*
X88486070Y-70263297D01*
X88486070Y-70263296D01*
X88485323Y-70258082D01*
X88425984Y-70127572D01*
X88364780Y-70056542D01*
X88335840Y-70022955D01*
X88335839Y-70022954D01*
X88332400Y-70018963D01*
X88327981Y-70016099D01*
X88327979Y-70016097D01*
X88275756Y-69982248D01*
X88212095Y-69940985D01*
X88108168Y-69909904D01*
X88079792Y-69901418D01*
X88079791Y-69901418D01*
X88074739Y-69899907D01*
X88001103Y-69899457D01*
X87936646Y-69899063D01*
X87936645Y-69899063D01*
X87931376Y-69899031D01*
X87793529Y-69938428D01*
X87672280Y-70014930D01*
X87635530Y-70056542D01*
X87580911Y-70118387D01*
X87577377Y-70122388D01*
X87516447Y-70252163D01*
X87494391Y-70393823D01*
X87495074Y-70399047D01*
X87495074Y-70399048D01*
X87495214Y-70400117D01*
X87499408Y-70432187D01*
X87499704Y-70434452D01*
X87488705Y-70483862D01*
X87478655Y-70496373D01*
X85126099Y-72848930D01*
X85121946Y-72852515D01*
X85117731Y-72854575D01*
X85083774Y-72891181D01*
X85081848Y-72893181D01*
X85067752Y-72907277D01*
X85065824Y-72910088D01*
X85063647Y-72912707D01*
X85063515Y-72912597D01*
X85060961Y-72915773D01*
X85041599Y-72936646D01*
X85039069Y-72942988D01*
X85039065Y-72942994D01*
X85036301Y-72949923D01*
X85028593Y-72964359D01*
X85024376Y-72970507D01*
X85020508Y-72976146D01*
X85018930Y-72982796D01*
X85018929Y-72982798D01*
X85013936Y-73003840D01*
X85010668Y-73014176D01*
X85000117Y-73040622D01*
X84999500Y-73046915D01*
X84999500Y-73056012D01*
X84997500Y-73073098D01*
X84994660Y-73085066D01*
X84995582Y-73091839D01*
X84998824Y-73115663D01*
X84999500Y-73125642D01*
X84999500Y-73758553D01*
X84982187Y-73806119D01*
X84975379Y-73812975D01*
X84972280Y-73814930D01*
X84953088Y-73836661D01*
X84916476Y-73878117D01*
X84877377Y-73922388D01*
X84816447Y-74052163D01*
X84815637Y-74057368D01*
X84815636Y-74057370D01*
X84805419Y-74122993D01*
X84794391Y-74193823D01*
X84795074Y-74199046D01*
X84795074Y-74199049D01*
X84795573Y-74202862D01*
X84812980Y-74335979D01*
X84870720Y-74467203D01*
X84953858Y-74566108D01*
X84962970Y-74576948D01*
X84961088Y-74578530D01*
X84980614Y-74614941D01*
X84970266Y-74664491D01*
X84930488Y-74695796D01*
X84907371Y-74699500D01*
X83455123Y-74699500D01*
X83407557Y-74682187D01*
X83402797Y-74677826D01*
X81872657Y-73147686D01*
X81851265Y-73101810D01*
X81852008Y-73083084D01*
X81852764Y-73078589D01*
X81855496Y-73062354D01*
X81855647Y-73050000D01*
X81850105Y-73011301D01*
X81836070Y-72913297D01*
X81836070Y-72913296D01*
X81835323Y-72908082D01*
X81812911Y-72858788D01*
X81778166Y-72782371D01*
X81775984Y-72777572D01*
X81682400Y-72668963D01*
X81677973Y-72666093D01*
X81675854Y-72664245D01*
X81651391Y-72619930D01*
X81650500Y-72608481D01*
X81650500Y-72404573D01*
X81650902Y-72399096D01*
X81652426Y-72394658D01*
X81650552Y-72344744D01*
X81650500Y-72341968D01*
X81650500Y-72322052D01*
X81649875Y-72318695D01*
X81649562Y-72315307D01*
X81649750Y-72315290D01*
X81649294Y-72311242D01*
X81648979Y-72302855D01*
X81648226Y-72282792D01*
X81645529Y-72276515D01*
X81645528Y-72276510D01*
X81642584Y-72269657D01*
X81637826Y-72253998D01*
X81636460Y-72246662D01*
X81636459Y-72246660D01*
X81635209Y-72239947D01*
X81620270Y-72215710D01*
X81615274Y-72206094D01*
X81606097Y-72184734D01*
X81606096Y-72184732D01*
X81604036Y-72179938D01*
X81600023Y-72175052D01*
X81593591Y-72168620D01*
X81582923Y-72155124D01*
X81580053Y-72150468D01*
X81576468Y-72144652D01*
X81551888Y-72125961D01*
X81544354Y-72119383D01*
X80551797Y-71126826D01*
X80530405Y-71080950D01*
X80543506Y-71032055D01*
X80584970Y-71003021D01*
X80604123Y-71000500D01*
X82044877Y-71000500D01*
X82092443Y-71017813D01*
X82097203Y-71022174D01*
X83077826Y-72002798D01*
X83099218Y-72048675D01*
X83099500Y-72055124D01*
X83099500Y-73108553D01*
X83082187Y-73156119D01*
X83075379Y-73162975D01*
X83072280Y-73164930D01*
X83049430Y-73190803D01*
X82997994Y-73249044D01*
X82977377Y-73272388D01*
X82916447Y-73402163D01*
X82894391Y-73543823D01*
X82895074Y-73549046D01*
X82895074Y-73549049D01*
X82895430Y-73551770D01*
X82912980Y-73685979D01*
X82970720Y-73817203D01*
X82976545Y-73824133D01*
X83059580Y-73922916D01*
X83059583Y-73922919D01*
X83062970Y-73926948D01*
X83067357Y-73929868D01*
X83177924Y-74003469D01*
X83177927Y-74003470D01*
X83182313Y-74006390D01*
X83319157Y-74049142D01*
X83324425Y-74049239D01*
X83324428Y-74049239D01*
X83384733Y-74050344D01*
X83462499Y-74051770D01*
X83467582Y-74050384D01*
X83467584Y-74050384D01*
X83595727Y-74015448D01*
X83595729Y-74015447D01*
X83600817Y-74014060D01*
X83661904Y-73976552D01*
X83718498Y-73941804D01*
X83718499Y-73941803D01*
X83722991Y-73939045D01*
X83819200Y-73832754D01*
X83881710Y-73703733D01*
X83905496Y-73562354D01*
X83905647Y-73550000D01*
X83887682Y-73424556D01*
X83886070Y-73413297D01*
X83886070Y-73413296D01*
X83885323Y-73408082D01*
X83883092Y-73403174D01*
X83828166Y-73282371D01*
X83825984Y-73277572D01*
X83732400Y-73168963D01*
X83727973Y-73166093D01*
X83725854Y-73164245D01*
X83701391Y-73119930D01*
X83700500Y-73108481D01*
X83700500Y-71954567D01*
X83700902Y-71949094D01*
X83702425Y-71944658D01*
X83701213Y-71912354D01*
X83700552Y-71894758D01*
X83700500Y-71891982D01*
X83700500Y-71872052D01*
X83699876Y-71868700D01*
X83699563Y-71865309D01*
X83699753Y-71865291D01*
X83699294Y-71861242D01*
X83699183Y-71858279D01*
X83698226Y-71832791D01*
X83695530Y-71826516D01*
X83695529Y-71826512D01*
X83692584Y-71819658D01*
X83687825Y-71803995D01*
X83686460Y-71796664D01*
X83686460Y-71796663D01*
X83685209Y-71789947D01*
X83681624Y-71784132D01*
X83681623Y-71784128D01*
X83670270Y-71765710D01*
X83665274Y-71756093D01*
X83656099Y-71734738D01*
X83656098Y-71734736D01*
X83654036Y-71729937D01*
X83650022Y-71725051D01*
X83643591Y-71718620D01*
X83632923Y-71705124D01*
X83630053Y-71700468D01*
X83626468Y-71694652D01*
X83616378Y-71686979D01*
X83601888Y-71675961D01*
X83594354Y-71669383D01*
X82451070Y-70526099D01*
X82447485Y-70521946D01*
X82445425Y-70517731D01*
X82408818Y-70483773D01*
X82406819Y-70481848D01*
X82392723Y-70467752D01*
X82389912Y-70465824D01*
X82387293Y-70463647D01*
X82387403Y-70463515D01*
X82384227Y-70460961D01*
X82368364Y-70446246D01*
X82368363Y-70446245D01*
X82363354Y-70441599D01*
X82357012Y-70439069D01*
X82357006Y-70439065D01*
X82350077Y-70436301D01*
X82335641Y-70428593D01*
X82329493Y-70424376D01*
X82329492Y-70424375D01*
X82323854Y-70420508D01*
X82317204Y-70418930D01*
X82317202Y-70418929D01*
X82296160Y-70413936D01*
X82285824Y-70410668D01*
X82266258Y-70402862D01*
X82259378Y-70400117D01*
X82253085Y-70399500D01*
X82243988Y-70399500D01*
X82226901Y-70397500D01*
X82221585Y-70396238D01*
X82221583Y-70396238D01*
X82214934Y-70394660D01*
X82194066Y-70397500D01*
X82184337Y-70398824D01*
X82174358Y-70399500D01*
X77378726Y-70399500D01*
X77331160Y-70382187D01*
X77305850Y-70338350D01*
X77317196Y-70284968D01*
X77319200Y-70282754D01*
X77324780Y-70271238D01*
X77357897Y-70202884D01*
X77381710Y-70153733D01*
X77405496Y-70012354D01*
X77405647Y-70000000D01*
X77400788Y-69966072D01*
X77411183Y-69916533D01*
X77421715Y-69903256D01*
X82273901Y-65051070D01*
X82278054Y-65047485D01*
X82282269Y-65045425D01*
X82316227Y-65008818D01*
X82318152Y-65006819D01*
X82332248Y-64992723D01*
X82334176Y-64989912D01*
X82336353Y-64987293D01*
X82336485Y-64987403D01*
X82339039Y-64984227D01*
X82353754Y-64968364D01*
X82353755Y-64968363D01*
X82358401Y-64963354D01*
X82363696Y-64950081D01*
X82371405Y-64935644D01*
X82375626Y-64929491D01*
X82379493Y-64923854D01*
X82386067Y-64896152D01*
X82389335Y-64885819D01*
X82397947Y-64864231D01*
X82397947Y-64864230D01*
X82399883Y-64859378D01*
X82400500Y-64853085D01*
X82400500Y-64843992D01*
X82402500Y-64826906D01*
X82403762Y-64821586D01*
X82403762Y-64821583D01*
X82405340Y-64814934D01*
X82401176Y-64784337D01*
X82400500Y-64774358D01*
X82400500Y-57204123D01*
X82417813Y-57156557D01*
X82461650Y-57131247D01*
X82511500Y-57140037D01*
X82526826Y-57151797D01*
X86398930Y-61023901D01*
X86402515Y-61028054D01*
X86404575Y-61032269D01*
X86433921Y-61059491D01*
X86441181Y-61066226D01*
X86443181Y-61068152D01*
X86457277Y-61082248D01*
X86460088Y-61084176D01*
X86462707Y-61086353D01*
X86462597Y-61086485D01*
X86465773Y-61089039D01*
X86486646Y-61108401D01*
X86499919Y-61113696D01*
X86514355Y-61121404D01*
X86526146Y-61129493D01*
X86539888Y-61132754D01*
X86553848Y-61136067D01*
X86564181Y-61139335D01*
X86582889Y-61146798D01*
X86590622Y-61149883D01*
X86596915Y-61150500D01*
X86606008Y-61150500D01*
X86623094Y-61152500D01*
X86628414Y-61153762D01*
X86628417Y-61153762D01*
X86635066Y-61155340D01*
X86641834Y-61154419D01*
X86641837Y-61154419D01*
X86665663Y-61151176D01*
X86675642Y-61150500D01*
X92764241Y-61150500D01*
X92811807Y-61167813D01*
X92820887Y-61176884D01*
X92859580Y-61222916D01*
X92859583Y-61222919D01*
X92862970Y-61226948D01*
X92867357Y-61229868D01*
X92977924Y-61303469D01*
X92977927Y-61303470D01*
X92982313Y-61306390D01*
X93119157Y-61349142D01*
X93124425Y-61349239D01*
X93124428Y-61349239D01*
X93184733Y-61350344D01*
X93262499Y-61351770D01*
X93267582Y-61350384D01*
X93267584Y-61350384D01*
X93395727Y-61315448D01*
X93395729Y-61315447D01*
X93400817Y-61314060D01*
X93461904Y-61276553D01*
X93518498Y-61241804D01*
X93518499Y-61241803D01*
X93522991Y-61239045D01*
X93619200Y-61132754D01*
X93681710Y-61003733D01*
X93705496Y-60862354D01*
X93705647Y-60850000D01*
X93694532Y-60772388D01*
X93686070Y-60713297D01*
X93686070Y-60713296D01*
X93685323Y-60708082D01*
X93632083Y-60590985D01*
X93628166Y-60582371D01*
X93625984Y-60577572D01*
X93532400Y-60468963D01*
X93527981Y-60466099D01*
X93527979Y-60466097D01*
X93466121Y-60426003D01*
X93412095Y-60390985D01*
X93308168Y-60359904D01*
X93279792Y-60351418D01*
X93279791Y-60351418D01*
X93274739Y-60349907D01*
X93201103Y-60349457D01*
X93136646Y-60349063D01*
X93136645Y-60349063D01*
X93131376Y-60349031D01*
X92993529Y-60388428D01*
X92872280Y-60464930D01*
X92850983Y-60489045D01*
X92819683Y-60524485D01*
X92775219Y-60548678D01*
X92764217Y-60549500D01*
X86805124Y-60549500D01*
X86757558Y-60532187D01*
X86752798Y-60527826D01*
X82622657Y-56397686D01*
X82601265Y-56351810D01*
X82602008Y-56333084D01*
X82605496Y-56312354D01*
X82605647Y-56300000D01*
X82585323Y-56158082D01*
X82525984Y-56027572D01*
X82432400Y-55918963D01*
X82427981Y-55916099D01*
X82427979Y-55916097D01*
X82388068Y-55890228D01*
X82312095Y-55840985D01*
X82208168Y-55809904D01*
X82179792Y-55801418D01*
X82179791Y-55801418D01*
X82174739Y-55799907D01*
X82101103Y-55799457D01*
X82036646Y-55799063D01*
X82036645Y-55799063D01*
X82031376Y-55799031D01*
X81893529Y-55838428D01*
X81772280Y-55914930D01*
X81677377Y-56022388D01*
X81616447Y-56152163D01*
X81615637Y-56157368D01*
X81615636Y-56157370D01*
X81614459Y-56164930D01*
X81594391Y-56293823D01*
X81595074Y-56299046D01*
X81595074Y-56299049D01*
X81595573Y-56302862D01*
X81612980Y-56435979D01*
X81670720Y-56567203D01*
X81674112Y-56571238D01*
X81759580Y-56672916D01*
X81759583Y-56672919D01*
X81762970Y-56676948D01*
X81767356Y-56679867D01*
X81771287Y-56683382D01*
X81770311Y-56684473D01*
X81796507Y-56720068D01*
X81799500Y-56740901D01*
X81799500Y-64644877D01*
X81782187Y-64692443D01*
X81777826Y-64697203D01*
X76996982Y-69478047D01*
X76951106Y-69499439D01*
X76944204Y-69499720D01*
X76836646Y-69499063D01*
X76836645Y-69499063D01*
X76831376Y-69499031D01*
X76693529Y-69538428D01*
X76689069Y-69541242D01*
X76677480Y-69548554D01*
X76572280Y-69614930D01*
X76568792Y-69618880D01*
X76489980Y-69708118D01*
X76477377Y-69722388D01*
X76416447Y-69852163D01*
X76394391Y-69993823D01*
X76395074Y-69999046D01*
X76395074Y-69999049D01*
X76401722Y-70049883D01*
X76412980Y-70135979D01*
X76470720Y-70267203D01*
X76474112Y-70271238D01*
X76479699Y-70277885D01*
X76497052Y-70325437D01*
X76479780Y-70373018D01*
X76435964Y-70398365D01*
X76423052Y-70399500D01*
X72055123Y-70399500D01*
X72007557Y-70382187D01*
X72002797Y-70377826D01*
X70346040Y-68721069D01*
X72895164Y-68721069D01*
X72908392Y-68922894D01*
X72909226Y-68926177D01*
X72948356Y-69080252D01*
X72958178Y-69118928D01*
X72959599Y-69122011D01*
X72959600Y-69122013D01*
X72978672Y-69163382D01*
X73042856Y-69302607D01*
X73044810Y-69305372D01*
X73044813Y-69305377D01*
X73153436Y-69459075D01*
X73159588Y-69467780D01*
X73304466Y-69608913D01*
X73307278Y-69610792D01*
X73307283Y-69610796D01*
X73408207Y-69678231D01*
X73472637Y-69721282D01*
X73475751Y-69722620D01*
X73475753Y-69722621D01*
X73564508Y-69760753D01*
X73658470Y-69801122D01*
X73757755Y-69823588D01*
X73852425Y-69845010D01*
X73852426Y-69845010D01*
X73855740Y-69845760D01*
X73951462Y-69849521D01*
X74054447Y-69853567D01*
X74054451Y-69853567D01*
X74057842Y-69853700D01*
X74191504Y-69834320D01*
X74254649Y-69825165D01*
X74254650Y-69825165D01*
X74258007Y-69824678D01*
X74449531Y-69759664D01*
X74452483Y-69758011D01*
X74452487Y-69758009D01*
X74623041Y-69662495D01*
X74623044Y-69662493D01*
X74626001Y-69660837D01*
X74628606Y-69658670D01*
X74628611Y-69658667D01*
X74778897Y-69533674D01*
X74781505Y-69531505D01*
X74795828Y-69514284D01*
X74908667Y-69378611D01*
X74908670Y-69378606D01*
X74910837Y-69376001D01*
X74922235Y-69355648D01*
X75008009Y-69202487D01*
X75008011Y-69202483D01*
X75009664Y-69199531D01*
X75074678Y-69008007D01*
X75079945Y-68971682D01*
X75103387Y-68810003D01*
X75103387Y-68809998D01*
X75103700Y-68807842D01*
X75105215Y-68750000D01*
X75086708Y-68548591D01*
X75085789Y-68545333D01*
X75085788Y-68545327D01*
X75032728Y-68357191D01*
X75032727Y-68357189D01*
X75031807Y-68353926D01*
X75030307Y-68350885D01*
X75030305Y-68350879D01*
X75009006Y-68307690D01*
X75003495Y-68257372D01*
X75023048Y-68222634D01*
X76865813Y-66379868D01*
X76877999Y-66370027D01*
X76884011Y-66366145D01*
X76884013Y-66366143D01*
X76889152Y-66362825D01*
X76892938Y-66358023D01*
X76892942Y-66358019D01*
X76909902Y-66336505D01*
X76915689Y-66329992D01*
X76918428Y-66327253D01*
X76929377Y-66311932D01*
X76931450Y-66309170D01*
X76961392Y-66271189D01*
X76963418Y-66265419D01*
X76963988Y-66264383D01*
X76964430Y-66263680D01*
X76964711Y-66263140D01*
X76965028Y-66262383D01*
X76965555Y-66261307D01*
X76969111Y-66256331D01*
X76982960Y-66210023D01*
X76984037Y-66206707D01*
X76986612Y-66199374D01*
X77000055Y-66161094D01*
X77000500Y-66155956D01*
X77000500Y-66154619D01*
X77000884Y-66150088D01*
X77002544Y-66144536D01*
X77000557Y-66093963D01*
X77000500Y-66091058D01*
X77000500Y-57225834D01*
X77017813Y-57178268D01*
X77022174Y-57173508D01*
X81023508Y-53172174D01*
X81069384Y-53150782D01*
X81075834Y-53150500D01*
X85224166Y-53150500D01*
X85271732Y-53167813D01*
X85276492Y-53172174D01*
X85376040Y-53271722D01*
X85397089Y-53314452D01*
X85412980Y-53435979D01*
X85470720Y-53567203D01*
X85474112Y-53571238D01*
X85559580Y-53672916D01*
X85559583Y-53672919D01*
X85562970Y-53676948D01*
X85567357Y-53679868D01*
X85677924Y-53753469D01*
X85677927Y-53753470D01*
X85682313Y-53756390D01*
X85819157Y-53799142D01*
X85824425Y-53799239D01*
X85824428Y-53799239D01*
X85884733Y-53800344D01*
X85962499Y-53801770D01*
X85967582Y-53800384D01*
X85967584Y-53800384D01*
X86095727Y-53765448D01*
X86095729Y-53765447D01*
X86100817Y-53764060D01*
X86176138Y-53717813D01*
X86218498Y-53691804D01*
X86218499Y-53691803D01*
X86222991Y-53689045D01*
X86319200Y-53582754D01*
X86381710Y-53453733D01*
X86391789Y-53393823D01*
X86994391Y-53393823D01*
X86995074Y-53399046D01*
X86995074Y-53399049D01*
X87000534Y-53440803D01*
X87012980Y-53535979D01*
X87070720Y-53667203D01*
X87074112Y-53671238D01*
X87159580Y-53772916D01*
X87159583Y-53772919D01*
X87162970Y-53776948D01*
X87167357Y-53779868D01*
X87277924Y-53853469D01*
X87277927Y-53853470D01*
X87282313Y-53856390D01*
X87419157Y-53899142D01*
X87424425Y-53899239D01*
X87424428Y-53899239D01*
X87484733Y-53900344D01*
X87562499Y-53901770D01*
X87567582Y-53900384D01*
X87567584Y-53900384D01*
X87695727Y-53865448D01*
X87695729Y-53865447D01*
X87700817Y-53864060D01*
X87761904Y-53826553D01*
X87818498Y-53791804D01*
X87818499Y-53791803D01*
X87822991Y-53789045D01*
X87881105Y-53724841D01*
X87925861Y-53701194D01*
X87935968Y-53700500D01*
X89694877Y-53700500D01*
X89742443Y-53717813D01*
X89747203Y-53722174D01*
X90627826Y-54602797D01*
X90649218Y-54648673D01*
X90649500Y-54655123D01*
X90649500Y-56108553D01*
X90632187Y-56156119D01*
X90625379Y-56162975D01*
X90622280Y-56164930D01*
X90527377Y-56272388D01*
X90466447Y-56402163D01*
X90444391Y-56543823D01*
X90445074Y-56549046D01*
X90445074Y-56549049D01*
X90445573Y-56552862D01*
X90462980Y-56685979D01*
X90520720Y-56817203D01*
X90527467Y-56825229D01*
X90609580Y-56922916D01*
X90609583Y-56922919D01*
X90612970Y-56926948D01*
X90635288Y-56941804D01*
X90727924Y-57003469D01*
X90727927Y-57003470D01*
X90732313Y-57006390D01*
X90869157Y-57049142D01*
X90874425Y-57049239D01*
X90874428Y-57049239D01*
X90934733Y-57050344D01*
X91012499Y-57051770D01*
X91017582Y-57050384D01*
X91017584Y-57050384D01*
X91145727Y-57015448D01*
X91145729Y-57015447D01*
X91150817Y-57014060D01*
X91211904Y-56976552D01*
X91268498Y-56941804D01*
X91268499Y-56941803D01*
X91272991Y-56939045D01*
X91369200Y-56832754D01*
X91431710Y-56703733D01*
X91455496Y-56562354D01*
X91455647Y-56550000D01*
X91435323Y-56408082D01*
X91375984Y-56277572D01*
X91282400Y-56168963D01*
X91277973Y-56166093D01*
X91275854Y-56164245D01*
X91251391Y-56119930D01*
X91250500Y-56108481D01*
X91250500Y-54554567D01*
X91250902Y-54549094D01*
X91252425Y-54544658D01*
X91250552Y-54494759D01*
X91250500Y-54491983D01*
X91250500Y-54472052D01*
X91249876Y-54468700D01*
X91249563Y-54465309D01*
X91249753Y-54465291D01*
X91249294Y-54461242D01*
X91248482Y-54439620D01*
X91248226Y-54432792D01*
X91245529Y-54426515D01*
X91245528Y-54426510D01*
X91242584Y-54419657D01*
X91237826Y-54403998D01*
X91236460Y-54396664D01*
X91235209Y-54389947D01*
X91231624Y-54384132D01*
X91231623Y-54384128D01*
X91220270Y-54365710D01*
X91215274Y-54356093D01*
X91206099Y-54334738D01*
X91206098Y-54334736D01*
X91204036Y-54329937D01*
X91200022Y-54325051D01*
X91193591Y-54318620D01*
X91182923Y-54305124D01*
X91180053Y-54300468D01*
X91176468Y-54294652D01*
X91151888Y-54275961D01*
X91144354Y-54269383D01*
X90168794Y-53293823D01*
X107894391Y-53293823D01*
X107895074Y-53299046D01*
X107895074Y-53299049D01*
X107897183Y-53315177D01*
X107912980Y-53435979D01*
X107970720Y-53567203D01*
X107974112Y-53571238D01*
X108032146Y-53640278D01*
X108049500Y-53687894D01*
X108049500Y-79869339D01*
X108032823Y-79913417D01*
X108033760Y-79914032D01*
X108031002Y-79918230D01*
X108030967Y-79918323D01*
X108027377Y-79922388D01*
X107966447Y-80052163D01*
X107965637Y-80057368D01*
X107965636Y-80057370D01*
X107960383Y-80091111D01*
X107944391Y-80193823D01*
X107945074Y-80199046D01*
X107945074Y-80199049D01*
X107950391Y-80239707D01*
X107962980Y-80335979D01*
X108020720Y-80467203D01*
X108024112Y-80471238D01*
X108109580Y-80572916D01*
X108109583Y-80572919D01*
X108112970Y-80576948D01*
X108146849Y-80599500D01*
X108227924Y-80653469D01*
X108227927Y-80653470D01*
X108232313Y-80656390D01*
X108369157Y-80699142D01*
X108374425Y-80699239D01*
X108374428Y-80699239D01*
X108434733Y-80700344D01*
X108512499Y-80701770D01*
X108517582Y-80700384D01*
X108517584Y-80700384D01*
X108645727Y-80665448D01*
X108645729Y-80665447D01*
X108650817Y-80664060D01*
X108725125Y-80618435D01*
X108768498Y-80591804D01*
X108768499Y-80591803D01*
X108772991Y-80589045D01*
X108869200Y-80482754D01*
X108931710Y-80353733D01*
X108955496Y-80212354D01*
X108955647Y-80200000D01*
X108952380Y-80177186D01*
X108936070Y-80063297D01*
X108936070Y-80063296D01*
X108935323Y-80058082D01*
X108931442Y-80049545D01*
X108878166Y-79932371D01*
X108875984Y-79927572D01*
X108782400Y-79818963D01*
X108777973Y-79816093D01*
X108775854Y-79814245D01*
X108751391Y-79769930D01*
X108750500Y-79758481D01*
X108750500Y-53687170D01*
X108769637Y-53637511D01*
X108785810Y-53619643D01*
X108819200Y-53582754D01*
X108881710Y-53453733D01*
X108905496Y-53312354D01*
X108905647Y-53300000D01*
X108898796Y-53252163D01*
X108886070Y-53163297D01*
X108886070Y-53163296D01*
X108885323Y-53158082D01*
X108831120Y-53038867D01*
X108828166Y-53032371D01*
X108825984Y-53027572D01*
X108751597Y-52941242D01*
X108735840Y-52922955D01*
X108735839Y-52922954D01*
X108732400Y-52918963D01*
X108727981Y-52916099D01*
X108727979Y-52916097D01*
X108688068Y-52890228D01*
X108656471Y-52869748D01*
X113949500Y-52869748D01*
X113961133Y-52928231D01*
X113965184Y-52934293D01*
X113965184Y-52934294D01*
X113968646Y-52939475D01*
X114005448Y-52994552D01*
X114011509Y-52998602D01*
X114013066Y-52999642D01*
X114071769Y-53038867D01*
X114109449Y-53046362D01*
X114126682Y-53049790D01*
X114126683Y-53049790D01*
X114130252Y-53050500D01*
X115869748Y-53050500D01*
X115873317Y-53049790D01*
X115873318Y-53049790D01*
X115890551Y-53046362D01*
X115928231Y-53038867D01*
X115986935Y-52999642D01*
X115988491Y-52998602D01*
X115994552Y-52994552D01*
X116031354Y-52939475D01*
X116034816Y-52934294D01*
X116034816Y-52934293D01*
X116038867Y-52928231D01*
X116050500Y-52869748D01*
X116050500Y-51130252D01*
X116038867Y-51071769D01*
X116011709Y-51031124D01*
X115998602Y-51011509D01*
X115994552Y-51005448D01*
X115970785Y-50989567D01*
X115934294Y-50965184D01*
X115934293Y-50965184D01*
X115928231Y-50961133D01*
X115883705Y-50952276D01*
X115873318Y-50950210D01*
X115873317Y-50950210D01*
X115869748Y-50949500D01*
X114130252Y-50949500D01*
X114126683Y-50950210D01*
X114126682Y-50950210D01*
X114116295Y-50952276D01*
X114071769Y-50961133D01*
X114065707Y-50965184D01*
X114065706Y-50965184D01*
X114029215Y-50989567D01*
X114005448Y-51005448D01*
X114001398Y-51011509D01*
X113988292Y-51031124D01*
X113961133Y-51071769D01*
X113949500Y-51130252D01*
X113949500Y-52869748D01*
X108656471Y-52869748D01*
X108612095Y-52840985D01*
X108508168Y-52809904D01*
X108479792Y-52801418D01*
X108479791Y-52801418D01*
X108474739Y-52799907D01*
X108401103Y-52799457D01*
X108336646Y-52799063D01*
X108336645Y-52799063D01*
X108331376Y-52799031D01*
X108193529Y-52838428D01*
X108072280Y-52914930D01*
X108050603Y-52939475D01*
X107983964Y-53014930D01*
X107977377Y-53022388D01*
X107916447Y-53152163D01*
X107915637Y-53157368D01*
X107915636Y-53157370D01*
X107913331Y-53172174D01*
X107894391Y-53293823D01*
X90168794Y-53293823D01*
X90101070Y-53226099D01*
X90097485Y-53221946D01*
X90095425Y-53217731D01*
X90058818Y-53183773D01*
X90056819Y-53181848D01*
X90042723Y-53167752D01*
X90039912Y-53165824D01*
X90037293Y-53163647D01*
X90037403Y-53163515D01*
X90034227Y-53160961D01*
X90018364Y-53146246D01*
X90018363Y-53146245D01*
X90013354Y-53141599D01*
X90007012Y-53139069D01*
X90007006Y-53139065D01*
X90000077Y-53136301D01*
X89985641Y-53128593D01*
X89979493Y-53124376D01*
X89979492Y-53124375D01*
X89973854Y-53120508D01*
X89967204Y-53118930D01*
X89967202Y-53118929D01*
X89946160Y-53113936D01*
X89935824Y-53110668D01*
X89933932Y-53109913D01*
X89909378Y-53100117D01*
X89903085Y-53099500D01*
X89893988Y-53099500D01*
X89876901Y-53097500D01*
X89871585Y-53096238D01*
X89871583Y-53096238D01*
X89864934Y-53094660D01*
X89844066Y-53097500D01*
X89834337Y-53098824D01*
X89824358Y-53099500D01*
X87935714Y-53099500D01*
X87888148Y-53082187D01*
X87879654Y-53073804D01*
X87835840Y-53022955D01*
X87835839Y-53022954D01*
X87832400Y-53018963D01*
X87827981Y-53016099D01*
X87827979Y-53016097D01*
X87758783Y-52971247D01*
X87712095Y-52940985D01*
X87608168Y-52909904D01*
X87579792Y-52901418D01*
X87579791Y-52901418D01*
X87574739Y-52899907D01*
X87501103Y-52899457D01*
X87436646Y-52899063D01*
X87436645Y-52899063D01*
X87431376Y-52899031D01*
X87293529Y-52938428D01*
X87172280Y-53014930D01*
X87140866Y-53050500D01*
X87085951Y-53112680D01*
X87077377Y-53122388D01*
X87016447Y-53252163D01*
X86994391Y-53393823D01*
X86391789Y-53393823D01*
X86405496Y-53312354D01*
X86405647Y-53300000D01*
X86398796Y-53252163D01*
X86386070Y-53163297D01*
X86386070Y-53163296D01*
X86385323Y-53158082D01*
X86331120Y-53038867D01*
X86328166Y-53032371D01*
X86325984Y-53027572D01*
X86251597Y-52941242D01*
X86235840Y-52922955D01*
X86235839Y-52922954D01*
X86232400Y-52918963D01*
X86227981Y-52916099D01*
X86227979Y-52916097D01*
X86188068Y-52890228D01*
X86112095Y-52840985D01*
X86037033Y-52818537D01*
X85979793Y-52801418D01*
X85979790Y-52801418D01*
X85974739Y-52799907D01*
X85925489Y-52799606D01*
X85878029Y-52782003D01*
X85873615Y-52777933D01*
X85679866Y-52584184D01*
X85670025Y-52571998D01*
X85666145Y-52565989D01*
X85666143Y-52565987D01*
X85662825Y-52560848D01*
X85636514Y-52540106D01*
X85630001Y-52534319D01*
X85627254Y-52531572D01*
X85624776Y-52529801D01*
X85624771Y-52529797D01*
X85611920Y-52520614D01*
X85609157Y-52518540D01*
X85571189Y-52488608D01*
X85565420Y-52486582D01*
X85564383Y-52486012D01*
X85563680Y-52485570D01*
X85563140Y-52485289D01*
X85562383Y-52484972D01*
X85561307Y-52484445D01*
X85556331Y-52480889D01*
X85510023Y-52467040D01*
X85506707Y-52465963D01*
X85494690Y-52461743D01*
X85461094Y-52449945D01*
X85455956Y-52449500D01*
X85454619Y-52449500D01*
X85450088Y-52449116D01*
X85444536Y-52447456D01*
X85438426Y-52447696D01*
X85438425Y-52447696D01*
X85393963Y-52449443D01*
X85391058Y-52449500D01*
X80945292Y-52449500D01*
X80929718Y-52447842D01*
X80916740Y-52445048D01*
X80910665Y-52445767D01*
X80910664Y-52445767D01*
X80883459Y-52448987D01*
X80874761Y-52449500D01*
X80870885Y-52449500D01*
X80853306Y-52452426D01*
X80852315Y-52452591D01*
X80848866Y-52453082D01*
X80800862Y-52458763D01*
X80795348Y-52461411D01*
X80794206Y-52461743D01*
X80793408Y-52461925D01*
X80792810Y-52462114D01*
X80792048Y-52462426D01*
X80790933Y-52462808D01*
X80784897Y-52463812D01*
X80779515Y-52466716D01*
X80742356Y-52486766D01*
X80739261Y-52488343D01*
X80695674Y-52509273D01*
X80691726Y-52512592D01*
X80690781Y-52513537D01*
X80687307Y-52516470D01*
X80682206Y-52519222D01*
X80662901Y-52540106D01*
X80647860Y-52556377D01*
X80645846Y-52558472D01*
X76434184Y-56770134D01*
X76421998Y-56779975D01*
X76415989Y-56783855D01*
X76415987Y-56783857D01*
X76410848Y-56787175D01*
X76407060Y-56791980D01*
X76390106Y-56813486D01*
X76384319Y-56819999D01*
X76381572Y-56822746D01*
X76379801Y-56825224D01*
X76379797Y-56825229D01*
X76370614Y-56838080D01*
X76368540Y-56840843D01*
X76338608Y-56878811D01*
X76336582Y-56884580D01*
X76336012Y-56885617D01*
X76335570Y-56886320D01*
X76335289Y-56886860D01*
X76334972Y-56887617D01*
X76334445Y-56888693D01*
X76330889Y-56893669D01*
X76329136Y-56899531D01*
X76317040Y-56939977D01*
X76315963Y-56943293D01*
X76299945Y-56988906D01*
X76299500Y-56994044D01*
X76299500Y-56995381D01*
X76299116Y-56999912D01*
X76297456Y-57005464D01*
X76297696Y-57011574D01*
X76297696Y-57011575D01*
X76299443Y-57056037D01*
X76299500Y-57058942D01*
X76299500Y-65924166D01*
X76282187Y-65971732D01*
X76277826Y-65976492D01*
X74527160Y-67727158D01*
X74481284Y-67748550D01*
X74447413Y-67743564D01*
X74317052Y-67691556D01*
X74317049Y-67691555D01*
X74313898Y-67690298D01*
X74310571Y-67689636D01*
X74310567Y-67689635D01*
X74118849Y-67651500D01*
X74115526Y-67650839D01*
X74028249Y-67649697D01*
X73916680Y-67648236D01*
X73916675Y-67648236D01*
X73913286Y-67648192D01*
X73909941Y-67648767D01*
X73909938Y-67648767D01*
X73813617Y-67665318D01*
X73713949Y-67682444D01*
X73524193Y-67752449D01*
X73350371Y-67855862D01*
X73347827Y-67858093D01*
X73347823Y-67858096D01*
X73281673Y-67916108D01*
X73198305Y-67989220D01*
X73196208Y-67991879D01*
X73196207Y-67991881D01*
X73110580Y-68100500D01*
X73073089Y-68148057D01*
X72978914Y-68327053D01*
X72918937Y-68520213D01*
X72895164Y-68721069D01*
X70346040Y-68721069D01*
X67263026Y-65638055D01*
X67259441Y-65633902D01*
X67257381Y-65629687D01*
X67220774Y-65595729D01*
X67218775Y-65593804D01*
X67204679Y-65579708D01*
X67201868Y-65577780D01*
X67199249Y-65575603D01*
X67199359Y-65575471D01*
X67196183Y-65572917D01*
X67180320Y-65558202D01*
X67180319Y-65558201D01*
X67175310Y-65553555D01*
X67168968Y-65551025D01*
X67168962Y-65551021D01*
X67162033Y-65548257D01*
X67147597Y-65540549D01*
X67141449Y-65536332D01*
X67141448Y-65536331D01*
X67135810Y-65532464D01*
X67129160Y-65530886D01*
X67129158Y-65530885D01*
X67108116Y-65525892D01*
X67097780Y-65522624D01*
X67095637Y-65521769D01*
X67071334Y-65512073D01*
X67065041Y-65511456D01*
X67055944Y-65511456D01*
X67038857Y-65509456D01*
X67033541Y-65508194D01*
X67033539Y-65508194D01*
X67026890Y-65506616D01*
X67006022Y-65509456D01*
X66996293Y-65510780D01*
X66986314Y-65511456D01*
X66862878Y-65511456D01*
X66815312Y-65494143D01*
X66790002Y-65450306D01*
X66798792Y-65400456D01*
X66810552Y-65385130D01*
X68080216Y-64115465D01*
X73319284Y-64115465D01*
X73320171Y-64118773D01*
X73320276Y-64118876D01*
X73470056Y-64218956D01*
X73475993Y-64222180D01*
X73655513Y-64299307D01*
X73661932Y-64301392D01*
X73852491Y-64344512D01*
X73859200Y-64345395D01*
X74054421Y-64353066D01*
X74061180Y-64352711D01*
X74254529Y-64324677D01*
X74261105Y-64323099D01*
X74446115Y-64260296D01*
X74452285Y-64257550D01*
X74622761Y-64162078D01*
X74628319Y-64158258D01*
X74673064Y-64121044D01*
X74678423Y-64111855D01*
X74677629Y-64107234D01*
X74009226Y-63438831D01*
X73999587Y-63434336D01*
X73993688Y-63435917D01*
X73323779Y-64105826D01*
X73319284Y-64115465D01*
X68080216Y-64115465D01*
X68573507Y-63622174D01*
X68619383Y-63600782D01*
X68625833Y-63600500D01*
X70604713Y-63600500D01*
X70620288Y-63602158D01*
X70633261Y-63604951D01*
X70639336Y-63604232D01*
X70639337Y-63604232D01*
X70666533Y-63601013D01*
X70675231Y-63600500D01*
X70679115Y-63600500D01*
X70682129Y-63599998D01*
X70682133Y-63599998D01*
X70697701Y-63597407D01*
X70701151Y-63596916D01*
X70743065Y-63591955D01*
X70743066Y-63591955D01*
X70749138Y-63591236D01*
X70754650Y-63588589D01*
X70755787Y-63588259D01*
X70756595Y-63588075D01*
X70757180Y-63587890D01*
X70757932Y-63587582D01*
X70759071Y-63587192D01*
X70765103Y-63586188D01*
X70788324Y-63573659D01*
X70807645Y-63563234D01*
X70810751Y-63561652D01*
X70850125Y-63542745D01*
X70850135Y-63542738D01*
X70854326Y-63540726D01*
X70858274Y-63537408D01*
X70859227Y-63536455D01*
X70862690Y-63533532D01*
X70867794Y-63530778D01*
X70902140Y-63493623D01*
X70904154Y-63491528D01*
X71171213Y-63224469D01*
X72895888Y-63224469D01*
X72908667Y-63419438D01*
X72909722Y-63426098D01*
X72957816Y-63615470D01*
X72960072Y-63621841D01*
X73041871Y-63799279D01*
X73045248Y-63805126D01*
X73128824Y-63923384D01*
X73137564Y-63929447D01*
X73141290Y-63929105D01*
X73811169Y-63259226D01*
X73815279Y-63250413D01*
X74184336Y-63250413D01*
X74185917Y-63256312D01*
X74853475Y-63923870D01*
X74863114Y-63928365D01*
X74867646Y-63927150D01*
X74908258Y-63878319D01*
X74912078Y-63872761D01*
X75007550Y-63702285D01*
X75010296Y-63696115D01*
X75073099Y-63511105D01*
X75074677Y-63504529D01*
X75102886Y-63309978D01*
X75103256Y-63305637D01*
X75104656Y-63252166D01*
X75104515Y-63247843D01*
X75086524Y-63052059D01*
X75085294Y-63045418D01*
X75032259Y-62857371D01*
X75029837Y-62851063D01*
X74943421Y-62675827D01*
X74939896Y-62670074D01*
X74870596Y-62577271D01*
X74861701Y-62571439D01*
X74857691Y-62571914D01*
X74188831Y-63240774D01*
X74184336Y-63250413D01*
X73815279Y-63250413D01*
X73815664Y-63249587D01*
X73814083Y-63243688D01*
X73146750Y-62576355D01*
X73137111Y-62571860D01*
X73132906Y-62572987D01*
X73075613Y-62645663D01*
X73071930Y-62651333D01*
X72980954Y-62824249D01*
X72978375Y-62830476D01*
X72920435Y-63017075D01*
X72919029Y-63023691D01*
X72896065Y-63217709D01*
X72895888Y-63224469D01*
X71171213Y-63224469D01*
X72008418Y-62387264D01*
X73320839Y-62387264D01*
X73321825Y-62392220D01*
X73990774Y-63061169D01*
X74000413Y-63065664D01*
X74006312Y-63064083D01*
X74675917Y-62394478D01*
X74680412Y-62384839D01*
X74679001Y-62379575D01*
X74674997Y-62375874D01*
X74669638Y-62371762D01*
X74504398Y-62267504D01*
X74498378Y-62264437D01*
X74316904Y-62192035D01*
X74310428Y-62190117D01*
X74118799Y-62152000D01*
X74112088Y-62151295D01*
X73916718Y-62148736D01*
X73909978Y-62149267D01*
X73717427Y-62182354D01*
X73710892Y-62184105D01*
X73527590Y-62251729D01*
X73521496Y-62254635D01*
X73353581Y-62354534D01*
X73348114Y-62358506D01*
X73325956Y-62377938D01*
X73320839Y-62387264D01*
X72008418Y-62387264D01*
X73326992Y-61068689D01*
X73372868Y-61047297D01*
X73388975Y-61047648D01*
X73450000Y-61055682D01*
X73454808Y-61055049D01*
X73601957Y-61035677D01*
X73601960Y-61035676D01*
X73606762Y-61035044D01*
X73752841Y-60974536D01*
X73756685Y-60971586D01*
X73756689Y-60971584D01*
X73874431Y-60881237D01*
X73878282Y-60878282D01*
X73892701Y-60859491D01*
X73971584Y-60756689D01*
X73971586Y-60756685D01*
X73974536Y-60752841D01*
X74035044Y-60606762D01*
X74035702Y-60601770D01*
X74055049Y-60454808D01*
X74055682Y-60450000D01*
X74048290Y-60393852D01*
X74035677Y-60298043D01*
X74035676Y-60298040D01*
X74035044Y-60293238D01*
X73974536Y-60147159D01*
X73971586Y-60143315D01*
X73971584Y-60143311D01*
X73881237Y-60025569D01*
X73878282Y-60021718D01*
X73870447Y-60015706D01*
X73756689Y-59928416D01*
X73756685Y-59928414D01*
X73752841Y-59925464D01*
X73606762Y-59864956D01*
X73601960Y-59864324D01*
X73601957Y-59864323D01*
X73454808Y-59844951D01*
X73450000Y-59844318D01*
X73445192Y-59844951D01*
X73298043Y-59864323D01*
X73298040Y-59864324D01*
X73293238Y-59864956D01*
X73147159Y-59925464D01*
X73143315Y-59928414D01*
X73143311Y-59928416D01*
X73029553Y-60015706D01*
X73021718Y-60021718D01*
X73018763Y-60025569D01*
X72928416Y-60143311D01*
X72928414Y-60143315D01*
X72925464Y-60147159D01*
X72864956Y-60293238D01*
X72864324Y-60298040D01*
X72864323Y-60298043D01*
X72851710Y-60393852D01*
X72844318Y-60450000D01*
X72849459Y-60489045D01*
X72852352Y-60511022D01*
X72841396Y-60560441D01*
X72831311Y-60573007D01*
X70526492Y-62877826D01*
X70480616Y-62899218D01*
X70474166Y-62899500D01*
X68495287Y-62899500D01*
X68479712Y-62897842D01*
X68472722Y-62896337D01*
X68472721Y-62896337D01*
X68466739Y-62895049D01*
X68460664Y-62895768D01*
X68460663Y-62895768D01*
X68433467Y-62898987D01*
X68424769Y-62899500D01*
X68420885Y-62899500D01*
X68417871Y-62900002D01*
X68417867Y-62900002D01*
X68402299Y-62902593D01*
X68398849Y-62903084D01*
X68356935Y-62908045D01*
X68356934Y-62908045D01*
X68350862Y-62908764D01*
X68345350Y-62911411D01*
X68344213Y-62911741D01*
X68343405Y-62911925D01*
X68342820Y-62912110D01*
X68342068Y-62912418D01*
X68340929Y-62912808D01*
X68334897Y-62913812D01*
X68311676Y-62926341D01*
X68292355Y-62936766D01*
X68289249Y-62938348D01*
X68249875Y-62957255D01*
X68249865Y-62957262D01*
X68245674Y-62959274D01*
X68241726Y-62962592D01*
X68240773Y-62963545D01*
X68237310Y-62966468D01*
X68232206Y-62969222D01*
X68228050Y-62973717D01*
X68228051Y-62973717D01*
X68197860Y-63006377D01*
X68195846Y-63008472D01*
X66364036Y-64840282D01*
X66318160Y-64861674D01*
X66311710Y-64861956D01*
X64792631Y-64861956D01*
X64745065Y-64844643D01*
X64736573Y-64836262D01*
X64732400Y-64831419D01*
X64725438Y-64826906D01*
X64682459Y-64799049D01*
X64612095Y-64753441D01*
X64537033Y-64730993D01*
X64479793Y-64713874D01*
X64479790Y-64713874D01*
X64474739Y-64712363D01*
X64425489Y-64712062D01*
X64378029Y-64694459D01*
X64373615Y-64690389D01*
X64217410Y-64534184D01*
X64207569Y-64521998D01*
X64203689Y-64515989D01*
X64203687Y-64515987D01*
X64200369Y-64510848D01*
X64174058Y-64490106D01*
X64167545Y-64484319D01*
X64164798Y-64481572D01*
X64162320Y-64479801D01*
X64162315Y-64479797D01*
X64149464Y-64470614D01*
X64146701Y-64468540D01*
X64108733Y-64438608D01*
X64102964Y-64436582D01*
X64101927Y-64436012D01*
X64101224Y-64435570D01*
X64100684Y-64435289D01*
X64099927Y-64434972D01*
X64098851Y-64434445D01*
X64093875Y-64430889D01*
X64047567Y-64417040D01*
X64044251Y-64415963D01*
X64036918Y-64413388D01*
X63998638Y-64399945D01*
X63993500Y-64399500D01*
X63992163Y-64399500D01*
X63987632Y-64399116D01*
X63982080Y-64397456D01*
X63975970Y-64397696D01*
X63975969Y-64397696D01*
X63931507Y-64399443D01*
X63928602Y-64399500D01*
X62605124Y-64399500D01*
X62557558Y-64382187D01*
X62552798Y-64377826D01*
X62251070Y-64076099D01*
X62247485Y-64071946D01*
X62245425Y-64067731D01*
X62208818Y-64033773D01*
X62206819Y-64031848D01*
X62192723Y-64017752D01*
X62189912Y-64015824D01*
X62187293Y-64013647D01*
X62187403Y-64013515D01*
X62184227Y-64010961D01*
X62168364Y-63996246D01*
X62168363Y-63996245D01*
X62163354Y-63991599D01*
X62157012Y-63989069D01*
X62157006Y-63989065D01*
X62150077Y-63986301D01*
X62135641Y-63978593D01*
X62129493Y-63974376D01*
X62129492Y-63974375D01*
X62123854Y-63970508D01*
X62117204Y-63968930D01*
X62117202Y-63968929D01*
X62096160Y-63963936D01*
X62085824Y-63960668D01*
X62077668Y-63957414D01*
X62059378Y-63950117D01*
X62053085Y-63949500D01*
X62043988Y-63949500D01*
X62026901Y-63947500D01*
X62021585Y-63946238D01*
X62021583Y-63946238D01*
X62014934Y-63944660D01*
X61994066Y-63947500D01*
X61984337Y-63948824D01*
X61974358Y-63949500D01*
X61573454Y-63949500D01*
X61525888Y-63932187D01*
X61503917Y-63900810D01*
X61496362Y-63880052D01*
X61491075Y-63877000D01*
X59813048Y-63877000D01*
X59803052Y-63880638D01*
X59791209Y-63901151D01*
X59790578Y-63900787D01*
X59778572Y-63926537D01*
X59729021Y-63948162D01*
X59704866Y-63949069D01*
X59694770Y-63949448D01*
X59691995Y-63949500D01*
X59672052Y-63949500D01*
X59668703Y-63950124D01*
X59665307Y-63950437D01*
X59665290Y-63950253D01*
X59661236Y-63950707D01*
X59632791Y-63951775D01*
X59619662Y-63957416D01*
X59604009Y-63962172D01*
X59589947Y-63964791D01*
X59574397Y-63974376D01*
X59565713Y-63979729D01*
X59556094Y-63984725D01*
X59534739Y-63993900D01*
X59534734Y-63993903D01*
X59529937Y-63995964D01*
X59525051Y-63999978D01*
X59518620Y-64006409D01*
X59505125Y-64017076D01*
X59494652Y-64023532D01*
X59490516Y-64028971D01*
X59475961Y-64048112D01*
X59469383Y-64055646D01*
X59246982Y-64278047D01*
X59201106Y-64299439D01*
X59194204Y-64299720D01*
X59086646Y-64299063D01*
X59086645Y-64299063D01*
X59081376Y-64299031D01*
X58943529Y-64338428D01*
X58822280Y-64414930D01*
X58773102Y-64470614D01*
X58737569Y-64510848D01*
X58727377Y-64522388D01*
X58666447Y-64652163D01*
X58665637Y-64657368D01*
X58665636Y-64657370D01*
X58659862Y-64694459D01*
X58644391Y-64793823D01*
X50200000Y-64793823D01*
X50200000Y-63541973D01*
X50892776Y-63541973D01*
X50894173Y-63547183D01*
X50895059Y-63547941D01*
X51094404Y-63694105D01*
X51099033Y-63696998D01*
X51317796Y-63812095D01*
X51322817Y-63814279D01*
X51556181Y-63895773D01*
X51561476Y-63897191D01*
X51804316Y-63943297D01*
X51809758Y-63943917D01*
X52056751Y-63953621D01*
X52062229Y-63953430D01*
X52307933Y-63926521D01*
X52313331Y-63925520D01*
X52552359Y-63862589D01*
X52557540Y-63860805D01*
X52784649Y-63763232D01*
X52789513Y-63760699D01*
X52999701Y-63630631D01*
X53004136Y-63627408D01*
X53099056Y-63547053D01*
X53101959Y-63541973D01*
X55892776Y-63541973D01*
X55894173Y-63547183D01*
X55895059Y-63547941D01*
X56094404Y-63694105D01*
X56099033Y-63696998D01*
X56317796Y-63812095D01*
X56322817Y-63814279D01*
X56556181Y-63895773D01*
X56561476Y-63897191D01*
X56804316Y-63943297D01*
X56809758Y-63943917D01*
X57056751Y-63953621D01*
X57062229Y-63953430D01*
X57307933Y-63926521D01*
X57313331Y-63925520D01*
X57552359Y-63862589D01*
X57557540Y-63860805D01*
X57784649Y-63763232D01*
X57789513Y-63760699D01*
X57999701Y-63630631D01*
X58004136Y-63627408D01*
X58099056Y-63547053D01*
X58104335Y-63537816D01*
X58103480Y-63533085D01*
X57009226Y-62438831D01*
X56999587Y-62434336D01*
X56993688Y-62435917D01*
X55897271Y-63532334D01*
X55892776Y-63541973D01*
X53101959Y-63541973D01*
X53104335Y-63537816D01*
X53103480Y-63533085D01*
X52009226Y-62438831D01*
X51999587Y-62434336D01*
X51993688Y-62435917D01*
X50897271Y-63532334D01*
X50892776Y-63541973D01*
X50200000Y-63541973D01*
X50200000Y-62666440D01*
X50217313Y-62618874D01*
X50261150Y-62593564D01*
X50311000Y-62602354D01*
X50343537Y-62641131D01*
X50346578Y-62652003D01*
X50356699Y-62702884D01*
X50358164Y-62708165D01*
X50441691Y-62940808D01*
X50443916Y-62945807D01*
X50560913Y-63163549D01*
X50563859Y-63168174D01*
X50700703Y-63351430D01*
X50709598Y-63357262D01*
X50713608Y-63356787D01*
X51811169Y-62259226D01*
X51815279Y-62250413D01*
X52184336Y-62250413D01*
X52185917Y-62256312D01*
X53279407Y-63349802D01*
X53289046Y-63354297D01*
X53293930Y-63352988D01*
X53359679Y-63278015D01*
X53362971Y-63273648D01*
X53496692Y-63065756D01*
X53499308Y-63060937D01*
X53600827Y-62835572D01*
X53602703Y-62830422D01*
X53669798Y-62592517D01*
X53670890Y-62587151D01*
X53702196Y-62341070D01*
X53702480Y-62337365D01*
X53704718Y-62251854D01*
X53704630Y-62248152D01*
X53701655Y-62208118D01*
X55295949Y-62208118D01*
X55307808Y-62455021D01*
X55308475Y-62460449D01*
X55356699Y-62702884D01*
X55358164Y-62708165D01*
X55441691Y-62940808D01*
X55443916Y-62945807D01*
X55560913Y-63163549D01*
X55563859Y-63168174D01*
X55700703Y-63351430D01*
X55709598Y-63357262D01*
X55713608Y-63356787D01*
X56811169Y-62259226D01*
X56815279Y-62250413D01*
X57184336Y-62250413D01*
X57185917Y-62256312D01*
X58279407Y-63349802D01*
X58289046Y-63354297D01*
X58293930Y-63352988D01*
X58359679Y-63278015D01*
X58362971Y-63273648D01*
X58382155Y-63243823D01*
X58844391Y-63243823D01*
X58845074Y-63249046D01*
X58845074Y-63249049D01*
X58845482Y-63252166D01*
X58862980Y-63385979D01*
X58920720Y-63517203D01*
X58932131Y-63530778D01*
X59009580Y-63622916D01*
X59009583Y-63622919D01*
X59012970Y-63626948D01*
X59017357Y-63629868D01*
X59127924Y-63703469D01*
X59127927Y-63703470D01*
X59132313Y-63706390D01*
X59269157Y-63749142D01*
X59274425Y-63749239D01*
X59274428Y-63749239D01*
X59334733Y-63750344D01*
X59412499Y-63751770D01*
X59417582Y-63750384D01*
X59417584Y-63750384D01*
X59545727Y-63715448D01*
X59545729Y-63715447D01*
X59550817Y-63714060D01*
X59672991Y-63639045D01*
X59689080Y-63621270D01*
X59733836Y-63597622D01*
X59780945Y-63606844D01*
X59808926Y-63623000D01*
X61486952Y-63623000D01*
X61496948Y-63619362D01*
X61500000Y-63614075D01*
X61500000Y-63583942D01*
X61499290Y-63576732D01*
X61489818Y-63529113D01*
X61489765Y-63528985D01*
X61489757Y-63528808D01*
X61488396Y-63521964D01*
X61489449Y-63521754D01*
X61487630Y-63480083D01*
X61488867Y-63478231D01*
X61500500Y-63419748D01*
X61500500Y-63080252D01*
X61494892Y-63052059D01*
X61490289Y-63028916D01*
X61490288Y-63028914D01*
X61488867Y-63021769D01*
X61489747Y-63021594D01*
X61487916Y-62979654D01*
X61488867Y-62978231D01*
X61490816Y-62968437D01*
X61499790Y-62923318D01*
X61499790Y-62923317D01*
X61500500Y-62919748D01*
X61500500Y-62580252D01*
X61499055Y-62572987D01*
X61490289Y-62528916D01*
X61490288Y-62528914D01*
X61488867Y-62521769D01*
X61489747Y-62521594D01*
X61487916Y-62479654D01*
X61488867Y-62478231D01*
X61497272Y-62435979D01*
X61499790Y-62423318D01*
X61499790Y-62423317D01*
X61500500Y-62419748D01*
X61500500Y-62124500D01*
X61517813Y-62076934D01*
X61561650Y-62051624D01*
X61574500Y-62050500D01*
X61994877Y-62050500D01*
X62042443Y-62067813D01*
X62047203Y-62072174D01*
X62277847Y-62302818D01*
X62299239Y-62348694D01*
X62298640Y-62366526D01*
X62295412Y-62387264D01*
X62294391Y-62393823D01*
X62295074Y-62399046D01*
X62295074Y-62399049D01*
X62300276Y-62438831D01*
X62312980Y-62535979D01*
X62370720Y-62667203D01*
X62374112Y-62671238D01*
X62459580Y-62772916D01*
X62459583Y-62772919D01*
X62462970Y-62776948D01*
X62480216Y-62788428D01*
X62577924Y-62853469D01*
X62577927Y-62853470D01*
X62582313Y-62856390D01*
X62719157Y-62899142D01*
X62724425Y-62899239D01*
X62724428Y-62899239D01*
X62784733Y-62900344D01*
X62862499Y-62901770D01*
X62867582Y-62900384D01*
X62867584Y-62900384D01*
X62995727Y-62865448D01*
X62995729Y-62865447D01*
X63000817Y-62864060D01*
X63065656Y-62824249D01*
X63118498Y-62791804D01*
X63118499Y-62791803D01*
X63122991Y-62789045D01*
X63219200Y-62682754D01*
X63281710Y-62553733D01*
X63305496Y-62412354D01*
X63305647Y-62400000D01*
X63299136Y-62354534D01*
X63286070Y-62263297D01*
X63286070Y-62263296D01*
X63285323Y-62258082D01*
X63282435Y-62251729D01*
X63228166Y-62132371D01*
X63225984Y-62127572D01*
X63159574Y-62050500D01*
X63135840Y-62022955D01*
X63135839Y-62022954D01*
X63132400Y-62018963D01*
X63127981Y-62016099D01*
X63127979Y-62016097D01*
X63088068Y-61990228D01*
X63012095Y-61940985D01*
X62908168Y-61909904D01*
X62879792Y-61901418D01*
X62879791Y-61901418D01*
X62874739Y-61899907D01*
X62824752Y-61899602D01*
X62754343Y-61899171D01*
X62706883Y-61881567D01*
X62702469Y-61877498D01*
X62501938Y-61676967D01*
X62480546Y-61631091D01*
X62493647Y-61582196D01*
X62535111Y-61553162D01*
X62551486Y-61550693D01*
X62553393Y-61550621D01*
X62555242Y-61550552D01*
X62558017Y-61550500D01*
X62577948Y-61550500D01*
X62581300Y-61549876D01*
X62584691Y-61549563D01*
X62584709Y-61549753D01*
X62588755Y-61549294D01*
X62617208Y-61548226D01*
X62623486Y-61545529D01*
X62623925Y-61545430D01*
X62658905Y-61546851D01*
X62658925Y-61546727D01*
X62659951Y-61546893D01*
X62662259Y-61546987D01*
X62669157Y-61549142D01*
X62674427Y-61549239D01*
X62674429Y-61549239D01*
X62733030Y-61550313D01*
X62812499Y-61551770D01*
X62817582Y-61550384D01*
X62817584Y-61550384D01*
X62945727Y-61515448D01*
X62945729Y-61515447D01*
X62950817Y-61514060D01*
X63011904Y-61476552D01*
X63068498Y-61441804D01*
X63068499Y-61441803D01*
X63072991Y-61439045D01*
X63169200Y-61332754D01*
X63231710Y-61203733D01*
X63255496Y-61062354D01*
X63255647Y-61050000D01*
X63245369Y-60978231D01*
X63236070Y-60913297D01*
X63236070Y-60913296D01*
X63235323Y-60908082D01*
X63232400Y-60901652D01*
X63178166Y-60782371D01*
X63175984Y-60777572D01*
X63082400Y-60668963D01*
X63077981Y-60666099D01*
X63077979Y-60666097D01*
X63004076Y-60618196D01*
X62962095Y-60590985D01*
X62830681Y-60551684D01*
X62829792Y-60551418D01*
X62829791Y-60551418D01*
X62824739Y-60549907D01*
X62784464Y-60549661D01*
X62737004Y-60532058D01*
X62711963Y-60488067D01*
X62721057Y-60438271D01*
X62730053Y-60426003D01*
X62769200Y-60382754D01*
X62831710Y-60253733D01*
X62855496Y-60112354D01*
X62855647Y-60100000D01*
X62835323Y-59958082D01*
X62808177Y-59898376D01*
X62778166Y-59832371D01*
X62775984Y-59827572D01*
X62699704Y-59739045D01*
X62685840Y-59722955D01*
X62685839Y-59722954D01*
X62682400Y-59718963D01*
X62677981Y-59716099D01*
X62677979Y-59716097D01*
X62638068Y-59690228D01*
X62562095Y-59640985D01*
X62458168Y-59609904D01*
X62429792Y-59601418D01*
X62429791Y-59601418D01*
X62424739Y-59599907D01*
X62351103Y-59599457D01*
X62286646Y-59599063D01*
X62286645Y-59599063D01*
X62281376Y-59599031D01*
X62143529Y-59638428D01*
X62022280Y-59714930D01*
X61927377Y-59822388D01*
X61866447Y-59952163D01*
X61844391Y-60093823D01*
X61845074Y-60099046D01*
X61845074Y-60099049D01*
X61849704Y-60134453D01*
X61838705Y-60183863D01*
X61828655Y-60196374D01*
X61626826Y-60398203D01*
X61580950Y-60419595D01*
X61532055Y-60406494D01*
X61503021Y-60365030D01*
X61500500Y-60345877D01*
X61500500Y-60080252D01*
X61488867Y-60021769D01*
X61444552Y-59955448D01*
X61432500Y-59947395D01*
X61384294Y-59915184D01*
X61384293Y-59915184D01*
X61378231Y-59911133D01*
X61333705Y-59902276D01*
X61323318Y-59900210D01*
X61323317Y-59900210D01*
X61319748Y-59899500D01*
X61024500Y-59899500D01*
X60976934Y-59882187D01*
X60951624Y-59838350D01*
X60950500Y-59825500D01*
X60950500Y-59791489D01*
X60967813Y-59743923D01*
X60972273Y-59739486D01*
X60972991Y-59739045D01*
X61069200Y-59632754D01*
X61131710Y-59503733D01*
X61155496Y-59362354D01*
X61155647Y-59350000D01*
X61151505Y-59321080D01*
X61144154Y-59269748D01*
X62599500Y-59269748D01*
X62611133Y-59328231D01*
X62615184Y-59334293D01*
X62615184Y-59334294D01*
X62635820Y-59365177D01*
X62655448Y-59394552D01*
X62721769Y-59438867D01*
X62766295Y-59447724D01*
X62776682Y-59449790D01*
X62776683Y-59449790D01*
X62780252Y-59450500D01*
X65019748Y-59450500D01*
X65023317Y-59449790D01*
X65023318Y-59449790D01*
X65033705Y-59447724D01*
X65078231Y-59438867D01*
X65144552Y-59394552D01*
X65164180Y-59365177D01*
X65184816Y-59334294D01*
X65184816Y-59334293D01*
X65188867Y-59328231D01*
X65200500Y-59269748D01*
X65200500Y-57430252D01*
X65188867Y-57371769D01*
X65144552Y-57305448D01*
X65078231Y-57261133D01*
X65033705Y-57252276D01*
X65023318Y-57250210D01*
X65023317Y-57250210D01*
X65019748Y-57249500D01*
X62780252Y-57249500D01*
X62776683Y-57250210D01*
X62776682Y-57250210D01*
X62766295Y-57252276D01*
X62721769Y-57261133D01*
X62655448Y-57305448D01*
X62611133Y-57371769D01*
X62599500Y-57430252D01*
X62599500Y-59269748D01*
X61144154Y-59269748D01*
X61136070Y-59213297D01*
X61136070Y-59213296D01*
X61135323Y-59208082D01*
X61075984Y-59077572D01*
X60982400Y-58968963D01*
X60977981Y-58966099D01*
X60977979Y-58966097D01*
X60938068Y-58940228D01*
X60862095Y-58890985D01*
X60758168Y-58859904D01*
X60729792Y-58851418D01*
X60729791Y-58851418D01*
X60724739Y-58849907D01*
X60651103Y-58849457D01*
X60586646Y-58849063D01*
X60586645Y-58849063D01*
X60581376Y-58849031D01*
X60443529Y-58888428D01*
X60322280Y-58964930D01*
X60227377Y-59072388D01*
X60166447Y-59202163D01*
X60144391Y-59343823D01*
X60145074Y-59349046D01*
X60145074Y-59349049D01*
X60151554Y-59398602D01*
X60162980Y-59485979D01*
X60220720Y-59617203D01*
X60224112Y-59621238D01*
X60309580Y-59722916D01*
X60309583Y-59722919D01*
X60312970Y-59726948D01*
X60317356Y-59729867D01*
X60321287Y-59733382D01*
X60320311Y-59734473D01*
X60346507Y-59770068D01*
X60349500Y-59790901D01*
X60349500Y-59825500D01*
X60332187Y-59873066D01*
X60288350Y-59898376D01*
X60275500Y-59899500D01*
X59980252Y-59899500D01*
X59976683Y-59900210D01*
X59976682Y-59900210D01*
X59966295Y-59902276D01*
X59921769Y-59911133D01*
X59915707Y-59915184D01*
X59915706Y-59915184D01*
X59867500Y-59947395D01*
X59855448Y-59955448D01*
X59811133Y-60021769D01*
X59799500Y-60080252D01*
X59799500Y-60419748D01*
X59800210Y-60423317D01*
X59800210Y-60423318D01*
X59805518Y-60450000D01*
X59809995Y-60472510D01*
X59809995Y-60472511D01*
X59811133Y-60478231D01*
X59810253Y-60478406D01*
X59812084Y-60520346D01*
X59811133Y-60521769D01*
X59809712Y-60528914D01*
X59809711Y-60528916D01*
X59802721Y-60564060D01*
X59799500Y-60580252D01*
X59799500Y-60919748D01*
X59800210Y-60923317D01*
X59800210Y-60923318D01*
X59808895Y-60966978D01*
X59809995Y-60972510D01*
X59809995Y-60972511D01*
X59811133Y-60978231D01*
X59810253Y-60978406D01*
X59812084Y-61020346D01*
X59811133Y-61021769D01*
X59809712Y-61028914D01*
X59809711Y-61028916D01*
X59802290Y-61066226D01*
X59799500Y-61080252D01*
X59799500Y-61419748D01*
X59800210Y-61423317D01*
X59800210Y-61423318D01*
X59802561Y-61435135D01*
X59809995Y-61472510D01*
X59809995Y-61472511D01*
X59811133Y-61478231D01*
X59810253Y-61478406D01*
X59812084Y-61520346D01*
X59811133Y-61521769D01*
X59809712Y-61528914D01*
X59809711Y-61528916D01*
X59800931Y-61573058D01*
X59799500Y-61580252D01*
X59799500Y-61767756D01*
X59782187Y-61815322D01*
X59738350Y-61840632D01*
X59704297Y-61838653D01*
X59579792Y-61801418D01*
X59579791Y-61801418D01*
X59574739Y-61799907D01*
X59501103Y-61799457D01*
X59436646Y-61799063D01*
X59436645Y-61799063D01*
X59431376Y-61799031D01*
X59293529Y-61838428D01*
X59172280Y-61914930D01*
X59168792Y-61918880D01*
X59096489Y-62000748D01*
X59077377Y-62022388D01*
X59016447Y-62152163D01*
X59015637Y-62157368D01*
X59015636Y-62157370D01*
X59007735Y-62208118D01*
X58994391Y-62293823D01*
X59012980Y-62435979D01*
X59070720Y-62567203D01*
X59157192Y-62670074D01*
X59162970Y-62676948D01*
X59160797Y-62678775D01*
X59179774Y-62714275D01*
X59169360Y-62763811D01*
X59142686Y-62787091D01*
X59143529Y-62788428D01*
X59022280Y-62864930D01*
X58976544Y-62916717D01*
X58931871Y-62967300D01*
X58927377Y-62972388D01*
X58866447Y-63102163D01*
X58844391Y-63243823D01*
X58382155Y-63243823D01*
X58496692Y-63065756D01*
X58499308Y-63060937D01*
X58600827Y-62835572D01*
X58602703Y-62830422D01*
X58669798Y-62592517D01*
X58670890Y-62587151D01*
X58702196Y-62341070D01*
X58702480Y-62337365D01*
X58704718Y-62251854D01*
X58704630Y-62248152D01*
X58686245Y-62000748D01*
X58685437Y-61995345D01*
X58630884Y-61754258D01*
X58629281Y-61749012D01*
X58539691Y-61518633D01*
X58537338Y-61513700D01*
X58414678Y-61299089D01*
X58411614Y-61294547D01*
X58297780Y-61150150D01*
X58288735Y-61144552D01*
X58284428Y-61145177D01*
X57188831Y-62240774D01*
X57184336Y-62250413D01*
X56815279Y-62250413D01*
X56815664Y-62249587D01*
X56814083Y-62243688D01*
X55720473Y-61150078D01*
X55710834Y-61145583D01*
X55706302Y-61146798D01*
X55613882Y-61257922D01*
X55610693Y-61262394D01*
X55482467Y-61473702D01*
X55479980Y-61478582D01*
X55384391Y-61706536D01*
X55382652Y-61711734D01*
X55321807Y-61951311D01*
X55320858Y-61956696D01*
X55296092Y-62202642D01*
X55295949Y-62208118D01*
X53701655Y-62208118D01*
X53686245Y-62000748D01*
X53685437Y-61995345D01*
X53630884Y-61754258D01*
X53629281Y-61749012D01*
X53539691Y-61518633D01*
X53537338Y-61513700D01*
X53414678Y-61299089D01*
X53411614Y-61294547D01*
X53297780Y-61150150D01*
X53288735Y-61144552D01*
X53284428Y-61145177D01*
X52188831Y-62240774D01*
X52184336Y-62250413D01*
X51815279Y-62250413D01*
X51815664Y-62249587D01*
X51814083Y-62243688D01*
X50720473Y-61150078D01*
X50710834Y-61145583D01*
X50706302Y-61146798D01*
X50613882Y-61257922D01*
X50610693Y-61262394D01*
X50482467Y-61473702D01*
X50479980Y-61478582D01*
X50384391Y-61706536D01*
X50382652Y-61711734D01*
X50345723Y-61857143D01*
X50317234Y-61898984D01*
X50268516Y-61912725D01*
X50222364Y-61891934D01*
X50200372Y-61846342D01*
X50200000Y-61838928D01*
X50200000Y-60961906D01*
X50895528Y-60961906D01*
X50896583Y-60966978D01*
X51990774Y-62061169D01*
X52000413Y-62065664D01*
X52006312Y-62064083D01*
X53100927Y-60969468D01*
X53104453Y-60961906D01*
X55895528Y-60961906D01*
X55896583Y-60966978D01*
X56990774Y-62061169D01*
X57000413Y-62065664D01*
X57006312Y-62064083D01*
X58100927Y-60969468D01*
X58105422Y-60959829D01*
X58103975Y-60954430D01*
X58074846Y-60927029D01*
X58070589Y-60923582D01*
X57867494Y-60782690D01*
X57862769Y-60779907D01*
X57641081Y-60670583D01*
X57635998Y-60668530D01*
X57400594Y-60593176D01*
X57395254Y-60591894D01*
X57151281Y-60552160D01*
X57145844Y-60551684D01*
X56898671Y-60548449D01*
X56893203Y-60548784D01*
X56648274Y-60582117D01*
X56642931Y-60583252D01*
X56405608Y-60652425D01*
X56400492Y-60654338D01*
X56176001Y-60757830D01*
X56171219Y-60760481D01*
X55964502Y-60896010D01*
X55960152Y-60899348D01*
X55900564Y-60952533D01*
X55895528Y-60961906D01*
X53104453Y-60961906D01*
X53105422Y-60959829D01*
X53103975Y-60954430D01*
X53074846Y-60927029D01*
X53070589Y-60923582D01*
X52867494Y-60782690D01*
X52862769Y-60779907D01*
X52641081Y-60670583D01*
X52635998Y-60668530D01*
X52400594Y-60593176D01*
X52395254Y-60591894D01*
X52151281Y-60552160D01*
X52145844Y-60551684D01*
X51898671Y-60548449D01*
X51893203Y-60548784D01*
X51648274Y-60582117D01*
X51642931Y-60583252D01*
X51405608Y-60652425D01*
X51400492Y-60654338D01*
X51176001Y-60757830D01*
X51171219Y-60760481D01*
X50964502Y-60896010D01*
X50960152Y-60899348D01*
X50900564Y-60952533D01*
X50895528Y-60961906D01*
X50200000Y-60961906D01*
X50200000Y-52866058D01*
X55950000Y-52866058D01*
X55950710Y-52873268D01*
X55960182Y-52920890D01*
X55965652Y-52934094D01*
X56001759Y-52988132D01*
X56011868Y-52998241D01*
X56065906Y-53034348D01*
X56079110Y-53039818D01*
X56126732Y-53049290D01*
X56133942Y-53050000D01*
X56859952Y-53050000D01*
X56869948Y-53046362D01*
X56873000Y-53041075D01*
X56873000Y-53036952D01*
X57127000Y-53036952D01*
X57130638Y-53046948D01*
X57135925Y-53050000D01*
X57866058Y-53050000D01*
X57873268Y-53049290D01*
X57920890Y-53039818D01*
X57934094Y-53034348D01*
X57988132Y-52998241D01*
X57998241Y-52988132D01*
X58034348Y-52934094D01*
X58039818Y-52920890D01*
X58049290Y-52873268D01*
X58050000Y-52866058D01*
X58050000Y-52140048D01*
X58046362Y-52130052D01*
X58041075Y-52127000D01*
X57140048Y-52127000D01*
X57130052Y-52130638D01*
X57127000Y-52135925D01*
X57127000Y-53036952D01*
X56873000Y-53036952D01*
X56873000Y-52140048D01*
X56869362Y-52130052D01*
X56864075Y-52127000D01*
X55963048Y-52127000D01*
X55953052Y-52130638D01*
X55950000Y-52135925D01*
X55950000Y-52866058D01*
X50200000Y-52866058D01*
X50200000Y-51859952D01*
X55950000Y-51859952D01*
X55953638Y-51869948D01*
X55958925Y-51873000D01*
X56859952Y-51873000D01*
X56869948Y-51869362D01*
X56873000Y-51864075D01*
X56873000Y-51859952D01*
X57127000Y-51859952D01*
X57130638Y-51869948D01*
X57135925Y-51873000D01*
X58036952Y-51873000D01*
X58046948Y-51869362D01*
X58050000Y-51864075D01*
X58050000Y-51133942D01*
X58049290Y-51126732D01*
X58039818Y-51079110D01*
X58034348Y-51065906D01*
X57998241Y-51011868D01*
X57988132Y-51001759D01*
X57934094Y-50965652D01*
X57920890Y-50960182D01*
X57873268Y-50950710D01*
X57866058Y-50950000D01*
X57140048Y-50950000D01*
X57130052Y-50953638D01*
X57127000Y-50958925D01*
X57127000Y-51859952D01*
X56873000Y-51859952D01*
X56873000Y-50963048D01*
X56869362Y-50953052D01*
X56864075Y-50950000D01*
X56133942Y-50950000D01*
X56126732Y-50950710D01*
X56079110Y-50960182D01*
X56065906Y-50965652D01*
X56011868Y-51001759D01*
X56001759Y-51011868D01*
X55965652Y-51065906D01*
X55960182Y-51079110D01*
X55950710Y-51126732D01*
X55950000Y-51133942D01*
X55950000Y-51859952D01*
X50200000Y-51859952D01*
X50200000Y-51031124D01*
X50201882Y-51014540D01*
X50202579Y-51011509D01*
X50205143Y-51000359D01*
X50203303Y-50992230D01*
X50203318Y-50983898D01*
X50203418Y-50983898D01*
X50202708Y-50972504D01*
X50203640Y-50963048D01*
X50206173Y-50937322D01*
X50214658Y-50851181D01*
X50217488Y-50836954D01*
X50258782Y-50700825D01*
X50264331Y-50687430D01*
X50331391Y-50561969D01*
X50339447Y-50549913D01*
X50429691Y-50439949D01*
X50439949Y-50429691D01*
X50549913Y-50339447D01*
X50561969Y-50331391D01*
X50687430Y-50264331D01*
X50700822Y-50258783D01*
X50761034Y-50240518D01*
X50836954Y-50217488D01*
X50851181Y-50214658D01*
X50924393Y-50207447D01*
X50972049Y-50202753D01*
X50983187Y-50203466D01*
X50983187Y-50203261D01*
X50991522Y-50203276D01*
X50999643Y-50205143D01*
X51007770Y-50203304D01*
X51007772Y-50203304D01*
X51014307Y-50201825D01*
X51030638Y-50200000D01*
X124968877Y-50200000D01*
X124985461Y-50201882D01*
G37*
%TD.AperFunction*%
%TD*%
M02*
