%TF.GenerationSoftware,KiCad,Pcbnew,(6.0.2)*%
%TF.CreationDate,2022-04-10T10:34:04-06:00*%
%TF.ProjectId,SolarGPS,536f6c61-7247-4505-932e-6b696361645f,rev?*%
%TF.SameCoordinates,Original*%
%TF.FileFunction,Copper,L1,Top*%
%TF.FilePolarity,Positive*%
%FSLAX46Y46*%
G04 Gerber Fmt 4.6, Leading zero omitted, Abs format (unit mm)*
G04 Created by KiCad (PCBNEW (6.0.2)) date 2022-04-10 10:34:04*
%MOMM*%
%LPD*%
G01*
G04 APERTURE LIST*
G04 Aperture macros list*
%AMRoundRect*
0 Rectangle with rounded corners*
0 $1 Rounding radius*
0 $2 $3 $4 $5 $6 $7 $8 $9 X,Y pos of 4 corners*
0 Add a 4 corners polygon primitive as box body*
4,1,4,$2,$3,$4,$5,$6,$7,$8,$9,$2,$3,0*
0 Add four circle primitives for the rounded corners*
1,1,$1+$1,$2,$3*
1,1,$1+$1,$4,$5*
1,1,$1+$1,$6,$7*
1,1,$1+$1,$8,$9*
0 Add four rect primitives between the rounded corners*
20,1,$1+$1,$2,$3,$4,$5,0*
20,1,$1+$1,$4,$5,$6,$7,0*
20,1,$1+$1,$6,$7,$8,$9,0*
20,1,$1+$1,$8,$9,$2,$3,0*%
%AMOutline4P*
0 Free polygon, 4 corners , with rotation*
0 The origin of the aperture is its center*
0 number of corners: always 4*
0 $1 to $8 corner X, Y*
0 $9 Rotation angle, in degrees counterclockwise*
0 create outline with 4 corners*
4,1,4,$1,$2,$3,$4,$5,$6,$7,$8,$1,$2,$9*%
G04 Aperture macros list end*
%TA.AperFunction,SMDPad,CuDef*%
%ADD10R,1.250000X0.300000*%
%TD*%
%TA.AperFunction,SMDPad,CuDef*%
%ADD11R,3.000000X2.000000*%
%TD*%
%TA.AperFunction,SMDPad,CuDef*%
%ADD12RoundRect,0.243750X0.456250X-0.243750X0.456250X0.243750X-0.456250X0.243750X-0.456250X-0.243750X0*%
%TD*%
%TA.AperFunction,ComponentPad*%
%ADD13C,3.000000*%
%TD*%
%TA.AperFunction,SMDPad,CuDef*%
%ADD14RoundRect,0.147500X0.161973X0.158988X-0.131904X0.184699X-0.161973X-0.158988X0.131904X-0.184699X0*%
%TD*%
%TA.AperFunction,SMDPad,CuDef*%
%ADD15RoundRect,0.175000X0.175000X-0.725000X0.175000X0.725000X-0.175000X0.725000X-0.175000X-0.725000X0*%
%TD*%
%TA.AperFunction,SMDPad,CuDef*%
%ADD16RoundRect,0.200000X0.200000X-0.700000X0.200000X0.700000X-0.200000X0.700000X-0.200000X-0.700000X0*%
%TD*%
%TA.AperFunction,SMDPad,CuDef*%
%ADD17Outline4P,-0.400000X-0.325000X0.400000X-0.325000X0.400000X0.325000X-0.400000X0.325000X270.000000*%
%TD*%
%TA.AperFunction,SMDPad,CuDef*%
%ADD18Outline4P,-0.400000X-0.800000X0.400000X-0.800000X0.400000X0.800000X-0.400000X0.800000X270.000000*%
%TD*%
%TA.AperFunction,ConnectorPad*%
%ADD19C,0.787400*%
%TD*%
%TA.AperFunction,ComponentPad*%
%ADD20R,1.700000X1.700000*%
%TD*%
%TA.AperFunction,ComponentPad*%
%ADD21C,1.800000*%
%TD*%
%TA.AperFunction,ComponentPad*%
%ADD22O,1.700000X1.700000*%
%TD*%
%TA.AperFunction,ViaPad*%
%ADD23C,0.600000*%
%TD*%
%TA.AperFunction,ViaPad*%
%ADD24C,0.800000*%
%TD*%
%TA.AperFunction,Conductor*%
%ADD25C,0.200000*%
%TD*%
%TA.AperFunction,Conductor*%
%ADD26C,0.300000*%
%TD*%
%TA.AperFunction,Conductor*%
%ADD27C,0.350000*%
%TD*%
%TA.AperFunction,Conductor*%
%ADD28C,0.500000*%
%TD*%
G04 APERTURE END LIST*
D10*
%TO.P,J1,24,Pin_24*%
%TO.N,/VCOM*%
X60800000Y-71750000D03*
%TO.P,J1,23,Pin_23*%
%TO.N,/VGL*%
X60800000Y-71250000D03*
%TO.P,J1,22,Pin_22*%
%TO.N,/VSL*%
X60800000Y-70750000D03*
%TO.P,J1,21,Pin_21*%
%TO.N,/VGH*%
X60800000Y-70250000D03*
%TO.P,J1,20,Pin_20*%
%TO.N,/VSH1*%
X60800000Y-69750000D03*
%TO.P,J1,19,Pin_19*%
%TO.N,unconnected-(J1-Pad19)*%
X60800000Y-69250000D03*
%TO.P,J1,18,Pin_18*%
%TO.N,Net-(C16-Pad1)*%
X60800000Y-68750000D03*
%TO.P,J1,17,Pin_17*%
%TO.N,GND*%
X60800000Y-68250000D03*
%TO.P,J1,16,Pin_16*%
%TO.N,VDD*%
X60800000Y-67750000D03*
%TO.P,J1,15,Pin_15*%
X60800000Y-67250000D03*
%TO.P,J1,14,Pin_14*%
%TO.N,SPI_MOSI*%
X60800000Y-66750000D03*
%TO.P,J1,13,Pin_13*%
%TO.N,SPI_CLK*%
X60800000Y-66250000D03*
%TO.P,J1,12,Pin_12*%
%TO.N,DISP_CS*%
X60800000Y-65750000D03*
%TO.P,J1,11,Pin_11*%
%TO.N,DISP_DC*%
X60800000Y-65250000D03*
%TO.P,J1,10,Pin_10*%
%TO.N,DISP_RES#*%
X60800000Y-64750000D03*
%TO.P,J1,9,Pin_9*%
%TO.N,DISP_BUSY*%
X60800000Y-64250000D03*
%TO.P,J1,8,Pin_8*%
%TO.N,GND*%
X60800000Y-63750000D03*
%TO.P,J1,7,Pin_7*%
%TO.N,unconnected-(J1-Pad7)*%
X60800000Y-63250000D03*
%TO.P,J1,6,Pin_6*%
%TO.N,unconnected-(J1-Pad6)*%
X60800000Y-62750000D03*
%TO.P,J1,5,Pin_5*%
%TO.N,/VSH2*%
X60800000Y-62250000D03*
%TO.P,J1,4,Pin_4*%
%TO.N,unconnected-(J1-Pad4)*%
X60800000Y-61750000D03*
%TO.P,J1,3,Pin_3*%
%TO.N,/RESE*%
X60800000Y-61250000D03*
%TO.P,J1,2,Pin_2*%
%TO.N,/GDR*%
X60800000Y-60750000D03*
%TO.P,J1,1,Pin_1*%
%TO.N,unconnected-(J1-Pad1)*%
X60800000Y-60250000D03*
D11*
%TO.P,J1,0*%
%TO.N,N/C*%
X63125000Y-58710000D03*
X63125000Y-73290000D03*
%TD*%
D12*
%TO.P,D2,1,K*%
%TO.N,GND*%
X68550000Y-80087500D03*
%TO.P,D2,2,A*%
%TO.N,Net-(D2-Pad2)*%
X68550000Y-78212500D03*
%TD*%
D13*
%TO.P,J7,1,Pin_1*%
%TO.N,GND*%
X57000000Y-62250000D03*
X52000000Y-62250000D03*
X52000000Y-69750000D03*
X57000000Y-69750000D03*
%TD*%
D14*
%TO.P,C1,1*%
%TO.N,GND*%
X126733154Y-68292271D03*
%TO.P,C1,2*%
%TO.N,/GPS_RF*%
X125766846Y-68207729D03*
%TD*%
D15*
%TO.P,U2,1,GND*%
%TO.N,GND*%
X117900000Y-79750000D03*
D16*
%TO.P,U2,2,TXD*%
%TO.N,GPS_UART_MISO*%
X119000000Y-79750000D03*
%TO.P,U2,3,RXD*%
%TO.N,GPS_UART_MOSI*%
X120100000Y-79750000D03*
%TO.P,U2,4,TIMEPULSE*%
%TO.N,unconnected-(U2-Pad4)*%
X121200000Y-79750000D03*
%TO.P,U2,5,EXTINT*%
%TO.N,GPS_EXINT*%
X122300000Y-79750000D03*
%TO.P,U2,6,V_BCKP*%
%TO.N,VDD*%
X123400000Y-79750000D03*
%TO.P,U2,7,VCC_IO*%
X124500000Y-79750000D03*
%TO.P,U2,8,VCC*%
X125600000Y-79750000D03*
D15*
%TO.P,U2,9,~{RESET}*%
%TO.N,unconnected-(U2-Pad9)*%
X126700000Y-79750000D03*
%TO.P,U2,10,GND*%
%TO.N,GND*%
X126700000Y-70250000D03*
D16*
%TO.P,U2,11,RF_IN*%
%TO.N,/GPS_RF*%
X125600000Y-70250000D03*
%TO.P,U2,12,GND*%
%TO.N,GND*%
X124500000Y-70250000D03*
%TO.P,U2,13,LNA_EN*%
%TO.N,unconnected-(U2-Pad13)*%
X123400000Y-70250000D03*
%TO.P,U2,14,VCC_RF*%
%TO.N,unconnected-(U2-Pad14)*%
X122300000Y-70250000D03*
%TO.P,U2,15,Reserved*%
%TO.N,unconnected-(U2-Pad15)*%
X121200000Y-70250000D03*
%TO.P,U2,16,SDA*%
%TO.N,unconnected-(U2-Pad16)*%
X120100000Y-70250000D03*
%TO.P,U2,17,SCL*%
%TO.N,unconnected-(U2-Pad17)*%
X119000000Y-70250000D03*
D15*
%TO.P,U2,18,~{SAFEBOOT}*%
%TO.N,unconnected-(U2-Pad18)*%
X117900000Y-70250000D03*
%TD*%
D17*
%TO.P,AE1,1,A*%
%TO.N,/GPS_RF*%
X125900000Y-66600000D03*
%TO.P,AE1,2,Shield*%
%TO.N,GND*%
X126900000Y-66600000D03*
D18*
X126400000Y-63400000D03*
%TD*%
D19*
%TO.P,J4,1,Pin_1*%
%TO.N,VDD*%
X61830000Y-79685000D03*
%TO.P,J4,2,Pin_2*%
%TO.N,/SWDIO*%
X61830000Y-78415000D03*
%TO.P,J4,3,Pin_3*%
%TO.N,RESET*%
X63100000Y-79685000D03*
%TO.P,J4,4,Pin_4*%
%TO.N,/SWDCLK*%
X63100000Y-78415000D03*
%TO.P,J4,5,Pin_5*%
%TO.N,GND*%
X64370000Y-79685000D03*
%TO.P,J4,6,Pin_6*%
%TO.N,unconnected-(J4-Pad6)*%
X64370000Y-78415000D03*
%TD*%
D20*
%TO.P,J2,1,Pin_1*%
%TO.N,GND*%
X57000000Y-80000000D03*
%TD*%
%TO.P,J3,1,Pin_1*%
%TO.N,GND*%
X57000000Y-52000000D03*
%TD*%
D21*
%TO.P,C8,1*%
%TO.N,VBAT*%
X74000000Y-68750000D03*
%TO.P,C8,2*%
%TO.N,GND*%
X74000000Y-63250000D03*
%TD*%
D20*
%TO.P,J6,1,Pin_1*%
%TO.N,Net-(D3-Pad2)*%
X115000000Y-52000000D03*
%TD*%
%TO.P,J5,1,Pin_1*%
%TO.N,Net-(D1-Pad2)*%
X115000000Y-80000000D03*
%TD*%
%TO.P,J8,1,Pin_1*%
%TO.N,VDD*%
X112525000Y-68750000D03*
D22*
%TO.P,J8,2,Pin_2*%
%TO.N,GPS_UART_MOSI*%
X112525000Y-71290000D03*
%TO.P,J8,3,Pin_3*%
%TO.N,GPS_UART_MISO*%
X112525000Y-73830000D03*
%TO.P,J8,4,Pin_4*%
%TO.N,GND*%
X112525000Y-76370000D03*
%TD*%
D23*
%TO.N,GND*%
X57725000Y-76900000D03*
X60900000Y-76950000D03*
X71675000Y-57575000D03*
X65625000Y-56375000D03*
X62600000Y-61875000D03*
X62550000Y-63200000D03*
X65650000Y-68975000D03*
X70600000Y-66750000D03*
X68800000Y-74700000D03*
X77350000Y-79525000D03*
%TO.N,VDD*%
X62100000Y-67600000D03*
%TO.N,/VSH2*%
X59025000Y-64175000D03*
%TO.N,GND*%
X70050000Y-80150000D03*
%TO.N,Net-(D2-Pad2)*%
X70950000Y-78750000D03*
%TO.N,Net-(C16-Pad1)*%
X58775000Y-66825000D03*
%TO.N,/VGL*%
X64725000Y-71300000D03*
%TO.N,/VGH*%
X65825000Y-70375000D03*
%TO.N,/VSH1*%
X59525000Y-69750000D03*
%TO.N,/RESE*%
X59800000Y-57850000D03*
%TO.N,/GDR*%
X63300000Y-60850000D03*
%TO.N,/VSL*%
X57250000Y-72700000D03*
%TO.N,/VGL*%
X58800000Y-72750000D03*
%TO.N,/VCOM*%
X60200000Y-72850000D03*
%TO.N,DISP_BUSY*%
X71400000Y-69650000D03*
%TO.N,DISP_CS*%
X79989326Y-71009501D03*
%TO.N,GND*%
X122950000Y-62450000D03*
X122550000Y-51100000D03*
X77750000Y-66650000D03*
X67050000Y-79100000D03*
X86150000Y-56550000D03*
X89100000Y-75300000D03*
X97700000Y-57050000D03*
X126450000Y-62350000D03*
X73675000Y-74275000D03*
X54650000Y-66750000D03*
X75500000Y-52400000D03*
X84600000Y-50850000D03*
X77350000Y-51200000D03*
X97450000Y-54800000D03*
X82050000Y-50600000D03*
X75800000Y-59300000D03*
X77950000Y-59300000D03*
X92350000Y-76000000D03*
X98950000Y-80250000D03*
X83850000Y-61850000D03*
X122950000Y-65650000D03*
X124500000Y-67400000D03*
X89550000Y-70450000D03*
X117850000Y-81350000D03*
X77650000Y-54350000D03*
X127550000Y-70250000D03*
X124500000Y-68300000D03*
X89850000Y-61950000D03*
X106050000Y-55550000D03*
X123450000Y-67600000D03*
X96600000Y-71500000D03*
X78950000Y-62450000D03*
X89250000Y-55450000D03*
X101450000Y-76000000D03*
X104750000Y-80500000D03*
X116450000Y-69750000D03*
X127050000Y-53250000D03*
X125750000Y-50950000D03*
X97650000Y-57900000D03*
X110350000Y-66400000D03*
X105500000Y-76200000D03*
X54650000Y-65350000D03*
X81450000Y-68350000D03*
X89100000Y-68250000D03*
X124000000Y-62400000D03*
X118100000Y-51100000D03*
X106050000Y-72250000D03*
X127450000Y-62350000D03*
X96600000Y-59250000D03*
X92400000Y-79950000D03*
X83300000Y-55350000D03*
X127300000Y-57300000D03*
X125500000Y-62400000D03*
X94200000Y-77800000D03*
X87950000Y-79950000D03*
X123500000Y-68750000D03*
X89100000Y-57900000D03*
X85700000Y-79900000D03*
X122950000Y-63650000D03*
X89350000Y-77150000D03*
X57350000Y-56550000D03*
X110350000Y-60550000D03*
X86250000Y-70400000D03*
X97650000Y-55750000D03*
X110300000Y-54350000D03*
X127200000Y-59550000D03*
X122950000Y-66750000D03*
X122950000Y-64700000D03*
X84750000Y-53500000D03*
X106000000Y-65200000D03*
D24*
%TO.N,VDD*%
X73450000Y-60450000D03*
X61750000Y-80950000D03*
X124500000Y-81250000D03*
D23*
%TO.N,GPS_EXINT*%
X97150000Y-78850000D03*
X82300000Y-75300000D03*
X122250000Y-81300000D03*
%TO.N,GPS_UART_MOSI*%
X109900000Y-77600000D03*
%TO.N,VBAT*%
X85900000Y-53300000D03*
%TO.N,RESET*%
X81800000Y-78550000D03*
X78650000Y-80900000D03*
%TO.N,/SWDIO*%
X79065470Y-72865499D03*
%TO.N,SPI_MOSI*%
X83400000Y-73550000D03*
%TO.N,SPI_CLK*%
X81350000Y-73050000D03*
X87550000Y-75000000D03*
%TO.N,LIS_INT*%
X85300000Y-74200000D03*
X88000000Y-70400000D03*
%TO.N,Net-(D1-Pad2)*%
X108450000Y-80200000D03*
X108400000Y-53300000D03*
%TO.N,BOOT0*%
X89750000Y-79100000D03*
X82300000Y-76350000D03*
%TO.N,VSTOR*%
X87500000Y-53400000D03*
X90950000Y-56550000D03*
%TO.N,/SWDCLK*%
X79854993Y-73085421D03*
%TO.N,DISP_RES#*%
X82200000Y-70400000D03*
%TO.N,DISP_DC*%
X81150000Y-70850000D03*
%TO.N,VBAT_OK*%
X93200000Y-60850000D03*
X77050000Y-69400000D03*
X82100000Y-56300000D03*
%TD*%
D25*
%TO.N,SPI_CLK*%
X84400000Y-74300000D02*
X85100000Y-75000000D01*
X85100000Y-75000000D02*
X87550000Y-75000000D01*
X82600000Y-74300000D02*
X84400000Y-74300000D01*
X81350000Y-73050000D02*
X82600000Y-74300000D01*
X84400000Y-73600000D02*
X84400000Y-74300000D01*
%TO.N,GPS_EXINT*%
X91900000Y-78100000D02*
X92650000Y-78850000D01*
X92650000Y-78850000D02*
X97150000Y-78850000D01*
X85100000Y-78100000D02*
X91900000Y-78100000D01*
X82300000Y-75300000D02*
X85100000Y-78100000D01*
%TO.N,/VSH1*%
X60800000Y-69750000D02*
X59525000Y-69750000D01*
%TO.N,/VGL*%
X64675000Y-71250000D02*
X64725000Y-71300000D01*
X60800000Y-71250000D02*
X64675000Y-71250000D01*
%TO.N,VDD*%
X61950000Y-67750000D02*
X62100000Y-67600000D01*
X60800000Y-67750000D02*
X61950000Y-67750000D01*
X61750000Y-67250000D02*
X62100000Y-67600000D01*
X60800000Y-67250000D02*
X61750000Y-67250000D01*
%TO.N,/VSH2*%
X59975000Y-62250000D02*
X59025000Y-63200000D01*
X60800000Y-62250000D02*
X59975000Y-62250000D01*
X59025000Y-63200000D02*
X59025000Y-64175000D01*
%TO.N,Net-(D2-Pad2)*%
X68550000Y-78212500D02*
X70412500Y-78212500D01*
X70412500Y-78212500D02*
X70950000Y-78750000D01*
%TO.N,SPI_MOSI*%
X81850000Y-72000000D02*
X83400000Y-73550000D01*
X64716299Y-66750000D02*
X69966299Y-72000000D01*
X69966299Y-72000000D02*
X81850000Y-72000000D01*
X60800000Y-66750000D02*
X64716299Y-66750000D01*
%TO.N,SPI_CLK*%
X82440489Y-71640489D02*
X84400000Y-73600000D01*
X70115214Y-71640489D02*
X82440489Y-71640489D01*
X64724725Y-66250000D02*
X70115214Y-71640489D01*
X60800000Y-66250000D02*
X64724725Y-66250000D01*
%TO.N,DISP_DC*%
X80750000Y-70450000D02*
X81150000Y-70850000D01*
X79250000Y-70450000D02*
X80750000Y-70450000D01*
X70291577Y-70800000D02*
X78900000Y-70800000D01*
X64741577Y-65250000D02*
X70291577Y-70800000D01*
X78900000Y-70800000D02*
X79250000Y-70450000D01*
X60800000Y-65250000D02*
X64741577Y-65250000D01*
%TO.N,DISP_RES#*%
X79241574Y-69950000D02*
X81750000Y-69950000D01*
X70290482Y-70290479D02*
X78901095Y-70290479D01*
X64750003Y-64750000D02*
X70290482Y-70290479D01*
X60800000Y-64750000D02*
X64750003Y-64750000D01*
X78901095Y-70290479D02*
X79241574Y-69950000D01*
X81750000Y-69950000D02*
X82200000Y-70400000D01*
%TO.N,DISP_CS*%
X70233151Y-71250000D02*
X79748827Y-71250000D01*
X79748827Y-71250000D02*
X79989326Y-71009501D01*
X64733151Y-65750000D02*
X70233151Y-71250000D01*
X60800000Y-65750000D02*
X64733151Y-65750000D01*
%TO.N,DISP_BUSY*%
X66000000Y-64250000D02*
X71400000Y-69650000D01*
X60800000Y-64250000D02*
X66000000Y-64250000D01*
%TO.N,/SWDCLK*%
X68090000Y-73425000D02*
X63100000Y-78415000D01*
X79515414Y-73425000D02*
X68090000Y-73425000D01*
X79854993Y-73085421D02*
X79515414Y-73425000D01*
%TO.N,/SWDIO*%
X61830000Y-78415000D02*
X67379501Y-72865499D01*
X67379501Y-72865499D02*
X79065470Y-72865499D01*
%TO.N,Net-(C16-Pad1)*%
X60005978Y-68750000D02*
X60800000Y-68750000D01*
X58775000Y-67519022D02*
X60005978Y-68750000D01*
X58775000Y-66825000D02*
X58775000Y-67519022D01*
%TO.N,/VGH*%
X65700000Y-70250000D02*
X65825000Y-70375000D01*
X60800000Y-70250000D02*
X65700000Y-70250000D01*
%TO.N,/RESE*%
X59150000Y-60650000D02*
X59150000Y-58500000D01*
X59750000Y-61250000D02*
X59150000Y-60650000D01*
X59150000Y-58500000D02*
X59800000Y-57850000D01*
X60800000Y-61250000D02*
X59750000Y-61250000D01*
%TO.N,/GDR*%
X63200000Y-60750000D02*
X63300000Y-60850000D01*
X60800000Y-60750000D02*
X63200000Y-60750000D01*
%TO.N,/VSL*%
X59200000Y-70750000D02*
X57250000Y-72700000D01*
X60800000Y-70750000D02*
X59200000Y-70750000D01*
%TO.N,/VGL*%
X58800000Y-72425000D02*
X58800000Y-72750000D01*
X59975000Y-71250000D02*
X58800000Y-72425000D01*
X60800000Y-71250000D02*
X59975000Y-71250000D01*
%TO.N,/VCOM*%
X60800000Y-72250000D02*
X60200000Y-72850000D01*
X60800000Y-71750000D02*
X60800000Y-72250000D01*
%TO.N,VBAT_OK*%
X77900000Y-69400000D02*
X77050000Y-69400000D01*
X82100000Y-65200000D02*
X77900000Y-69400000D01*
X82100000Y-56300000D02*
X82100000Y-65200000D01*
D26*
%TO.N,VDD*%
X123400000Y-78500000D02*
X113650000Y-68750000D01*
D25*
X61750000Y-80950000D02*
X61750000Y-79765000D01*
D26*
X113650000Y-68750000D02*
X112525000Y-68750000D01*
X123400000Y-79750000D02*
X123400000Y-78500000D01*
D25*
X61750000Y-79765000D02*
X61830000Y-79685000D01*
D26*
X123400000Y-79750000D02*
X125600000Y-79750000D01*
D27*
X124500000Y-79750000D02*
X124500000Y-81250000D01*
D25*
%TO.N,GPS_EXINT*%
X122250000Y-79800000D02*
X122300000Y-79750000D01*
X122250000Y-81300000D02*
X122250000Y-79800000D01*
%TO.N,GPS_UART_MOSI*%
X109900000Y-77600000D02*
X109900000Y-73915000D01*
X109900000Y-73915000D02*
X112525000Y-71290000D01*
X120100000Y-79750000D02*
X120100000Y-76850000D01*
X120100000Y-76850000D02*
X114540000Y-71290000D01*
X114540000Y-71290000D02*
X112525000Y-71290000D01*
%TO.N,GPS_UART_MISO*%
X116515006Y-73830000D02*
X112525000Y-73830000D01*
X119000000Y-76314994D02*
X116515006Y-73830000D01*
X119000000Y-79750000D02*
X119000000Y-76314994D01*
D28*
%TO.N,/GPS_RF*%
X125900000Y-66600000D02*
X125600000Y-70250000D01*
D26*
%TO.N,VBAT*%
X76650000Y-66100000D02*
X76650000Y-57050000D01*
X80900000Y-52800000D02*
X85400000Y-52800000D01*
X76650000Y-57050000D02*
X80900000Y-52800000D01*
X85400000Y-52800000D02*
X85900000Y-53300000D01*
X74000000Y-68750000D02*
X76650000Y-66100000D01*
D25*
%TO.N,RESET*%
X78650000Y-80900000D02*
X79450000Y-80900000D01*
X78550000Y-81000000D02*
X78650000Y-80900000D01*
X64200000Y-81000000D02*
X78550000Y-81000000D01*
X63100000Y-79685000D02*
X63100000Y-79900000D01*
X79450000Y-80900000D02*
X81800000Y-78550000D01*
X63100000Y-79900000D02*
X64200000Y-81000000D01*
%TO.N,LIS_INT*%
X85300000Y-74200000D02*
X85300000Y-73100000D01*
X85300000Y-73100000D02*
X88000000Y-70400000D01*
D26*
%TO.N,Net-(D1-Pad2)*%
X108400000Y-80150000D02*
X108450000Y-80200000D01*
X108400000Y-53300000D02*
X108400000Y-80150000D01*
D25*
%TO.N,BOOT0*%
X85050000Y-79100000D02*
X89750000Y-79100000D01*
X82300000Y-76350000D02*
X85050000Y-79100000D01*
%TO.N,VSTOR*%
X89850000Y-53400000D02*
X87500000Y-53400000D01*
X90950000Y-56550000D02*
X90950000Y-54500000D01*
X90950000Y-54500000D02*
X89850000Y-53400000D01*
%TO.N,VBAT_OK*%
X86650000Y-60850000D02*
X93200000Y-60850000D01*
X82100000Y-56300000D02*
X86650000Y-60850000D01*
%TD*%
%TA.AperFunction,Conductor*%
%TO.N,GND*%
G36*
X124985461Y-50201882D02*
G01*
X124991522Y-50203276D01*
X124991523Y-50203276D01*
X124999642Y-50205143D01*
X125007806Y-50203296D01*
X125028281Y-50201589D01*
X125144227Y-50208100D01*
X125309367Y-50217374D01*
X125317595Y-50218302D01*
X125618956Y-50269505D01*
X125627046Y-50271351D01*
X125920792Y-50355978D01*
X125928624Y-50358719D01*
X126211040Y-50475699D01*
X126218513Y-50479298D01*
X126486044Y-50627158D01*
X126493072Y-50631572D01*
X126742386Y-50808470D01*
X126748870Y-50813642D01*
X126976800Y-51017333D01*
X126982667Y-51023200D01*
X127186358Y-51251130D01*
X127191533Y-51257618D01*
X127368428Y-51506929D01*
X127372842Y-51513956D01*
X127520702Y-51781487D01*
X127524301Y-51788960D01*
X127592288Y-51953096D01*
X127641281Y-52071376D01*
X127644022Y-52079208D01*
X127728649Y-52372954D01*
X127730495Y-52381043D01*
X127781698Y-52682405D01*
X127782626Y-52690633D01*
X127798385Y-52971247D01*
X127796726Y-52990723D01*
X127796725Y-52991520D01*
X127794857Y-52999642D01*
X127796696Y-53007769D01*
X127796696Y-53007771D01*
X127798175Y-53014306D01*
X127800000Y-53030637D01*
X127800000Y-63776000D01*
X127782687Y-63823566D01*
X127738850Y-63848876D01*
X127726000Y-63850000D01*
X125824000Y-63850000D01*
X125776434Y-63832687D01*
X125751124Y-63788850D01*
X125750000Y-63776000D01*
X125750000Y-63050000D01*
X123400000Y-63050000D01*
X123400000Y-67050000D01*
X125327716Y-67050000D01*
X125375282Y-67067313D01*
X125389249Y-67082894D01*
X125391873Y-67086822D01*
X125404091Y-67133990D01*
X125348614Y-67808965D01*
X125338260Y-67841071D01*
X125313165Y-67882754D01*
X125306905Y-67893151D01*
X125291141Y-67959839D01*
X125290907Y-67962508D01*
X125290907Y-67962511D01*
X125256377Y-68357191D01*
X125255322Y-68369247D01*
X125259392Y-68438263D01*
X125278402Y-68487402D01*
X125284193Y-68502370D01*
X125288929Y-68535132D01*
X125240693Y-69122013D01*
X125238955Y-69143153D01*
X125217804Y-69189141D01*
X125198800Y-69203025D01*
X125161658Y-69221950D01*
X125101973Y-69281635D01*
X125056097Y-69303027D01*
X125007202Y-69289926D01*
X124997321Y-69281635D01*
X124942164Y-69226478D01*
X124932853Y-69219713D01*
X124830342Y-69167481D01*
X124819393Y-69163923D01*
X124734354Y-69150455D01*
X124728572Y-69150000D01*
X124640048Y-69150000D01*
X124630052Y-69153638D01*
X124627000Y-69158925D01*
X124627000Y-71336951D01*
X124630638Y-71346947D01*
X124635925Y-71349999D01*
X124728571Y-71349999D01*
X124734354Y-71349544D01*
X124819394Y-71336076D01*
X124830340Y-71332519D01*
X124932853Y-71280287D01*
X124942164Y-71273522D01*
X124997321Y-71218365D01*
X125043197Y-71196973D01*
X125092092Y-71210074D01*
X125101973Y-71218365D01*
X125161658Y-71278050D01*
X125166848Y-71280694D01*
X125166850Y-71280696D01*
X125269502Y-71333000D01*
X125269505Y-71333001D01*
X125274696Y-71335646D01*
X125280448Y-71336557D01*
X125280451Y-71336558D01*
X125365318Y-71349999D01*
X125368481Y-71350500D01*
X125600000Y-71350500D01*
X125831518Y-71350499D01*
X125834390Y-71350044D01*
X125834392Y-71350044D01*
X125881773Y-71342540D01*
X125925304Y-71335646D01*
X125995263Y-71300000D01*
X126033150Y-71280696D01*
X126033152Y-71280694D01*
X126038342Y-71278050D01*
X126115652Y-71200740D01*
X126161528Y-71179348D01*
X126210423Y-71192449D01*
X126220258Y-71200695D01*
X126299895Y-71280194D01*
X126309717Y-71287199D01*
X126411226Y-71336818D01*
X126422070Y-71340169D01*
X126486805Y-71349613D01*
X126492139Y-71350000D01*
X126559952Y-71350000D01*
X126569948Y-71346362D01*
X126573000Y-71341075D01*
X126573000Y-71336952D01*
X126827000Y-71336952D01*
X126830638Y-71346948D01*
X126835925Y-71350000D01*
X126907843Y-71350000D01*
X126913212Y-71349607D01*
X126978564Y-71339987D01*
X126989408Y-71336618D01*
X127090826Y-71286824D01*
X127100634Y-71279801D01*
X127180196Y-71200101D01*
X127187199Y-71190283D01*
X127236818Y-71088774D01*
X127240169Y-71077930D01*
X127249613Y-71013195D01*
X127250000Y-71007861D01*
X127250000Y-70390048D01*
X127246362Y-70380052D01*
X127241075Y-70377000D01*
X126840048Y-70377000D01*
X126830052Y-70380638D01*
X126827000Y-70385925D01*
X126827000Y-71336952D01*
X126573000Y-71336952D01*
X126573000Y-70109952D01*
X126827000Y-70109952D01*
X126830638Y-70119948D01*
X126835925Y-70123000D01*
X127236952Y-70123000D01*
X127246948Y-70119362D01*
X127250000Y-70114075D01*
X127250000Y-69492157D01*
X127249607Y-69486788D01*
X127239987Y-69421436D01*
X127236618Y-69410592D01*
X127186824Y-69309174D01*
X127179801Y-69299366D01*
X127100101Y-69219804D01*
X127090283Y-69212801D01*
X126988774Y-69163182D01*
X126977930Y-69159831D01*
X126913195Y-69150387D01*
X126907861Y-69150000D01*
X126840048Y-69150000D01*
X126830052Y-69153638D01*
X126827000Y-69158925D01*
X126827000Y-70109952D01*
X126573000Y-70109952D01*
X126573000Y-69163048D01*
X126569362Y-69153052D01*
X126564075Y-69150000D01*
X126492157Y-69150000D01*
X126486788Y-69150393D01*
X126421436Y-69160013D01*
X126410592Y-69163382D01*
X126309174Y-69213176D01*
X126299365Y-69220199D01*
X126264725Y-69254899D01*
X126218867Y-69276331D01*
X126169961Y-69263272D01*
X126140892Y-69221832D01*
X126138603Y-69196556D01*
X126138826Y-69193852D01*
X126187422Y-68602600D01*
X126197776Y-68570494D01*
X126223825Y-68527227D01*
X126226787Y-68522307D01*
X126242551Y-68455619D01*
X126243708Y-68442392D01*
X126278135Y-68048902D01*
X126278135Y-68048896D01*
X126278370Y-68046211D01*
X126274300Y-67977195D01*
X126251168Y-67917402D01*
X126246432Y-67884641D01*
X126300715Y-67224206D01*
X126321866Y-67178218D01*
X126333353Y-67168740D01*
X126363491Y-67148602D01*
X126369552Y-67144552D01*
X126373602Y-67138491D01*
X126409816Y-67084294D01*
X126409816Y-67084293D01*
X126413867Y-67078231D01*
X126425500Y-67019748D01*
X126425500Y-66324000D01*
X126442813Y-66276434D01*
X126486650Y-66251124D01*
X126499500Y-66250000D01*
X127726000Y-66250000D01*
X127773566Y-66267313D01*
X127798876Y-66311150D01*
X127800000Y-66324000D01*
X127800000Y-79968877D01*
X127798118Y-79985461D01*
X127794857Y-79999642D01*
X127796697Y-80007773D01*
X127796694Y-80009405D01*
X127798161Y-80028050D01*
X127784918Y-80230111D01*
X127783654Y-80239707D01*
X127779210Y-80262049D01*
X127742644Y-80445883D01*
X127739614Y-80461114D01*
X127737111Y-80470459D01*
X127666082Y-80679702D01*
X127664542Y-80684238D01*
X127660839Y-80693178D01*
X127617919Y-80780211D01*
X127560991Y-80895650D01*
X127556151Y-80904033D01*
X127430731Y-81091737D01*
X127424838Y-81099417D01*
X127374015Y-81157370D01*
X127275986Y-81269150D01*
X127269150Y-81275986D01*
X127184282Y-81350414D01*
X127099417Y-81424838D01*
X127091737Y-81430731D01*
X126904033Y-81556151D01*
X126895650Y-81560991D01*
X126876755Y-81570309D01*
X126715697Y-81649734D01*
X126693180Y-81660838D01*
X126684241Y-81664541D01*
X126470459Y-81737111D01*
X126461117Y-81739613D01*
X126376774Y-81756390D01*
X126239707Y-81783654D01*
X126230112Y-81784918D01*
X126028519Y-81798131D01*
X126011108Y-81796729D01*
X126008479Y-81796724D01*
X126000358Y-81794857D01*
X125992231Y-81796696D01*
X125992229Y-81796696D01*
X125985694Y-81798175D01*
X125969363Y-81800000D01*
X124984320Y-81800000D01*
X124936754Y-81782687D01*
X124911444Y-81738850D01*
X124920234Y-81689000D01*
X124928393Y-81678367D01*
X124928282Y-81678282D01*
X125021584Y-81556689D01*
X125021586Y-81556685D01*
X125024536Y-81552841D01*
X125085044Y-81406762D01*
X125085702Y-81401770D01*
X125105049Y-81254808D01*
X125105682Y-81250000D01*
X125099033Y-81199498D01*
X125085677Y-81098043D01*
X125085676Y-81098040D01*
X125085044Y-81093238D01*
X125024536Y-80947159D01*
X125021586Y-80943315D01*
X125021584Y-80943311D01*
X124953197Y-80854187D01*
X124937975Y-80805911D01*
X124959579Y-80756813D01*
X124997674Y-80718718D01*
X125043550Y-80697326D01*
X125092445Y-80710427D01*
X125102326Y-80718718D01*
X125161658Y-80778050D01*
X125166848Y-80780694D01*
X125166850Y-80780696D01*
X125269502Y-80833000D01*
X125269505Y-80833001D01*
X125274696Y-80835646D01*
X125280448Y-80836557D01*
X125280451Y-80836558D01*
X125365324Y-80850000D01*
X125368481Y-80850500D01*
X125600000Y-80850500D01*
X125831518Y-80850499D01*
X125834390Y-80850044D01*
X125834392Y-80850044D01*
X125866090Y-80845024D01*
X125925304Y-80835646D01*
X125983662Y-80805911D01*
X126033150Y-80780696D01*
X126033152Y-80780694D01*
X126038342Y-80778050D01*
X126115298Y-80701094D01*
X126161174Y-80679702D01*
X126210069Y-80692803D01*
X126219904Y-80701048D01*
X126265775Y-80746838D01*
X126303931Y-80784927D01*
X126376034Y-80820172D01*
X126411081Y-80837304D01*
X126411083Y-80837305D01*
X126416241Y-80839826D01*
X126421924Y-80840655D01*
X126485983Y-80850000D01*
X126489410Y-80850500D01*
X126910590Y-80850500D01*
X126916616Y-80849613D01*
X126919598Y-80849174D01*
X126984396Y-80839635D01*
X127096610Y-80784541D01*
X127184927Y-80696069D01*
X127220944Y-80622388D01*
X127237304Y-80588919D01*
X127237305Y-80588917D01*
X127239826Y-80583759D01*
X127250500Y-80510590D01*
X127250500Y-78989410D01*
X127239635Y-78915604D01*
X127184541Y-78803390D01*
X127096069Y-78715073D01*
X127005755Y-78670926D01*
X126988919Y-78662696D01*
X126988917Y-78662695D01*
X126983759Y-78660174D01*
X126934939Y-78653052D01*
X126913243Y-78649887D01*
X126910590Y-78649500D01*
X126489410Y-78649500D01*
X126486741Y-78649893D01*
X126486740Y-78649893D01*
X126483344Y-78650393D01*
X126415604Y-78660365D01*
X126303390Y-78715459D01*
X126220065Y-78798931D01*
X126174208Y-78820363D01*
X126125303Y-78807305D01*
X126115368Y-78798976D01*
X126038342Y-78721950D01*
X126033152Y-78719306D01*
X126033150Y-78719304D01*
X125930498Y-78667000D01*
X125930495Y-78666999D01*
X125925304Y-78664354D01*
X125919552Y-78663443D01*
X125919549Y-78663442D01*
X125834392Y-78649955D01*
X125831519Y-78649500D01*
X125828610Y-78649500D01*
X125600001Y-78649501D01*
X125368482Y-78649501D01*
X125365610Y-78649956D01*
X125365608Y-78649956D01*
X125346060Y-78653052D01*
X125274696Y-78664354D01*
X125226055Y-78689138D01*
X125166850Y-78719304D01*
X125166848Y-78719306D01*
X125161658Y-78721950D01*
X125102326Y-78781282D01*
X125056450Y-78802674D01*
X125007555Y-78789573D01*
X124997674Y-78781282D01*
X124938342Y-78721950D01*
X124933152Y-78719306D01*
X124933150Y-78719304D01*
X124830498Y-78667000D01*
X124830495Y-78666999D01*
X124825304Y-78664354D01*
X124819552Y-78663443D01*
X124819549Y-78663442D01*
X124734392Y-78649955D01*
X124731519Y-78649500D01*
X124728610Y-78649500D01*
X124500001Y-78649501D01*
X124268482Y-78649501D01*
X124265610Y-78649956D01*
X124265608Y-78649956D01*
X124246060Y-78653052D01*
X124174696Y-78664354D01*
X124126055Y-78689138D01*
X124066850Y-78719304D01*
X124066848Y-78719306D01*
X124061658Y-78721950D01*
X124002326Y-78781282D01*
X123956450Y-78802674D01*
X123907555Y-78789573D01*
X123897674Y-78781282D01*
X123838342Y-78721950D01*
X123790904Y-78697779D01*
X123756382Y-78660758D01*
X123750500Y-78631845D01*
X123750500Y-78545287D01*
X123752158Y-78529712D01*
X123753663Y-78522722D01*
X123753663Y-78522721D01*
X123754951Y-78516739D01*
X123753461Y-78504145D01*
X123751013Y-78483467D01*
X123750500Y-78474769D01*
X123750500Y-78470885D01*
X123747403Y-78452280D01*
X123746915Y-78448845D01*
X123741955Y-78406934D01*
X123741955Y-78406933D01*
X123741236Y-78400861D01*
X123738589Y-78395349D01*
X123738259Y-78394212D01*
X123738076Y-78393407D01*
X123737889Y-78392817D01*
X123737582Y-78392067D01*
X123737192Y-78390928D01*
X123736188Y-78384897D01*
X123713234Y-78342358D01*
X123711651Y-78339251D01*
X123692741Y-78299870D01*
X123692740Y-78299869D01*
X123690726Y-78295674D01*
X123687408Y-78291726D01*
X123686455Y-78290773D01*
X123683532Y-78287310D01*
X123680778Y-78282206D01*
X123643623Y-78247860D01*
X123641528Y-78245846D01*
X116406272Y-71010590D01*
X117349500Y-71010590D01*
X117360365Y-71084396D01*
X117415459Y-71196610D01*
X117503931Y-71284927D01*
X117554183Y-71309491D01*
X117611081Y-71337304D01*
X117611083Y-71337305D01*
X117616241Y-71339826D01*
X117621924Y-71340655D01*
X117685983Y-71350000D01*
X117689410Y-71350500D01*
X118110590Y-71350500D01*
X118113994Y-71349999D01*
X118119598Y-71349174D01*
X118184396Y-71339635D01*
X118296610Y-71284541D01*
X118379935Y-71201069D01*
X118425792Y-71179637D01*
X118474697Y-71192695D01*
X118484632Y-71201024D01*
X118561658Y-71278050D01*
X118566848Y-71280694D01*
X118566850Y-71280696D01*
X118669502Y-71333000D01*
X118669505Y-71333001D01*
X118674696Y-71335646D01*
X118680448Y-71336557D01*
X118680451Y-71336558D01*
X118765318Y-71349999D01*
X118768481Y-71350500D01*
X119000000Y-71350500D01*
X119231518Y-71350499D01*
X119234390Y-71350044D01*
X119234392Y-71350044D01*
X119281773Y-71342540D01*
X119325304Y-71335646D01*
X119395263Y-71300000D01*
X119433150Y-71280696D01*
X119433152Y-71280694D01*
X119438342Y-71278050D01*
X119497674Y-71218718D01*
X119543550Y-71197326D01*
X119592445Y-71210427D01*
X119602326Y-71218718D01*
X119661658Y-71278050D01*
X119666848Y-71280694D01*
X119666850Y-71280696D01*
X119769502Y-71333000D01*
X119769505Y-71333001D01*
X119774696Y-71335646D01*
X119780448Y-71336557D01*
X119780451Y-71336558D01*
X119865318Y-71349999D01*
X119868481Y-71350500D01*
X120100000Y-71350500D01*
X120331518Y-71350499D01*
X120334390Y-71350044D01*
X120334392Y-71350044D01*
X120381773Y-71342540D01*
X120425304Y-71335646D01*
X120495263Y-71300000D01*
X120533150Y-71280696D01*
X120533152Y-71280694D01*
X120538342Y-71278050D01*
X120597674Y-71218718D01*
X120643550Y-71197326D01*
X120692445Y-71210427D01*
X120702326Y-71218718D01*
X120761658Y-71278050D01*
X120766848Y-71280694D01*
X120766850Y-71280696D01*
X120869502Y-71333000D01*
X120869505Y-71333001D01*
X120874696Y-71335646D01*
X120880448Y-71336557D01*
X120880451Y-71336558D01*
X120965318Y-71349999D01*
X120968481Y-71350500D01*
X121200000Y-71350500D01*
X121431518Y-71350499D01*
X121434390Y-71350044D01*
X121434392Y-71350044D01*
X121481773Y-71342540D01*
X121525304Y-71335646D01*
X121595263Y-71300000D01*
X121633150Y-71280696D01*
X121633152Y-71280694D01*
X121638342Y-71278050D01*
X121697674Y-71218718D01*
X121743550Y-71197326D01*
X121792445Y-71210427D01*
X121802326Y-71218718D01*
X121861658Y-71278050D01*
X121866848Y-71280694D01*
X121866850Y-71280696D01*
X121969502Y-71333000D01*
X121969505Y-71333001D01*
X121974696Y-71335646D01*
X121980448Y-71336557D01*
X121980451Y-71336558D01*
X122065318Y-71349999D01*
X122068481Y-71350500D01*
X122300000Y-71350500D01*
X122531518Y-71350499D01*
X122534390Y-71350044D01*
X122534392Y-71350044D01*
X122581773Y-71342540D01*
X122625304Y-71335646D01*
X122695263Y-71300000D01*
X122733150Y-71280696D01*
X122733152Y-71280694D01*
X122738342Y-71278050D01*
X122797674Y-71218718D01*
X122843550Y-71197326D01*
X122892445Y-71210427D01*
X122902326Y-71218718D01*
X122961658Y-71278050D01*
X122966848Y-71280694D01*
X122966850Y-71280696D01*
X123069502Y-71333000D01*
X123069505Y-71333001D01*
X123074696Y-71335646D01*
X123080448Y-71336557D01*
X123080451Y-71336558D01*
X123165318Y-71349999D01*
X123168481Y-71350500D01*
X123400000Y-71350500D01*
X123631518Y-71350499D01*
X123634390Y-71350044D01*
X123634392Y-71350044D01*
X123681773Y-71342540D01*
X123725304Y-71335646D01*
X123795263Y-71300000D01*
X123833150Y-71280696D01*
X123833152Y-71280694D01*
X123838342Y-71278050D01*
X123898027Y-71218365D01*
X123943903Y-71196973D01*
X123992798Y-71210074D01*
X124002679Y-71218365D01*
X124057836Y-71273522D01*
X124067147Y-71280287D01*
X124169658Y-71332519D01*
X124180607Y-71336077D01*
X124265646Y-71349545D01*
X124271428Y-71350000D01*
X124359952Y-71350000D01*
X124369948Y-71346362D01*
X124373000Y-71341075D01*
X124373000Y-69163049D01*
X124369362Y-69153053D01*
X124364075Y-69150001D01*
X124271429Y-69150001D01*
X124265646Y-69150456D01*
X124180606Y-69163924D01*
X124169660Y-69167481D01*
X124067147Y-69219713D01*
X124057836Y-69226478D01*
X124002679Y-69281635D01*
X123956803Y-69303027D01*
X123907908Y-69289926D01*
X123898027Y-69281635D01*
X123838342Y-69221950D01*
X123833152Y-69219306D01*
X123833150Y-69219304D01*
X123730498Y-69167000D01*
X123730495Y-69166999D01*
X123725304Y-69164354D01*
X123719552Y-69163443D01*
X123719549Y-69163442D01*
X123634392Y-69149955D01*
X123631519Y-69149500D01*
X123628610Y-69149500D01*
X123400001Y-69149501D01*
X123168482Y-69149501D01*
X123165610Y-69149956D01*
X123165608Y-69149956D01*
X123142360Y-69153638D01*
X123074696Y-69164354D01*
X123022430Y-69190985D01*
X122966850Y-69219304D01*
X122966848Y-69219306D01*
X122961658Y-69221950D01*
X122902326Y-69281282D01*
X122856450Y-69302674D01*
X122807555Y-69289573D01*
X122797674Y-69281282D01*
X122738342Y-69221950D01*
X122733152Y-69219306D01*
X122733150Y-69219304D01*
X122630498Y-69167000D01*
X122630495Y-69166999D01*
X122625304Y-69164354D01*
X122619552Y-69163443D01*
X122619549Y-69163442D01*
X122534392Y-69149955D01*
X122531519Y-69149500D01*
X122528610Y-69149500D01*
X122300001Y-69149501D01*
X122068482Y-69149501D01*
X122065610Y-69149956D01*
X122065608Y-69149956D01*
X122042360Y-69153638D01*
X121974696Y-69164354D01*
X121922430Y-69190985D01*
X121866850Y-69219304D01*
X121866848Y-69219306D01*
X121861658Y-69221950D01*
X121802326Y-69281282D01*
X121756450Y-69302674D01*
X121707555Y-69289573D01*
X121697674Y-69281282D01*
X121638342Y-69221950D01*
X121633152Y-69219306D01*
X121633150Y-69219304D01*
X121530498Y-69167000D01*
X121530495Y-69166999D01*
X121525304Y-69164354D01*
X121519552Y-69163443D01*
X121519549Y-69163442D01*
X121434392Y-69149955D01*
X121431519Y-69149500D01*
X121428610Y-69149500D01*
X121200001Y-69149501D01*
X120968482Y-69149501D01*
X120965610Y-69149956D01*
X120965608Y-69149956D01*
X120942360Y-69153638D01*
X120874696Y-69164354D01*
X120822430Y-69190985D01*
X120766850Y-69219304D01*
X120766848Y-69219306D01*
X120761658Y-69221950D01*
X120702326Y-69281282D01*
X120656450Y-69302674D01*
X120607555Y-69289573D01*
X120597674Y-69281282D01*
X120538342Y-69221950D01*
X120533152Y-69219306D01*
X120533150Y-69219304D01*
X120430498Y-69167000D01*
X120430495Y-69166999D01*
X120425304Y-69164354D01*
X120419552Y-69163443D01*
X120419549Y-69163442D01*
X120334392Y-69149955D01*
X120331519Y-69149500D01*
X120328610Y-69149500D01*
X120100001Y-69149501D01*
X119868482Y-69149501D01*
X119865610Y-69149956D01*
X119865608Y-69149956D01*
X119842360Y-69153638D01*
X119774696Y-69164354D01*
X119722430Y-69190985D01*
X119666850Y-69219304D01*
X119666848Y-69219306D01*
X119661658Y-69221950D01*
X119602326Y-69281282D01*
X119556450Y-69302674D01*
X119507555Y-69289573D01*
X119497674Y-69281282D01*
X119438342Y-69221950D01*
X119433152Y-69219306D01*
X119433150Y-69219304D01*
X119330498Y-69167000D01*
X119330495Y-69166999D01*
X119325304Y-69164354D01*
X119319552Y-69163443D01*
X119319549Y-69163442D01*
X119234392Y-69149955D01*
X119231519Y-69149500D01*
X119228610Y-69149500D01*
X119000001Y-69149501D01*
X118768482Y-69149501D01*
X118765610Y-69149956D01*
X118765608Y-69149956D01*
X118742360Y-69153638D01*
X118674696Y-69164354D01*
X118622430Y-69190985D01*
X118566850Y-69219304D01*
X118566848Y-69219306D01*
X118561658Y-69221950D01*
X118484702Y-69298906D01*
X118438826Y-69320298D01*
X118389931Y-69307197D01*
X118380096Y-69298952D01*
X118330087Y-69249031D01*
X118296069Y-69215073D01*
X118206279Y-69171182D01*
X118188919Y-69162696D01*
X118188917Y-69162695D01*
X118183759Y-69160174D01*
X118117143Y-69150456D01*
X118113243Y-69149887D01*
X118110590Y-69149500D01*
X117689410Y-69149500D01*
X117686741Y-69149893D01*
X117686740Y-69149893D01*
X117683344Y-69150393D01*
X117615604Y-69160365D01*
X117503390Y-69215459D01*
X117415073Y-69303931D01*
X117383325Y-69368880D01*
X117368610Y-69398984D01*
X117360174Y-69416241D01*
X117349500Y-69489410D01*
X117349500Y-71010590D01*
X116406272Y-71010590D01*
X113929866Y-68534184D01*
X113920025Y-68521998D01*
X113916145Y-68515989D01*
X113916143Y-68515987D01*
X113912825Y-68510848D01*
X113886514Y-68490106D01*
X113880001Y-68484319D01*
X113877254Y-68481572D01*
X113874776Y-68479801D01*
X113874771Y-68479797D01*
X113861920Y-68470614D01*
X113859157Y-68468540D01*
X113821189Y-68438608D01*
X113815420Y-68436582D01*
X113814383Y-68436012D01*
X113813680Y-68435570D01*
X113813140Y-68435289D01*
X113812383Y-68434972D01*
X113811307Y-68434445D01*
X113806331Y-68430889D01*
X113760023Y-68417040D01*
X113756707Y-68415963D01*
X113748298Y-68413010D01*
X113711094Y-68399945D01*
X113705956Y-68399500D01*
X113704619Y-68399500D01*
X113700088Y-68399116D01*
X113694536Y-68397456D01*
X113688426Y-68397696D01*
X113688425Y-68397696D01*
X113652405Y-68399111D01*
X113604195Y-68383679D01*
X113577185Y-68340869D01*
X113575500Y-68325168D01*
X113575500Y-67880252D01*
X113563867Y-67821769D01*
X113523682Y-67761628D01*
X113523602Y-67761509D01*
X113519552Y-67755448D01*
X113513308Y-67751276D01*
X113459294Y-67715184D01*
X113459293Y-67715184D01*
X113453231Y-67711133D01*
X113399283Y-67700402D01*
X113398318Y-67700210D01*
X113398317Y-67700210D01*
X113394748Y-67699500D01*
X111655252Y-67699500D01*
X111651683Y-67700210D01*
X111651682Y-67700210D01*
X111650717Y-67700402D01*
X111596769Y-67711133D01*
X111590707Y-67715184D01*
X111590706Y-67715184D01*
X111536692Y-67751276D01*
X111530448Y-67755448D01*
X111526398Y-67761509D01*
X111526319Y-67761628D01*
X111486133Y-67821769D01*
X111474500Y-67880252D01*
X111474500Y-69619748D01*
X111486133Y-69678231D01*
X111490184Y-69684293D01*
X111490184Y-69684294D01*
X111513640Y-69719397D01*
X111530448Y-69744552D01*
X111536509Y-69748602D01*
X111577661Y-69776099D01*
X111596769Y-69788867D01*
X111641295Y-69797724D01*
X111651682Y-69799790D01*
X111651683Y-69799790D01*
X111655252Y-69800500D01*
X113394748Y-69800500D01*
X113398317Y-69799790D01*
X113398318Y-69799790D01*
X113408705Y-69797724D01*
X113453231Y-69788867D01*
X113472340Y-69776099D01*
X113513491Y-69748602D01*
X113519552Y-69744552D01*
X113536360Y-69719397D01*
X113559816Y-69684294D01*
X113559816Y-69684293D01*
X113563867Y-69678231D01*
X113575500Y-69619748D01*
X113575500Y-69349834D01*
X113592813Y-69302268D01*
X113636650Y-69276958D01*
X113686500Y-69285748D01*
X113701826Y-69297508D01*
X122998685Y-78594367D01*
X123020077Y-78640243D01*
X123006976Y-78689138D01*
X122979956Y-78712626D01*
X122972303Y-78716526D01*
X122961658Y-78721950D01*
X122902326Y-78781282D01*
X122856450Y-78802674D01*
X122807555Y-78789573D01*
X122797674Y-78781282D01*
X122738342Y-78721950D01*
X122733152Y-78719306D01*
X122733150Y-78719304D01*
X122630498Y-78667000D01*
X122630495Y-78666999D01*
X122625304Y-78664354D01*
X122619552Y-78663443D01*
X122619549Y-78663442D01*
X122534392Y-78649955D01*
X122531519Y-78649500D01*
X122528610Y-78649500D01*
X122300001Y-78649501D01*
X122068482Y-78649501D01*
X122065610Y-78649956D01*
X122065608Y-78649956D01*
X122046060Y-78653052D01*
X121974696Y-78664354D01*
X121926055Y-78689138D01*
X121866850Y-78719304D01*
X121866848Y-78719306D01*
X121861658Y-78721950D01*
X121802326Y-78781282D01*
X121756450Y-78802674D01*
X121707555Y-78789573D01*
X121697674Y-78781282D01*
X121638342Y-78721950D01*
X121633152Y-78719306D01*
X121633150Y-78719304D01*
X121530498Y-78667000D01*
X121530495Y-78666999D01*
X121525304Y-78664354D01*
X121519552Y-78663443D01*
X121519549Y-78663442D01*
X121434392Y-78649955D01*
X121431519Y-78649500D01*
X121428610Y-78649500D01*
X121200001Y-78649501D01*
X120968482Y-78649501D01*
X120965610Y-78649956D01*
X120965608Y-78649956D01*
X120946060Y-78653052D01*
X120874696Y-78664354D01*
X120826055Y-78689138D01*
X120766850Y-78719304D01*
X120766848Y-78719306D01*
X120761658Y-78721950D01*
X120702326Y-78781282D01*
X120656450Y-78802674D01*
X120607555Y-78789573D01*
X120597674Y-78781282D01*
X120538342Y-78721950D01*
X120533152Y-78719306D01*
X120533150Y-78719304D01*
X120440905Y-78672303D01*
X120406383Y-78635283D01*
X120400500Y-78606369D01*
X120400500Y-76904567D01*
X120400902Y-76899094D01*
X120402425Y-76894658D01*
X120400658Y-76847569D01*
X120400552Y-76844758D01*
X120400500Y-76841982D01*
X120400500Y-76822052D01*
X120399876Y-76818700D01*
X120399563Y-76815309D01*
X120399753Y-76815291D01*
X120399294Y-76811242D01*
X120398482Y-76789617D01*
X120398226Y-76782791D01*
X120395530Y-76776516D01*
X120395529Y-76776512D01*
X120392584Y-76769658D01*
X120387825Y-76753995D01*
X120386460Y-76746664D01*
X120386460Y-76746663D01*
X120385209Y-76739947D01*
X120381624Y-76734132D01*
X120381623Y-76734128D01*
X120370270Y-76715710D01*
X120365274Y-76706093D01*
X120356099Y-76684738D01*
X120356098Y-76684736D01*
X120354036Y-76679937D01*
X120350022Y-76675051D01*
X120343591Y-76668620D01*
X120332923Y-76655124D01*
X120330053Y-76650468D01*
X120326468Y-76644652D01*
X120301888Y-76625961D01*
X120294354Y-76619383D01*
X114791070Y-71116099D01*
X114787485Y-71111946D01*
X114785425Y-71107731D01*
X114748818Y-71073773D01*
X114746819Y-71071848D01*
X114732723Y-71057752D01*
X114729912Y-71055824D01*
X114727293Y-71053647D01*
X114727403Y-71053515D01*
X114724227Y-71050961D01*
X114708364Y-71036246D01*
X114708363Y-71036245D01*
X114703354Y-71031599D01*
X114697012Y-71029069D01*
X114697006Y-71029065D01*
X114690077Y-71026301D01*
X114675641Y-71018593D01*
X114669493Y-71014376D01*
X114669492Y-71014375D01*
X114663854Y-71010508D01*
X114657204Y-71008930D01*
X114657202Y-71008929D01*
X114636160Y-71003936D01*
X114625824Y-71000668D01*
X114623932Y-70999913D01*
X114599378Y-70990117D01*
X114593085Y-70989500D01*
X114583988Y-70989500D01*
X114566901Y-70987500D01*
X114561585Y-70986238D01*
X114561583Y-70986238D01*
X114554934Y-70984660D01*
X114534066Y-70987500D01*
X114524337Y-70988824D01*
X114514358Y-70989500D01*
X113586614Y-70989500D01*
X113539048Y-70972187D01*
X113515773Y-70936889D01*
X113501983Y-70891217D01*
X113501980Y-70891209D01*
X113500935Y-70887749D01*
X113426585Y-70747916D01*
X113405917Y-70709044D01*
X113405916Y-70709042D01*
X113404218Y-70705849D01*
X113274011Y-70546200D01*
X113172442Y-70462175D01*
X113118070Y-70417194D01*
X113118069Y-70417193D01*
X113115275Y-70414882D01*
X113104384Y-70408993D01*
X112937238Y-70318618D01*
X112934055Y-70316897D01*
X112930605Y-70315829D01*
X112930600Y-70315827D01*
X112775225Y-70267731D01*
X112737254Y-70255977D01*
X112532369Y-70234443D01*
X112528765Y-70234771D01*
X112528764Y-70234771D01*
X112528215Y-70234821D01*
X112327203Y-70253114D01*
X112292604Y-70263297D01*
X112133043Y-70310258D01*
X112133039Y-70310260D01*
X112129572Y-70311280D01*
X112044014Y-70356009D01*
X111950209Y-70405049D01*
X111950206Y-70405051D01*
X111947002Y-70406726D01*
X111944184Y-70408992D01*
X111944182Y-70408993D01*
X111789266Y-70533548D01*
X111789263Y-70533551D01*
X111786447Y-70535815D01*
X111784121Y-70538587D01*
X111784119Y-70538589D01*
X111656351Y-70690856D01*
X111656348Y-70690860D01*
X111654024Y-70693630D01*
X111554776Y-70874162D01*
X111553682Y-70877611D01*
X111495774Y-71060162D01*
X111492484Y-71070532D01*
X111469520Y-71275262D01*
X111469823Y-71278871D01*
X111469823Y-71278873D01*
X111484070Y-71448531D01*
X111486759Y-71480553D01*
X111543544Y-71678586D01*
X111545196Y-71681800D01*
X111545197Y-71681803D01*
X111575874Y-71741494D01*
X111582218Y-71791714D01*
X111562383Y-71827645D01*
X109726099Y-73663930D01*
X109721946Y-73667515D01*
X109717731Y-73669575D01*
X109686913Y-73702797D01*
X109683774Y-73706181D01*
X109681848Y-73708181D01*
X109667752Y-73722277D01*
X109665824Y-73725088D01*
X109663647Y-73727707D01*
X109663515Y-73727597D01*
X109660961Y-73730773D01*
X109641599Y-73751646D01*
X109639069Y-73757988D01*
X109639065Y-73757994D01*
X109636301Y-73764923D01*
X109628593Y-73779359D01*
X109624376Y-73785507D01*
X109620508Y-73791146D01*
X109618930Y-73797796D01*
X109618929Y-73797798D01*
X109613936Y-73818840D01*
X109610668Y-73829176D01*
X109600117Y-73855622D01*
X109599500Y-73861915D01*
X109599500Y-73871012D01*
X109597500Y-73888098D01*
X109594660Y-73900066D01*
X109595582Y-73906839D01*
X109598824Y-73930663D01*
X109599500Y-73940642D01*
X109599500Y-77158553D01*
X109582187Y-77206119D01*
X109575379Y-77212975D01*
X109572280Y-77214930D01*
X109533709Y-77258604D01*
X109507352Y-77288448D01*
X109477377Y-77322388D01*
X109416447Y-77452163D01*
X109415637Y-77457368D01*
X109415636Y-77457370D01*
X109415525Y-77458082D01*
X109394391Y-77593823D01*
X109395074Y-77599046D01*
X109395074Y-77599049D01*
X109395573Y-77602862D01*
X109412980Y-77735979D01*
X109470720Y-77867203D01*
X109483792Y-77882754D01*
X109559580Y-77972916D01*
X109559583Y-77972919D01*
X109562970Y-77976948D01*
X109600844Y-78002159D01*
X109677924Y-78053469D01*
X109677927Y-78053470D01*
X109682313Y-78056390D01*
X109819157Y-78099142D01*
X109824425Y-78099239D01*
X109824428Y-78099239D01*
X109884733Y-78100344D01*
X109962499Y-78101770D01*
X109967582Y-78100384D01*
X109967584Y-78100384D01*
X110095727Y-78065448D01*
X110095729Y-78065447D01*
X110100817Y-78064060D01*
X110201633Y-78002159D01*
X110218498Y-77991804D01*
X110218499Y-77991803D01*
X110222991Y-77989045D01*
X110319200Y-77882754D01*
X110381710Y-77753733D01*
X110405496Y-77612354D01*
X110405647Y-77600000D01*
X110385323Y-77458082D01*
X110363824Y-77410796D01*
X110328166Y-77332371D01*
X110325984Y-77327572D01*
X110232400Y-77218963D01*
X110227973Y-77216093D01*
X110225854Y-77214245D01*
X110201391Y-77169930D01*
X110200500Y-77158481D01*
X110200500Y-76504792D01*
X111482577Y-76504792D01*
X111486949Y-76556854D01*
X111488250Y-76563942D01*
X111543013Y-76754922D01*
X111545663Y-76761617D01*
X111636479Y-76938326D01*
X111640384Y-76944384D01*
X111763789Y-77100083D01*
X111768794Y-77105267D01*
X111920094Y-77234032D01*
X111926013Y-77238146D01*
X112099440Y-77335072D01*
X112106041Y-77337955D01*
X112294991Y-77399348D01*
X112302036Y-77400897D01*
X112385043Y-77410796D01*
X112395399Y-77408367D01*
X112398000Y-77404891D01*
X112398000Y-77400329D01*
X112652000Y-77400329D01*
X112655638Y-77410325D01*
X112659875Y-77412771D01*
X112704603Y-77409330D01*
X112711701Y-77408078D01*
X112903062Y-77354649D01*
X112909770Y-77352047D01*
X113087107Y-77262468D01*
X113093195Y-77258604D01*
X113249751Y-77136289D01*
X113254970Y-77131319D01*
X113384791Y-76980920D01*
X113388939Y-76975040D01*
X113487078Y-76802283D01*
X113490006Y-76795708D01*
X113552719Y-76607189D01*
X113554316Y-76600155D01*
X113565713Y-76509946D01*
X113563356Y-76499573D01*
X113559966Y-76497000D01*
X112665048Y-76497000D01*
X112655052Y-76500638D01*
X112652000Y-76505925D01*
X112652000Y-77400329D01*
X112398000Y-77400329D01*
X112398000Y-76510048D01*
X112394362Y-76500052D01*
X112389075Y-76497000D01*
X111494971Y-76497000D01*
X111484975Y-76500638D01*
X111482577Y-76504792D01*
X110200500Y-76504792D01*
X110200500Y-76230034D01*
X111484069Y-76230034D01*
X111486571Y-76240372D01*
X111490136Y-76243000D01*
X112384952Y-76243000D01*
X112394948Y-76239362D01*
X112398000Y-76234075D01*
X112398000Y-76229952D01*
X112652000Y-76229952D01*
X112655638Y-76239948D01*
X112660925Y-76243000D01*
X113554580Y-76243000D01*
X113564576Y-76239362D01*
X113566880Y-76235371D01*
X113560340Y-76168669D01*
X113558941Y-76161602D01*
X113501516Y-75971403D01*
X113498772Y-75964745D01*
X113405498Y-75789322D01*
X113401512Y-75783323D01*
X113275942Y-75629358D01*
X113270866Y-75624247D01*
X113117789Y-75497610D01*
X113111804Y-75493573D01*
X112937043Y-75399081D01*
X112930405Y-75396290D01*
X112740612Y-75337540D01*
X112733552Y-75336091D01*
X112664977Y-75328883D01*
X112654657Y-75331456D01*
X112652000Y-75335113D01*
X112652000Y-76229952D01*
X112398000Y-76229952D01*
X112398000Y-75340221D01*
X112394362Y-75330225D01*
X112390290Y-75327875D01*
X112330912Y-75333278D01*
X112323818Y-75334631D01*
X112133231Y-75390724D01*
X112126555Y-75393422D01*
X111950483Y-75485469D01*
X111944456Y-75489413D01*
X111789619Y-75613906D01*
X111784471Y-75618947D01*
X111656765Y-75771140D01*
X111652696Y-75777083D01*
X111556980Y-75951191D01*
X111554144Y-75957808D01*
X111494071Y-76147181D01*
X111492571Y-76154237D01*
X111484069Y-76230034D01*
X110200500Y-76230034D01*
X110200500Y-74070123D01*
X110217813Y-74022557D01*
X110222174Y-74017797D01*
X111986023Y-72253948D01*
X112031899Y-72232556D01*
X112074451Y-72241678D01*
X112099239Y-72255532D01*
X112099243Y-72255534D01*
X112102398Y-72257297D01*
X112105834Y-72258414D01*
X112105840Y-72258416D01*
X112194799Y-72287320D01*
X112298329Y-72320959D01*
X112357773Y-72328047D01*
X112499294Y-72344922D01*
X112499297Y-72344922D01*
X112502894Y-72345351D01*
X112571714Y-72340056D01*
X112704689Y-72329824D01*
X112704691Y-72329824D01*
X112708300Y-72329546D01*
X112896854Y-72276901D01*
X112903244Y-72275117D01*
X112903245Y-72275117D01*
X112906725Y-72274145D01*
X112924960Y-72264934D01*
X113087376Y-72182892D01*
X113087379Y-72182890D01*
X113090610Y-72181258D01*
X113252951Y-72054424D01*
X113313485Y-71984294D01*
X113385201Y-71901210D01*
X113385203Y-71901208D01*
X113387564Y-71898472D01*
X113389347Y-71895333D01*
X113389350Y-71895329D01*
X113448211Y-71791714D01*
X113489323Y-71719344D01*
X113515338Y-71641141D01*
X113546781Y-71601472D01*
X113585555Y-71590500D01*
X114384877Y-71590500D01*
X114432443Y-71607813D01*
X114437203Y-71612174D01*
X116228203Y-73403174D01*
X116249595Y-73449050D01*
X116236494Y-73497945D01*
X116195030Y-73526979D01*
X116175877Y-73529500D01*
X113586614Y-73529500D01*
X113539048Y-73512187D01*
X113515773Y-73476889D01*
X113501983Y-73431217D01*
X113501980Y-73431209D01*
X113500935Y-73427749D01*
X113434855Y-73303469D01*
X113405917Y-73249044D01*
X113405916Y-73249042D01*
X113404218Y-73245849D01*
X113274011Y-73086200D01*
X113149020Y-72982798D01*
X113118070Y-72957194D01*
X113118069Y-72957193D01*
X113115275Y-72954882D01*
X113106104Y-72949923D01*
X112937238Y-72858618D01*
X112934055Y-72856897D01*
X112930605Y-72855829D01*
X112930600Y-72855827D01*
X112792224Y-72812993D01*
X112737254Y-72795977D01*
X112532369Y-72774443D01*
X112528765Y-72774771D01*
X112528764Y-72774771D01*
X112477569Y-72779430D01*
X112327203Y-72793114D01*
X112278247Y-72807522D01*
X112133043Y-72850258D01*
X112133039Y-72850260D01*
X112129572Y-72851280D01*
X112041363Y-72897395D01*
X111950209Y-72945049D01*
X111950206Y-72945051D01*
X111947002Y-72946726D01*
X111944184Y-72948992D01*
X111944182Y-72948993D01*
X111789266Y-73073548D01*
X111789263Y-73073551D01*
X111786447Y-73075815D01*
X111784121Y-73078587D01*
X111784119Y-73078589D01*
X111656351Y-73230856D01*
X111656348Y-73230860D01*
X111654024Y-73233630D01*
X111554776Y-73414162D01*
X111553682Y-73417611D01*
X111497927Y-73593374D01*
X111492484Y-73610532D01*
X111469520Y-73815262D01*
X111469823Y-73818871D01*
X111469823Y-73818873D01*
X111482294Y-73967384D01*
X111486759Y-74020553D01*
X111543544Y-74218586D01*
X111545196Y-74221800D01*
X111545197Y-74221803D01*
X111636057Y-74398598D01*
X111637712Y-74401818D01*
X111765677Y-74563270D01*
X111768430Y-74565613D01*
X111768433Y-74565616D01*
X111811772Y-74602500D01*
X111922564Y-74696791D01*
X111969266Y-74722892D01*
X112099239Y-74795532D01*
X112099243Y-74795534D01*
X112102398Y-74797297D01*
X112105834Y-74798414D01*
X112105840Y-74798416D01*
X112224526Y-74836979D01*
X112298329Y-74860959D01*
X112362176Y-74868572D01*
X112499294Y-74884922D01*
X112499297Y-74884922D01*
X112502894Y-74885351D01*
X112571714Y-74880056D01*
X112704689Y-74869824D01*
X112704691Y-74869824D01*
X112708300Y-74869546D01*
X112906725Y-74814145D01*
X112933777Y-74800480D01*
X113087376Y-74722892D01*
X113087379Y-74722890D01*
X113090610Y-74721258D01*
X113252951Y-74594424D01*
X113303946Y-74535345D01*
X113385201Y-74441210D01*
X113385203Y-74441208D01*
X113387564Y-74438472D01*
X113389347Y-74435333D01*
X113389350Y-74435329D01*
X113458661Y-74313318D01*
X113489323Y-74259344D01*
X113515338Y-74181141D01*
X113546781Y-74141472D01*
X113585555Y-74130500D01*
X116359883Y-74130500D01*
X116407449Y-74147813D01*
X116412209Y-74152174D01*
X118677826Y-76417792D01*
X118699218Y-76463668D01*
X118699500Y-76470118D01*
X118699500Y-78606369D01*
X118682187Y-78653935D01*
X118659095Y-78672303D01*
X118566850Y-78719304D01*
X118566848Y-78719306D01*
X118561658Y-78721950D01*
X118484348Y-78799260D01*
X118438472Y-78820652D01*
X118389577Y-78807551D01*
X118379742Y-78799305D01*
X118300105Y-78719806D01*
X118290283Y-78712801D01*
X118188774Y-78663182D01*
X118177930Y-78659831D01*
X118113195Y-78650387D01*
X118107861Y-78650000D01*
X118040048Y-78650000D01*
X118030052Y-78653638D01*
X118027000Y-78658925D01*
X118027000Y-80836952D01*
X118030638Y-80846948D01*
X118035925Y-80850000D01*
X118107843Y-80850000D01*
X118113212Y-80849607D01*
X118178564Y-80839987D01*
X118189408Y-80836618D01*
X118290826Y-80786824D01*
X118300638Y-80779799D01*
X118379582Y-80700717D01*
X118425439Y-80679284D01*
X118474345Y-80692343D01*
X118484279Y-80700671D01*
X118561658Y-80778050D01*
X118566848Y-80780694D01*
X118566850Y-80780696D01*
X118669502Y-80833000D01*
X118669505Y-80833001D01*
X118674696Y-80835646D01*
X118680448Y-80836557D01*
X118680451Y-80836558D01*
X118765324Y-80850000D01*
X118768481Y-80850500D01*
X119000000Y-80850500D01*
X119231518Y-80850499D01*
X119234390Y-80850044D01*
X119234392Y-80850044D01*
X119266090Y-80845024D01*
X119325304Y-80835646D01*
X119383662Y-80805911D01*
X119433150Y-80780696D01*
X119433152Y-80780694D01*
X119438342Y-80778050D01*
X119497674Y-80718718D01*
X119543550Y-80697326D01*
X119592445Y-80710427D01*
X119602326Y-80718718D01*
X119661658Y-80778050D01*
X119666848Y-80780694D01*
X119666850Y-80780696D01*
X119769502Y-80833000D01*
X119769505Y-80833001D01*
X119774696Y-80835646D01*
X119780448Y-80836557D01*
X119780451Y-80836558D01*
X119865324Y-80850000D01*
X119868481Y-80850500D01*
X120100000Y-80850500D01*
X120331518Y-80850499D01*
X120334390Y-80850044D01*
X120334392Y-80850044D01*
X120366090Y-80845024D01*
X120425304Y-80835646D01*
X120483662Y-80805911D01*
X120533150Y-80780696D01*
X120533152Y-80780694D01*
X120538342Y-80778050D01*
X120597674Y-80718718D01*
X120643550Y-80697326D01*
X120692445Y-80710427D01*
X120702326Y-80718718D01*
X120761658Y-80778050D01*
X120766848Y-80780694D01*
X120766850Y-80780696D01*
X120869502Y-80833000D01*
X120869505Y-80833001D01*
X120874696Y-80835646D01*
X120880448Y-80836557D01*
X120880451Y-80836558D01*
X120965324Y-80850000D01*
X120968481Y-80850500D01*
X121200000Y-80850500D01*
X121431518Y-80850499D01*
X121434390Y-80850044D01*
X121434392Y-80850044D01*
X121466090Y-80845024D01*
X121525304Y-80835646D01*
X121583662Y-80805911D01*
X121633150Y-80780696D01*
X121633152Y-80780694D01*
X121638342Y-80778050D01*
X121697674Y-80718718D01*
X121743550Y-80697326D01*
X121792445Y-80710427D01*
X121802326Y-80718718D01*
X121861658Y-80778050D01*
X121902039Y-80798626D01*
X121936561Y-80835645D01*
X121939209Y-80886195D01*
X121921046Y-80913841D01*
X121922280Y-80914930D01*
X121832301Y-81016813D01*
X121827377Y-81022388D01*
X121766447Y-81152163D01*
X121765637Y-81157368D01*
X121765636Y-81157370D01*
X121759695Y-81195528D01*
X121744391Y-81293823D01*
X121745074Y-81299046D01*
X121745074Y-81299049D01*
X121747183Y-81315177D01*
X121762980Y-81435979D01*
X121820720Y-81567203D01*
X121824112Y-81571238D01*
X121912970Y-81676948D01*
X121911289Y-81678361D01*
X121931174Y-81715447D01*
X121920821Y-81764996D01*
X121881041Y-81796298D01*
X121857930Y-81800000D01*
X51031124Y-81800000D01*
X51014540Y-81798118D01*
X51014231Y-81798047D01*
X51000359Y-81794857D01*
X50992230Y-81796697D01*
X50983898Y-81796682D01*
X50983898Y-81796582D01*
X50972505Y-81797292D01*
X50937322Y-81793827D01*
X50851181Y-81785342D01*
X50836954Y-81782512D01*
X50750841Y-81756390D01*
X50700822Y-81741217D01*
X50687430Y-81735669D01*
X50561969Y-81668609D01*
X50549913Y-81660553D01*
X50536730Y-81649734D01*
X50439947Y-81570307D01*
X50429691Y-81560051D01*
X50426491Y-81556151D01*
X50339447Y-81450087D01*
X50331391Y-81438031D01*
X50264331Y-81312570D01*
X50258782Y-81299175D01*
X50258175Y-81297172D01*
X50239725Y-81236353D01*
X50217488Y-81163046D01*
X50214658Y-81148819D01*
X50203828Y-81038867D01*
X50202753Y-81027951D01*
X50203466Y-81016813D01*
X50203261Y-81016813D01*
X50203276Y-81008478D01*
X50205143Y-81000357D01*
X50201825Y-80985693D01*
X50200000Y-80969362D01*
X50200000Y-80866058D01*
X55950000Y-80866058D01*
X55950710Y-80873268D01*
X55960182Y-80920890D01*
X55965652Y-80934094D01*
X56001759Y-80988132D01*
X56011868Y-80998241D01*
X56065906Y-81034348D01*
X56079110Y-81039818D01*
X56126732Y-81049290D01*
X56133942Y-81050000D01*
X56859952Y-81050000D01*
X56869948Y-81046362D01*
X56873000Y-81041075D01*
X56873000Y-81036952D01*
X57127000Y-81036952D01*
X57130638Y-81046948D01*
X57135925Y-81050000D01*
X57866058Y-81050000D01*
X57873268Y-81049290D01*
X57920890Y-81039818D01*
X57934094Y-81034348D01*
X57988132Y-80998241D01*
X57998241Y-80988132D01*
X58034348Y-80934094D01*
X58039818Y-80920890D01*
X58049290Y-80873268D01*
X58050000Y-80866058D01*
X58050000Y-80140048D01*
X58046362Y-80130052D01*
X58041075Y-80127000D01*
X57140048Y-80127000D01*
X57130052Y-80130638D01*
X57127000Y-80135925D01*
X57127000Y-81036952D01*
X56873000Y-81036952D01*
X56873000Y-80140048D01*
X56869362Y-80130052D01*
X56864075Y-80127000D01*
X55963048Y-80127000D01*
X55953052Y-80130638D01*
X55950000Y-80135925D01*
X55950000Y-80866058D01*
X50200000Y-80866058D01*
X50200000Y-79859952D01*
X55950000Y-79859952D01*
X55953638Y-79869948D01*
X55958925Y-79873000D01*
X56859952Y-79873000D01*
X56869948Y-79869362D01*
X56873000Y-79864075D01*
X56873000Y-79859952D01*
X57127000Y-79859952D01*
X57130638Y-79869948D01*
X57135925Y-79873000D01*
X58036952Y-79873000D01*
X58046948Y-79869362D01*
X58050000Y-79864075D01*
X58050000Y-79133942D01*
X58049290Y-79126732D01*
X58039818Y-79079110D01*
X58034348Y-79065906D01*
X57998241Y-79011868D01*
X57988132Y-79001759D01*
X57934094Y-78965652D01*
X57920890Y-78960182D01*
X57873268Y-78950710D01*
X57866058Y-78950000D01*
X57140048Y-78950000D01*
X57130052Y-78953638D01*
X57127000Y-78958925D01*
X57127000Y-79859952D01*
X56873000Y-79859952D01*
X56873000Y-78963048D01*
X56869362Y-78953052D01*
X56864075Y-78950000D01*
X56133942Y-78950000D01*
X56126732Y-78950710D01*
X56079110Y-78960182D01*
X56065906Y-78965652D01*
X56011868Y-79001759D01*
X56001759Y-79011868D01*
X55965652Y-79065906D01*
X55960182Y-79079110D01*
X55950710Y-79126732D01*
X55950000Y-79133942D01*
X55950000Y-79859952D01*
X50200000Y-79859952D01*
X50200000Y-72693823D01*
X56744391Y-72693823D01*
X56745074Y-72699046D01*
X56745074Y-72699049D01*
X56745573Y-72702862D01*
X56762980Y-72835979D01*
X56820720Y-72967203D01*
X56829804Y-72978010D01*
X56909580Y-73072916D01*
X56909583Y-73072919D01*
X56912970Y-73076948D01*
X56925269Y-73085135D01*
X57027924Y-73153469D01*
X57027927Y-73153470D01*
X57032313Y-73156390D01*
X57169157Y-73199142D01*
X57174425Y-73199239D01*
X57174428Y-73199239D01*
X57234733Y-73200344D01*
X57312499Y-73201770D01*
X57317582Y-73200384D01*
X57317584Y-73200384D01*
X57445727Y-73165448D01*
X57445729Y-73165447D01*
X57450817Y-73164060D01*
X57572991Y-73089045D01*
X57669200Y-72982754D01*
X57731710Y-72853733D01*
X57755496Y-72712354D01*
X57755647Y-72700000D01*
X57750788Y-72666072D01*
X57761183Y-72616533D01*
X57771715Y-72603256D01*
X59302797Y-71072174D01*
X59348673Y-71050782D01*
X59355123Y-71050500D01*
X59570877Y-71050500D01*
X59618443Y-71067813D01*
X59643753Y-71111650D01*
X59634963Y-71161500D01*
X59623203Y-71176826D01*
X58626099Y-72173930D01*
X58621946Y-72177515D01*
X58617731Y-72179575D01*
X58598789Y-72199995D01*
X58583774Y-72216181D01*
X58581848Y-72218181D01*
X58567752Y-72232277D01*
X58565824Y-72235088D01*
X58563647Y-72237707D01*
X58563515Y-72237597D01*
X58560961Y-72240773D01*
X58548740Y-72253948D01*
X58541599Y-72261646D01*
X58539069Y-72267988D01*
X58539065Y-72267994D01*
X58536301Y-72274923D01*
X58528593Y-72289359D01*
X58525418Y-72293988D01*
X58520508Y-72301146D01*
X58518171Y-72310992D01*
X58490345Y-72353274D01*
X58485659Y-72356488D01*
X58476740Y-72362115D01*
X58476736Y-72362119D01*
X58472280Y-72364930D01*
X58437839Y-72403927D01*
X58383964Y-72464930D01*
X58377377Y-72472388D01*
X58316447Y-72602163D01*
X58315637Y-72607368D01*
X58315636Y-72607370D01*
X58310707Y-72639031D01*
X58294391Y-72743823D01*
X58295074Y-72749046D01*
X58295074Y-72749049D01*
X58300970Y-72794136D01*
X58312980Y-72885979D01*
X58370720Y-73017203D01*
X58390406Y-73040622D01*
X58459580Y-73122916D01*
X58459583Y-73122919D01*
X58462970Y-73126948D01*
X58467357Y-73129868D01*
X58577924Y-73203469D01*
X58577927Y-73203470D01*
X58582313Y-73206390D01*
X58719157Y-73249142D01*
X58724425Y-73249239D01*
X58724428Y-73249239D01*
X58784733Y-73250344D01*
X58862499Y-73251770D01*
X58867582Y-73250384D01*
X58867584Y-73250384D01*
X58995727Y-73215448D01*
X58995729Y-73215447D01*
X59000817Y-73214060D01*
X59079092Y-73165999D01*
X59118498Y-73141804D01*
X59118499Y-73141803D01*
X59122991Y-73139045D01*
X59219200Y-73032754D01*
X59281710Y-72903733D01*
X59305496Y-72762354D01*
X59305647Y-72750000D01*
X59298350Y-72699049D01*
X59286070Y-72613297D01*
X59286070Y-72613296D01*
X59285323Y-72608082D01*
X59230463Y-72487423D01*
X59226536Y-72436958D01*
X59245501Y-72404470D01*
X59848174Y-71801797D01*
X59894050Y-71780405D01*
X59942945Y-71793506D01*
X59971979Y-71834970D01*
X59974500Y-71854123D01*
X59974500Y-71919748D01*
X59986133Y-71978231D01*
X59990184Y-71984293D01*
X59990184Y-71984294D01*
X60019622Y-72028350D01*
X60030448Y-72044552D01*
X60096769Y-72088867D01*
X60141295Y-72097724D01*
X60151682Y-72099790D01*
X60151683Y-72099790D01*
X60155252Y-72100500D01*
X60345877Y-72100500D01*
X60393443Y-72117813D01*
X60418753Y-72161650D01*
X60409963Y-72211500D01*
X60398203Y-72226826D01*
X60296982Y-72328047D01*
X60251106Y-72349439D01*
X60244204Y-72349720D01*
X60136646Y-72349063D01*
X60136645Y-72349063D01*
X60131376Y-72349031D01*
X59993529Y-72388428D01*
X59872280Y-72464930D01*
X59818966Y-72525297D01*
X59782838Y-72566205D01*
X59777377Y-72572388D01*
X59716447Y-72702163D01*
X59715637Y-72707368D01*
X59715636Y-72707370D01*
X59715306Y-72709491D01*
X59694391Y-72843823D01*
X59695074Y-72849046D01*
X59695074Y-72849049D01*
X59700845Y-72893181D01*
X59712980Y-72985979D01*
X59770720Y-73117203D01*
X59774112Y-73121238D01*
X59859580Y-73222916D01*
X59859583Y-73222919D01*
X59862970Y-73226948D01*
X59881143Y-73239045D01*
X59977924Y-73303469D01*
X59977927Y-73303470D01*
X59982313Y-73306390D01*
X60119157Y-73349142D01*
X60124425Y-73349239D01*
X60124428Y-73349239D01*
X60184733Y-73350344D01*
X60262499Y-73351770D01*
X60267582Y-73350384D01*
X60267584Y-73350384D01*
X60395727Y-73315448D01*
X60395729Y-73315447D01*
X60400817Y-73314060D01*
X60461904Y-73276552D01*
X60518498Y-73241804D01*
X60518499Y-73241803D01*
X60522991Y-73239045D01*
X60619200Y-73132754D01*
X60681710Y-73003733D01*
X60705496Y-72862354D01*
X60705647Y-72850000D01*
X60700788Y-72816072D01*
X60711183Y-72766533D01*
X60721715Y-72753256D01*
X60973901Y-72501070D01*
X60978054Y-72497485D01*
X60982269Y-72495425D01*
X61016227Y-72458818D01*
X61018152Y-72456819D01*
X61032248Y-72442723D01*
X61034176Y-72439912D01*
X61036353Y-72437293D01*
X61036485Y-72437403D01*
X61039039Y-72434227D01*
X61053754Y-72418364D01*
X61053755Y-72418363D01*
X61058401Y-72413354D01*
X61060931Y-72407012D01*
X61060935Y-72407006D01*
X61063699Y-72400077D01*
X61071407Y-72385641D01*
X61075624Y-72379493D01*
X61075625Y-72379492D01*
X61079492Y-72373854D01*
X61086064Y-72346160D01*
X61089332Y-72335824D01*
X61095091Y-72321388D01*
X61099883Y-72309378D01*
X61100500Y-72303085D01*
X61100500Y-72293988D01*
X61102500Y-72276901D01*
X61103762Y-72271585D01*
X61103762Y-72271583D01*
X61105340Y-72264934D01*
X61101176Y-72234337D01*
X61100500Y-72224358D01*
X61100500Y-72174500D01*
X61117813Y-72126934D01*
X61161650Y-72101624D01*
X61174500Y-72100500D01*
X61373013Y-72100500D01*
X61420579Y-72117813D01*
X61445889Y-72161650D01*
X61441379Y-72202820D01*
X61440182Y-72205709D01*
X61436133Y-72211769D01*
X61434712Y-72218914D01*
X61434711Y-72218916D01*
X61427782Y-72253752D01*
X61424500Y-72270252D01*
X61424500Y-74309748D01*
X61436133Y-74368231D01*
X61480448Y-74434552D01*
X61546769Y-74478867D01*
X61585952Y-74486661D01*
X61601682Y-74489790D01*
X61601683Y-74489790D01*
X61605252Y-74490500D01*
X64644748Y-74490500D01*
X64648317Y-74489790D01*
X64648318Y-74489790D01*
X64664048Y-74486661D01*
X64703231Y-74478867D01*
X64769552Y-74434552D01*
X64813867Y-74368231D01*
X64825500Y-74309748D01*
X64825500Y-72270252D01*
X64813867Y-72211769D01*
X64807888Y-72202820D01*
X64773602Y-72151509D01*
X64769552Y-72145448D01*
X64763491Y-72141398D01*
X64709294Y-72105184D01*
X64709293Y-72105184D01*
X64703231Y-72101133D01*
X64648715Y-72090289D01*
X64648318Y-72090210D01*
X64648317Y-72090210D01*
X64644748Y-72089500D01*
X61676987Y-72089500D01*
X61629421Y-72072187D01*
X61604111Y-72028350D01*
X61608621Y-71987180D01*
X61609818Y-71984291D01*
X61613867Y-71978231D01*
X61615290Y-71971080D01*
X61624790Y-71923318D01*
X61624790Y-71923317D01*
X61625500Y-71919748D01*
X61625500Y-71624500D01*
X61642813Y-71576934D01*
X61686650Y-71551624D01*
X61699500Y-71550500D01*
X64247212Y-71550500D01*
X64294778Y-71567813D01*
X64303856Y-71576882D01*
X64387970Y-71676948D01*
X64392357Y-71679868D01*
X64502924Y-71753469D01*
X64502927Y-71753470D01*
X64507313Y-71756390D01*
X64644157Y-71799142D01*
X64649425Y-71799239D01*
X64649428Y-71799239D01*
X64709733Y-71800344D01*
X64787499Y-71801770D01*
X64792582Y-71800384D01*
X64792584Y-71800384D01*
X64920727Y-71765448D01*
X64920729Y-71765447D01*
X64925817Y-71764060D01*
X65047991Y-71689045D01*
X65144200Y-71582754D01*
X65206710Y-71453733D01*
X65230496Y-71312354D01*
X65230647Y-71300000D01*
X65228433Y-71284541D01*
X65211070Y-71163297D01*
X65211070Y-71163296D01*
X65210323Y-71158082D01*
X65150984Y-71027572D01*
X65057400Y-70918963D01*
X65052981Y-70916099D01*
X65052979Y-70916097D01*
X65007910Y-70886885D01*
X64937095Y-70840985D01*
X64815639Y-70804662D01*
X64804792Y-70801418D01*
X64804791Y-70801418D01*
X64799739Y-70799907D01*
X64726103Y-70799457D01*
X64661646Y-70799063D01*
X64661645Y-70799063D01*
X64656376Y-70799031D01*
X64518529Y-70838428D01*
X64397280Y-70914930D01*
X64393793Y-70918878D01*
X64393791Y-70918880D01*
X64388840Y-70924486D01*
X64344375Y-70948678D01*
X64333375Y-70949500D01*
X61699500Y-70949500D01*
X61651934Y-70932187D01*
X61626624Y-70888350D01*
X61625500Y-70875500D01*
X61625500Y-70624500D01*
X61642813Y-70576934D01*
X61686650Y-70551624D01*
X61699500Y-70550500D01*
X65307084Y-70550500D01*
X65354650Y-70567813D01*
X65374817Y-70594697D01*
X65387931Y-70624500D01*
X65395720Y-70642203D01*
X65399112Y-70646238D01*
X65484580Y-70747916D01*
X65484583Y-70747919D01*
X65487970Y-70751948D01*
X65518355Y-70772174D01*
X65602924Y-70828469D01*
X65602927Y-70828470D01*
X65607313Y-70831390D01*
X65744157Y-70874142D01*
X65749425Y-70874239D01*
X65749428Y-70874239D01*
X65809733Y-70875344D01*
X65887499Y-70876770D01*
X65892582Y-70875384D01*
X65892584Y-70875384D01*
X66020727Y-70840448D01*
X66020729Y-70840447D01*
X66025817Y-70839060D01*
X66102781Y-70791804D01*
X66143498Y-70766804D01*
X66143499Y-70766803D01*
X66147991Y-70764045D01*
X66244200Y-70657754D01*
X66306710Y-70528733D01*
X66330496Y-70387354D01*
X66330647Y-70375000D01*
X66312999Y-70251770D01*
X66311070Y-70238297D01*
X66311070Y-70238296D01*
X66310323Y-70233082D01*
X66265373Y-70134218D01*
X66253166Y-70107371D01*
X66250984Y-70102572D01*
X66180902Y-70021238D01*
X66160840Y-69997955D01*
X66160839Y-69997954D01*
X66157400Y-69993963D01*
X66152981Y-69991099D01*
X66152979Y-69991097D01*
X66088802Y-69949500D01*
X66037095Y-69915985D01*
X65922009Y-69881567D01*
X65904792Y-69876418D01*
X65904791Y-69876418D01*
X65899739Y-69874907D01*
X65826103Y-69874457D01*
X65761646Y-69874063D01*
X65761645Y-69874063D01*
X65756376Y-69874031D01*
X65618529Y-69913428D01*
X65614069Y-69916242D01*
X65579451Y-69938084D01*
X65539964Y-69949500D01*
X61699500Y-69949500D01*
X61651934Y-69932187D01*
X61626624Y-69888350D01*
X61625500Y-69875500D01*
X61625500Y-69580252D01*
X61613867Y-69521769D01*
X61614747Y-69521594D01*
X61612916Y-69479654D01*
X61613867Y-69478231D01*
X61615816Y-69468437D01*
X61624790Y-69423318D01*
X61624790Y-69423317D01*
X61625500Y-69419748D01*
X61625500Y-69080252D01*
X61624681Y-69076135D01*
X61615289Y-69028916D01*
X61615288Y-69028914D01*
X61613867Y-69021769D01*
X61614747Y-69021594D01*
X61612916Y-68979654D01*
X61613867Y-68978231D01*
X61616067Y-68967175D01*
X61624790Y-68923318D01*
X61624790Y-68923317D01*
X61625500Y-68919748D01*
X61625500Y-68580252D01*
X61613867Y-68521769D01*
X61614503Y-68521643D01*
X61612557Y-68477083D01*
X61614765Y-68471015D01*
X61614818Y-68470887D01*
X61624290Y-68423268D01*
X61625000Y-68416058D01*
X61625000Y-68390048D01*
X61621362Y-68380052D01*
X61616075Y-68377000D01*
X60747000Y-68377000D01*
X60699434Y-68359687D01*
X60674124Y-68315850D01*
X60673000Y-68303000D01*
X60673000Y-68197000D01*
X60690313Y-68149434D01*
X60734150Y-68124124D01*
X60747000Y-68123000D01*
X61611952Y-68123000D01*
X61621948Y-68119362D01*
X61633791Y-68098849D01*
X61634038Y-68098992D01*
X61646543Y-68072174D01*
X61692419Y-68050782D01*
X61698869Y-68050500D01*
X61854956Y-68050500D01*
X61882225Y-68056670D01*
X61882313Y-68056390D01*
X61887343Y-68057961D01*
X61887344Y-68057962D01*
X61932836Y-68072174D01*
X62019157Y-68099142D01*
X62024425Y-68099239D01*
X62024428Y-68099239D01*
X62084733Y-68100344D01*
X62162499Y-68101770D01*
X62167582Y-68100384D01*
X62167584Y-68100384D01*
X62295727Y-68065448D01*
X62295729Y-68065447D01*
X62300817Y-68064060D01*
X62367825Y-68022917D01*
X62418498Y-67991804D01*
X62418499Y-67991803D01*
X62422991Y-67989045D01*
X62519200Y-67882754D01*
X62581710Y-67753733D01*
X62605496Y-67612354D01*
X62605647Y-67600000D01*
X62595467Y-67528916D01*
X62586070Y-67463297D01*
X62586070Y-67463296D01*
X62585323Y-67458082D01*
X62525984Y-67327572D01*
X62432400Y-67218963D01*
X62382466Y-67186597D01*
X62351967Y-67146197D01*
X62354573Y-67095645D01*
X62389063Y-67058595D01*
X62422715Y-67050500D01*
X64561176Y-67050500D01*
X64608742Y-67067813D01*
X64613502Y-67072174D01*
X67164645Y-69623318D01*
X69715232Y-72173905D01*
X69718814Y-72178054D01*
X69720874Y-72182269D01*
X69757466Y-72216213D01*
X69759466Y-72218139D01*
X69773575Y-72232248D01*
X69776383Y-72234174D01*
X69779009Y-72236356D01*
X69778893Y-72236495D01*
X69782075Y-72239042D01*
X69797933Y-72253752D01*
X69802945Y-72258401D01*
X69816222Y-72263698D01*
X69830658Y-72271406D01*
X69836068Y-72275117D01*
X69842445Y-72279492D01*
X69849095Y-72281070D01*
X69849097Y-72281071D01*
X69870139Y-72286064D01*
X69880475Y-72289332D01*
X69906921Y-72299883D01*
X69913214Y-72300500D01*
X69922311Y-72300500D01*
X69939398Y-72302500D01*
X69944714Y-72303762D01*
X69944716Y-72303762D01*
X69951365Y-72305340D01*
X69979538Y-72301506D01*
X69981962Y-72301176D01*
X69991941Y-72300500D01*
X78766961Y-72300500D01*
X78814527Y-72317813D01*
X78839837Y-72361650D01*
X78831047Y-72411500D01*
X78806448Y-72437084D01*
X78737750Y-72480429D01*
X78719521Y-72501070D01*
X78685153Y-72539984D01*
X78640689Y-72564177D01*
X78629687Y-72564999D01*
X67434074Y-72564999D01*
X67428597Y-72564597D01*
X67424159Y-72563073D01*
X67417335Y-72563329D01*
X67417333Y-72563329D01*
X67374245Y-72564947D01*
X67371469Y-72564999D01*
X67351553Y-72564999D01*
X67348196Y-72565624D01*
X67344808Y-72565937D01*
X67344791Y-72565749D01*
X67340745Y-72566205D01*
X67312293Y-72567273D01*
X67306016Y-72569970D01*
X67306011Y-72569971D01*
X67299158Y-72572915D01*
X67283499Y-72577673D01*
X67276163Y-72579039D01*
X67276161Y-72579040D01*
X67269448Y-72580290D01*
X67248713Y-72593071D01*
X67245212Y-72595229D01*
X67235595Y-72600225D01*
X67209439Y-72611463D01*
X67204552Y-72615476D01*
X67198119Y-72621909D01*
X67184624Y-72632576D01*
X67179971Y-72635444D01*
X67179969Y-72635446D01*
X67174153Y-72639031D01*
X67170017Y-72644470D01*
X67155465Y-72663607D01*
X67148887Y-72671141D01*
X62009876Y-77810153D01*
X61964000Y-77831545D01*
X61947894Y-77831194D01*
X61830000Y-77815673D01*
X61825192Y-77816306D01*
X61679688Y-77835462D01*
X61679685Y-77835463D01*
X61674883Y-77836095D01*
X61530337Y-77895968D01*
X61526492Y-77898918D01*
X61526489Y-77898920D01*
X61420996Y-77979868D01*
X61406212Y-77991212D01*
X61403257Y-77995063D01*
X61313920Y-78111489D01*
X61313918Y-78111492D01*
X61310968Y-78115337D01*
X61251095Y-78259883D01*
X61250463Y-78264685D01*
X61250462Y-78264688D01*
X61233538Y-78393241D01*
X61230673Y-78415000D01*
X61239242Y-78480080D01*
X61239427Y-78481488D01*
X61228471Y-78530908D01*
X61188313Y-78561723D01*
X61137742Y-78559515D01*
X61111942Y-78541618D01*
X61111700Y-78541358D01*
X61109157Y-78537903D01*
X61104813Y-78534212D01*
X60979897Y-78428089D01*
X60976620Y-78425305D01*
X60821735Y-78346217D01*
X60652810Y-78304881D01*
X60641833Y-78304200D01*
X60516453Y-78304200D01*
X60514328Y-78304448D01*
X60514324Y-78304448D01*
X60391532Y-78318764D01*
X60391531Y-78318764D01*
X60387261Y-78319262D01*
X60383220Y-78320729D01*
X60383219Y-78320729D01*
X60227834Y-78377131D01*
X60227831Y-78377132D01*
X60223788Y-78378600D01*
X60078350Y-78473953D01*
X59958749Y-78600207D01*
X59956593Y-78603918D01*
X59956592Y-78603920D01*
X59920257Y-78666476D01*
X59871401Y-78750588D01*
X59820990Y-78917031D01*
X59820724Y-78921316D01*
X59820724Y-78921317D01*
X59810605Y-79084439D01*
X59810222Y-79090607D01*
X59822927Y-79164547D01*
X59837915Y-79251770D01*
X59839673Y-79262004D01*
X59841355Y-79265957D01*
X59903944Y-79413048D01*
X59907765Y-79422029D01*
X59923999Y-79444089D01*
X60004813Y-79553903D01*
X60010843Y-79562097D01*
X60014114Y-79564876D01*
X60014116Y-79564878D01*
X60078938Y-79619948D01*
X60143380Y-79674695D01*
X60298265Y-79753783D01*
X60467190Y-79795119D01*
X60478167Y-79795800D01*
X60603547Y-79795800D01*
X60605672Y-79795552D01*
X60605676Y-79795552D01*
X60728468Y-79781236D01*
X60728469Y-79781236D01*
X60732739Y-79780738D01*
X60736781Y-79779271D01*
X60892166Y-79722869D01*
X60892169Y-79722868D01*
X60896212Y-79721400D01*
X61041650Y-79626047D01*
X61113338Y-79550372D01*
X61158618Y-79527747D01*
X61207849Y-79539521D01*
X61237993Y-79580185D01*
X61240426Y-79610922D01*
X61230673Y-79685000D01*
X61231306Y-79689808D01*
X61247689Y-79814245D01*
X61251095Y-79840117D01*
X61310968Y-79984663D01*
X61313918Y-79988508D01*
X61313920Y-79988511D01*
X61371581Y-80063656D01*
X61406212Y-80108788D01*
X61420548Y-80119788D01*
X61447746Y-80162478D01*
X61449500Y-80178496D01*
X61449500Y-80387175D01*
X61432187Y-80434741D01*
X61420548Y-80445883D01*
X61334229Y-80512118D01*
X61321718Y-80521718D01*
X61318763Y-80525569D01*
X61228416Y-80643311D01*
X61228414Y-80643315D01*
X61225464Y-80647159D01*
X61164956Y-80793238D01*
X61164324Y-80798040D01*
X61164323Y-80798043D01*
X61150854Y-80900352D01*
X61144318Y-80950000D01*
X61144951Y-80954808D01*
X61163176Y-81093238D01*
X61164956Y-81106762D01*
X61225464Y-81252841D01*
X61228414Y-81256685D01*
X61228416Y-81256689D01*
X61273296Y-81315177D01*
X61321718Y-81378282D01*
X61325569Y-81381237D01*
X61443311Y-81471584D01*
X61443315Y-81471586D01*
X61447159Y-81474536D01*
X61593238Y-81535044D01*
X61598040Y-81535676D01*
X61598043Y-81535677D01*
X61745192Y-81555049D01*
X61750000Y-81555682D01*
X61754808Y-81555049D01*
X61901957Y-81535677D01*
X61901960Y-81535676D01*
X61906762Y-81535044D01*
X62052841Y-81474536D01*
X62056685Y-81471586D01*
X62056689Y-81471584D01*
X62174431Y-81381237D01*
X62178282Y-81378282D01*
X62226704Y-81315177D01*
X62271584Y-81256689D01*
X62271586Y-81256685D01*
X62274536Y-81252841D01*
X62335044Y-81106762D01*
X62336825Y-81093238D01*
X62355049Y-80954808D01*
X62355682Y-80950000D01*
X62349146Y-80900352D01*
X62335677Y-80798043D01*
X62335676Y-80798040D01*
X62335044Y-80793238D01*
X62274536Y-80647159D01*
X62271586Y-80643315D01*
X62271584Y-80643311D01*
X62181237Y-80525569D01*
X62178282Y-80521718D01*
X62165771Y-80512118D01*
X62079452Y-80445883D01*
X62052254Y-80403191D01*
X62050500Y-80387175D01*
X62050500Y-80286268D01*
X62067813Y-80238702D01*
X62096182Y-80217901D01*
X62125183Y-80205889D01*
X62125189Y-80205886D01*
X62129664Y-80204032D01*
X62253788Y-80108788D01*
X62288419Y-80063656D01*
X62346080Y-79988511D01*
X62346082Y-79988508D01*
X62349032Y-79984663D01*
X62396633Y-79869744D01*
X62430831Y-79832424D01*
X62481017Y-79825817D01*
X62523708Y-79853015D01*
X62533367Y-79869744D01*
X62580968Y-79984663D01*
X62583918Y-79988508D01*
X62583920Y-79988511D01*
X62641581Y-80063656D01*
X62676212Y-80108788D01*
X62800336Y-80204032D01*
X62944883Y-80263905D01*
X63019805Y-80273769D01*
X63028289Y-80274886D01*
X63070956Y-80295927D01*
X63948930Y-81173901D01*
X63952515Y-81178054D01*
X63954575Y-81182269D01*
X63991181Y-81216226D01*
X63993181Y-81218152D01*
X64007277Y-81232248D01*
X64010088Y-81234176D01*
X64012707Y-81236353D01*
X64012597Y-81236485D01*
X64015773Y-81239039D01*
X64029775Y-81252027D01*
X64036646Y-81258401D01*
X64042988Y-81260931D01*
X64042994Y-81260935D01*
X64049923Y-81263699D01*
X64064359Y-81271407D01*
X64070507Y-81275624D01*
X64076146Y-81279492D01*
X64082796Y-81281070D01*
X64082798Y-81281071D01*
X64103840Y-81286064D01*
X64114176Y-81289332D01*
X64140622Y-81299883D01*
X64146915Y-81300500D01*
X64156012Y-81300500D01*
X64173099Y-81302500D01*
X64178415Y-81303762D01*
X64178417Y-81303762D01*
X64185066Y-81305340D01*
X64215663Y-81301176D01*
X64225642Y-81300500D01*
X78325974Y-81300500D01*
X78366979Y-81312900D01*
X78427924Y-81353469D01*
X78427927Y-81353470D01*
X78432313Y-81356390D01*
X78569157Y-81399142D01*
X78574425Y-81399239D01*
X78574428Y-81399239D01*
X78634733Y-81400344D01*
X78712499Y-81401770D01*
X78717582Y-81400384D01*
X78717584Y-81400384D01*
X78845727Y-81365448D01*
X78845729Y-81365447D01*
X78850817Y-81364060D01*
X78935029Y-81312354D01*
X78968498Y-81291804D01*
X78968499Y-81291803D01*
X78972991Y-81289045D01*
X79021597Y-81235345D01*
X79031105Y-81224841D01*
X79075861Y-81201194D01*
X79085968Y-81200500D01*
X79395433Y-81200500D01*
X79400906Y-81200902D01*
X79405342Y-81202425D01*
X79412166Y-81202169D01*
X79412167Y-81202169D01*
X79455241Y-81200552D01*
X79458017Y-81200500D01*
X79477948Y-81200500D01*
X79481300Y-81199876D01*
X79484691Y-81199563D01*
X79484709Y-81199753D01*
X79488755Y-81199294D01*
X79517208Y-81198226D01*
X79523485Y-81195529D01*
X79523490Y-81195528D01*
X79530343Y-81192584D01*
X79546002Y-81187826D01*
X79553336Y-81186460D01*
X79560053Y-81185209D01*
X79565868Y-81181624D01*
X79565872Y-81181623D01*
X79584290Y-81170270D01*
X79593907Y-81165274D01*
X79615262Y-81156099D01*
X79615264Y-81156098D01*
X79620063Y-81154036D01*
X79624949Y-81150022D01*
X79631380Y-81143591D01*
X79644876Y-81132923D01*
X79649532Y-81130053D01*
X79655348Y-81126468D01*
X79673987Y-81101957D01*
X79674039Y-81101888D01*
X79680617Y-81094354D01*
X79905223Y-80869748D01*
X113949500Y-80869748D01*
X113961133Y-80928231D01*
X113965184Y-80934293D01*
X113965184Y-80934294D01*
X114001158Y-80988132D01*
X114005448Y-80994552D01*
X114011509Y-80998602D01*
X114027948Y-81009586D01*
X114071769Y-81038867D01*
X114109449Y-81046362D01*
X114126682Y-81049790D01*
X114126683Y-81049790D01*
X114130252Y-81050500D01*
X115869748Y-81050500D01*
X115873317Y-81049790D01*
X115873318Y-81049790D01*
X115890551Y-81046362D01*
X115928231Y-81038867D01*
X115972053Y-81009586D01*
X115988491Y-80998602D01*
X115994552Y-80994552D01*
X115998842Y-80988132D01*
X116034816Y-80934294D01*
X116034816Y-80934293D01*
X116038867Y-80928231D01*
X116050500Y-80869748D01*
X116050500Y-80507843D01*
X117350000Y-80507843D01*
X117350393Y-80513212D01*
X117360013Y-80578564D01*
X117363382Y-80589408D01*
X117413176Y-80690826D01*
X117420199Y-80700634D01*
X117499899Y-80780196D01*
X117509717Y-80787199D01*
X117611226Y-80836818D01*
X117622070Y-80840169D01*
X117686805Y-80849613D01*
X117692139Y-80850000D01*
X117759952Y-80850000D01*
X117769948Y-80846362D01*
X117773000Y-80841075D01*
X117773000Y-79890048D01*
X117769362Y-79880052D01*
X117764075Y-79877000D01*
X117363048Y-79877000D01*
X117353052Y-79880638D01*
X117350000Y-79885925D01*
X117350000Y-80507843D01*
X116050500Y-80507843D01*
X116050500Y-79609952D01*
X117350000Y-79609952D01*
X117353638Y-79619948D01*
X117358925Y-79623000D01*
X117759952Y-79623000D01*
X117769948Y-79619362D01*
X117773000Y-79614075D01*
X117773000Y-78663048D01*
X117769362Y-78653052D01*
X117764075Y-78650000D01*
X117692157Y-78650000D01*
X117686788Y-78650393D01*
X117621436Y-78660013D01*
X117610592Y-78663382D01*
X117509174Y-78713176D01*
X117499366Y-78720199D01*
X117419804Y-78799899D01*
X117412801Y-78809717D01*
X117363182Y-78911226D01*
X117359831Y-78922070D01*
X117350387Y-78986805D01*
X117350000Y-78992139D01*
X117350000Y-79609952D01*
X116050500Y-79609952D01*
X116050500Y-79130252D01*
X116049580Y-79125624D01*
X116046215Y-79108708D01*
X116038867Y-79071769D01*
X116013620Y-79033984D01*
X115998602Y-79011509D01*
X115994552Y-79005448D01*
X115974589Y-78992109D01*
X115934294Y-78965184D01*
X115934293Y-78965184D01*
X115928231Y-78961133D01*
X115883705Y-78952276D01*
X115873318Y-78950210D01*
X115873317Y-78950210D01*
X115869748Y-78949500D01*
X114130252Y-78949500D01*
X114126683Y-78950210D01*
X114126682Y-78950210D01*
X114116295Y-78952276D01*
X114071769Y-78961133D01*
X114065707Y-78965184D01*
X114065706Y-78965184D01*
X114025411Y-78992109D01*
X114005448Y-79005448D01*
X114001398Y-79011509D01*
X113986381Y-79033984D01*
X113961133Y-79071769D01*
X113953785Y-79108708D01*
X113950421Y-79125624D01*
X113949500Y-79130252D01*
X113949500Y-80869748D01*
X79905223Y-80869748D01*
X81703470Y-79071501D01*
X81749346Y-79050109D01*
X81757152Y-79049839D01*
X81812105Y-79050846D01*
X81862499Y-79051770D01*
X81867581Y-79050385D01*
X81867585Y-79050384D01*
X81995727Y-79015448D01*
X81995729Y-79015447D01*
X82000817Y-79014060D01*
X82079657Y-78965652D01*
X82118498Y-78941804D01*
X82118499Y-78941803D01*
X82122991Y-78939045D01*
X82219200Y-78832754D01*
X82281710Y-78703733D01*
X82305496Y-78562354D01*
X82305647Y-78550000D01*
X82299823Y-78509332D01*
X82286070Y-78413297D01*
X82286070Y-78413296D01*
X82285323Y-78408082D01*
X82278383Y-78392817D01*
X82228166Y-78282371D01*
X82225984Y-78277572D01*
X82132400Y-78168963D01*
X82127981Y-78166099D01*
X82127979Y-78166097D01*
X82088068Y-78140228D01*
X82012095Y-78090985D01*
X81886650Y-78053469D01*
X81879792Y-78051418D01*
X81879791Y-78051418D01*
X81874739Y-78049907D01*
X81801103Y-78049457D01*
X81736646Y-78049063D01*
X81736645Y-78049063D01*
X81731376Y-78049031D01*
X81593529Y-78088428D01*
X81589069Y-78091242D01*
X81574580Y-78100384D01*
X81472280Y-78164930D01*
X81465193Y-78172955D01*
X81396558Y-78250670D01*
X81377377Y-78272388D01*
X81316447Y-78402163D01*
X81294391Y-78543823D01*
X81295074Y-78549046D01*
X81295074Y-78549049D01*
X81299704Y-78584453D01*
X81288705Y-78633863D01*
X81278655Y-78646374D01*
X79347203Y-80577826D01*
X79301327Y-80599218D01*
X79294877Y-80599500D01*
X79085714Y-80599500D01*
X79038148Y-80582187D01*
X79029654Y-80573804D01*
X78985840Y-80522955D01*
X78985839Y-80522954D01*
X78982400Y-80518963D01*
X78977981Y-80516099D01*
X78977979Y-80516097D01*
X78932564Y-80486661D01*
X78862095Y-80440985D01*
X78735720Y-80403191D01*
X78729792Y-80401418D01*
X78729791Y-80401418D01*
X78724739Y-80399907D01*
X78651103Y-80399457D01*
X78586646Y-80399063D01*
X78586645Y-80399063D01*
X78581376Y-80399031D01*
X78443529Y-80438428D01*
X78322280Y-80514930D01*
X78227377Y-80622388D01*
X78225136Y-80627161D01*
X78211151Y-80656949D01*
X78175265Y-80692648D01*
X78144166Y-80699500D01*
X69432611Y-80699500D01*
X69385045Y-80682187D01*
X69359735Y-80638350D01*
X69368525Y-80588500D01*
X69373087Y-80581535D01*
X69399565Y-80545687D01*
X69404682Y-80536021D01*
X69445570Y-80419590D01*
X69447487Y-80410856D01*
X69449837Y-80385998D01*
X69450000Y-80382530D01*
X69450000Y-80227548D01*
X69446362Y-80217552D01*
X69441075Y-80214500D01*
X67663048Y-80214500D01*
X67653052Y-80218138D01*
X67650000Y-80223425D01*
X67650000Y-80382530D01*
X67650163Y-80385998D01*
X67652513Y-80410856D01*
X67654430Y-80419590D01*
X67695318Y-80536021D01*
X67700435Y-80545687D01*
X67726913Y-80581535D01*
X67741247Y-80630082D01*
X67721022Y-80676485D01*
X67675702Y-80699032D01*
X67667389Y-80699500D01*
X66239256Y-80699500D01*
X66191690Y-80682187D01*
X66166380Y-80638350D01*
X66175170Y-80588500D01*
X66185534Y-80574609D01*
X66238296Y-80518913D01*
X66238298Y-80518910D01*
X66241251Y-80515793D01*
X66245831Y-80507909D01*
X66326441Y-80369127D01*
X66328599Y-80365412D01*
X66379010Y-80198969D01*
X66383249Y-80130638D01*
X66389512Y-80029687D01*
X66389512Y-80029684D01*
X66389778Y-80025393D01*
X66376385Y-79947452D01*
X67650000Y-79947452D01*
X67653638Y-79957448D01*
X67658925Y-79960500D01*
X68409952Y-79960500D01*
X68419948Y-79956862D01*
X68423000Y-79951575D01*
X68423000Y-79947452D01*
X68677000Y-79947452D01*
X68680638Y-79957448D01*
X68685925Y-79960500D01*
X69436952Y-79960500D01*
X69446948Y-79956862D01*
X69450000Y-79951575D01*
X69450000Y-79792470D01*
X69449837Y-79789002D01*
X69447487Y-79764144D01*
X69445570Y-79755410D01*
X69404682Y-79638979D01*
X69399564Y-79629313D01*
X69326859Y-79530876D01*
X69319124Y-79523141D01*
X69220687Y-79450436D01*
X69211021Y-79445318D01*
X69094590Y-79404430D01*
X69085856Y-79402513D01*
X69060998Y-79400163D01*
X69057530Y-79400000D01*
X68690048Y-79400000D01*
X68680052Y-79403638D01*
X68677000Y-79408925D01*
X68677000Y-79947452D01*
X68423000Y-79947452D01*
X68423000Y-79413048D01*
X68419362Y-79403052D01*
X68414075Y-79400000D01*
X68042470Y-79400000D01*
X68039002Y-79400163D01*
X68014144Y-79402513D01*
X68005410Y-79404430D01*
X67888979Y-79445318D01*
X67879313Y-79450436D01*
X67780876Y-79523141D01*
X67773141Y-79530876D01*
X67700436Y-79629313D01*
X67695318Y-79638979D01*
X67654430Y-79755410D01*
X67652513Y-79764144D01*
X67650163Y-79789002D01*
X67650000Y-79792470D01*
X67650000Y-79947452D01*
X66376385Y-79947452D01*
X66370537Y-79913417D01*
X66361055Y-79858231D01*
X66361054Y-79858229D01*
X66360327Y-79853996D01*
X66351148Y-79832424D01*
X66293917Y-79697923D01*
X66293915Y-79697920D01*
X66292235Y-79693971D01*
X66242249Y-79626047D01*
X66191703Y-79557362D01*
X66191701Y-79557360D01*
X66189157Y-79553903D01*
X66180844Y-79546840D01*
X66059897Y-79444089D01*
X66056620Y-79441305D01*
X65901735Y-79362217D01*
X65732810Y-79320881D01*
X65721833Y-79320200D01*
X65596453Y-79320200D01*
X65594328Y-79320448D01*
X65594324Y-79320448D01*
X65471532Y-79334764D01*
X65471531Y-79334764D01*
X65467261Y-79335262D01*
X65463220Y-79336729D01*
X65463219Y-79336729D01*
X65307834Y-79393131D01*
X65307831Y-79393132D01*
X65303788Y-79394600D01*
X65158350Y-79489953D01*
X65076220Y-79576652D01*
X65030939Y-79599278D01*
X64981709Y-79587504D01*
X64951564Y-79546840D01*
X64949131Y-79535422D01*
X64949051Y-79534817D01*
X64946564Y-79525535D01*
X64890451Y-79390068D01*
X64885645Y-79381743D01*
X64879354Y-79373545D01*
X64870384Y-79367831D01*
X64866227Y-79368378D01*
X64558831Y-79675774D01*
X64554336Y-79685413D01*
X64555917Y-79691312D01*
X64871354Y-80006749D01*
X64892746Y-80052625D01*
X64892886Y-80063656D01*
X64890488Y-80102312D01*
X64890222Y-80106607D01*
X64890951Y-80110848D01*
X64917276Y-80264052D01*
X64919673Y-80278004D01*
X64921355Y-80281957D01*
X64982006Y-80424494D01*
X64987765Y-80438029D01*
X65090644Y-80577826D01*
X65090843Y-80578097D01*
X65090175Y-80578589D01*
X65108444Y-80621627D01*
X65093644Y-80670034D01*
X65051192Y-80697603D01*
X65034545Y-80699500D01*
X64355123Y-80699500D01*
X64307557Y-80682187D01*
X64302797Y-80677826D01*
X63811796Y-80186825D01*
X64052924Y-80186825D01*
X64054010Y-80190875D01*
X64066740Y-80200643D01*
X64075071Y-80205453D01*
X64210535Y-80261564D01*
X64219818Y-80264052D01*
X64365192Y-80283190D01*
X64374808Y-80283190D01*
X64520182Y-80264052D01*
X64529465Y-80261564D01*
X64664929Y-80205453D01*
X64673260Y-80200643D01*
X64681456Y-80194354D01*
X64687170Y-80185385D01*
X64686623Y-80181228D01*
X64379226Y-79873831D01*
X64369587Y-79869336D01*
X64363688Y-79870917D01*
X64057419Y-80177186D01*
X64052924Y-80186825D01*
X63811796Y-80186825D01*
X63651242Y-80026271D01*
X63629850Y-79980395D01*
X63635201Y-79945629D01*
X63666903Y-79869092D01*
X63701101Y-79831772D01*
X63751287Y-79825165D01*
X63793978Y-79852363D01*
X63803637Y-79869092D01*
X63849549Y-79979932D01*
X63854355Y-79988257D01*
X63860646Y-79996455D01*
X63869616Y-80002169D01*
X63873773Y-80001622D01*
X64181169Y-79694226D01*
X64185664Y-79684587D01*
X64184083Y-79678688D01*
X63877815Y-79372420D01*
X63868176Y-79367925D01*
X63864125Y-79369011D01*
X63854355Y-79381743D01*
X63849549Y-79390068D01*
X63803637Y-79500908D01*
X63769439Y-79538228D01*
X63719253Y-79544835D01*
X63676562Y-79517637D01*
X63666903Y-79500908D01*
X63658188Y-79479868D01*
X63619032Y-79385337D01*
X63616082Y-79381492D01*
X63616080Y-79381489D01*
X63526743Y-79265063D01*
X63523788Y-79261212D01*
X63399664Y-79165968D01*
X63284744Y-79118367D01*
X63247423Y-79084170D01*
X63240816Y-79033984D01*
X63268013Y-78991292D01*
X63284744Y-78981633D01*
X63323326Y-78965652D01*
X63399664Y-78934032D01*
X63523788Y-78838788D01*
X63537926Y-78820363D01*
X63616080Y-78718511D01*
X63616082Y-78718508D01*
X63619032Y-78714663D01*
X63666633Y-78599744D01*
X63700831Y-78562424D01*
X63751017Y-78555817D01*
X63793708Y-78583015D01*
X63803367Y-78599744D01*
X63850968Y-78714663D01*
X63853918Y-78718508D01*
X63853920Y-78718511D01*
X63932074Y-78820363D01*
X63946212Y-78838788D01*
X64070336Y-78934032D01*
X64185908Y-78981903D01*
X64223228Y-79016101D01*
X64229835Y-79066286D01*
X64202637Y-79108978D01*
X64185908Y-79118637D01*
X64075068Y-79164549D01*
X64066743Y-79169355D01*
X64058545Y-79175646D01*
X64052831Y-79184616D01*
X64053378Y-79188773D01*
X64360774Y-79496169D01*
X64370413Y-79500664D01*
X64376312Y-79499083D01*
X64682581Y-79192814D01*
X64687076Y-79183175D01*
X64685990Y-79179125D01*
X64673260Y-79169357D01*
X64664929Y-79164547D01*
X64554092Y-79118637D01*
X64516772Y-79084439D01*
X64510165Y-79034254D01*
X64537363Y-78991562D01*
X64554091Y-78981904D01*
X64669664Y-78934032D01*
X64793788Y-78838788D01*
X64807926Y-78820363D01*
X64886080Y-78718511D01*
X64886082Y-78718508D01*
X64889032Y-78714663D01*
X64948905Y-78570117D01*
X64949538Y-78565311D01*
X64950794Y-78560623D01*
X64952894Y-78561186D01*
X64972500Y-78523518D01*
X65019265Y-78504145D01*
X65067542Y-78519364D01*
X65082096Y-78534212D01*
X65088295Y-78542636D01*
X65088300Y-78542641D01*
X65090843Y-78546097D01*
X65094114Y-78548876D01*
X65094116Y-78548878D01*
X65199524Y-78638428D01*
X65223380Y-78658695D01*
X65378265Y-78737783D01*
X65547190Y-78779119D01*
X65558167Y-78779800D01*
X65683547Y-78779800D01*
X65685672Y-78779552D01*
X65685676Y-78779552D01*
X65808468Y-78765236D01*
X65808469Y-78765236D01*
X65812739Y-78764738D01*
X65819307Y-78762354D01*
X65972166Y-78706869D01*
X65972169Y-78706868D01*
X65976212Y-78705400D01*
X66121650Y-78610047D01*
X66241251Y-78483793D01*
X66244865Y-78477572D01*
X66319018Y-78349907D01*
X66328599Y-78333412D01*
X66379010Y-78166969D01*
X66383218Y-78099142D01*
X66389512Y-77997687D01*
X66389512Y-77997684D01*
X66389778Y-77993393D01*
X66376423Y-77915667D01*
X67649500Y-77915667D01*
X67649501Y-78509332D01*
X67652440Y-78540434D01*
X67653933Y-78544686D01*
X67653934Y-78544690D01*
X67686852Y-78638428D01*
X67696702Y-78666476D01*
X67776070Y-78773930D01*
X67883524Y-78853298D01*
X68009566Y-78897560D01*
X68014049Y-78897984D01*
X68014050Y-78897984D01*
X68038939Y-78900337D01*
X68038946Y-78900337D01*
X68040667Y-78900500D01*
X68549707Y-78900500D01*
X69059332Y-78900499D01*
X69090434Y-78897560D01*
X69094686Y-78896067D01*
X69094690Y-78896066D01*
X69211259Y-78855130D01*
X69216476Y-78853298D01*
X69323930Y-78773930D01*
X69403298Y-78666476D01*
X69427665Y-78597087D01*
X69439818Y-78562481D01*
X69471913Y-78523338D01*
X69509638Y-78513000D01*
X70257377Y-78513000D01*
X70304943Y-78530313D01*
X70309703Y-78534674D01*
X70427847Y-78652818D01*
X70449239Y-78698694D01*
X70448640Y-78716526D01*
X70447155Y-78726069D01*
X70444391Y-78743823D01*
X70445074Y-78749046D01*
X70445074Y-78749049D01*
X70449289Y-78781282D01*
X70462980Y-78885979D01*
X70492751Y-78953638D01*
X70518373Y-79011868D01*
X70520720Y-79017203D01*
X70529804Y-79028010D01*
X70609580Y-79122916D01*
X70609583Y-79122919D01*
X70612970Y-79126948D01*
X70648125Y-79150349D01*
X70727924Y-79203469D01*
X70727927Y-79203470D01*
X70732313Y-79206390D01*
X70869157Y-79249142D01*
X70874425Y-79249239D01*
X70874428Y-79249239D01*
X70934733Y-79250344D01*
X71012499Y-79251770D01*
X71017582Y-79250384D01*
X71017584Y-79250384D01*
X71145727Y-79215448D01*
X71145729Y-79215447D01*
X71150817Y-79214060D01*
X71249022Y-79153762D01*
X71268498Y-79141804D01*
X71268499Y-79141803D01*
X71272991Y-79139045D01*
X71369200Y-79032754D01*
X71431710Y-78903733D01*
X71455496Y-78762354D01*
X71455647Y-78750000D01*
X71451323Y-78719806D01*
X71436070Y-78613297D01*
X71436070Y-78613296D01*
X71435323Y-78608082D01*
X71431743Y-78600207D01*
X71378166Y-78482371D01*
X71375984Y-78477572D01*
X71311974Y-78403285D01*
X71285840Y-78372955D01*
X71285839Y-78372954D01*
X71282400Y-78368963D01*
X71277981Y-78366099D01*
X71277979Y-78366097D01*
X71230534Y-78335345D01*
X71162095Y-78290985D01*
X71043123Y-78255405D01*
X71029792Y-78251418D01*
X71029791Y-78251418D01*
X71024739Y-78249907D01*
X70974752Y-78249602D01*
X70904343Y-78249171D01*
X70856883Y-78231567D01*
X70852469Y-78227498D01*
X70663570Y-78038599D01*
X70659985Y-78034446D01*
X70657925Y-78030231D01*
X70621318Y-77996273D01*
X70619319Y-77994348D01*
X70605223Y-77980252D01*
X70602412Y-77978324D01*
X70599793Y-77976147D01*
X70599903Y-77976015D01*
X70596727Y-77973461D01*
X70580864Y-77958746D01*
X70580863Y-77958745D01*
X70575854Y-77954099D01*
X70569512Y-77951569D01*
X70569506Y-77951565D01*
X70562577Y-77948801D01*
X70548141Y-77941093D01*
X70541993Y-77936876D01*
X70541992Y-77936875D01*
X70536354Y-77933008D01*
X70529704Y-77931430D01*
X70529702Y-77931429D01*
X70508660Y-77926436D01*
X70498324Y-77923168D01*
X70496432Y-77922413D01*
X70471878Y-77912617D01*
X70465585Y-77912000D01*
X70456488Y-77912000D01*
X70439401Y-77910000D01*
X70434085Y-77908738D01*
X70434083Y-77908738D01*
X70427434Y-77907160D01*
X70406566Y-77910000D01*
X70396837Y-77911324D01*
X70386858Y-77912000D01*
X69509638Y-77912000D01*
X69462072Y-77894687D01*
X69439818Y-77862519D01*
X69405130Y-77763741D01*
X69403298Y-77758524D01*
X69323930Y-77651070D01*
X69216476Y-77571702D01*
X69090434Y-77527440D01*
X69085951Y-77527016D01*
X69085950Y-77527016D01*
X69061061Y-77524663D01*
X69061054Y-77524663D01*
X69059333Y-77524500D01*
X68550293Y-77524500D01*
X68040668Y-77524501D01*
X68009566Y-77527440D01*
X68005314Y-77528933D01*
X68005310Y-77528934D01*
X67897547Y-77566778D01*
X67883524Y-77571702D01*
X67776070Y-77651070D01*
X67696702Y-77758524D01*
X67652440Y-77884566D01*
X67652016Y-77889049D01*
X67652016Y-77889050D01*
X67649847Y-77912000D01*
X67649500Y-77915667D01*
X66376423Y-77915667D01*
X66372719Y-77894113D01*
X66361055Y-77826231D01*
X66361054Y-77826229D01*
X66360327Y-77821996D01*
X66333319Y-77758524D01*
X66293917Y-77665923D01*
X66293915Y-77665920D01*
X66292235Y-77661971D01*
X66237740Y-77587920D01*
X66191703Y-77525362D01*
X66191701Y-77525360D01*
X66189157Y-77521903D01*
X66114035Y-77458082D01*
X66059897Y-77412089D01*
X66056620Y-77409305D01*
X65901735Y-77330217D01*
X65732810Y-77288881D01*
X65721833Y-77288200D01*
X65596453Y-77288200D01*
X65594328Y-77288448D01*
X65594324Y-77288448D01*
X65471532Y-77302764D01*
X65471531Y-77302764D01*
X65467261Y-77303262D01*
X65463220Y-77304729D01*
X65463219Y-77304729D01*
X65307834Y-77361131D01*
X65307831Y-77361132D01*
X65303788Y-77362600D01*
X65158350Y-77457953D01*
X65038749Y-77584207D01*
X65036593Y-77587918D01*
X65036592Y-77587920D01*
X65027913Y-77602862D01*
X64951401Y-77734588D01*
X64900990Y-77901031D01*
X64900724Y-77905318D01*
X64899387Y-77926874D01*
X64879163Y-77973277D01*
X64833843Y-77995824D01*
X64780481Y-77981001D01*
X64763541Y-77968002D01*
X64669664Y-77895968D01*
X64525117Y-77836095D01*
X64370000Y-77815673D01*
X64365192Y-77816306D01*
X64303179Y-77824470D01*
X64253760Y-77813514D01*
X64222945Y-77773355D01*
X64225153Y-77722784D01*
X64241194Y-77698777D01*
X65596148Y-76343823D01*
X81794391Y-76343823D01*
X81795074Y-76349046D01*
X81795074Y-76349049D01*
X81796814Y-76362354D01*
X81812980Y-76485979D01*
X81870720Y-76617203D01*
X81874112Y-76621238D01*
X81959580Y-76722916D01*
X81959583Y-76722919D01*
X81962970Y-76726948D01*
X81982498Y-76739947D01*
X82077924Y-76803469D01*
X82077927Y-76803470D01*
X82082313Y-76806390D01*
X82219157Y-76849142D01*
X82224425Y-76849239D01*
X82224428Y-76849239D01*
X82347211Y-76851490D01*
X82398180Y-76873152D01*
X84798933Y-79273905D01*
X84802515Y-79278054D01*
X84804575Y-79282269D01*
X84809587Y-79286918D01*
X84841167Y-79316213D01*
X84843167Y-79318139D01*
X84857276Y-79332248D01*
X84860084Y-79334174D01*
X84862710Y-79336356D01*
X84862594Y-79336495D01*
X84865776Y-79339042D01*
X84881634Y-79353752D01*
X84886646Y-79358401D01*
X84899923Y-79363698D01*
X84914359Y-79371406D01*
X84926146Y-79379492D01*
X84932796Y-79381070D01*
X84932798Y-79381071D01*
X84953840Y-79386064D01*
X84964176Y-79389332D01*
X84990622Y-79399883D01*
X84996915Y-79400500D01*
X85006012Y-79400500D01*
X85023098Y-79402500D01*
X85023992Y-79402712D01*
X85028415Y-79403762D01*
X85028417Y-79403762D01*
X85035066Y-79405340D01*
X85065663Y-79401176D01*
X85075642Y-79400500D01*
X89314241Y-79400500D01*
X89361807Y-79417813D01*
X89370887Y-79426884D01*
X89409580Y-79472916D01*
X89409583Y-79472919D01*
X89412970Y-79476948D01*
X89417357Y-79479868D01*
X89527924Y-79553469D01*
X89527927Y-79553470D01*
X89532313Y-79556390D01*
X89669157Y-79599142D01*
X89674425Y-79599239D01*
X89674428Y-79599239D01*
X89734733Y-79600344D01*
X89812499Y-79601770D01*
X89817582Y-79600384D01*
X89817584Y-79600384D01*
X89945727Y-79565448D01*
X89945729Y-79565447D01*
X89950817Y-79564060D01*
X90027486Y-79516985D01*
X90068498Y-79491804D01*
X90068499Y-79491803D01*
X90072991Y-79489045D01*
X90169200Y-79382754D01*
X90231710Y-79253733D01*
X90255496Y-79112354D01*
X90255647Y-79100000D01*
X90248502Y-79050109D01*
X90236070Y-78963297D01*
X90236070Y-78963296D01*
X90235323Y-78958082D01*
X90180724Y-78837996D01*
X90178166Y-78832371D01*
X90175984Y-78827572D01*
X90099332Y-78738613D01*
X90085840Y-78722955D01*
X90085839Y-78722954D01*
X90082400Y-78718963D01*
X90077981Y-78716099D01*
X90077979Y-78716097D01*
X90017955Y-78677192D01*
X89962095Y-78640985D01*
X89858168Y-78609904D01*
X89829792Y-78601418D01*
X89829791Y-78601418D01*
X89824739Y-78599907D01*
X89751103Y-78599457D01*
X89686646Y-78599063D01*
X89686645Y-78599063D01*
X89681376Y-78599031D01*
X89543529Y-78638428D01*
X89539069Y-78641242D01*
X89520722Y-78652818D01*
X89422280Y-78714930D01*
X89403825Y-78735827D01*
X89369683Y-78774485D01*
X89325219Y-78798678D01*
X89314217Y-78799500D01*
X85205123Y-78799500D01*
X85157557Y-78782187D01*
X85152797Y-78777826D01*
X84850188Y-78475217D01*
X84828796Y-78429341D01*
X84841897Y-78380446D01*
X84883361Y-78351412D01*
X84933788Y-78355824D01*
X84933982Y-78355930D01*
X84936646Y-78358401D01*
X84942992Y-78360933D01*
X84942994Y-78360934D01*
X84949923Y-78363699D01*
X84964359Y-78371407D01*
X84970507Y-78375624D01*
X84976146Y-78379492D01*
X84982796Y-78381070D01*
X84982798Y-78381071D01*
X85003840Y-78386064D01*
X85014176Y-78389332D01*
X85040622Y-78399883D01*
X85046915Y-78400500D01*
X85056012Y-78400500D01*
X85073099Y-78402500D01*
X85078415Y-78403762D01*
X85078417Y-78403762D01*
X85085066Y-78405340D01*
X85115663Y-78401176D01*
X85125642Y-78400500D01*
X91744877Y-78400500D01*
X91792443Y-78417813D01*
X91797203Y-78422174D01*
X92398930Y-79023901D01*
X92402515Y-79028054D01*
X92404575Y-79032269D01*
X92440620Y-79065706D01*
X92441181Y-79066226D01*
X92443181Y-79068152D01*
X92457277Y-79082248D01*
X92460088Y-79084176D01*
X92462707Y-79086353D01*
X92462597Y-79086485D01*
X92465773Y-79089039D01*
X92480675Y-79102862D01*
X92486646Y-79108401D01*
X92492988Y-79110931D01*
X92492994Y-79110935D01*
X92499923Y-79113699D01*
X92514359Y-79121407D01*
X92520507Y-79125624D01*
X92526146Y-79129492D01*
X92532796Y-79131070D01*
X92532798Y-79131071D01*
X92553840Y-79136064D01*
X92564176Y-79139332D01*
X92590622Y-79149883D01*
X92596915Y-79150500D01*
X92606012Y-79150500D01*
X92623099Y-79152500D01*
X92628415Y-79153762D01*
X92628417Y-79153762D01*
X92635066Y-79155340D01*
X92665663Y-79151176D01*
X92675642Y-79150500D01*
X96714241Y-79150500D01*
X96761807Y-79167813D01*
X96770887Y-79176884D01*
X96809580Y-79222916D01*
X96809583Y-79222919D01*
X96812970Y-79226948D01*
X96817357Y-79229868D01*
X96927924Y-79303469D01*
X96927927Y-79303470D01*
X96932313Y-79306390D01*
X97069157Y-79349142D01*
X97074425Y-79349239D01*
X97074428Y-79349239D01*
X97134733Y-79350344D01*
X97212499Y-79351770D01*
X97217582Y-79350384D01*
X97217584Y-79350384D01*
X97345727Y-79315448D01*
X97345729Y-79315447D01*
X97350817Y-79314060D01*
X97425165Y-79268410D01*
X97468498Y-79241804D01*
X97468499Y-79241803D01*
X97472991Y-79239045D01*
X97569200Y-79132754D01*
X97631710Y-79003733D01*
X97655496Y-78862354D01*
X97655647Y-78850000D01*
X97649533Y-78807305D01*
X97636070Y-78713297D01*
X97636070Y-78713296D01*
X97635323Y-78708082D01*
X97613468Y-78660013D01*
X97578166Y-78582371D01*
X97575984Y-78577572D01*
X97497867Y-78486913D01*
X97485840Y-78472955D01*
X97485839Y-78472954D01*
X97482400Y-78468963D01*
X97477981Y-78466099D01*
X97477979Y-78466097D01*
X97412026Y-78423349D01*
X97362095Y-78390985D01*
X97244524Y-78355824D01*
X97229792Y-78351418D01*
X97229791Y-78351418D01*
X97224739Y-78349907D01*
X97151103Y-78349457D01*
X97086646Y-78349063D01*
X97086645Y-78349063D01*
X97081376Y-78349031D01*
X96943529Y-78388428D01*
X96939069Y-78391242D01*
X96936573Y-78392817D01*
X96822280Y-78464930D01*
X96788127Y-78503601D01*
X96769683Y-78524485D01*
X96725219Y-78548678D01*
X96714217Y-78549500D01*
X92805123Y-78549500D01*
X92757557Y-78532187D01*
X92752797Y-78527826D01*
X92151070Y-77926099D01*
X92147485Y-77921946D01*
X92145425Y-77917731D01*
X92108818Y-77883773D01*
X92106819Y-77881848D01*
X92092723Y-77867752D01*
X92089912Y-77865824D01*
X92087293Y-77863647D01*
X92087403Y-77863515D01*
X92084227Y-77860961D01*
X92068364Y-77846246D01*
X92068363Y-77846245D01*
X92063354Y-77841599D01*
X92057012Y-77839069D01*
X92057006Y-77839065D01*
X92050077Y-77836301D01*
X92035641Y-77828593D01*
X92029493Y-77824376D01*
X92029492Y-77824375D01*
X92023854Y-77820508D01*
X92017204Y-77818930D01*
X92017202Y-77818929D01*
X91996160Y-77813936D01*
X91985824Y-77810668D01*
X91983932Y-77809913D01*
X91959378Y-77800117D01*
X91953085Y-77799500D01*
X91943988Y-77799500D01*
X91926901Y-77797500D01*
X91921585Y-77796238D01*
X91921583Y-77796238D01*
X91914934Y-77794660D01*
X91894066Y-77797500D01*
X91884337Y-77798824D01*
X91874358Y-77799500D01*
X85255123Y-77799500D01*
X85207557Y-77782187D01*
X85202797Y-77777826D01*
X82822657Y-75397686D01*
X82801265Y-75351810D01*
X82802008Y-75333084D01*
X82802715Y-75328883D01*
X82805496Y-75312354D01*
X82805647Y-75300000D01*
X82788787Y-75182269D01*
X82786070Y-75163297D01*
X82786070Y-75163296D01*
X82785323Y-75158082D01*
X82725984Y-75027572D01*
X82632400Y-74918963D01*
X82627981Y-74916099D01*
X82627979Y-74916097D01*
X82579881Y-74884922D01*
X82512095Y-74840985D01*
X82408168Y-74809904D01*
X82379792Y-74801418D01*
X82379791Y-74801418D01*
X82374739Y-74799907D01*
X82301103Y-74799457D01*
X82236646Y-74799063D01*
X82236645Y-74799063D01*
X82231376Y-74799031D01*
X82093529Y-74838428D01*
X81972280Y-74914930D01*
X81965193Y-74922955D01*
X81886239Y-75012354D01*
X81877377Y-75022388D01*
X81816447Y-75152163D01*
X81815637Y-75157368D01*
X81815636Y-75157370D01*
X81811036Y-75186915D01*
X81794391Y-75293823D01*
X81795074Y-75299046D01*
X81795074Y-75299049D01*
X81799151Y-75330225D01*
X81812980Y-75435979D01*
X81870720Y-75567203D01*
X81874112Y-75571238D01*
X81959580Y-75672916D01*
X81959583Y-75672919D01*
X81962970Y-75676948D01*
X82082313Y-75756390D01*
X82087348Y-75757963D01*
X82087824Y-75758190D01*
X82123304Y-75794293D01*
X82127277Y-75844756D01*
X82097884Y-75885966D01*
X82093521Y-75888415D01*
X82093529Y-75888428D01*
X81972280Y-75964930D01*
X81877377Y-76072388D01*
X81816447Y-76202163D01*
X81815637Y-76207368D01*
X81815636Y-76207370D01*
X81810655Y-76239362D01*
X81794391Y-76343823D01*
X65596148Y-76343823D01*
X68192797Y-73747174D01*
X68238673Y-73725782D01*
X68245123Y-73725500D01*
X79460847Y-73725500D01*
X79466320Y-73725902D01*
X79470756Y-73727425D01*
X79477580Y-73727169D01*
X79477581Y-73727169D01*
X79520655Y-73725552D01*
X79523431Y-73725500D01*
X79543362Y-73725500D01*
X79546714Y-73724876D01*
X79550105Y-73724563D01*
X79550123Y-73724753D01*
X79554169Y-73724294D01*
X79582622Y-73723226D01*
X79588899Y-73720529D01*
X79588904Y-73720528D01*
X79595757Y-73717584D01*
X79611416Y-73712826D01*
X79618750Y-73711460D01*
X79625467Y-73710209D01*
X79631282Y-73706624D01*
X79631286Y-73706623D01*
X79649704Y-73695270D01*
X79659321Y-73690274D01*
X79680676Y-73681099D01*
X79680678Y-73681098D01*
X79685477Y-73679036D01*
X79690363Y-73675022D01*
X79696794Y-73668591D01*
X79710290Y-73657923D01*
X79714946Y-73655053D01*
X79720762Y-73651468D01*
X79725941Y-73644658D01*
X79739453Y-73626888D01*
X79746031Y-73619354D01*
X79758463Y-73606922D01*
X79804339Y-73585530D01*
X79812145Y-73585260D01*
X79867098Y-73586267D01*
X79917492Y-73587191D01*
X79922574Y-73585806D01*
X79922578Y-73585805D01*
X80050720Y-73550869D01*
X80050722Y-73550868D01*
X80055810Y-73549481D01*
X80177984Y-73474466D01*
X80274193Y-73368175D01*
X80336703Y-73239154D01*
X80360489Y-73097775D01*
X80360640Y-73085421D01*
X80346399Y-72985979D01*
X80341063Y-72948718D01*
X80341063Y-72948717D01*
X80340316Y-72943503D01*
X80297317Y-72848930D01*
X80283159Y-72817792D01*
X80280977Y-72812993D01*
X80196693Y-72715177D01*
X80190833Y-72708376D01*
X80190832Y-72708375D01*
X80187393Y-72704384D01*
X80182974Y-72701520D01*
X80182972Y-72701518D01*
X80130638Y-72667597D01*
X80067088Y-72626406D01*
X79962839Y-72595229D01*
X79934785Y-72586839D01*
X79934784Y-72586839D01*
X79929732Y-72585328D01*
X79856096Y-72584878D01*
X79791639Y-72584484D01*
X79791638Y-72584484D01*
X79786369Y-72584452D01*
X79648522Y-72623849D01*
X79644062Y-72626663D01*
X79609083Y-72648733D01*
X79559617Y-72659473D01*
X79514820Y-72635904D01*
X79502232Y-72616776D01*
X79493637Y-72597872D01*
X79493636Y-72597871D01*
X79491454Y-72593071D01*
X79435395Y-72528011D01*
X79401310Y-72488454D01*
X79401309Y-72488453D01*
X79397870Y-72484462D01*
X79393451Y-72481598D01*
X79393449Y-72481596D01*
X79324024Y-72436597D01*
X79293525Y-72396197D01*
X79296131Y-72345645D01*
X79330620Y-72308595D01*
X79364273Y-72300500D01*
X81694877Y-72300500D01*
X81742443Y-72317813D01*
X81747203Y-72322174D01*
X82877847Y-73452818D01*
X82899239Y-73498694D01*
X82898640Y-73516526D01*
X82898153Y-73519657D01*
X82894391Y-73543823D01*
X82895074Y-73549046D01*
X82895074Y-73549049D01*
X82901052Y-73594759D01*
X82912980Y-73685979D01*
X82970720Y-73817203D01*
X83020011Y-73875841D01*
X83021728Y-73877884D01*
X83039082Y-73925435D01*
X83021811Y-73973017D01*
X82977996Y-73998364D01*
X82965082Y-73999500D01*
X82755123Y-73999500D01*
X82707557Y-73982187D01*
X82702797Y-73977826D01*
X81872657Y-73147686D01*
X81851265Y-73101810D01*
X81852008Y-73083084D01*
X81852764Y-73078589D01*
X81855496Y-73062354D01*
X81855647Y-73050000D01*
X81850259Y-73012376D01*
X81836070Y-72913297D01*
X81836070Y-72913296D01*
X81835323Y-72908082D01*
X81808483Y-72849049D01*
X81778166Y-72782371D01*
X81775984Y-72777572D01*
X81682400Y-72668963D01*
X81677981Y-72666099D01*
X81677979Y-72666097D01*
X81617139Y-72626663D01*
X81562095Y-72590985D01*
X81432283Y-72552163D01*
X81429792Y-72551418D01*
X81429791Y-72551418D01*
X81424739Y-72549907D01*
X81351103Y-72549457D01*
X81286646Y-72549063D01*
X81286645Y-72549063D01*
X81281376Y-72549031D01*
X81143529Y-72588428D01*
X81022280Y-72664930D01*
X80989967Y-72701518D01*
X80936239Y-72762354D01*
X80927377Y-72772388D01*
X80866447Y-72902163D01*
X80865637Y-72907368D01*
X80865636Y-72907370D01*
X80859156Y-72948993D01*
X80844391Y-73043823D01*
X80845074Y-73049046D01*
X80845074Y-73049049D01*
X80849932Y-73086200D01*
X80862980Y-73185979D01*
X80920720Y-73317203D01*
X80924112Y-73321238D01*
X81009580Y-73422916D01*
X81009583Y-73422919D01*
X81012970Y-73426948D01*
X81024673Y-73434738D01*
X81127924Y-73503469D01*
X81127927Y-73503470D01*
X81132313Y-73506390D01*
X81269157Y-73549142D01*
X81274425Y-73549239D01*
X81274428Y-73549239D01*
X81397212Y-73551490D01*
X81448181Y-73573152D01*
X82348930Y-74473901D01*
X82352515Y-74478054D01*
X82354575Y-74482269D01*
X82373589Y-74499907D01*
X82391181Y-74516226D01*
X82393181Y-74518152D01*
X82407277Y-74532248D01*
X82410088Y-74534176D01*
X82412707Y-74536353D01*
X82412597Y-74536485D01*
X82415773Y-74539039D01*
X82420962Y-74543852D01*
X82436646Y-74558401D01*
X82442988Y-74560931D01*
X82442994Y-74560935D01*
X82449923Y-74563699D01*
X82464359Y-74571407D01*
X82470507Y-74575624D01*
X82476146Y-74579492D01*
X82482796Y-74581070D01*
X82482798Y-74581071D01*
X82503840Y-74586064D01*
X82514176Y-74589332D01*
X82540622Y-74599883D01*
X82546915Y-74600500D01*
X82556012Y-74600500D01*
X82573099Y-74602500D01*
X82578415Y-74603762D01*
X82578417Y-74603762D01*
X82585066Y-74605340D01*
X82615663Y-74601176D01*
X82625642Y-74600500D01*
X84244877Y-74600500D01*
X84292443Y-74617813D01*
X84297203Y-74622174D01*
X84848930Y-75173901D01*
X84852515Y-75178054D01*
X84854575Y-75182269D01*
X84891181Y-75216226D01*
X84893181Y-75218152D01*
X84907276Y-75232247D01*
X84910087Y-75234175D01*
X84912712Y-75236356D01*
X84912607Y-75236482D01*
X84915777Y-75239042D01*
X84931637Y-75253755D01*
X84931639Y-75253756D01*
X84936646Y-75258401D01*
X84942990Y-75260932D01*
X84942993Y-75260934D01*
X84949923Y-75263699D01*
X84964359Y-75271407D01*
X84970507Y-75275624D01*
X84976146Y-75279492D01*
X84982796Y-75281070D01*
X84982798Y-75281071D01*
X85003840Y-75286064D01*
X85014176Y-75289332D01*
X85040622Y-75299883D01*
X85046915Y-75300500D01*
X85056012Y-75300500D01*
X85073099Y-75302500D01*
X85078415Y-75303762D01*
X85078417Y-75303762D01*
X85085066Y-75305340D01*
X85115663Y-75301176D01*
X85125642Y-75300500D01*
X87114241Y-75300500D01*
X87161807Y-75317813D01*
X87170887Y-75326884D01*
X87209580Y-75372916D01*
X87209583Y-75372919D01*
X87212970Y-75376948D01*
X87217357Y-75379868D01*
X87327924Y-75453469D01*
X87327927Y-75453470D01*
X87332313Y-75456390D01*
X87469157Y-75499142D01*
X87474425Y-75499239D01*
X87474428Y-75499239D01*
X87534733Y-75500344D01*
X87612499Y-75501770D01*
X87617582Y-75500384D01*
X87617584Y-75500384D01*
X87745727Y-75465448D01*
X87745729Y-75465447D01*
X87750817Y-75464060D01*
X87858918Y-75397686D01*
X87868498Y-75391804D01*
X87868499Y-75391803D01*
X87872991Y-75389045D01*
X87969200Y-75282754D01*
X88031710Y-75153733D01*
X88055496Y-75012354D01*
X88055647Y-75000000D01*
X88054821Y-74994234D01*
X88036070Y-74863297D01*
X88036070Y-74863296D01*
X88035323Y-74858082D01*
X87975984Y-74727572D01*
X87882400Y-74618963D01*
X87877981Y-74616099D01*
X87877979Y-74616097D01*
X87809030Y-74571407D01*
X87762095Y-74540985D01*
X87658168Y-74509904D01*
X87629792Y-74501418D01*
X87629791Y-74501418D01*
X87624739Y-74499907D01*
X87551103Y-74499457D01*
X87486646Y-74499063D01*
X87486645Y-74499063D01*
X87481376Y-74499031D01*
X87343529Y-74538428D01*
X87222280Y-74614930D01*
X87188127Y-74653601D01*
X87169683Y-74674485D01*
X87125219Y-74698678D01*
X87114217Y-74699500D01*
X85689806Y-74699500D01*
X85642240Y-74682187D01*
X85616930Y-74638350D01*
X85625720Y-74588500D01*
X85634943Y-74575841D01*
X85676582Y-74529838D01*
X85719200Y-74482754D01*
X85781710Y-74353733D01*
X85805496Y-74212354D01*
X85805647Y-74200000D01*
X85795694Y-74130500D01*
X85786070Y-74063297D01*
X85786070Y-74063296D01*
X85785323Y-74058082D01*
X85758177Y-73998376D01*
X85728166Y-73932371D01*
X85725984Y-73927572D01*
X85632400Y-73818963D01*
X85627973Y-73816093D01*
X85625854Y-73814245D01*
X85601391Y-73769930D01*
X85600500Y-73758481D01*
X85600500Y-73255123D01*
X85617813Y-73207557D01*
X85622174Y-73202797D01*
X87903470Y-70921501D01*
X87949346Y-70900109D01*
X87957152Y-70899839D01*
X88012105Y-70900846D01*
X88062499Y-70901770D01*
X88067581Y-70900385D01*
X88067585Y-70900384D01*
X88195727Y-70865448D01*
X88195729Y-70865447D01*
X88200817Y-70864060D01*
X88286175Y-70811650D01*
X88318498Y-70791804D01*
X88318499Y-70791803D01*
X88322991Y-70789045D01*
X88419200Y-70682754D01*
X88481710Y-70553733D01*
X88505496Y-70412354D01*
X88505647Y-70400000D01*
X88499347Y-70356009D01*
X88486070Y-70263297D01*
X88486070Y-70263296D01*
X88485323Y-70258082D01*
X88425984Y-70127572D01*
X88332400Y-70018963D01*
X88327981Y-70016099D01*
X88327979Y-70016097D01*
X88286770Y-69989387D01*
X88212095Y-69940985D01*
X88108168Y-69909904D01*
X88079792Y-69901418D01*
X88079791Y-69901418D01*
X88074739Y-69899907D01*
X88001103Y-69899457D01*
X87936646Y-69899063D01*
X87936645Y-69899063D01*
X87931376Y-69899031D01*
X87793529Y-69938428D01*
X87672280Y-70014930D01*
X87666709Y-70021238D01*
X87582437Y-70116659D01*
X87577377Y-70122388D01*
X87516447Y-70252163D01*
X87494391Y-70393823D01*
X87495074Y-70399047D01*
X87495074Y-70399048D01*
X87499704Y-70434452D01*
X87488705Y-70483862D01*
X87478655Y-70496373D01*
X85126099Y-72848930D01*
X85121946Y-72852515D01*
X85117731Y-72854575D01*
X85093448Y-72880752D01*
X85083774Y-72891181D01*
X85081848Y-72893181D01*
X85067752Y-72907277D01*
X85065824Y-72910088D01*
X85063647Y-72912707D01*
X85063515Y-72912597D01*
X85060961Y-72915773D01*
X85041599Y-72936646D01*
X85039069Y-72942988D01*
X85039065Y-72942994D01*
X85036301Y-72949923D01*
X85028593Y-72964359D01*
X85024376Y-72970507D01*
X85020508Y-72976146D01*
X85018930Y-72982796D01*
X85018929Y-72982798D01*
X85013936Y-73003840D01*
X85010668Y-73014176D01*
X85000117Y-73040622D01*
X84999500Y-73046915D01*
X84999500Y-73056012D01*
X84997500Y-73073099D01*
X84996587Y-73076948D01*
X84994660Y-73085066D01*
X84995582Y-73091839D01*
X84998824Y-73115663D01*
X84999500Y-73125642D01*
X84999500Y-73758553D01*
X84982187Y-73806119D01*
X84975379Y-73812975D01*
X84972280Y-73814930D01*
X84953088Y-73836661D01*
X84907306Y-73888500D01*
X84877377Y-73922388D01*
X84875138Y-73927157D01*
X84875134Y-73927163D01*
X84841484Y-73998834D01*
X84805598Y-74034533D01*
X84755160Y-74038812D01*
X84713772Y-74009669D01*
X84700500Y-73967384D01*
X84700500Y-73654567D01*
X84700902Y-73649094D01*
X84702425Y-73644658D01*
X84700552Y-73594759D01*
X84700500Y-73591983D01*
X84700500Y-73572052D01*
X84699876Y-73568700D01*
X84699563Y-73565309D01*
X84699753Y-73565291D01*
X84699294Y-73561242D01*
X84698226Y-73532792D01*
X84695529Y-73526515D01*
X84695528Y-73526510D01*
X84692584Y-73519657D01*
X84687826Y-73503998D01*
X84686460Y-73496664D01*
X84685209Y-73489947D01*
X84681624Y-73484132D01*
X84681623Y-73484128D01*
X84670270Y-73465710D01*
X84665274Y-73456093D01*
X84656099Y-73434738D01*
X84656098Y-73434736D01*
X84654036Y-73429937D01*
X84650022Y-73425051D01*
X84643591Y-73418620D01*
X84632923Y-73405124D01*
X84630053Y-73400468D01*
X84626468Y-73394652D01*
X84601888Y-73375961D01*
X84594354Y-73369383D01*
X82691559Y-71466588D01*
X82687974Y-71462435D01*
X82685914Y-71458220D01*
X82649307Y-71424262D01*
X82647308Y-71422337D01*
X82633212Y-71408241D01*
X82630401Y-71406313D01*
X82627782Y-71404136D01*
X82627892Y-71404004D01*
X82624716Y-71401450D01*
X82608853Y-71386735D01*
X82608852Y-71386734D01*
X82603843Y-71382088D01*
X82597501Y-71379558D01*
X82597495Y-71379554D01*
X82590566Y-71376790D01*
X82576130Y-71369082D01*
X82569982Y-71364865D01*
X82569981Y-71364864D01*
X82564343Y-71360997D01*
X82557693Y-71359419D01*
X82557691Y-71359418D01*
X82536649Y-71354425D01*
X82526313Y-71351157D01*
X82515763Y-71346948D01*
X82499867Y-71340606D01*
X82493574Y-71339989D01*
X82484477Y-71339989D01*
X82467390Y-71337989D01*
X82462074Y-71336727D01*
X82462072Y-71336727D01*
X82455423Y-71335149D01*
X82434555Y-71337989D01*
X82424826Y-71339313D01*
X82414847Y-71339989D01*
X81548414Y-71339989D01*
X81500848Y-71322676D01*
X81475538Y-71278839D01*
X81484328Y-71228989D01*
X81493551Y-71216330D01*
X81569200Y-71132754D01*
X81631710Y-71003733D01*
X81655496Y-70862354D01*
X81655647Y-70850000D01*
X81636884Y-70718984D01*
X81647279Y-70669444D01*
X81687086Y-70638176D01*
X81737678Y-70639810D01*
X81770537Y-70667357D01*
X81770720Y-70667203D01*
X81774110Y-70671236D01*
X81774112Y-70671239D01*
X81859580Y-70772916D01*
X81859583Y-70772919D01*
X81862970Y-70776948D01*
X81867357Y-70779868D01*
X81977924Y-70853469D01*
X81977927Y-70853470D01*
X81982313Y-70856390D01*
X82119157Y-70899142D01*
X82124425Y-70899239D01*
X82124428Y-70899239D01*
X82184733Y-70900344D01*
X82262499Y-70901770D01*
X82267582Y-70900384D01*
X82267584Y-70900384D01*
X82395727Y-70865448D01*
X82395729Y-70865447D01*
X82400817Y-70864060D01*
X82486175Y-70811650D01*
X82518498Y-70791804D01*
X82518499Y-70791803D01*
X82522991Y-70789045D01*
X82619200Y-70682754D01*
X82681710Y-70553733D01*
X82705496Y-70412354D01*
X82705647Y-70400000D01*
X82699347Y-70356009D01*
X82686070Y-70263297D01*
X82686070Y-70263296D01*
X82685323Y-70258082D01*
X82625984Y-70127572D01*
X82532400Y-70018963D01*
X82527981Y-70016099D01*
X82527979Y-70016097D01*
X82486770Y-69989387D01*
X82412095Y-69940985D01*
X82308168Y-69909904D01*
X82279792Y-69901418D01*
X82279791Y-69901418D01*
X82274739Y-69899907D01*
X82224752Y-69899602D01*
X82154343Y-69899171D01*
X82106883Y-69881567D01*
X82102469Y-69877498D01*
X82001070Y-69776099D01*
X81997485Y-69771946D01*
X81995425Y-69767731D01*
X81958818Y-69733773D01*
X81956819Y-69731848D01*
X81942723Y-69717752D01*
X81939912Y-69715824D01*
X81937293Y-69713647D01*
X81937403Y-69713515D01*
X81934227Y-69710961D01*
X81918364Y-69696246D01*
X81918363Y-69696245D01*
X81913354Y-69691599D01*
X81907012Y-69689069D01*
X81907006Y-69689065D01*
X81900077Y-69686301D01*
X81885641Y-69678593D01*
X81879493Y-69674376D01*
X81879492Y-69674375D01*
X81873854Y-69670508D01*
X81867204Y-69668930D01*
X81867202Y-69668929D01*
X81846160Y-69663936D01*
X81835824Y-69660668D01*
X81824372Y-69656099D01*
X81809378Y-69650117D01*
X81803085Y-69649500D01*
X81793988Y-69649500D01*
X81776901Y-69647500D01*
X81771585Y-69646238D01*
X81771583Y-69646238D01*
X81764934Y-69644660D01*
X81744066Y-69647500D01*
X81734337Y-69648824D01*
X81724358Y-69649500D01*
X79296141Y-69649500D01*
X79290668Y-69649098D01*
X79286232Y-69647575D01*
X79279408Y-69647831D01*
X79279407Y-69647831D01*
X79236333Y-69649448D01*
X79233557Y-69649500D01*
X79213626Y-69649500D01*
X79210274Y-69650124D01*
X79206883Y-69650437D01*
X79206865Y-69650247D01*
X79202819Y-69650706D01*
X79174366Y-69651774D01*
X79168089Y-69654471D01*
X79168084Y-69654472D01*
X79161231Y-69657416D01*
X79145572Y-69662174D01*
X79143849Y-69662495D01*
X79131521Y-69664791D01*
X79125706Y-69668376D01*
X79125702Y-69668377D01*
X79107284Y-69679730D01*
X79097667Y-69684726D01*
X79076312Y-69693901D01*
X79076310Y-69693902D01*
X79071511Y-69695964D01*
X79066625Y-69699978D01*
X79060194Y-69706409D01*
X79046699Y-69717076D01*
X79036226Y-69723532D01*
X79032090Y-69728971D01*
X79017535Y-69748112D01*
X79010957Y-69755646D01*
X78798298Y-69968305D01*
X78752422Y-69989697D01*
X78745972Y-69989979D01*
X77307685Y-69989979D01*
X77260119Y-69972666D01*
X77234809Y-69928829D01*
X77243599Y-69878979D01*
X77268965Y-69852917D01*
X77372991Y-69789045D01*
X77431105Y-69724841D01*
X77475861Y-69701194D01*
X77485968Y-69700500D01*
X77845433Y-69700500D01*
X77850906Y-69700902D01*
X77855342Y-69702425D01*
X77862166Y-69702169D01*
X77862167Y-69702169D01*
X77905241Y-69700552D01*
X77908017Y-69700500D01*
X77927948Y-69700500D01*
X77931300Y-69699876D01*
X77934691Y-69699563D01*
X77934709Y-69699753D01*
X77938755Y-69699294D01*
X77967208Y-69698226D01*
X77973485Y-69695529D01*
X77973490Y-69695528D01*
X77980343Y-69692584D01*
X77996002Y-69687826D01*
X78003336Y-69686460D01*
X78010053Y-69685209D01*
X78015868Y-69681624D01*
X78015872Y-69681623D01*
X78034290Y-69670270D01*
X78043907Y-69665274D01*
X78065262Y-69656099D01*
X78065264Y-69656098D01*
X78070063Y-69654036D01*
X78074949Y-69650022D01*
X78081380Y-69643591D01*
X78094876Y-69632923D01*
X78099532Y-69630053D01*
X78105348Y-69626468D01*
X78124039Y-69601888D01*
X78130617Y-69594354D01*
X82273901Y-65451070D01*
X82278054Y-65447485D01*
X82282269Y-65445425D01*
X82316227Y-65408818D01*
X82318152Y-65406819D01*
X82332248Y-65392723D01*
X82334176Y-65389912D01*
X82336353Y-65387293D01*
X82336485Y-65387403D01*
X82339039Y-65384227D01*
X82353754Y-65368364D01*
X82353755Y-65368363D01*
X82358401Y-65363354D01*
X82360931Y-65357012D01*
X82360935Y-65357006D01*
X82363699Y-65350077D01*
X82371407Y-65335641D01*
X82375624Y-65329493D01*
X82375625Y-65329492D01*
X82379492Y-65323854D01*
X82386064Y-65296160D01*
X82389332Y-65285824D01*
X82397949Y-65264225D01*
X82399883Y-65259378D01*
X82400500Y-65253085D01*
X82400500Y-65243988D01*
X82402500Y-65226901D01*
X82403762Y-65221585D01*
X82403762Y-65221583D01*
X82405340Y-65214934D01*
X82401176Y-65184337D01*
X82400500Y-65174358D01*
X82400500Y-57204123D01*
X82417813Y-57156557D01*
X82461650Y-57131247D01*
X82511500Y-57140037D01*
X82526826Y-57151797D01*
X86398930Y-61023901D01*
X86402515Y-61028054D01*
X86404575Y-61032269D01*
X86441181Y-61066226D01*
X86443181Y-61068152D01*
X86457277Y-61082248D01*
X86460088Y-61084176D01*
X86462707Y-61086353D01*
X86462597Y-61086485D01*
X86465773Y-61089039D01*
X86471872Y-61094696D01*
X86486646Y-61108401D01*
X86499919Y-61113696D01*
X86514355Y-61121404D01*
X86526146Y-61129493D01*
X86539888Y-61132754D01*
X86553848Y-61136067D01*
X86564181Y-61139335D01*
X86582889Y-61146798D01*
X86590622Y-61149883D01*
X86596915Y-61150500D01*
X86606008Y-61150500D01*
X86623094Y-61152500D01*
X86628414Y-61153762D01*
X86628417Y-61153762D01*
X86635066Y-61155340D01*
X86641834Y-61154419D01*
X86641837Y-61154419D01*
X86665663Y-61151176D01*
X86675642Y-61150500D01*
X92764241Y-61150500D01*
X92811807Y-61167813D01*
X92820887Y-61176884D01*
X92859580Y-61222916D01*
X92859583Y-61222919D01*
X92862970Y-61226948D01*
X92867357Y-61229868D01*
X92977924Y-61303469D01*
X92977927Y-61303470D01*
X92982313Y-61306390D01*
X93119157Y-61349142D01*
X93124425Y-61349239D01*
X93124428Y-61349239D01*
X93184733Y-61350344D01*
X93262499Y-61351770D01*
X93267582Y-61350384D01*
X93267584Y-61350384D01*
X93395727Y-61315448D01*
X93395729Y-61315447D01*
X93400817Y-61314060D01*
X93461904Y-61276553D01*
X93518498Y-61241804D01*
X93518499Y-61241803D01*
X93522991Y-61239045D01*
X93619200Y-61132754D01*
X93681710Y-61003733D01*
X93705496Y-60862354D01*
X93705647Y-60850000D01*
X93691733Y-60752841D01*
X93686070Y-60713297D01*
X93686070Y-60713296D01*
X93685323Y-60708082D01*
X93661928Y-60656626D01*
X93628166Y-60582371D01*
X93625984Y-60577572D01*
X93532400Y-60468963D01*
X93527981Y-60466099D01*
X93527979Y-60466097D01*
X93475662Y-60432187D01*
X93412095Y-60390985D01*
X93308168Y-60359904D01*
X93279792Y-60351418D01*
X93279791Y-60351418D01*
X93274739Y-60349907D01*
X93201103Y-60349457D01*
X93136646Y-60349063D01*
X93136645Y-60349063D01*
X93131376Y-60349031D01*
X92993529Y-60388428D01*
X92872280Y-60464930D01*
X92866845Y-60471084D01*
X92819683Y-60524485D01*
X92775219Y-60548678D01*
X92764217Y-60549500D01*
X86805124Y-60549500D01*
X86757558Y-60532187D01*
X86752798Y-60527826D01*
X82622657Y-56397686D01*
X82601265Y-56351810D01*
X82602008Y-56333084D01*
X82605496Y-56312354D01*
X82605647Y-56300000D01*
X82585323Y-56158082D01*
X82525984Y-56027572D01*
X82432400Y-55918963D01*
X82427981Y-55916099D01*
X82427979Y-55916097D01*
X82388068Y-55890228D01*
X82312095Y-55840985D01*
X82208168Y-55809904D01*
X82179792Y-55801418D01*
X82179791Y-55801418D01*
X82174739Y-55799907D01*
X82101103Y-55799457D01*
X82036646Y-55799063D01*
X82036645Y-55799063D01*
X82031376Y-55799031D01*
X81893529Y-55838428D01*
X81772280Y-55914930D01*
X81677377Y-56022388D01*
X81616447Y-56152163D01*
X81615637Y-56157368D01*
X81615636Y-56157370D01*
X81614459Y-56164930D01*
X81594391Y-56293823D01*
X81595074Y-56299046D01*
X81595074Y-56299049D01*
X81595573Y-56302862D01*
X81612980Y-56435979D01*
X81670720Y-56567203D01*
X81674112Y-56571238D01*
X81759580Y-56672916D01*
X81759583Y-56672919D01*
X81762970Y-56676948D01*
X81767356Y-56679867D01*
X81771287Y-56683382D01*
X81770311Y-56684473D01*
X81796507Y-56720068D01*
X81799500Y-56740901D01*
X81799500Y-65044877D01*
X81782187Y-65092443D01*
X81777826Y-65097203D01*
X77797203Y-69077826D01*
X77751327Y-69099218D01*
X77744877Y-69099500D01*
X77485714Y-69099500D01*
X77438148Y-69082187D01*
X77429654Y-69073804D01*
X77385840Y-69022955D01*
X77385839Y-69022954D01*
X77382400Y-69018963D01*
X77377981Y-69016099D01*
X77377979Y-69016097D01*
X77325756Y-68982248D01*
X77262095Y-68940985D01*
X77158168Y-68909904D01*
X77129792Y-68901418D01*
X77129791Y-68901418D01*
X77124739Y-68899907D01*
X77051103Y-68899457D01*
X76986646Y-68899063D01*
X76986645Y-68899063D01*
X76981376Y-68899031D01*
X76843529Y-68938428D01*
X76722280Y-69014930D01*
X76697993Y-69042430D01*
X76637291Y-69111163D01*
X76627377Y-69122388D01*
X76566447Y-69252163D01*
X76565637Y-69257368D01*
X76565636Y-69257370D01*
X76558646Y-69302268D01*
X76544391Y-69393823D01*
X76545074Y-69399046D01*
X76545074Y-69399049D01*
X76548248Y-69423318D01*
X76562980Y-69535979D01*
X76599839Y-69619748D01*
X76617845Y-69660668D01*
X76620720Y-69667203D01*
X76636907Y-69686460D01*
X76709580Y-69772916D01*
X76709583Y-69772919D01*
X76712970Y-69776948D01*
X76827096Y-69852917D01*
X76829292Y-69854379D01*
X76859294Y-69895148D01*
X76856072Y-69945664D01*
X76821132Y-69982290D01*
X76788287Y-69989979D01*
X74144017Y-69989979D01*
X74096451Y-69972666D01*
X74071141Y-69928829D01*
X74079931Y-69878979D01*
X74118708Y-69846442D01*
X74133399Y-69842745D01*
X74254649Y-69825165D01*
X74254650Y-69825165D01*
X74258007Y-69824678D01*
X74449531Y-69759664D01*
X74452483Y-69758011D01*
X74452487Y-69758009D01*
X74623041Y-69662495D01*
X74623044Y-69662493D01*
X74626001Y-69660837D01*
X74628606Y-69658670D01*
X74628611Y-69658667D01*
X74778897Y-69533674D01*
X74781505Y-69531505D01*
X74800986Y-69508082D01*
X74908667Y-69378611D01*
X74908670Y-69378606D01*
X74910837Y-69376001D01*
X74912495Y-69373041D01*
X75008009Y-69202487D01*
X75008011Y-69202483D01*
X75009664Y-69199531D01*
X75074678Y-69008007D01*
X75077428Y-68989039D01*
X75103387Y-68810003D01*
X75103387Y-68809998D01*
X75103700Y-68807842D01*
X75105215Y-68750000D01*
X75086708Y-68548591D01*
X75085789Y-68545333D01*
X75085788Y-68545327D01*
X75032728Y-68357191D01*
X75032727Y-68357189D01*
X75031807Y-68353926D01*
X75030307Y-68350885D01*
X75030305Y-68350879D01*
X75009006Y-68307690D01*
X75003495Y-68257372D01*
X75023048Y-68222634D01*
X76865813Y-66379868D01*
X76877999Y-66370027D01*
X76884011Y-66366145D01*
X76884013Y-66366143D01*
X76889152Y-66362825D01*
X76892938Y-66358023D01*
X76892942Y-66358019D01*
X76909902Y-66336505D01*
X76915689Y-66329992D01*
X76918428Y-66327253D01*
X76929377Y-66311932D01*
X76931450Y-66309170D01*
X76961392Y-66271189D01*
X76963418Y-66265419D01*
X76963988Y-66264383D01*
X76964430Y-66263680D01*
X76964711Y-66263140D01*
X76965028Y-66262383D01*
X76965555Y-66261307D01*
X76969111Y-66256331D01*
X76982960Y-66210023D01*
X76984037Y-66206707D01*
X76986612Y-66199374D01*
X77000055Y-66161094D01*
X77000500Y-66155956D01*
X77000500Y-66154619D01*
X77000884Y-66150088D01*
X77002544Y-66144536D01*
X77000557Y-66093963D01*
X77000500Y-66091058D01*
X77000500Y-57225834D01*
X77017813Y-57178268D01*
X77022174Y-57173508D01*
X81023508Y-53172174D01*
X81069384Y-53150782D01*
X81075834Y-53150500D01*
X85224166Y-53150500D01*
X85271732Y-53167813D01*
X85276492Y-53172174D01*
X85376040Y-53271722D01*
X85397089Y-53314452D01*
X85412980Y-53435979D01*
X85470720Y-53567203D01*
X85474112Y-53571238D01*
X85559580Y-53672916D01*
X85559583Y-53672919D01*
X85562970Y-53676948D01*
X85567357Y-53679868D01*
X85677924Y-53753469D01*
X85677927Y-53753470D01*
X85682313Y-53756390D01*
X85819157Y-53799142D01*
X85824425Y-53799239D01*
X85824428Y-53799239D01*
X85884733Y-53800344D01*
X85962499Y-53801770D01*
X85967582Y-53800384D01*
X85967584Y-53800384D01*
X86095727Y-53765448D01*
X86095729Y-53765447D01*
X86100817Y-53764060D01*
X86176138Y-53717813D01*
X86218498Y-53691804D01*
X86218499Y-53691803D01*
X86222991Y-53689045D01*
X86319200Y-53582754D01*
X86381710Y-53453733D01*
X86391789Y-53393823D01*
X86994391Y-53393823D01*
X86995074Y-53399046D01*
X86995074Y-53399049D01*
X87000534Y-53440803D01*
X87012980Y-53535979D01*
X87070720Y-53667203D01*
X87074112Y-53671238D01*
X87159580Y-53772916D01*
X87159583Y-53772919D01*
X87162970Y-53776948D01*
X87167357Y-53779868D01*
X87277924Y-53853469D01*
X87277927Y-53853470D01*
X87282313Y-53856390D01*
X87419157Y-53899142D01*
X87424425Y-53899239D01*
X87424428Y-53899239D01*
X87484733Y-53900344D01*
X87562499Y-53901770D01*
X87567582Y-53900384D01*
X87567584Y-53900384D01*
X87695727Y-53865448D01*
X87695729Y-53865447D01*
X87700817Y-53864060D01*
X87761904Y-53826553D01*
X87818498Y-53791804D01*
X87818499Y-53791803D01*
X87822991Y-53789045D01*
X87881105Y-53724841D01*
X87925861Y-53701194D01*
X87935968Y-53700500D01*
X89694877Y-53700500D01*
X89742443Y-53717813D01*
X89747203Y-53722174D01*
X90627826Y-54602797D01*
X90649218Y-54648673D01*
X90649500Y-54655123D01*
X90649500Y-56108553D01*
X90632187Y-56156119D01*
X90625379Y-56162975D01*
X90622280Y-56164930D01*
X90527377Y-56272388D01*
X90466447Y-56402163D01*
X90444391Y-56543823D01*
X90445074Y-56549046D01*
X90445074Y-56549049D01*
X90445573Y-56552862D01*
X90462980Y-56685979D01*
X90520720Y-56817203D01*
X90527467Y-56825229D01*
X90609580Y-56922916D01*
X90609583Y-56922919D01*
X90612970Y-56926948D01*
X90635288Y-56941804D01*
X90727924Y-57003469D01*
X90727927Y-57003470D01*
X90732313Y-57006390D01*
X90869157Y-57049142D01*
X90874425Y-57049239D01*
X90874428Y-57049239D01*
X90934733Y-57050344D01*
X91012499Y-57051770D01*
X91017582Y-57050384D01*
X91017584Y-57050384D01*
X91145727Y-57015448D01*
X91145729Y-57015447D01*
X91150817Y-57014060D01*
X91211904Y-56976552D01*
X91268498Y-56941804D01*
X91268499Y-56941803D01*
X91272991Y-56939045D01*
X91369200Y-56832754D01*
X91431710Y-56703733D01*
X91455496Y-56562354D01*
X91455647Y-56550000D01*
X91435323Y-56408082D01*
X91375984Y-56277572D01*
X91282400Y-56168963D01*
X91277973Y-56166093D01*
X91275854Y-56164245D01*
X91251391Y-56119930D01*
X91250500Y-56108481D01*
X91250500Y-54554567D01*
X91250902Y-54549094D01*
X91252425Y-54544658D01*
X91250552Y-54494759D01*
X91250500Y-54491983D01*
X91250500Y-54472052D01*
X91249876Y-54468700D01*
X91249563Y-54465309D01*
X91249753Y-54465291D01*
X91249294Y-54461242D01*
X91248482Y-54439620D01*
X91248226Y-54432792D01*
X91245529Y-54426515D01*
X91245528Y-54426510D01*
X91242584Y-54419657D01*
X91237826Y-54403998D01*
X91236460Y-54396664D01*
X91235209Y-54389947D01*
X91231624Y-54384132D01*
X91231623Y-54384128D01*
X91220270Y-54365710D01*
X91215274Y-54356093D01*
X91206099Y-54334738D01*
X91206098Y-54334736D01*
X91204036Y-54329937D01*
X91200022Y-54325051D01*
X91193591Y-54318620D01*
X91182923Y-54305124D01*
X91180053Y-54300468D01*
X91176468Y-54294652D01*
X91151888Y-54275961D01*
X91144354Y-54269383D01*
X90168794Y-53293823D01*
X107894391Y-53293823D01*
X107895074Y-53299046D01*
X107895074Y-53299049D01*
X107897183Y-53315177D01*
X107912980Y-53435979D01*
X107970720Y-53567203D01*
X107974112Y-53571238D01*
X108032146Y-53640278D01*
X108049500Y-53687894D01*
X108049500Y-79869339D01*
X108032823Y-79913417D01*
X108033760Y-79914032D01*
X108031002Y-79918230D01*
X108030967Y-79918323D01*
X108027377Y-79922388D01*
X107966447Y-80052163D01*
X107965637Y-80057368D01*
X107965636Y-80057370D01*
X107958639Y-80102312D01*
X107944391Y-80193823D01*
X107945074Y-80199046D01*
X107945074Y-80199049D01*
X107950391Y-80239707D01*
X107962980Y-80335979D01*
X108020720Y-80467203D01*
X108024112Y-80471238D01*
X108109580Y-80572916D01*
X108109583Y-80572919D01*
X108112970Y-80576948D01*
X108146849Y-80599500D01*
X108227924Y-80653469D01*
X108227927Y-80653470D01*
X108232313Y-80656390D01*
X108369157Y-80699142D01*
X108374425Y-80699239D01*
X108374428Y-80699239D01*
X108434733Y-80700344D01*
X108512499Y-80701770D01*
X108517582Y-80700384D01*
X108517584Y-80700384D01*
X108645727Y-80665448D01*
X108645729Y-80665447D01*
X108650817Y-80664060D01*
X108725125Y-80618435D01*
X108768498Y-80591804D01*
X108768499Y-80591803D01*
X108772991Y-80589045D01*
X108869200Y-80482754D01*
X108931710Y-80353733D01*
X108955496Y-80212354D01*
X108955647Y-80200000D01*
X108952380Y-80177186D01*
X108936070Y-80063297D01*
X108936070Y-80063296D01*
X108935323Y-80058082D01*
X108920860Y-80026271D01*
X108878166Y-79932371D01*
X108875984Y-79927572D01*
X108782400Y-79818963D01*
X108777973Y-79816093D01*
X108775854Y-79814245D01*
X108751391Y-79769930D01*
X108750500Y-79758481D01*
X108750500Y-53687170D01*
X108769637Y-53637511D01*
X108785810Y-53619643D01*
X108819200Y-53582754D01*
X108881710Y-53453733D01*
X108905496Y-53312354D01*
X108905647Y-53300000D01*
X108898796Y-53252163D01*
X108886070Y-53163297D01*
X108886070Y-53163296D01*
X108885323Y-53158082D01*
X108831120Y-53038867D01*
X108828166Y-53032371D01*
X108825984Y-53027572D01*
X108751597Y-52941242D01*
X108735840Y-52922955D01*
X108735839Y-52922954D01*
X108732400Y-52918963D01*
X108727981Y-52916099D01*
X108727979Y-52916097D01*
X108688068Y-52890228D01*
X108656471Y-52869748D01*
X113949500Y-52869748D01*
X113961133Y-52928231D01*
X113965184Y-52934293D01*
X113965184Y-52934294D01*
X113968646Y-52939475D01*
X114005448Y-52994552D01*
X114011509Y-52998602D01*
X114013066Y-52999642D01*
X114071769Y-53038867D01*
X114109449Y-53046362D01*
X114126682Y-53049790D01*
X114126683Y-53049790D01*
X114130252Y-53050500D01*
X115869748Y-53050500D01*
X115873317Y-53049790D01*
X115873318Y-53049790D01*
X115890551Y-53046362D01*
X115928231Y-53038867D01*
X115986935Y-52999642D01*
X115988491Y-52998602D01*
X115994552Y-52994552D01*
X116031354Y-52939475D01*
X116034816Y-52934294D01*
X116034816Y-52934293D01*
X116038867Y-52928231D01*
X116050500Y-52869748D01*
X116050500Y-51130252D01*
X116038867Y-51071769D01*
X116011709Y-51031124D01*
X115998602Y-51011509D01*
X115994552Y-51005448D01*
X115970785Y-50989567D01*
X115934294Y-50965184D01*
X115934293Y-50965184D01*
X115928231Y-50961133D01*
X115883705Y-50952276D01*
X115873318Y-50950210D01*
X115873317Y-50950210D01*
X115869748Y-50949500D01*
X114130252Y-50949500D01*
X114126683Y-50950210D01*
X114126682Y-50950210D01*
X114116295Y-50952276D01*
X114071769Y-50961133D01*
X114065707Y-50965184D01*
X114065706Y-50965184D01*
X114029215Y-50989567D01*
X114005448Y-51005448D01*
X114001398Y-51011509D01*
X113988292Y-51031124D01*
X113961133Y-51071769D01*
X113949500Y-51130252D01*
X113949500Y-52869748D01*
X108656471Y-52869748D01*
X108612095Y-52840985D01*
X108508168Y-52809904D01*
X108479792Y-52801418D01*
X108479791Y-52801418D01*
X108474739Y-52799907D01*
X108401103Y-52799457D01*
X108336646Y-52799063D01*
X108336645Y-52799063D01*
X108331376Y-52799031D01*
X108193529Y-52838428D01*
X108072280Y-52914930D01*
X108050603Y-52939475D01*
X107983964Y-53014930D01*
X107977377Y-53022388D01*
X107916447Y-53152163D01*
X107915637Y-53157368D01*
X107915636Y-53157370D01*
X107913331Y-53172174D01*
X107894391Y-53293823D01*
X90168794Y-53293823D01*
X90101070Y-53226099D01*
X90097485Y-53221946D01*
X90095425Y-53217731D01*
X90058818Y-53183773D01*
X90056819Y-53181848D01*
X90042723Y-53167752D01*
X90039912Y-53165824D01*
X90037293Y-53163647D01*
X90037403Y-53163515D01*
X90034227Y-53160961D01*
X90018364Y-53146246D01*
X90018363Y-53146245D01*
X90013354Y-53141599D01*
X90007012Y-53139069D01*
X90007006Y-53139065D01*
X90000077Y-53136301D01*
X89985641Y-53128593D01*
X89979493Y-53124376D01*
X89979492Y-53124375D01*
X89973854Y-53120508D01*
X89967204Y-53118930D01*
X89967202Y-53118929D01*
X89946160Y-53113936D01*
X89935824Y-53110668D01*
X89933932Y-53109913D01*
X89909378Y-53100117D01*
X89903085Y-53099500D01*
X89893988Y-53099500D01*
X89876901Y-53097500D01*
X89871585Y-53096238D01*
X89871583Y-53096238D01*
X89864934Y-53094660D01*
X89844066Y-53097500D01*
X89834337Y-53098824D01*
X89824358Y-53099500D01*
X87935714Y-53099500D01*
X87888148Y-53082187D01*
X87879654Y-53073804D01*
X87835840Y-53022955D01*
X87835839Y-53022954D01*
X87832400Y-53018963D01*
X87827981Y-53016099D01*
X87827979Y-53016097D01*
X87758783Y-52971247D01*
X87712095Y-52940985D01*
X87608168Y-52909904D01*
X87579792Y-52901418D01*
X87579791Y-52901418D01*
X87574739Y-52899907D01*
X87501103Y-52899457D01*
X87436646Y-52899063D01*
X87436645Y-52899063D01*
X87431376Y-52899031D01*
X87293529Y-52938428D01*
X87172280Y-53014930D01*
X87140866Y-53050500D01*
X87085951Y-53112680D01*
X87077377Y-53122388D01*
X87016447Y-53252163D01*
X86994391Y-53393823D01*
X86391789Y-53393823D01*
X86405496Y-53312354D01*
X86405647Y-53300000D01*
X86398796Y-53252163D01*
X86386070Y-53163297D01*
X86386070Y-53163296D01*
X86385323Y-53158082D01*
X86331120Y-53038867D01*
X86328166Y-53032371D01*
X86325984Y-53027572D01*
X86251597Y-52941242D01*
X86235840Y-52922955D01*
X86235839Y-52922954D01*
X86232400Y-52918963D01*
X86227981Y-52916099D01*
X86227979Y-52916097D01*
X86188068Y-52890228D01*
X86112095Y-52840985D01*
X86037033Y-52818537D01*
X85979793Y-52801418D01*
X85979790Y-52801418D01*
X85974739Y-52799907D01*
X85925489Y-52799606D01*
X85878029Y-52782003D01*
X85873615Y-52777933D01*
X85679866Y-52584184D01*
X85670025Y-52571998D01*
X85666145Y-52565989D01*
X85666143Y-52565987D01*
X85662825Y-52560848D01*
X85636514Y-52540106D01*
X85630001Y-52534319D01*
X85627254Y-52531572D01*
X85624776Y-52529801D01*
X85624771Y-52529797D01*
X85611920Y-52520614D01*
X85609157Y-52518540D01*
X85571189Y-52488608D01*
X85565420Y-52486582D01*
X85564383Y-52486012D01*
X85563680Y-52485570D01*
X85563140Y-52485289D01*
X85562383Y-52484972D01*
X85561307Y-52484445D01*
X85556331Y-52480889D01*
X85510023Y-52467040D01*
X85506707Y-52465963D01*
X85494690Y-52461743D01*
X85461094Y-52449945D01*
X85455956Y-52449500D01*
X85454619Y-52449500D01*
X85450088Y-52449116D01*
X85444536Y-52447456D01*
X85438426Y-52447696D01*
X85438425Y-52447696D01*
X85393963Y-52449443D01*
X85391058Y-52449500D01*
X80945292Y-52449500D01*
X80929718Y-52447842D01*
X80916740Y-52445048D01*
X80910665Y-52445767D01*
X80910664Y-52445767D01*
X80883459Y-52448987D01*
X80874761Y-52449500D01*
X80870885Y-52449500D01*
X80853306Y-52452426D01*
X80852315Y-52452591D01*
X80848866Y-52453082D01*
X80800862Y-52458763D01*
X80795348Y-52461411D01*
X80794206Y-52461743D01*
X80793408Y-52461925D01*
X80792810Y-52462114D01*
X80792048Y-52462426D01*
X80790933Y-52462808D01*
X80784897Y-52463812D01*
X80779515Y-52466716D01*
X80742356Y-52486766D01*
X80739261Y-52488343D01*
X80695674Y-52509273D01*
X80691726Y-52512592D01*
X80690781Y-52513537D01*
X80687307Y-52516470D01*
X80682206Y-52519222D01*
X80662901Y-52540106D01*
X80647860Y-52556377D01*
X80645846Y-52558472D01*
X76434184Y-56770134D01*
X76421998Y-56779975D01*
X76415989Y-56783855D01*
X76415987Y-56783857D01*
X76410848Y-56787175D01*
X76407060Y-56791980D01*
X76390106Y-56813486D01*
X76384319Y-56819999D01*
X76381572Y-56822746D01*
X76379801Y-56825224D01*
X76379797Y-56825229D01*
X76370614Y-56838080D01*
X76368540Y-56840843D01*
X76338608Y-56878811D01*
X76336582Y-56884580D01*
X76336012Y-56885617D01*
X76335570Y-56886320D01*
X76335289Y-56886860D01*
X76334972Y-56887617D01*
X76334445Y-56888693D01*
X76330889Y-56893669D01*
X76329136Y-56899531D01*
X76317040Y-56939977D01*
X76315963Y-56943293D01*
X76299945Y-56988906D01*
X76299500Y-56994044D01*
X76299500Y-56995381D01*
X76299116Y-56999912D01*
X76297456Y-57005464D01*
X76297696Y-57011574D01*
X76297696Y-57011575D01*
X76299443Y-57056037D01*
X76299500Y-57058942D01*
X76299500Y-65924166D01*
X76282187Y-65971732D01*
X76277826Y-65976492D01*
X74527160Y-67727158D01*
X74481284Y-67748550D01*
X74447413Y-67743564D01*
X74317052Y-67691556D01*
X74317049Y-67691555D01*
X74313898Y-67690298D01*
X74310571Y-67689636D01*
X74310567Y-67689635D01*
X74118849Y-67651500D01*
X74115526Y-67650839D01*
X74028249Y-67649697D01*
X73916680Y-67648236D01*
X73916675Y-67648236D01*
X73913286Y-67648192D01*
X73909941Y-67648767D01*
X73909938Y-67648767D01*
X73827521Y-67662929D01*
X73713949Y-67682444D01*
X73524193Y-67752449D01*
X73350371Y-67855862D01*
X73347827Y-67858093D01*
X73347823Y-67858096D01*
X73281673Y-67916108D01*
X73198305Y-67989220D01*
X73196208Y-67991879D01*
X73196207Y-67991881D01*
X73110580Y-68100500D01*
X73073089Y-68148057D01*
X72978914Y-68327053D01*
X72918937Y-68520213D01*
X72895164Y-68721069D01*
X72908392Y-68922894D01*
X72924542Y-68986485D01*
X72948356Y-69080252D01*
X72958178Y-69118928D01*
X72959599Y-69122011D01*
X72959600Y-69122013D01*
X72978672Y-69163382D01*
X73042856Y-69302607D01*
X73044810Y-69305372D01*
X73044813Y-69305377D01*
X73157635Y-69465017D01*
X73159588Y-69467780D01*
X73206313Y-69513297D01*
X73297255Y-69601888D01*
X73304466Y-69608913D01*
X73307278Y-69610792D01*
X73307283Y-69610796D01*
X73444416Y-69702425D01*
X73472637Y-69721282D01*
X73475751Y-69722620D01*
X73475753Y-69722621D01*
X73629946Y-69788867D01*
X73658470Y-69801122D01*
X73842416Y-69842745D01*
X73847096Y-69843804D01*
X73889668Y-69871187D01*
X73904679Y-69919529D01*
X73885104Y-69966210D01*
X73840103Y-69989387D01*
X73830764Y-69989979D01*
X71909555Y-69989979D01*
X71861989Y-69972666D01*
X71836679Y-69928829D01*
X71842959Y-69883716D01*
X71881710Y-69803733D01*
X71905496Y-69662354D01*
X71905647Y-69650000D01*
X71901315Y-69619748D01*
X71886070Y-69513297D01*
X71886070Y-69513296D01*
X71885323Y-69508082D01*
X71881989Y-69500748D01*
X71828166Y-69382371D01*
X71825984Y-69377572D01*
X71765345Y-69307197D01*
X71735840Y-69272955D01*
X71735839Y-69272954D01*
X71732400Y-69268963D01*
X71727981Y-69266099D01*
X71727979Y-69266097D01*
X71688068Y-69240228D01*
X71612095Y-69190985D01*
X71485259Y-69153053D01*
X71479792Y-69151418D01*
X71479791Y-69151418D01*
X71474739Y-69149907D01*
X71424752Y-69149602D01*
X71354343Y-69149171D01*
X71306883Y-69131567D01*
X71302469Y-69127498D01*
X66290436Y-64115465D01*
X73319284Y-64115465D01*
X73320171Y-64118773D01*
X73320276Y-64118876D01*
X73470056Y-64218956D01*
X73475993Y-64222180D01*
X73655513Y-64299307D01*
X73661932Y-64301392D01*
X73852491Y-64344512D01*
X73859200Y-64345395D01*
X74054421Y-64353066D01*
X74061180Y-64352711D01*
X74254529Y-64324677D01*
X74261105Y-64323099D01*
X74446115Y-64260296D01*
X74452285Y-64257550D01*
X74622761Y-64162078D01*
X74628319Y-64158258D01*
X74673064Y-64121044D01*
X74678423Y-64111855D01*
X74677629Y-64107234D01*
X74009226Y-63438831D01*
X73999587Y-63434336D01*
X73993688Y-63435917D01*
X73323779Y-64105826D01*
X73319284Y-64115465D01*
X66290436Y-64115465D01*
X66251070Y-64076099D01*
X66247485Y-64071946D01*
X66245425Y-64067731D01*
X66208818Y-64033773D01*
X66206819Y-64031848D01*
X66192723Y-64017752D01*
X66189912Y-64015824D01*
X66187293Y-64013647D01*
X66187403Y-64013515D01*
X66184227Y-64010961D01*
X66168364Y-63996246D01*
X66168363Y-63996245D01*
X66163354Y-63991599D01*
X66157012Y-63989069D01*
X66157006Y-63989065D01*
X66150077Y-63986301D01*
X66135641Y-63978593D01*
X66129493Y-63974376D01*
X66129492Y-63974375D01*
X66123854Y-63970508D01*
X66117204Y-63968930D01*
X66117202Y-63968929D01*
X66096160Y-63963936D01*
X66085824Y-63960668D01*
X66072740Y-63955448D01*
X66059378Y-63950117D01*
X66053085Y-63949500D01*
X66043988Y-63949500D01*
X66026901Y-63947500D01*
X66021585Y-63946238D01*
X66021583Y-63946238D01*
X66014934Y-63944660D01*
X65994066Y-63947500D01*
X65984337Y-63948824D01*
X65974358Y-63949500D01*
X61698454Y-63949500D01*
X61650888Y-63932187D01*
X61628917Y-63900810D01*
X61621362Y-63880052D01*
X61616075Y-63877000D01*
X59988048Y-63877000D01*
X59978052Y-63880638D01*
X59975000Y-63885925D01*
X59975000Y-63916058D01*
X59975710Y-63923268D01*
X59985182Y-63970887D01*
X59985235Y-63971015D01*
X59985243Y-63971192D01*
X59986604Y-63978036D01*
X59985551Y-63978246D01*
X59987370Y-64019917D01*
X59986133Y-64021769D01*
X59984711Y-64028918D01*
X59976991Y-64067731D01*
X59974500Y-64080252D01*
X59974500Y-64419748D01*
X59975210Y-64423317D01*
X59975210Y-64423318D01*
X59978967Y-64442203D01*
X59984995Y-64472510D01*
X59984995Y-64472511D01*
X59986133Y-64478231D01*
X59985253Y-64478406D01*
X59987084Y-64520346D01*
X59986133Y-64521769D01*
X59984712Y-64528914D01*
X59984711Y-64528916D01*
X59976974Y-64567813D01*
X59974500Y-64580252D01*
X59974500Y-64919748D01*
X59984995Y-64972510D01*
X59984995Y-64972511D01*
X59986133Y-64978231D01*
X59985253Y-64978406D01*
X59987084Y-65020346D01*
X59986133Y-65021769D01*
X59984712Y-65028914D01*
X59984711Y-65028916D01*
X59975439Y-65075529D01*
X59974500Y-65080252D01*
X59974500Y-65419748D01*
X59975210Y-65423317D01*
X59975210Y-65423318D01*
X59979322Y-65443988D01*
X59984995Y-65472510D01*
X59984995Y-65472511D01*
X59986133Y-65478231D01*
X59985253Y-65478406D01*
X59987084Y-65520346D01*
X59986133Y-65521769D01*
X59974500Y-65580252D01*
X59974500Y-65919748D01*
X59984995Y-65972510D01*
X59984995Y-65972511D01*
X59986133Y-65978231D01*
X59985253Y-65978406D01*
X59987084Y-66020346D01*
X59986133Y-66021769D01*
X59974500Y-66080252D01*
X59974500Y-66419748D01*
X59975210Y-66423317D01*
X59975210Y-66423318D01*
X59980111Y-66447955D01*
X59984995Y-66472510D01*
X59984995Y-66472511D01*
X59986133Y-66478231D01*
X59985253Y-66478406D01*
X59987084Y-66520346D01*
X59986133Y-66521769D01*
X59974500Y-66580252D01*
X59974500Y-66919748D01*
X59975210Y-66923317D01*
X59975210Y-66923318D01*
X59981662Y-66955752D01*
X59984995Y-66972510D01*
X59984995Y-66972511D01*
X59986133Y-66978231D01*
X59985253Y-66978406D01*
X59987084Y-67020346D01*
X59986133Y-67021769D01*
X59984712Y-67028914D01*
X59984711Y-67028916D01*
X59976974Y-67067813D01*
X59974500Y-67080252D01*
X59974500Y-67419748D01*
X59975210Y-67423317D01*
X59975210Y-67423318D01*
X59984249Y-67468757D01*
X59984995Y-67472510D01*
X59984995Y-67472511D01*
X59986133Y-67478231D01*
X59985253Y-67478406D01*
X59987084Y-67520346D01*
X59986133Y-67521769D01*
X59984712Y-67528914D01*
X59984711Y-67528916D01*
X59979779Y-67553713D01*
X59974500Y-67580252D01*
X59974500Y-67919748D01*
X59985312Y-67974102D01*
X59986133Y-67978231D01*
X59985497Y-67978357D01*
X59987443Y-68022917D01*
X59985235Y-68028985D01*
X59985182Y-68029113D01*
X59975710Y-68076732D01*
X59975000Y-68083942D01*
X59975000Y-68115398D01*
X59957687Y-68162964D01*
X59913850Y-68188274D01*
X59864000Y-68179484D01*
X59848674Y-68167724D01*
X59097174Y-67416225D01*
X59075782Y-67370349D01*
X59075500Y-67363899D01*
X59075500Y-67266489D01*
X59092813Y-67218923D01*
X59097273Y-67214486D01*
X59097991Y-67214045D01*
X59194200Y-67107754D01*
X59256710Y-66978733D01*
X59280496Y-66837354D01*
X59280647Y-66825000D01*
X59260323Y-66683082D01*
X59200984Y-66552572D01*
X59107400Y-66443963D01*
X59102981Y-66441099D01*
X59102979Y-66441097D01*
X59063068Y-66415228D01*
X58987095Y-66365985D01*
X58857584Y-66327253D01*
X58854792Y-66326418D01*
X58854791Y-66326418D01*
X58849739Y-66324907D01*
X58776103Y-66324457D01*
X58711646Y-66324063D01*
X58711645Y-66324063D01*
X58706376Y-66324031D01*
X58568529Y-66363428D01*
X58447280Y-66439930D01*
X58352377Y-66547388D01*
X58291447Y-66677163D01*
X58269391Y-66818823D01*
X58270074Y-66824046D01*
X58270074Y-66824049D01*
X58270573Y-66827862D01*
X58287980Y-66960979D01*
X58345720Y-67092203D01*
X58349112Y-67096238D01*
X58434580Y-67197916D01*
X58434583Y-67197919D01*
X58437970Y-67201948D01*
X58442356Y-67204867D01*
X58446287Y-67208382D01*
X58445311Y-67209473D01*
X58471507Y-67245068D01*
X58474500Y-67265901D01*
X58474500Y-67464455D01*
X58474098Y-67469928D01*
X58472575Y-67474364D01*
X58472831Y-67481188D01*
X58472831Y-67481189D01*
X58474448Y-67524263D01*
X58474500Y-67527039D01*
X58474500Y-67546970D01*
X58475124Y-67550322D01*
X58475437Y-67553713D01*
X58475247Y-67553731D01*
X58475706Y-67557777D01*
X58476774Y-67586230D01*
X58479471Y-67592507D01*
X58479472Y-67592512D01*
X58482416Y-67599365D01*
X58487174Y-67615024D01*
X58488080Y-67619891D01*
X58489791Y-67629075D01*
X58493376Y-67634890D01*
X58493377Y-67634894D01*
X58504730Y-67653312D01*
X58509726Y-67662929D01*
X58518111Y-67682444D01*
X58520964Y-67689085D01*
X58524978Y-67693971D01*
X58531409Y-67700402D01*
X58542076Y-67713897D01*
X58548532Y-67724370D01*
X58553971Y-67728506D01*
X58573112Y-67743061D01*
X58580646Y-67749639D01*
X59754908Y-68923901D01*
X59758493Y-68928054D01*
X59760553Y-68932269D01*
X59769949Y-68940985D01*
X59797159Y-68966226D01*
X59799159Y-68968152D01*
X59813255Y-68982248D01*
X59816066Y-68984176D01*
X59818685Y-68986353D01*
X59818575Y-68986485D01*
X59821751Y-68989039D01*
X59842624Y-69008401D01*
X59855897Y-69013696D01*
X59870333Y-69021404D01*
X59882124Y-69029493D01*
X59904297Y-69034755D01*
X59909826Y-69036067D01*
X59920158Y-69039334D01*
X59927919Y-69042430D01*
X59965685Y-69076135D01*
X59974500Y-69111163D01*
X59974500Y-69309353D01*
X59957187Y-69356919D01*
X59913350Y-69382229D01*
X59863500Y-69373439D01*
X59857664Y-69369269D01*
X59857400Y-69368963D01*
X59737095Y-69290985D01*
X59607283Y-69252163D01*
X59604792Y-69251418D01*
X59604791Y-69251418D01*
X59599739Y-69249907D01*
X59526103Y-69249457D01*
X59461646Y-69249063D01*
X59461645Y-69249063D01*
X59456376Y-69249031D01*
X59318529Y-69288428D01*
X59197280Y-69364930D01*
X59151964Y-69416241D01*
X59106447Y-69467780D01*
X59102377Y-69472388D01*
X59041447Y-69602163D01*
X59040637Y-69607368D01*
X59040636Y-69607370D01*
X59032025Y-69662680D01*
X59019391Y-69743823D01*
X59020074Y-69749046D01*
X59020074Y-69749049D01*
X59027225Y-69803733D01*
X59037980Y-69885979D01*
X59063445Y-69943852D01*
X59093483Y-70012118D01*
X59095720Y-70017203D01*
X59099112Y-70021238D01*
X59184580Y-70122916D01*
X59184583Y-70122919D01*
X59187970Y-70126948D01*
X59206143Y-70139045D01*
X59302924Y-70203469D01*
X59302927Y-70203470D01*
X59307313Y-70206390D01*
X59444157Y-70249142D01*
X59449425Y-70249239D01*
X59449428Y-70249239D01*
X59509733Y-70250344D01*
X59587499Y-70251770D01*
X59592582Y-70250384D01*
X59592584Y-70250384D01*
X59720727Y-70215448D01*
X59720729Y-70215447D01*
X59725817Y-70214060D01*
X59847991Y-70139045D01*
X59851532Y-70135133D01*
X59853228Y-70133725D01*
X59900884Y-70116659D01*
X59948360Y-70134218D01*
X59973441Y-70178186D01*
X59974500Y-70190658D01*
X59974500Y-70375500D01*
X59957187Y-70423066D01*
X59913350Y-70448376D01*
X59900500Y-70449500D01*
X59254567Y-70449500D01*
X59249094Y-70449098D01*
X59244658Y-70447575D01*
X59237834Y-70447831D01*
X59237833Y-70447831D01*
X59194758Y-70449448D01*
X59191982Y-70449500D01*
X59172052Y-70449500D01*
X59168700Y-70450124D01*
X59165309Y-70450437D01*
X59165291Y-70450247D01*
X59161245Y-70450706D01*
X59132791Y-70451774D01*
X59126516Y-70454470D01*
X59126512Y-70454471D01*
X59119658Y-70457416D01*
X59103995Y-70462175D01*
X59096664Y-70463540D01*
X59096663Y-70463540D01*
X59089947Y-70464791D01*
X59084132Y-70468376D01*
X59084128Y-70468377D01*
X59065710Y-70479730D01*
X59056093Y-70484726D01*
X59034738Y-70493901D01*
X59034736Y-70493902D01*
X59029937Y-70495964D01*
X59025051Y-70499978D01*
X59018620Y-70506409D01*
X59005125Y-70517076D01*
X58994652Y-70523532D01*
X58990516Y-70528971D01*
X58975961Y-70548112D01*
X58969383Y-70555646D01*
X57346982Y-72178047D01*
X57301106Y-72199439D01*
X57294204Y-72199720D01*
X57186646Y-72199063D01*
X57186645Y-72199063D01*
X57181376Y-72199031D01*
X57043529Y-72238428D01*
X56922280Y-72314930D01*
X56876115Y-72367202D01*
X56830931Y-72418364D01*
X56827377Y-72422388D01*
X56766447Y-72552163D01*
X56765637Y-72557368D01*
X56765636Y-72557370D01*
X56759330Y-72597872D01*
X56744391Y-72693823D01*
X50200000Y-72693823D01*
X50200000Y-71041973D01*
X50892776Y-71041973D01*
X50894173Y-71047183D01*
X50895059Y-71047941D01*
X51094404Y-71194105D01*
X51099033Y-71196998D01*
X51317796Y-71312095D01*
X51322817Y-71314279D01*
X51556181Y-71395773D01*
X51561476Y-71397191D01*
X51804316Y-71443297D01*
X51809758Y-71443917D01*
X52056751Y-71453621D01*
X52062229Y-71453430D01*
X52307933Y-71426521D01*
X52313331Y-71425520D01*
X52552359Y-71362589D01*
X52557540Y-71360805D01*
X52784649Y-71263232D01*
X52789513Y-71260699D01*
X52999701Y-71130631D01*
X53004136Y-71127408D01*
X53099056Y-71047053D01*
X53101959Y-71041973D01*
X55892776Y-71041973D01*
X55894173Y-71047183D01*
X55895059Y-71047941D01*
X56094404Y-71194105D01*
X56099033Y-71196998D01*
X56317796Y-71312095D01*
X56322817Y-71314279D01*
X56556181Y-71395773D01*
X56561476Y-71397191D01*
X56804316Y-71443297D01*
X56809758Y-71443917D01*
X57056751Y-71453621D01*
X57062229Y-71453430D01*
X57307933Y-71426521D01*
X57313331Y-71425520D01*
X57552359Y-71362589D01*
X57557540Y-71360805D01*
X57784649Y-71263232D01*
X57789513Y-71260699D01*
X57999701Y-71130631D01*
X58004136Y-71127408D01*
X58099056Y-71047053D01*
X58104335Y-71037816D01*
X58103480Y-71033085D01*
X57009226Y-69938831D01*
X56999587Y-69934336D01*
X56993688Y-69935917D01*
X55897271Y-71032334D01*
X55892776Y-71041973D01*
X53101959Y-71041973D01*
X53104335Y-71037816D01*
X53103480Y-71033085D01*
X52009226Y-69938831D01*
X51999587Y-69934336D01*
X51993688Y-69935917D01*
X50897271Y-71032334D01*
X50892776Y-71041973D01*
X50200000Y-71041973D01*
X50200000Y-70166440D01*
X50217313Y-70118874D01*
X50261150Y-70093564D01*
X50311000Y-70102354D01*
X50343537Y-70141131D01*
X50346578Y-70152003D01*
X50356699Y-70202884D01*
X50358164Y-70208165D01*
X50441691Y-70440808D01*
X50443916Y-70445807D01*
X50560913Y-70663549D01*
X50563859Y-70668174D01*
X50700703Y-70851430D01*
X50709598Y-70857262D01*
X50713608Y-70856787D01*
X51811169Y-69759226D01*
X51815279Y-69750413D01*
X52184336Y-69750413D01*
X52185917Y-69756312D01*
X53279407Y-70849802D01*
X53289046Y-70854297D01*
X53293930Y-70852988D01*
X53359679Y-70778015D01*
X53362971Y-70773648D01*
X53496692Y-70565756D01*
X53499308Y-70560937D01*
X53600827Y-70335572D01*
X53602703Y-70330422D01*
X53669798Y-70092517D01*
X53670890Y-70087151D01*
X53702196Y-69841070D01*
X53702480Y-69837365D01*
X53704718Y-69751854D01*
X53704630Y-69748152D01*
X53701655Y-69708118D01*
X55295949Y-69708118D01*
X55307808Y-69955021D01*
X55308475Y-69960449D01*
X55356699Y-70202884D01*
X55358164Y-70208165D01*
X55441691Y-70440808D01*
X55443916Y-70445807D01*
X55560913Y-70663549D01*
X55563859Y-70668174D01*
X55700703Y-70851430D01*
X55709598Y-70857262D01*
X55713608Y-70856787D01*
X56811169Y-69759226D01*
X56815279Y-69750413D01*
X57184336Y-69750413D01*
X57185917Y-69756312D01*
X58279407Y-70849802D01*
X58289046Y-70854297D01*
X58293930Y-70852988D01*
X58359679Y-70778015D01*
X58362971Y-70773648D01*
X58496692Y-70565756D01*
X58499308Y-70560937D01*
X58600827Y-70335572D01*
X58602703Y-70330422D01*
X58669798Y-70092517D01*
X58670890Y-70087151D01*
X58702196Y-69841070D01*
X58702480Y-69837365D01*
X58704718Y-69751854D01*
X58704630Y-69748152D01*
X58686245Y-69500748D01*
X58685437Y-69495345D01*
X58630884Y-69254258D01*
X58629281Y-69249012D01*
X58539691Y-69018633D01*
X58537335Y-69013694D01*
X58414678Y-68799089D01*
X58411614Y-68794547D01*
X58297780Y-68650150D01*
X58288735Y-68644552D01*
X58284428Y-68645177D01*
X57188831Y-69740774D01*
X57184336Y-69750413D01*
X56815279Y-69750413D01*
X56815664Y-69749587D01*
X56814083Y-69743688D01*
X55720473Y-68650078D01*
X55710834Y-68645583D01*
X55706302Y-68646798D01*
X55613882Y-68757922D01*
X55610693Y-68762394D01*
X55482467Y-68973702D01*
X55479980Y-68978582D01*
X55384391Y-69206536D01*
X55382652Y-69211734D01*
X55321807Y-69451311D01*
X55320858Y-69456696D01*
X55296092Y-69702642D01*
X55295949Y-69708118D01*
X53701655Y-69708118D01*
X53686245Y-69500748D01*
X53685437Y-69495345D01*
X53630884Y-69254258D01*
X53629281Y-69249012D01*
X53539691Y-69018633D01*
X53537335Y-69013694D01*
X53414678Y-68799089D01*
X53411614Y-68794547D01*
X53297780Y-68650150D01*
X53288735Y-68644552D01*
X53284428Y-68645177D01*
X52188831Y-69740774D01*
X52184336Y-69750413D01*
X51815279Y-69750413D01*
X51815664Y-69749587D01*
X51814083Y-69743688D01*
X50720473Y-68650078D01*
X50710834Y-68645583D01*
X50706302Y-68646798D01*
X50613882Y-68757922D01*
X50610693Y-68762394D01*
X50482467Y-68973702D01*
X50479980Y-68978582D01*
X50384391Y-69206536D01*
X50382652Y-69211734D01*
X50345723Y-69357143D01*
X50317234Y-69398984D01*
X50268516Y-69412725D01*
X50222364Y-69391934D01*
X50200372Y-69346342D01*
X50200000Y-69338928D01*
X50200000Y-68461906D01*
X50895528Y-68461906D01*
X50896583Y-68466978D01*
X51990774Y-69561169D01*
X52000413Y-69565664D01*
X52006312Y-69564083D01*
X53100927Y-68469468D01*
X53104453Y-68461906D01*
X55895528Y-68461906D01*
X55896583Y-68466978D01*
X56990774Y-69561169D01*
X57000413Y-69565664D01*
X57006312Y-69564083D01*
X58100927Y-68469468D01*
X58105422Y-68459829D01*
X58103975Y-68454430D01*
X58074846Y-68427029D01*
X58070589Y-68423582D01*
X57867494Y-68282690D01*
X57862769Y-68279907D01*
X57641081Y-68170583D01*
X57635998Y-68168530D01*
X57400594Y-68093176D01*
X57395254Y-68091894D01*
X57151281Y-68052160D01*
X57145844Y-68051684D01*
X56898671Y-68048449D01*
X56893203Y-68048784D01*
X56648274Y-68082117D01*
X56642931Y-68083252D01*
X56405608Y-68152425D01*
X56400492Y-68154338D01*
X56176001Y-68257830D01*
X56171219Y-68260481D01*
X55964502Y-68396010D01*
X55960152Y-68399348D01*
X55900564Y-68452533D01*
X55895528Y-68461906D01*
X53104453Y-68461906D01*
X53105422Y-68459829D01*
X53103975Y-68454430D01*
X53074846Y-68427029D01*
X53070589Y-68423582D01*
X52867494Y-68282690D01*
X52862769Y-68279907D01*
X52641081Y-68170583D01*
X52635998Y-68168530D01*
X52400594Y-68093176D01*
X52395254Y-68091894D01*
X52151281Y-68052160D01*
X52145844Y-68051684D01*
X51898671Y-68048449D01*
X51893203Y-68048784D01*
X51648274Y-68082117D01*
X51642931Y-68083252D01*
X51405608Y-68152425D01*
X51400492Y-68154338D01*
X51176001Y-68257830D01*
X51171219Y-68260481D01*
X50964502Y-68396010D01*
X50960152Y-68399348D01*
X50900564Y-68452533D01*
X50895528Y-68461906D01*
X50200000Y-68461906D01*
X50200000Y-64168823D01*
X58519391Y-64168823D01*
X58520074Y-64174046D01*
X58520074Y-64174049D01*
X58520573Y-64177862D01*
X58537980Y-64310979D01*
X58595720Y-64442203D01*
X58599112Y-64446238D01*
X58684580Y-64547916D01*
X58684583Y-64547919D01*
X58687970Y-64551948D01*
X58718355Y-64572174D01*
X58802924Y-64628469D01*
X58802927Y-64628470D01*
X58807313Y-64631390D01*
X58944157Y-64674142D01*
X58949425Y-64674239D01*
X58949428Y-64674239D01*
X59009733Y-64675344D01*
X59087499Y-64676770D01*
X59092582Y-64675384D01*
X59092584Y-64675384D01*
X59220727Y-64640448D01*
X59220729Y-64640447D01*
X59225817Y-64639060D01*
X59318659Y-64582055D01*
X59343498Y-64566804D01*
X59343499Y-64566803D01*
X59347991Y-64564045D01*
X59444200Y-64457754D01*
X59506710Y-64328733D01*
X59530496Y-64187354D01*
X59530647Y-64175000D01*
X59520741Y-64105826D01*
X59511070Y-64038297D01*
X59511070Y-64038296D01*
X59510323Y-64033082D01*
X59501487Y-64013647D01*
X59453166Y-63907371D01*
X59450984Y-63902572D01*
X59357400Y-63793963D01*
X59352973Y-63791093D01*
X59350854Y-63789245D01*
X59326391Y-63744930D01*
X59325500Y-63733481D01*
X59325500Y-63355123D01*
X59342813Y-63307557D01*
X59347174Y-63302797D01*
X59848174Y-62801797D01*
X59894050Y-62780405D01*
X59942945Y-62793506D01*
X59971979Y-62834970D01*
X59974500Y-62854123D01*
X59974500Y-62919748D01*
X59975210Y-62923317D01*
X59975210Y-62923318D01*
X59981428Y-62954575D01*
X59984995Y-62972510D01*
X59984995Y-62972511D01*
X59986133Y-62978231D01*
X59985253Y-62978406D01*
X59987084Y-63020346D01*
X59986133Y-63021769D01*
X59984712Y-63028914D01*
X59984711Y-63028916D01*
X59980108Y-63052059D01*
X59974500Y-63080252D01*
X59974500Y-63419748D01*
X59985312Y-63474102D01*
X59986133Y-63478231D01*
X59985497Y-63478357D01*
X59987443Y-63522917D01*
X59985235Y-63528985D01*
X59985182Y-63529113D01*
X59975710Y-63576732D01*
X59975000Y-63583942D01*
X59975000Y-63609952D01*
X59978638Y-63619948D01*
X59983925Y-63623000D01*
X61611952Y-63623000D01*
X61621948Y-63619362D01*
X61625000Y-63614075D01*
X61625000Y-63583942D01*
X61624290Y-63576732D01*
X61614818Y-63529113D01*
X61614765Y-63528985D01*
X61614757Y-63528808D01*
X61613396Y-63521964D01*
X61614449Y-63521754D01*
X61612630Y-63480083D01*
X61613867Y-63478231D01*
X61625500Y-63419748D01*
X61625500Y-63224469D01*
X72895888Y-63224469D01*
X72908667Y-63419438D01*
X72909722Y-63426098D01*
X72957816Y-63615470D01*
X72960072Y-63621841D01*
X73041871Y-63799279D01*
X73045248Y-63805126D01*
X73128824Y-63923384D01*
X73137564Y-63929447D01*
X73141290Y-63929105D01*
X73811169Y-63259226D01*
X73815279Y-63250413D01*
X74184336Y-63250413D01*
X74185917Y-63256312D01*
X74853475Y-63923870D01*
X74863114Y-63928365D01*
X74867646Y-63927150D01*
X74908258Y-63878319D01*
X74912078Y-63872761D01*
X75007550Y-63702285D01*
X75010296Y-63696115D01*
X75073099Y-63511105D01*
X75074677Y-63504529D01*
X75102886Y-63309978D01*
X75103256Y-63305637D01*
X75104656Y-63252166D01*
X75104515Y-63247843D01*
X75086524Y-63052059D01*
X75085294Y-63045418D01*
X75032259Y-62857371D01*
X75029837Y-62851063D01*
X74943421Y-62675827D01*
X74939896Y-62670074D01*
X74870596Y-62577271D01*
X74861701Y-62571439D01*
X74857691Y-62571914D01*
X74188831Y-63240774D01*
X74184336Y-63250413D01*
X73815279Y-63250413D01*
X73815664Y-63249587D01*
X73814083Y-63243688D01*
X73146750Y-62576355D01*
X73137111Y-62571860D01*
X73132906Y-62572987D01*
X73075613Y-62645663D01*
X73071930Y-62651333D01*
X72980954Y-62824249D01*
X72978375Y-62830476D01*
X72920435Y-63017075D01*
X72919029Y-63023691D01*
X72896065Y-63217709D01*
X72895888Y-63224469D01*
X61625500Y-63224469D01*
X61625500Y-63080252D01*
X61619892Y-63052059D01*
X61615289Y-63028916D01*
X61615288Y-63028914D01*
X61613867Y-63021769D01*
X61614747Y-63021594D01*
X61612916Y-62979654D01*
X61613867Y-62978231D01*
X61618573Y-62954575D01*
X61624790Y-62923318D01*
X61624790Y-62923317D01*
X61625500Y-62919748D01*
X61625500Y-62580252D01*
X61624055Y-62572987D01*
X61615289Y-62528916D01*
X61615288Y-62528914D01*
X61613867Y-62521769D01*
X61614747Y-62521594D01*
X61612916Y-62479654D01*
X61613867Y-62478231D01*
X61625500Y-62419748D01*
X61625500Y-62387264D01*
X73320839Y-62387264D01*
X73321825Y-62392220D01*
X73990774Y-63061169D01*
X74000413Y-63065664D01*
X74006312Y-63064083D01*
X74675917Y-62394478D01*
X74680412Y-62384839D01*
X74679001Y-62379575D01*
X74674997Y-62375874D01*
X74669638Y-62371762D01*
X74504398Y-62267504D01*
X74498378Y-62264437D01*
X74316904Y-62192035D01*
X74310428Y-62190117D01*
X74118799Y-62152000D01*
X74112088Y-62151295D01*
X73916718Y-62148736D01*
X73909978Y-62149267D01*
X73717427Y-62182354D01*
X73710892Y-62184105D01*
X73527590Y-62251729D01*
X73521496Y-62254635D01*
X73353581Y-62354534D01*
X73348114Y-62358506D01*
X73325956Y-62377938D01*
X73320839Y-62387264D01*
X61625500Y-62387264D01*
X61625500Y-62080252D01*
X61613867Y-62021769D01*
X61614747Y-62021594D01*
X61612916Y-61979654D01*
X61613867Y-61978231D01*
X61616541Y-61964791D01*
X61624790Y-61923318D01*
X61624790Y-61923317D01*
X61625500Y-61919748D01*
X61625500Y-61580252D01*
X61620545Y-61555340D01*
X61615289Y-61528916D01*
X61615288Y-61528914D01*
X61613867Y-61521769D01*
X61614747Y-61521594D01*
X61612916Y-61479654D01*
X61613867Y-61478231D01*
X61616067Y-61467175D01*
X61624790Y-61423318D01*
X61624790Y-61423317D01*
X61625500Y-61419748D01*
X61625500Y-61124500D01*
X61642813Y-61076934D01*
X61686650Y-61051624D01*
X61699500Y-61050500D01*
X62793084Y-61050500D01*
X62840650Y-61067813D01*
X62860816Y-61094695D01*
X62870720Y-61117203D01*
X62874112Y-61121238D01*
X62959580Y-61222916D01*
X62959583Y-61222919D01*
X62962970Y-61226948D01*
X62967357Y-61229868D01*
X63077924Y-61303469D01*
X63077927Y-61303470D01*
X63082313Y-61306390D01*
X63219157Y-61349142D01*
X63224425Y-61349239D01*
X63224428Y-61349239D01*
X63284733Y-61350344D01*
X63362499Y-61351770D01*
X63367582Y-61350384D01*
X63367584Y-61350384D01*
X63495727Y-61315448D01*
X63495729Y-61315447D01*
X63500817Y-61314060D01*
X63561904Y-61276553D01*
X63618498Y-61241804D01*
X63618499Y-61241803D01*
X63622991Y-61239045D01*
X63719200Y-61132754D01*
X63781710Y-61003733D01*
X63805496Y-60862354D01*
X63805647Y-60850000D01*
X63791733Y-60752841D01*
X63786070Y-60713297D01*
X63786070Y-60713296D01*
X63785323Y-60708082D01*
X63761928Y-60656626D01*
X63728166Y-60582371D01*
X63725984Y-60577572D01*
X63632400Y-60468963D01*
X63627981Y-60466099D01*
X63627979Y-60466097D01*
X63603144Y-60450000D01*
X72844318Y-60450000D01*
X72844951Y-60454808D01*
X72864031Y-60599735D01*
X72864956Y-60606762D01*
X72925464Y-60752841D01*
X72928414Y-60756685D01*
X72928416Y-60756689D01*
X73004120Y-60855348D01*
X73021718Y-60878282D01*
X73025569Y-60881237D01*
X73143311Y-60971584D01*
X73143315Y-60971586D01*
X73147159Y-60974536D01*
X73293238Y-61035044D01*
X73298040Y-61035676D01*
X73298043Y-61035677D01*
X73445192Y-61055049D01*
X73450000Y-61055682D01*
X73454808Y-61055049D01*
X73601957Y-61035677D01*
X73601960Y-61035676D01*
X73606762Y-61035044D01*
X73752841Y-60974536D01*
X73756685Y-60971586D01*
X73756689Y-60971584D01*
X73874431Y-60881237D01*
X73878282Y-60878282D01*
X73895880Y-60855348D01*
X73971584Y-60756689D01*
X73971586Y-60756685D01*
X73974536Y-60752841D01*
X74035044Y-60606762D01*
X74035970Y-60599735D01*
X74055049Y-60454808D01*
X74055682Y-60450000D01*
X74048290Y-60393852D01*
X74035677Y-60298043D01*
X74035676Y-60298040D01*
X74035044Y-60293238D01*
X73974536Y-60147159D01*
X73971586Y-60143315D01*
X73971584Y-60143311D01*
X73881237Y-60025569D01*
X73878282Y-60021718D01*
X73799816Y-59961509D01*
X73756689Y-59928416D01*
X73756685Y-59928414D01*
X73752841Y-59925464D01*
X73606762Y-59864956D01*
X73601960Y-59864324D01*
X73601957Y-59864323D01*
X73454808Y-59844951D01*
X73450000Y-59844318D01*
X73445192Y-59844951D01*
X73298043Y-59864323D01*
X73298040Y-59864324D01*
X73293238Y-59864956D01*
X73147159Y-59925464D01*
X73143315Y-59928414D01*
X73143311Y-59928416D01*
X73100184Y-59961509D01*
X73021718Y-60021718D01*
X73018763Y-60025569D01*
X72928416Y-60143311D01*
X72928414Y-60143315D01*
X72925464Y-60147159D01*
X72864956Y-60293238D01*
X72864324Y-60298040D01*
X72864323Y-60298043D01*
X72851710Y-60393852D01*
X72844318Y-60450000D01*
X63603144Y-60450000D01*
X63575662Y-60432187D01*
X63512095Y-60390985D01*
X63408168Y-60359904D01*
X63379792Y-60351418D01*
X63379791Y-60351418D01*
X63374739Y-60349907D01*
X63301103Y-60349457D01*
X63236646Y-60349063D01*
X63236645Y-60349063D01*
X63231376Y-60349031D01*
X63093529Y-60388428D01*
X63089069Y-60391242D01*
X63014828Y-60438084D01*
X62975341Y-60449500D01*
X61699500Y-60449500D01*
X61651934Y-60432187D01*
X61626624Y-60388350D01*
X61625500Y-60375500D01*
X61625500Y-60080252D01*
X61624790Y-60076682D01*
X61615289Y-60028916D01*
X61615288Y-60028914D01*
X61613867Y-60021769D01*
X61609818Y-60015709D01*
X61608621Y-60012820D01*
X61606411Y-59962250D01*
X61637225Y-59922090D01*
X61676987Y-59910500D01*
X64644748Y-59910500D01*
X64648317Y-59909790D01*
X64648318Y-59909790D01*
X64658705Y-59907724D01*
X64703231Y-59898867D01*
X64751206Y-59866811D01*
X64763491Y-59858602D01*
X64769552Y-59854552D01*
X64776390Y-59844318D01*
X64809816Y-59794294D01*
X64809816Y-59794293D01*
X64813867Y-59788231D01*
X64825500Y-59729748D01*
X64825500Y-57690252D01*
X64813867Y-57631769D01*
X64769552Y-57565448D01*
X64703231Y-57521133D01*
X64658705Y-57512276D01*
X64648318Y-57510210D01*
X64648317Y-57510210D01*
X64644748Y-57509500D01*
X61605252Y-57509500D01*
X61601683Y-57510210D01*
X61601682Y-57510210D01*
X61591295Y-57512276D01*
X61546769Y-57521133D01*
X61480448Y-57565448D01*
X61436133Y-57631769D01*
X61424500Y-57690252D01*
X61424500Y-59729748D01*
X61425210Y-59733317D01*
X61425210Y-59733318D01*
X61434711Y-59781080D01*
X61436133Y-59788231D01*
X61440182Y-59794291D01*
X61441379Y-59797180D01*
X61443589Y-59847750D01*
X61412775Y-59887910D01*
X61373013Y-59899500D01*
X60155252Y-59899500D01*
X60151683Y-59900210D01*
X60151682Y-59900210D01*
X60151285Y-59900289D01*
X60096769Y-59911133D01*
X60090707Y-59915184D01*
X60090706Y-59915184D01*
X60036509Y-59951398D01*
X60030448Y-59955448D01*
X60026398Y-59961509D01*
X59992113Y-60012820D01*
X59986133Y-60021769D01*
X59974500Y-60080252D01*
X59974500Y-60419748D01*
X59975210Y-60423317D01*
X59975210Y-60423318D01*
X59980518Y-60450000D01*
X59984995Y-60472510D01*
X59984995Y-60472511D01*
X59986133Y-60478231D01*
X59985253Y-60478406D01*
X59987084Y-60520346D01*
X59986133Y-60521769D01*
X59984712Y-60528914D01*
X59984711Y-60528916D01*
X59980088Y-60552160D01*
X59974500Y-60580252D01*
X59974500Y-60870877D01*
X59957187Y-60918443D01*
X59913350Y-60943753D01*
X59863500Y-60934963D01*
X59848174Y-60923203D01*
X59472174Y-60547203D01*
X59450782Y-60501327D01*
X59450500Y-60494877D01*
X59450500Y-58655123D01*
X59467813Y-58607557D01*
X59472174Y-58602797D01*
X59703470Y-58371501D01*
X59749346Y-58350109D01*
X59757152Y-58349839D01*
X59812105Y-58350846D01*
X59862499Y-58351770D01*
X59867581Y-58350385D01*
X59867585Y-58350384D01*
X59995727Y-58315448D01*
X59995729Y-58315447D01*
X60000817Y-58314060D01*
X60122991Y-58239045D01*
X60219200Y-58132754D01*
X60281710Y-58003733D01*
X60305496Y-57862354D01*
X60305647Y-57850000D01*
X60285323Y-57708082D01*
X60225984Y-57577572D01*
X60132400Y-57468963D01*
X60127981Y-57466099D01*
X60127979Y-57466097D01*
X60088068Y-57440228D01*
X60012095Y-57390985D01*
X59908168Y-57359904D01*
X59879792Y-57351418D01*
X59879791Y-57351418D01*
X59874739Y-57349907D01*
X59801103Y-57349457D01*
X59736646Y-57349063D01*
X59736645Y-57349063D01*
X59731376Y-57349031D01*
X59593529Y-57388428D01*
X59472280Y-57464930D01*
X59377377Y-57572388D01*
X59316447Y-57702163D01*
X59294391Y-57843823D01*
X59295074Y-57849046D01*
X59295074Y-57849049D01*
X59299704Y-57884453D01*
X59288705Y-57933863D01*
X59278655Y-57946374D01*
X58976099Y-58248930D01*
X58971946Y-58252515D01*
X58967731Y-58254575D01*
X58933774Y-58291181D01*
X58931848Y-58293181D01*
X58917752Y-58307277D01*
X58915824Y-58310088D01*
X58913647Y-58312707D01*
X58913515Y-58312597D01*
X58910961Y-58315773D01*
X58891599Y-58336646D01*
X58889069Y-58342988D01*
X58889065Y-58342994D01*
X58886301Y-58349923D01*
X58878593Y-58364359D01*
X58874376Y-58370507D01*
X58870508Y-58376146D01*
X58868930Y-58382796D01*
X58868929Y-58382798D01*
X58863936Y-58403840D01*
X58860668Y-58414176D01*
X58850117Y-58440622D01*
X58849500Y-58446915D01*
X58849500Y-58456012D01*
X58847500Y-58473098D01*
X58844660Y-58485066D01*
X58845582Y-58491839D01*
X58848824Y-58515663D01*
X58849500Y-58525642D01*
X58849500Y-60595433D01*
X58849098Y-60600906D01*
X58847575Y-60605342D01*
X58847831Y-60612166D01*
X58847831Y-60612167D01*
X58849448Y-60655241D01*
X58849500Y-60658017D01*
X58849500Y-60677948D01*
X58850124Y-60681300D01*
X58850437Y-60684691D01*
X58850247Y-60684709D01*
X58850706Y-60688755D01*
X58851774Y-60717208D01*
X58854471Y-60723485D01*
X58854472Y-60723490D01*
X58857416Y-60730343D01*
X58862174Y-60746002D01*
X58864791Y-60760053D01*
X58868376Y-60765868D01*
X58868377Y-60765872D01*
X58879730Y-60784290D01*
X58884726Y-60793907D01*
X58895964Y-60820063D01*
X58899978Y-60824949D01*
X58906409Y-60831380D01*
X58917076Y-60844875D01*
X58923532Y-60855348D01*
X58928971Y-60859484D01*
X58948112Y-60874039D01*
X58955646Y-60880617D01*
X59498930Y-61423901D01*
X59502515Y-61428054D01*
X59504575Y-61432269D01*
X59541181Y-61466226D01*
X59543181Y-61468152D01*
X59557277Y-61482248D01*
X59560088Y-61484176D01*
X59562707Y-61486353D01*
X59562597Y-61486485D01*
X59565773Y-61489039D01*
X59586646Y-61508401D01*
X59592988Y-61510931D01*
X59592994Y-61510935D01*
X59599923Y-61513699D01*
X59614359Y-61521407D01*
X59620507Y-61525624D01*
X59626146Y-61529492D01*
X59632796Y-61531070D01*
X59632798Y-61531071D01*
X59653840Y-61536064D01*
X59664176Y-61539332D01*
X59690622Y-61549883D01*
X59696915Y-61550500D01*
X59706012Y-61550500D01*
X59723099Y-61552500D01*
X59728415Y-61553762D01*
X59728417Y-61553762D01*
X59735066Y-61555340D01*
X59765663Y-61551176D01*
X59775642Y-61550500D01*
X59900500Y-61550500D01*
X59948066Y-61567813D01*
X59973376Y-61611650D01*
X59974500Y-61624500D01*
X59974500Y-61878844D01*
X59957187Y-61926410D01*
X59916767Y-61951034D01*
X59914621Y-61951518D01*
X59907792Y-61951774D01*
X59901515Y-61954471D01*
X59901510Y-61954472D01*
X59894657Y-61957416D01*
X59878998Y-61962174D01*
X59864947Y-61964791D01*
X59859132Y-61968376D01*
X59859128Y-61968377D01*
X59840710Y-61979730D01*
X59831093Y-61984726D01*
X59809738Y-61993901D01*
X59809736Y-61993902D01*
X59804937Y-61995964D01*
X59800051Y-61999978D01*
X59793620Y-62006409D01*
X59780125Y-62017076D01*
X59769652Y-62023532D01*
X59765516Y-62028971D01*
X59750961Y-62048112D01*
X59744383Y-62055646D01*
X58851099Y-62948930D01*
X58846946Y-62952515D01*
X58842731Y-62954575D01*
X58827417Y-62971084D01*
X58808774Y-62991181D01*
X58806848Y-62993181D01*
X58792752Y-63007277D01*
X58790824Y-63010088D01*
X58788647Y-63012707D01*
X58788515Y-63012597D01*
X58785961Y-63015773D01*
X58773770Y-63028916D01*
X58766599Y-63036646D01*
X58764069Y-63042988D01*
X58764065Y-63042994D01*
X58761301Y-63049923D01*
X58753593Y-63064359D01*
X58752635Y-63065756D01*
X58745508Y-63076146D01*
X58743930Y-63082796D01*
X58743929Y-63082798D01*
X58738936Y-63103840D01*
X58735668Y-63114176D01*
X58725117Y-63140622D01*
X58724500Y-63146915D01*
X58724500Y-63156012D01*
X58722500Y-63173098D01*
X58719660Y-63185066D01*
X58720582Y-63191839D01*
X58723824Y-63215663D01*
X58724500Y-63225642D01*
X58724500Y-63733553D01*
X58707187Y-63781119D01*
X58700379Y-63787975D01*
X58697280Y-63789930D01*
X58677705Y-63812095D01*
X58612501Y-63885925D01*
X58602377Y-63897388D01*
X58541447Y-64027163D01*
X58540637Y-64032368D01*
X58540636Y-64032370D01*
X58539713Y-64038297D01*
X58519391Y-64168823D01*
X50200000Y-64168823D01*
X50200000Y-63541973D01*
X50892776Y-63541973D01*
X50894173Y-63547183D01*
X50895059Y-63547941D01*
X51094404Y-63694105D01*
X51099033Y-63696998D01*
X51317796Y-63812095D01*
X51322817Y-63814279D01*
X51556181Y-63895773D01*
X51561476Y-63897191D01*
X51804316Y-63943297D01*
X51809758Y-63943917D01*
X52056751Y-63953621D01*
X52062229Y-63953430D01*
X52307933Y-63926521D01*
X52313331Y-63925520D01*
X52552359Y-63862589D01*
X52557540Y-63860805D01*
X52784649Y-63763232D01*
X52789513Y-63760699D01*
X52999701Y-63630631D01*
X53004136Y-63627408D01*
X53099056Y-63547053D01*
X53101959Y-63541973D01*
X55892776Y-63541973D01*
X55894173Y-63547183D01*
X55895059Y-63547941D01*
X56094404Y-63694105D01*
X56099033Y-63696998D01*
X56317796Y-63812095D01*
X56322817Y-63814279D01*
X56556181Y-63895773D01*
X56561476Y-63897191D01*
X56804316Y-63943297D01*
X56809758Y-63943917D01*
X57056751Y-63953621D01*
X57062229Y-63953430D01*
X57307933Y-63926521D01*
X57313331Y-63925520D01*
X57552359Y-63862589D01*
X57557540Y-63860805D01*
X57784649Y-63763232D01*
X57789513Y-63760699D01*
X57999701Y-63630631D01*
X58004136Y-63627408D01*
X58099056Y-63547053D01*
X58104335Y-63537816D01*
X58103480Y-63533085D01*
X57009226Y-62438831D01*
X56999587Y-62434336D01*
X56993688Y-62435917D01*
X55897271Y-63532334D01*
X55892776Y-63541973D01*
X53101959Y-63541973D01*
X53104335Y-63537816D01*
X53103480Y-63533085D01*
X52009226Y-62438831D01*
X51999587Y-62434336D01*
X51993688Y-62435917D01*
X50897271Y-63532334D01*
X50892776Y-63541973D01*
X50200000Y-63541973D01*
X50200000Y-62666440D01*
X50217313Y-62618874D01*
X50261150Y-62593564D01*
X50311000Y-62602354D01*
X50343537Y-62641131D01*
X50346578Y-62652003D01*
X50356699Y-62702884D01*
X50358164Y-62708165D01*
X50441691Y-62940808D01*
X50443916Y-62945807D01*
X50560913Y-63163549D01*
X50563859Y-63168174D01*
X50700703Y-63351430D01*
X50709598Y-63357262D01*
X50713608Y-63356787D01*
X51811169Y-62259226D01*
X51815279Y-62250413D01*
X52184336Y-62250413D01*
X52185917Y-62256312D01*
X53279407Y-63349802D01*
X53289046Y-63354297D01*
X53293930Y-63352988D01*
X53359679Y-63278015D01*
X53362971Y-63273648D01*
X53496692Y-63065756D01*
X53499308Y-63060937D01*
X53600827Y-62835572D01*
X53602703Y-62830422D01*
X53669798Y-62592517D01*
X53670890Y-62587151D01*
X53702196Y-62341070D01*
X53702480Y-62337365D01*
X53704718Y-62251854D01*
X53704630Y-62248152D01*
X53701655Y-62208118D01*
X55295949Y-62208118D01*
X55307808Y-62455021D01*
X55308475Y-62460449D01*
X55356699Y-62702884D01*
X55358164Y-62708165D01*
X55441691Y-62940808D01*
X55443916Y-62945807D01*
X55560913Y-63163549D01*
X55563859Y-63168174D01*
X55700703Y-63351430D01*
X55709598Y-63357262D01*
X55713608Y-63356787D01*
X56811169Y-62259226D01*
X56815279Y-62250413D01*
X57184336Y-62250413D01*
X57185917Y-62256312D01*
X58279407Y-63349802D01*
X58289046Y-63354297D01*
X58293930Y-63352988D01*
X58359679Y-63278015D01*
X58362971Y-63273648D01*
X58496692Y-63065756D01*
X58499308Y-63060937D01*
X58600827Y-62835572D01*
X58602703Y-62830422D01*
X58669798Y-62592517D01*
X58670890Y-62587151D01*
X58702196Y-62341070D01*
X58702480Y-62337365D01*
X58704718Y-62251854D01*
X58704630Y-62248152D01*
X58686245Y-62000748D01*
X58685437Y-61995345D01*
X58630884Y-61754258D01*
X58629281Y-61749012D01*
X58539691Y-61518633D01*
X58537338Y-61513699D01*
X58414678Y-61299089D01*
X58411614Y-61294547D01*
X58297780Y-61150150D01*
X58288735Y-61144552D01*
X58284428Y-61145177D01*
X57188831Y-62240774D01*
X57184336Y-62250413D01*
X56815279Y-62250413D01*
X56815664Y-62249587D01*
X56814083Y-62243688D01*
X55720473Y-61150078D01*
X55710834Y-61145583D01*
X55706302Y-61146798D01*
X55613882Y-61257922D01*
X55610693Y-61262394D01*
X55482467Y-61473702D01*
X55479980Y-61478582D01*
X55384391Y-61706536D01*
X55382652Y-61711734D01*
X55321807Y-61951311D01*
X55320858Y-61956696D01*
X55296092Y-62202642D01*
X55295949Y-62208118D01*
X53701655Y-62208118D01*
X53686245Y-62000748D01*
X53685437Y-61995345D01*
X53630884Y-61754258D01*
X53629281Y-61749012D01*
X53539691Y-61518633D01*
X53537338Y-61513699D01*
X53414678Y-61299089D01*
X53411614Y-61294547D01*
X53297780Y-61150150D01*
X53288735Y-61144552D01*
X53284428Y-61145177D01*
X52188831Y-62240774D01*
X52184336Y-62250413D01*
X51815279Y-62250413D01*
X51815664Y-62249587D01*
X51814083Y-62243688D01*
X50720473Y-61150078D01*
X50710834Y-61145583D01*
X50706302Y-61146798D01*
X50613882Y-61257922D01*
X50610693Y-61262394D01*
X50482467Y-61473702D01*
X50479980Y-61478582D01*
X50384391Y-61706536D01*
X50382652Y-61711734D01*
X50345723Y-61857143D01*
X50317234Y-61898984D01*
X50268516Y-61912725D01*
X50222364Y-61891934D01*
X50200372Y-61846342D01*
X50200000Y-61838928D01*
X50200000Y-60961906D01*
X50895528Y-60961906D01*
X50896583Y-60966978D01*
X51990774Y-62061169D01*
X52000413Y-62065664D01*
X52006312Y-62064083D01*
X53100927Y-60969468D01*
X53104453Y-60961906D01*
X55895528Y-60961906D01*
X55896583Y-60966978D01*
X56990774Y-62061169D01*
X57000413Y-62065664D01*
X57006312Y-62064083D01*
X58100927Y-60969468D01*
X58105422Y-60959829D01*
X58103975Y-60954430D01*
X58074846Y-60927029D01*
X58070589Y-60923582D01*
X57867494Y-60782690D01*
X57862769Y-60779907D01*
X57641081Y-60670583D01*
X57635998Y-60668530D01*
X57400594Y-60593176D01*
X57395254Y-60591894D01*
X57151281Y-60552160D01*
X57145844Y-60551684D01*
X56898671Y-60548449D01*
X56893203Y-60548784D01*
X56648274Y-60582117D01*
X56642931Y-60583252D01*
X56405608Y-60652425D01*
X56400492Y-60654338D01*
X56176001Y-60757830D01*
X56171219Y-60760481D01*
X55964502Y-60896010D01*
X55960152Y-60899348D01*
X55900564Y-60952533D01*
X55895528Y-60961906D01*
X53104453Y-60961906D01*
X53105422Y-60959829D01*
X53103975Y-60954430D01*
X53074846Y-60927029D01*
X53070589Y-60923582D01*
X52867494Y-60782690D01*
X52862769Y-60779907D01*
X52641081Y-60670583D01*
X52635998Y-60668530D01*
X52400594Y-60593176D01*
X52395254Y-60591894D01*
X52151281Y-60552160D01*
X52145844Y-60551684D01*
X51898671Y-60548449D01*
X51893203Y-60548784D01*
X51648274Y-60582117D01*
X51642931Y-60583252D01*
X51405608Y-60652425D01*
X51400492Y-60654338D01*
X51176001Y-60757830D01*
X51171219Y-60760481D01*
X50964502Y-60896010D01*
X50960152Y-60899348D01*
X50900564Y-60952533D01*
X50895528Y-60961906D01*
X50200000Y-60961906D01*
X50200000Y-52866058D01*
X55950000Y-52866058D01*
X55950710Y-52873268D01*
X55960182Y-52920890D01*
X55965652Y-52934094D01*
X56001759Y-52988132D01*
X56011868Y-52998241D01*
X56065906Y-53034348D01*
X56079110Y-53039818D01*
X56126732Y-53049290D01*
X56133942Y-53050000D01*
X56859952Y-53050000D01*
X56869948Y-53046362D01*
X56873000Y-53041075D01*
X56873000Y-53036952D01*
X57127000Y-53036952D01*
X57130638Y-53046948D01*
X57135925Y-53050000D01*
X57866058Y-53050000D01*
X57873268Y-53049290D01*
X57920890Y-53039818D01*
X57934094Y-53034348D01*
X57988132Y-52998241D01*
X57998241Y-52988132D01*
X58034348Y-52934094D01*
X58039818Y-52920890D01*
X58049290Y-52873268D01*
X58050000Y-52866058D01*
X58050000Y-52140048D01*
X58046362Y-52130052D01*
X58041075Y-52127000D01*
X57140048Y-52127000D01*
X57130052Y-52130638D01*
X57127000Y-52135925D01*
X57127000Y-53036952D01*
X56873000Y-53036952D01*
X56873000Y-52140048D01*
X56869362Y-52130052D01*
X56864075Y-52127000D01*
X55963048Y-52127000D01*
X55953052Y-52130638D01*
X55950000Y-52135925D01*
X55950000Y-52866058D01*
X50200000Y-52866058D01*
X50200000Y-51859952D01*
X55950000Y-51859952D01*
X55953638Y-51869948D01*
X55958925Y-51873000D01*
X56859952Y-51873000D01*
X56869948Y-51869362D01*
X56873000Y-51864075D01*
X56873000Y-51859952D01*
X57127000Y-51859952D01*
X57130638Y-51869948D01*
X57135925Y-51873000D01*
X58036952Y-51873000D01*
X58046948Y-51869362D01*
X58050000Y-51864075D01*
X58050000Y-51133942D01*
X58049290Y-51126732D01*
X58039818Y-51079110D01*
X58034348Y-51065906D01*
X57998241Y-51011868D01*
X57988132Y-51001759D01*
X57934094Y-50965652D01*
X57920890Y-50960182D01*
X57873268Y-50950710D01*
X57866058Y-50950000D01*
X57140048Y-50950000D01*
X57130052Y-50953638D01*
X57127000Y-50958925D01*
X57127000Y-51859952D01*
X56873000Y-51859952D01*
X56873000Y-50963048D01*
X56869362Y-50953052D01*
X56864075Y-50950000D01*
X56133942Y-50950000D01*
X56126732Y-50950710D01*
X56079110Y-50960182D01*
X56065906Y-50965652D01*
X56011868Y-51001759D01*
X56001759Y-51011868D01*
X55965652Y-51065906D01*
X55960182Y-51079110D01*
X55950710Y-51126732D01*
X55950000Y-51133942D01*
X55950000Y-51859952D01*
X50200000Y-51859952D01*
X50200000Y-51031124D01*
X50201882Y-51014540D01*
X50202579Y-51011509D01*
X50205143Y-51000359D01*
X50203303Y-50992230D01*
X50203318Y-50983898D01*
X50203418Y-50983898D01*
X50202708Y-50972504D01*
X50203640Y-50963048D01*
X50206173Y-50937322D01*
X50214658Y-50851181D01*
X50217488Y-50836954D01*
X50258782Y-50700825D01*
X50264331Y-50687430D01*
X50331391Y-50561969D01*
X50339447Y-50549913D01*
X50429691Y-50439949D01*
X50439949Y-50429691D01*
X50549913Y-50339447D01*
X50561969Y-50331391D01*
X50687430Y-50264331D01*
X50700822Y-50258783D01*
X50761034Y-50240518D01*
X50836954Y-50217488D01*
X50851181Y-50214658D01*
X50924393Y-50207447D01*
X50972049Y-50202753D01*
X50983187Y-50203466D01*
X50983187Y-50203261D01*
X50991522Y-50203276D01*
X50999643Y-50205143D01*
X51007770Y-50203304D01*
X51007772Y-50203304D01*
X51014307Y-50201825D01*
X51030638Y-50200000D01*
X124968877Y-50200000D01*
X124985461Y-50201882D01*
G37*
%TD.AperFunction*%
%TD*%
M02*
