M48
; DRILL file {KiCad (6.0.2)} date Sat Apr  9 16:32:04 2022
; FORMAT={-:-/ absolute / inch / decimal}
; #@! TF.CreationDate,2022-04-09T16:32:04-06:00
; #@! TF.GenerationSoftware,Kicad,Pcbnew,(6.0.2)
; #@! TF.FileFunction,Plated,1,2,PTH
FMAT,2
INCH
; #@! TA.AperFunction,Plated,PTH,ViaDrill
T1C0.0118
; #@! TA.AperFunction,Plated,PTH,ViaDrill
T2C0.0157
; #@! TA.AperFunction,Plated,PTH,ComponentDrill
T3C0.0315
; #@! TA.AperFunction,Plated,PTH,ComponentDrill
T4C0.0394
; #@! TA.AperFunction,Plated,PTH,ComponentDrill
T5C0.0728
%
G90
G05
T1
X2.1516Y-2.5728
X2.1516Y-2.628
X2.2579Y-2.2264
X2.3248Y-2.6339
X2.3287Y-2.5512
X2.3366Y-2.4902
X2.3425Y-2.4528
X2.3878Y-2.3366
X2.3898Y-2.1693
X2.4547Y-2.3661
X2.4685Y-2.7717
X2.4705Y-2.4035
X2.4724Y-2.4567
X2.4724Y-2.7224
X2.498Y-2.2185
X2.5354Y-2.5674
X2.5433Y-2.7579
X2.5846Y-2.5217
X2.5906Y-2.2933
X2.6378Y-2.9587
X2.6398Y-3.1142
X2.6713Y-2.8563
X2.7106Y-2.5354
X2.7146Y-2.3524
X2.7776Y-2.4114
X2.8445Y-2.998
X2.874Y-2.5571
X2.8858Y-2.9094
X2.9724Y-2.063
X2.9843Y-2.3346
X2.9882Y-3.061
X2.998Y-2.9528
X3.024Y-2.8933
X3.0276Y-2.7559
X3.0315Y-2.8563
X3.0571Y-2.1398
X3.0591Y-1.9941
X3.061Y-2.624
X3.0686Y-2.8488
X3.0689Y-2.3346
X3.0965Y-3.185
X3.1083Y-2.4587
X3.1083Y-2.8406
X3.1457Y-2.8307
X3.2028Y-2.876
X3.2067Y-2.6909
X3.2205Y-3.0925
X3.2303Y-1.9921
X3.2323Y-2.2165
X3.2402Y-2.9646
X3.2402Y-3.0059
X3.2795Y-2.1791
X3.2835Y-2.8957
X3.3012Y-2.435
X3.3307Y-2.002
X3.3366Y-2.1063
X3.3583Y-2.9213
X3.374Y-3.1457
X3.3819Y-2.0984
X3.3917Y-2.2264
X3.3957Y-2.7717
X3.4449Y-2.1024
X3.4469Y-2.9528
X3.4626Y-3.1476
X3.4646Y-2.7717
X3.5079Y-2.2795
X3.5079Y-2.687
X3.5079Y-2.9646
X3.5138Y-2.1831
X3.5177Y-3.0374
X3.5256Y-2.7736
X3.5335Y-3.1142
X3.5374Y-2.439
X3.5807Y-2.2264
X3.6358Y-2.9921
X3.6378Y-3.1476
X3.6693Y-2.3957
X3.7087Y-3.063
X3.7283Y-3.185
X3.8031Y-2.3327
X3.8031Y-2.815
X3.8366Y-2.1575
X3.8445Y-2.1949
X3.8445Y-2.2795
X3.8465Y-2.2461
X3.8957Y-3.1594
X3.9941Y-2.9921
X4.124Y-3.1693
X4.1535Y-3.0
X4.1732Y-2.5669
X4.1752Y-2.187
X4.1752Y-2.8445
X4.2677Y-2.0984
X4.2697Y-3.1575
X4.3268Y-3.0551
X4.3425Y-2.1398
X4.3445Y-2.3839
X4.3445Y-2.6142
X4.5846Y-2.7461
X4.6398Y-3.2028
X4.6496Y-2.0118
X4.813Y-3.2008
X4.8248Y-2.0118
X4.8406Y-2.4587
X4.8406Y-2.5059
X4.8406Y-2.5472
X4.8406Y-2.5846
X4.8406Y-2.628
X4.8602Y-2.6614
X4.8622Y-2.7067
X4.8819Y-2.4567
X4.9016Y-2.6535
X4.9016Y-2.689
X4.9409Y-2.4567
X4.9508Y-2.0059
X4.9783Y-2.4547
X5.002Y-2.0965
X5.0079Y-2.3445
X5.0118Y-2.2559
X5.0177Y-2.4547
X5.0217Y-2.7657
T2
X2.4311Y-3.187
X2.8917Y-2.3799
X4.9016Y-3.1988
T3
X2.9134Y-2.4902
X2.9134Y-2.7067
T4
X2.2441Y-2.0472
X2.2441Y-3.1496
X4.4301Y-2.7067
X4.4301Y-2.8067
X4.4301Y-2.9067
X4.4301Y-3.0067
X4.5276Y-2.0472
X4.5276Y-3.1496
T5
X2.0472Y-2.4508
X2.0472Y-2.7461
X2.2441Y-2.4508
X2.2441Y-2.7461
T0
M30
