%TF.GenerationSoftware,KiCad,Pcbnew,(6.0.0)*%
%TF.CreationDate,2022-02-06T18:07:19-07:00*%
%TF.ProjectId,SolarGPS,536f6c61-7247-4505-932e-6b696361645f,rev?*%
%TF.SameCoordinates,Original*%
%TF.FileFunction,Soldermask,Bot*%
%TF.FilePolarity,Negative*%
%FSLAX46Y46*%
G04 Gerber Fmt 4.6, Leading zero omitted, Abs format (unit mm)*
G04 Created by KiCad (PCBNEW (6.0.0)) date 2022-02-06 18:07:19*
%MOMM*%
%LPD*%
G01*
G04 APERTURE LIST*
%ADD10C,0.300000*%
%ADD11R,1.700000X1.700000*%
%ADD12O,1.700000X1.700000*%
%ADD13C,0.990600*%
%ADD14C,3.000000*%
%ADD15C,1.524000*%
G04 APERTURE END LIST*
D10*
X93385714Y-65478928D02*
X92885714Y-66193214D01*
X92528571Y-65478928D02*
X92528571Y-66978928D01*
X93100000Y-66978928D01*
X93242857Y-66907500D01*
X93314285Y-66836071D01*
X93385714Y-66693214D01*
X93385714Y-66478928D01*
X93314285Y-66336071D01*
X93242857Y-66264642D01*
X93100000Y-66193214D01*
X92528571Y-66193214D01*
X94028571Y-66264642D02*
X94528571Y-66264642D01*
X94742857Y-65478928D02*
X94028571Y-65478928D01*
X94028571Y-66978928D01*
X94742857Y-66978928D01*
X95314285Y-65907500D02*
X96028571Y-65907500D01*
X95171428Y-65478928D02*
X95671428Y-66978928D01*
X96171428Y-65478928D01*
X97385714Y-65478928D02*
X96671428Y-65478928D01*
X96671428Y-66978928D01*
X93100000Y-64492500D02*
X92957142Y-64563928D01*
X92742857Y-64563928D01*
X92528571Y-64492500D01*
X92385714Y-64349642D01*
X92314285Y-64206785D01*
X92242857Y-63921071D01*
X92242857Y-63706785D01*
X92314285Y-63421071D01*
X92385714Y-63278214D01*
X92528571Y-63135357D01*
X92742857Y-63063928D01*
X92885714Y-63063928D01*
X93100000Y-63135357D01*
X93171428Y-63206785D01*
X93171428Y-63706785D01*
X92885714Y-63706785D01*
X94100000Y-64563928D02*
X94385714Y-64563928D01*
X94528571Y-64492500D01*
X94671428Y-64349642D01*
X94742857Y-64063928D01*
X94742857Y-63563928D01*
X94671428Y-63278214D01*
X94528571Y-63135357D01*
X94385714Y-63063928D01*
X94100000Y-63063928D01*
X93957142Y-63135357D01*
X93814285Y-63278214D01*
X93742857Y-63563928D01*
X93742857Y-64063928D01*
X93814285Y-64349642D01*
X93957142Y-64492500D01*
X94100000Y-64563928D01*
X96100000Y-63063928D02*
X95385714Y-63063928D01*
X95385714Y-64563928D01*
X96600000Y-63063928D02*
X96600000Y-64563928D01*
X96957142Y-64563928D01*
X97171428Y-64492500D01*
X97314285Y-64349642D01*
X97385714Y-64206785D01*
X97457142Y-63921071D01*
X97457142Y-63706785D01*
X97385714Y-63421071D01*
X97314285Y-63278214D01*
X97171428Y-63135357D01*
X96957142Y-63063928D01*
X96600000Y-63063928D01*
D11*
%TO.C,J8*%
X85300000Y-77050000D03*
D12*
X87840000Y-77050000D03*
X90380000Y-77050000D03*
X92920000Y-77050000D03*
%TD*%
D13*
%TO.C,J4*%
X55150000Y-75300000D03*
X56166000Y-70220000D03*
X57182000Y-75300000D03*
%TD*%
D11*
%TO.C,J2*%
X110000000Y-50000000D03*
%TD*%
%TO.C,J5*%
X110000000Y-77000000D03*
%TD*%
%TO.C,J6*%
X53000000Y-77000000D03*
%TD*%
D14*
%TO.C,J7*%
X54000000Y-59750000D03*
X49000000Y-59750000D03*
X49000000Y-67250000D03*
X54000000Y-67250000D03*
%TD*%
D11*
%TO.C,J3*%
X53000000Y-50000000D03*
%TD*%
D15*
%TO.C,C17*%
X59000000Y-66250000D03*
X59000000Y-60750000D03*
%TD*%
%TO.C,C14*%
X82900000Y-66200000D03*
X82900000Y-60700000D03*
%TD*%
M02*
