%TF.GenerationSoftware,KiCad,Pcbnew,(6.0.1)*%
%TF.CreationDate,2022-04-20T12:26:56-06:00*%
%TF.ProjectId,SolarGPS,536f6c61-7247-4505-932e-6b696361645f,rev?*%
%TF.SameCoordinates,Original*%
%TF.FileFunction,Soldermask,Bot*%
%TF.FilePolarity,Negative*%
%FSLAX46Y46*%
G04 Gerber Fmt 4.6, Leading zero omitted, Abs format (unit mm)*
G04 Created by KiCad (PCBNEW (6.0.1)) date 2022-04-20 12:26:56*
%MOMM*%
%LPD*%
G01*
G04 APERTURE LIST*
G04 Aperture macros list*
%AMRoundRect*
0 Rectangle with rounded corners*
0 $1 Rounding radius*
0 $2 $3 $4 $5 $6 $7 $8 $9 X,Y pos of 4 corners*
0 Add a 4 corners polygon primitive as box body*
4,1,4,$2,$3,$4,$5,$6,$7,$8,$9,$2,$3,0*
0 Add four circle primitives for the rounded corners*
1,1,$1+$1,$2,$3*
1,1,$1+$1,$4,$5*
1,1,$1+$1,$6,$7*
1,1,$1+$1,$8,$9*
0 Add four rect primitives between the rounded corners*
20,1,$1+$1,$2,$3,$4,$5,0*
20,1,$1+$1,$4,$5,$6,$7,0*
20,1,$1+$1,$6,$7,$8,$9,0*
20,1,$1+$1,$8,$9,$2,$3,0*%
G04 Aperture macros list end*
%ADD10C,2.000000*%
%ADD11C,3.000000*%
%ADD12R,1.700000X1.700000*%
%ADD13O,1.700000X1.700000*%
%ADD14RoundRect,0.218750X-0.218750X-0.256250X0.218750X-0.256250X0.218750X0.256250X-0.218750X0.256250X0*%
%ADD15RoundRect,0.225000X-0.250000X0.225000X-0.250000X-0.225000X0.250000X-0.225000X0.250000X0.225000X0*%
%ADD16RoundRect,0.218750X0.218750X0.256250X-0.218750X0.256250X-0.218750X-0.256250X0.218750X-0.256250X0*%
%ADD17RoundRect,0.087500X0.087500X-0.187500X0.087500X0.187500X-0.087500X0.187500X-0.087500X-0.187500X0*%
%ADD18RoundRect,0.087500X0.187500X-0.087500X0.187500X0.087500X-0.187500X0.087500X-0.187500X-0.087500X0*%
%ADD19RoundRect,0.200000X-0.275000X0.200000X-0.275000X-0.200000X0.275000X-0.200000X0.275000X0.200000X0*%
%ADD20RoundRect,0.200000X-0.200000X-0.275000X0.200000X-0.275000X0.200000X0.275000X-0.200000X0.275000X0*%
%ADD21RoundRect,0.225000X0.225000X0.250000X-0.225000X0.250000X-0.225000X-0.250000X0.225000X-0.250000X0*%
%ADD22RoundRect,0.062500X0.062500X-0.375000X0.062500X0.375000X-0.062500X0.375000X-0.062500X-0.375000X0*%
%ADD23RoundRect,0.062500X0.375000X-0.062500X0.375000X0.062500X-0.375000X0.062500X-0.375000X-0.062500X0*%
%ADD24R,3.100000X3.100000*%
%ADD25R,0.550000X1.600000*%
%ADD26R,1.600000X0.550000*%
%ADD27RoundRect,0.225000X0.250000X-0.225000X0.250000X0.225000X-0.250000X0.225000X-0.250000X-0.225000X0*%
%ADD28RoundRect,0.225000X-0.225000X-0.250000X0.225000X-0.250000X0.225000X0.250000X-0.225000X0.250000X0*%
%ADD29R,0.600000X0.450000*%
%ADD30RoundRect,0.500000X-2.500000X-0.500000X2.500000X-0.500000X2.500000X0.500000X-2.500000X0.500000X0*%
%ADD31R,0.450000X0.600000*%
%ADD32RoundRect,0.150000X-0.512500X-0.150000X0.512500X-0.150000X0.512500X0.150000X-0.512500X0.150000X0*%
%ADD33RoundRect,0.200000X0.200000X0.275000X-0.200000X0.275000X-0.200000X-0.275000X0.200000X-0.275000X0*%
%ADD34R,3.700000X1.200000*%
%ADD35RoundRect,0.150000X-0.587500X-0.150000X0.587500X-0.150000X0.587500X0.150000X-0.587500X0.150000X0*%
%ADD36R,1.800000X1.000000*%
G04 APERTURE END LIST*
D10*
%TO.C,TP1*%
X96200000Y-78150000D03*
%TD*%
D11*
%TO.C,J7*%
X57000000Y-62250000D03*
X52000000Y-62250000D03*
X52000000Y-69750000D03*
X57000000Y-69750000D03*
%TD*%
D12*
%TO.C,J4*%
X71875000Y-77900000D03*
D13*
X71875000Y-80440000D03*
X69335000Y-77900000D03*
X69335000Y-80440000D03*
X66795000Y-77900000D03*
X66795000Y-80440000D03*
%TD*%
D14*
%TO.C,R3*%
X58612500Y-54800000D03*
X60187500Y-54800000D03*
%TD*%
D15*
%TO.C,C5*%
X127850000Y-77825000D03*
X127850000Y-79375000D03*
%TD*%
D16*
%TO.C,C9*%
X57187500Y-59400000D03*
X55612500Y-59400000D03*
%TD*%
%TO.C,C20*%
X62937500Y-63050000D03*
X61362500Y-63050000D03*
%TD*%
D15*
%TO.C,C26*%
X78200000Y-68925000D03*
X78200000Y-70475000D03*
%TD*%
D17*
%TO.C,U6*%
X76500000Y-72125000D03*
X76000000Y-72125000D03*
X75500000Y-72125000D03*
X75000000Y-72125000D03*
X74500000Y-72125000D03*
D18*
X74275000Y-71400000D03*
X74275000Y-70900000D03*
X74275000Y-70400000D03*
D17*
X74500000Y-69675000D03*
X75000000Y-69675000D03*
X75500000Y-69675000D03*
X76000000Y-69675000D03*
X76500000Y-69675000D03*
D18*
X76725000Y-70400000D03*
X76725000Y-70900000D03*
X76725000Y-71400000D03*
%TD*%
D19*
%TO.C,R7*%
X115500000Y-63525000D03*
X115500000Y-65175000D03*
%TD*%
D20*
%TO.C,TH1*%
X91875000Y-71700000D03*
X93525000Y-71700000D03*
%TD*%
D21*
%TO.C,C10*%
X76775000Y-81200000D03*
X75225000Y-81200000D03*
%TD*%
D12*
%TO.C,J2*%
X53000000Y-80000000D03*
%TD*%
D22*
%TO.C,U3*%
X87050000Y-77337500D03*
X86550000Y-77337500D03*
X86050000Y-77337500D03*
X85550000Y-77337500D03*
X85050000Y-77337500D03*
X84550000Y-77337500D03*
X84050000Y-77337500D03*
X83550000Y-77337500D03*
D23*
X82862500Y-76650000D03*
X82862500Y-76150000D03*
X82862500Y-75650000D03*
X82862500Y-75150000D03*
X82862500Y-74650000D03*
X82862500Y-74150000D03*
X82862500Y-73650000D03*
X82862500Y-73150000D03*
D22*
X83550000Y-72462500D03*
X84050000Y-72462500D03*
X84550000Y-72462500D03*
X85050000Y-72462500D03*
X85550000Y-72462500D03*
X86050000Y-72462500D03*
X86550000Y-72462500D03*
X87050000Y-72462500D03*
D23*
X87737500Y-73150000D03*
X87737500Y-73650000D03*
X87737500Y-74150000D03*
X87737500Y-74650000D03*
X87737500Y-75150000D03*
X87737500Y-75650000D03*
X87737500Y-76150000D03*
X87737500Y-76650000D03*
D24*
X85300000Y-74900000D03*
%TD*%
D25*
%TO.C,U4*%
X88100000Y-79050000D03*
X87300000Y-79050000D03*
X86500000Y-79050000D03*
X85700000Y-79050000D03*
X84900000Y-79050000D03*
X83300000Y-79050000D03*
X82500000Y-79050000D03*
D26*
X81050000Y-77600000D03*
X81050000Y-76800000D03*
X81050000Y-76000000D03*
X81050000Y-75200000D03*
X81050000Y-74400000D03*
X81050000Y-73600000D03*
X81050000Y-72800000D03*
X81050000Y-72000000D03*
D25*
X82500000Y-70550000D03*
X83300000Y-70550000D03*
X84100000Y-70550000D03*
X84900000Y-70550000D03*
X85700000Y-70550000D03*
X86500000Y-70550000D03*
X87300000Y-70550000D03*
X88100000Y-70550000D03*
D26*
X89550000Y-72000000D03*
X89550000Y-72800000D03*
X89550000Y-73600000D03*
X89550000Y-74400000D03*
X89550000Y-75200000D03*
X89550000Y-76000000D03*
X89550000Y-76800000D03*
X89550000Y-77600000D03*
%TD*%
D21*
%TO.C,C14*%
X85975000Y-81000000D03*
X84425000Y-81000000D03*
%TD*%
D27*
%TO.C,C21*%
X57800000Y-75625000D03*
X57800000Y-74075000D03*
%TD*%
D12*
%TO.C,J3*%
X53000000Y-52000000D03*
%TD*%
D27*
%TO.C,C17*%
X83300000Y-68675000D03*
X83300000Y-67125000D03*
%TD*%
D28*
%TO.C,C3*%
X61075000Y-70950000D03*
X62625000Y-70950000D03*
%TD*%
D15*
%TO.C,C22*%
X64780000Y-58250000D03*
X64780000Y-59800000D03*
%TD*%
D29*
%TO.C,D1*%
X103450000Y-79650000D03*
X105550000Y-79650000D03*
%TD*%
D30*
%TO.C,C8*%
X70500000Y-66250000D03*
X70500000Y-61750000D03*
%TD*%
D28*
%TO.C,C19*%
X84925000Y-68600000D03*
X86475000Y-68600000D03*
%TD*%
D15*
%TO.C,C2*%
X59350000Y-74075000D03*
X59350000Y-75625000D03*
%TD*%
D31*
%TO.C,D5*%
X65000000Y-61400000D03*
X65000000Y-63500000D03*
%TD*%
D32*
%TO.C,U1*%
X115562500Y-68700000D03*
X115562500Y-67750000D03*
X115562500Y-66800000D03*
X117837500Y-66800000D03*
X117837500Y-68700000D03*
%TD*%
D28*
%TO.C,C16*%
X61075000Y-67900000D03*
X62625000Y-67900000D03*
%TD*%
D31*
%TO.C,D3*%
X109750000Y-66050000D03*
X109750000Y-63950000D03*
%TD*%
%TO.C,D4*%
X63000000Y-60400000D03*
X63000000Y-58300000D03*
%TD*%
D27*
%TO.C,C7*%
X90650000Y-70175000D03*
X90650000Y-68625000D03*
%TD*%
%TO.C,C18*%
X64600000Y-79475000D03*
X64600000Y-77925000D03*
%TD*%
D28*
%TO.C,C6*%
X61075000Y-69450000D03*
X62625000Y-69450000D03*
%TD*%
D12*
%TO.C,J6*%
X115000000Y-52000000D03*
%TD*%
D33*
%TO.C,R2*%
X98575000Y-72600000D03*
X96925000Y-72600000D03*
%TD*%
D21*
%TO.C,C4*%
X76775000Y-79600000D03*
X75225000Y-79600000D03*
%TD*%
D12*
%TO.C,J5*%
X115000000Y-80000000D03*
%TD*%
%TO.C,J8*%
X112625000Y-68750000D03*
D13*
X112625000Y-71290000D03*
X112625000Y-73830000D03*
X112625000Y-76370000D03*
%TD*%
D29*
%TO.C,D6*%
X66150000Y-59750000D03*
X68250000Y-59750000D03*
%TD*%
D34*
%TO.C,L1*%
X67650000Y-53000000D03*
X67650000Y-55800000D03*
%TD*%
D19*
%TO.C,R1*%
X92200000Y-68575000D03*
X92200000Y-70225000D03*
%TD*%
D35*
%TO.C,Q1*%
X62462500Y-56700000D03*
X62462500Y-54800000D03*
X64337500Y-55750000D03*
%TD*%
D36*
%TO.C,Y1*%
X78700000Y-81150000D03*
X78700000Y-78650000D03*
%TD*%
D21*
%TO.C,C15*%
X62625000Y-66350000D03*
X61075000Y-66350000D03*
%TD*%
M02*
