%TF.GenerationSoftware,KiCad,Pcbnew,(6.0.2)*%
%TF.CreationDate,2022-04-10T10:34:04-06:00*%
%TF.ProjectId,SolarGPS,536f6c61-7247-4505-932e-6b696361645f,rev?*%
%TF.SameCoordinates,Original*%
%TF.FileFunction,Legend,Top*%
%TF.FilePolarity,Positive*%
%FSLAX46Y46*%
G04 Gerber Fmt 4.6, Leading zero omitted, Abs format (unit mm)*
G04 Created by KiCad (PCBNEW (6.0.2)) date 2022-04-10 10:34:04*
%MOMM*%
%LPD*%
G01*
G04 APERTURE LIST*
%ADD10C,0.150000*%
%ADD11C,0.250000*%
%ADD12C,0.200000*%
%ADD13C,0.180000*%
%ADD14C,0.120000*%
G04 APERTURE END LIST*
D10*
X51126190Y-51302380D02*
X51459523Y-52302380D01*
X51792857Y-51302380D01*
X52650000Y-52302380D02*
X52078571Y-52302380D01*
X52364285Y-52302380D02*
X52364285Y-51302380D01*
X52269047Y-51445238D01*
X52173809Y-51540476D01*
X52078571Y-51588095D01*
X53078571Y-52207142D02*
X53126190Y-52254761D01*
X53078571Y-52302380D01*
X53030952Y-52254761D01*
X53078571Y-52207142D01*
X53078571Y-52302380D01*
X53459523Y-51302380D02*
X54078571Y-51302380D01*
X53745238Y-51683333D01*
X53888095Y-51683333D01*
X53983333Y-51730952D01*
X54030952Y-51778571D01*
X54078571Y-51873809D01*
X54078571Y-52111904D01*
X54030952Y-52207142D01*
X53983333Y-52254761D01*
X53888095Y-52302380D01*
X53602380Y-52302380D01*
X53507142Y-52254761D01*
X53459523Y-52207142D01*
D11*
X125705216Y-55296176D02*
X124189700Y-54845387D01*
X125131640Y-56115328D01*
X124259743Y-56115206D02*
X123972955Y-56524782D01*
X123206426Y-56249648D02*
X123616123Y-55664539D01*
X124844852Y-56524904D01*
X124435154Y-57110012D01*
X122346061Y-57478376D02*
X123217958Y-57478497D01*
X122837698Y-56776245D02*
X124066426Y-57636610D01*
X123738668Y-58104697D01*
X123598218Y-58180749D01*
X123498737Y-58198290D01*
X123340746Y-58174861D01*
X123165213Y-58051952D01*
X123089161Y-57911502D01*
X123071620Y-57812021D01*
X123095049Y-57654030D01*
X123422807Y-57185943D01*
X121977334Y-58004973D02*
X123206062Y-58865338D01*
X121567636Y-58590082D02*
X122796364Y-59450447D01*
X122591516Y-59743001D01*
X122410095Y-59877564D01*
X122211134Y-59912646D01*
X122053143Y-59889217D01*
X121778130Y-59783849D01*
X121602597Y-59660940D01*
X121409523Y-59438550D01*
X121333471Y-59298100D01*
X121298389Y-59099139D01*
X121362787Y-58882636D01*
X121567636Y-58590082D01*
X120707272Y-59818810D02*
X121936000Y-60679175D01*
X120689609Y-60591226D02*
X120279912Y-61176335D01*
X120420483Y-60228386D02*
X121362423Y-61498327D01*
X119846907Y-61047538D01*
X119560119Y-61457114D02*
X120788847Y-62317479D01*
X119068482Y-62159245D01*
X120297210Y-63019609D01*
X123153752Y-52114450D02*
X124382480Y-52974815D01*
X123797371Y-52565117D02*
X123305735Y-53267248D01*
X122662115Y-52816581D02*
X123890843Y-53676945D01*
X122896037Y-53852356D02*
X122609249Y-54261932D01*
X121842720Y-53986798D02*
X122252418Y-53401689D01*
X123481146Y-54262054D01*
X123071448Y-54847162D01*
X121064295Y-55098504D02*
X121473992Y-54513395D01*
X122702721Y-55373760D01*
X120777507Y-55508080D02*
X122006235Y-56368445D01*
X121432658Y-57187597D02*
X121268779Y-57421640D01*
X121128329Y-57497692D01*
X120929368Y-57532774D01*
X120654355Y-57427406D01*
X120244779Y-57140618D01*
X120051705Y-56918228D01*
X120016623Y-56719267D01*
X120040051Y-56561276D01*
X120203930Y-56327232D01*
X120344381Y-56251180D01*
X120543342Y-56216098D01*
X120818355Y-56321466D01*
X121227931Y-56608254D01*
X121421005Y-56830644D01*
X121456087Y-57029605D01*
X121432658Y-57187597D01*
X120186025Y-58843442D02*
X120326475Y-58767390D01*
X120449385Y-58591857D01*
X120513783Y-58375355D01*
X120478701Y-58176394D01*
X120402649Y-58035944D01*
X120209575Y-57813554D01*
X120034042Y-57690644D01*
X119759029Y-57585276D01*
X119601038Y-57561848D01*
X119402077Y-57596930D01*
X119220656Y-57731493D01*
X119138717Y-57848515D01*
X119074319Y-58065017D01*
X119091860Y-58164497D01*
X119501436Y-58451286D01*
X119665315Y-58217242D01*
X118114473Y-59311286D02*
X118986370Y-59311407D01*
X118606110Y-58609156D02*
X119834838Y-59469520D01*
X119507080Y-59937607D01*
X119366630Y-60013659D01*
X119267149Y-60031200D01*
X119109158Y-60007772D01*
X118933625Y-59884862D01*
X118857573Y-59744412D01*
X118840032Y-59644931D01*
X118863461Y-59486940D01*
X119191219Y-59018853D01*
X118137781Y-60025191D02*
X117728083Y-60610300D01*
X117868655Y-59662351D02*
X118810595Y-60932292D01*
X117295078Y-60481503D01*
X117008290Y-60891079D02*
X118237018Y-61751444D01*
X117909260Y-62219531D01*
X117768810Y-62295583D01*
X117669329Y-62313124D01*
X117511338Y-62289695D01*
X117335805Y-62166786D01*
X117259753Y-62026336D01*
X117242212Y-61926855D01*
X117265641Y-61768864D01*
X117593399Y-61300777D01*
X116147926Y-62119807D02*
X117376654Y-62980172D01*
X116791545Y-62570475D02*
X116299908Y-63272605D01*
X115656289Y-62821938D02*
X116885017Y-63682302D01*
D12*
X93760555Y-59106446D02*
X94265631Y-59611522D01*
X93356494Y-59308477D02*
X94770707Y-58601370D01*
X94063600Y-60015583D01*
X94417154Y-60369137D02*
X95477814Y-59308477D01*
X95881875Y-59712538D01*
X95932383Y-59864060D01*
X95932383Y-59965076D01*
X95881875Y-60116599D01*
X95730352Y-60268121D01*
X95578829Y-60318629D01*
X95477814Y-60318629D01*
X95326291Y-60268121D01*
X94922230Y-59864060D01*
X95477814Y-61429797D02*
X96538474Y-60369137D01*
X96942535Y-60773198D01*
X96993043Y-60924721D01*
X96993043Y-61025736D01*
X96942535Y-61177259D01*
X96791012Y-61328782D01*
X96639489Y-61379289D01*
X96538474Y-61379289D01*
X96386951Y-61328782D01*
X95982890Y-60924721D01*
X97043550Y-62995533D02*
X96538474Y-62490457D01*
X97599134Y-61429797D01*
X98104211Y-63046041D02*
X97599134Y-63551117D01*
X98306241Y-62136904D02*
X98104211Y-63046041D01*
X99013348Y-62844010D01*
X99114363Y-65066346D02*
X100175023Y-64005686D01*
X100427561Y-64258224D01*
X100528577Y-64460255D01*
X100528577Y-64662285D01*
X100478069Y-64813808D01*
X100326546Y-65066346D01*
X100175023Y-65217869D01*
X99922485Y-65369392D01*
X99770962Y-65419899D01*
X99568932Y-65419899D01*
X99366901Y-65318884D01*
X99114363Y-65066346D01*
X100175023Y-66127006D02*
X101235683Y-65066346D01*
X101286191Y-67238174D02*
X101437714Y-66379544D01*
X100680100Y-66632082D02*
X101740760Y-65571422D01*
X102144821Y-65975483D01*
X102195328Y-66127006D01*
X102195328Y-66228021D01*
X102144821Y-66379544D01*
X101993298Y-66531067D01*
X101841775Y-66581575D01*
X101740760Y-66581575D01*
X101589237Y-66531067D01*
X101185176Y-66127006D01*
X102296344Y-67137159D02*
X102649897Y-67490712D01*
X102245836Y-68197819D02*
X101740760Y-67692743D01*
X102801420Y-66632082D01*
X103306496Y-67137159D01*
X103407511Y-69157464D02*
X103306496Y-69157464D01*
X103104466Y-69056449D01*
X103003450Y-68955433D01*
X102902435Y-68753403D01*
X102902435Y-68551372D01*
X102952943Y-68399849D01*
X103104466Y-68147311D01*
X103255989Y-67995788D01*
X103508527Y-67844266D01*
X103660050Y-67793758D01*
X103862080Y-67793758D01*
X104064111Y-67894773D01*
X104165126Y-67995788D01*
X104266141Y-68197819D01*
X104266141Y-68298834D01*
X104670202Y-68500865D02*
X105276294Y-69106956D01*
X103912588Y-69864571D02*
X104973248Y-68803910D01*
X105074263Y-71026246D02*
X104569187Y-70521170D01*
X105629847Y-69460510D01*
X106134923Y-71076754D02*
X105629847Y-71581830D01*
X106336954Y-70167616D02*
X106134923Y-71076754D01*
X107044061Y-70874723D01*
X94401496Y-61647485D02*
X95007588Y-62253576D01*
X93643882Y-63011191D02*
X94704542Y-61950531D01*
X95563172Y-62809160D02*
X95765202Y-63011191D01*
X95815710Y-63162714D01*
X95815710Y-63364744D01*
X95664187Y-63617282D01*
X95310634Y-63970836D01*
X95058095Y-64122359D01*
X94856065Y-64122359D01*
X94704542Y-64071851D01*
X94502512Y-63869820D01*
X94452004Y-63718298D01*
X94452004Y-63516267D01*
X94603527Y-63263729D01*
X94957080Y-62910176D01*
X95209618Y-62758653D01*
X95411649Y-62758653D01*
X95563172Y-62809160D01*
X96775355Y-65031496D02*
X97128908Y-65385049D01*
X96724847Y-66092156D02*
X96219771Y-65587080D01*
X97280431Y-64526420D01*
X97785507Y-65031496D01*
X97886523Y-66243679D02*
X97381446Y-66748755D01*
X98088553Y-65334542D02*
X97886523Y-66243679D01*
X98795660Y-66041648D01*
X98644137Y-66900278D02*
X98997690Y-67253832D01*
X98593629Y-67960938D02*
X98088553Y-67455862D01*
X99149213Y-66395202D01*
X99654290Y-66900278D01*
X99957335Y-68213476D02*
X100058351Y-68415507D01*
X100058351Y-68516522D01*
X100007843Y-68668045D01*
X99856320Y-68819568D01*
X99704797Y-68870076D01*
X99603782Y-68870076D01*
X99452259Y-68819568D01*
X99048198Y-68415507D01*
X100108858Y-67354847D01*
X100462412Y-67708400D01*
X100512919Y-67859923D01*
X100512919Y-67960938D01*
X100462412Y-68112461D01*
X100361396Y-68213476D01*
X100209873Y-68263984D01*
X100108858Y-68263984D01*
X99957335Y-68213476D01*
X99603782Y-67859923D01*
X100361396Y-69122614D02*
X100866473Y-69627690D01*
X99957335Y-69324644D02*
X101371549Y-68617537D01*
X100664442Y-70031751D01*
X101523072Y-70890381D02*
X101017995Y-70385304D01*
X102078656Y-69324644D01*
X102381701Y-71749010D02*
X101876625Y-71243934D01*
X102937285Y-70183274D01*
X102735255Y-72001548D02*
X102836270Y-72203579D01*
X103088808Y-72456117D01*
X103240331Y-72506625D01*
X103341346Y-72506625D01*
X103492869Y-72456117D01*
X103593884Y-72355102D01*
X103644392Y-72203579D01*
X103644392Y-72102564D01*
X103593884Y-71951041D01*
X103442362Y-71698503D01*
X103391854Y-71546980D01*
X103391854Y-71445965D01*
X103442362Y-71294442D01*
X103543377Y-71193426D01*
X103694900Y-71142919D01*
X103795915Y-71142919D01*
X103947438Y-71193426D01*
X104199976Y-71445965D01*
X104300991Y-71647995D01*
D10*
X51687976Y-75049761D02*
X51830833Y-75097380D01*
X52068928Y-75097380D01*
X52164166Y-75049761D01*
X52211785Y-75002142D01*
X52259404Y-74906904D01*
X52259404Y-74811666D01*
X52211785Y-74716428D01*
X52164166Y-74668809D01*
X52068928Y-74621190D01*
X51878452Y-74573571D01*
X51783214Y-74525952D01*
X51735595Y-74478333D01*
X51687976Y-74383095D01*
X51687976Y-74287857D01*
X51735595Y-74192619D01*
X51783214Y-74145000D01*
X51878452Y-74097380D01*
X52116547Y-74097380D01*
X52259404Y-74145000D01*
X52640357Y-74811666D02*
X53116547Y-74811666D01*
X52545119Y-75097380D02*
X52878452Y-74097380D01*
X53211785Y-75097380D01*
X53497500Y-75049761D02*
X53640357Y-75097380D01*
X53878452Y-75097380D01*
X53973690Y-75049761D01*
X54021309Y-75002142D01*
X54068928Y-74906904D01*
X54068928Y-74811666D01*
X54021309Y-74716428D01*
X53973690Y-74668809D01*
X53878452Y-74621190D01*
X53687976Y-74573571D01*
X53592738Y-74525952D01*
X53545119Y-74478333D01*
X53497500Y-74383095D01*
X53497500Y-74287857D01*
X53545119Y-74192619D01*
X53592738Y-74145000D01*
X53687976Y-74097380D01*
X53926071Y-74097380D01*
X54068928Y-74145000D01*
X55164166Y-75192619D02*
X55068928Y-75145000D01*
X54973690Y-75049761D01*
X54830833Y-74906904D01*
X54735595Y-74859285D01*
X54640357Y-74859285D01*
X54687976Y-75097380D02*
X54592738Y-75049761D01*
X54497500Y-74954523D01*
X54449880Y-74764047D01*
X54449880Y-74430714D01*
X54497500Y-74240238D01*
X54592738Y-74145000D01*
X54687976Y-74097380D01*
X54878452Y-74097380D01*
X54973690Y-74145000D01*
X55068928Y-74240238D01*
X55116547Y-74430714D01*
X55116547Y-74764047D01*
X55068928Y-74954523D01*
X54973690Y-75049761D01*
X54878452Y-75097380D01*
X54687976Y-75097380D01*
X55545119Y-74097380D02*
X55545119Y-74906904D01*
X55592738Y-75002142D01*
X55640357Y-75049761D01*
X55735595Y-75097380D01*
X55926071Y-75097380D01*
X56021309Y-75049761D01*
X56068928Y-75002142D01*
X56116547Y-74906904D01*
X56116547Y-74097380D01*
X56545119Y-74811666D02*
X57021309Y-74811666D01*
X56449880Y-75097380D02*
X56783214Y-74097380D01*
X57116547Y-75097380D01*
X57307023Y-74097380D02*
X57878452Y-74097380D01*
X57592738Y-75097380D02*
X57592738Y-74097380D01*
X58783214Y-75002142D02*
X58735595Y-75049761D01*
X58592738Y-75097380D01*
X58497500Y-75097380D01*
X58354642Y-75049761D01*
X58259404Y-74954523D01*
X58211785Y-74859285D01*
X58164166Y-74668809D01*
X58164166Y-74525952D01*
X58211785Y-74335476D01*
X58259404Y-74240238D01*
X58354642Y-74145000D01*
X58497500Y-74097380D01*
X58592738Y-74097380D01*
X58735595Y-74145000D01*
X58783214Y-74192619D01*
X59211785Y-75097380D02*
X59211785Y-74097380D01*
X59211785Y-74573571D02*
X59783214Y-74573571D01*
X59783214Y-75097380D02*
X59783214Y-74097380D01*
X51687976Y-76421666D02*
X52164166Y-76421666D01*
X51592738Y-76707380D02*
X51926071Y-75707380D01*
X52259404Y-76707380D01*
X52592738Y-76707380D02*
X52592738Y-75707380D01*
X52973690Y-75707380D01*
X53068928Y-75755000D01*
X53116547Y-75802619D01*
X53164166Y-75897857D01*
X53164166Y-76040714D01*
X53116547Y-76135952D01*
X53068928Y-76183571D01*
X52973690Y-76231190D01*
X52592738Y-76231190D01*
X53592738Y-76707380D02*
X53592738Y-75707380D01*
X53973690Y-75707380D01*
X54068928Y-75755000D01*
X54116547Y-75802619D01*
X54164166Y-75897857D01*
X54164166Y-76040714D01*
X54116547Y-76135952D01*
X54068928Y-76183571D01*
X53973690Y-76231190D01*
X53592738Y-76231190D01*
X55164166Y-76707380D02*
X54830833Y-76231190D01*
X54592738Y-76707380D02*
X54592738Y-75707380D01*
X54973690Y-75707380D01*
X55068928Y-75755000D01*
X55116547Y-75802619D01*
X55164166Y-75897857D01*
X55164166Y-76040714D01*
X55116547Y-76135952D01*
X55068928Y-76183571D01*
X54973690Y-76231190D01*
X54592738Y-76231190D01*
X55783214Y-75707380D02*
X55973690Y-75707380D01*
X56068928Y-75755000D01*
X56164166Y-75850238D01*
X56211785Y-76040714D01*
X56211785Y-76374047D01*
X56164166Y-76564523D01*
X56068928Y-76659761D01*
X55973690Y-76707380D01*
X55783214Y-76707380D01*
X55687976Y-76659761D01*
X55592738Y-76564523D01*
X55545119Y-76374047D01*
X55545119Y-76040714D01*
X55592738Y-75850238D01*
X55687976Y-75755000D01*
X55783214Y-75707380D01*
X56497500Y-75707380D02*
X56830833Y-76707380D01*
X57164166Y-75707380D01*
X57497500Y-76183571D02*
X57830833Y-76183571D01*
X57973690Y-76707380D02*
X57497500Y-76707380D01*
X57497500Y-75707380D01*
X57973690Y-75707380D01*
X58402261Y-76707380D02*
X58402261Y-75707380D01*
X58640357Y-75707380D01*
X58783214Y-75755000D01*
X58878452Y-75850238D01*
X58926071Y-75945476D01*
X58973690Y-76135952D01*
X58973690Y-76278809D01*
X58926071Y-76469285D01*
X58878452Y-76564523D01*
X58783214Y-76659761D01*
X58640357Y-76707380D01*
X58402261Y-76707380D01*
X59402261Y-76612142D02*
X59449880Y-76659761D01*
X59402261Y-76707380D01*
X59354642Y-76659761D01*
X59402261Y-76612142D01*
X59402261Y-76707380D01*
X59402261Y-76326428D02*
X59354642Y-75755000D01*
X59402261Y-75707380D01*
X59449880Y-75755000D01*
X59402261Y-76326428D01*
X59402261Y-75707380D01*
D13*
X124285714Y-61150000D02*
X124190476Y-61102380D01*
X124047619Y-61102380D01*
X123904761Y-61150000D01*
X123809523Y-61245238D01*
X123761904Y-61340476D01*
X123714285Y-61530952D01*
X123714285Y-61673809D01*
X123761904Y-61864285D01*
X123809523Y-61959523D01*
X123904761Y-62054761D01*
X124047619Y-62102380D01*
X124142857Y-62102380D01*
X124285714Y-62054761D01*
X124333333Y-62007142D01*
X124333333Y-61673809D01*
X124142857Y-61673809D01*
X124761904Y-62102380D02*
X124761904Y-61102380D01*
X125333333Y-62102380D01*
X125333333Y-61102380D01*
X125761904Y-62054761D02*
X125904761Y-62102380D01*
X126142857Y-62102380D01*
X126238095Y-62054761D01*
X126285714Y-62007142D01*
X126333333Y-61911904D01*
X126333333Y-61816666D01*
X126285714Y-61721428D01*
X126238095Y-61673809D01*
X126142857Y-61626190D01*
X125952380Y-61578571D01*
X125857142Y-61530952D01*
X125809523Y-61483333D01*
X125761904Y-61388095D01*
X125761904Y-61292857D01*
X125809523Y-61197619D01*
X125857142Y-61150000D01*
X125952380Y-61102380D01*
X126190476Y-61102380D01*
X126333333Y-61150000D01*
X126714285Y-62054761D02*
X126857142Y-62102380D01*
X127095238Y-62102380D01*
X127190476Y-62054761D01*
X127238095Y-62007142D01*
X127285714Y-61911904D01*
X127285714Y-61816666D01*
X127238095Y-61721428D01*
X127190476Y-61673809D01*
X127095238Y-61626190D01*
X126904761Y-61578571D01*
X126809523Y-61530952D01*
X126761904Y-61483333D01*
X126714285Y-61388095D01*
X126714285Y-61292857D01*
X126761904Y-61197619D01*
X126809523Y-61150000D01*
X126904761Y-61102380D01*
X127142857Y-61102380D01*
X127285714Y-61150000D01*
D10*
%TO.C,J1*%
X63047619Y-65666666D02*
X62333333Y-65666666D01*
X62190476Y-65619047D01*
X62095238Y-65523809D01*
X62047619Y-65380952D01*
X62047619Y-65285714D01*
X62047619Y-66666666D02*
X62047619Y-66095238D01*
X62047619Y-66380952D02*
X63047619Y-66380952D01*
X62904761Y-66285714D01*
X62809523Y-66190476D01*
X62761904Y-66095238D01*
D14*
X68125000Y-57100000D02*
X65000000Y-57100000D01*
X68125000Y-74900000D02*
X65000000Y-74900000D01*
X68125000Y-57100000D02*
X68125000Y-74900000D01*
%TO.C,D2*%
X69510000Y-80835000D02*
X69510000Y-78150000D01*
X67590000Y-80835000D02*
X69510000Y-80835000D01*
X67590000Y-78150000D02*
X67590000Y-80835000D01*
%TO.C,J7*%
X47000000Y-70000000D02*
X47000000Y-62000000D01*
X58500000Y-62000000D02*
X58500000Y-70000000D01*
%TO.C,U2*%
X117140000Y-79960000D02*
X117290000Y-79960000D01*
X127310000Y-70040000D02*
X127460000Y-70040000D01*
X117140000Y-70040000D02*
X117290000Y-70040000D01*
X127460000Y-79960000D02*
X127460000Y-70040000D01*
X127310000Y-79960000D02*
X127460000Y-79960000D01*
X117140000Y-79960000D02*
X117140000Y-70040000D01*
X117290000Y-80650000D02*
X117290000Y-79960000D01*
%TO.C,AE1*%
X125475000Y-63400000D02*
X125475000Y-66125000D01*
X127325000Y-63400000D02*
X127325000Y-66950000D01*
%TO.C,J4*%
X61195000Y-80320000D02*
X61195000Y-79685000D01*
X61830000Y-80320000D02*
X61195000Y-80320000D01*
%TD*%
M02*
