%TF.GenerationSoftware,KiCad,Pcbnew,(6.0.2)*%
%TF.CreationDate,2022-04-10T10:34:04-06:00*%
%TF.ProjectId,SolarGPS,536f6c61-7247-4505-932e-6b696361645f,rev?*%
%TF.SameCoordinates,Original*%
%TF.FileFunction,Legend,Bot*%
%TF.FilePolarity,Positive*%
%FSLAX46Y46*%
G04 Gerber Fmt 4.6, Leading zero omitted, Abs format (unit mm)*
G04 Created by KiCad (PCBNEW (6.0.2)) date 2022-04-10 10:34:04*
%MOMM*%
%LPD*%
G01*
G04 APERTURE LIST*
%ADD10C,0.300000*%
%ADD11C,0.200000*%
%ADD12C,0.250000*%
%ADD13C,0.120000*%
%ADD14C,0.150000*%
G04 APERTURE END LIST*
D10*
X58242857Y-76500000D02*
X58385714Y-76428571D01*
X58600000Y-76428571D01*
X58814285Y-76500000D01*
X58957142Y-76642857D01*
X59028571Y-76785714D01*
X59100000Y-77071428D01*
X59100000Y-77285714D01*
X59028571Y-77571428D01*
X58957142Y-77714285D01*
X58814285Y-77857142D01*
X58600000Y-77928571D01*
X58457142Y-77928571D01*
X58242857Y-77857142D01*
X58171428Y-77785714D01*
X58171428Y-77285714D01*
X58457142Y-77285714D01*
X57528571Y-77928571D02*
X57528571Y-76428571D01*
X56671428Y-77928571D01*
X56671428Y-76428571D01*
X55957142Y-77928571D02*
X55957142Y-76428571D01*
X55600000Y-76428571D01*
X55385714Y-76500000D01*
X55242857Y-76642857D01*
X55171428Y-76785714D01*
X55100000Y-77071428D01*
X55100000Y-77285714D01*
X55171428Y-77571428D01*
X55242857Y-77714285D01*
X55385714Y-77857142D01*
X55600000Y-77928571D01*
X55957142Y-77928571D01*
D11*
X118504761Y-53204761D02*
X118361904Y-53252380D01*
X118123809Y-53252380D01*
X118028571Y-53204761D01*
X117980952Y-53157142D01*
X117933333Y-53061904D01*
X117933333Y-52966666D01*
X117980952Y-52871428D01*
X118028571Y-52823809D01*
X118123809Y-52776190D01*
X118314285Y-52728571D01*
X118409523Y-52680952D01*
X118457142Y-52633333D01*
X118504761Y-52538095D01*
X118504761Y-52442857D01*
X118457142Y-52347619D01*
X118409523Y-52300000D01*
X118314285Y-52252380D01*
X118076190Y-52252380D01*
X117933333Y-52300000D01*
X117504761Y-52871428D02*
X116742857Y-52871428D01*
X117123809Y-53252380D02*
X117123809Y-52490476D01*
X112954761Y-80754761D02*
X112811904Y-80802380D01*
X112573809Y-80802380D01*
X112478571Y-80754761D01*
X112430952Y-80707142D01*
X112383333Y-80611904D01*
X112383333Y-80516666D01*
X112430952Y-80421428D01*
X112478571Y-80373809D01*
X112573809Y-80326190D01*
X112764285Y-80278571D01*
X112859523Y-80230952D01*
X112907142Y-80183333D01*
X112954761Y-80088095D01*
X112954761Y-79992857D01*
X112907142Y-79897619D01*
X112859523Y-79850000D01*
X112764285Y-79802380D01*
X112526190Y-79802380D01*
X112383333Y-79850000D01*
X111954761Y-80421428D02*
X111192857Y-80421428D01*
X111573809Y-80802380D02*
X111573809Y-80040476D01*
D10*
X58242857Y-54100000D02*
X58385714Y-54028571D01*
X58600000Y-54028571D01*
X58814285Y-54100000D01*
X58957142Y-54242857D01*
X59028571Y-54385714D01*
X59100000Y-54671428D01*
X59100000Y-54885714D01*
X59028571Y-55171428D01*
X58957142Y-55314285D01*
X58814285Y-55457142D01*
X58600000Y-55528571D01*
X58457142Y-55528571D01*
X58242857Y-55457142D01*
X58171428Y-55385714D01*
X58171428Y-54885714D01*
X58457142Y-54885714D01*
X57528571Y-55528571D02*
X57528571Y-54028571D01*
X56671428Y-55528571D01*
X56671428Y-54028571D01*
X55957142Y-55528571D02*
X55957142Y-54028571D01*
X55600000Y-54028571D01*
X55385714Y-54100000D01*
X55242857Y-54242857D01*
X55171428Y-54385714D01*
X55100000Y-54671428D01*
X55100000Y-54885714D01*
X55171428Y-55171428D01*
X55242857Y-55314285D01*
X55385714Y-55457142D01*
X55600000Y-55528571D01*
X55957142Y-55528571D01*
D11*
X99521428Y-66978571D02*
X99521428Y-65478571D01*
X99164285Y-65478571D01*
X98950000Y-65550000D01*
X98807142Y-65692857D01*
X98735714Y-65835714D01*
X98664285Y-66121428D01*
X98664285Y-66335714D01*
X98735714Y-66621428D01*
X98807142Y-66764285D01*
X98950000Y-66907142D01*
X99164285Y-66978571D01*
X99521428Y-66978571D01*
X97735714Y-65478571D02*
X97450000Y-65478571D01*
X97307142Y-65550000D01*
X97164285Y-65692857D01*
X97092857Y-65978571D01*
X97092857Y-66478571D01*
X97164285Y-66764285D01*
X97307142Y-66907142D01*
X97450000Y-66978571D01*
X97735714Y-66978571D01*
X97878571Y-66907142D01*
X98021428Y-66764285D01*
X98092857Y-66478571D01*
X98092857Y-65978571D01*
X98021428Y-65692857D01*
X97878571Y-65550000D01*
X97735714Y-65478571D01*
X96450000Y-66978571D02*
X96450000Y-65478571D01*
X95592857Y-66978571D01*
X95592857Y-65478571D01*
X95092857Y-65478571D02*
X94235714Y-65478571D01*
X94664285Y-66978571D02*
X94664285Y-65478571D01*
X91878571Y-66978571D02*
X92592857Y-66978571D01*
X92592857Y-65478571D01*
X91092857Y-65478571D02*
X90807142Y-65478571D01*
X90664285Y-65550000D01*
X90521428Y-65692857D01*
X90450000Y-65978571D01*
X90450000Y-66478571D01*
X90521428Y-66764285D01*
X90664285Y-66907142D01*
X90807142Y-66978571D01*
X91092857Y-66978571D01*
X91235714Y-66907142D01*
X91378571Y-66764285D01*
X91450000Y-66478571D01*
X91450000Y-65978571D01*
X91378571Y-65692857D01*
X91235714Y-65550000D01*
X91092857Y-65478571D01*
X89521428Y-65478571D02*
X89235714Y-65478571D01*
X89092857Y-65550000D01*
X88950000Y-65692857D01*
X88878571Y-65978571D01*
X88878571Y-66478571D01*
X88950000Y-66764285D01*
X89092857Y-66907142D01*
X89235714Y-66978571D01*
X89521428Y-66978571D01*
X89664285Y-66907142D01*
X89807142Y-66764285D01*
X89878571Y-66478571D01*
X89878571Y-65978571D01*
X89807142Y-65692857D01*
X89664285Y-65550000D01*
X89521428Y-65478571D01*
X88235714Y-66978571D02*
X88235714Y-65478571D01*
X87378571Y-66978571D02*
X88021428Y-66121428D01*
X87378571Y-65478571D02*
X88235714Y-66335714D01*
X85592857Y-66978571D02*
X85592857Y-65478571D01*
X85592857Y-66192857D02*
X84735714Y-66192857D01*
X84735714Y-66978571D02*
X84735714Y-65478571D01*
X84021428Y-66192857D02*
X83521428Y-66192857D01*
X83307142Y-66978571D02*
X84021428Y-66978571D01*
X84021428Y-65478571D01*
X83307142Y-65478571D01*
X81807142Y-66978571D02*
X82307142Y-66264285D01*
X82664285Y-66978571D02*
X82664285Y-65478571D01*
X82092857Y-65478571D01*
X81950000Y-65550000D01*
X81878571Y-65621428D01*
X81807142Y-65764285D01*
X81807142Y-65978571D01*
X81878571Y-66121428D01*
X81950000Y-66192857D01*
X82092857Y-66264285D01*
X82664285Y-66264285D01*
X81164285Y-66192857D02*
X80664285Y-66192857D01*
X80450000Y-66978571D02*
X81164285Y-66978571D01*
X81164285Y-65478571D01*
X80450000Y-65478571D01*
D12*
X110419642Y-67956071D02*
X109919642Y-69456071D01*
X109419642Y-67956071D01*
X108919642Y-69456071D02*
X108919642Y-67956071D01*
X108562500Y-67956071D01*
X108348214Y-68027500D01*
X108205357Y-68170357D01*
X108133928Y-68313214D01*
X108062500Y-68598928D01*
X108062500Y-68813214D01*
X108133928Y-69098928D01*
X108205357Y-69241785D01*
X108348214Y-69384642D01*
X108562500Y-69456071D01*
X108919642Y-69456071D01*
X107419642Y-69456071D02*
X107419642Y-67956071D01*
X107062500Y-67956071D01*
X106848214Y-68027500D01*
X106705357Y-68170357D01*
X106633928Y-68313214D01*
X106562500Y-68598928D01*
X106562500Y-68813214D01*
X106633928Y-69098928D01*
X106705357Y-69241785D01*
X106848214Y-69384642D01*
X107062500Y-69456071D01*
X107419642Y-69456071D01*
X110205357Y-71871071D02*
X110205357Y-70371071D01*
X109705357Y-71442500D01*
X109205357Y-70371071D01*
X109205357Y-71871071D01*
X108205357Y-70371071D02*
X107919642Y-70371071D01*
X107776785Y-70442500D01*
X107633928Y-70585357D01*
X107562500Y-70871071D01*
X107562500Y-71371071D01*
X107633928Y-71656785D01*
X107776785Y-71799642D01*
X107919642Y-71871071D01*
X108205357Y-71871071D01*
X108348214Y-71799642D01*
X108491071Y-71656785D01*
X108562500Y-71371071D01*
X108562500Y-70871071D01*
X108491071Y-70585357D01*
X108348214Y-70442500D01*
X108205357Y-70371071D01*
X106991071Y-71799642D02*
X106776785Y-71871071D01*
X106419642Y-71871071D01*
X106276785Y-71799642D01*
X106205357Y-71728214D01*
X106133928Y-71585357D01*
X106133928Y-71442500D01*
X106205357Y-71299642D01*
X106276785Y-71228214D01*
X106419642Y-71156785D01*
X106705357Y-71085357D01*
X106848214Y-71013928D01*
X106919642Y-70942500D01*
X106991071Y-70799642D01*
X106991071Y-70656785D01*
X106919642Y-70513928D01*
X106848214Y-70442500D01*
X106705357Y-70371071D01*
X106348214Y-70371071D01*
X106133928Y-70442500D01*
X105491071Y-71871071D02*
X105491071Y-70371071D01*
X110205357Y-74286071D02*
X110205357Y-72786071D01*
X109705357Y-73857500D01*
X109205357Y-72786071D01*
X109205357Y-74286071D01*
X108491071Y-74286071D02*
X108491071Y-72786071D01*
X107848214Y-74214642D02*
X107633928Y-74286071D01*
X107276785Y-74286071D01*
X107133928Y-74214642D01*
X107062500Y-74143214D01*
X106991071Y-74000357D01*
X106991071Y-73857500D01*
X107062500Y-73714642D01*
X107133928Y-73643214D01*
X107276785Y-73571785D01*
X107562500Y-73500357D01*
X107705357Y-73428928D01*
X107776785Y-73357500D01*
X107848214Y-73214642D01*
X107848214Y-73071785D01*
X107776785Y-72928928D01*
X107705357Y-72857500D01*
X107562500Y-72786071D01*
X107205357Y-72786071D01*
X106991071Y-72857500D01*
X106062500Y-72786071D02*
X105776785Y-72786071D01*
X105633928Y-72857500D01*
X105491071Y-73000357D01*
X105419642Y-73286071D01*
X105419642Y-73786071D01*
X105491071Y-74071785D01*
X105633928Y-74214642D01*
X105776785Y-74286071D01*
X106062500Y-74286071D01*
X106205357Y-74214642D01*
X106348214Y-74071785D01*
X106419642Y-73786071D01*
X106419642Y-73286071D01*
X106348214Y-73000357D01*
X106205357Y-72857500D01*
X106062500Y-72786071D01*
X109419642Y-75272500D02*
X109562500Y-75201071D01*
X109776785Y-75201071D01*
X109991071Y-75272500D01*
X110133928Y-75415357D01*
X110205357Y-75558214D01*
X110276785Y-75843928D01*
X110276785Y-76058214D01*
X110205357Y-76343928D01*
X110133928Y-76486785D01*
X109991071Y-76629642D01*
X109776785Y-76701071D01*
X109633928Y-76701071D01*
X109419642Y-76629642D01*
X109348214Y-76558214D01*
X109348214Y-76058214D01*
X109633928Y-76058214D01*
X108705357Y-76701071D02*
X108705357Y-75201071D01*
X107848214Y-76701071D01*
X107848214Y-75201071D01*
X107133928Y-76701071D02*
X107133928Y-75201071D01*
X106776785Y-75201071D01*
X106562500Y-75272500D01*
X106419642Y-75415357D01*
X106348214Y-75558214D01*
X106276785Y-75843928D01*
X106276785Y-76058214D01*
X106348214Y-76343928D01*
X106419642Y-76486785D01*
X106562500Y-76629642D01*
X106776785Y-76701071D01*
X107133928Y-76701071D01*
D13*
%TO.C,R3*%
X63612779Y-56860000D02*
X63287221Y-56860000D01*
X63612779Y-55840000D02*
X63287221Y-55840000D01*
%TO.C,C5*%
X124040000Y-79012779D02*
X124040000Y-78687221D01*
X125060000Y-79012779D02*
X125060000Y-78687221D01*
%TO.C,C9*%
X57162779Y-65760000D02*
X56837221Y-65760000D01*
X57162779Y-64740000D02*
X56837221Y-64740000D01*
%TO.C,C20*%
X65415000Y-72174721D02*
X65415000Y-72500279D01*
X66435000Y-72174721D02*
X66435000Y-72500279D01*
%TO.C,C25*%
X74888781Y-74089970D02*
X74689970Y-74288781D01*
X75610030Y-74811219D02*
X75411219Y-75010030D01*
%TO.C,C26*%
X90340000Y-75215580D02*
X90340000Y-74934420D01*
X91360000Y-75215580D02*
X91360000Y-74934420D01*
%TO.C,U6*%
X89660000Y-71340000D02*
X89485000Y-71340000D01*
X86440000Y-74560000D02*
X86615000Y-74560000D01*
X89660000Y-73885000D02*
X89660000Y-74560000D01*
X86440000Y-71340000D02*
X86615000Y-71340000D01*
X86440000Y-72015000D02*
X86440000Y-71340000D01*
X86440000Y-73885000D02*
X86440000Y-74560000D01*
X89660000Y-72015000D02*
X89660000Y-71340000D01*
%TO.C,R7*%
X121727500Y-78562742D02*
X121727500Y-79037258D01*
X122772500Y-78562742D02*
X122772500Y-79037258D01*
%TO.C,ROUT2*%
X76662742Y-56922500D02*
X77137258Y-56922500D01*
X76662742Y-55877500D02*
X77137258Y-55877500D01*
%TO.C,C10*%
X86909420Y-77740000D02*
X87190580Y-77740000D01*
X86909420Y-78760000D02*
X87190580Y-78760000D01*
%TO.C,J2*%
X58330000Y-78670000D02*
X57000000Y-78670000D01*
X58330000Y-80000000D02*
X58330000Y-78670000D01*
X55670000Y-81270000D02*
X55670000Y-81330000D01*
X58330000Y-81270000D02*
X55670000Y-81270000D01*
X58330000Y-81330000D02*
X55670000Y-81330000D01*
X58330000Y-81270000D02*
X58330000Y-81330000D01*
%TO.C,U3*%
X88010000Y-58410000D02*
X88010000Y-57935000D01*
X84765000Y-54690000D02*
X84290000Y-54690000D01*
X84290000Y-54690000D02*
X84290000Y-55165000D01*
X84290000Y-58410000D02*
X84290000Y-57935000D01*
X87535000Y-54690000D02*
X88010000Y-54690000D01*
X87535000Y-58410000D02*
X88010000Y-58410000D01*
X84765000Y-58410000D02*
X84290000Y-58410000D01*
%TO.C,C27*%
X86990000Y-51559420D02*
X86990000Y-51840580D01*
X88010000Y-51559420D02*
X88010000Y-51840580D01*
%TO.C,ROK1*%
X80427500Y-59662742D02*
X80427500Y-60137258D01*
X81472500Y-59662742D02*
X81472500Y-60137258D01*
%TO.C,C14*%
X94340580Y-58840000D02*
X94059420Y-58840000D01*
X94340580Y-59860000D02*
X94059420Y-59860000D01*
%TO.C,C21*%
X58190000Y-74790580D02*
X58190000Y-74509420D01*
X59210000Y-74790580D02*
X59210000Y-74509420D01*
%TO.C,R12*%
X70177500Y-72687258D02*
X70177500Y-72212742D01*
X71222500Y-72687258D02*
X71222500Y-72212742D01*
%TO.C,ROV1*%
X86237258Y-59827500D02*
X85762742Y-59827500D01*
X86237258Y-60872500D02*
X85762742Y-60872500D01*
%TO.C,J3*%
X58330000Y-53270000D02*
X58330000Y-53330000D01*
X58330000Y-50670000D02*
X57000000Y-50670000D01*
X58330000Y-53270000D02*
X55670000Y-53270000D01*
X58330000Y-52000000D02*
X58330000Y-50670000D01*
X58330000Y-53330000D02*
X55670000Y-53330000D01*
X55670000Y-53270000D02*
X55670000Y-53330000D01*
%TO.C,C12*%
X95561252Y-56135000D02*
X95038748Y-56135000D01*
X95561252Y-54665000D02*
X95038748Y-54665000D01*
%TO.C,C13*%
X68209420Y-71115000D02*
X68490580Y-71115000D01*
X68209420Y-72135000D02*
X68490580Y-72135000D01*
%TO.C,C17*%
X91440580Y-58310000D02*
X91159420Y-58310000D01*
X91440580Y-57290000D02*
X91159420Y-57290000D01*
%TO.C,C3*%
X57660000Y-74509420D02*
X57660000Y-74790580D01*
X56640000Y-74509420D02*
X56640000Y-74790580D01*
%TO.C,C22*%
X67460000Y-61309420D02*
X67460000Y-61590580D01*
X66440000Y-61309420D02*
X66440000Y-61590580D01*
%TO.C,C19*%
X78115000Y-51988748D02*
X78115000Y-52511252D01*
X79585000Y-51988748D02*
X79585000Y-52511252D01*
%TO.C,D1*%
X93650000Y-54250000D02*
X93650000Y-52550000D01*
X93650000Y-54250000D02*
X96800000Y-54250000D01*
X93650000Y-52550000D02*
X96800000Y-52550000D01*
%TO.C,C8*%
X73000000Y-72250000D02*
X73000000Y-59750000D01*
X75700000Y-70350000D02*
X74600000Y-70350000D01*
X75200000Y-70950000D02*
X75200000Y-69750000D01*
X105000000Y-59750000D02*
X105000000Y-72250000D01*
X73000000Y-59750000D02*
X105000000Y-59750000D01*
X105000000Y-72250000D02*
X73000000Y-72250000D01*
D11*
X105000000Y-61500000D02*
X73000000Y-61500000D01*
D13*
%TO.C,U1*%
X79000000Y-79233991D02*
X79159099Y-79074892D01*
X79159099Y-73425108D02*
X79000000Y-73266009D01*
X81824892Y-76090901D02*
X81983991Y-76250000D01*
X79000000Y-73266009D02*
X78840901Y-73425108D01*
X76016009Y-76250000D02*
X76175108Y-76090901D01*
X76175108Y-76409099D02*
X76016009Y-76250000D01*
X78840901Y-79074892D02*
X79000000Y-79233991D01*
%TO.C,C2*%
X60710000Y-74509420D02*
X60710000Y-74790580D01*
X59690000Y-74509420D02*
X59690000Y-74790580D01*
%TO.C,R4*%
X91277500Y-60387258D02*
X91277500Y-59912742D01*
X92322500Y-60387258D02*
X92322500Y-59912742D01*
%TO.C,D5*%
X63175000Y-63125000D02*
X65175000Y-63125000D01*
X63175000Y-63125000D02*
X63175000Y-67025000D01*
X65175000Y-63125000D02*
X65175000Y-67025000D01*
%TO.C,ROV2*%
X89287258Y-59827500D02*
X88812742Y-59827500D01*
X89287258Y-60872500D02*
X88812742Y-60872500D01*
%TO.C,ROK3*%
X76712742Y-58472500D02*
X77187258Y-58472500D01*
X76712742Y-57427500D02*
X77187258Y-57427500D01*
%TO.C,C16*%
X57140580Y-67310000D02*
X56859420Y-67310000D01*
X57140580Y-66290000D02*
X56859420Y-66290000D01*
%TO.C,D3*%
X93650000Y-50550000D02*
X96800000Y-50550000D01*
X93650000Y-52250000D02*
X96800000Y-52250000D01*
X93650000Y-52250000D02*
X93650000Y-50550000D01*
%TO.C,D4*%
X67925000Y-66375000D02*
X67925000Y-62475000D01*
X69925000Y-66375000D02*
X69925000Y-62475000D01*
X69925000Y-66375000D02*
X67925000Y-66375000D01*
%TO.C,C18*%
X76659420Y-81510000D02*
X76940580Y-81510000D01*
X76659420Y-80490000D02*
X76940580Y-80490000D01*
%TO.C,C6*%
X62285000Y-74509420D02*
X62285000Y-74790580D01*
X61265000Y-74509420D02*
X61265000Y-74790580D01*
%TO.C,C23*%
X80009420Y-56310000D02*
X80290580Y-56310000D01*
X80009420Y-55290000D02*
X80290580Y-55290000D01*
%TO.C,C11*%
X83509420Y-79090000D02*
X83790580Y-79090000D01*
X83509420Y-80110000D02*
X83790580Y-80110000D01*
%TO.C,ROK2*%
X82027500Y-58562742D02*
X82027500Y-59037258D01*
X83072500Y-58562742D02*
X83072500Y-59037258D01*
%TO.C,J6*%
X116330000Y-53270000D02*
X116330000Y-53330000D01*
X116330000Y-53330000D02*
X113670000Y-53330000D01*
X116330000Y-50670000D02*
X115000000Y-50670000D01*
X116330000Y-52000000D02*
X116330000Y-50670000D01*
X116330000Y-53270000D02*
X113670000Y-53270000D01*
X113670000Y-53270000D02*
X113670000Y-53330000D01*
%TO.C,R2*%
X72587742Y-78227500D02*
X73062258Y-78227500D01*
X72587742Y-79272500D02*
X73062258Y-79272500D01*
%TO.C,C4*%
X86909420Y-76190000D02*
X87190580Y-76190000D01*
X86909420Y-77210000D02*
X87190580Y-77210000D01*
%TO.C,R13*%
X68112742Y-73697500D02*
X68587258Y-73697500D01*
X68112742Y-72652500D02*
X68587258Y-72652500D01*
%TO.C,J5*%
X113670000Y-81270000D02*
X113670000Y-81330000D01*
X116330000Y-80000000D02*
X116330000Y-78670000D01*
X116330000Y-81270000D02*
X113670000Y-81270000D01*
X116330000Y-81330000D02*
X113670000Y-81330000D01*
X116330000Y-81270000D02*
X116330000Y-81330000D01*
X116330000Y-78670000D02*
X115000000Y-78670000D01*
%TO.C,J8*%
X113855000Y-77700000D02*
X111195000Y-77700000D01*
X113855000Y-70020000D02*
X113855000Y-77700000D01*
X112525000Y-67420000D02*
X111195000Y-67420000D01*
X111195000Y-70020000D02*
X111195000Y-77700000D01*
X111195000Y-67420000D02*
X111195000Y-68750000D01*
X113855000Y-70020000D02*
X111195000Y-70020000D01*
%TO.C,C24*%
X95561252Y-56715000D02*
X95038748Y-56715000D01*
X95561252Y-58185000D02*
X95038748Y-58185000D01*
%TO.C,R1*%
X91372500Y-77962742D02*
X91372500Y-78437258D01*
X90327500Y-77962742D02*
X90327500Y-78437258D01*
%TO.C,D6*%
X65550000Y-67650000D02*
X65550000Y-63750000D01*
X67550000Y-67650000D02*
X65550000Y-67650000D01*
X67550000Y-67650000D02*
X67550000Y-63750000D01*
%TO.C,L1*%
X70600000Y-55600000D02*
X70600000Y-59600000D01*
X66400000Y-55600000D02*
X66400000Y-59600000D01*
%TO.C,Q1*%
X64150000Y-57440000D02*
X64800000Y-57440000D01*
X64150000Y-60560000D02*
X64800000Y-60560000D01*
X64150000Y-60560000D02*
X62475000Y-60560000D01*
X64150000Y-57440000D02*
X63500000Y-57440000D01*
%TO.C,C7*%
X85440000Y-51559420D02*
X85440000Y-51840580D01*
X86460000Y-51559420D02*
X86460000Y-51840580D01*
D14*
%TO.C,L3*%
X83450000Y-54950000D02*
X80650000Y-54950000D01*
X83450000Y-51350000D02*
X80650000Y-51350000D01*
D13*
%TO.C,Y1*%
X83425000Y-75925000D02*
X83425000Y-77275000D01*
X85175000Y-75925000D02*
X85175000Y-77275000D01*
%TO.C,ROUT1*%
X78827500Y-57812742D02*
X78827500Y-58287258D01*
X79872500Y-57812742D02*
X79872500Y-58287258D01*
%TO.C,C15*%
X61640000Y-65209420D02*
X61640000Y-65490580D01*
X62660000Y-65209420D02*
X62660000Y-65490580D01*
%TD*%
M02*
