M48
; DRILL file {KiCad (6.0.2)} date Sun Apr 10 10:34:03 2022
; FORMAT={-:-/ absolute / inch / decimal}
; #@! TF.CreationDate,2022-04-10T10:34:03-06:00
; #@! TF.GenerationSoftware,Kicad,Pcbnew,(6.0.2)
; #@! TF.FileFunction,Plated,1,2,PTH
FMAT,2
INCH
; #@! TA.AperFunction,Plated,PTH,ViaDrill
T1C0.0118
; #@! TA.AperFunction,Plated,PTH,ViaDrill
T2C0.0157
; #@! TA.AperFunction,Plated,PTH,ComponentDrill
T3C0.0315
; #@! TA.AperFunction,Plated,PTH,ComponentDrill
T4C0.0394
; #@! TA.AperFunction,Plated,PTH,ComponentDrill
T5C0.0728
%
G90
G05
T1
X2.1516Y-2.5728
X2.1516Y-2.628
X2.2539Y-2.8622
X2.2579Y-2.2264
X2.2726Y-3.0276
X2.314Y-2.6309
X2.315Y-2.8642
X2.3238Y-2.5266
X2.3435Y-2.7461
X2.3543Y-2.2776
X2.3701Y-2.8681
X2.3976Y-3.0295
X2.4449Y-2.6614
X2.4626Y-2.4882
X2.4646Y-2.436
X2.4921Y-2.3957
X2.5482Y-2.8071
X2.5837Y-2.2195
X2.5846Y-2.7156
X2.5915Y-2.7707
X2.6398Y-3.1142
X2.7087Y-2.9409
X2.7579Y-3.1555
X2.7795Y-2.628
X2.7933Y-3.1004
X2.811Y-2.7421
X2.8219Y-2.2667
X2.9006Y-2.9242
X2.9724Y-2.063
X2.9843Y-2.3346
X3.0335Y-2.7323
X3.0453Y-2.0157
X3.0453Y-3.1309
X3.0571Y-2.1398
X3.061Y-2.624
X3.0689Y-2.3346
X3.0965Y-3.185
X3.1083Y-2.4587
X3.1128Y-2.8687
X3.1439Y-2.8774
X3.1492Y-2.7956
X3.1949Y-2.7894
X3.2028Y-2.876
X3.2067Y-2.6909
X3.2205Y-3.0925
X3.2303Y-1.9921
X3.2323Y-2.2165
X3.2362Y-2.7717
X3.2402Y-2.9646
X3.2402Y-3.0059
X3.2795Y-2.1791
X3.2835Y-2.8957
X3.3012Y-2.435
X3.3307Y-2.002
X3.3366Y-2.1063
X3.3583Y-2.9213
X3.374Y-3.1457
X3.3819Y-2.0984
X3.3917Y-2.2264
X3.3957Y-2.7717
X3.4449Y-2.1024
X3.4469Y-2.9528
X3.4626Y-3.1476
X3.4646Y-2.7717
X3.5079Y-2.2795
X3.5079Y-2.687
X3.5079Y-2.9646
X3.5138Y-2.1831
X3.5177Y-3.0374
X3.5256Y-2.7736
X3.5335Y-3.1142
X3.5374Y-2.439
X3.5807Y-2.2264
X3.6358Y-2.9921
X3.6378Y-3.1476
X3.6693Y-2.3957
X3.7087Y-3.063
X3.8031Y-2.3327
X3.8031Y-2.815
X3.8248Y-3.1043
X3.8366Y-2.1575
X3.8445Y-2.1949
X3.8445Y-2.2795
X3.8465Y-2.2461
X3.8957Y-3.1594
X3.9941Y-2.9921
X4.124Y-3.1693
X4.1535Y-3.0
X4.1732Y-2.5669
X4.1752Y-2.187
X4.1752Y-2.8445
X4.2677Y-2.0984
X4.2697Y-3.1575
X4.3268Y-3.0551
X4.3425Y-2.1398
X4.3445Y-2.3839
X4.3445Y-2.6142
X4.5846Y-2.7461
X4.6398Y-3.2028
X4.6496Y-2.0118
X4.813Y-3.2008
X4.8248Y-2.0118
X4.8406Y-2.4587
X4.8406Y-2.5059
X4.8406Y-2.5472
X4.8406Y-2.5846
X4.8406Y-2.628
X4.8602Y-2.6614
X4.8622Y-2.7067
X4.8819Y-2.4567
X4.9016Y-2.6535
X4.9016Y-2.689
X4.9409Y-2.4567
X4.9508Y-2.0059
X4.9783Y-2.4547
X5.002Y-2.0965
X5.0079Y-2.3445
X5.0118Y-2.2559
X5.0177Y-2.4547
X5.0217Y-2.7657
T2
X2.4311Y-3.187
X2.8917Y-2.3799
X4.9016Y-3.1988
T3
X2.9134Y-2.4902
X2.9134Y-2.7067
T4
X2.2441Y-2.0472
X2.2441Y-3.1496
X4.4301Y-2.7067
X4.4301Y-2.8067
X4.4301Y-2.9067
X4.4301Y-3.0067
X4.5276Y-2.0472
X4.5276Y-3.1496
T5
X2.0472Y-2.4508
X2.0472Y-2.7461
X2.2441Y-2.4508
X2.2441Y-2.7461
T0
M30
