%TF.GenerationSoftware,KiCad,Pcbnew,(5.1.12)-1*%
%TF.CreationDate,2021-11-29T20:05:01-07:00*%
%TF.ProjectId,SolarGPS,536f6c61-7247-4505-932e-6b696361645f,rev?*%
%TF.SameCoordinates,Original*%
%TF.FileFunction,Paste,Top*%
%TF.FilePolarity,Positive*%
%FSLAX46Y46*%
G04 Gerber Fmt 4.6, Leading zero omitted, Abs format (unit mm)*
G04 Created by KiCad (PCBNEW (5.1.12)-1) date 2021-11-29 20:05:01*
%MOMM*%
%LPD*%
G01*
G04 APERTURE LIST*
%ADD10R,0.750000X0.750000*%
%ADD11R,0.575000X0.575000*%
%ADD12R,0.300000X0.650000*%
%ADD13R,0.650000X0.300000*%
%ADD14R,0.800000X0.400000*%
%ADD15R,0.800000X0.300000*%
%ADD16R,1.000000X2.580000*%
G04 APERTURE END LIST*
%TO.C,U6*%
G36*
G01*
X96525000Y-71237500D02*
X96525000Y-71612500D01*
G75*
G02*
X96437500Y-71700000I-87500J0D01*
G01*
X96262500Y-71700000D01*
G75*
G02*
X96175000Y-71612500I0J87500D01*
G01*
X96175000Y-71237500D01*
G75*
G02*
X96262500Y-71150000I87500J0D01*
G01*
X96437500Y-71150000D01*
G75*
G02*
X96525000Y-71237500I0J-87500D01*
G01*
G37*
G36*
G01*
X96025000Y-71237500D02*
X96025000Y-71612500D01*
G75*
G02*
X95937500Y-71700000I-87500J0D01*
G01*
X95762500Y-71700000D01*
G75*
G02*
X95675000Y-71612500I0J87500D01*
G01*
X95675000Y-71237500D01*
G75*
G02*
X95762500Y-71150000I87500J0D01*
G01*
X95937500Y-71150000D01*
G75*
G02*
X96025000Y-71237500I0J-87500D01*
G01*
G37*
G36*
G01*
X95525000Y-71237500D02*
X95525000Y-71612500D01*
G75*
G02*
X95437500Y-71700000I-87500J0D01*
G01*
X95262500Y-71700000D01*
G75*
G02*
X95175000Y-71612500I0J87500D01*
G01*
X95175000Y-71237500D01*
G75*
G02*
X95262500Y-71150000I87500J0D01*
G01*
X95437500Y-71150000D01*
G75*
G02*
X95525000Y-71237500I0J-87500D01*
G01*
G37*
G36*
G01*
X94900000Y-71112500D02*
X94900000Y-71287500D01*
G75*
G02*
X94812500Y-71375000I-87500J0D01*
G01*
X94437500Y-71375000D01*
G75*
G02*
X94350000Y-71287500I0J87500D01*
G01*
X94350000Y-71112500D01*
G75*
G02*
X94437500Y-71025000I87500J0D01*
G01*
X94812500Y-71025000D01*
G75*
G02*
X94900000Y-71112500I0J-87500D01*
G01*
G37*
G36*
G01*
X94900000Y-70612500D02*
X94900000Y-70787500D01*
G75*
G02*
X94812500Y-70875000I-87500J0D01*
G01*
X94437500Y-70875000D01*
G75*
G02*
X94350000Y-70787500I0J87500D01*
G01*
X94350000Y-70612500D01*
G75*
G02*
X94437500Y-70525000I87500J0D01*
G01*
X94812500Y-70525000D01*
G75*
G02*
X94900000Y-70612500I0J-87500D01*
G01*
G37*
G36*
G01*
X94900000Y-70112500D02*
X94900000Y-70287500D01*
G75*
G02*
X94812500Y-70375000I-87500J0D01*
G01*
X94437500Y-70375000D01*
G75*
G02*
X94350000Y-70287500I0J87500D01*
G01*
X94350000Y-70112500D01*
G75*
G02*
X94437500Y-70025000I87500J0D01*
G01*
X94812500Y-70025000D01*
G75*
G02*
X94900000Y-70112500I0J-87500D01*
G01*
G37*
G36*
G01*
X94900000Y-69612500D02*
X94900000Y-69787500D01*
G75*
G02*
X94812500Y-69875000I-87500J0D01*
G01*
X94437500Y-69875000D01*
G75*
G02*
X94350000Y-69787500I0J87500D01*
G01*
X94350000Y-69612500D01*
G75*
G02*
X94437500Y-69525000I87500J0D01*
G01*
X94812500Y-69525000D01*
G75*
G02*
X94900000Y-69612500I0J-87500D01*
G01*
G37*
G36*
G01*
X94900000Y-69112500D02*
X94900000Y-69287500D01*
G75*
G02*
X94812500Y-69375000I-87500J0D01*
G01*
X94437500Y-69375000D01*
G75*
G02*
X94350000Y-69287500I0J87500D01*
G01*
X94350000Y-69112500D01*
G75*
G02*
X94437500Y-69025000I87500J0D01*
G01*
X94812500Y-69025000D01*
G75*
G02*
X94900000Y-69112500I0J-87500D01*
G01*
G37*
G36*
G01*
X95525000Y-68787500D02*
X95525000Y-69162500D01*
G75*
G02*
X95437500Y-69250000I-87500J0D01*
G01*
X95262500Y-69250000D01*
G75*
G02*
X95175000Y-69162500I0J87500D01*
G01*
X95175000Y-68787500D01*
G75*
G02*
X95262500Y-68700000I87500J0D01*
G01*
X95437500Y-68700000D01*
G75*
G02*
X95525000Y-68787500I0J-87500D01*
G01*
G37*
G36*
G01*
X96025000Y-68787500D02*
X96025000Y-69162500D01*
G75*
G02*
X95937500Y-69250000I-87500J0D01*
G01*
X95762500Y-69250000D01*
G75*
G02*
X95675000Y-69162500I0J87500D01*
G01*
X95675000Y-68787500D01*
G75*
G02*
X95762500Y-68700000I87500J0D01*
G01*
X95937500Y-68700000D01*
G75*
G02*
X96025000Y-68787500I0J-87500D01*
G01*
G37*
G36*
G01*
X96525000Y-68787500D02*
X96525000Y-69162500D01*
G75*
G02*
X96437500Y-69250000I-87500J0D01*
G01*
X96262500Y-69250000D01*
G75*
G02*
X96175000Y-69162500I0J87500D01*
G01*
X96175000Y-68787500D01*
G75*
G02*
X96262500Y-68700000I87500J0D01*
G01*
X96437500Y-68700000D01*
G75*
G02*
X96525000Y-68787500I0J-87500D01*
G01*
G37*
G36*
G01*
X97350000Y-69112500D02*
X97350000Y-69287500D01*
G75*
G02*
X97262500Y-69375000I-87500J0D01*
G01*
X96887500Y-69375000D01*
G75*
G02*
X96800000Y-69287500I0J87500D01*
G01*
X96800000Y-69112500D01*
G75*
G02*
X96887500Y-69025000I87500J0D01*
G01*
X97262500Y-69025000D01*
G75*
G02*
X97350000Y-69112500I0J-87500D01*
G01*
G37*
G36*
G01*
X97350000Y-69612500D02*
X97350000Y-69787500D01*
G75*
G02*
X97262500Y-69875000I-87500J0D01*
G01*
X96887500Y-69875000D01*
G75*
G02*
X96800000Y-69787500I0J87500D01*
G01*
X96800000Y-69612500D01*
G75*
G02*
X96887500Y-69525000I87500J0D01*
G01*
X97262500Y-69525000D01*
G75*
G02*
X97350000Y-69612500I0J-87500D01*
G01*
G37*
G36*
G01*
X97350000Y-70112500D02*
X97350000Y-70287500D01*
G75*
G02*
X97262500Y-70375000I-87500J0D01*
G01*
X96887500Y-70375000D01*
G75*
G02*
X96800000Y-70287500I0J87500D01*
G01*
X96800000Y-70112500D01*
G75*
G02*
X96887500Y-70025000I87500J0D01*
G01*
X97262500Y-70025000D01*
G75*
G02*
X97350000Y-70112500I0J-87500D01*
G01*
G37*
G36*
G01*
X97350000Y-70612500D02*
X97350000Y-70787500D01*
G75*
G02*
X97262500Y-70875000I-87500J0D01*
G01*
X96887500Y-70875000D01*
G75*
G02*
X96800000Y-70787500I0J87500D01*
G01*
X96800000Y-70612500D01*
G75*
G02*
X96887500Y-70525000I87500J0D01*
G01*
X97262500Y-70525000D01*
G75*
G02*
X97350000Y-70612500I0J-87500D01*
G01*
G37*
G36*
G01*
X97350000Y-71112500D02*
X97350000Y-71287500D01*
G75*
G02*
X97262500Y-71375000I-87500J0D01*
G01*
X96887500Y-71375000D01*
G75*
G02*
X96800000Y-71287500I0J87500D01*
G01*
X96800000Y-71112500D01*
G75*
G02*
X96887500Y-71025000I87500J0D01*
G01*
X97262500Y-71025000D01*
G75*
G02*
X97350000Y-71112500I0J-87500D01*
G01*
G37*
%TD*%
%TO.C,C26*%
G36*
G01*
X98750000Y-71800000D02*
X98750000Y-72300000D01*
G75*
G02*
X98525000Y-72525000I-225000J0D01*
G01*
X98075000Y-72525000D01*
G75*
G02*
X97850000Y-72300000I0J225000D01*
G01*
X97850000Y-71800000D01*
G75*
G02*
X98075000Y-71575000I225000J0D01*
G01*
X98525000Y-71575000D01*
G75*
G02*
X98750000Y-71800000I0J-225000D01*
G01*
G37*
G36*
G01*
X100300000Y-71800000D02*
X100300000Y-72300000D01*
G75*
G02*
X100075000Y-72525000I-225000J0D01*
G01*
X99625000Y-72525000D01*
G75*
G02*
X99400000Y-72300000I0J225000D01*
G01*
X99400000Y-71800000D01*
G75*
G02*
X99625000Y-71575000I225000J0D01*
G01*
X100075000Y-71575000D01*
G75*
G02*
X100300000Y-71800000I0J-225000D01*
G01*
G37*
%TD*%
D10*
%TO.C,U4*%
X112285000Y-51500000D03*
X112285000Y-57600000D03*
D11*
X109437000Y-51263000D03*
G36*
G01*
X108721000Y-50975000D02*
X108979000Y-50975000D01*
G75*
G02*
X109000000Y-50996000I0J-21000D01*
G01*
X109000000Y-51604000D01*
G75*
G02*
X108979000Y-51625000I-21000J0D01*
G01*
X108721000Y-51625000D01*
G75*
G02*
X108700000Y-51604000I0J21000D01*
G01*
X108700000Y-50996000D01*
G75*
G02*
X108721000Y-50975000I21000J0D01*
G01*
G37*
D12*
X108400000Y-51300000D03*
X107950000Y-51300000D03*
X107500000Y-51300000D03*
X107050000Y-51300000D03*
X106600000Y-51300000D03*
X106150000Y-51300000D03*
X105700000Y-51300000D03*
X105250000Y-51300000D03*
X104800000Y-51300000D03*
X104350000Y-51300000D03*
X103900000Y-51300000D03*
X103450000Y-51300000D03*
X103000000Y-51300000D03*
G36*
G01*
X102421000Y-50975000D02*
X102679000Y-50975000D01*
G75*
G02*
X102700000Y-50996000I0J-21000D01*
G01*
X102700000Y-51604000D01*
G75*
G02*
X102679000Y-51625000I-21000J0D01*
G01*
X102421000Y-51625000D01*
G75*
G02*
X102400000Y-51604000I0J21000D01*
G01*
X102400000Y-50996000D01*
G75*
G02*
X102421000Y-50975000I21000J0D01*
G01*
G37*
D11*
X101963000Y-51263000D03*
G36*
G01*
X101696000Y-51700000D02*
X102304000Y-51700000D01*
G75*
G02*
X102325000Y-51721000I0J-21000D01*
G01*
X102325000Y-51979000D01*
G75*
G02*
X102304000Y-52000000I-21000J0D01*
G01*
X101696000Y-52000000D01*
G75*
G02*
X101675000Y-51979000I0J21000D01*
G01*
X101675000Y-51721000D01*
G75*
G02*
X101696000Y-51700000I21000J0D01*
G01*
G37*
D13*
X102000000Y-52300000D03*
X102000000Y-52750000D03*
X102000000Y-53200000D03*
X102000000Y-53650000D03*
X102000000Y-54100000D03*
X102000000Y-54550000D03*
X102000000Y-55000000D03*
X102000000Y-55450000D03*
X102000000Y-55900000D03*
X102000000Y-56350000D03*
X102000000Y-56800000D03*
G36*
G01*
X101696000Y-57100000D02*
X102304000Y-57100000D01*
G75*
G02*
X102325000Y-57121000I0J-21000D01*
G01*
X102325000Y-57379000D01*
G75*
G02*
X102304000Y-57400000I-21000J0D01*
G01*
X101696000Y-57400000D01*
G75*
G02*
X101675000Y-57379000I0J21000D01*
G01*
X101675000Y-57121000D01*
G75*
G02*
X101696000Y-57100000I21000J0D01*
G01*
G37*
D11*
X101963000Y-57837000D03*
G36*
G01*
X102421000Y-57475000D02*
X102679000Y-57475000D01*
G75*
G02*
X102700000Y-57496000I0J-21000D01*
G01*
X102700000Y-58104000D01*
G75*
G02*
X102679000Y-58125000I-21000J0D01*
G01*
X102421000Y-58125000D01*
G75*
G02*
X102400000Y-58104000I0J21000D01*
G01*
X102400000Y-57496000D01*
G75*
G02*
X102421000Y-57475000I21000J0D01*
G01*
G37*
D12*
X103000000Y-57800000D03*
X103450000Y-57800000D03*
X103900000Y-57800000D03*
X104350000Y-57800000D03*
X104800000Y-57800000D03*
X105250000Y-57800000D03*
X105700000Y-57800000D03*
X106150000Y-57800000D03*
X106600000Y-57800000D03*
X107050000Y-57800000D03*
X107500000Y-57800000D03*
X107950000Y-57800000D03*
X108400000Y-57800000D03*
G36*
G01*
X108721000Y-57475000D02*
X108979000Y-57475000D01*
G75*
G02*
X109000000Y-57496000I0J-21000D01*
G01*
X109000000Y-58104000D01*
G75*
G02*
X108979000Y-58125000I-21000J0D01*
G01*
X108721000Y-58125000D01*
G75*
G02*
X108700000Y-58104000I0J21000D01*
G01*
X108700000Y-57496000D01*
G75*
G02*
X108721000Y-57475000I21000J0D01*
G01*
G37*
D11*
X109437000Y-57837000D03*
G36*
G01*
X109096000Y-57100000D02*
X109704000Y-57100000D01*
G75*
G02*
X109725000Y-57121000I0J-21000D01*
G01*
X109725000Y-57379000D01*
G75*
G02*
X109704000Y-57400000I-21000J0D01*
G01*
X109096000Y-57400000D01*
G75*
G02*
X109075000Y-57379000I0J21000D01*
G01*
X109075000Y-57121000D01*
G75*
G02*
X109096000Y-57100000I21000J0D01*
G01*
G37*
D13*
X109400000Y-56800000D03*
X109400000Y-56350000D03*
X109400000Y-55900000D03*
X109400000Y-55450000D03*
X109400000Y-55000000D03*
X109400000Y-54550000D03*
X109400000Y-54100000D03*
X109400000Y-53650000D03*
X109400000Y-53200000D03*
X109400000Y-52750000D03*
X109400000Y-52300000D03*
G36*
G01*
X109096000Y-51700000D02*
X109704000Y-51700000D01*
G75*
G02*
X109725000Y-51721000I0J-21000D01*
G01*
X109725000Y-51979000D01*
G75*
G02*
X109704000Y-52000000I-21000J0D01*
G01*
X109096000Y-52000000D01*
G75*
G02*
X109075000Y-51979000I0J21000D01*
G01*
X109075000Y-51721000D01*
G75*
G02*
X109096000Y-51700000I21000J0D01*
G01*
G37*
D10*
X107950000Y-53200000D03*
X107050000Y-53200000D03*
X106150000Y-53200000D03*
X105250000Y-53200000D03*
X104350000Y-53200000D03*
X103450000Y-53200000D03*
X103450000Y-54100000D03*
X103450000Y-55000000D03*
X103450000Y-55900000D03*
X104350000Y-55900000D03*
X105250000Y-55900000D03*
X106150000Y-55900000D03*
X107050000Y-55900000D03*
X107950000Y-55900000D03*
X107950000Y-55000000D03*
X107950000Y-54100000D03*
X107050000Y-54100000D03*
X106150000Y-54100000D03*
X105250000Y-54100000D03*
X104350000Y-54100000D03*
X104350000Y-55000000D03*
X105250000Y-55000000D03*
X106150000Y-55000000D03*
X107050000Y-55000000D03*
%TD*%
%TO.C,C9*%
G36*
G01*
X105600000Y-64743750D02*
X105600000Y-65256250D01*
G75*
G02*
X105381250Y-65475000I-218750J0D01*
G01*
X104943750Y-65475000D01*
G75*
G02*
X104725000Y-65256250I0J218750D01*
G01*
X104725000Y-64743750D01*
G75*
G02*
X104943750Y-64525000I218750J0D01*
G01*
X105381250Y-64525000D01*
G75*
G02*
X105600000Y-64743750I0J-218750D01*
G01*
G37*
G36*
G01*
X107175000Y-64743750D02*
X107175000Y-65256250D01*
G75*
G02*
X106956250Y-65475000I-218750J0D01*
G01*
X106518750Y-65475000D01*
G75*
G02*
X106300000Y-65256250I0J218750D01*
G01*
X106300000Y-64743750D01*
G75*
G02*
X106518750Y-64525000I218750J0D01*
G01*
X106956250Y-64525000D01*
G75*
G02*
X107175000Y-64743750I0J-218750D01*
G01*
G37*
%TD*%
%TO.C,C20*%
G36*
G01*
X105550000Y-63243750D02*
X105550000Y-63756250D01*
G75*
G02*
X105331250Y-63975000I-218750J0D01*
G01*
X104893750Y-63975000D01*
G75*
G02*
X104675000Y-63756250I0J218750D01*
G01*
X104675000Y-63243750D01*
G75*
G02*
X104893750Y-63025000I218750J0D01*
G01*
X105331250Y-63025000D01*
G75*
G02*
X105550000Y-63243750I0J-218750D01*
G01*
G37*
G36*
G01*
X107125000Y-63243750D02*
X107125000Y-63756250D01*
G75*
G02*
X106906250Y-63975000I-218750J0D01*
G01*
X106468750Y-63975000D01*
G75*
G02*
X106250000Y-63756250I0J218750D01*
G01*
X106250000Y-63243750D01*
G75*
G02*
X106468750Y-63025000I218750J0D01*
G01*
X106906250Y-63025000D01*
G75*
G02*
X107125000Y-63243750I0J-218750D01*
G01*
G37*
%TD*%
%TO.C,D2*%
G36*
G01*
X102462500Y-74143750D02*
X102462500Y-75056250D01*
G75*
G02*
X102218750Y-75300000I-243750J0D01*
G01*
X101731250Y-75300000D01*
G75*
G02*
X101487500Y-75056250I0J243750D01*
G01*
X101487500Y-74143750D01*
G75*
G02*
X101731250Y-73900000I243750J0D01*
G01*
X102218750Y-73900000D01*
G75*
G02*
X102462500Y-74143750I0J-243750D01*
G01*
G37*
G36*
G01*
X104337500Y-74143750D02*
X104337500Y-75056250D01*
G75*
G02*
X104093750Y-75300000I-243750J0D01*
G01*
X103606250Y-75300000D01*
G75*
G02*
X103362500Y-75056250I0J243750D01*
G01*
X103362500Y-74143750D01*
G75*
G02*
X103606250Y-73900000I243750J0D01*
G01*
X104093750Y-73900000D01*
G75*
G02*
X104337500Y-74143750I0J-243750D01*
G01*
G37*
%TD*%
%TO.C,R3*%
G36*
G01*
X99937500Y-74856250D02*
X99937500Y-74343750D01*
G75*
G02*
X100156250Y-74125000I218750J0D01*
G01*
X100593750Y-74125000D01*
G75*
G02*
X100812500Y-74343750I0J-218750D01*
G01*
X100812500Y-74856250D01*
G75*
G02*
X100593750Y-75075000I-218750J0D01*
G01*
X100156250Y-75075000D01*
G75*
G02*
X99937500Y-74856250I0J218750D01*
G01*
G37*
G36*
G01*
X98362500Y-74856250D02*
X98362500Y-74343750D01*
G75*
G02*
X98581250Y-74125000I218750J0D01*
G01*
X99018750Y-74125000D01*
G75*
G02*
X99237500Y-74343750I0J-218750D01*
G01*
X99237500Y-74856250D01*
G75*
G02*
X99018750Y-75075000I-218750J0D01*
G01*
X98581250Y-75075000D01*
G75*
G02*
X98362500Y-74856250I0J218750D01*
G01*
G37*
%TD*%
D14*
%TO.C,J1*%
X100850000Y-66750000D03*
X100850000Y-60250000D03*
D15*
X103350000Y-65750000D03*
X103350000Y-65250000D03*
X103350000Y-64750000D03*
X103350000Y-64250000D03*
X103350000Y-63750000D03*
X103350000Y-63250000D03*
X103350000Y-62750000D03*
X103350000Y-62250000D03*
X103350000Y-61750000D03*
X103350000Y-61250000D03*
%TD*%
D16*
%TO.C,J4*%
X90300000Y-57135000D03*
X90300000Y-52965000D03*
X92300000Y-57135000D03*
X92300000Y-52965000D03*
X94300000Y-57135000D03*
X94300000Y-52965000D03*
X96300000Y-57135000D03*
X96300000Y-52965000D03*
X98300000Y-57135000D03*
X98300000Y-52965000D03*
%TD*%
M02*
