%TF.GenerationSoftware,KiCad,Pcbnew,(5.1.12)-1*%
%TF.CreationDate,2021-12-09T18:01:32-07:00*%
%TF.ProjectId,SolarGPS,536f6c61-7247-4505-932e-6b696361645f,rev?*%
%TF.SameCoordinates,Original*%
%TF.FileFunction,Soldermask,Bot*%
%TF.FilePolarity,Negative*%
%FSLAX46Y46*%
G04 Gerber Fmt 4.6, Leading zero omitted, Abs format (unit mm)*
G04 Created by KiCad (PCBNEW (5.1.12)-1) date 2021-12-09 18:01:32*
%MOMM*%
%LPD*%
G01*
G04 APERTURE LIST*
%ADD10C,0.300000*%
%ADD11C,1.524000*%
%ADD12C,3.500000*%
%ADD13R,1.700000X1.700000*%
G04 APERTURE END LIST*
D10*
X93385714Y-65546428D02*
X92885714Y-66260714D01*
X92528571Y-65546428D02*
X92528571Y-67046428D01*
X93100000Y-67046428D01*
X93242857Y-66975000D01*
X93314285Y-66903571D01*
X93385714Y-66760714D01*
X93385714Y-66546428D01*
X93314285Y-66403571D01*
X93242857Y-66332142D01*
X93100000Y-66260714D01*
X92528571Y-66260714D01*
X94028571Y-66332142D02*
X94528571Y-66332142D01*
X94742857Y-65546428D02*
X94028571Y-65546428D01*
X94028571Y-67046428D01*
X94742857Y-67046428D01*
X95314285Y-65975000D02*
X96028571Y-65975000D01*
X95171428Y-65546428D02*
X95671428Y-67046428D01*
X96171428Y-65546428D01*
X97385714Y-65546428D02*
X96671428Y-65546428D01*
X96671428Y-67046428D01*
X93100000Y-64425000D02*
X92957142Y-64496428D01*
X92742857Y-64496428D01*
X92528571Y-64425000D01*
X92385714Y-64282142D01*
X92314285Y-64139285D01*
X92242857Y-63853571D01*
X92242857Y-63639285D01*
X92314285Y-63353571D01*
X92385714Y-63210714D01*
X92528571Y-63067857D01*
X92742857Y-62996428D01*
X92885714Y-62996428D01*
X93100000Y-63067857D01*
X93171428Y-63139285D01*
X93171428Y-63639285D01*
X92885714Y-63639285D01*
X94100000Y-64496428D02*
X94385714Y-64496428D01*
X94528571Y-64425000D01*
X94671428Y-64282142D01*
X94742857Y-63996428D01*
X94742857Y-63496428D01*
X94671428Y-63210714D01*
X94528571Y-63067857D01*
X94385714Y-62996428D01*
X94100000Y-62996428D01*
X93957142Y-63067857D01*
X93814285Y-63210714D01*
X93742857Y-63496428D01*
X93742857Y-63996428D01*
X93814285Y-64282142D01*
X93957142Y-64425000D01*
X94100000Y-64496428D01*
X96100000Y-62996428D02*
X95385714Y-62996428D01*
X95385714Y-64496428D01*
X96600000Y-62996428D02*
X96600000Y-64496428D01*
X96957142Y-64496428D01*
X97171428Y-64425000D01*
X97314285Y-64282142D01*
X97385714Y-64139285D01*
X97457142Y-63853571D01*
X97457142Y-63639285D01*
X97385714Y-63353571D01*
X97314285Y-63210714D01*
X97171428Y-63067857D01*
X96957142Y-62996428D01*
X96600000Y-62996428D01*
D11*
%TO.C,C14*%
X81750000Y-60750000D03*
X81750000Y-66250000D03*
%TD*%
D12*
%TO.C,J7*%
X56500000Y-61000000D03*
X56500000Y-66000000D03*
X48900000Y-61000000D03*
X49000000Y-66000000D03*
%TD*%
D11*
%TO.C,C17*%
X60200000Y-60750000D03*
X60200000Y-66250000D03*
%TD*%
D13*
%TO.C,J6*%
X65000000Y-77000000D03*
%TD*%
%TO.C,J5*%
X110000000Y-77000000D03*
%TD*%
%TO.C,J3*%
X53000000Y-50000000D03*
%TD*%
%TO.C,J2*%
X110000000Y-50000000D03*
%TD*%
M02*
