%TF.GenerationSoftware,KiCad,Pcbnew,(5.1.12)-1*%
%TF.CreationDate,2021-12-09T18:01:32-07:00*%
%TF.ProjectId,SolarGPS,536f6c61-7247-4505-932e-6b696361645f,rev?*%
%TF.SameCoordinates,Original*%
%TF.FileFunction,Copper,L2,Bot*%
%TF.FilePolarity,Positive*%
%FSLAX46Y46*%
G04 Gerber Fmt 4.6, Leading zero omitted, Abs format (unit mm)*
G04 Created by KiCad (PCBNEW (5.1.12)-1) date 2021-12-09 18:01:32*
%MOMM*%
%LPD*%
G01*
G04 APERTURE LIST*
%TA.AperFunction,ComponentPad*%
%ADD10C,1.524000*%
%TD*%
%TA.AperFunction,ComponentPad*%
%ADD11C,3.500000*%
%TD*%
%TA.AperFunction,SMDPad,CuDef*%
%ADD12C,0.100000*%
%TD*%
%TA.AperFunction,ComponentPad*%
%ADD13C,0.500000*%
%TD*%
%TA.AperFunction,ComponentPad*%
%ADD14R,1.700000X1.700000*%
%TD*%
%TA.AperFunction,ViaPad*%
%ADD15C,0.500000*%
%TD*%
%TA.AperFunction,ViaPad*%
%ADD16C,0.600000*%
%TD*%
%TA.AperFunction,ViaPad*%
%ADD17C,0.800000*%
%TD*%
%TA.AperFunction,Conductor*%
%ADD18C,0.200000*%
%TD*%
%TA.AperFunction,Conductor*%
%ADD19C,0.400000*%
%TD*%
%TA.AperFunction,Conductor*%
%ADD20C,0.250000*%
%TD*%
%TA.AperFunction,Conductor*%
%ADD21C,0.100000*%
%TD*%
G04 APERTURE END LIST*
D10*
%TO.P,C14,2*%
%TO.N,VBATMID*%
X81750000Y-60750000D03*
%TO.P,C14,1*%
%TO.N,VBAT*%
X81750000Y-66250000D03*
%TD*%
D11*
%TO.P,J7,1*%
%TO.N,GND*%
X56500000Y-61000000D03*
X56500000Y-66000000D03*
X48900000Y-61000000D03*
X49000000Y-66000000D03*
%TD*%
D10*
%TO.P,C17,2*%
%TO.N,GND*%
X60200000Y-60750000D03*
%TO.P,C17,1*%
%TO.N,VBATMID*%
X60200000Y-66250000D03*
%TD*%
%TA.AperFunction,SMDPad,CuDef*%
D12*
%TO.P,U5,21*%
%TO.N,GND*%
G36*
X67200000Y-52685786D02*
G01*
X68614214Y-54100000D01*
X67200000Y-55514214D01*
X65785786Y-54100000D01*
X67200000Y-52685786D01*
G37*
%TD.AperFunction*%
D13*
X66139340Y-54100000D03*
X67200000Y-53039340D03*
X67200000Y-55160660D03*
X68260660Y-54100000D03*
%TD*%
D14*
%TO.P,J6,1*%
%TO.N,GND*%
X65000000Y-77000000D03*
%TD*%
%TO.P,J5,1*%
%TO.N,Net-(D1-Pad2)*%
X110000000Y-77000000D03*
%TD*%
%TO.P,J3,1*%
%TO.N,GND*%
X53000000Y-50000000D03*
%TD*%
%TO.P,J2,1*%
%TO.N,Net-(D3-Pad2)*%
X110000000Y-50000000D03*
%TD*%
D15*
%TO.N,GND*%
X60950000Y-69300000D03*
D16*
X121000000Y-61600000D03*
X120050000Y-58950000D03*
X121050000Y-58950000D03*
X118500000Y-62050000D03*
X117650000Y-62050000D03*
X116800000Y-62050000D03*
X116800000Y-62800000D03*
X116800000Y-63550000D03*
X116800000Y-64400000D03*
X116800000Y-65200000D03*
X116800000Y-66000000D03*
X116800000Y-66950000D03*
X117750000Y-66950000D03*
X118750000Y-66950000D03*
X119600000Y-66950000D03*
X120500000Y-66950000D03*
X121250000Y-66950000D03*
X63750000Y-69100000D03*
X52700000Y-71000000D03*
X52700000Y-71800000D03*
X52700000Y-72600000D03*
X52700000Y-73400000D03*
X52700000Y-74200000D03*
X52700000Y-75000000D03*
X52700000Y-75800000D03*
X52700000Y-76600000D03*
D15*
X59800000Y-74850000D03*
X62250000Y-67650000D03*
D16*
X57050000Y-57350000D03*
X52700000Y-59200000D03*
X53550000Y-59200000D03*
X50600000Y-68650000D03*
X66700000Y-65300000D03*
X68700000Y-67150000D03*
X73100000Y-69050000D03*
X63500000Y-74650000D03*
X70800000Y-75350000D03*
D15*
X54950000Y-70250000D03*
D16*
X51850000Y-53500000D03*
X50900000Y-53500000D03*
X56000000Y-50700000D03*
X60600000Y-58400000D03*
X65500000Y-58400000D03*
X67450000Y-58500000D03*
X73300000Y-58350000D03*
X76850000Y-57550000D03*
X76300000Y-55950000D03*
X77450000Y-51550000D03*
X77450000Y-50650000D03*
X107300000Y-52250000D03*
X110500000Y-52300000D03*
X111400000Y-63300000D03*
X111900000Y-66300000D03*
X111900000Y-65150000D03*
X112700000Y-69350000D03*
X113700000Y-70550000D03*
X113750000Y-71950000D03*
X113800000Y-73150000D03*
X121150000Y-68650000D03*
X121050000Y-70500000D03*
X121250000Y-72750000D03*
X121300000Y-74900000D03*
X121150000Y-76350000D03*
X117000000Y-76250000D03*
X113600000Y-76350000D03*
X112050000Y-76250000D03*
X110800000Y-69050000D03*
X108350000Y-69050000D03*
X77300000Y-75500000D03*
X83650000Y-71700000D03*
X88900000Y-72100000D03*
X82600000Y-74200000D03*
X89150000Y-74100000D03*
X101450000Y-74050000D03*
X79400000Y-70100000D03*
X81450000Y-68050000D03*
X83700000Y-65800000D03*
X86350000Y-63150000D03*
X89750000Y-66650000D03*
X87250000Y-69000000D03*
X92800000Y-69300000D03*
X94000000Y-58200000D03*
X89950000Y-57800000D03*
X94450000Y-60800000D03*
X80350000Y-58100000D03*
X80050000Y-53050000D03*
D15*
X54600000Y-74950000D03*
X56200000Y-74950000D03*
D16*
X121275000Y-50800000D03*
X121350000Y-54125000D03*
X121450000Y-57050000D03*
X116700000Y-50625000D03*
X113075000Y-50575000D03*
X112250000Y-62525000D03*
X114500000Y-62525000D03*
X105225000Y-60325000D03*
X104975000Y-65575000D03*
X106400000Y-76375000D03*
X102700000Y-52500000D03*
X91100000Y-52500000D03*
X85525000Y-56700000D03*
X101600000Y-64300000D03*
X104075000Y-57575000D03*
X101450000Y-57650000D03*
X55250000Y-53425000D03*
X54725000Y-55300000D03*
X66033990Y-74683990D03*
X52850000Y-66425000D03*
%TO.N,VBAT_SENSE*%
X110150000Y-74750000D03*
D15*
X54184998Y-72600000D03*
D16*
%TO.N,VDD*%
X63250000Y-76300000D03*
X51324989Y-68174989D03*
%TO.N,VSTOR*%
X69800000Y-55900000D03*
X69200000Y-51800000D03*
D15*
%TO.N,GPS_EXINT*%
X61700000Y-71200000D03*
D16*
X91550000Y-57000000D03*
D15*
%TO.N,EXTCOMIN*%
X63500000Y-64400000D03*
X57850000Y-63450000D03*
D16*
%TO.N,GPS_UART_MOSI*%
X92229283Y-55989676D03*
D15*
X53850000Y-68400000D03*
%TO.N,GPS_UART_MISO*%
X53200000Y-68550000D03*
D16*
X93100000Y-55350000D03*
%TO.N,VBAT*%
X69050000Y-56750000D03*
D17*
X60700000Y-52950000D03*
D16*
X55325000Y-54450000D03*
D15*
%TO.N,DISP_EN*%
X56550000Y-68450000D03*
X63550000Y-63750000D03*
%TO.N,SOLAR_SENSE1*%
X54200000Y-73250000D03*
D16*
X61650000Y-57750000D03*
X78350000Y-74250000D03*
X78600000Y-61400000D03*
D15*
%TO.N,RESET*%
X57650000Y-75150010D03*
D16*
X64775000Y-74725000D03*
D15*
%TO.N,VBATMID_SENSE*%
X54200000Y-72000000D03*
D16*
X110000000Y-71900000D03*
D15*
%TO.N,SPI_MOSI*%
X61950000Y-68450000D03*
X60850000Y-67450000D03*
%TO.N,SPI_MISO*%
X59000000Y-68200000D03*
X61850000Y-69200000D03*
D16*
%TO.N,SOLAR+*%
X62150000Y-53800000D03*
X71450000Y-50650000D03*
D17*
%TO.N,Net-(D1-Pad2)*%
X102850000Y-71050000D03*
X102600000Y-54450000D03*
%TD*%
D18*
%TO.N,GND*%
X65265010Y-76734990D02*
X66033990Y-75966010D01*
X66033990Y-75966010D02*
X66033990Y-74683990D01*
X49265010Y-67315010D02*
X49265010Y-66000000D01*
X50600000Y-68650000D02*
X49265010Y-67315010D01*
X51450000Y-59200000D02*
X50525000Y-60125000D01*
X52700000Y-59200000D02*
X51450000Y-59200000D01*
%TO.N,VBAT_SENSE*%
X56250000Y-72500000D02*
X54184998Y-72500000D01*
X56959989Y-73209989D02*
X56250000Y-72500000D01*
X108609989Y-73209989D02*
X56959989Y-73209989D01*
X110150000Y-74750000D02*
X108609989Y-73209989D01*
D19*
%TO.N,VDD*%
X63250000Y-76300000D02*
X54450000Y-76300000D01*
X54450000Y-76300000D02*
X53550000Y-75400000D01*
X53550000Y-75400000D02*
X53550000Y-70400000D01*
X53550000Y-70400000D02*
X51324989Y-68174989D01*
D18*
%TO.N,VSTOR*%
X69400000Y-55500000D02*
X69800000Y-55900000D01*
X69400000Y-52000000D02*
X69400000Y-55500000D01*
X69200000Y-51800000D02*
X69400000Y-52000000D01*
D20*
%TO.N,GPS_EXINT*%
X91550000Y-61450000D02*
X91550000Y-57000000D01*
X81800000Y-71200000D02*
X91550000Y-61450000D01*
X61700000Y-71200000D02*
X81800000Y-71200000D01*
D18*
%TO.N,EXTCOMIN*%
X63500000Y-64400000D02*
X63853553Y-64400000D01*
X64040001Y-63514799D02*
X63625202Y-63100000D01*
X63853553Y-64400000D02*
X64040001Y-64213552D01*
X64040001Y-64213552D02*
X64040001Y-63514799D01*
X63625202Y-63100000D02*
X58200000Y-63100000D01*
X58200000Y-63100000D02*
X57850000Y-63450000D01*
%TO.N,GPS_UART_MOSI*%
X53950000Y-68300000D02*
X53850000Y-68400000D01*
D20*
X57940052Y-69019203D02*
X54469203Y-69019203D01*
X81826613Y-71724945D02*
X60645794Y-71724945D01*
X92229283Y-55989676D02*
X92229283Y-61322275D01*
X92229283Y-61322275D02*
X81826613Y-71724945D01*
X54469203Y-69019203D02*
X53850000Y-68400000D01*
X60645794Y-71724945D02*
X57940052Y-69019203D01*
D18*
%TO.N,GPS_UART_MISO*%
X93100000Y-55774264D02*
X93100000Y-55350000D01*
D20*
X54059208Y-69409208D02*
X57609208Y-69409208D01*
X57609208Y-69409208D02*
X60314956Y-72114956D01*
X60314956Y-72114956D02*
X81988160Y-72114956D01*
X81988160Y-72114956D02*
X93100000Y-61003116D01*
X93100000Y-61003116D02*
X93100000Y-55774264D01*
X53200000Y-68550000D02*
X54059208Y-69409208D01*
D19*
%TO.N,VBAT*%
X81400000Y-56750000D02*
X69050000Y-56750000D01*
X83750000Y-59100000D02*
X81400000Y-56750000D01*
X83750000Y-64250000D02*
X83750000Y-59100000D01*
X81750000Y-66250000D02*
X83750000Y-64250000D01*
X60700000Y-54350000D02*
X60700000Y-52950000D01*
X63100000Y-56750000D02*
X60700000Y-54350000D01*
X69050000Y-56750000D02*
X63100000Y-56750000D01*
D18*
X59200000Y-54450000D02*
X60700000Y-52950000D01*
X55325000Y-54450000D02*
X59200000Y-54450000D01*
%TO.N,DISP_EN*%
X60300000Y-63750000D02*
X63550000Y-63750000D01*
X58850000Y-65200000D02*
X60300000Y-63750000D01*
X57200000Y-68450000D02*
X58850000Y-66800000D01*
X58850000Y-66800000D02*
X58850000Y-65200000D01*
X56550000Y-68450000D02*
X57200000Y-68450000D01*
%TO.N,SOLAR_SENSE1*%
X77650000Y-73550000D02*
X78350000Y-74250000D01*
X56300000Y-73550000D02*
X77650000Y-73550000D01*
X56000000Y-73250000D02*
X56300000Y-73550000D01*
X54200000Y-73250000D02*
X56000000Y-73250000D01*
X61650000Y-57750000D02*
X74950000Y-57750000D01*
X74950000Y-57750000D02*
X78600000Y-61400000D01*
%TO.N,RESET*%
X63974214Y-75525786D02*
X64775000Y-74725000D01*
X57650000Y-75150010D02*
X58025776Y-75525786D01*
X58025776Y-75525786D02*
X63974214Y-75525786D01*
D19*
%TO.N,VBATMID*%
X76250000Y-66250000D02*
X81750000Y-60750000D01*
X60200000Y-66250000D02*
X76250000Y-66250000D01*
D18*
%TO.N,VBATMID_SENSE*%
X56700000Y-72000000D02*
X54200000Y-72000000D01*
X57569978Y-72869978D02*
X56700000Y-72000000D01*
X109030022Y-72869978D02*
X57569978Y-72869978D01*
X110000000Y-71900000D02*
X109030022Y-72869978D01*
%TO.N,SPI_MOSI*%
X61850000Y-68450000D02*
X60850000Y-67450000D01*
X61950000Y-68450000D02*
X61850000Y-68450000D01*
%TO.N,SPI_MISO*%
X60850000Y-68200000D02*
X61850000Y-69200000D01*
X59000000Y-68200000D02*
X60850000Y-68200000D01*
%TO.N,SOLAR+*%
X71200000Y-50400000D02*
X71450000Y-50650000D01*
X65550000Y-50400000D02*
X71200000Y-50400000D01*
X62150000Y-53800000D02*
X65550000Y-50400000D01*
D19*
%TO.N,Net-(D1-Pad2)*%
X102850000Y-71050000D02*
X102850000Y-54700000D01*
X102850000Y-54700000D02*
X102600000Y-54450000D01*
%TD*%
D18*
%TO.N,GND*%
X62184315Y-53200000D02*
X62090905Y-53200000D01*
X61974986Y-53223058D01*
X61865793Y-53268287D01*
X61767522Y-53333950D01*
X61683950Y-53417522D01*
X61618287Y-53515793D01*
X61573058Y-53624986D01*
X61550000Y-53740905D01*
X61550000Y-53859095D01*
X61573058Y-53975014D01*
X61618287Y-54084207D01*
X61683950Y-54182478D01*
X61767522Y-54266050D01*
X61865793Y-54331713D01*
X61974986Y-54376942D01*
X62090905Y-54400000D01*
X62209095Y-54400000D01*
X62325014Y-54376942D01*
X62434207Y-54331713D01*
X62532478Y-54266050D01*
X62616050Y-54182478D01*
X62671160Y-54100000D01*
X65430074Y-54100000D01*
X65436908Y-54169396D01*
X65457151Y-54236126D01*
X65490022Y-54297624D01*
X65534259Y-54351527D01*
X65692248Y-54508906D01*
X65691430Y-54509724D01*
X65709169Y-54527463D01*
X65712433Y-54531398D01*
X65716001Y-54534295D01*
X65729616Y-54547910D01*
X65730508Y-54547018D01*
X66160907Y-54975752D01*
X66286064Y-54975752D01*
X67161816Y-54100000D01*
X67238184Y-54100000D01*
X68113936Y-54975752D01*
X68239093Y-54975752D01*
X68669491Y-54547017D01*
X68670384Y-54547910D01*
X68688124Y-54530170D01*
X68692058Y-54526907D01*
X68694956Y-54523338D01*
X68708570Y-54509724D01*
X68707752Y-54508906D01*
X68865741Y-54351527D01*
X68909978Y-54297624D01*
X68942849Y-54236126D01*
X68963092Y-54169396D01*
X68969926Y-54100000D01*
X68963092Y-54030604D01*
X68942849Y-53963874D01*
X68909978Y-53902376D01*
X68865741Y-53848473D01*
X68707752Y-53691094D01*
X68708570Y-53690276D01*
X68690831Y-53672537D01*
X68687567Y-53668602D01*
X68683999Y-53665705D01*
X68670384Y-53652090D01*
X68669492Y-53652982D01*
X68239093Y-53224248D01*
X68113936Y-53224248D01*
X67238184Y-54100000D01*
X67161816Y-54100000D01*
X66286064Y-53224248D01*
X66160907Y-53224248D01*
X65730509Y-53652983D01*
X65729616Y-53652090D01*
X65711876Y-53669830D01*
X65707942Y-53673093D01*
X65705044Y-53676662D01*
X65691430Y-53690276D01*
X65692248Y-53691094D01*
X65534259Y-53848473D01*
X65490022Y-53902376D01*
X65457151Y-53963874D01*
X65436908Y-54030604D01*
X65430074Y-54100000D01*
X62671160Y-54100000D01*
X62681713Y-54084207D01*
X62726942Y-53975014D01*
X62750000Y-53859095D01*
X62750000Y-53765685D01*
X63454778Y-53060907D01*
X66324248Y-53060907D01*
X66324248Y-53186064D01*
X67200000Y-54061816D01*
X68075752Y-53186064D01*
X68075752Y-53060907D01*
X67647017Y-52630509D01*
X67647910Y-52629616D01*
X67630170Y-52611876D01*
X67626907Y-52607942D01*
X67623338Y-52605044D01*
X67609724Y-52591430D01*
X67608906Y-52592248D01*
X67451527Y-52434259D01*
X67397624Y-52390022D01*
X67336126Y-52357151D01*
X67269396Y-52336908D01*
X67200000Y-52330074D01*
X67130604Y-52336908D01*
X67063874Y-52357151D01*
X67002376Y-52390022D01*
X66948473Y-52434259D01*
X66791094Y-52592248D01*
X66790276Y-52591430D01*
X66772537Y-52609169D01*
X66768602Y-52612433D01*
X66765705Y-52616001D01*
X66752090Y-52629616D01*
X66752982Y-52630508D01*
X66324248Y-53060907D01*
X63454778Y-53060907D01*
X65715686Y-50800000D01*
X70868082Y-50800000D01*
X70873058Y-50825014D01*
X70918287Y-50934207D01*
X70983950Y-51032478D01*
X71067522Y-51116050D01*
X71165793Y-51181713D01*
X71274986Y-51226942D01*
X71390905Y-51250000D01*
X71509095Y-51250000D01*
X71625014Y-51226942D01*
X71734207Y-51181713D01*
X71832478Y-51116050D01*
X71916050Y-51032478D01*
X71981713Y-50934207D01*
X72026942Y-50825014D01*
X72050000Y-50709095D01*
X72050000Y-50590905D01*
X72026942Y-50474986D01*
X71981713Y-50365793D01*
X71954456Y-50325000D01*
X108547097Y-50325000D01*
X108547097Y-50850000D01*
X108558682Y-50967621D01*
X108592990Y-51080721D01*
X108648704Y-51184955D01*
X108723683Y-51276317D01*
X108815045Y-51351296D01*
X108919279Y-51407010D01*
X109032379Y-51441318D01*
X109150000Y-51452903D01*
X110850000Y-51452903D01*
X110967621Y-51441318D01*
X111080721Y-51407010D01*
X111184955Y-51351296D01*
X111276317Y-51276317D01*
X111351296Y-51184955D01*
X111407010Y-51080721D01*
X111441318Y-50967621D01*
X111452903Y-50850000D01*
X111452903Y-50325000D01*
X120984103Y-50325000D01*
X121130805Y-50339384D01*
X121256629Y-50377373D01*
X121372675Y-50439076D01*
X121474532Y-50522148D01*
X121558310Y-50623418D01*
X121620819Y-50739027D01*
X121659686Y-50864586D01*
X121675000Y-51010285D01*
X121675000Y-63153587D01*
X121669509Y-63151921D01*
X121650000Y-63150000D01*
X119750000Y-63150000D01*
X119750000Y-62450000D01*
X119748079Y-62430491D01*
X119742388Y-62411732D01*
X119733147Y-62394443D01*
X119720711Y-62379289D01*
X119705557Y-62366853D01*
X119688268Y-62357612D01*
X119669509Y-62351921D01*
X119650000Y-62350000D01*
X117300000Y-62350000D01*
X117280491Y-62351921D01*
X117261732Y-62357612D01*
X117244443Y-62366853D01*
X117229289Y-62379289D01*
X117216853Y-62394443D01*
X117207612Y-62411732D01*
X117201921Y-62430491D01*
X117200000Y-62450000D01*
X117200000Y-66450000D01*
X117201921Y-66469509D01*
X117207612Y-66488268D01*
X117216853Y-66505557D01*
X117229289Y-66520711D01*
X117244443Y-66533147D01*
X117261732Y-66542388D01*
X117280491Y-66548079D01*
X117300000Y-66550000D01*
X119700000Y-66550000D01*
X119719509Y-66548079D01*
X119738268Y-66542388D01*
X119755557Y-66533147D01*
X119770711Y-66520711D01*
X119783147Y-66505557D01*
X119792388Y-66488268D01*
X119798079Y-66469509D01*
X119800000Y-66450000D01*
X119800000Y-65750000D01*
X121650000Y-65750000D01*
X121669509Y-65748079D01*
X121675001Y-65746413D01*
X121675001Y-75984094D01*
X121660616Y-76130805D01*
X121622627Y-76256629D01*
X121560924Y-76372675D01*
X121477853Y-76474531D01*
X121376586Y-76558307D01*
X121260973Y-76620819D01*
X121135410Y-76659687D01*
X120989716Y-76675000D01*
X111452903Y-76675000D01*
X111452903Y-76150000D01*
X111441318Y-76032379D01*
X111407010Y-75919279D01*
X111351296Y-75815045D01*
X111276317Y-75723683D01*
X111184955Y-75648704D01*
X111080721Y-75592990D01*
X110967621Y-75558682D01*
X110850000Y-75547097D01*
X109150000Y-75547097D01*
X109032379Y-75558682D01*
X108919279Y-75592990D01*
X108815045Y-75648704D01*
X108723683Y-75723683D01*
X108648704Y-75815045D01*
X108592990Y-75919279D01*
X108558682Y-76032379D01*
X108547097Y-76150000D01*
X108547097Y-76675000D01*
X63721047Y-76675000D01*
X63781713Y-76584207D01*
X63826942Y-76475014D01*
X63850000Y-76359095D01*
X63850000Y-76240905D01*
X63826942Y-76124986D01*
X63781713Y-76015793D01*
X63721572Y-75925786D01*
X63954568Y-75925786D01*
X63974214Y-75927721D01*
X63993860Y-75925786D01*
X63993861Y-75925786D01*
X64052628Y-75919998D01*
X64128028Y-75897126D01*
X64197517Y-75859983D01*
X64258425Y-75809997D01*
X64270951Y-75794734D01*
X64740685Y-75325000D01*
X64834095Y-75325000D01*
X64950014Y-75301942D01*
X65059207Y-75256713D01*
X65157478Y-75191050D01*
X65241050Y-75107478D01*
X65306713Y-75009207D01*
X65351942Y-74900014D01*
X65375000Y-74784095D01*
X65375000Y-74665905D01*
X65351942Y-74549986D01*
X65306713Y-74440793D01*
X65241050Y-74342522D01*
X65157478Y-74258950D01*
X65059207Y-74193287D01*
X64950014Y-74148058D01*
X64834095Y-74125000D01*
X64715905Y-74125000D01*
X64599986Y-74148058D01*
X64490793Y-74193287D01*
X64392522Y-74258950D01*
X64308950Y-74342522D01*
X64243287Y-74440793D01*
X64198058Y-74549986D01*
X64175000Y-74665905D01*
X64175000Y-74759315D01*
X63808529Y-75125786D01*
X58200000Y-75125786D01*
X58200000Y-75095840D01*
X58178864Y-74989581D01*
X58137403Y-74889487D01*
X58077213Y-74799406D01*
X58000604Y-74722797D01*
X57910523Y-74662607D01*
X57810429Y-74621146D01*
X57704170Y-74600010D01*
X57595830Y-74600010D01*
X57489571Y-74621146D01*
X57389477Y-74662607D01*
X57299396Y-74722797D01*
X57222787Y-74799406D01*
X57162597Y-74889487D01*
X57121136Y-74989581D01*
X57100000Y-75095840D01*
X57100000Y-75204180D01*
X57121136Y-75310439D01*
X57162597Y-75410533D01*
X57222787Y-75500614D01*
X57299396Y-75577223D01*
X57389477Y-75637413D01*
X57489571Y-75678874D01*
X57595830Y-75700010D01*
X57634315Y-75700010D01*
X57729039Y-75794734D01*
X57733361Y-75800000D01*
X54657106Y-75800000D01*
X54050000Y-75192895D01*
X54050000Y-73780938D01*
X54145830Y-73800000D01*
X54254170Y-73800000D01*
X54360429Y-73778864D01*
X54460523Y-73737403D01*
X54550604Y-73677213D01*
X54577817Y-73650000D01*
X55834315Y-73650000D01*
X56003267Y-73818953D01*
X56015789Y-73834211D01*
X56031047Y-73846733D01*
X56031049Y-73846735D01*
X56056378Y-73867522D01*
X56076697Y-73884197D01*
X56146186Y-73921340D01*
X56221586Y-73944212D01*
X56280353Y-73950000D01*
X56280355Y-73950000D01*
X56299999Y-73951935D01*
X56319643Y-73950000D01*
X77484315Y-73950000D01*
X77750000Y-74215685D01*
X77750000Y-74309095D01*
X77773058Y-74425014D01*
X77818287Y-74534207D01*
X77883950Y-74632478D01*
X77967522Y-74716050D01*
X78065793Y-74781713D01*
X78174986Y-74826942D01*
X78290905Y-74850000D01*
X78409095Y-74850000D01*
X78525014Y-74826942D01*
X78634207Y-74781713D01*
X78732478Y-74716050D01*
X78816050Y-74632478D01*
X78881713Y-74534207D01*
X78926942Y-74425014D01*
X78950000Y-74309095D01*
X78950000Y-74190905D01*
X78926942Y-74074986D01*
X78881713Y-73965793D01*
X78816050Y-73867522D01*
X78732478Y-73783950D01*
X78634207Y-73718287D01*
X78525014Y-73673058D01*
X78409095Y-73650000D01*
X78315685Y-73650000D01*
X78275674Y-73609989D01*
X108444304Y-73609989D01*
X109550000Y-74715685D01*
X109550000Y-74809095D01*
X109573058Y-74925014D01*
X109618287Y-75034207D01*
X109683950Y-75132478D01*
X109767522Y-75216050D01*
X109865793Y-75281713D01*
X109974986Y-75326942D01*
X110090905Y-75350000D01*
X110209095Y-75350000D01*
X110325014Y-75326942D01*
X110434207Y-75281713D01*
X110532478Y-75216050D01*
X110616050Y-75132478D01*
X110681713Y-75034207D01*
X110726942Y-74925014D01*
X110750000Y-74809095D01*
X110750000Y-74690905D01*
X110726942Y-74574986D01*
X110681713Y-74465793D01*
X110616050Y-74367522D01*
X110532478Y-74283950D01*
X110434207Y-74218287D01*
X110325014Y-74173058D01*
X110209095Y-74150000D01*
X110115685Y-74150000D01*
X109198933Y-73233248D01*
X109253325Y-73204175D01*
X109314233Y-73154189D01*
X109326759Y-73138926D01*
X109965686Y-72500000D01*
X110059095Y-72500000D01*
X110175014Y-72476942D01*
X110284207Y-72431713D01*
X110382478Y-72366050D01*
X110466050Y-72282478D01*
X110531713Y-72184207D01*
X110576942Y-72075014D01*
X110600000Y-71959095D01*
X110600000Y-71840905D01*
X110576942Y-71724986D01*
X110531713Y-71615793D01*
X110466050Y-71517522D01*
X110382478Y-71433950D01*
X110284207Y-71368287D01*
X110175014Y-71323058D01*
X110059095Y-71300000D01*
X109940905Y-71300000D01*
X109824986Y-71323058D01*
X109715793Y-71368287D01*
X109617522Y-71433950D01*
X109533950Y-71517522D01*
X109468287Y-71615793D01*
X109423058Y-71724986D01*
X109400000Y-71840905D01*
X109400000Y-71934314D01*
X108864337Y-72469978D01*
X82225496Y-72469978D01*
X82290134Y-72416930D01*
X82303444Y-72400712D01*
X93385763Y-61318394D01*
X93401974Y-61305090D01*
X93455084Y-61240376D01*
X93489121Y-61176697D01*
X93494548Y-61166544D01*
X93518850Y-61086431D01*
X93521475Y-61059774D01*
X93525000Y-61023990D01*
X93525000Y-61023983D01*
X93527055Y-61003116D01*
X93525000Y-60982249D01*
X93525000Y-55773528D01*
X93566050Y-55732478D01*
X93631713Y-55634207D01*
X93676942Y-55525014D01*
X93700000Y-55409095D01*
X93700000Y-55290905D01*
X93676942Y-55174986D01*
X93631713Y-55065793D01*
X93566050Y-54967522D01*
X93482478Y-54883950D01*
X93384207Y-54818287D01*
X93275014Y-54773058D01*
X93159095Y-54750000D01*
X93040905Y-54750000D01*
X92924986Y-54773058D01*
X92815793Y-54818287D01*
X92717522Y-54883950D01*
X92633950Y-54967522D01*
X92568287Y-55065793D01*
X92523058Y-55174986D01*
X92500000Y-55290905D01*
X92500000Y-55409095D01*
X92509382Y-55456261D01*
X92404297Y-55412734D01*
X92288378Y-55389676D01*
X92170188Y-55389676D01*
X92054269Y-55412734D01*
X91945076Y-55457963D01*
X91846805Y-55523626D01*
X91763233Y-55607198D01*
X91697570Y-55705469D01*
X91652341Y-55814662D01*
X91629283Y-55930581D01*
X91629283Y-56048771D01*
X91652341Y-56164690D01*
X91697570Y-56273883D01*
X91763233Y-56372154D01*
X91804283Y-56413204D01*
X91804283Y-56455892D01*
X91725014Y-56423058D01*
X91609095Y-56400000D01*
X91490905Y-56400000D01*
X91374986Y-56423058D01*
X91265793Y-56468287D01*
X91167522Y-56533950D01*
X91083950Y-56617522D01*
X91018287Y-56715793D01*
X90973058Y-56824986D01*
X90950000Y-56940905D01*
X90950000Y-57059095D01*
X90973058Y-57175014D01*
X91018287Y-57284207D01*
X91083950Y-57382478D01*
X91125001Y-57423529D01*
X91125000Y-61273959D01*
X81623960Y-70775000D01*
X62052817Y-70775000D01*
X62050604Y-70772787D01*
X61960523Y-70712597D01*
X61860429Y-70671136D01*
X61754170Y-70650000D01*
X61645830Y-70650000D01*
X61539571Y-70671136D01*
X61439477Y-70712597D01*
X61349396Y-70772787D01*
X61272787Y-70849396D01*
X61212597Y-70939477D01*
X61171136Y-71039571D01*
X61150000Y-71145830D01*
X61150000Y-71254170D01*
X61159105Y-71299945D01*
X60821835Y-71299945D01*
X58255335Y-68733446D01*
X58242026Y-68717229D01*
X58177312Y-68664119D01*
X58103479Y-68624655D01*
X58023366Y-68600353D01*
X57960926Y-68594203D01*
X57960919Y-68594203D01*
X57940052Y-68592148D01*
X57919185Y-68594203D01*
X57621482Y-68594203D01*
X59118949Y-67096736D01*
X59134211Y-67084211D01*
X59184197Y-67023303D01*
X59221340Y-66953814D01*
X59244212Y-66878414D01*
X59250000Y-66819647D01*
X59250000Y-66819637D01*
X59251934Y-66800001D01*
X59250000Y-66780365D01*
X59250000Y-66731639D01*
X59258867Y-66753046D01*
X59375090Y-66926986D01*
X59523014Y-67074910D01*
X59696954Y-67191133D01*
X59890226Y-67271188D01*
X60095402Y-67312000D01*
X60304598Y-67312000D01*
X60317172Y-67309499D01*
X60300000Y-67395830D01*
X60300000Y-67504170D01*
X60321136Y-67610429D01*
X60362597Y-67710523D01*
X60422383Y-67800000D01*
X59377817Y-67800000D01*
X59350604Y-67772787D01*
X59260523Y-67712597D01*
X59160429Y-67671136D01*
X59054170Y-67650000D01*
X58945830Y-67650000D01*
X58839571Y-67671136D01*
X58739477Y-67712597D01*
X58649396Y-67772787D01*
X58572787Y-67849396D01*
X58512597Y-67939477D01*
X58471136Y-68039571D01*
X58450000Y-68145830D01*
X58450000Y-68254170D01*
X58471136Y-68360429D01*
X58512597Y-68460523D01*
X58572787Y-68550604D01*
X58649396Y-68627213D01*
X58739477Y-68687403D01*
X58839571Y-68728864D01*
X58945830Y-68750000D01*
X59054170Y-68750000D01*
X59160429Y-68728864D01*
X59260523Y-68687403D01*
X59350604Y-68627213D01*
X59377817Y-68600000D01*
X60684315Y-68600000D01*
X61300000Y-69215685D01*
X61300000Y-69254170D01*
X61321136Y-69360429D01*
X61362597Y-69460523D01*
X61422787Y-69550604D01*
X61499396Y-69627213D01*
X61589477Y-69687403D01*
X61689571Y-69728864D01*
X61795830Y-69750000D01*
X61904170Y-69750000D01*
X62010429Y-69728864D01*
X62110523Y-69687403D01*
X62200604Y-69627213D01*
X62277213Y-69550604D01*
X62337403Y-69460523D01*
X62378864Y-69360429D01*
X62400000Y-69254170D01*
X62400000Y-69145830D01*
X62378864Y-69039571D01*
X62337403Y-68939477D01*
X62297283Y-68879432D01*
X62300604Y-68877213D01*
X62377213Y-68800604D01*
X62437403Y-68710523D01*
X62478864Y-68610429D01*
X62500000Y-68504170D01*
X62500000Y-68395830D01*
X62478864Y-68289571D01*
X62437403Y-68189477D01*
X62377213Y-68099396D01*
X62300604Y-68022787D01*
X62210523Y-67962597D01*
X62110429Y-67921136D01*
X62004170Y-67900000D01*
X61895830Y-67900000D01*
X61870686Y-67905001D01*
X61400000Y-67434315D01*
X61400000Y-67395830D01*
X61378864Y-67289571D01*
X61337403Y-67189477D01*
X61277213Y-67099396D01*
X61200604Y-67022787D01*
X61110523Y-66962597D01*
X61024805Y-66927091D01*
X61024910Y-66926986D01*
X61141133Y-66753046D01*
X61142395Y-66750000D01*
X76225440Y-66750000D01*
X76250000Y-66752419D01*
X76274560Y-66750000D01*
X76348017Y-66742765D01*
X76442267Y-66714175D01*
X76529129Y-66667746D01*
X76605264Y-66605264D01*
X76620929Y-66586176D01*
X81437180Y-61769926D01*
X81440226Y-61771188D01*
X81645402Y-61812000D01*
X81854598Y-61812000D01*
X82059774Y-61771188D01*
X82253046Y-61691133D01*
X82426986Y-61574910D01*
X82574910Y-61426986D01*
X82691133Y-61253046D01*
X82771188Y-61059774D01*
X82812000Y-60854598D01*
X82812000Y-60645402D01*
X82771188Y-60440226D01*
X82691133Y-60246954D01*
X82574910Y-60073014D01*
X82426986Y-59925090D01*
X82253046Y-59808867D01*
X82059774Y-59728812D01*
X81854598Y-59688000D01*
X81645402Y-59688000D01*
X81440226Y-59728812D01*
X81246954Y-59808867D01*
X81073014Y-59925090D01*
X80925090Y-60073014D01*
X80808867Y-60246954D01*
X80728812Y-60440226D01*
X80688000Y-60645402D01*
X80688000Y-60854598D01*
X80728812Y-61059774D01*
X80730074Y-61062820D01*
X76042895Y-65750000D01*
X61142395Y-65750000D01*
X61141133Y-65746954D01*
X61024910Y-65573014D01*
X60876986Y-65425090D01*
X60703046Y-65308867D01*
X60509774Y-65228812D01*
X60304598Y-65188000D01*
X60095402Y-65188000D01*
X59890226Y-65228812D01*
X59696954Y-65308867D01*
X59523014Y-65425090D01*
X59375090Y-65573014D01*
X59258867Y-65746954D01*
X59250000Y-65768361D01*
X59250000Y-65365685D01*
X60465685Y-64150000D01*
X63008238Y-64150000D01*
X62971136Y-64239571D01*
X62950000Y-64345830D01*
X62950000Y-64454170D01*
X62971136Y-64560429D01*
X63012597Y-64660523D01*
X63072787Y-64750604D01*
X63149396Y-64827213D01*
X63239477Y-64887403D01*
X63339571Y-64928864D01*
X63445830Y-64950000D01*
X63554170Y-64950000D01*
X63660429Y-64928864D01*
X63760523Y-64887403D01*
X63850604Y-64827213D01*
X63878321Y-64799496D01*
X63931967Y-64794212D01*
X64007367Y-64771340D01*
X64076856Y-64734197D01*
X64137764Y-64684211D01*
X64150290Y-64668948D01*
X64308950Y-64510288D01*
X64324212Y-64497763D01*
X64374198Y-64436855D01*
X64411341Y-64367366D01*
X64434213Y-64291966D01*
X64440001Y-64233199D01*
X64440001Y-64233189D01*
X64441935Y-64213553D01*
X64440001Y-64193917D01*
X64440001Y-63534434D01*
X64441935Y-63514798D01*
X64440001Y-63495162D01*
X64440001Y-63495152D01*
X64434213Y-63436385D01*
X64411341Y-63360985D01*
X64374198Y-63291496D01*
X64324212Y-63230588D01*
X64308949Y-63218062D01*
X63921939Y-62831052D01*
X63909413Y-62815789D01*
X63848505Y-62765803D01*
X63779016Y-62728660D01*
X63703616Y-62705788D01*
X63644849Y-62700000D01*
X63644848Y-62700000D01*
X63625202Y-62698065D01*
X63605556Y-62700000D01*
X58219647Y-62700000D01*
X58200000Y-62698065D01*
X58121586Y-62705788D01*
X58046186Y-62728660D01*
X57976697Y-62765803D01*
X57931049Y-62803265D01*
X57931047Y-62803267D01*
X57915789Y-62815789D01*
X57903267Y-62831047D01*
X57834314Y-62900000D01*
X57795830Y-62900000D01*
X57689571Y-62921136D01*
X57589477Y-62962597D01*
X57499396Y-63022787D01*
X57422787Y-63099396D01*
X57362597Y-63189477D01*
X57321136Y-63289571D01*
X57300000Y-63395830D01*
X57300000Y-63504170D01*
X57321136Y-63610429D01*
X57362597Y-63710523D01*
X57422787Y-63800604D01*
X57499396Y-63877213D01*
X57589477Y-63937403D01*
X57689571Y-63978864D01*
X57795830Y-64000000D01*
X57904170Y-64000000D01*
X58010429Y-63978864D01*
X58110523Y-63937403D01*
X58200604Y-63877213D01*
X58277213Y-63800604D01*
X58337403Y-63710523D01*
X58378864Y-63610429D01*
X58400000Y-63504170D01*
X58400000Y-63500000D01*
X59984315Y-63500000D01*
X58581048Y-64903267D01*
X58565790Y-64915789D01*
X58553268Y-64931047D01*
X58553265Y-64931050D01*
X58515803Y-64976698D01*
X58478661Y-65046186D01*
X58455788Y-65121587D01*
X58448789Y-65192646D01*
X58288381Y-64872412D01*
X58226138Y-64779261D01*
X57951337Y-64586847D01*
X56538184Y-66000000D01*
X56552326Y-66014142D01*
X56514142Y-66052326D01*
X56500000Y-66038184D01*
X55086847Y-67451337D01*
X55279261Y-67726138D01*
X55639469Y-67931126D01*
X56032748Y-68061901D01*
X56146079Y-68076104D01*
X56122787Y-68099396D01*
X56062597Y-68189477D01*
X56021136Y-68289571D01*
X56000000Y-68395830D01*
X56000000Y-68504170D01*
X56017908Y-68594203D01*
X54645244Y-68594203D01*
X54400000Y-68348960D01*
X54400000Y-68345830D01*
X54378864Y-68239571D01*
X54337403Y-68139477D01*
X54277213Y-68049396D01*
X54200604Y-67972787D01*
X54110523Y-67912597D01*
X54010429Y-67871136D01*
X53904170Y-67850000D01*
X53795830Y-67850000D01*
X53689571Y-67871136D01*
X53589477Y-67912597D01*
X53499396Y-67972787D01*
X53424505Y-68047678D01*
X53360429Y-68021136D01*
X53254170Y-68000000D01*
X53145830Y-68000000D01*
X53039571Y-68021136D01*
X52939477Y-68062597D01*
X52849396Y-68122787D01*
X52772787Y-68199396D01*
X52712597Y-68289477D01*
X52671136Y-68389571D01*
X52650000Y-68495830D01*
X52650000Y-68604170D01*
X52671136Y-68710429D01*
X52712597Y-68810523D01*
X52772787Y-68900604D01*
X52849396Y-68977213D01*
X52939477Y-69037403D01*
X53039571Y-69078864D01*
X53145830Y-69100000D01*
X53148960Y-69100000D01*
X53743924Y-69694964D01*
X53757234Y-69711182D01*
X53821948Y-69764292D01*
X53895781Y-69803756D01*
X53975894Y-69828058D01*
X54059208Y-69836264D01*
X54080082Y-69834208D01*
X57433168Y-69834208D01*
X59999672Y-72400712D01*
X60012982Y-72416930D01*
X60077620Y-72469978D01*
X57735663Y-72469978D01*
X56996737Y-71731052D01*
X56984211Y-71715789D01*
X56923303Y-71665803D01*
X56853814Y-71628660D01*
X56778414Y-71605788D01*
X56719647Y-71600000D01*
X56719646Y-71600000D01*
X56700000Y-71598065D01*
X56680354Y-71600000D01*
X54577817Y-71600000D01*
X54550604Y-71572787D01*
X54460523Y-71512597D01*
X54360429Y-71471136D01*
X54254170Y-71450000D01*
X54145830Y-71450000D01*
X54050000Y-71469062D01*
X54050000Y-70424560D01*
X54052419Y-70400000D01*
X54042765Y-70301983D01*
X54041198Y-70296818D01*
X54014175Y-70207733D01*
X53967746Y-70120871D01*
X53905264Y-70044736D01*
X53886187Y-70029080D01*
X51913068Y-68055963D01*
X51901931Y-67999975D01*
X51856702Y-67890782D01*
X51791039Y-67792511D01*
X51707467Y-67708939D01*
X51609196Y-67643276D01*
X51500003Y-67598047D01*
X51384084Y-67574989D01*
X51265894Y-67574989D01*
X51149975Y-67598047D01*
X51040782Y-67643276D01*
X50942511Y-67708939D01*
X50858939Y-67792511D01*
X50793276Y-67890782D01*
X50748047Y-67999975D01*
X50724989Y-68115894D01*
X50724989Y-68234084D01*
X50748047Y-68350003D01*
X50793276Y-68459196D01*
X50858939Y-68557467D01*
X50942511Y-68641039D01*
X51040782Y-68706702D01*
X51149975Y-68751931D01*
X51205963Y-68763068D01*
X53050001Y-70607108D01*
X53050000Y-75375440D01*
X53047581Y-75400000D01*
X53050000Y-75424559D01*
X53057235Y-75498016D01*
X53085825Y-75592266D01*
X53132254Y-75679129D01*
X53194736Y-75755264D01*
X53213824Y-75770929D01*
X54079075Y-76636181D01*
X54094736Y-76655264D01*
X54118785Y-76675000D01*
X52588342Y-76675000D01*
X52600000Y-70350184D01*
X52599104Y-70336647D01*
X52594595Y-70317569D01*
X52586451Y-70299738D01*
X52574984Y-70283838D01*
X52199984Y-69858838D01*
X52180681Y-69841936D01*
X52163406Y-69832669D01*
X52144655Y-69826951D01*
X52125149Y-69825000D01*
X49325000Y-69820819D01*
X49325000Y-68086081D01*
X49357372Y-68083757D01*
X49757026Y-67973999D01*
X50127588Y-67788381D01*
X50220739Y-67726138D01*
X50413153Y-67451337D01*
X49325000Y-66363184D01*
X49325000Y-66286816D01*
X50451337Y-67413153D01*
X50726138Y-67220739D01*
X50931126Y-66860531D01*
X51061901Y-66467252D01*
X51113438Y-66056016D01*
X51105395Y-65943984D01*
X54386562Y-65943984D01*
X54416243Y-66357372D01*
X54526001Y-66757026D01*
X54711619Y-67127588D01*
X54773862Y-67220739D01*
X55048663Y-67413153D01*
X56461816Y-66000000D01*
X55048663Y-64586847D01*
X54773862Y-64779261D01*
X54568874Y-65139469D01*
X54438099Y-65532748D01*
X54386562Y-65943984D01*
X51105395Y-65943984D01*
X51083757Y-65642628D01*
X50973999Y-65242974D01*
X50788381Y-64872412D01*
X50726138Y-64779261D01*
X50451337Y-64586847D01*
X49325000Y-65713184D01*
X49325000Y-65636816D01*
X50413153Y-64548663D01*
X55086847Y-64548663D01*
X56500000Y-65961816D01*
X57913153Y-64548663D01*
X57720739Y-64273862D01*
X57360531Y-64068874D01*
X56967252Y-63938099D01*
X56556016Y-63886562D01*
X56142628Y-63916243D01*
X55742974Y-64026001D01*
X55372412Y-64211619D01*
X55279261Y-64273862D01*
X55086847Y-64548663D01*
X50413153Y-64548663D01*
X50220739Y-64273862D01*
X49860531Y-64068874D01*
X49467252Y-63938099D01*
X49325000Y-63920272D01*
X49325000Y-63065184D01*
X49657026Y-62973999D01*
X50027588Y-62788381D01*
X50120739Y-62726138D01*
X50313153Y-62451337D01*
X55086847Y-62451337D01*
X55279261Y-62726138D01*
X55639469Y-62931126D01*
X56032748Y-63061901D01*
X56443984Y-63113438D01*
X56857372Y-63083757D01*
X57257026Y-62973999D01*
X57627588Y-62788381D01*
X57720739Y-62726138D01*
X57913153Y-62451337D01*
X56500000Y-61038184D01*
X55086847Y-62451337D01*
X50313153Y-62451337D01*
X49325000Y-61463184D01*
X49325000Y-61386816D01*
X50351337Y-62413153D01*
X50626138Y-62220739D01*
X50831126Y-61860531D01*
X50961901Y-61467252D01*
X51013438Y-61056016D01*
X51005395Y-60943984D01*
X54386562Y-60943984D01*
X54416243Y-61357372D01*
X54526001Y-61757026D01*
X54711619Y-62127588D01*
X54773862Y-62220739D01*
X55048663Y-62413153D01*
X56461816Y-61000000D01*
X56538184Y-61000000D01*
X57951337Y-62413153D01*
X58226138Y-62220739D01*
X58431126Y-61860531D01*
X58551273Y-61499213D01*
X59488971Y-61499213D01*
X59562892Y-61672839D01*
X59755170Y-61779400D01*
X59964544Y-61846402D01*
X60182966Y-61871271D01*
X60402042Y-61853049D01*
X60613355Y-61792438D01*
X60808781Y-61691767D01*
X60837108Y-61672839D01*
X60911029Y-61499213D01*
X60200000Y-60788184D01*
X59488971Y-61499213D01*
X58551273Y-61499213D01*
X58561901Y-61467252D01*
X58613438Y-61056016D01*
X58590244Y-60732966D01*
X59078729Y-60732966D01*
X59096951Y-60952042D01*
X59157562Y-61163355D01*
X59258233Y-61358781D01*
X59277161Y-61387108D01*
X59450787Y-61461029D01*
X60161816Y-60750000D01*
X60238184Y-60750000D01*
X60949213Y-61461029D01*
X61122839Y-61387108D01*
X61229400Y-61194830D01*
X61296402Y-60985456D01*
X61321271Y-60767034D01*
X61303049Y-60547958D01*
X61242438Y-60336645D01*
X61141767Y-60141219D01*
X61122839Y-60112892D01*
X60949213Y-60038971D01*
X60238184Y-60750000D01*
X60161816Y-60750000D01*
X59450787Y-60038971D01*
X59277161Y-60112892D01*
X59170600Y-60305170D01*
X59103598Y-60514544D01*
X59078729Y-60732966D01*
X58590244Y-60732966D01*
X58583757Y-60642628D01*
X58473999Y-60242974D01*
X58352686Y-60000787D01*
X59488971Y-60000787D01*
X60200000Y-60711816D01*
X60911029Y-60000787D01*
X60837108Y-59827161D01*
X60644830Y-59720600D01*
X60435456Y-59653598D01*
X60217034Y-59628729D01*
X59997958Y-59646951D01*
X59786645Y-59707562D01*
X59591219Y-59808233D01*
X59562892Y-59827161D01*
X59488971Y-60000787D01*
X58352686Y-60000787D01*
X58288381Y-59872412D01*
X58226138Y-59779261D01*
X57951337Y-59586847D01*
X56538184Y-61000000D01*
X56461816Y-61000000D01*
X55048663Y-59586847D01*
X54773862Y-59779261D01*
X54568874Y-60139469D01*
X54438099Y-60532748D01*
X54386562Y-60943984D01*
X51005395Y-60943984D01*
X50983757Y-60642628D01*
X50873999Y-60242974D01*
X50688381Y-59872412D01*
X50626138Y-59779261D01*
X50351337Y-59586847D01*
X49325000Y-60613184D01*
X49325000Y-60536816D01*
X50313153Y-59548663D01*
X55086847Y-59548663D01*
X56500000Y-60961816D01*
X57913153Y-59548663D01*
X57720739Y-59273862D01*
X57360531Y-59068874D01*
X56967252Y-58938099D01*
X56556016Y-58886562D01*
X56142628Y-58916243D01*
X55742974Y-59026001D01*
X55372412Y-59211619D01*
X55279261Y-59273862D01*
X55086847Y-59548663D01*
X50313153Y-59548663D01*
X50120739Y-59273862D01*
X49760531Y-59068874D01*
X49367252Y-58938099D01*
X49325000Y-58932804D01*
X49325000Y-56513466D01*
X49340872Y-56322369D01*
X58600035Y-56322369D01*
X58601921Y-56344509D01*
X58607612Y-56363268D01*
X58616853Y-56380557D01*
X58629289Y-56395711D01*
X58644443Y-56408147D01*
X58661732Y-56417388D01*
X58680491Y-56423079D01*
X58700000Y-56425000D01*
X60750000Y-56425000D01*
X60766922Y-56423558D01*
X60785825Y-56418363D01*
X60803350Y-56409580D01*
X60818826Y-56397546D01*
X60831657Y-56382725D01*
X60841349Y-56365686D01*
X60847531Y-56347082D01*
X60849965Y-56327631D01*
X60874965Y-55377631D01*
X60873079Y-55355491D01*
X60867388Y-55336732D01*
X60858147Y-55319443D01*
X60845711Y-55304289D01*
X60830557Y-55291853D01*
X60813268Y-55282612D01*
X60794509Y-55276921D01*
X60775000Y-55275000D01*
X58725000Y-55275000D01*
X58708078Y-55276442D01*
X58689175Y-55281637D01*
X58671650Y-55290420D01*
X58656174Y-55302454D01*
X58643343Y-55317275D01*
X58633651Y-55334314D01*
X58627469Y-55352918D01*
X58625035Y-55372369D01*
X58600035Y-56322369D01*
X49340872Y-56322369D01*
X49501295Y-54390905D01*
X54725000Y-54390905D01*
X54725000Y-54509095D01*
X54748058Y-54625014D01*
X54793287Y-54734207D01*
X54858950Y-54832478D01*
X54942522Y-54916050D01*
X55040793Y-54981713D01*
X55149986Y-55026942D01*
X55265905Y-55050000D01*
X55384095Y-55050000D01*
X55500014Y-55026942D01*
X55609207Y-54981713D01*
X55707478Y-54916050D01*
X55773528Y-54850000D01*
X59180354Y-54850000D01*
X59200000Y-54851935D01*
X59219646Y-54850000D01*
X59219647Y-54850000D01*
X59278414Y-54844212D01*
X59353814Y-54821340D01*
X59423303Y-54784197D01*
X59484211Y-54734211D01*
X59496737Y-54718948D01*
X60200000Y-54015685D01*
X60200000Y-54325440D01*
X60197581Y-54350000D01*
X60200000Y-54374559D01*
X60207235Y-54448016D01*
X60235825Y-54542266D01*
X60282254Y-54629129D01*
X60344736Y-54705264D01*
X60363824Y-54720929D01*
X62729079Y-57086186D01*
X62744736Y-57105264D01*
X62820871Y-57167746D01*
X62907733Y-57214175D01*
X63001983Y-57242765D01*
X63100000Y-57252419D01*
X63124560Y-57250000D01*
X68718331Y-57250000D01*
X68765793Y-57281713D01*
X68874986Y-57326942D01*
X68990905Y-57350000D01*
X62098528Y-57350000D01*
X62032478Y-57283950D01*
X61934207Y-57218287D01*
X61825014Y-57173058D01*
X61709095Y-57150000D01*
X61590905Y-57150000D01*
X61474986Y-57173058D01*
X61365793Y-57218287D01*
X61267522Y-57283950D01*
X61183950Y-57367522D01*
X61118287Y-57465793D01*
X61073058Y-57574986D01*
X61050000Y-57690905D01*
X61050000Y-57809095D01*
X61073058Y-57925014D01*
X61118287Y-58034207D01*
X61183950Y-58132478D01*
X61267522Y-58216050D01*
X61365793Y-58281713D01*
X61474986Y-58326942D01*
X61590905Y-58350000D01*
X61709095Y-58350000D01*
X61825014Y-58326942D01*
X61934207Y-58281713D01*
X62032478Y-58216050D01*
X62098528Y-58150000D01*
X74784315Y-58150000D01*
X78000000Y-61365685D01*
X78000000Y-61459095D01*
X78023058Y-61575014D01*
X78068287Y-61684207D01*
X78133950Y-61782478D01*
X78217522Y-61866050D01*
X78315793Y-61931713D01*
X78424986Y-61976942D01*
X78540905Y-62000000D01*
X78659095Y-62000000D01*
X78775014Y-61976942D01*
X78884207Y-61931713D01*
X78982478Y-61866050D01*
X79066050Y-61782478D01*
X79131713Y-61684207D01*
X79176942Y-61575014D01*
X79200000Y-61459095D01*
X79200000Y-61340905D01*
X79176942Y-61224986D01*
X79131713Y-61115793D01*
X79066050Y-61017522D01*
X78982478Y-60933950D01*
X78884207Y-60868287D01*
X78775014Y-60823058D01*
X78659095Y-60800000D01*
X78565685Y-60800000D01*
X75246737Y-57481052D01*
X75234211Y-57465789D01*
X75173303Y-57415803D01*
X75103814Y-57378660D01*
X75028414Y-57355788D01*
X74969647Y-57350000D01*
X74969646Y-57350000D01*
X74950000Y-57348065D01*
X74930354Y-57350000D01*
X69109095Y-57350000D01*
X69225014Y-57326942D01*
X69334207Y-57281713D01*
X69381669Y-57250000D01*
X81192895Y-57250000D01*
X83250001Y-59307108D01*
X83250000Y-64042894D01*
X82062821Y-65230074D01*
X82059774Y-65228812D01*
X81854598Y-65188000D01*
X81645402Y-65188000D01*
X81440226Y-65228812D01*
X81246954Y-65308867D01*
X81073014Y-65425090D01*
X80925090Y-65573014D01*
X80808867Y-65746954D01*
X80728812Y-65940226D01*
X80688000Y-66145402D01*
X80688000Y-66354598D01*
X80728812Y-66559774D01*
X80808867Y-66753046D01*
X80925090Y-66926986D01*
X81073014Y-67074910D01*
X81246954Y-67191133D01*
X81440226Y-67271188D01*
X81645402Y-67312000D01*
X81854598Y-67312000D01*
X82059774Y-67271188D01*
X82253046Y-67191133D01*
X82426986Y-67074910D01*
X82574910Y-66926986D01*
X82691133Y-66753046D01*
X82771188Y-66559774D01*
X82812000Y-66354598D01*
X82812000Y-66145402D01*
X82771188Y-65940226D01*
X82769926Y-65937179D01*
X84086181Y-64620925D01*
X84105264Y-64605264D01*
X84167746Y-64529129D01*
X84214175Y-64442267D01*
X84242765Y-64348017D01*
X84250000Y-64274560D01*
X84250000Y-64274559D01*
X84252419Y-64250001D01*
X84250000Y-64225443D01*
X84250000Y-59124560D01*
X84252419Y-59100000D01*
X84242765Y-59001983D01*
X84216756Y-58916243D01*
X84214175Y-58907733D01*
X84167746Y-58820871D01*
X84105264Y-58744736D01*
X84086187Y-58729080D01*
X81770929Y-56413824D01*
X81755264Y-56394736D01*
X81679129Y-56332254D01*
X81592267Y-56285825D01*
X81498017Y-56257235D01*
X81424560Y-56250000D01*
X81400000Y-56247581D01*
X81375440Y-56250000D01*
X70287751Y-56250000D01*
X70331713Y-56184207D01*
X70376942Y-56075014D01*
X70400000Y-55959095D01*
X70400000Y-55840905D01*
X70376942Y-55724986D01*
X70331713Y-55615793D01*
X70266050Y-55517522D01*
X70182478Y-55433950D01*
X70084207Y-55368287D01*
X69975014Y-55323058D01*
X69859095Y-55300000D01*
X69800000Y-55300000D01*
X69800000Y-54381056D01*
X101900000Y-54381056D01*
X101900000Y-54518944D01*
X101926901Y-54654182D01*
X101979668Y-54781574D01*
X102056274Y-54896224D01*
X102153776Y-54993726D01*
X102268426Y-55070332D01*
X102350001Y-55104121D01*
X102350000Y-70560050D01*
X102306274Y-70603776D01*
X102229668Y-70718426D01*
X102176901Y-70845818D01*
X102150000Y-70981056D01*
X102150000Y-71118944D01*
X102176901Y-71254182D01*
X102229668Y-71381574D01*
X102306274Y-71496224D01*
X102403776Y-71593726D01*
X102518426Y-71670332D01*
X102645818Y-71723099D01*
X102781056Y-71750000D01*
X102918944Y-71750000D01*
X103054182Y-71723099D01*
X103181574Y-71670332D01*
X103296224Y-71593726D01*
X103393726Y-71496224D01*
X103470332Y-71381574D01*
X103523099Y-71254182D01*
X103550000Y-71118944D01*
X103550000Y-70981056D01*
X103523099Y-70845818D01*
X103470332Y-70718426D01*
X103393726Y-70603776D01*
X103350000Y-70560050D01*
X103350000Y-54724549D01*
X103352418Y-54699999D01*
X103350000Y-54675449D01*
X103350000Y-54675440D01*
X103342765Y-54601983D01*
X103314175Y-54507733D01*
X103300000Y-54481214D01*
X103300000Y-54381056D01*
X103273099Y-54245818D01*
X103220332Y-54118426D01*
X103143726Y-54003776D01*
X103046224Y-53906274D01*
X102931574Y-53829668D01*
X102804182Y-53776901D01*
X102668944Y-53750000D01*
X102531056Y-53750000D01*
X102395818Y-53776901D01*
X102268426Y-53829668D01*
X102153776Y-53906274D01*
X102056274Y-54003776D01*
X101979668Y-54118426D01*
X101926901Y-54245818D01*
X101900000Y-54381056D01*
X69800000Y-54381056D01*
X69800000Y-52019647D01*
X69801935Y-52000000D01*
X69794212Y-51921586D01*
X69790200Y-51908361D01*
X69800000Y-51859095D01*
X69800000Y-51740905D01*
X69776942Y-51624986D01*
X69731713Y-51515793D01*
X69666050Y-51417522D01*
X69582478Y-51333950D01*
X69484207Y-51268287D01*
X69375014Y-51223058D01*
X69259095Y-51200000D01*
X69140905Y-51200000D01*
X69024986Y-51223058D01*
X68915793Y-51268287D01*
X68817522Y-51333950D01*
X68733950Y-51417522D01*
X68668287Y-51515793D01*
X68623058Y-51624986D01*
X68600000Y-51740905D01*
X68600000Y-51859095D01*
X68623058Y-51975014D01*
X68668287Y-52084207D01*
X68733950Y-52182478D01*
X68817522Y-52266050D01*
X68915793Y-52331713D01*
X69000000Y-52366593D01*
X69000001Y-55480344D01*
X68998065Y-55500000D01*
X69005788Y-55578413D01*
X69028661Y-55653814D01*
X69065803Y-55723302D01*
X69103265Y-55768950D01*
X69103268Y-55768953D01*
X69115790Y-55784211D01*
X69131048Y-55796733D01*
X69200000Y-55865685D01*
X69200000Y-55959095D01*
X69223058Y-56075014D01*
X69268287Y-56184207D01*
X69274546Y-56193575D01*
X69225014Y-56173058D01*
X69109095Y-56150000D01*
X68990905Y-56150000D01*
X68874986Y-56173058D01*
X68765793Y-56218287D01*
X68718331Y-56250000D01*
X63307107Y-56250000D01*
X62071042Y-55013936D01*
X66324248Y-55013936D01*
X66324248Y-55139093D01*
X66752983Y-55569491D01*
X66752090Y-55570384D01*
X66769830Y-55588124D01*
X66773093Y-55592058D01*
X66776662Y-55594956D01*
X66790276Y-55608570D01*
X66791094Y-55607752D01*
X66948473Y-55765741D01*
X67002376Y-55809978D01*
X67063874Y-55842849D01*
X67130604Y-55863092D01*
X67200000Y-55869926D01*
X67269396Y-55863092D01*
X67336126Y-55842849D01*
X67397624Y-55809978D01*
X67451527Y-55765741D01*
X67608906Y-55607752D01*
X67609724Y-55608570D01*
X67627463Y-55590831D01*
X67631398Y-55587567D01*
X67634295Y-55583999D01*
X67647910Y-55570384D01*
X67647018Y-55569492D01*
X68075752Y-55139093D01*
X68075752Y-55013936D01*
X67200000Y-54138184D01*
X66324248Y-55013936D01*
X62071042Y-55013936D01*
X61200000Y-54142895D01*
X61200000Y-53439950D01*
X61243726Y-53396224D01*
X61320332Y-53281574D01*
X61373099Y-53154182D01*
X61400000Y-53018944D01*
X61400000Y-52881056D01*
X61373099Y-52745818D01*
X61320332Y-52618426D01*
X61243726Y-52503776D01*
X61146224Y-52406274D01*
X61031574Y-52329668D01*
X60904182Y-52276901D01*
X60768944Y-52250000D01*
X60631056Y-52250000D01*
X60495818Y-52276901D01*
X60368426Y-52329668D01*
X60253776Y-52406274D01*
X60156274Y-52503776D01*
X60079668Y-52618426D01*
X60026901Y-52745818D01*
X60000000Y-52881056D01*
X60000000Y-53018944D01*
X60010846Y-53073469D01*
X59034315Y-54050000D01*
X55773528Y-54050000D01*
X55707478Y-53983950D01*
X55609207Y-53918287D01*
X55500014Y-53873058D01*
X55384095Y-53850000D01*
X55265905Y-53850000D01*
X55149986Y-53873058D01*
X55040793Y-53918287D01*
X54942522Y-53983950D01*
X54858950Y-54067522D01*
X54793287Y-54165793D01*
X54748058Y-54274986D01*
X54725000Y-54390905D01*
X49501295Y-54390905D01*
X49824822Y-50495727D01*
X49834058Y-50449548D01*
X49847017Y-50418279D01*
X49865807Y-50390117D01*
X49889698Y-50366151D01*
X49917806Y-50347270D01*
X49949027Y-50334217D01*
X49989639Y-50325963D01*
X50008356Y-50325000D01*
X65059314Y-50325000D01*
X62184315Y-53200000D01*
%TA.AperFunction,Conductor*%
D21*
G36*
X62184315Y-53200000D02*
G01*
X62090905Y-53200000D01*
X61974986Y-53223058D01*
X61865793Y-53268287D01*
X61767522Y-53333950D01*
X61683950Y-53417522D01*
X61618287Y-53515793D01*
X61573058Y-53624986D01*
X61550000Y-53740905D01*
X61550000Y-53859095D01*
X61573058Y-53975014D01*
X61618287Y-54084207D01*
X61683950Y-54182478D01*
X61767522Y-54266050D01*
X61865793Y-54331713D01*
X61974986Y-54376942D01*
X62090905Y-54400000D01*
X62209095Y-54400000D01*
X62325014Y-54376942D01*
X62434207Y-54331713D01*
X62532478Y-54266050D01*
X62616050Y-54182478D01*
X62671160Y-54100000D01*
X65430074Y-54100000D01*
X65436908Y-54169396D01*
X65457151Y-54236126D01*
X65490022Y-54297624D01*
X65534259Y-54351527D01*
X65692248Y-54508906D01*
X65691430Y-54509724D01*
X65709169Y-54527463D01*
X65712433Y-54531398D01*
X65716001Y-54534295D01*
X65729616Y-54547910D01*
X65730508Y-54547018D01*
X66160907Y-54975752D01*
X66286064Y-54975752D01*
X67161816Y-54100000D01*
X67238184Y-54100000D01*
X68113936Y-54975752D01*
X68239093Y-54975752D01*
X68669491Y-54547017D01*
X68670384Y-54547910D01*
X68688124Y-54530170D01*
X68692058Y-54526907D01*
X68694956Y-54523338D01*
X68708570Y-54509724D01*
X68707752Y-54508906D01*
X68865741Y-54351527D01*
X68909978Y-54297624D01*
X68942849Y-54236126D01*
X68963092Y-54169396D01*
X68969926Y-54100000D01*
X68963092Y-54030604D01*
X68942849Y-53963874D01*
X68909978Y-53902376D01*
X68865741Y-53848473D01*
X68707752Y-53691094D01*
X68708570Y-53690276D01*
X68690831Y-53672537D01*
X68687567Y-53668602D01*
X68683999Y-53665705D01*
X68670384Y-53652090D01*
X68669492Y-53652982D01*
X68239093Y-53224248D01*
X68113936Y-53224248D01*
X67238184Y-54100000D01*
X67161816Y-54100000D01*
X66286064Y-53224248D01*
X66160907Y-53224248D01*
X65730509Y-53652983D01*
X65729616Y-53652090D01*
X65711876Y-53669830D01*
X65707942Y-53673093D01*
X65705044Y-53676662D01*
X65691430Y-53690276D01*
X65692248Y-53691094D01*
X65534259Y-53848473D01*
X65490022Y-53902376D01*
X65457151Y-53963874D01*
X65436908Y-54030604D01*
X65430074Y-54100000D01*
X62671160Y-54100000D01*
X62681713Y-54084207D01*
X62726942Y-53975014D01*
X62750000Y-53859095D01*
X62750000Y-53765685D01*
X63454778Y-53060907D01*
X66324248Y-53060907D01*
X66324248Y-53186064D01*
X67200000Y-54061816D01*
X68075752Y-53186064D01*
X68075752Y-53060907D01*
X67647017Y-52630509D01*
X67647910Y-52629616D01*
X67630170Y-52611876D01*
X67626907Y-52607942D01*
X67623338Y-52605044D01*
X67609724Y-52591430D01*
X67608906Y-52592248D01*
X67451527Y-52434259D01*
X67397624Y-52390022D01*
X67336126Y-52357151D01*
X67269396Y-52336908D01*
X67200000Y-52330074D01*
X67130604Y-52336908D01*
X67063874Y-52357151D01*
X67002376Y-52390022D01*
X66948473Y-52434259D01*
X66791094Y-52592248D01*
X66790276Y-52591430D01*
X66772537Y-52609169D01*
X66768602Y-52612433D01*
X66765705Y-52616001D01*
X66752090Y-52629616D01*
X66752982Y-52630508D01*
X66324248Y-53060907D01*
X63454778Y-53060907D01*
X65715686Y-50800000D01*
X70868082Y-50800000D01*
X70873058Y-50825014D01*
X70918287Y-50934207D01*
X70983950Y-51032478D01*
X71067522Y-51116050D01*
X71165793Y-51181713D01*
X71274986Y-51226942D01*
X71390905Y-51250000D01*
X71509095Y-51250000D01*
X71625014Y-51226942D01*
X71734207Y-51181713D01*
X71832478Y-51116050D01*
X71916050Y-51032478D01*
X71981713Y-50934207D01*
X72026942Y-50825014D01*
X72050000Y-50709095D01*
X72050000Y-50590905D01*
X72026942Y-50474986D01*
X71981713Y-50365793D01*
X71954456Y-50325000D01*
X108547097Y-50325000D01*
X108547097Y-50850000D01*
X108558682Y-50967621D01*
X108592990Y-51080721D01*
X108648704Y-51184955D01*
X108723683Y-51276317D01*
X108815045Y-51351296D01*
X108919279Y-51407010D01*
X109032379Y-51441318D01*
X109150000Y-51452903D01*
X110850000Y-51452903D01*
X110967621Y-51441318D01*
X111080721Y-51407010D01*
X111184955Y-51351296D01*
X111276317Y-51276317D01*
X111351296Y-51184955D01*
X111407010Y-51080721D01*
X111441318Y-50967621D01*
X111452903Y-50850000D01*
X111452903Y-50325000D01*
X120984103Y-50325000D01*
X121130805Y-50339384D01*
X121256629Y-50377373D01*
X121372675Y-50439076D01*
X121474532Y-50522148D01*
X121558310Y-50623418D01*
X121620819Y-50739027D01*
X121659686Y-50864586D01*
X121675000Y-51010285D01*
X121675000Y-63153587D01*
X121669509Y-63151921D01*
X121650000Y-63150000D01*
X119750000Y-63150000D01*
X119750000Y-62450000D01*
X119748079Y-62430491D01*
X119742388Y-62411732D01*
X119733147Y-62394443D01*
X119720711Y-62379289D01*
X119705557Y-62366853D01*
X119688268Y-62357612D01*
X119669509Y-62351921D01*
X119650000Y-62350000D01*
X117300000Y-62350000D01*
X117280491Y-62351921D01*
X117261732Y-62357612D01*
X117244443Y-62366853D01*
X117229289Y-62379289D01*
X117216853Y-62394443D01*
X117207612Y-62411732D01*
X117201921Y-62430491D01*
X117200000Y-62450000D01*
X117200000Y-66450000D01*
X117201921Y-66469509D01*
X117207612Y-66488268D01*
X117216853Y-66505557D01*
X117229289Y-66520711D01*
X117244443Y-66533147D01*
X117261732Y-66542388D01*
X117280491Y-66548079D01*
X117300000Y-66550000D01*
X119700000Y-66550000D01*
X119719509Y-66548079D01*
X119738268Y-66542388D01*
X119755557Y-66533147D01*
X119770711Y-66520711D01*
X119783147Y-66505557D01*
X119792388Y-66488268D01*
X119798079Y-66469509D01*
X119800000Y-66450000D01*
X119800000Y-65750000D01*
X121650000Y-65750000D01*
X121669509Y-65748079D01*
X121675001Y-65746413D01*
X121675001Y-75984094D01*
X121660616Y-76130805D01*
X121622627Y-76256629D01*
X121560924Y-76372675D01*
X121477853Y-76474531D01*
X121376586Y-76558307D01*
X121260973Y-76620819D01*
X121135410Y-76659687D01*
X120989716Y-76675000D01*
X111452903Y-76675000D01*
X111452903Y-76150000D01*
X111441318Y-76032379D01*
X111407010Y-75919279D01*
X111351296Y-75815045D01*
X111276317Y-75723683D01*
X111184955Y-75648704D01*
X111080721Y-75592990D01*
X110967621Y-75558682D01*
X110850000Y-75547097D01*
X109150000Y-75547097D01*
X109032379Y-75558682D01*
X108919279Y-75592990D01*
X108815045Y-75648704D01*
X108723683Y-75723683D01*
X108648704Y-75815045D01*
X108592990Y-75919279D01*
X108558682Y-76032379D01*
X108547097Y-76150000D01*
X108547097Y-76675000D01*
X63721047Y-76675000D01*
X63781713Y-76584207D01*
X63826942Y-76475014D01*
X63850000Y-76359095D01*
X63850000Y-76240905D01*
X63826942Y-76124986D01*
X63781713Y-76015793D01*
X63721572Y-75925786D01*
X63954568Y-75925786D01*
X63974214Y-75927721D01*
X63993860Y-75925786D01*
X63993861Y-75925786D01*
X64052628Y-75919998D01*
X64128028Y-75897126D01*
X64197517Y-75859983D01*
X64258425Y-75809997D01*
X64270951Y-75794734D01*
X64740685Y-75325000D01*
X64834095Y-75325000D01*
X64950014Y-75301942D01*
X65059207Y-75256713D01*
X65157478Y-75191050D01*
X65241050Y-75107478D01*
X65306713Y-75009207D01*
X65351942Y-74900014D01*
X65375000Y-74784095D01*
X65375000Y-74665905D01*
X65351942Y-74549986D01*
X65306713Y-74440793D01*
X65241050Y-74342522D01*
X65157478Y-74258950D01*
X65059207Y-74193287D01*
X64950014Y-74148058D01*
X64834095Y-74125000D01*
X64715905Y-74125000D01*
X64599986Y-74148058D01*
X64490793Y-74193287D01*
X64392522Y-74258950D01*
X64308950Y-74342522D01*
X64243287Y-74440793D01*
X64198058Y-74549986D01*
X64175000Y-74665905D01*
X64175000Y-74759315D01*
X63808529Y-75125786D01*
X58200000Y-75125786D01*
X58200000Y-75095840D01*
X58178864Y-74989581D01*
X58137403Y-74889487D01*
X58077213Y-74799406D01*
X58000604Y-74722797D01*
X57910523Y-74662607D01*
X57810429Y-74621146D01*
X57704170Y-74600010D01*
X57595830Y-74600010D01*
X57489571Y-74621146D01*
X57389477Y-74662607D01*
X57299396Y-74722797D01*
X57222787Y-74799406D01*
X57162597Y-74889487D01*
X57121136Y-74989581D01*
X57100000Y-75095840D01*
X57100000Y-75204180D01*
X57121136Y-75310439D01*
X57162597Y-75410533D01*
X57222787Y-75500614D01*
X57299396Y-75577223D01*
X57389477Y-75637413D01*
X57489571Y-75678874D01*
X57595830Y-75700010D01*
X57634315Y-75700010D01*
X57729039Y-75794734D01*
X57733361Y-75800000D01*
X54657106Y-75800000D01*
X54050000Y-75192895D01*
X54050000Y-73780938D01*
X54145830Y-73800000D01*
X54254170Y-73800000D01*
X54360429Y-73778864D01*
X54460523Y-73737403D01*
X54550604Y-73677213D01*
X54577817Y-73650000D01*
X55834315Y-73650000D01*
X56003267Y-73818953D01*
X56015789Y-73834211D01*
X56031047Y-73846733D01*
X56031049Y-73846735D01*
X56056378Y-73867522D01*
X56076697Y-73884197D01*
X56146186Y-73921340D01*
X56221586Y-73944212D01*
X56280353Y-73950000D01*
X56280355Y-73950000D01*
X56299999Y-73951935D01*
X56319643Y-73950000D01*
X77484315Y-73950000D01*
X77750000Y-74215685D01*
X77750000Y-74309095D01*
X77773058Y-74425014D01*
X77818287Y-74534207D01*
X77883950Y-74632478D01*
X77967522Y-74716050D01*
X78065793Y-74781713D01*
X78174986Y-74826942D01*
X78290905Y-74850000D01*
X78409095Y-74850000D01*
X78525014Y-74826942D01*
X78634207Y-74781713D01*
X78732478Y-74716050D01*
X78816050Y-74632478D01*
X78881713Y-74534207D01*
X78926942Y-74425014D01*
X78950000Y-74309095D01*
X78950000Y-74190905D01*
X78926942Y-74074986D01*
X78881713Y-73965793D01*
X78816050Y-73867522D01*
X78732478Y-73783950D01*
X78634207Y-73718287D01*
X78525014Y-73673058D01*
X78409095Y-73650000D01*
X78315685Y-73650000D01*
X78275674Y-73609989D01*
X108444304Y-73609989D01*
X109550000Y-74715685D01*
X109550000Y-74809095D01*
X109573058Y-74925014D01*
X109618287Y-75034207D01*
X109683950Y-75132478D01*
X109767522Y-75216050D01*
X109865793Y-75281713D01*
X109974986Y-75326942D01*
X110090905Y-75350000D01*
X110209095Y-75350000D01*
X110325014Y-75326942D01*
X110434207Y-75281713D01*
X110532478Y-75216050D01*
X110616050Y-75132478D01*
X110681713Y-75034207D01*
X110726942Y-74925014D01*
X110750000Y-74809095D01*
X110750000Y-74690905D01*
X110726942Y-74574986D01*
X110681713Y-74465793D01*
X110616050Y-74367522D01*
X110532478Y-74283950D01*
X110434207Y-74218287D01*
X110325014Y-74173058D01*
X110209095Y-74150000D01*
X110115685Y-74150000D01*
X109198933Y-73233248D01*
X109253325Y-73204175D01*
X109314233Y-73154189D01*
X109326759Y-73138926D01*
X109965686Y-72500000D01*
X110059095Y-72500000D01*
X110175014Y-72476942D01*
X110284207Y-72431713D01*
X110382478Y-72366050D01*
X110466050Y-72282478D01*
X110531713Y-72184207D01*
X110576942Y-72075014D01*
X110600000Y-71959095D01*
X110600000Y-71840905D01*
X110576942Y-71724986D01*
X110531713Y-71615793D01*
X110466050Y-71517522D01*
X110382478Y-71433950D01*
X110284207Y-71368287D01*
X110175014Y-71323058D01*
X110059095Y-71300000D01*
X109940905Y-71300000D01*
X109824986Y-71323058D01*
X109715793Y-71368287D01*
X109617522Y-71433950D01*
X109533950Y-71517522D01*
X109468287Y-71615793D01*
X109423058Y-71724986D01*
X109400000Y-71840905D01*
X109400000Y-71934314D01*
X108864337Y-72469978D01*
X82225496Y-72469978D01*
X82290134Y-72416930D01*
X82303444Y-72400712D01*
X93385763Y-61318394D01*
X93401974Y-61305090D01*
X93455084Y-61240376D01*
X93489121Y-61176697D01*
X93494548Y-61166544D01*
X93518850Y-61086431D01*
X93521475Y-61059774D01*
X93525000Y-61023990D01*
X93525000Y-61023983D01*
X93527055Y-61003116D01*
X93525000Y-60982249D01*
X93525000Y-55773528D01*
X93566050Y-55732478D01*
X93631713Y-55634207D01*
X93676942Y-55525014D01*
X93700000Y-55409095D01*
X93700000Y-55290905D01*
X93676942Y-55174986D01*
X93631713Y-55065793D01*
X93566050Y-54967522D01*
X93482478Y-54883950D01*
X93384207Y-54818287D01*
X93275014Y-54773058D01*
X93159095Y-54750000D01*
X93040905Y-54750000D01*
X92924986Y-54773058D01*
X92815793Y-54818287D01*
X92717522Y-54883950D01*
X92633950Y-54967522D01*
X92568287Y-55065793D01*
X92523058Y-55174986D01*
X92500000Y-55290905D01*
X92500000Y-55409095D01*
X92509382Y-55456261D01*
X92404297Y-55412734D01*
X92288378Y-55389676D01*
X92170188Y-55389676D01*
X92054269Y-55412734D01*
X91945076Y-55457963D01*
X91846805Y-55523626D01*
X91763233Y-55607198D01*
X91697570Y-55705469D01*
X91652341Y-55814662D01*
X91629283Y-55930581D01*
X91629283Y-56048771D01*
X91652341Y-56164690D01*
X91697570Y-56273883D01*
X91763233Y-56372154D01*
X91804283Y-56413204D01*
X91804283Y-56455892D01*
X91725014Y-56423058D01*
X91609095Y-56400000D01*
X91490905Y-56400000D01*
X91374986Y-56423058D01*
X91265793Y-56468287D01*
X91167522Y-56533950D01*
X91083950Y-56617522D01*
X91018287Y-56715793D01*
X90973058Y-56824986D01*
X90950000Y-56940905D01*
X90950000Y-57059095D01*
X90973058Y-57175014D01*
X91018287Y-57284207D01*
X91083950Y-57382478D01*
X91125001Y-57423529D01*
X91125000Y-61273959D01*
X81623960Y-70775000D01*
X62052817Y-70775000D01*
X62050604Y-70772787D01*
X61960523Y-70712597D01*
X61860429Y-70671136D01*
X61754170Y-70650000D01*
X61645830Y-70650000D01*
X61539571Y-70671136D01*
X61439477Y-70712597D01*
X61349396Y-70772787D01*
X61272787Y-70849396D01*
X61212597Y-70939477D01*
X61171136Y-71039571D01*
X61150000Y-71145830D01*
X61150000Y-71254170D01*
X61159105Y-71299945D01*
X60821835Y-71299945D01*
X58255335Y-68733446D01*
X58242026Y-68717229D01*
X58177312Y-68664119D01*
X58103479Y-68624655D01*
X58023366Y-68600353D01*
X57960926Y-68594203D01*
X57960919Y-68594203D01*
X57940052Y-68592148D01*
X57919185Y-68594203D01*
X57621482Y-68594203D01*
X59118949Y-67096736D01*
X59134211Y-67084211D01*
X59184197Y-67023303D01*
X59221340Y-66953814D01*
X59244212Y-66878414D01*
X59250000Y-66819647D01*
X59250000Y-66819637D01*
X59251934Y-66800001D01*
X59250000Y-66780365D01*
X59250000Y-66731639D01*
X59258867Y-66753046D01*
X59375090Y-66926986D01*
X59523014Y-67074910D01*
X59696954Y-67191133D01*
X59890226Y-67271188D01*
X60095402Y-67312000D01*
X60304598Y-67312000D01*
X60317172Y-67309499D01*
X60300000Y-67395830D01*
X60300000Y-67504170D01*
X60321136Y-67610429D01*
X60362597Y-67710523D01*
X60422383Y-67800000D01*
X59377817Y-67800000D01*
X59350604Y-67772787D01*
X59260523Y-67712597D01*
X59160429Y-67671136D01*
X59054170Y-67650000D01*
X58945830Y-67650000D01*
X58839571Y-67671136D01*
X58739477Y-67712597D01*
X58649396Y-67772787D01*
X58572787Y-67849396D01*
X58512597Y-67939477D01*
X58471136Y-68039571D01*
X58450000Y-68145830D01*
X58450000Y-68254170D01*
X58471136Y-68360429D01*
X58512597Y-68460523D01*
X58572787Y-68550604D01*
X58649396Y-68627213D01*
X58739477Y-68687403D01*
X58839571Y-68728864D01*
X58945830Y-68750000D01*
X59054170Y-68750000D01*
X59160429Y-68728864D01*
X59260523Y-68687403D01*
X59350604Y-68627213D01*
X59377817Y-68600000D01*
X60684315Y-68600000D01*
X61300000Y-69215685D01*
X61300000Y-69254170D01*
X61321136Y-69360429D01*
X61362597Y-69460523D01*
X61422787Y-69550604D01*
X61499396Y-69627213D01*
X61589477Y-69687403D01*
X61689571Y-69728864D01*
X61795830Y-69750000D01*
X61904170Y-69750000D01*
X62010429Y-69728864D01*
X62110523Y-69687403D01*
X62200604Y-69627213D01*
X62277213Y-69550604D01*
X62337403Y-69460523D01*
X62378864Y-69360429D01*
X62400000Y-69254170D01*
X62400000Y-69145830D01*
X62378864Y-69039571D01*
X62337403Y-68939477D01*
X62297283Y-68879432D01*
X62300604Y-68877213D01*
X62377213Y-68800604D01*
X62437403Y-68710523D01*
X62478864Y-68610429D01*
X62500000Y-68504170D01*
X62500000Y-68395830D01*
X62478864Y-68289571D01*
X62437403Y-68189477D01*
X62377213Y-68099396D01*
X62300604Y-68022787D01*
X62210523Y-67962597D01*
X62110429Y-67921136D01*
X62004170Y-67900000D01*
X61895830Y-67900000D01*
X61870686Y-67905001D01*
X61400000Y-67434315D01*
X61400000Y-67395830D01*
X61378864Y-67289571D01*
X61337403Y-67189477D01*
X61277213Y-67099396D01*
X61200604Y-67022787D01*
X61110523Y-66962597D01*
X61024805Y-66927091D01*
X61024910Y-66926986D01*
X61141133Y-66753046D01*
X61142395Y-66750000D01*
X76225440Y-66750000D01*
X76250000Y-66752419D01*
X76274560Y-66750000D01*
X76348017Y-66742765D01*
X76442267Y-66714175D01*
X76529129Y-66667746D01*
X76605264Y-66605264D01*
X76620929Y-66586176D01*
X81437180Y-61769926D01*
X81440226Y-61771188D01*
X81645402Y-61812000D01*
X81854598Y-61812000D01*
X82059774Y-61771188D01*
X82253046Y-61691133D01*
X82426986Y-61574910D01*
X82574910Y-61426986D01*
X82691133Y-61253046D01*
X82771188Y-61059774D01*
X82812000Y-60854598D01*
X82812000Y-60645402D01*
X82771188Y-60440226D01*
X82691133Y-60246954D01*
X82574910Y-60073014D01*
X82426986Y-59925090D01*
X82253046Y-59808867D01*
X82059774Y-59728812D01*
X81854598Y-59688000D01*
X81645402Y-59688000D01*
X81440226Y-59728812D01*
X81246954Y-59808867D01*
X81073014Y-59925090D01*
X80925090Y-60073014D01*
X80808867Y-60246954D01*
X80728812Y-60440226D01*
X80688000Y-60645402D01*
X80688000Y-60854598D01*
X80728812Y-61059774D01*
X80730074Y-61062820D01*
X76042895Y-65750000D01*
X61142395Y-65750000D01*
X61141133Y-65746954D01*
X61024910Y-65573014D01*
X60876986Y-65425090D01*
X60703046Y-65308867D01*
X60509774Y-65228812D01*
X60304598Y-65188000D01*
X60095402Y-65188000D01*
X59890226Y-65228812D01*
X59696954Y-65308867D01*
X59523014Y-65425090D01*
X59375090Y-65573014D01*
X59258867Y-65746954D01*
X59250000Y-65768361D01*
X59250000Y-65365685D01*
X60465685Y-64150000D01*
X63008238Y-64150000D01*
X62971136Y-64239571D01*
X62950000Y-64345830D01*
X62950000Y-64454170D01*
X62971136Y-64560429D01*
X63012597Y-64660523D01*
X63072787Y-64750604D01*
X63149396Y-64827213D01*
X63239477Y-64887403D01*
X63339571Y-64928864D01*
X63445830Y-64950000D01*
X63554170Y-64950000D01*
X63660429Y-64928864D01*
X63760523Y-64887403D01*
X63850604Y-64827213D01*
X63878321Y-64799496D01*
X63931967Y-64794212D01*
X64007367Y-64771340D01*
X64076856Y-64734197D01*
X64137764Y-64684211D01*
X64150290Y-64668948D01*
X64308950Y-64510288D01*
X64324212Y-64497763D01*
X64374198Y-64436855D01*
X64411341Y-64367366D01*
X64434213Y-64291966D01*
X64440001Y-64233199D01*
X64440001Y-64233189D01*
X64441935Y-64213553D01*
X64440001Y-64193917D01*
X64440001Y-63534434D01*
X64441935Y-63514798D01*
X64440001Y-63495162D01*
X64440001Y-63495152D01*
X64434213Y-63436385D01*
X64411341Y-63360985D01*
X64374198Y-63291496D01*
X64324212Y-63230588D01*
X64308949Y-63218062D01*
X63921939Y-62831052D01*
X63909413Y-62815789D01*
X63848505Y-62765803D01*
X63779016Y-62728660D01*
X63703616Y-62705788D01*
X63644849Y-62700000D01*
X63644848Y-62700000D01*
X63625202Y-62698065D01*
X63605556Y-62700000D01*
X58219647Y-62700000D01*
X58200000Y-62698065D01*
X58121586Y-62705788D01*
X58046186Y-62728660D01*
X57976697Y-62765803D01*
X57931049Y-62803265D01*
X57931047Y-62803267D01*
X57915789Y-62815789D01*
X57903267Y-62831047D01*
X57834314Y-62900000D01*
X57795830Y-62900000D01*
X57689571Y-62921136D01*
X57589477Y-62962597D01*
X57499396Y-63022787D01*
X57422787Y-63099396D01*
X57362597Y-63189477D01*
X57321136Y-63289571D01*
X57300000Y-63395830D01*
X57300000Y-63504170D01*
X57321136Y-63610429D01*
X57362597Y-63710523D01*
X57422787Y-63800604D01*
X57499396Y-63877213D01*
X57589477Y-63937403D01*
X57689571Y-63978864D01*
X57795830Y-64000000D01*
X57904170Y-64000000D01*
X58010429Y-63978864D01*
X58110523Y-63937403D01*
X58200604Y-63877213D01*
X58277213Y-63800604D01*
X58337403Y-63710523D01*
X58378864Y-63610429D01*
X58400000Y-63504170D01*
X58400000Y-63500000D01*
X59984315Y-63500000D01*
X58581048Y-64903267D01*
X58565790Y-64915789D01*
X58553268Y-64931047D01*
X58553265Y-64931050D01*
X58515803Y-64976698D01*
X58478661Y-65046186D01*
X58455788Y-65121587D01*
X58448789Y-65192646D01*
X58288381Y-64872412D01*
X58226138Y-64779261D01*
X57951337Y-64586847D01*
X56538184Y-66000000D01*
X56552326Y-66014142D01*
X56514142Y-66052326D01*
X56500000Y-66038184D01*
X55086847Y-67451337D01*
X55279261Y-67726138D01*
X55639469Y-67931126D01*
X56032748Y-68061901D01*
X56146079Y-68076104D01*
X56122787Y-68099396D01*
X56062597Y-68189477D01*
X56021136Y-68289571D01*
X56000000Y-68395830D01*
X56000000Y-68504170D01*
X56017908Y-68594203D01*
X54645244Y-68594203D01*
X54400000Y-68348960D01*
X54400000Y-68345830D01*
X54378864Y-68239571D01*
X54337403Y-68139477D01*
X54277213Y-68049396D01*
X54200604Y-67972787D01*
X54110523Y-67912597D01*
X54010429Y-67871136D01*
X53904170Y-67850000D01*
X53795830Y-67850000D01*
X53689571Y-67871136D01*
X53589477Y-67912597D01*
X53499396Y-67972787D01*
X53424505Y-68047678D01*
X53360429Y-68021136D01*
X53254170Y-68000000D01*
X53145830Y-68000000D01*
X53039571Y-68021136D01*
X52939477Y-68062597D01*
X52849396Y-68122787D01*
X52772787Y-68199396D01*
X52712597Y-68289477D01*
X52671136Y-68389571D01*
X52650000Y-68495830D01*
X52650000Y-68604170D01*
X52671136Y-68710429D01*
X52712597Y-68810523D01*
X52772787Y-68900604D01*
X52849396Y-68977213D01*
X52939477Y-69037403D01*
X53039571Y-69078864D01*
X53145830Y-69100000D01*
X53148960Y-69100000D01*
X53743924Y-69694964D01*
X53757234Y-69711182D01*
X53821948Y-69764292D01*
X53895781Y-69803756D01*
X53975894Y-69828058D01*
X54059208Y-69836264D01*
X54080082Y-69834208D01*
X57433168Y-69834208D01*
X59999672Y-72400712D01*
X60012982Y-72416930D01*
X60077620Y-72469978D01*
X57735663Y-72469978D01*
X56996737Y-71731052D01*
X56984211Y-71715789D01*
X56923303Y-71665803D01*
X56853814Y-71628660D01*
X56778414Y-71605788D01*
X56719647Y-71600000D01*
X56719646Y-71600000D01*
X56700000Y-71598065D01*
X56680354Y-71600000D01*
X54577817Y-71600000D01*
X54550604Y-71572787D01*
X54460523Y-71512597D01*
X54360429Y-71471136D01*
X54254170Y-71450000D01*
X54145830Y-71450000D01*
X54050000Y-71469062D01*
X54050000Y-70424560D01*
X54052419Y-70400000D01*
X54042765Y-70301983D01*
X54041198Y-70296818D01*
X54014175Y-70207733D01*
X53967746Y-70120871D01*
X53905264Y-70044736D01*
X53886187Y-70029080D01*
X51913068Y-68055963D01*
X51901931Y-67999975D01*
X51856702Y-67890782D01*
X51791039Y-67792511D01*
X51707467Y-67708939D01*
X51609196Y-67643276D01*
X51500003Y-67598047D01*
X51384084Y-67574989D01*
X51265894Y-67574989D01*
X51149975Y-67598047D01*
X51040782Y-67643276D01*
X50942511Y-67708939D01*
X50858939Y-67792511D01*
X50793276Y-67890782D01*
X50748047Y-67999975D01*
X50724989Y-68115894D01*
X50724989Y-68234084D01*
X50748047Y-68350003D01*
X50793276Y-68459196D01*
X50858939Y-68557467D01*
X50942511Y-68641039D01*
X51040782Y-68706702D01*
X51149975Y-68751931D01*
X51205963Y-68763068D01*
X53050001Y-70607108D01*
X53050000Y-75375440D01*
X53047581Y-75400000D01*
X53050000Y-75424559D01*
X53057235Y-75498016D01*
X53085825Y-75592266D01*
X53132254Y-75679129D01*
X53194736Y-75755264D01*
X53213824Y-75770929D01*
X54079075Y-76636181D01*
X54094736Y-76655264D01*
X54118785Y-76675000D01*
X52588342Y-76675000D01*
X52600000Y-70350184D01*
X52599104Y-70336647D01*
X52594595Y-70317569D01*
X52586451Y-70299738D01*
X52574984Y-70283838D01*
X52199984Y-69858838D01*
X52180681Y-69841936D01*
X52163406Y-69832669D01*
X52144655Y-69826951D01*
X52125149Y-69825000D01*
X49325000Y-69820819D01*
X49325000Y-68086081D01*
X49357372Y-68083757D01*
X49757026Y-67973999D01*
X50127588Y-67788381D01*
X50220739Y-67726138D01*
X50413153Y-67451337D01*
X49325000Y-66363184D01*
X49325000Y-66286816D01*
X50451337Y-67413153D01*
X50726138Y-67220739D01*
X50931126Y-66860531D01*
X51061901Y-66467252D01*
X51113438Y-66056016D01*
X51105395Y-65943984D01*
X54386562Y-65943984D01*
X54416243Y-66357372D01*
X54526001Y-66757026D01*
X54711619Y-67127588D01*
X54773862Y-67220739D01*
X55048663Y-67413153D01*
X56461816Y-66000000D01*
X55048663Y-64586847D01*
X54773862Y-64779261D01*
X54568874Y-65139469D01*
X54438099Y-65532748D01*
X54386562Y-65943984D01*
X51105395Y-65943984D01*
X51083757Y-65642628D01*
X50973999Y-65242974D01*
X50788381Y-64872412D01*
X50726138Y-64779261D01*
X50451337Y-64586847D01*
X49325000Y-65713184D01*
X49325000Y-65636816D01*
X50413153Y-64548663D01*
X55086847Y-64548663D01*
X56500000Y-65961816D01*
X57913153Y-64548663D01*
X57720739Y-64273862D01*
X57360531Y-64068874D01*
X56967252Y-63938099D01*
X56556016Y-63886562D01*
X56142628Y-63916243D01*
X55742974Y-64026001D01*
X55372412Y-64211619D01*
X55279261Y-64273862D01*
X55086847Y-64548663D01*
X50413153Y-64548663D01*
X50220739Y-64273862D01*
X49860531Y-64068874D01*
X49467252Y-63938099D01*
X49325000Y-63920272D01*
X49325000Y-63065184D01*
X49657026Y-62973999D01*
X50027588Y-62788381D01*
X50120739Y-62726138D01*
X50313153Y-62451337D01*
X55086847Y-62451337D01*
X55279261Y-62726138D01*
X55639469Y-62931126D01*
X56032748Y-63061901D01*
X56443984Y-63113438D01*
X56857372Y-63083757D01*
X57257026Y-62973999D01*
X57627588Y-62788381D01*
X57720739Y-62726138D01*
X57913153Y-62451337D01*
X56500000Y-61038184D01*
X55086847Y-62451337D01*
X50313153Y-62451337D01*
X49325000Y-61463184D01*
X49325000Y-61386816D01*
X50351337Y-62413153D01*
X50626138Y-62220739D01*
X50831126Y-61860531D01*
X50961901Y-61467252D01*
X51013438Y-61056016D01*
X51005395Y-60943984D01*
X54386562Y-60943984D01*
X54416243Y-61357372D01*
X54526001Y-61757026D01*
X54711619Y-62127588D01*
X54773862Y-62220739D01*
X55048663Y-62413153D01*
X56461816Y-61000000D01*
X56538184Y-61000000D01*
X57951337Y-62413153D01*
X58226138Y-62220739D01*
X58431126Y-61860531D01*
X58551273Y-61499213D01*
X59488971Y-61499213D01*
X59562892Y-61672839D01*
X59755170Y-61779400D01*
X59964544Y-61846402D01*
X60182966Y-61871271D01*
X60402042Y-61853049D01*
X60613355Y-61792438D01*
X60808781Y-61691767D01*
X60837108Y-61672839D01*
X60911029Y-61499213D01*
X60200000Y-60788184D01*
X59488971Y-61499213D01*
X58551273Y-61499213D01*
X58561901Y-61467252D01*
X58613438Y-61056016D01*
X58590244Y-60732966D01*
X59078729Y-60732966D01*
X59096951Y-60952042D01*
X59157562Y-61163355D01*
X59258233Y-61358781D01*
X59277161Y-61387108D01*
X59450787Y-61461029D01*
X60161816Y-60750000D01*
X60238184Y-60750000D01*
X60949213Y-61461029D01*
X61122839Y-61387108D01*
X61229400Y-61194830D01*
X61296402Y-60985456D01*
X61321271Y-60767034D01*
X61303049Y-60547958D01*
X61242438Y-60336645D01*
X61141767Y-60141219D01*
X61122839Y-60112892D01*
X60949213Y-60038971D01*
X60238184Y-60750000D01*
X60161816Y-60750000D01*
X59450787Y-60038971D01*
X59277161Y-60112892D01*
X59170600Y-60305170D01*
X59103598Y-60514544D01*
X59078729Y-60732966D01*
X58590244Y-60732966D01*
X58583757Y-60642628D01*
X58473999Y-60242974D01*
X58352686Y-60000787D01*
X59488971Y-60000787D01*
X60200000Y-60711816D01*
X60911029Y-60000787D01*
X60837108Y-59827161D01*
X60644830Y-59720600D01*
X60435456Y-59653598D01*
X60217034Y-59628729D01*
X59997958Y-59646951D01*
X59786645Y-59707562D01*
X59591219Y-59808233D01*
X59562892Y-59827161D01*
X59488971Y-60000787D01*
X58352686Y-60000787D01*
X58288381Y-59872412D01*
X58226138Y-59779261D01*
X57951337Y-59586847D01*
X56538184Y-61000000D01*
X56461816Y-61000000D01*
X55048663Y-59586847D01*
X54773862Y-59779261D01*
X54568874Y-60139469D01*
X54438099Y-60532748D01*
X54386562Y-60943984D01*
X51005395Y-60943984D01*
X50983757Y-60642628D01*
X50873999Y-60242974D01*
X50688381Y-59872412D01*
X50626138Y-59779261D01*
X50351337Y-59586847D01*
X49325000Y-60613184D01*
X49325000Y-60536816D01*
X50313153Y-59548663D01*
X55086847Y-59548663D01*
X56500000Y-60961816D01*
X57913153Y-59548663D01*
X57720739Y-59273862D01*
X57360531Y-59068874D01*
X56967252Y-58938099D01*
X56556016Y-58886562D01*
X56142628Y-58916243D01*
X55742974Y-59026001D01*
X55372412Y-59211619D01*
X55279261Y-59273862D01*
X55086847Y-59548663D01*
X50313153Y-59548663D01*
X50120739Y-59273862D01*
X49760531Y-59068874D01*
X49367252Y-58938099D01*
X49325000Y-58932804D01*
X49325000Y-56513466D01*
X49340872Y-56322369D01*
X58600035Y-56322369D01*
X58601921Y-56344509D01*
X58607612Y-56363268D01*
X58616853Y-56380557D01*
X58629289Y-56395711D01*
X58644443Y-56408147D01*
X58661732Y-56417388D01*
X58680491Y-56423079D01*
X58700000Y-56425000D01*
X60750000Y-56425000D01*
X60766922Y-56423558D01*
X60785825Y-56418363D01*
X60803350Y-56409580D01*
X60818826Y-56397546D01*
X60831657Y-56382725D01*
X60841349Y-56365686D01*
X60847531Y-56347082D01*
X60849965Y-56327631D01*
X60874965Y-55377631D01*
X60873079Y-55355491D01*
X60867388Y-55336732D01*
X60858147Y-55319443D01*
X60845711Y-55304289D01*
X60830557Y-55291853D01*
X60813268Y-55282612D01*
X60794509Y-55276921D01*
X60775000Y-55275000D01*
X58725000Y-55275000D01*
X58708078Y-55276442D01*
X58689175Y-55281637D01*
X58671650Y-55290420D01*
X58656174Y-55302454D01*
X58643343Y-55317275D01*
X58633651Y-55334314D01*
X58627469Y-55352918D01*
X58625035Y-55372369D01*
X58600035Y-56322369D01*
X49340872Y-56322369D01*
X49501295Y-54390905D01*
X54725000Y-54390905D01*
X54725000Y-54509095D01*
X54748058Y-54625014D01*
X54793287Y-54734207D01*
X54858950Y-54832478D01*
X54942522Y-54916050D01*
X55040793Y-54981713D01*
X55149986Y-55026942D01*
X55265905Y-55050000D01*
X55384095Y-55050000D01*
X55500014Y-55026942D01*
X55609207Y-54981713D01*
X55707478Y-54916050D01*
X55773528Y-54850000D01*
X59180354Y-54850000D01*
X59200000Y-54851935D01*
X59219646Y-54850000D01*
X59219647Y-54850000D01*
X59278414Y-54844212D01*
X59353814Y-54821340D01*
X59423303Y-54784197D01*
X59484211Y-54734211D01*
X59496737Y-54718948D01*
X60200000Y-54015685D01*
X60200000Y-54325440D01*
X60197581Y-54350000D01*
X60200000Y-54374559D01*
X60207235Y-54448016D01*
X60235825Y-54542266D01*
X60282254Y-54629129D01*
X60344736Y-54705264D01*
X60363824Y-54720929D01*
X62729079Y-57086186D01*
X62744736Y-57105264D01*
X62820871Y-57167746D01*
X62907733Y-57214175D01*
X63001983Y-57242765D01*
X63100000Y-57252419D01*
X63124560Y-57250000D01*
X68718331Y-57250000D01*
X68765793Y-57281713D01*
X68874986Y-57326942D01*
X68990905Y-57350000D01*
X62098528Y-57350000D01*
X62032478Y-57283950D01*
X61934207Y-57218287D01*
X61825014Y-57173058D01*
X61709095Y-57150000D01*
X61590905Y-57150000D01*
X61474986Y-57173058D01*
X61365793Y-57218287D01*
X61267522Y-57283950D01*
X61183950Y-57367522D01*
X61118287Y-57465793D01*
X61073058Y-57574986D01*
X61050000Y-57690905D01*
X61050000Y-57809095D01*
X61073058Y-57925014D01*
X61118287Y-58034207D01*
X61183950Y-58132478D01*
X61267522Y-58216050D01*
X61365793Y-58281713D01*
X61474986Y-58326942D01*
X61590905Y-58350000D01*
X61709095Y-58350000D01*
X61825014Y-58326942D01*
X61934207Y-58281713D01*
X62032478Y-58216050D01*
X62098528Y-58150000D01*
X74784315Y-58150000D01*
X78000000Y-61365685D01*
X78000000Y-61459095D01*
X78023058Y-61575014D01*
X78068287Y-61684207D01*
X78133950Y-61782478D01*
X78217522Y-61866050D01*
X78315793Y-61931713D01*
X78424986Y-61976942D01*
X78540905Y-62000000D01*
X78659095Y-62000000D01*
X78775014Y-61976942D01*
X78884207Y-61931713D01*
X78982478Y-61866050D01*
X79066050Y-61782478D01*
X79131713Y-61684207D01*
X79176942Y-61575014D01*
X79200000Y-61459095D01*
X79200000Y-61340905D01*
X79176942Y-61224986D01*
X79131713Y-61115793D01*
X79066050Y-61017522D01*
X78982478Y-60933950D01*
X78884207Y-60868287D01*
X78775014Y-60823058D01*
X78659095Y-60800000D01*
X78565685Y-60800000D01*
X75246737Y-57481052D01*
X75234211Y-57465789D01*
X75173303Y-57415803D01*
X75103814Y-57378660D01*
X75028414Y-57355788D01*
X74969647Y-57350000D01*
X74969646Y-57350000D01*
X74950000Y-57348065D01*
X74930354Y-57350000D01*
X69109095Y-57350000D01*
X69225014Y-57326942D01*
X69334207Y-57281713D01*
X69381669Y-57250000D01*
X81192895Y-57250000D01*
X83250001Y-59307108D01*
X83250000Y-64042894D01*
X82062821Y-65230074D01*
X82059774Y-65228812D01*
X81854598Y-65188000D01*
X81645402Y-65188000D01*
X81440226Y-65228812D01*
X81246954Y-65308867D01*
X81073014Y-65425090D01*
X80925090Y-65573014D01*
X80808867Y-65746954D01*
X80728812Y-65940226D01*
X80688000Y-66145402D01*
X80688000Y-66354598D01*
X80728812Y-66559774D01*
X80808867Y-66753046D01*
X80925090Y-66926986D01*
X81073014Y-67074910D01*
X81246954Y-67191133D01*
X81440226Y-67271188D01*
X81645402Y-67312000D01*
X81854598Y-67312000D01*
X82059774Y-67271188D01*
X82253046Y-67191133D01*
X82426986Y-67074910D01*
X82574910Y-66926986D01*
X82691133Y-66753046D01*
X82771188Y-66559774D01*
X82812000Y-66354598D01*
X82812000Y-66145402D01*
X82771188Y-65940226D01*
X82769926Y-65937179D01*
X84086181Y-64620925D01*
X84105264Y-64605264D01*
X84167746Y-64529129D01*
X84214175Y-64442267D01*
X84242765Y-64348017D01*
X84250000Y-64274560D01*
X84250000Y-64274559D01*
X84252419Y-64250001D01*
X84250000Y-64225443D01*
X84250000Y-59124560D01*
X84252419Y-59100000D01*
X84242765Y-59001983D01*
X84216756Y-58916243D01*
X84214175Y-58907733D01*
X84167746Y-58820871D01*
X84105264Y-58744736D01*
X84086187Y-58729080D01*
X81770929Y-56413824D01*
X81755264Y-56394736D01*
X81679129Y-56332254D01*
X81592267Y-56285825D01*
X81498017Y-56257235D01*
X81424560Y-56250000D01*
X81400000Y-56247581D01*
X81375440Y-56250000D01*
X70287751Y-56250000D01*
X70331713Y-56184207D01*
X70376942Y-56075014D01*
X70400000Y-55959095D01*
X70400000Y-55840905D01*
X70376942Y-55724986D01*
X70331713Y-55615793D01*
X70266050Y-55517522D01*
X70182478Y-55433950D01*
X70084207Y-55368287D01*
X69975014Y-55323058D01*
X69859095Y-55300000D01*
X69800000Y-55300000D01*
X69800000Y-54381056D01*
X101900000Y-54381056D01*
X101900000Y-54518944D01*
X101926901Y-54654182D01*
X101979668Y-54781574D01*
X102056274Y-54896224D01*
X102153776Y-54993726D01*
X102268426Y-55070332D01*
X102350001Y-55104121D01*
X102350000Y-70560050D01*
X102306274Y-70603776D01*
X102229668Y-70718426D01*
X102176901Y-70845818D01*
X102150000Y-70981056D01*
X102150000Y-71118944D01*
X102176901Y-71254182D01*
X102229668Y-71381574D01*
X102306274Y-71496224D01*
X102403776Y-71593726D01*
X102518426Y-71670332D01*
X102645818Y-71723099D01*
X102781056Y-71750000D01*
X102918944Y-71750000D01*
X103054182Y-71723099D01*
X103181574Y-71670332D01*
X103296224Y-71593726D01*
X103393726Y-71496224D01*
X103470332Y-71381574D01*
X103523099Y-71254182D01*
X103550000Y-71118944D01*
X103550000Y-70981056D01*
X103523099Y-70845818D01*
X103470332Y-70718426D01*
X103393726Y-70603776D01*
X103350000Y-70560050D01*
X103350000Y-54724549D01*
X103352418Y-54699999D01*
X103350000Y-54675449D01*
X103350000Y-54675440D01*
X103342765Y-54601983D01*
X103314175Y-54507733D01*
X103300000Y-54481214D01*
X103300000Y-54381056D01*
X103273099Y-54245818D01*
X103220332Y-54118426D01*
X103143726Y-54003776D01*
X103046224Y-53906274D01*
X102931574Y-53829668D01*
X102804182Y-53776901D01*
X102668944Y-53750000D01*
X102531056Y-53750000D01*
X102395818Y-53776901D01*
X102268426Y-53829668D01*
X102153776Y-53906274D01*
X102056274Y-54003776D01*
X101979668Y-54118426D01*
X101926901Y-54245818D01*
X101900000Y-54381056D01*
X69800000Y-54381056D01*
X69800000Y-52019647D01*
X69801935Y-52000000D01*
X69794212Y-51921586D01*
X69790200Y-51908361D01*
X69800000Y-51859095D01*
X69800000Y-51740905D01*
X69776942Y-51624986D01*
X69731713Y-51515793D01*
X69666050Y-51417522D01*
X69582478Y-51333950D01*
X69484207Y-51268287D01*
X69375014Y-51223058D01*
X69259095Y-51200000D01*
X69140905Y-51200000D01*
X69024986Y-51223058D01*
X68915793Y-51268287D01*
X68817522Y-51333950D01*
X68733950Y-51417522D01*
X68668287Y-51515793D01*
X68623058Y-51624986D01*
X68600000Y-51740905D01*
X68600000Y-51859095D01*
X68623058Y-51975014D01*
X68668287Y-52084207D01*
X68733950Y-52182478D01*
X68817522Y-52266050D01*
X68915793Y-52331713D01*
X69000000Y-52366593D01*
X69000001Y-55480344D01*
X68998065Y-55500000D01*
X69005788Y-55578413D01*
X69028661Y-55653814D01*
X69065803Y-55723302D01*
X69103265Y-55768950D01*
X69103268Y-55768953D01*
X69115790Y-55784211D01*
X69131048Y-55796733D01*
X69200000Y-55865685D01*
X69200000Y-55959095D01*
X69223058Y-56075014D01*
X69268287Y-56184207D01*
X69274546Y-56193575D01*
X69225014Y-56173058D01*
X69109095Y-56150000D01*
X68990905Y-56150000D01*
X68874986Y-56173058D01*
X68765793Y-56218287D01*
X68718331Y-56250000D01*
X63307107Y-56250000D01*
X62071042Y-55013936D01*
X66324248Y-55013936D01*
X66324248Y-55139093D01*
X66752983Y-55569491D01*
X66752090Y-55570384D01*
X66769830Y-55588124D01*
X66773093Y-55592058D01*
X66776662Y-55594956D01*
X66790276Y-55608570D01*
X66791094Y-55607752D01*
X66948473Y-55765741D01*
X67002376Y-55809978D01*
X67063874Y-55842849D01*
X67130604Y-55863092D01*
X67200000Y-55869926D01*
X67269396Y-55863092D01*
X67336126Y-55842849D01*
X67397624Y-55809978D01*
X67451527Y-55765741D01*
X67608906Y-55607752D01*
X67609724Y-55608570D01*
X67627463Y-55590831D01*
X67631398Y-55587567D01*
X67634295Y-55583999D01*
X67647910Y-55570384D01*
X67647018Y-55569492D01*
X68075752Y-55139093D01*
X68075752Y-55013936D01*
X67200000Y-54138184D01*
X66324248Y-55013936D01*
X62071042Y-55013936D01*
X61200000Y-54142895D01*
X61200000Y-53439950D01*
X61243726Y-53396224D01*
X61320332Y-53281574D01*
X61373099Y-53154182D01*
X61400000Y-53018944D01*
X61400000Y-52881056D01*
X61373099Y-52745818D01*
X61320332Y-52618426D01*
X61243726Y-52503776D01*
X61146224Y-52406274D01*
X61031574Y-52329668D01*
X60904182Y-52276901D01*
X60768944Y-52250000D01*
X60631056Y-52250000D01*
X60495818Y-52276901D01*
X60368426Y-52329668D01*
X60253776Y-52406274D01*
X60156274Y-52503776D01*
X60079668Y-52618426D01*
X60026901Y-52745818D01*
X60000000Y-52881056D01*
X60000000Y-53018944D01*
X60010846Y-53073469D01*
X59034315Y-54050000D01*
X55773528Y-54050000D01*
X55707478Y-53983950D01*
X55609207Y-53918287D01*
X55500014Y-53873058D01*
X55384095Y-53850000D01*
X55265905Y-53850000D01*
X55149986Y-53873058D01*
X55040793Y-53918287D01*
X54942522Y-53983950D01*
X54858950Y-54067522D01*
X54793287Y-54165793D01*
X54748058Y-54274986D01*
X54725000Y-54390905D01*
X49501295Y-54390905D01*
X49824822Y-50495727D01*
X49834058Y-50449548D01*
X49847017Y-50418279D01*
X49865807Y-50390117D01*
X49889698Y-50366151D01*
X49917806Y-50347270D01*
X49949027Y-50334217D01*
X49989639Y-50325963D01*
X50008356Y-50325000D01*
X65059314Y-50325000D01*
X62184315Y-53200000D01*
G37*
%TD.AperFunction*%
%TD*%
M02*
