M48
; DRILL file {KiCad (5.1.12)-1} date 12/09/21 18:01:34
; FORMAT={-:-/ absolute / inch / decimal}
; #@! TF.CreationDate,2021-12-09T18:01:34-07:00
; #@! TF.GenerationSoftware,Kicad,Pcbnew,(5.1.12)-1
; #@! TF.FileFunction,Plated,1,2,PTH
FMAT,2
INCH
T1C0.0079
T2C0.0118
T3C0.0157
T4C0.0300
T5C0.0394
T6C0.0748
%
G90
G05
T1
X2.0945Y-2.6988
X2.1201Y-2.6929
X2.1333Y-2.8583
X2.1339Y-2.8346
X2.1339Y-2.8839
X2.1496Y-2.9508
X2.1634Y-2.7657
X2.2126Y-2.9508
X2.2264Y-2.6949
X2.2697Y-2.9587
X2.2776Y-2.498
X2.3228Y-2.685
X2.3543Y-2.9469
X2.3957Y-2.6555
X2.3996Y-2.7283
X2.4291Y-2.8031
X2.435Y-2.7244
X2.439Y-2.6949
X2.4508Y-2.6634
X2.5Y-2.5354
X2.502Y-2.5098
X2.6039Y-2.1299
X2.6457Y-2.0882
X2.6457Y-2.1717
X2.6874Y-2.1299
T2
X1.9921Y-2.7028
X2.0039Y-2.1063
X2.0207Y-2.6841
X2.0413Y-2.1063
X2.0748Y-2.3307
X2.0748Y-2.7953
X2.0748Y-2.8268
X2.0748Y-2.8583
X2.0748Y-2.8898
X2.0748Y-2.9213
X2.0748Y-2.9528
X2.0748Y-2.9843
X2.0748Y-3.0157
X2.0807Y-2.6152
X2.1083Y-2.3307
X2.1545Y-2.1772
X2.1752Y-2.1033
X2.1781Y-2.1437
X2.2047Y-1.9961
X2.2461Y-2.2579
X2.3858Y-2.2992
X2.4272Y-2.2736
X2.4469Y-2.1181
X2.4902Y-3.0039
X2.5Y-2.939
X2.5098Y-2.7205
X2.5502Y-2.9419
X2.5787Y-2.2992
X2.5998Y-2.9403
X2.626Y-2.5709
X2.6555Y-2.3031
X2.7047Y-2.6437
X2.7185Y-2.2343
X2.7244Y-2.0394
X2.748Y-2.2008
X2.7874Y-2.9665
X2.813Y-1.9941
X2.878Y-2.7185
X2.8858Y-2.2972
X3.0039Y-2.2028
X3.0256Y-2.2657
X3.0433Y-2.9724
X3.0492Y-1.9941
X3.0492Y-2.0295
X3.0846Y-2.9232
X3.0945Y-2.4173
X3.126Y-2.7598
X3.1516Y-2.0886
X3.1634Y-2.2874
X3.2067Y-2.6791
X3.252Y-2.9213
X3.2933Y-2.8228
X3.2953Y-2.5906
X3.3671Y-2.2323
X3.3996Y-2.4862
X3.435Y-2.7165
X3.5Y-2.8386
X3.5098Y-2.9173
X3.5335Y-2.624
X3.5413Y-2.2756
X3.5866Y-2.0669
X3.6043Y-2.2441
X3.6311Y-2.2043
X3.6535Y-2.7283
X3.6654Y-2.1791
X3.7008Y-2.2913
X3.7185Y-2.3937
X3.9941Y-2.2697
X3.9941Y-2.9154
X4.0Y-2.5315
X4.0433Y-2.0669
X4.0974Y-2.2667
X4.1329Y-2.5817
X4.1427Y-2.375
X4.189Y-3.0069
X4.2244Y-2.0571
X4.2657Y-2.7185
X4.3307Y-2.8307
X4.3366Y-2.9429
X4.3504Y-2.0591
X4.3622Y-2.7185
X4.3858Y-2.4921
X4.4055Y-2.565
X4.4055Y-2.6102
X4.4114Y-3.002
X4.4193Y-2.4616
X4.437Y-2.7303
X4.4518Y-1.9911
X4.4724Y-3.0059
X4.4764Y-2.7776
X4.4783Y-2.8327
X4.4803Y-2.8799
X4.5079Y-2.4616
X4.5945Y-1.9931
X4.5984Y-2.4429
X4.5984Y-2.4724
X4.5984Y-2.502
X4.5984Y-2.5354
X4.5984Y-2.5669
X4.5984Y-2.5984
X4.5984Y-2.6358
X4.6063Y-3.002
X4.6319Y-2.4429
X4.6358Y-2.6358
X4.6654Y-2.4429
X4.6752Y-2.6358
X4.7087Y-2.6358
X4.7264Y-2.3209
X4.7441Y-2.6358
X4.7638Y-2.4252
X4.7657Y-2.3209
X4.7657Y-2.7756
X4.7697Y-2.7028
X4.7697Y-3.0059
X4.7736Y-2.6358
X4.7736Y-2.8642
X4.7746Y-2.0
X4.7756Y-2.9488
X4.7776Y-2.1309
X4.7815Y-2.2461
T3
X2.3898Y-2.0846
X4.0394Y-2.1437
X4.0492Y-2.7972
T4
X2.3701Y-2.3917
X2.3701Y-2.6083
X3.2185Y-2.3917
X3.2185Y-2.6083
T5
X2.0866Y-1.9685
X2.5591Y-3.0315
X4.3307Y-1.9685
X4.3307Y-3.0315
T6
X1.9252Y-2.4016
X1.9291Y-2.5984
X2.2244Y-2.4016
X2.2244Y-2.5984
T0
M30
