M48
; DRILL file {KiCad (5.1.12)-1} date 11/29/21 20:05:00
; FORMAT={-:-/ absolute / inch / decimal}
; #@! TF.CreationDate,2021-11-29T20:05:00-07:00
; #@! TF.GenerationSoftware,Kicad,Pcbnew,(5.1.12)-1
; #@! TF.FileFunction,Plated,1,2,PTH
FMAT,2
INCH
T1C0.0079
T2C0.0118
T3C0.0157
T4C0.0300
T5C0.0394
T6C0.0748
%
G90
G05
T1
X2.2535Y-2.8057
X2.2953Y-2.7639
X2.2953Y-2.8474
X2.337Y-2.8057
X2.3933Y-2.1161
X2.435Y-2.0744
X2.435Y-2.1579
X2.4768Y-2.1161
X3.5531Y-2.1791
X3.6191Y-2.8425
X3.6732Y-2.065
X3.6772Y-2.8041
X3.6841Y-2.5472
X3.75Y-2.5551
X3.8219Y-2.6752
X3.8228Y-2.8484
X3.8462Y-2.543
X3.8524Y-2.939
X3.8601Y-2.5018
X3.8701Y-2.7185
X3.872Y-2.7579
X3.8799Y-2.4665
X3.9715Y-2.0541
X3.9715Y-2.2106
X3.9724Y-2.2362
X4.0039Y-2.3553
X4.0531Y-2.0561
X4.0728Y-2.2441
X4.0925Y-2.7126
X4.0925Y-2.7953
X4.0984Y-2.2461
X4.122Y-2.3091
X4.1437Y-2.0472
X4.1437Y-2.2421
X4.1614Y-1.9882
X4.2126Y-2.2372
X4.2323Y-2.0541
X4.2756Y-2.2372
X4.2795Y-2.1024
X4.2795Y-2.128
X4.2815Y-2.1516
X4.2815Y-2.1752
X4.3386Y-2.0197
X4.3386Y-2.0433
X4.3386Y-2.0669
X4.3386Y-2.0906
X4.3386Y-2.1142
X4.3386Y-2.1378
X4.3386Y-2.1614
X4.3386Y-2.185
X4.3386Y-2.2087
X4.3386Y-2.2323
X4.3642Y-2.2697
T2
X1.9902Y-2.1398
X1.9902Y-2.2028
X1.9902Y-2.2402
X2.0Y-2.8268
X2.002Y-2.9685
X2.0669Y-2.7756
X2.1535Y-2.8209
X2.1634Y-2.2815
X2.1949Y-2.313
X2.2126Y-2.9016
X2.3071Y-2.0453
X2.3346Y-2.187
X2.3677Y-2.9059
X2.4114Y-2.315
X2.4154Y-2.7579
X2.4272Y-3.0
X2.439Y-1.9941
X2.4724Y-2.2441
X2.5098Y-2.9961
X2.5472Y-2.8681
X2.5591Y-2.9409
X2.6083Y-2.2303
X2.6713Y-2.126
X2.7382Y-2.122
X2.7421Y-2.7047
X2.7815Y-2.1201
X2.7992Y-2.9587
X2.8346Y-2.9587
X2.8681Y-2.5728
X2.8976Y-2.9606
X3.0413Y-2.1161
X3.0433Y-2.2638
X3.0492Y-2.7185
X3.1142Y-2.8406
X3.1398Y-2.8346
X3.1988Y-2.0709
X3.2362Y-2.7717
X3.2559Y-2.0689
X3.2776Y-2.7736
X3.3051Y-2.3524
X3.3701Y-2.9744
X3.374Y-2.3524
X3.4154Y-2.8661
X3.4272Y-2.2943
X3.4882Y-2.9094
X3.5197Y-2.1506
X3.5394Y-2.437
X3.751Y-2.0492
X3.8711Y-2.6752
X3.8907Y-2.5915
X3.8967Y-2.5305
X3.9262Y-2.4557
X3.9882Y-2.8474
X4.0404Y-2.3661
X4.065Y-2.6791
X4.0699Y-2.6191
X4.0876Y-2.876
X4.1043Y-2.3661
X4.1142Y-2.6772
X4.1417Y-2.935
X4.2047Y-2.3819
X4.2087Y-2.623
X4.311Y-2.4134
X4.315Y-2.622
X4.4203Y-2.3002
T3
X2.6713Y-2.6083
X2.8189Y-2.748
X3.4862Y-2.0965
T4
X2.3622Y-2.3917
X2.3622Y-2.6083
X3.2185Y-2.3917
X3.2185Y-2.6083
T5
X2.0866Y-1.9685
X2.0866Y-3.0315
X3.8957Y-1.9685
X4.3307Y-3.0315
T6
X1.9252Y-2.4016
X1.9291Y-2.5984
X2.2244Y-2.4016
X2.2244Y-2.5984
T0
M30
