%TF.GenerationSoftware,KiCad,Pcbnew,(5.1.12)-1*%
%TF.CreationDate,2021-12-09T18:01:32-07:00*%
%TF.ProjectId,SolarGPS,536f6c61-7247-4505-932e-6b696361645f,rev?*%
%TF.SameCoordinates,Original*%
%TF.FileFunction,Soldermask,Top*%
%TF.FilePolarity,Negative*%
%FSLAX46Y46*%
G04 Gerber Fmt 4.6, Leading zero omitted, Abs format (unit mm)*
G04 Created by KiCad (PCBNEW (5.1.12)-1) date 2021-12-09 18:01:32*
%MOMM*%
%LPD*%
G01*
G04 APERTURE LIST*
%ADD10C,0.010000*%
%ADD11C,0.100000*%
%ADD12R,0.750000X0.750000*%
%ADD13R,1.000000X1.000000*%
%ADD14R,1.000000X2.580000*%
%ADD15C,1.524000*%
%ADD16C,3.500000*%
%ADD17R,0.600000X0.700000*%
%ADD18R,1.700000X1.700000*%
%ADD19R,0.800000X0.400000*%
%ADD20R,0.800000X0.300000*%
G04 APERTURE END LIST*
D10*
%TO.C,U4*%
G36*
X53125000Y-72800000D02*
G01*
X53125000Y-72400000D01*
X53875000Y-72400000D01*
X53875000Y-72800000D01*
X53125000Y-72800000D01*
G37*
X53125000Y-72800000D02*
X53125000Y-72400000D01*
X53875000Y-72400000D01*
X53875000Y-72800000D01*
X53125000Y-72800000D01*
G36*
X53125000Y-72350000D02*
G01*
X53125000Y-71950000D01*
X53875000Y-71950000D01*
X53875000Y-72350000D01*
X53125000Y-72350000D01*
G37*
X53125000Y-72350000D02*
X53125000Y-71950000D01*
X53875000Y-71950000D01*
X53875000Y-72350000D01*
X53125000Y-72350000D01*
G36*
X53125000Y-71900000D02*
G01*
X53125000Y-71500000D01*
X53875000Y-71500000D01*
X53875000Y-71900000D01*
X53125000Y-71900000D01*
G37*
X53125000Y-71900000D02*
X53125000Y-71500000D01*
X53875000Y-71500000D01*
X53875000Y-71900000D01*
X53125000Y-71900000D01*
G36*
X53125000Y-71450000D02*
G01*
X53125000Y-71050000D01*
X53875000Y-71050000D01*
X53875000Y-71450000D01*
X53125000Y-71450000D01*
G37*
X53125000Y-71450000D02*
X53125000Y-71050000D01*
X53875000Y-71050000D01*
X53875000Y-71450000D01*
X53125000Y-71450000D01*
G36*
X53125000Y-71000000D02*
G01*
X53125000Y-70600000D01*
X53875000Y-70600000D01*
X53875000Y-71000000D01*
X53125000Y-71000000D01*
G37*
X53125000Y-71000000D02*
X53125000Y-70600000D01*
X53875000Y-70600000D01*
X53875000Y-71000000D01*
X53125000Y-71000000D01*
G36*
X53125000Y-70550000D02*
G01*
X53125000Y-70150000D01*
X53875000Y-70150000D01*
X53875000Y-70550000D01*
X53125000Y-70550000D01*
G37*
X53125000Y-70550000D02*
X53125000Y-70150000D01*
X53875000Y-70150000D01*
X53875000Y-70550000D01*
X53125000Y-70550000D01*
G36*
X53125000Y-73250000D02*
G01*
X53125000Y-72850000D01*
X53875000Y-72850000D01*
X53875000Y-73250000D01*
X53125000Y-73250000D01*
G37*
X53125000Y-73250000D02*
X53125000Y-72850000D01*
X53875000Y-72850000D01*
X53875000Y-73250000D01*
X53125000Y-73250000D01*
G36*
X53125000Y-73700000D02*
G01*
X53125000Y-73300000D01*
X53875000Y-73300000D01*
X53875000Y-73700000D01*
X53125000Y-73700000D01*
G37*
X53125000Y-73700000D02*
X53125000Y-73300000D01*
X53875000Y-73300000D01*
X53875000Y-73700000D01*
X53125000Y-73700000D01*
G36*
X53125000Y-74150000D02*
G01*
X53125000Y-73750000D01*
X53875000Y-73750000D01*
X53875000Y-74150000D01*
X53125000Y-74150000D01*
G37*
X53125000Y-74150000D02*
X53125000Y-73750000D01*
X53875000Y-73750000D01*
X53875000Y-74150000D01*
X53125000Y-74150000D01*
G36*
X53125000Y-74600000D02*
G01*
X53125000Y-74200000D01*
X53875000Y-74200000D01*
X53875000Y-74600000D01*
X53125000Y-74600000D01*
G37*
X53125000Y-74600000D02*
X53125000Y-74200000D01*
X53875000Y-74200000D01*
X53875000Y-74600000D01*
X53125000Y-74600000D01*
G36*
X53125000Y-75050000D02*
G01*
X53125000Y-74650000D01*
X53875000Y-74650000D01*
X53875000Y-75050000D01*
X53125000Y-75050000D01*
G37*
X53125000Y-75050000D02*
X53125000Y-74650000D01*
X53875000Y-74650000D01*
X53875000Y-75050000D01*
X53125000Y-75050000D01*
G36*
X60525000Y-72800000D02*
G01*
X60525000Y-72400000D01*
X61275000Y-72400000D01*
X61275000Y-72800000D01*
X60525000Y-72800000D01*
G37*
X60525000Y-72800000D02*
X60525000Y-72400000D01*
X61275000Y-72400000D01*
X61275000Y-72800000D01*
X60525000Y-72800000D01*
G36*
X60525000Y-72350000D02*
G01*
X60525000Y-71950000D01*
X61275000Y-71950000D01*
X61275000Y-72350000D01*
X60525000Y-72350000D01*
G37*
X60525000Y-72350000D02*
X60525000Y-71950000D01*
X61275000Y-71950000D01*
X61275000Y-72350000D01*
X60525000Y-72350000D01*
G36*
X60525000Y-71900000D02*
G01*
X60525000Y-71500000D01*
X61275000Y-71500000D01*
X61275000Y-71900000D01*
X60525000Y-71900000D01*
G37*
X60525000Y-71900000D02*
X60525000Y-71500000D01*
X61275000Y-71500000D01*
X61275000Y-71900000D01*
X60525000Y-71900000D01*
G36*
X60525000Y-71450000D02*
G01*
X60525000Y-71050000D01*
X61275000Y-71050000D01*
X61275000Y-71450000D01*
X60525000Y-71450000D01*
G37*
X60525000Y-71450000D02*
X60525000Y-71050000D01*
X61275000Y-71050000D01*
X61275000Y-71450000D01*
X60525000Y-71450000D01*
G36*
X60525000Y-71000000D02*
G01*
X60525000Y-70600000D01*
X61275000Y-70600000D01*
X61275000Y-71000000D01*
X60525000Y-71000000D01*
G37*
X60525000Y-71000000D02*
X60525000Y-70600000D01*
X61275000Y-70600000D01*
X61275000Y-71000000D01*
X60525000Y-71000000D01*
G36*
X60525000Y-70550000D02*
G01*
X60525000Y-70150000D01*
X61275000Y-70150000D01*
X61275000Y-70550000D01*
X60525000Y-70550000D01*
G37*
X60525000Y-70550000D02*
X60525000Y-70150000D01*
X61275000Y-70150000D01*
X61275000Y-70550000D01*
X60525000Y-70550000D01*
G36*
X60525000Y-73250000D02*
G01*
X60525000Y-72850000D01*
X61275000Y-72850000D01*
X61275000Y-73250000D01*
X60525000Y-73250000D01*
G37*
X60525000Y-73250000D02*
X60525000Y-72850000D01*
X61275000Y-72850000D01*
X61275000Y-73250000D01*
X60525000Y-73250000D01*
G36*
X60525000Y-73700000D02*
G01*
X60525000Y-73300000D01*
X61275000Y-73300000D01*
X61275000Y-73700000D01*
X60525000Y-73700000D01*
G37*
X60525000Y-73700000D02*
X60525000Y-73300000D01*
X61275000Y-73300000D01*
X61275000Y-73700000D01*
X60525000Y-73700000D01*
G36*
X60525000Y-74150000D02*
G01*
X60525000Y-73750000D01*
X61275000Y-73750000D01*
X61275000Y-74150000D01*
X60525000Y-74150000D01*
G37*
X60525000Y-74150000D02*
X60525000Y-73750000D01*
X61275000Y-73750000D01*
X61275000Y-74150000D01*
X60525000Y-74150000D01*
G36*
X60525000Y-74600000D02*
G01*
X60525000Y-74200000D01*
X61275000Y-74200000D01*
X61275000Y-74600000D01*
X60525000Y-74600000D01*
G37*
X60525000Y-74600000D02*
X60525000Y-74200000D01*
X61275000Y-74200000D01*
X61275000Y-74600000D01*
X60525000Y-74600000D01*
G36*
X60525000Y-75050000D02*
G01*
X60525000Y-74650000D01*
X61275000Y-74650000D01*
X61275000Y-75050000D01*
X60525000Y-75050000D01*
G37*
X60525000Y-75050000D02*
X60525000Y-74650000D01*
X61275000Y-74650000D01*
X61275000Y-75050000D01*
X60525000Y-75050000D01*
G36*
X55200000Y-76225000D02*
G01*
X55200000Y-75475000D01*
X55600000Y-75475000D01*
X55600000Y-76225000D01*
X55200000Y-76225000D01*
G37*
X55200000Y-76225000D02*
X55200000Y-75475000D01*
X55600000Y-75475000D01*
X55600000Y-76225000D01*
X55200000Y-76225000D01*
G36*
X54750000Y-76225000D02*
G01*
X54750000Y-75475000D01*
X55150000Y-75475000D01*
X55150000Y-76225000D01*
X54750000Y-76225000D01*
G37*
X54750000Y-76225000D02*
X54750000Y-75475000D01*
X55150000Y-75475000D01*
X55150000Y-76225000D01*
X54750000Y-76225000D01*
G36*
X54300000Y-76225000D02*
G01*
X54300000Y-75475000D01*
X54700000Y-75475000D01*
X54700000Y-76225000D01*
X54300000Y-76225000D01*
G37*
X54300000Y-76225000D02*
X54300000Y-75475000D01*
X54700000Y-75475000D01*
X54700000Y-76225000D01*
X54300000Y-76225000D01*
G36*
X55650000Y-76225000D02*
G01*
X55650000Y-75475000D01*
X56050000Y-75475000D01*
X56050000Y-76225000D01*
X55650000Y-76225000D01*
G37*
X55650000Y-76225000D02*
X55650000Y-75475000D01*
X56050000Y-75475000D01*
X56050000Y-76225000D01*
X55650000Y-76225000D01*
G36*
X56100000Y-76225000D02*
G01*
X56100000Y-75475000D01*
X56500000Y-75475000D01*
X56500000Y-76225000D01*
X56100000Y-76225000D01*
G37*
X56100000Y-76225000D02*
X56100000Y-75475000D01*
X56500000Y-75475000D01*
X56500000Y-76225000D01*
X56100000Y-76225000D01*
G36*
X56550000Y-76225000D02*
G01*
X56550000Y-75475000D01*
X56950000Y-75475000D01*
X56950000Y-76225000D01*
X56550000Y-76225000D01*
G37*
X56550000Y-76225000D02*
X56550000Y-75475000D01*
X56950000Y-75475000D01*
X56950000Y-76225000D01*
X56550000Y-76225000D01*
G36*
X57000000Y-76225000D02*
G01*
X57000000Y-75475000D01*
X57400000Y-75475000D01*
X57400000Y-76225000D01*
X57000000Y-76225000D01*
G37*
X57000000Y-76225000D02*
X57000000Y-75475000D01*
X57400000Y-75475000D01*
X57400000Y-76225000D01*
X57000000Y-76225000D01*
G36*
X57450000Y-76225000D02*
G01*
X57450000Y-75475000D01*
X57850000Y-75475000D01*
X57850000Y-76225000D01*
X57450000Y-76225000D01*
G37*
X57450000Y-76225000D02*
X57450000Y-75475000D01*
X57850000Y-75475000D01*
X57850000Y-76225000D01*
X57450000Y-76225000D01*
G36*
X57900000Y-76225000D02*
G01*
X57900000Y-75475000D01*
X58300000Y-75475000D01*
X58300000Y-76225000D01*
X57900000Y-76225000D01*
G37*
X57900000Y-76225000D02*
X57900000Y-75475000D01*
X58300000Y-75475000D01*
X58300000Y-76225000D01*
X57900000Y-76225000D01*
G36*
X58350000Y-76225000D02*
G01*
X58350000Y-75475000D01*
X58750000Y-75475000D01*
X58750000Y-76225000D01*
X58350000Y-76225000D01*
G37*
X58350000Y-76225000D02*
X58350000Y-75475000D01*
X58750000Y-75475000D01*
X58750000Y-76225000D01*
X58350000Y-76225000D01*
G36*
X58800000Y-76225000D02*
G01*
X58800000Y-75475000D01*
X59200000Y-75475000D01*
X59200000Y-76225000D01*
X58800000Y-76225000D01*
G37*
X58800000Y-76225000D02*
X58800000Y-75475000D01*
X59200000Y-75475000D01*
X59200000Y-76225000D01*
X58800000Y-76225000D01*
G36*
X59250000Y-76225000D02*
G01*
X59250000Y-75475000D01*
X59650000Y-75475000D01*
X59650000Y-76225000D01*
X59250000Y-76225000D01*
G37*
X59250000Y-76225000D02*
X59250000Y-75475000D01*
X59650000Y-75475000D01*
X59650000Y-76225000D01*
X59250000Y-76225000D01*
G36*
X59700000Y-76225000D02*
G01*
X59700000Y-75475000D01*
X60100000Y-75475000D01*
X60100000Y-76225000D01*
X59700000Y-76225000D01*
G37*
X59700000Y-76225000D02*
X59700000Y-75475000D01*
X60100000Y-75475000D01*
X60100000Y-76225000D01*
X59700000Y-76225000D01*
G36*
X55200000Y-69725000D02*
G01*
X55200000Y-68975000D01*
X55600000Y-68975000D01*
X55600000Y-69725000D01*
X55200000Y-69725000D01*
G37*
X55200000Y-69725000D02*
X55200000Y-68975000D01*
X55600000Y-68975000D01*
X55600000Y-69725000D01*
X55200000Y-69725000D01*
G36*
X54750000Y-69725000D02*
G01*
X54750000Y-68975000D01*
X55150000Y-68975000D01*
X55150000Y-69725000D01*
X54750000Y-69725000D01*
G37*
X54750000Y-69725000D02*
X54750000Y-68975000D01*
X55150000Y-68975000D01*
X55150000Y-69725000D01*
X54750000Y-69725000D01*
G36*
X54300000Y-69725000D02*
G01*
X54300000Y-68975000D01*
X54700000Y-68975000D01*
X54700000Y-69725000D01*
X54300000Y-69725000D01*
G37*
X54300000Y-69725000D02*
X54300000Y-68975000D01*
X54700000Y-68975000D01*
X54700000Y-69725000D01*
X54300000Y-69725000D01*
G36*
X55650000Y-69725000D02*
G01*
X55650000Y-68975000D01*
X56050000Y-68975000D01*
X56050000Y-69725000D01*
X55650000Y-69725000D01*
G37*
X55650000Y-69725000D02*
X55650000Y-68975000D01*
X56050000Y-68975000D01*
X56050000Y-69725000D01*
X55650000Y-69725000D01*
G36*
X56100000Y-69725000D02*
G01*
X56100000Y-68975000D01*
X56500000Y-68975000D01*
X56500000Y-69725000D01*
X56100000Y-69725000D01*
G37*
X56100000Y-69725000D02*
X56100000Y-68975000D01*
X56500000Y-68975000D01*
X56500000Y-69725000D01*
X56100000Y-69725000D01*
G36*
X56550000Y-69725000D02*
G01*
X56550000Y-68975000D01*
X56950000Y-68975000D01*
X56950000Y-69725000D01*
X56550000Y-69725000D01*
G37*
X56550000Y-69725000D02*
X56550000Y-68975000D01*
X56950000Y-68975000D01*
X56950000Y-69725000D01*
X56550000Y-69725000D01*
G36*
X57000000Y-69725000D02*
G01*
X57000000Y-68975000D01*
X57400000Y-68975000D01*
X57400000Y-69725000D01*
X57000000Y-69725000D01*
G37*
X57000000Y-69725000D02*
X57000000Y-68975000D01*
X57400000Y-68975000D01*
X57400000Y-69725000D01*
X57000000Y-69725000D01*
G36*
X57450000Y-69725000D02*
G01*
X57450000Y-68975000D01*
X57850000Y-68975000D01*
X57850000Y-69725000D01*
X57450000Y-69725000D01*
G37*
X57450000Y-69725000D02*
X57450000Y-68975000D01*
X57850000Y-68975000D01*
X57850000Y-69725000D01*
X57450000Y-69725000D01*
G36*
X57900000Y-69725000D02*
G01*
X57900000Y-68975000D01*
X58300000Y-68975000D01*
X58300000Y-69725000D01*
X57900000Y-69725000D01*
G37*
X57900000Y-69725000D02*
X57900000Y-68975000D01*
X58300000Y-68975000D01*
X58300000Y-69725000D01*
X57900000Y-69725000D01*
G36*
X58350000Y-69725000D02*
G01*
X58350000Y-68975000D01*
X58750000Y-68975000D01*
X58750000Y-69725000D01*
X58350000Y-69725000D01*
G37*
X58350000Y-69725000D02*
X58350000Y-68975000D01*
X58750000Y-68975000D01*
X58750000Y-69725000D01*
X58350000Y-69725000D01*
G36*
X58800000Y-69725000D02*
G01*
X58800000Y-68975000D01*
X59200000Y-68975000D01*
X59200000Y-69725000D01*
X58800000Y-69725000D01*
G37*
X58800000Y-69725000D02*
X58800000Y-68975000D01*
X59200000Y-68975000D01*
X59200000Y-69725000D01*
X58800000Y-69725000D01*
G36*
X59250000Y-69725000D02*
G01*
X59250000Y-68975000D01*
X59650000Y-68975000D01*
X59650000Y-69725000D01*
X59250000Y-69725000D01*
G37*
X59250000Y-69725000D02*
X59250000Y-68975000D01*
X59650000Y-68975000D01*
X59650000Y-69725000D01*
X59250000Y-69725000D01*
G36*
X59700000Y-69725000D02*
G01*
X59700000Y-68975000D01*
X60100000Y-68975000D01*
X60100000Y-69725000D01*
X59700000Y-69725000D01*
G37*
X59700000Y-69725000D02*
X59700000Y-68975000D01*
X60100000Y-68975000D01*
X60100000Y-69725000D01*
X59700000Y-69725000D01*
G36*
X53125500Y-76224500D02*
G01*
X53125500Y-75549500D01*
X53800500Y-75549500D01*
X53800500Y-76224500D01*
X53125500Y-76224500D01*
G37*
X53125500Y-76224500D02*
X53125500Y-75549500D01*
X53800500Y-75549500D01*
X53800500Y-76224500D01*
X53125500Y-76224500D01*
G36*
X53125500Y-69650500D02*
G01*
X53125500Y-68975500D01*
X53800500Y-68975500D01*
X53800500Y-69650500D01*
X53125500Y-69650500D01*
G37*
X53125500Y-69650500D02*
X53125500Y-68975500D01*
X53800500Y-68975500D01*
X53800500Y-69650500D01*
X53125500Y-69650500D01*
G36*
X60599500Y-76224500D02*
G01*
X60599500Y-75549500D01*
X61274500Y-75549500D01*
X61274500Y-76224500D01*
X60599500Y-76224500D01*
G37*
X60599500Y-76224500D02*
X60599500Y-75549500D01*
X61274500Y-75549500D01*
X61274500Y-76224500D01*
X60599500Y-76224500D01*
G36*
X60599500Y-69650500D02*
G01*
X60599500Y-68975500D01*
X61274500Y-68975500D01*
X61274500Y-69650500D01*
X60599500Y-69650500D01*
G37*
X60599500Y-69650500D02*
X60599500Y-68975500D01*
X61274500Y-68975500D01*
X61274500Y-69650500D01*
X60599500Y-69650500D01*
G36*
X54150000Y-76225000D02*
G01*
X53950000Y-76225000D01*
X53945000Y-76225000D01*
X53940000Y-76224000D01*
X53934000Y-76224000D01*
X53929000Y-76223000D01*
X53924000Y-76222000D01*
X53919000Y-76220000D01*
X53914000Y-76218000D01*
X53909000Y-76216000D01*
X53905000Y-76214000D01*
X53900000Y-76212000D01*
X53896000Y-76209000D01*
X53891000Y-76206000D01*
X53887000Y-76203000D01*
X53883000Y-76199000D01*
X53879000Y-76196000D01*
X53876000Y-76192000D01*
X53872000Y-76188000D01*
X53869000Y-76184000D01*
X53866000Y-76179000D01*
X53863000Y-76175000D01*
X53861000Y-76170000D01*
X53859000Y-76166000D01*
X53857000Y-76161000D01*
X53855000Y-76156000D01*
X53853000Y-76151000D01*
X53852000Y-76146000D01*
X53851000Y-76141000D01*
X53851000Y-76135000D01*
X53850000Y-76130000D01*
X53850000Y-76125000D01*
X53850000Y-75575000D01*
X53850000Y-75570000D01*
X53851000Y-75565000D01*
X53851000Y-75559000D01*
X53852000Y-75554000D01*
X53853000Y-75549000D01*
X53855000Y-75544000D01*
X53857000Y-75539000D01*
X53859000Y-75534000D01*
X53861000Y-75530000D01*
X53863000Y-75525000D01*
X53866000Y-75521000D01*
X53869000Y-75516000D01*
X53872000Y-75512000D01*
X53876000Y-75508000D01*
X53879000Y-75504000D01*
X53883000Y-75501000D01*
X53887000Y-75497000D01*
X53891000Y-75494000D01*
X53896000Y-75491000D01*
X53900000Y-75488000D01*
X53905000Y-75486000D01*
X53909000Y-75484000D01*
X53914000Y-75482000D01*
X53919000Y-75480000D01*
X53924000Y-75478000D01*
X53929000Y-75477000D01*
X53934000Y-75476000D01*
X53940000Y-75476000D01*
X53945000Y-75475000D01*
X53950000Y-75475000D01*
X54150000Y-75475000D01*
X54155000Y-75475000D01*
X54160000Y-75476000D01*
X54166000Y-75476000D01*
X54171000Y-75477000D01*
X54176000Y-75478000D01*
X54181000Y-75480000D01*
X54186000Y-75482000D01*
X54191000Y-75484000D01*
X54195000Y-75486000D01*
X54200000Y-75488000D01*
X54204000Y-75491000D01*
X54209000Y-75494000D01*
X54213000Y-75497000D01*
X54217000Y-75501000D01*
X54221000Y-75504000D01*
X54224000Y-75508000D01*
X54228000Y-75512000D01*
X54231000Y-75516000D01*
X54234000Y-75521000D01*
X54237000Y-75525000D01*
X54239000Y-75530000D01*
X54241000Y-75534000D01*
X54243000Y-75539000D01*
X54245000Y-75544000D01*
X54247000Y-75549000D01*
X54248000Y-75554000D01*
X54249000Y-75559000D01*
X54249000Y-75565000D01*
X54250000Y-75570000D01*
X54250000Y-75575000D01*
X54250000Y-76125000D01*
X54250000Y-76130000D01*
X54249000Y-76135000D01*
X54249000Y-76141000D01*
X54248000Y-76146000D01*
X54247000Y-76151000D01*
X54245000Y-76156000D01*
X54243000Y-76161000D01*
X54241000Y-76166000D01*
X54239000Y-76170000D01*
X54237000Y-76175000D01*
X54234000Y-76179000D01*
X54231000Y-76184000D01*
X54228000Y-76188000D01*
X54224000Y-76192000D01*
X54221000Y-76196000D01*
X54217000Y-76199000D01*
X54213000Y-76203000D01*
X54209000Y-76206000D01*
X54204000Y-76209000D01*
X54200000Y-76212000D01*
X54195000Y-76214000D01*
X54191000Y-76216000D01*
X54186000Y-76218000D01*
X54181000Y-76220000D01*
X54176000Y-76222000D01*
X54171000Y-76223000D01*
X54166000Y-76224000D01*
X54160000Y-76224000D01*
X54155000Y-76225000D01*
X54150000Y-76225000D01*
G37*
X54150000Y-76225000D02*
X53950000Y-76225000D01*
X53945000Y-76225000D01*
X53940000Y-76224000D01*
X53934000Y-76224000D01*
X53929000Y-76223000D01*
X53924000Y-76222000D01*
X53919000Y-76220000D01*
X53914000Y-76218000D01*
X53909000Y-76216000D01*
X53905000Y-76214000D01*
X53900000Y-76212000D01*
X53896000Y-76209000D01*
X53891000Y-76206000D01*
X53887000Y-76203000D01*
X53883000Y-76199000D01*
X53879000Y-76196000D01*
X53876000Y-76192000D01*
X53872000Y-76188000D01*
X53869000Y-76184000D01*
X53866000Y-76179000D01*
X53863000Y-76175000D01*
X53861000Y-76170000D01*
X53859000Y-76166000D01*
X53857000Y-76161000D01*
X53855000Y-76156000D01*
X53853000Y-76151000D01*
X53852000Y-76146000D01*
X53851000Y-76141000D01*
X53851000Y-76135000D01*
X53850000Y-76130000D01*
X53850000Y-76125000D01*
X53850000Y-75575000D01*
X53850000Y-75570000D01*
X53851000Y-75565000D01*
X53851000Y-75559000D01*
X53852000Y-75554000D01*
X53853000Y-75549000D01*
X53855000Y-75544000D01*
X53857000Y-75539000D01*
X53859000Y-75534000D01*
X53861000Y-75530000D01*
X53863000Y-75525000D01*
X53866000Y-75521000D01*
X53869000Y-75516000D01*
X53872000Y-75512000D01*
X53876000Y-75508000D01*
X53879000Y-75504000D01*
X53883000Y-75501000D01*
X53887000Y-75497000D01*
X53891000Y-75494000D01*
X53896000Y-75491000D01*
X53900000Y-75488000D01*
X53905000Y-75486000D01*
X53909000Y-75484000D01*
X53914000Y-75482000D01*
X53919000Y-75480000D01*
X53924000Y-75478000D01*
X53929000Y-75477000D01*
X53934000Y-75476000D01*
X53940000Y-75476000D01*
X53945000Y-75475000D01*
X53950000Y-75475000D01*
X54150000Y-75475000D01*
X54155000Y-75475000D01*
X54160000Y-75476000D01*
X54166000Y-75476000D01*
X54171000Y-75477000D01*
X54176000Y-75478000D01*
X54181000Y-75480000D01*
X54186000Y-75482000D01*
X54191000Y-75484000D01*
X54195000Y-75486000D01*
X54200000Y-75488000D01*
X54204000Y-75491000D01*
X54209000Y-75494000D01*
X54213000Y-75497000D01*
X54217000Y-75501000D01*
X54221000Y-75504000D01*
X54224000Y-75508000D01*
X54228000Y-75512000D01*
X54231000Y-75516000D01*
X54234000Y-75521000D01*
X54237000Y-75525000D01*
X54239000Y-75530000D01*
X54241000Y-75534000D01*
X54243000Y-75539000D01*
X54245000Y-75544000D01*
X54247000Y-75549000D01*
X54248000Y-75554000D01*
X54249000Y-75559000D01*
X54249000Y-75565000D01*
X54250000Y-75570000D01*
X54250000Y-75575000D01*
X54250000Y-76125000D01*
X54250000Y-76130000D01*
X54249000Y-76135000D01*
X54249000Y-76141000D01*
X54248000Y-76146000D01*
X54247000Y-76151000D01*
X54245000Y-76156000D01*
X54243000Y-76161000D01*
X54241000Y-76166000D01*
X54239000Y-76170000D01*
X54237000Y-76175000D01*
X54234000Y-76179000D01*
X54231000Y-76184000D01*
X54228000Y-76188000D01*
X54224000Y-76192000D01*
X54221000Y-76196000D01*
X54217000Y-76199000D01*
X54213000Y-76203000D01*
X54209000Y-76206000D01*
X54204000Y-76209000D01*
X54200000Y-76212000D01*
X54195000Y-76214000D01*
X54191000Y-76216000D01*
X54186000Y-76218000D01*
X54181000Y-76220000D01*
X54176000Y-76222000D01*
X54171000Y-76223000D01*
X54166000Y-76224000D01*
X54160000Y-76224000D01*
X54155000Y-76225000D01*
X54150000Y-76225000D01*
G36*
X54150000Y-69725000D02*
G01*
X53950000Y-69725000D01*
X53945000Y-69725000D01*
X53940000Y-69724000D01*
X53934000Y-69724000D01*
X53929000Y-69723000D01*
X53924000Y-69722000D01*
X53919000Y-69720000D01*
X53914000Y-69718000D01*
X53909000Y-69716000D01*
X53905000Y-69714000D01*
X53900000Y-69712000D01*
X53896000Y-69709000D01*
X53891000Y-69706000D01*
X53887000Y-69703000D01*
X53883000Y-69699000D01*
X53879000Y-69696000D01*
X53876000Y-69692000D01*
X53872000Y-69688000D01*
X53869000Y-69684000D01*
X53866000Y-69679000D01*
X53863000Y-69675000D01*
X53861000Y-69670000D01*
X53859000Y-69666000D01*
X53857000Y-69661000D01*
X53855000Y-69656000D01*
X53853000Y-69651000D01*
X53852000Y-69646000D01*
X53851000Y-69641000D01*
X53851000Y-69635000D01*
X53850000Y-69630000D01*
X53850000Y-69625000D01*
X53850000Y-69075000D01*
X53850000Y-69070000D01*
X53851000Y-69065000D01*
X53851000Y-69059000D01*
X53852000Y-69054000D01*
X53853000Y-69049000D01*
X53855000Y-69044000D01*
X53857000Y-69039000D01*
X53859000Y-69034000D01*
X53861000Y-69030000D01*
X53863000Y-69025000D01*
X53866000Y-69021000D01*
X53869000Y-69016000D01*
X53872000Y-69012000D01*
X53876000Y-69008000D01*
X53879000Y-69004000D01*
X53883000Y-69001000D01*
X53887000Y-68997000D01*
X53891000Y-68994000D01*
X53896000Y-68991000D01*
X53900000Y-68988000D01*
X53905000Y-68986000D01*
X53909000Y-68984000D01*
X53914000Y-68982000D01*
X53919000Y-68980000D01*
X53924000Y-68978000D01*
X53929000Y-68977000D01*
X53934000Y-68976000D01*
X53940000Y-68976000D01*
X53945000Y-68975000D01*
X53950000Y-68975000D01*
X54150000Y-68975000D01*
X54155000Y-68975000D01*
X54160000Y-68976000D01*
X54166000Y-68976000D01*
X54171000Y-68977000D01*
X54176000Y-68978000D01*
X54181000Y-68980000D01*
X54186000Y-68982000D01*
X54191000Y-68984000D01*
X54195000Y-68986000D01*
X54200000Y-68988000D01*
X54204000Y-68991000D01*
X54209000Y-68994000D01*
X54213000Y-68997000D01*
X54217000Y-69001000D01*
X54221000Y-69004000D01*
X54224000Y-69008000D01*
X54228000Y-69012000D01*
X54231000Y-69016000D01*
X54234000Y-69021000D01*
X54237000Y-69025000D01*
X54239000Y-69030000D01*
X54241000Y-69034000D01*
X54243000Y-69039000D01*
X54245000Y-69044000D01*
X54247000Y-69049000D01*
X54248000Y-69054000D01*
X54249000Y-69059000D01*
X54249000Y-69065000D01*
X54250000Y-69070000D01*
X54250000Y-69075000D01*
X54250000Y-69625000D01*
X54250000Y-69630000D01*
X54249000Y-69635000D01*
X54249000Y-69641000D01*
X54248000Y-69646000D01*
X54247000Y-69651000D01*
X54245000Y-69656000D01*
X54243000Y-69661000D01*
X54241000Y-69666000D01*
X54239000Y-69670000D01*
X54237000Y-69675000D01*
X54234000Y-69679000D01*
X54231000Y-69684000D01*
X54228000Y-69688000D01*
X54224000Y-69692000D01*
X54221000Y-69696000D01*
X54217000Y-69699000D01*
X54213000Y-69703000D01*
X54209000Y-69706000D01*
X54204000Y-69709000D01*
X54200000Y-69712000D01*
X54195000Y-69714000D01*
X54191000Y-69716000D01*
X54186000Y-69718000D01*
X54181000Y-69720000D01*
X54176000Y-69722000D01*
X54171000Y-69723000D01*
X54166000Y-69724000D01*
X54160000Y-69724000D01*
X54155000Y-69725000D01*
X54150000Y-69725000D01*
G37*
X54150000Y-69725000D02*
X53950000Y-69725000D01*
X53945000Y-69725000D01*
X53940000Y-69724000D01*
X53934000Y-69724000D01*
X53929000Y-69723000D01*
X53924000Y-69722000D01*
X53919000Y-69720000D01*
X53914000Y-69718000D01*
X53909000Y-69716000D01*
X53905000Y-69714000D01*
X53900000Y-69712000D01*
X53896000Y-69709000D01*
X53891000Y-69706000D01*
X53887000Y-69703000D01*
X53883000Y-69699000D01*
X53879000Y-69696000D01*
X53876000Y-69692000D01*
X53872000Y-69688000D01*
X53869000Y-69684000D01*
X53866000Y-69679000D01*
X53863000Y-69675000D01*
X53861000Y-69670000D01*
X53859000Y-69666000D01*
X53857000Y-69661000D01*
X53855000Y-69656000D01*
X53853000Y-69651000D01*
X53852000Y-69646000D01*
X53851000Y-69641000D01*
X53851000Y-69635000D01*
X53850000Y-69630000D01*
X53850000Y-69625000D01*
X53850000Y-69075000D01*
X53850000Y-69070000D01*
X53851000Y-69065000D01*
X53851000Y-69059000D01*
X53852000Y-69054000D01*
X53853000Y-69049000D01*
X53855000Y-69044000D01*
X53857000Y-69039000D01*
X53859000Y-69034000D01*
X53861000Y-69030000D01*
X53863000Y-69025000D01*
X53866000Y-69021000D01*
X53869000Y-69016000D01*
X53872000Y-69012000D01*
X53876000Y-69008000D01*
X53879000Y-69004000D01*
X53883000Y-69001000D01*
X53887000Y-68997000D01*
X53891000Y-68994000D01*
X53896000Y-68991000D01*
X53900000Y-68988000D01*
X53905000Y-68986000D01*
X53909000Y-68984000D01*
X53914000Y-68982000D01*
X53919000Y-68980000D01*
X53924000Y-68978000D01*
X53929000Y-68977000D01*
X53934000Y-68976000D01*
X53940000Y-68976000D01*
X53945000Y-68975000D01*
X53950000Y-68975000D01*
X54150000Y-68975000D01*
X54155000Y-68975000D01*
X54160000Y-68976000D01*
X54166000Y-68976000D01*
X54171000Y-68977000D01*
X54176000Y-68978000D01*
X54181000Y-68980000D01*
X54186000Y-68982000D01*
X54191000Y-68984000D01*
X54195000Y-68986000D01*
X54200000Y-68988000D01*
X54204000Y-68991000D01*
X54209000Y-68994000D01*
X54213000Y-68997000D01*
X54217000Y-69001000D01*
X54221000Y-69004000D01*
X54224000Y-69008000D01*
X54228000Y-69012000D01*
X54231000Y-69016000D01*
X54234000Y-69021000D01*
X54237000Y-69025000D01*
X54239000Y-69030000D01*
X54241000Y-69034000D01*
X54243000Y-69039000D01*
X54245000Y-69044000D01*
X54247000Y-69049000D01*
X54248000Y-69054000D01*
X54249000Y-69059000D01*
X54249000Y-69065000D01*
X54250000Y-69070000D01*
X54250000Y-69075000D01*
X54250000Y-69625000D01*
X54250000Y-69630000D01*
X54249000Y-69635000D01*
X54249000Y-69641000D01*
X54248000Y-69646000D01*
X54247000Y-69651000D01*
X54245000Y-69656000D01*
X54243000Y-69661000D01*
X54241000Y-69666000D01*
X54239000Y-69670000D01*
X54237000Y-69675000D01*
X54234000Y-69679000D01*
X54231000Y-69684000D01*
X54228000Y-69688000D01*
X54224000Y-69692000D01*
X54221000Y-69696000D01*
X54217000Y-69699000D01*
X54213000Y-69703000D01*
X54209000Y-69706000D01*
X54204000Y-69709000D01*
X54200000Y-69712000D01*
X54195000Y-69714000D01*
X54191000Y-69716000D01*
X54186000Y-69718000D01*
X54181000Y-69720000D01*
X54176000Y-69722000D01*
X54171000Y-69723000D01*
X54166000Y-69724000D01*
X54160000Y-69724000D01*
X54155000Y-69725000D01*
X54150000Y-69725000D01*
G36*
X60450000Y-76225000D02*
G01*
X60250000Y-76225000D01*
X60245000Y-76225000D01*
X60240000Y-76224000D01*
X60234000Y-76224000D01*
X60229000Y-76223000D01*
X60224000Y-76222000D01*
X60219000Y-76220000D01*
X60214000Y-76218000D01*
X60209000Y-76216000D01*
X60205000Y-76214000D01*
X60200000Y-76212000D01*
X60196000Y-76209000D01*
X60191000Y-76206000D01*
X60187000Y-76203000D01*
X60183000Y-76199000D01*
X60179000Y-76196000D01*
X60176000Y-76192000D01*
X60172000Y-76188000D01*
X60169000Y-76184000D01*
X60166000Y-76179000D01*
X60163000Y-76175000D01*
X60161000Y-76170000D01*
X60159000Y-76166000D01*
X60157000Y-76161000D01*
X60155000Y-76156000D01*
X60153000Y-76151000D01*
X60152000Y-76146000D01*
X60151000Y-76141000D01*
X60151000Y-76135000D01*
X60150000Y-76130000D01*
X60150000Y-76125000D01*
X60150000Y-75575000D01*
X60150000Y-75570000D01*
X60151000Y-75565000D01*
X60151000Y-75559000D01*
X60152000Y-75554000D01*
X60153000Y-75549000D01*
X60155000Y-75544000D01*
X60157000Y-75539000D01*
X60159000Y-75534000D01*
X60161000Y-75530000D01*
X60163000Y-75525000D01*
X60166000Y-75521000D01*
X60169000Y-75516000D01*
X60172000Y-75512000D01*
X60176000Y-75508000D01*
X60179000Y-75504000D01*
X60183000Y-75501000D01*
X60187000Y-75497000D01*
X60191000Y-75494000D01*
X60196000Y-75491000D01*
X60200000Y-75488000D01*
X60205000Y-75486000D01*
X60209000Y-75484000D01*
X60214000Y-75482000D01*
X60219000Y-75480000D01*
X60224000Y-75478000D01*
X60229000Y-75477000D01*
X60234000Y-75476000D01*
X60240000Y-75476000D01*
X60245000Y-75475000D01*
X60250000Y-75475000D01*
X60450000Y-75475000D01*
X60455000Y-75475000D01*
X60460000Y-75476000D01*
X60466000Y-75476000D01*
X60471000Y-75477000D01*
X60476000Y-75478000D01*
X60481000Y-75480000D01*
X60486000Y-75482000D01*
X60491000Y-75484000D01*
X60495000Y-75486000D01*
X60500000Y-75488000D01*
X60504000Y-75491000D01*
X60509000Y-75494000D01*
X60513000Y-75497000D01*
X60517000Y-75501000D01*
X60521000Y-75504000D01*
X60524000Y-75508000D01*
X60528000Y-75512000D01*
X60531000Y-75516000D01*
X60534000Y-75521000D01*
X60537000Y-75525000D01*
X60539000Y-75530000D01*
X60541000Y-75534000D01*
X60543000Y-75539000D01*
X60545000Y-75544000D01*
X60547000Y-75549000D01*
X60548000Y-75554000D01*
X60549000Y-75559000D01*
X60549000Y-75565000D01*
X60550000Y-75570000D01*
X60550000Y-75575000D01*
X60550000Y-76125000D01*
X60550000Y-76130000D01*
X60549000Y-76135000D01*
X60549000Y-76141000D01*
X60548000Y-76146000D01*
X60547000Y-76151000D01*
X60545000Y-76156000D01*
X60543000Y-76161000D01*
X60541000Y-76166000D01*
X60539000Y-76170000D01*
X60537000Y-76175000D01*
X60534000Y-76179000D01*
X60531000Y-76184000D01*
X60528000Y-76188000D01*
X60524000Y-76192000D01*
X60521000Y-76196000D01*
X60517000Y-76199000D01*
X60513000Y-76203000D01*
X60509000Y-76206000D01*
X60504000Y-76209000D01*
X60500000Y-76212000D01*
X60495000Y-76214000D01*
X60491000Y-76216000D01*
X60486000Y-76218000D01*
X60481000Y-76220000D01*
X60476000Y-76222000D01*
X60471000Y-76223000D01*
X60466000Y-76224000D01*
X60460000Y-76224000D01*
X60455000Y-76225000D01*
X60450000Y-76225000D01*
G37*
X60450000Y-76225000D02*
X60250000Y-76225000D01*
X60245000Y-76225000D01*
X60240000Y-76224000D01*
X60234000Y-76224000D01*
X60229000Y-76223000D01*
X60224000Y-76222000D01*
X60219000Y-76220000D01*
X60214000Y-76218000D01*
X60209000Y-76216000D01*
X60205000Y-76214000D01*
X60200000Y-76212000D01*
X60196000Y-76209000D01*
X60191000Y-76206000D01*
X60187000Y-76203000D01*
X60183000Y-76199000D01*
X60179000Y-76196000D01*
X60176000Y-76192000D01*
X60172000Y-76188000D01*
X60169000Y-76184000D01*
X60166000Y-76179000D01*
X60163000Y-76175000D01*
X60161000Y-76170000D01*
X60159000Y-76166000D01*
X60157000Y-76161000D01*
X60155000Y-76156000D01*
X60153000Y-76151000D01*
X60152000Y-76146000D01*
X60151000Y-76141000D01*
X60151000Y-76135000D01*
X60150000Y-76130000D01*
X60150000Y-76125000D01*
X60150000Y-75575000D01*
X60150000Y-75570000D01*
X60151000Y-75565000D01*
X60151000Y-75559000D01*
X60152000Y-75554000D01*
X60153000Y-75549000D01*
X60155000Y-75544000D01*
X60157000Y-75539000D01*
X60159000Y-75534000D01*
X60161000Y-75530000D01*
X60163000Y-75525000D01*
X60166000Y-75521000D01*
X60169000Y-75516000D01*
X60172000Y-75512000D01*
X60176000Y-75508000D01*
X60179000Y-75504000D01*
X60183000Y-75501000D01*
X60187000Y-75497000D01*
X60191000Y-75494000D01*
X60196000Y-75491000D01*
X60200000Y-75488000D01*
X60205000Y-75486000D01*
X60209000Y-75484000D01*
X60214000Y-75482000D01*
X60219000Y-75480000D01*
X60224000Y-75478000D01*
X60229000Y-75477000D01*
X60234000Y-75476000D01*
X60240000Y-75476000D01*
X60245000Y-75475000D01*
X60250000Y-75475000D01*
X60450000Y-75475000D01*
X60455000Y-75475000D01*
X60460000Y-75476000D01*
X60466000Y-75476000D01*
X60471000Y-75477000D01*
X60476000Y-75478000D01*
X60481000Y-75480000D01*
X60486000Y-75482000D01*
X60491000Y-75484000D01*
X60495000Y-75486000D01*
X60500000Y-75488000D01*
X60504000Y-75491000D01*
X60509000Y-75494000D01*
X60513000Y-75497000D01*
X60517000Y-75501000D01*
X60521000Y-75504000D01*
X60524000Y-75508000D01*
X60528000Y-75512000D01*
X60531000Y-75516000D01*
X60534000Y-75521000D01*
X60537000Y-75525000D01*
X60539000Y-75530000D01*
X60541000Y-75534000D01*
X60543000Y-75539000D01*
X60545000Y-75544000D01*
X60547000Y-75549000D01*
X60548000Y-75554000D01*
X60549000Y-75559000D01*
X60549000Y-75565000D01*
X60550000Y-75570000D01*
X60550000Y-75575000D01*
X60550000Y-76125000D01*
X60550000Y-76130000D01*
X60549000Y-76135000D01*
X60549000Y-76141000D01*
X60548000Y-76146000D01*
X60547000Y-76151000D01*
X60545000Y-76156000D01*
X60543000Y-76161000D01*
X60541000Y-76166000D01*
X60539000Y-76170000D01*
X60537000Y-76175000D01*
X60534000Y-76179000D01*
X60531000Y-76184000D01*
X60528000Y-76188000D01*
X60524000Y-76192000D01*
X60521000Y-76196000D01*
X60517000Y-76199000D01*
X60513000Y-76203000D01*
X60509000Y-76206000D01*
X60504000Y-76209000D01*
X60500000Y-76212000D01*
X60495000Y-76214000D01*
X60491000Y-76216000D01*
X60486000Y-76218000D01*
X60481000Y-76220000D01*
X60476000Y-76222000D01*
X60471000Y-76223000D01*
X60466000Y-76224000D01*
X60460000Y-76224000D01*
X60455000Y-76225000D01*
X60450000Y-76225000D01*
G36*
X60450000Y-69725000D02*
G01*
X60250000Y-69725000D01*
X60245000Y-69725000D01*
X60240000Y-69724000D01*
X60234000Y-69724000D01*
X60229000Y-69723000D01*
X60224000Y-69722000D01*
X60219000Y-69720000D01*
X60214000Y-69718000D01*
X60209000Y-69716000D01*
X60205000Y-69714000D01*
X60200000Y-69712000D01*
X60196000Y-69709000D01*
X60191000Y-69706000D01*
X60187000Y-69703000D01*
X60183000Y-69699000D01*
X60179000Y-69696000D01*
X60176000Y-69692000D01*
X60172000Y-69688000D01*
X60169000Y-69684000D01*
X60166000Y-69679000D01*
X60163000Y-69675000D01*
X60161000Y-69670000D01*
X60159000Y-69666000D01*
X60157000Y-69661000D01*
X60155000Y-69656000D01*
X60153000Y-69651000D01*
X60152000Y-69646000D01*
X60151000Y-69641000D01*
X60151000Y-69635000D01*
X60150000Y-69630000D01*
X60150000Y-69625000D01*
X60150000Y-69075000D01*
X60150000Y-69070000D01*
X60151000Y-69065000D01*
X60151000Y-69059000D01*
X60152000Y-69054000D01*
X60153000Y-69049000D01*
X60155000Y-69044000D01*
X60157000Y-69039000D01*
X60159000Y-69034000D01*
X60161000Y-69030000D01*
X60163000Y-69025000D01*
X60166000Y-69021000D01*
X60169000Y-69016000D01*
X60172000Y-69012000D01*
X60176000Y-69008000D01*
X60179000Y-69004000D01*
X60183000Y-69001000D01*
X60187000Y-68997000D01*
X60191000Y-68994000D01*
X60196000Y-68991000D01*
X60200000Y-68988000D01*
X60205000Y-68986000D01*
X60209000Y-68984000D01*
X60214000Y-68982000D01*
X60219000Y-68980000D01*
X60224000Y-68978000D01*
X60229000Y-68977000D01*
X60234000Y-68976000D01*
X60240000Y-68976000D01*
X60245000Y-68975000D01*
X60250000Y-68975000D01*
X60450000Y-68975000D01*
X60455000Y-68975000D01*
X60460000Y-68976000D01*
X60466000Y-68976000D01*
X60471000Y-68977000D01*
X60476000Y-68978000D01*
X60481000Y-68980000D01*
X60486000Y-68982000D01*
X60491000Y-68984000D01*
X60495000Y-68986000D01*
X60500000Y-68988000D01*
X60504000Y-68991000D01*
X60509000Y-68994000D01*
X60513000Y-68997000D01*
X60517000Y-69001000D01*
X60521000Y-69004000D01*
X60524000Y-69008000D01*
X60528000Y-69012000D01*
X60531000Y-69016000D01*
X60534000Y-69021000D01*
X60537000Y-69025000D01*
X60539000Y-69030000D01*
X60541000Y-69034000D01*
X60543000Y-69039000D01*
X60545000Y-69044000D01*
X60547000Y-69049000D01*
X60548000Y-69054000D01*
X60549000Y-69059000D01*
X60549000Y-69065000D01*
X60550000Y-69070000D01*
X60550000Y-69075000D01*
X60550000Y-69625000D01*
X60550000Y-69630000D01*
X60549000Y-69635000D01*
X60549000Y-69641000D01*
X60548000Y-69646000D01*
X60547000Y-69651000D01*
X60545000Y-69656000D01*
X60543000Y-69661000D01*
X60541000Y-69666000D01*
X60539000Y-69670000D01*
X60537000Y-69675000D01*
X60534000Y-69679000D01*
X60531000Y-69684000D01*
X60528000Y-69688000D01*
X60524000Y-69692000D01*
X60521000Y-69696000D01*
X60517000Y-69699000D01*
X60513000Y-69703000D01*
X60509000Y-69706000D01*
X60504000Y-69709000D01*
X60500000Y-69712000D01*
X60495000Y-69714000D01*
X60491000Y-69716000D01*
X60486000Y-69718000D01*
X60481000Y-69720000D01*
X60476000Y-69722000D01*
X60471000Y-69723000D01*
X60466000Y-69724000D01*
X60460000Y-69724000D01*
X60455000Y-69725000D01*
X60450000Y-69725000D01*
G37*
X60450000Y-69725000D02*
X60250000Y-69725000D01*
X60245000Y-69725000D01*
X60240000Y-69724000D01*
X60234000Y-69724000D01*
X60229000Y-69723000D01*
X60224000Y-69722000D01*
X60219000Y-69720000D01*
X60214000Y-69718000D01*
X60209000Y-69716000D01*
X60205000Y-69714000D01*
X60200000Y-69712000D01*
X60196000Y-69709000D01*
X60191000Y-69706000D01*
X60187000Y-69703000D01*
X60183000Y-69699000D01*
X60179000Y-69696000D01*
X60176000Y-69692000D01*
X60172000Y-69688000D01*
X60169000Y-69684000D01*
X60166000Y-69679000D01*
X60163000Y-69675000D01*
X60161000Y-69670000D01*
X60159000Y-69666000D01*
X60157000Y-69661000D01*
X60155000Y-69656000D01*
X60153000Y-69651000D01*
X60152000Y-69646000D01*
X60151000Y-69641000D01*
X60151000Y-69635000D01*
X60150000Y-69630000D01*
X60150000Y-69625000D01*
X60150000Y-69075000D01*
X60150000Y-69070000D01*
X60151000Y-69065000D01*
X60151000Y-69059000D01*
X60152000Y-69054000D01*
X60153000Y-69049000D01*
X60155000Y-69044000D01*
X60157000Y-69039000D01*
X60159000Y-69034000D01*
X60161000Y-69030000D01*
X60163000Y-69025000D01*
X60166000Y-69021000D01*
X60169000Y-69016000D01*
X60172000Y-69012000D01*
X60176000Y-69008000D01*
X60179000Y-69004000D01*
X60183000Y-69001000D01*
X60187000Y-68997000D01*
X60191000Y-68994000D01*
X60196000Y-68991000D01*
X60200000Y-68988000D01*
X60205000Y-68986000D01*
X60209000Y-68984000D01*
X60214000Y-68982000D01*
X60219000Y-68980000D01*
X60224000Y-68978000D01*
X60229000Y-68977000D01*
X60234000Y-68976000D01*
X60240000Y-68976000D01*
X60245000Y-68975000D01*
X60250000Y-68975000D01*
X60450000Y-68975000D01*
X60455000Y-68975000D01*
X60460000Y-68976000D01*
X60466000Y-68976000D01*
X60471000Y-68977000D01*
X60476000Y-68978000D01*
X60481000Y-68980000D01*
X60486000Y-68982000D01*
X60491000Y-68984000D01*
X60495000Y-68986000D01*
X60500000Y-68988000D01*
X60504000Y-68991000D01*
X60509000Y-68994000D01*
X60513000Y-68997000D01*
X60517000Y-69001000D01*
X60521000Y-69004000D01*
X60524000Y-69008000D01*
X60528000Y-69012000D01*
X60531000Y-69016000D01*
X60534000Y-69021000D01*
X60537000Y-69025000D01*
X60539000Y-69030000D01*
X60541000Y-69034000D01*
X60543000Y-69039000D01*
X60545000Y-69044000D01*
X60547000Y-69049000D01*
X60548000Y-69054000D01*
X60549000Y-69059000D01*
X60549000Y-69065000D01*
X60550000Y-69070000D01*
X60550000Y-69075000D01*
X60550000Y-69625000D01*
X60550000Y-69630000D01*
X60549000Y-69635000D01*
X60549000Y-69641000D01*
X60548000Y-69646000D01*
X60547000Y-69651000D01*
X60545000Y-69656000D01*
X60543000Y-69661000D01*
X60541000Y-69666000D01*
X60539000Y-69670000D01*
X60537000Y-69675000D01*
X60534000Y-69679000D01*
X60531000Y-69684000D01*
X60528000Y-69688000D01*
X60524000Y-69692000D01*
X60521000Y-69696000D01*
X60517000Y-69699000D01*
X60513000Y-69703000D01*
X60509000Y-69706000D01*
X60504000Y-69709000D01*
X60500000Y-69712000D01*
X60495000Y-69714000D01*
X60491000Y-69716000D01*
X60486000Y-69718000D01*
X60481000Y-69720000D01*
X60476000Y-69722000D01*
X60471000Y-69723000D01*
X60466000Y-69724000D01*
X60460000Y-69724000D01*
X60455000Y-69725000D01*
X60450000Y-69725000D01*
G36*
X53875000Y-75200000D02*
G01*
X53875000Y-75400000D01*
X53875000Y-75405000D01*
X53874000Y-75410000D01*
X53874000Y-75416000D01*
X53873000Y-75421000D01*
X53872000Y-75426000D01*
X53870000Y-75431000D01*
X53868000Y-75436000D01*
X53866000Y-75441000D01*
X53864000Y-75445000D01*
X53862000Y-75450000D01*
X53859000Y-75454000D01*
X53856000Y-75459000D01*
X53853000Y-75463000D01*
X53849000Y-75467000D01*
X53846000Y-75471000D01*
X53842000Y-75474000D01*
X53838000Y-75478000D01*
X53834000Y-75481000D01*
X53829000Y-75484000D01*
X53825000Y-75487000D01*
X53820000Y-75489000D01*
X53816000Y-75491000D01*
X53811000Y-75493000D01*
X53806000Y-75495000D01*
X53801000Y-75497000D01*
X53796000Y-75498000D01*
X53791000Y-75499000D01*
X53785000Y-75499000D01*
X53780000Y-75500000D01*
X53775000Y-75500000D01*
X53225000Y-75500000D01*
X53220000Y-75500000D01*
X53215000Y-75499000D01*
X53209000Y-75499000D01*
X53204000Y-75498000D01*
X53199000Y-75497000D01*
X53194000Y-75495000D01*
X53189000Y-75493000D01*
X53184000Y-75491000D01*
X53180000Y-75489000D01*
X53175000Y-75487000D01*
X53171000Y-75484000D01*
X53166000Y-75481000D01*
X53162000Y-75478000D01*
X53158000Y-75474000D01*
X53154000Y-75471000D01*
X53151000Y-75467000D01*
X53147000Y-75463000D01*
X53144000Y-75459000D01*
X53141000Y-75454000D01*
X53138000Y-75450000D01*
X53136000Y-75445000D01*
X53134000Y-75441000D01*
X53132000Y-75436000D01*
X53130000Y-75431000D01*
X53128000Y-75426000D01*
X53127000Y-75421000D01*
X53126000Y-75416000D01*
X53126000Y-75410000D01*
X53125000Y-75405000D01*
X53125000Y-75400000D01*
X53125000Y-75200000D01*
X53125000Y-75195000D01*
X53126000Y-75190000D01*
X53126000Y-75184000D01*
X53127000Y-75179000D01*
X53128000Y-75174000D01*
X53130000Y-75169000D01*
X53132000Y-75164000D01*
X53134000Y-75159000D01*
X53136000Y-75155000D01*
X53138000Y-75150000D01*
X53141000Y-75146000D01*
X53144000Y-75141000D01*
X53147000Y-75137000D01*
X53151000Y-75133000D01*
X53154000Y-75129000D01*
X53158000Y-75126000D01*
X53162000Y-75122000D01*
X53166000Y-75119000D01*
X53171000Y-75116000D01*
X53175000Y-75113000D01*
X53180000Y-75111000D01*
X53184000Y-75109000D01*
X53189000Y-75107000D01*
X53194000Y-75105000D01*
X53199000Y-75103000D01*
X53204000Y-75102000D01*
X53209000Y-75101000D01*
X53215000Y-75101000D01*
X53220000Y-75100000D01*
X53225000Y-75100000D01*
X53775000Y-75100000D01*
X53780000Y-75100000D01*
X53785000Y-75101000D01*
X53791000Y-75101000D01*
X53796000Y-75102000D01*
X53801000Y-75103000D01*
X53806000Y-75105000D01*
X53811000Y-75107000D01*
X53816000Y-75109000D01*
X53820000Y-75111000D01*
X53825000Y-75113000D01*
X53829000Y-75116000D01*
X53834000Y-75119000D01*
X53838000Y-75122000D01*
X53842000Y-75126000D01*
X53846000Y-75129000D01*
X53849000Y-75133000D01*
X53853000Y-75137000D01*
X53856000Y-75141000D01*
X53859000Y-75146000D01*
X53862000Y-75150000D01*
X53864000Y-75155000D01*
X53866000Y-75159000D01*
X53868000Y-75164000D01*
X53870000Y-75169000D01*
X53872000Y-75174000D01*
X53873000Y-75179000D01*
X53874000Y-75184000D01*
X53874000Y-75190000D01*
X53875000Y-75195000D01*
X53875000Y-75200000D01*
G37*
X53875000Y-75200000D02*
X53875000Y-75400000D01*
X53875000Y-75405000D01*
X53874000Y-75410000D01*
X53874000Y-75416000D01*
X53873000Y-75421000D01*
X53872000Y-75426000D01*
X53870000Y-75431000D01*
X53868000Y-75436000D01*
X53866000Y-75441000D01*
X53864000Y-75445000D01*
X53862000Y-75450000D01*
X53859000Y-75454000D01*
X53856000Y-75459000D01*
X53853000Y-75463000D01*
X53849000Y-75467000D01*
X53846000Y-75471000D01*
X53842000Y-75474000D01*
X53838000Y-75478000D01*
X53834000Y-75481000D01*
X53829000Y-75484000D01*
X53825000Y-75487000D01*
X53820000Y-75489000D01*
X53816000Y-75491000D01*
X53811000Y-75493000D01*
X53806000Y-75495000D01*
X53801000Y-75497000D01*
X53796000Y-75498000D01*
X53791000Y-75499000D01*
X53785000Y-75499000D01*
X53780000Y-75500000D01*
X53775000Y-75500000D01*
X53225000Y-75500000D01*
X53220000Y-75500000D01*
X53215000Y-75499000D01*
X53209000Y-75499000D01*
X53204000Y-75498000D01*
X53199000Y-75497000D01*
X53194000Y-75495000D01*
X53189000Y-75493000D01*
X53184000Y-75491000D01*
X53180000Y-75489000D01*
X53175000Y-75487000D01*
X53171000Y-75484000D01*
X53166000Y-75481000D01*
X53162000Y-75478000D01*
X53158000Y-75474000D01*
X53154000Y-75471000D01*
X53151000Y-75467000D01*
X53147000Y-75463000D01*
X53144000Y-75459000D01*
X53141000Y-75454000D01*
X53138000Y-75450000D01*
X53136000Y-75445000D01*
X53134000Y-75441000D01*
X53132000Y-75436000D01*
X53130000Y-75431000D01*
X53128000Y-75426000D01*
X53127000Y-75421000D01*
X53126000Y-75416000D01*
X53126000Y-75410000D01*
X53125000Y-75405000D01*
X53125000Y-75400000D01*
X53125000Y-75200000D01*
X53125000Y-75195000D01*
X53126000Y-75190000D01*
X53126000Y-75184000D01*
X53127000Y-75179000D01*
X53128000Y-75174000D01*
X53130000Y-75169000D01*
X53132000Y-75164000D01*
X53134000Y-75159000D01*
X53136000Y-75155000D01*
X53138000Y-75150000D01*
X53141000Y-75146000D01*
X53144000Y-75141000D01*
X53147000Y-75137000D01*
X53151000Y-75133000D01*
X53154000Y-75129000D01*
X53158000Y-75126000D01*
X53162000Y-75122000D01*
X53166000Y-75119000D01*
X53171000Y-75116000D01*
X53175000Y-75113000D01*
X53180000Y-75111000D01*
X53184000Y-75109000D01*
X53189000Y-75107000D01*
X53194000Y-75105000D01*
X53199000Y-75103000D01*
X53204000Y-75102000D01*
X53209000Y-75101000D01*
X53215000Y-75101000D01*
X53220000Y-75100000D01*
X53225000Y-75100000D01*
X53775000Y-75100000D01*
X53780000Y-75100000D01*
X53785000Y-75101000D01*
X53791000Y-75101000D01*
X53796000Y-75102000D01*
X53801000Y-75103000D01*
X53806000Y-75105000D01*
X53811000Y-75107000D01*
X53816000Y-75109000D01*
X53820000Y-75111000D01*
X53825000Y-75113000D01*
X53829000Y-75116000D01*
X53834000Y-75119000D01*
X53838000Y-75122000D01*
X53842000Y-75126000D01*
X53846000Y-75129000D01*
X53849000Y-75133000D01*
X53853000Y-75137000D01*
X53856000Y-75141000D01*
X53859000Y-75146000D01*
X53862000Y-75150000D01*
X53864000Y-75155000D01*
X53866000Y-75159000D01*
X53868000Y-75164000D01*
X53870000Y-75169000D01*
X53872000Y-75174000D01*
X53873000Y-75179000D01*
X53874000Y-75184000D01*
X53874000Y-75190000D01*
X53875000Y-75195000D01*
X53875000Y-75200000D01*
G36*
X53875000Y-69800000D02*
G01*
X53875000Y-70000000D01*
X53875000Y-70005000D01*
X53874000Y-70010000D01*
X53874000Y-70016000D01*
X53873000Y-70021000D01*
X53872000Y-70026000D01*
X53870000Y-70031000D01*
X53868000Y-70036000D01*
X53866000Y-70041000D01*
X53864000Y-70045000D01*
X53862000Y-70050000D01*
X53859000Y-70054000D01*
X53856000Y-70059000D01*
X53853000Y-70063000D01*
X53849000Y-70067000D01*
X53846000Y-70071000D01*
X53842000Y-70074000D01*
X53838000Y-70078000D01*
X53834000Y-70081000D01*
X53829000Y-70084000D01*
X53825000Y-70087000D01*
X53820000Y-70089000D01*
X53816000Y-70091000D01*
X53811000Y-70093000D01*
X53806000Y-70095000D01*
X53801000Y-70097000D01*
X53796000Y-70098000D01*
X53791000Y-70099000D01*
X53785000Y-70099000D01*
X53780000Y-70100000D01*
X53775000Y-70100000D01*
X53225000Y-70100000D01*
X53220000Y-70100000D01*
X53215000Y-70099000D01*
X53209000Y-70099000D01*
X53204000Y-70098000D01*
X53199000Y-70097000D01*
X53194000Y-70095000D01*
X53189000Y-70093000D01*
X53184000Y-70091000D01*
X53180000Y-70089000D01*
X53175000Y-70087000D01*
X53171000Y-70084000D01*
X53166000Y-70081000D01*
X53162000Y-70078000D01*
X53158000Y-70074000D01*
X53154000Y-70071000D01*
X53151000Y-70067000D01*
X53147000Y-70063000D01*
X53144000Y-70059000D01*
X53141000Y-70054000D01*
X53138000Y-70050000D01*
X53136000Y-70045000D01*
X53134000Y-70041000D01*
X53132000Y-70036000D01*
X53130000Y-70031000D01*
X53128000Y-70026000D01*
X53127000Y-70021000D01*
X53126000Y-70016000D01*
X53126000Y-70010000D01*
X53125000Y-70005000D01*
X53125000Y-70000000D01*
X53125000Y-69800000D01*
X53125000Y-69795000D01*
X53126000Y-69790000D01*
X53126000Y-69784000D01*
X53127000Y-69779000D01*
X53128000Y-69774000D01*
X53130000Y-69769000D01*
X53132000Y-69764000D01*
X53134000Y-69759000D01*
X53136000Y-69755000D01*
X53138000Y-69750000D01*
X53141000Y-69746000D01*
X53144000Y-69741000D01*
X53147000Y-69737000D01*
X53151000Y-69733000D01*
X53154000Y-69729000D01*
X53158000Y-69726000D01*
X53162000Y-69722000D01*
X53166000Y-69719000D01*
X53171000Y-69716000D01*
X53175000Y-69713000D01*
X53180000Y-69711000D01*
X53184000Y-69709000D01*
X53189000Y-69707000D01*
X53194000Y-69705000D01*
X53199000Y-69703000D01*
X53204000Y-69702000D01*
X53209000Y-69701000D01*
X53215000Y-69701000D01*
X53220000Y-69700000D01*
X53225000Y-69700000D01*
X53775000Y-69700000D01*
X53780000Y-69700000D01*
X53785000Y-69701000D01*
X53791000Y-69701000D01*
X53796000Y-69702000D01*
X53801000Y-69703000D01*
X53806000Y-69705000D01*
X53811000Y-69707000D01*
X53816000Y-69709000D01*
X53820000Y-69711000D01*
X53825000Y-69713000D01*
X53829000Y-69716000D01*
X53834000Y-69719000D01*
X53838000Y-69722000D01*
X53842000Y-69726000D01*
X53846000Y-69729000D01*
X53849000Y-69733000D01*
X53853000Y-69737000D01*
X53856000Y-69741000D01*
X53859000Y-69746000D01*
X53862000Y-69750000D01*
X53864000Y-69755000D01*
X53866000Y-69759000D01*
X53868000Y-69764000D01*
X53870000Y-69769000D01*
X53872000Y-69774000D01*
X53873000Y-69779000D01*
X53874000Y-69784000D01*
X53874000Y-69790000D01*
X53875000Y-69795000D01*
X53875000Y-69800000D01*
G37*
X53875000Y-69800000D02*
X53875000Y-70000000D01*
X53875000Y-70005000D01*
X53874000Y-70010000D01*
X53874000Y-70016000D01*
X53873000Y-70021000D01*
X53872000Y-70026000D01*
X53870000Y-70031000D01*
X53868000Y-70036000D01*
X53866000Y-70041000D01*
X53864000Y-70045000D01*
X53862000Y-70050000D01*
X53859000Y-70054000D01*
X53856000Y-70059000D01*
X53853000Y-70063000D01*
X53849000Y-70067000D01*
X53846000Y-70071000D01*
X53842000Y-70074000D01*
X53838000Y-70078000D01*
X53834000Y-70081000D01*
X53829000Y-70084000D01*
X53825000Y-70087000D01*
X53820000Y-70089000D01*
X53816000Y-70091000D01*
X53811000Y-70093000D01*
X53806000Y-70095000D01*
X53801000Y-70097000D01*
X53796000Y-70098000D01*
X53791000Y-70099000D01*
X53785000Y-70099000D01*
X53780000Y-70100000D01*
X53775000Y-70100000D01*
X53225000Y-70100000D01*
X53220000Y-70100000D01*
X53215000Y-70099000D01*
X53209000Y-70099000D01*
X53204000Y-70098000D01*
X53199000Y-70097000D01*
X53194000Y-70095000D01*
X53189000Y-70093000D01*
X53184000Y-70091000D01*
X53180000Y-70089000D01*
X53175000Y-70087000D01*
X53171000Y-70084000D01*
X53166000Y-70081000D01*
X53162000Y-70078000D01*
X53158000Y-70074000D01*
X53154000Y-70071000D01*
X53151000Y-70067000D01*
X53147000Y-70063000D01*
X53144000Y-70059000D01*
X53141000Y-70054000D01*
X53138000Y-70050000D01*
X53136000Y-70045000D01*
X53134000Y-70041000D01*
X53132000Y-70036000D01*
X53130000Y-70031000D01*
X53128000Y-70026000D01*
X53127000Y-70021000D01*
X53126000Y-70016000D01*
X53126000Y-70010000D01*
X53125000Y-70005000D01*
X53125000Y-70000000D01*
X53125000Y-69800000D01*
X53125000Y-69795000D01*
X53126000Y-69790000D01*
X53126000Y-69784000D01*
X53127000Y-69779000D01*
X53128000Y-69774000D01*
X53130000Y-69769000D01*
X53132000Y-69764000D01*
X53134000Y-69759000D01*
X53136000Y-69755000D01*
X53138000Y-69750000D01*
X53141000Y-69746000D01*
X53144000Y-69741000D01*
X53147000Y-69737000D01*
X53151000Y-69733000D01*
X53154000Y-69729000D01*
X53158000Y-69726000D01*
X53162000Y-69722000D01*
X53166000Y-69719000D01*
X53171000Y-69716000D01*
X53175000Y-69713000D01*
X53180000Y-69711000D01*
X53184000Y-69709000D01*
X53189000Y-69707000D01*
X53194000Y-69705000D01*
X53199000Y-69703000D01*
X53204000Y-69702000D01*
X53209000Y-69701000D01*
X53215000Y-69701000D01*
X53220000Y-69700000D01*
X53225000Y-69700000D01*
X53775000Y-69700000D01*
X53780000Y-69700000D01*
X53785000Y-69701000D01*
X53791000Y-69701000D01*
X53796000Y-69702000D01*
X53801000Y-69703000D01*
X53806000Y-69705000D01*
X53811000Y-69707000D01*
X53816000Y-69709000D01*
X53820000Y-69711000D01*
X53825000Y-69713000D01*
X53829000Y-69716000D01*
X53834000Y-69719000D01*
X53838000Y-69722000D01*
X53842000Y-69726000D01*
X53846000Y-69729000D01*
X53849000Y-69733000D01*
X53853000Y-69737000D01*
X53856000Y-69741000D01*
X53859000Y-69746000D01*
X53862000Y-69750000D01*
X53864000Y-69755000D01*
X53866000Y-69759000D01*
X53868000Y-69764000D01*
X53870000Y-69769000D01*
X53872000Y-69774000D01*
X53873000Y-69779000D01*
X53874000Y-69784000D01*
X53874000Y-69790000D01*
X53875000Y-69795000D01*
X53875000Y-69800000D01*
G36*
X61275000Y-75200000D02*
G01*
X61275000Y-75400000D01*
X61275000Y-75405000D01*
X61274000Y-75410000D01*
X61274000Y-75416000D01*
X61273000Y-75421000D01*
X61272000Y-75426000D01*
X61270000Y-75431000D01*
X61268000Y-75436000D01*
X61266000Y-75441000D01*
X61264000Y-75445000D01*
X61262000Y-75450000D01*
X61259000Y-75454000D01*
X61256000Y-75459000D01*
X61253000Y-75463000D01*
X61249000Y-75467000D01*
X61246000Y-75471000D01*
X61242000Y-75474000D01*
X61238000Y-75478000D01*
X61234000Y-75481000D01*
X61229000Y-75484000D01*
X61225000Y-75487000D01*
X61220000Y-75489000D01*
X61216000Y-75491000D01*
X61211000Y-75493000D01*
X61206000Y-75495000D01*
X61201000Y-75497000D01*
X61196000Y-75498000D01*
X61191000Y-75499000D01*
X61185000Y-75499000D01*
X61180000Y-75500000D01*
X61175000Y-75500000D01*
X60625000Y-75500000D01*
X60620000Y-75500000D01*
X60615000Y-75499000D01*
X60609000Y-75499000D01*
X60604000Y-75498000D01*
X60599000Y-75497000D01*
X60594000Y-75495000D01*
X60589000Y-75493000D01*
X60584000Y-75491000D01*
X60580000Y-75489000D01*
X60575000Y-75487000D01*
X60571000Y-75484000D01*
X60566000Y-75481000D01*
X60562000Y-75478000D01*
X60558000Y-75474000D01*
X60554000Y-75471000D01*
X60551000Y-75467000D01*
X60547000Y-75463000D01*
X60544000Y-75459000D01*
X60541000Y-75454000D01*
X60538000Y-75450000D01*
X60536000Y-75445000D01*
X60534000Y-75441000D01*
X60532000Y-75436000D01*
X60530000Y-75431000D01*
X60528000Y-75426000D01*
X60527000Y-75421000D01*
X60526000Y-75416000D01*
X60526000Y-75410000D01*
X60525000Y-75405000D01*
X60525000Y-75400000D01*
X60525000Y-75200000D01*
X60525000Y-75195000D01*
X60526000Y-75190000D01*
X60526000Y-75184000D01*
X60527000Y-75179000D01*
X60528000Y-75174000D01*
X60530000Y-75169000D01*
X60532000Y-75164000D01*
X60534000Y-75159000D01*
X60536000Y-75155000D01*
X60538000Y-75150000D01*
X60541000Y-75146000D01*
X60544000Y-75141000D01*
X60547000Y-75137000D01*
X60551000Y-75133000D01*
X60554000Y-75129000D01*
X60558000Y-75126000D01*
X60562000Y-75122000D01*
X60566000Y-75119000D01*
X60571000Y-75116000D01*
X60575000Y-75113000D01*
X60580000Y-75111000D01*
X60584000Y-75109000D01*
X60589000Y-75107000D01*
X60594000Y-75105000D01*
X60599000Y-75103000D01*
X60604000Y-75102000D01*
X60609000Y-75101000D01*
X60615000Y-75101000D01*
X60620000Y-75100000D01*
X60625000Y-75100000D01*
X61175000Y-75100000D01*
X61180000Y-75100000D01*
X61185000Y-75101000D01*
X61191000Y-75101000D01*
X61196000Y-75102000D01*
X61201000Y-75103000D01*
X61206000Y-75105000D01*
X61211000Y-75107000D01*
X61216000Y-75109000D01*
X61220000Y-75111000D01*
X61225000Y-75113000D01*
X61229000Y-75116000D01*
X61234000Y-75119000D01*
X61238000Y-75122000D01*
X61242000Y-75126000D01*
X61246000Y-75129000D01*
X61249000Y-75133000D01*
X61253000Y-75137000D01*
X61256000Y-75141000D01*
X61259000Y-75146000D01*
X61262000Y-75150000D01*
X61264000Y-75155000D01*
X61266000Y-75159000D01*
X61268000Y-75164000D01*
X61270000Y-75169000D01*
X61272000Y-75174000D01*
X61273000Y-75179000D01*
X61274000Y-75184000D01*
X61274000Y-75190000D01*
X61275000Y-75195000D01*
X61275000Y-75200000D01*
G37*
X61275000Y-75200000D02*
X61275000Y-75400000D01*
X61275000Y-75405000D01*
X61274000Y-75410000D01*
X61274000Y-75416000D01*
X61273000Y-75421000D01*
X61272000Y-75426000D01*
X61270000Y-75431000D01*
X61268000Y-75436000D01*
X61266000Y-75441000D01*
X61264000Y-75445000D01*
X61262000Y-75450000D01*
X61259000Y-75454000D01*
X61256000Y-75459000D01*
X61253000Y-75463000D01*
X61249000Y-75467000D01*
X61246000Y-75471000D01*
X61242000Y-75474000D01*
X61238000Y-75478000D01*
X61234000Y-75481000D01*
X61229000Y-75484000D01*
X61225000Y-75487000D01*
X61220000Y-75489000D01*
X61216000Y-75491000D01*
X61211000Y-75493000D01*
X61206000Y-75495000D01*
X61201000Y-75497000D01*
X61196000Y-75498000D01*
X61191000Y-75499000D01*
X61185000Y-75499000D01*
X61180000Y-75500000D01*
X61175000Y-75500000D01*
X60625000Y-75500000D01*
X60620000Y-75500000D01*
X60615000Y-75499000D01*
X60609000Y-75499000D01*
X60604000Y-75498000D01*
X60599000Y-75497000D01*
X60594000Y-75495000D01*
X60589000Y-75493000D01*
X60584000Y-75491000D01*
X60580000Y-75489000D01*
X60575000Y-75487000D01*
X60571000Y-75484000D01*
X60566000Y-75481000D01*
X60562000Y-75478000D01*
X60558000Y-75474000D01*
X60554000Y-75471000D01*
X60551000Y-75467000D01*
X60547000Y-75463000D01*
X60544000Y-75459000D01*
X60541000Y-75454000D01*
X60538000Y-75450000D01*
X60536000Y-75445000D01*
X60534000Y-75441000D01*
X60532000Y-75436000D01*
X60530000Y-75431000D01*
X60528000Y-75426000D01*
X60527000Y-75421000D01*
X60526000Y-75416000D01*
X60526000Y-75410000D01*
X60525000Y-75405000D01*
X60525000Y-75400000D01*
X60525000Y-75200000D01*
X60525000Y-75195000D01*
X60526000Y-75190000D01*
X60526000Y-75184000D01*
X60527000Y-75179000D01*
X60528000Y-75174000D01*
X60530000Y-75169000D01*
X60532000Y-75164000D01*
X60534000Y-75159000D01*
X60536000Y-75155000D01*
X60538000Y-75150000D01*
X60541000Y-75146000D01*
X60544000Y-75141000D01*
X60547000Y-75137000D01*
X60551000Y-75133000D01*
X60554000Y-75129000D01*
X60558000Y-75126000D01*
X60562000Y-75122000D01*
X60566000Y-75119000D01*
X60571000Y-75116000D01*
X60575000Y-75113000D01*
X60580000Y-75111000D01*
X60584000Y-75109000D01*
X60589000Y-75107000D01*
X60594000Y-75105000D01*
X60599000Y-75103000D01*
X60604000Y-75102000D01*
X60609000Y-75101000D01*
X60615000Y-75101000D01*
X60620000Y-75100000D01*
X60625000Y-75100000D01*
X61175000Y-75100000D01*
X61180000Y-75100000D01*
X61185000Y-75101000D01*
X61191000Y-75101000D01*
X61196000Y-75102000D01*
X61201000Y-75103000D01*
X61206000Y-75105000D01*
X61211000Y-75107000D01*
X61216000Y-75109000D01*
X61220000Y-75111000D01*
X61225000Y-75113000D01*
X61229000Y-75116000D01*
X61234000Y-75119000D01*
X61238000Y-75122000D01*
X61242000Y-75126000D01*
X61246000Y-75129000D01*
X61249000Y-75133000D01*
X61253000Y-75137000D01*
X61256000Y-75141000D01*
X61259000Y-75146000D01*
X61262000Y-75150000D01*
X61264000Y-75155000D01*
X61266000Y-75159000D01*
X61268000Y-75164000D01*
X61270000Y-75169000D01*
X61272000Y-75174000D01*
X61273000Y-75179000D01*
X61274000Y-75184000D01*
X61274000Y-75190000D01*
X61275000Y-75195000D01*
X61275000Y-75200000D01*
G36*
X61275000Y-69800000D02*
G01*
X61275000Y-70000000D01*
X61275000Y-70005000D01*
X61274000Y-70010000D01*
X61274000Y-70016000D01*
X61273000Y-70021000D01*
X61272000Y-70026000D01*
X61270000Y-70031000D01*
X61268000Y-70036000D01*
X61266000Y-70041000D01*
X61264000Y-70045000D01*
X61262000Y-70050000D01*
X61259000Y-70054000D01*
X61256000Y-70059000D01*
X61253000Y-70063000D01*
X61249000Y-70067000D01*
X61246000Y-70071000D01*
X61242000Y-70074000D01*
X61238000Y-70078000D01*
X61234000Y-70081000D01*
X61229000Y-70084000D01*
X61225000Y-70087000D01*
X61220000Y-70089000D01*
X61216000Y-70091000D01*
X61211000Y-70093000D01*
X61206000Y-70095000D01*
X61201000Y-70097000D01*
X61196000Y-70098000D01*
X61191000Y-70099000D01*
X61185000Y-70099000D01*
X61180000Y-70100000D01*
X61175000Y-70100000D01*
X60625000Y-70100000D01*
X60620000Y-70100000D01*
X60615000Y-70099000D01*
X60609000Y-70099000D01*
X60604000Y-70098000D01*
X60599000Y-70097000D01*
X60594000Y-70095000D01*
X60589000Y-70093000D01*
X60584000Y-70091000D01*
X60580000Y-70089000D01*
X60575000Y-70087000D01*
X60571000Y-70084000D01*
X60566000Y-70081000D01*
X60562000Y-70078000D01*
X60558000Y-70074000D01*
X60554000Y-70071000D01*
X60551000Y-70067000D01*
X60547000Y-70063000D01*
X60544000Y-70059000D01*
X60541000Y-70054000D01*
X60538000Y-70050000D01*
X60536000Y-70045000D01*
X60534000Y-70041000D01*
X60532000Y-70036000D01*
X60530000Y-70031000D01*
X60528000Y-70026000D01*
X60527000Y-70021000D01*
X60526000Y-70016000D01*
X60526000Y-70010000D01*
X60525000Y-70005000D01*
X60525000Y-70000000D01*
X60525000Y-69800000D01*
X60525000Y-69795000D01*
X60526000Y-69790000D01*
X60526000Y-69784000D01*
X60527000Y-69779000D01*
X60528000Y-69774000D01*
X60530000Y-69769000D01*
X60532000Y-69764000D01*
X60534000Y-69759000D01*
X60536000Y-69755000D01*
X60538000Y-69750000D01*
X60541000Y-69746000D01*
X60544000Y-69741000D01*
X60547000Y-69737000D01*
X60551000Y-69733000D01*
X60554000Y-69729000D01*
X60558000Y-69726000D01*
X60562000Y-69722000D01*
X60566000Y-69719000D01*
X60571000Y-69716000D01*
X60575000Y-69713000D01*
X60580000Y-69711000D01*
X60584000Y-69709000D01*
X60589000Y-69707000D01*
X60594000Y-69705000D01*
X60599000Y-69703000D01*
X60604000Y-69702000D01*
X60609000Y-69701000D01*
X60615000Y-69701000D01*
X60620000Y-69700000D01*
X60625000Y-69700000D01*
X61175000Y-69700000D01*
X61180000Y-69700000D01*
X61185000Y-69701000D01*
X61191000Y-69701000D01*
X61196000Y-69702000D01*
X61201000Y-69703000D01*
X61206000Y-69705000D01*
X61211000Y-69707000D01*
X61216000Y-69709000D01*
X61220000Y-69711000D01*
X61225000Y-69713000D01*
X61229000Y-69716000D01*
X61234000Y-69719000D01*
X61238000Y-69722000D01*
X61242000Y-69726000D01*
X61246000Y-69729000D01*
X61249000Y-69733000D01*
X61253000Y-69737000D01*
X61256000Y-69741000D01*
X61259000Y-69746000D01*
X61262000Y-69750000D01*
X61264000Y-69755000D01*
X61266000Y-69759000D01*
X61268000Y-69764000D01*
X61270000Y-69769000D01*
X61272000Y-69774000D01*
X61273000Y-69779000D01*
X61274000Y-69784000D01*
X61274000Y-69790000D01*
X61275000Y-69795000D01*
X61275000Y-69800000D01*
G37*
X61275000Y-69800000D02*
X61275000Y-70000000D01*
X61275000Y-70005000D01*
X61274000Y-70010000D01*
X61274000Y-70016000D01*
X61273000Y-70021000D01*
X61272000Y-70026000D01*
X61270000Y-70031000D01*
X61268000Y-70036000D01*
X61266000Y-70041000D01*
X61264000Y-70045000D01*
X61262000Y-70050000D01*
X61259000Y-70054000D01*
X61256000Y-70059000D01*
X61253000Y-70063000D01*
X61249000Y-70067000D01*
X61246000Y-70071000D01*
X61242000Y-70074000D01*
X61238000Y-70078000D01*
X61234000Y-70081000D01*
X61229000Y-70084000D01*
X61225000Y-70087000D01*
X61220000Y-70089000D01*
X61216000Y-70091000D01*
X61211000Y-70093000D01*
X61206000Y-70095000D01*
X61201000Y-70097000D01*
X61196000Y-70098000D01*
X61191000Y-70099000D01*
X61185000Y-70099000D01*
X61180000Y-70100000D01*
X61175000Y-70100000D01*
X60625000Y-70100000D01*
X60620000Y-70100000D01*
X60615000Y-70099000D01*
X60609000Y-70099000D01*
X60604000Y-70098000D01*
X60599000Y-70097000D01*
X60594000Y-70095000D01*
X60589000Y-70093000D01*
X60584000Y-70091000D01*
X60580000Y-70089000D01*
X60575000Y-70087000D01*
X60571000Y-70084000D01*
X60566000Y-70081000D01*
X60562000Y-70078000D01*
X60558000Y-70074000D01*
X60554000Y-70071000D01*
X60551000Y-70067000D01*
X60547000Y-70063000D01*
X60544000Y-70059000D01*
X60541000Y-70054000D01*
X60538000Y-70050000D01*
X60536000Y-70045000D01*
X60534000Y-70041000D01*
X60532000Y-70036000D01*
X60530000Y-70031000D01*
X60528000Y-70026000D01*
X60527000Y-70021000D01*
X60526000Y-70016000D01*
X60526000Y-70010000D01*
X60525000Y-70005000D01*
X60525000Y-70000000D01*
X60525000Y-69800000D01*
X60525000Y-69795000D01*
X60526000Y-69790000D01*
X60526000Y-69784000D01*
X60527000Y-69779000D01*
X60528000Y-69774000D01*
X60530000Y-69769000D01*
X60532000Y-69764000D01*
X60534000Y-69759000D01*
X60536000Y-69755000D01*
X60538000Y-69750000D01*
X60541000Y-69746000D01*
X60544000Y-69741000D01*
X60547000Y-69737000D01*
X60551000Y-69733000D01*
X60554000Y-69729000D01*
X60558000Y-69726000D01*
X60562000Y-69722000D01*
X60566000Y-69719000D01*
X60571000Y-69716000D01*
X60575000Y-69713000D01*
X60580000Y-69711000D01*
X60584000Y-69709000D01*
X60589000Y-69707000D01*
X60594000Y-69705000D01*
X60599000Y-69703000D01*
X60604000Y-69702000D01*
X60609000Y-69701000D01*
X60615000Y-69701000D01*
X60620000Y-69700000D01*
X60625000Y-69700000D01*
X61175000Y-69700000D01*
X61180000Y-69700000D01*
X61185000Y-69701000D01*
X61191000Y-69701000D01*
X61196000Y-69702000D01*
X61201000Y-69703000D01*
X61206000Y-69705000D01*
X61211000Y-69707000D01*
X61216000Y-69709000D01*
X61220000Y-69711000D01*
X61225000Y-69713000D01*
X61229000Y-69716000D01*
X61234000Y-69719000D01*
X61238000Y-69722000D01*
X61242000Y-69726000D01*
X61246000Y-69729000D01*
X61249000Y-69733000D01*
X61253000Y-69737000D01*
X61256000Y-69741000D01*
X61259000Y-69746000D01*
X61262000Y-69750000D01*
X61264000Y-69755000D01*
X61266000Y-69759000D01*
X61268000Y-69764000D01*
X61270000Y-69769000D01*
X61272000Y-69774000D01*
X61273000Y-69779000D01*
X61274000Y-69784000D01*
X61274000Y-69790000D01*
X61275000Y-69795000D01*
X61275000Y-69800000D01*
G36*
X54525000Y-73475000D02*
G01*
X54525000Y-72625000D01*
X55375000Y-72625000D01*
X55375000Y-73475000D01*
X54525000Y-73475000D01*
G37*
X54525000Y-73475000D02*
X54525000Y-72625000D01*
X55375000Y-72625000D01*
X55375000Y-73475000D01*
X54525000Y-73475000D01*
G36*
X54525000Y-74375000D02*
G01*
X54525000Y-73525000D01*
X55375000Y-73525000D01*
X55375000Y-74375000D01*
X54525000Y-74375000D01*
G37*
X54525000Y-74375000D02*
X54525000Y-73525000D01*
X55375000Y-73525000D01*
X55375000Y-74375000D01*
X54525000Y-74375000D01*
G36*
X54525000Y-72575000D02*
G01*
X54525000Y-71725000D01*
X55375000Y-71725000D01*
X55375000Y-72575000D01*
X54525000Y-72575000D01*
G37*
X54525000Y-72575000D02*
X54525000Y-71725000D01*
X55375000Y-71725000D01*
X55375000Y-72575000D01*
X54525000Y-72575000D01*
G36*
X54525000Y-71675000D02*
G01*
X54525000Y-70825000D01*
X55375000Y-70825000D01*
X55375000Y-71675000D01*
X54525000Y-71675000D01*
G37*
X54525000Y-71675000D02*
X54525000Y-70825000D01*
X55375000Y-70825000D01*
X55375000Y-71675000D01*
X54525000Y-71675000D01*
G36*
X55425000Y-71675000D02*
G01*
X55425000Y-70825000D01*
X56275000Y-70825000D01*
X56275000Y-71675000D01*
X55425000Y-71675000D01*
G37*
X55425000Y-71675000D02*
X55425000Y-70825000D01*
X56275000Y-70825000D01*
X56275000Y-71675000D01*
X55425000Y-71675000D01*
G36*
X55425000Y-72575000D02*
G01*
X55425000Y-71725000D01*
X56275000Y-71725000D01*
X56275000Y-72575000D01*
X55425000Y-72575000D01*
G37*
X55425000Y-72575000D02*
X55425000Y-71725000D01*
X56275000Y-71725000D01*
X56275000Y-72575000D01*
X55425000Y-72575000D01*
G36*
X55425000Y-73475000D02*
G01*
X55425000Y-72625000D01*
X56275000Y-72625000D01*
X56275000Y-73475000D01*
X55425000Y-73475000D01*
G37*
X55425000Y-73475000D02*
X55425000Y-72625000D01*
X56275000Y-72625000D01*
X56275000Y-73475000D01*
X55425000Y-73475000D01*
G36*
X55425000Y-74375000D02*
G01*
X55425000Y-73525000D01*
X56275000Y-73525000D01*
X56275000Y-74375000D01*
X55425000Y-74375000D01*
G37*
X55425000Y-74375000D02*
X55425000Y-73525000D01*
X56275000Y-73525000D01*
X56275000Y-74375000D01*
X55425000Y-74375000D01*
G36*
X56325000Y-74375000D02*
G01*
X56325000Y-73525000D01*
X57175000Y-73525000D01*
X57175000Y-74375000D01*
X56325000Y-74375000D01*
G37*
X56325000Y-74375000D02*
X56325000Y-73525000D01*
X57175000Y-73525000D01*
X57175000Y-74375000D01*
X56325000Y-74375000D01*
G36*
X57225000Y-74375000D02*
G01*
X57225000Y-73525000D01*
X58075000Y-73525000D01*
X58075000Y-74375000D01*
X57225000Y-74375000D01*
G37*
X57225000Y-74375000D02*
X57225000Y-73525000D01*
X58075000Y-73525000D01*
X58075000Y-74375000D01*
X57225000Y-74375000D01*
G36*
X58125000Y-74375000D02*
G01*
X58125000Y-73525000D01*
X58975000Y-73525000D01*
X58975000Y-74375000D01*
X58125000Y-74375000D01*
G37*
X58125000Y-74375000D02*
X58125000Y-73525000D01*
X58975000Y-73525000D01*
X58975000Y-74375000D01*
X58125000Y-74375000D01*
G36*
X59025000Y-74375000D02*
G01*
X59025000Y-73525000D01*
X59875000Y-73525000D01*
X59875000Y-74375000D01*
X59025000Y-74375000D01*
G37*
X59025000Y-74375000D02*
X59025000Y-73525000D01*
X59875000Y-73525000D01*
X59875000Y-74375000D01*
X59025000Y-74375000D01*
G36*
X56325000Y-73475000D02*
G01*
X56325000Y-72625000D01*
X57175000Y-72625000D01*
X57175000Y-73475000D01*
X56325000Y-73475000D01*
G37*
X56325000Y-73475000D02*
X56325000Y-72625000D01*
X57175000Y-72625000D01*
X57175000Y-73475000D01*
X56325000Y-73475000D01*
G36*
X57225000Y-73475000D02*
G01*
X57225000Y-72625000D01*
X58075000Y-72625000D01*
X58075000Y-73475000D01*
X57225000Y-73475000D01*
G37*
X57225000Y-73475000D02*
X57225000Y-72625000D01*
X58075000Y-72625000D01*
X58075000Y-73475000D01*
X57225000Y-73475000D01*
G36*
X58125000Y-73475000D02*
G01*
X58125000Y-72625000D01*
X58975000Y-72625000D01*
X58975000Y-73475000D01*
X58125000Y-73475000D01*
G37*
X58125000Y-73475000D02*
X58125000Y-72625000D01*
X58975000Y-72625000D01*
X58975000Y-73475000D01*
X58125000Y-73475000D01*
G36*
X59025000Y-73475000D02*
G01*
X59025000Y-72625000D01*
X59875000Y-72625000D01*
X59875000Y-73475000D01*
X59025000Y-73475000D01*
G37*
X59025000Y-73475000D02*
X59025000Y-72625000D01*
X59875000Y-72625000D01*
X59875000Y-73475000D01*
X59025000Y-73475000D01*
G36*
X59025000Y-72575000D02*
G01*
X59025000Y-71725000D01*
X59875000Y-71725000D01*
X59875000Y-72575000D01*
X59025000Y-72575000D01*
G37*
X59025000Y-72575000D02*
X59025000Y-71725000D01*
X59875000Y-71725000D01*
X59875000Y-72575000D01*
X59025000Y-72575000D01*
G36*
X57225000Y-72575000D02*
G01*
X57225000Y-71725000D01*
X58075000Y-71725000D01*
X58075000Y-72575000D01*
X57225000Y-72575000D01*
G37*
X57225000Y-72575000D02*
X57225000Y-71725000D01*
X58075000Y-71725000D01*
X58075000Y-72575000D01*
X57225000Y-72575000D01*
G36*
X56325000Y-72575000D02*
G01*
X56325000Y-71725000D01*
X57175000Y-71725000D01*
X57175000Y-72575000D01*
X56325000Y-72575000D01*
G37*
X56325000Y-72575000D02*
X56325000Y-71725000D01*
X57175000Y-71725000D01*
X57175000Y-72575000D01*
X56325000Y-72575000D01*
G36*
X58125000Y-72575000D02*
G01*
X58125000Y-71725000D01*
X58975000Y-71725000D01*
X58975000Y-72575000D01*
X58125000Y-72575000D01*
G37*
X58125000Y-72575000D02*
X58125000Y-71725000D01*
X58975000Y-71725000D01*
X58975000Y-72575000D01*
X58125000Y-72575000D01*
G36*
X56325000Y-71675000D02*
G01*
X56325000Y-70825000D01*
X57175000Y-70825000D01*
X57175000Y-71675000D01*
X56325000Y-71675000D01*
G37*
X56325000Y-71675000D02*
X56325000Y-70825000D01*
X57175000Y-70825000D01*
X57175000Y-71675000D01*
X56325000Y-71675000D01*
G36*
X57225000Y-71675000D02*
G01*
X57225000Y-70825000D01*
X58075000Y-70825000D01*
X58075000Y-71675000D01*
X57225000Y-71675000D01*
G37*
X57225000Y-71675000D02*
X57225000Y-70825000D01*
X58075000Y-70825000D01*
X58075000Y-71675000D01*
X57225000Y-71675000D01*
G36*
X58125000Y-71675000D02*
G01*
X58125000Y-70825000D01*
X58975000Y-70825000D01*
X58975000Y-71675000D01*
X58125000Y-71675000D01*
G37*
X58125000Y-71675000D02*
X58125000Y-70825000D01*
X58975000Y-70825000D01*
X58975000Y-71675000D01*
X58125000Y-71675000D01*
G36*
X59025000Y-71675000D02*
G01*
X59025000Y-70825000D01*
X59875000Y-70825000D01*
X59875000Y-71675000D01*
X59025000Y-71675000D01*
G37*
X59025000Y-71675000D02*
X59025000Y-70825000D01*
X59875000Y-70825000D01*
X59875000Y-71675000D01*
X59025000Y-71675000D01*
%TO.C,U7*%
G36*
X56695000Y-55700000D02*
G01*
X56695000Y-55850000D01*
X56695000Y-55856000D01*
X56694000Y-55863000D01*
X56694000Y-55869000D01*
X56692000Y-55875000D01*
X56691000Y-55881000D01*
X56689000Y-55887000D01*
X56687000Y-55893000D01*
X56685000Y-55899000D01*
X56682000Y-55904000D01*
X56679000Y-55910000D01*
X56676000Y-55915000D01*
X56672000Y-55921000D01*
X56668000Y-55926000D01*
X56664000Y-55930000D01*
X56660000Y-55935000D01*
X56655000Y-55939000D01*
X56651000Y-55943000D01*
X56646000Y-55947000D01*
X56640000Y-55951000D01*
X56635000Y-55954000D01*
X56629000Y-55957000D01*
X56624000Y-55960000D01*
X56618000Y-55962000D01*
X56612000Y-55964000D01*
X56606000Y-55966000D01*
X56600000Y-55967000D01*
X56594000Y-55969000D01*
X56588000Y-55969000D01*
X56581000Y-55970000D01*
X56575000Y-55970000D01*
X56075000Y-55970000D01*
X56069000Y-55970000D01*
X56062000Y-55969000D01*
X56056000Y-55969000D01*
X56050000Y-55967000D01*
X56044000Y-55966000D01*
X56038000Y-55964000D01*
X56032000Y-55962000D01*
X56026000Y-55960000D01*
X56021000Y-55957000D01*
X56015000Y-55954000D01*
X56010000Y-55951000D01*
X56004000Y-55947000D01*
X55999000Y-55943000D01*
X55995000Y-55939000D01*
X55990000Y-55935000D01*
X55986000Y-55930000D01*
X55982000Y-55926000D01*
X55978000Y-55921000D01*
X55974000Y-55915000D01*
X55971000Y-55910000D01*
X55968000Y-55904000D01*
X55965000Y-55899000D01*
X55963000Y-55893000D01*
X55961000Y-55887000D01*
X55959000Y-55881000D01*
X55958000Y-55875000D01*
X55956000Y-55869000D01*
X55956000Y-55863000D01*
X55955000Y-55856000D01*
X55955000Y-55850000D01*
X55955000Y-55700000D01*
X55955000Y-55694000D01*
X55956000Y-55687000D01*
X55956000Y-55681000D01*
X55958000Y-55675000D01*
X55959000Y-55669000D01*
X55961000Y-55663000D01*
X55963000Y-55657000D01*
X55965000Y-55651000D01*
X55968000Y-55646000D01*
X55971000Y-55640000D01*
X55974000Y-55635000D01*
X55978000Y-55629000D01*
X55982000Y-55624000D01*
X55986000Y-55620000D01*
X55990000Y-55615000D01*
X55995000Y-55611000D01*
X55999000Y-55607000D01*
X56004000Y-55603000D01*
X56010000Y-55599000D01*
X56015000Y-55596000D01*
X56021000Y-55593000D01*
X56026000Y-55590000D01*
X56032000Y-55588000D01*
X56038000Y-55586000D01*
X56044000Y-55584000D01*
X56050000Y-55583000D01*
X56056000Y-55581000D01*
X56062000Y-55581000D01*
X56069000Y-55580000D01*
X56075000Y-55580000D01*
X56575000Y-55580000D01*
X56581000Y-55580000D01*
X56588000Y-55581000D01*
X56594000Y-55581000D01*
X56600000Y-55583000D01*
X56606000Y-55584000D01*
X56612000Y-55586000D01*
X56618000Y-55588000D01*
X56624000Y-55590000D01*
X56629000Y-55593000D01*
X56635000Y-55596000D01*
X56640000Y-55599000D01*
X56646000Y-55603000D01*
X56651000Y-55607000D01*
X56655000Y-55611000D01*
X56660000Y-55615000D01*
X56664000Y-55620000D01*
X56668000Y-55624000D01*
X56672000Y-55629000D01*
X56676000Y-55635000D01*
X56679000Y-55640000D01*
X56682000Y-55646000D01*
X56685000Y-55651000D01*
X56687000Y-55657000D01*
X56689000Y-55663000D01*
X56691000Y-55669000D01*
X56692000Y-55675000D01*
X56694000Y-55681000D01*
X56694000Y-55687000D01*
X56695000Y-55694000D01*
X56695000Y-55700000D01*
G37*
X56695000Y-55700000D02*
X56695000Y-55850000D01*
X56695000Y-55856000D01*
X56694000Y-55863000D01*
X56694000Y-55869000D01*
X56692000Y-55875000D01*
X56691000Y-55881000D01*
X56689000Y-55887000D01*
X56687000Y-55893000D01*
X56685000Y-55899000D01*
X56682000Y-55904000D01*
X56679000Y-55910000D01*
X56676000Y-55915000D01*
X56672000Y-55921000D01*
X56668000Y-55926000D01*
X56664000Y-55930000D01*
X56660000Y-55935000D01*
X56655000Y-55939000D01*
X56651000Y-55943000D01*
X56646000Y-55947000D01*
X56640000Y-55951000D01*
X56635000Y-55954000D01*
X56629000Y-55957000D01*
X56624000Y-55960000D01*
X56618000Y-55962000D01*
X56612000Y-55964000D01*
X56606000Y-55966000D01*
X56600000Y-55967000D01*
X56594000Y-55969000D01*
X56588000Y-55969000D01*
X56581000Y-55970000D01*
X56575000Y-55970000D01*
X56075000Y-55970000D01*
X56069000Y-55970000D01*
X56062000Y-55969000D01*
X56056000Y-55969000D01*
X56050000Y-55967000D01*
X56044000Y-55966000D01*
X56038000Y-55964000D01*
X56032000Y-55962000D01*
X56026000Y-55960000D01*
X56021000Y-55957000D01*
X56015000Y-55954000D01*
X56010000Y-55951000D01*
X56004000Y-55947000D01*
X55999000Y-55943000D01*
X55995000Y-55939000D01*
X55990000Y-55935000D01*
X55986000Y-55930000D01*
X55982000Y-55926000D01*
X55978000Y-55921000D01*
X55974000Y-55915000D01*
X55971000Y-55910000D01*
X55968000Y-55904000D01*
X55965000Y-55899000D01*
X55963000Y-55893000D01*
X55961000Y-55887000D01*
X55959000Y-55881000D01*
X55958000Y-55875000D01*
X55956000Y-55869000D01*
X55956000Y-55863000D01*
X55955000Y-55856000D01*
X55955000Y-55850000D01*
X55955000Y-55700000D01*
X55955000Y-55694000D01*
X55956000Y-55687000D01*
X55956000Y-55681000D01*
X55958000Y-55675000D01*
X55959000Y-55669000D01*
X55961000Y-55663000D01*
X55963000Y-55657000D01*
X55965000Y-55651000D01*
X55968000Y-55646000D01*
X55971000Y-55640000D01*
X55974000Y-55635000D01*
X55978000Y-55629000D01*
X55982000Y-55624000D01*
X55986000Y-55620000D01*
X55990000Y-55615000D01*
X55995000Y-55611000D01*
X55999000Y-55607000D01*
X56004000Y-55603000D01*
X56010000Y-55599000D01*
X56015000Y-55596000D01*
X56021000Y-55593000D01*
X56026000Y-55590000D01*
X56032000Y-55588000D01*
X56038000Y-55586000D01*
X56044000Y-55584000D01*
X56050000Y-55583000D01*
X56056000Y-55581000D01*
X56062000Y-55581000D01*
X56069000Y-55580000D01*
X56075000Y-55580000D01*
X56575000Y-55580000D01*
X56581000Y-55580000D01*
X56588000Y-55581000D01*
X56594000Y-55581000D01*
X56600000Y-55583000D01*
X56606000Y-55584000D01*
X56612000Y-55586000D01*
X56618000Y-55588000D01*
X56624000Y-55590000D01*
X56629000Y-55593000D01*
X56635000Y-55596000D01*
X56640000Y-55599000D01*
X56646000Y-55603000D01*
X56651000Y-55607000D01*
X56655000Y-55611000D01*
X56660000Y-55615000D01*
X56664000Y-55620000D01*
X56668000Y-55624000D01*
X56672000Y-55629000D01*
X56676000Y-55635000D01*
X56679000Y-55640000D01*
X56682000Y-55646000D01*
X56685000Y-55651000D01*
X56687000Y-55657000D01*
X56689000Y-55663000D01*
X56691000Y-55669000D01*
X56692000Y-55675000D01*
X56694000Y-55681000D01*
X56694000Y-55687000D01*
X56695000Y-55694000D01*
X56695000Y-55700000D01*
G36*
X56695000Y-55200000D02*
G01*
X56695000Y-55350000D01*
X56695000Y-55356000D01*
X56694000Y-55363000D01*
X56694000Y-55369000D01*
X56692000Y-55375000D01*
X56691000Y-55381000D01*
X56689000Y-55387000D01*
X56687000Y-55393000D01*
X56685000Y-55399000D01*
X56682000Y-55404000D01*
X56679000Y-55410000D01*
X56676000Y-55415000D01*
X56672000Y-55421000D01*
X56668000Y-55426000D01*
X56664000Y-55430000D01*
X56660000Y-55435000D01*
X56655000Y-55439000D01*
X56651000Y-55443000D01*
X56646000Y-55447000D01*
X56640000Y-55451000D01*
X56635000Y-55454000D01*
X56629000Y-55457000D01*
X56624000Y-55460000D01*
X56618000Y-55462000D01*
X56612000Y-55464000D01*
X56606000Y-55466000D01*
X56600000Y-55467000D01*
X56594000Y-55469000D01*
X56588000Y-55469000D01*
X56581000Y-55470000D01*
X56575000Y-55470000D01*
X56075000Y-55470000D01*
X56069000Y-55470000D01*
X56062000Y-55469000D01*
X56056000Y-55469000D01*
X56050000Y-55467000D01*
X56044000Y-55466000D01*
X56038000Y-55464000D01*
X56032000Y-55462000D01*
X56026000Y-55460000D01*
X56021000Y-55457000D01*
X56015000Y-55454000D01*
X56010000Y-55451000D01*
X56004000Y-55447000D01*
X55999000Y-55443000D01*
X55995000Y-55439000D01*
X55990000Y-55435000D01*
X55986000Y-55430000D01*
X55982000Y-55426000D01*
X55978000Y-55421000D01*
X55974000Y-55415000D01*
X55971000Y-55410000D01*
X55968000Y-55404000D01*
X55965000Y-55399000D01*
X55963000Y-55393000D01*
X55961000Y-55387000D01*
X55959000Y-55381000D01*
X55958000Y-55375000D01*
X55956000Y-55369000D01*
X55956000Y-55363000D01*
X55955000Y-55356000D01*
X55955000Y-55350000D01*
X55955000Y-55200000D01*
X55955000Y-55194000D01*
X55956000Y-55187000D01*
X55956000Y-55181000D01*
X55958000Y-55175000D01*
X55959000Y-55169000D01*
X55961000Y-55163000D01*
X55963000Y-55157000D01*
X55965000Y-55151000D01*
X55968000Y-55146000D01*
X55971000Y-55140000D01*
X55974000Y-55135000D01*
X55978000Y-55129000D01*
X55982000Y-55124000D01*
X55986000Y-55120000D01*
X55990000Y-55115000D01*
X55995000Y-55111000D01*
X55999000Y-55107000D01*
X56004000Y-55103000D01*
X56010000Y-55099000D01*
X56015000Y-55096000D01*
X56021000Y-55093000D01*
X56026000Y-55090000D01*
X56032000Y-55088000D01*
X56038000Y-55086000D01*
X56044000Y-55084000D01*
X56050000Y-55083000D01*
X56056000Y-55081000D01*
X56062000Y-55081000D01*
X56069000Y-55080000D01*
X56075000Y-55080000D01*
X56575000Y-55080000D01*
X56581000Y-55080000D01*
X56588000Y-55081000D01*
X56594000Y-55081000D01*
X56600000Y-55083000D01*
X56606000Y-55084000D01*
X56612000Y-55086000D01*
X56618000Y-55088000D01*
X56624000Y-55090000D01*
X56629000Y-55093000D01*
X56635000Y-55096000D01*
X56640000Y-55099000D01*
X56646000Y-55103000D01*
X56651000Y-55107000D01*
X56655000Y-55111000D01*
X56660000Y-55115000D01*
X56664000Y-55120000D01*
X56668000Y-55124000D01*
X56672000Y-55129000D01*
X56676000Y-55135000D01*
X56679000Y-55140000D01*
X56682000Y-55146000D01*
X56685000Y-55151000D01*
X56687000Y-55157000D01*
X56689000Y-55163000D01*
X56691000Y-55169000D01*
X56692000Y-55175000D01*
X56694000Y-55181000D01*
X56694000Y-55187000D01*
X56695000Y-55194000D01*
X56695000Y-55200000D01*
G37*
X56695000Y-55200000D02*
X56695000Y-55350000D01*
X56695000Y-55356000D01*
X56694000Y-55363000D01*
X56694000Y-55369000D01*
X56692000Y-55375000D01*
X56691000Y-55381000D01*
X56689000Y-55387000D01*
X56687000Y-55393000D01*
X56685000Y-55399000D01*
X56682000Y-55404000D01*
X56679000Y-55410000D01*
X56676000Y-55415000D01*
X56672000Y-55421000D01*
X56668000Y-55426000D01*
X56664000Y-55430000D01*
X56660000Y-55435000D01*
X56655000Y-55439000D01*
X56651000Y-55443000D01*
X56646000Y-55447000D01*
X56640000Y-55451000D01*
X56635000Y-55454000D01*
X56629000Y-55457000D01*
X56624000Y-55460000D01*
X56618000Y-55462000D01*
X56612000Y-55464000D01*
X56606000Y-55466000D01*
X56600000Y-55467000D01*
X56594000Y-55469000D01*
X56588000Y-55469000D01*
X56581000Y-55470000D01*
X56575000Y-55470000D01*
X56075000Y-55470000D01*
X56069000Y-55470000D01*
X56062000Y-55469000D01*
X56056000Y-55469000D01*
X56050000Y-55467000D01*
X56044000Y-55466000D01*
X56038000Y-55464000D01*
X56032000Y-55462000D01*
X56026000Y-55460000D01*
X56021000Y-55457000D01*
X56015000Y-55454000D01*
X56010000Y-55451000D01*
X56004000Y-55447000D01*
X55999000Y-55443000D01*
X55995000Y-55439000D01*
X55990000Y-55435000D01*
X55986000Y-55430000D01*
X55982000Y-55426000D01*
X55978000Y-55421000D01*
X55974000Y-55415000D01*
X55971000Y-55410000D01*
X55968000Y-55404000D01*
X55965000Y-55399000D01*
X55963000Y-55393000D01*
X55961000Y-55387000D01*
X55959000Y-55381000D01*
X55958000Y-55375000D01*
X55956000Y-55369000D01*
X55956000Y-55363000D01*
X55955000Y-55356000D01*
X55955000Y-55350000D01*
X55955000Y-55200000D01*
X55955000Y-55194000D01*
X55956000Y-55187000D01*
X55956000Y-55181000D01*
X55958000Y-55175000D01*
X55959000Y-55169000D01*
X55961000Y-55163000D01*
X55963000Y-55157000D01*
X55965000Y-55151000D01*
X55968000Y-55146000D01*
X55971000Y-55140000D01*
X55974000Y-55135000D01*
X55978000Y-55129000D01*
X55982000Y-55124000D01*
X55986000Y-55120000D01*
X55990000Y-55115000D01*
X55995000Y-55111000D01*
X55999000Y-55107000D01*
X56004000Y-55103000D01*
X56010000Y-55099000D01*
X56015000Y-55096000D01*
X56021000Y-55093000D01*
X56026000Y-55090000D01*
X56032000Y-55088000D01*
X56038000Y-55086000D01*
X56044000Y-55084000D01*
X56050000Y-55083000D01*
X56056000Y-55081000D01*
X56062000Y-55081000D01*
X56069000Y-55080000D01*
X56075000Y-55080000D01*
X56575000Y-55080000D01*
X56581000Y-55080000D01*
X56588000Y-55081000D01*
X56594000Y-55081000D01*
X56600000Y-55083000D01*
X56606000Y-55084000D01*
X56612000Y-55086000D01*
X56618000Y-55088000D01*
X56624000Y-55090000D01*
X56629000Y-55093000D01*
X56635000Y-55096000D01*
X56640000Y-55099000D01*
X56646000Y-55103000D01*
X56651000Y-55107000D01*
X56655000Y-55111000D01*
X56660000Y-55115000D01*
X56664000Y-55120000D01*
X56668000Y-55124000D01*
X56672000Y-55129000D01*
X56676000Y-55135000D01*
X56679000Y-55140000D01*
X56682000Y-55146000D01*
X56685000Y-55151000D01*
X56687000Y-55157000D01*
X56689000Y-55163000D01*
X56691000Y-55169000D01*
X56692000Y-55175000D01*
X56694000Y-55181000D01*
X56694000Y-55187000D01*
X56695000Y-55194000D01*
X56695000Y-55200000D01*
G36*
X56695000Y-54700000D02*
G01*
X56695000Y-54850000D01*
X56695000Y-54856000D01*
X56694000Y-54863000D01*
X56694000Y-54869000D01*
X56692000Y-54875000D01*
X56691000Y-54881000D01*
X56689000Y-54887000D01*
X56687000Y-54893000D01*
X56685000Y-54899000D01*
X56682000Y-54904000D01*
X56679000Y-54910000D01*
X56676000Y-54915000D01*
X56672000Y-54921000D01*
X56668000Y-54926000D01*
X56664000Y-54930000D01*
X56660000Y-54935000D01*
X56655000Y-54939000D01*
X56651000Y-54943000D01*
X56646000Y-54947000D01*
X56640000Y-54951000D01*
X56635000Y-54954000D01*
X56629000Y-54957000D01*
X56624000Y-54960000D01*
X56618000Y-54962000D01*
X56612000Y-54964000D01*
X56606000Y-54966000D01*
X56600000Y-54967000D01*
X56594000Y-54969000D01*
X56588000Y-54969000D01*
X56581000Y-54970000D01*
X56575000Y-54970000D01*
X56075000Y-54970000D01*
X56069000Y-54970000D01*
X56062000Y-54969000D01*
X56056000Y-54969000D01*
X56050000Y-54967000D01*
X56044000Y-54966000D01*
X56038000Y-54964000D01*
X56032000Y-54962000D01*
X56026000Y-54960000D01*
X56021000Y-54957000D01*
X56015000Y-54954000D01*
X56010000Y-54951000D01*
X56004000Y-54947000D01*
X55999000Y-54943000D01*
X55995000Y-54939000D01*
X55990000Y-54935000D01*
X55986000Y-54930000D01*
X55982000Y-54926000D01*
X55978000Y-54921000D01*
X55974000Y-54915000D01*
X55971000Y-54910000D01*
X55968000Y-54904000D01*
X55965000Y-54899000D01*
X55963000Y-54893000D01*
X55961000Y-54887000D01*
X55959000Y-54881000D01*
X55958000Y-54875000D01*
X55956000Y-54869000D01*
X55956000Y-54863000D01*
X55955000Y-54856000D01*
X55955000Y-54850000D01*
X55955000Y-54700000D01*
X55955000Y-54694000D01*
X55956000Y-54687000D01*
X55956000Y-54681000D01*
X55958000Y-54675000D01*
X55959000Y-54669000D01*
X55961000Y-54663000D01*
X55963000Y-54657000D01*
X55965000Y-54651000D01*
X55968000Y-54646000D01*
X55971000Y-54640000D01*
X55974000Y-54635000D01*
X55978000Y-54629000D01*
X55982000Y-54624000D01*
X55986000Y-54620000D01*
X55990000Y-54615000D01*
X55995000Y-54611000D01*
X55999000Y-54607000D01*
X56004000Y-54603000D01*
X56010000Y-54599000D01*
X56015000Y-54596000D01*
X56021000Y-54593000D01*
X56026000Y-54590000D01*
X56032000Y-54588000D01*
X56038000Y-54586000D01*
X56044000Y-54584000D01*
X56050000Y-54583000D01*
X56056000Y-54581000D01*
X56062000Y-54581000D01*
X56069000Y-54580000D01*
X56075000Y-54580000D01*
X56575000Y-54580000D01*
X56581000Y-54580000D01*
X56588000Y-54581000D01*
X56594000Y-54581000D01*
X56600000Y-54583000D01*
X56606000Y-54584000D01*
X56612000Y-54586000D01*
X56618000Y-54588000D01*
X56624000Y-54590000D01*
X56629000Y-54593000D01*
X56635000Y-54596000D01*
X56640000Y-54599000D01*
X56646000Y-54603000D01*
X56651000Y-54607000D01*
X56655000Y-54611000D01*
X56660000Y-54615000D01*
X56664000Y-54620000D01*
X56668000Y-54624000D01*
X56672000Y-54629000D01*
X56676000Y-54635000D01*
X56679000Y-54640000D01*
X56682000Y-54646000D01*
X56685000Y-54651000D01*
X56687000Y-54657000D01*
X56689000Y-54663000D01*
X56691000Y-54669000D01*
X56692000Y-54675000D01*
X56694000Y-54681000D01*
X56694000Y-54687000D01*
X56695000Y-54694000D01*
X56695000Y-54700000D01*
G37*
X56695000Y-54700000D02*
X56695000Y-54850000D01*
X56695000Y-54856000D01*
X56694000Y-54863000D01*
X56694000Y-54869000D01*
X56692000Y-54875000D01*
X56691000Y-54881000D01*
X56689000Y-54887000D01*
X56687000Y-54893000D01*
X56685000Y-54899000D01*
X56682000Y-54904000D01*
X56679000Y-54910000D01*
X56676000Y-54915000D01*
X56672000Y-54921000D01*
X56668000Y-54926000D01*
X56664000Y-54930000D01*
X56660000Y-54935000D01*
X56655000Y-54939000D01*
X56651000Y-54943000D01*
X56646000Y-54947000D01*
X56640000Y-54951000D01*
X56635000Y-54954000D01*
X56629000Y-54957000D01*
X56624000Y-54960000D01*
X56618000Y-54962000D01*
X56612000Y-54964000D01*
X56606000Y-54966000D01*
X56600000Y-54967000D01*
X56594000Y-54969000D01*
X56588000Y-54969000D01*
X56581000Y-54970000D01*
X56575000Y-54970000D01*
X56075000Y-54970000D01*
X56069000Y-54970000D01*
X56062000Y-54969000D01*
X56056000Y-54969000D01*
X56050000Y-54967000D01*
X56044000Y-54966000D01*
X56038000Y-54964000D01*
X56032000Y-54962000D01*
X56026000Y-54960000D01*
X56021000Y-54957000D01*
X56015000Y-54954000D01*
X56010000Y-54951000D01*
X56004000Y-54947000D01*
X55999000Y-54943000D01*
X55995000Y-54939000D01*
X55990000Y-54935000D01*
X55986000Y-54930000D01*
X55982000Y-54926000D01*
X55978000Y-54921000D01*
X55974000Y-54915000D01*
X55971000Y-54910000D01*
X55968000Y-54904000D01*
X55965000Y-54899000D01*
X55963000Y-54893000D01*
X55961000Y-54887000D01*
X55959000Y-54881000D01*
X55958000Y-54875000D01*
X55956000Y-54869000D01*
X55956000Y-54863000D01*
X55955000Y-54856000D01*
X55955000Y-54850000D01*
X55955000Y-54700000D01*
X55955000Y-54694000D01*
X55956000Y-54687000D01*
X55956000Y-54681000D01*
X55958000Y-54675000D01*
X55959000Y-54669000D01*
X55961000Y-54663000D01*
X55963000Y-54657000D01*
X55965000Y-54651000D01*
X55968000Y-54646000D01*
X55971000Y-54640000D01*
X55974000Y-54635000D01*
X55978000Y-54629000D01*
X55982000Y-54624000D01*
X55986000Y-54620000D01*
X55990000Y-54615000D01*
X55995000Y-54611000D01*
X55999000Y-54607000D01*
X56004000Y-54603000D01*
X56010000Y-54599000D01*
X56015000Y-54596000D01*
X56021000Y-54593000D01*
X56026000Y-54590000D01*
X56032000Y-54588000D01*
X56038000Y-54586000D01*
X56044000Y-54584000D01*
X56050000Y-54583000D01*
X56056000Y-54581000D01*
X56062000Y-54581000D01*
X56069000Y-54580000D01*
X56075000Y-54580000D01*
X56575000Y-54580000D01*
X56581000Y-54580000D01*
X56588000Y-54581000D01*
X56594000Y-54581000D01*
X56600000Y-54583000D01*
X56606000Y-54584000D01*
X56612000Y-54586000D01*
X56618000Y-54588000D01*
X56624000Y-54590000D01*
X56629000Y-54593000D01*
X56635000Y-54596000D01*
X56640000Y-54599000D01*
X56646000Y-54603000D01*
X56651000Y-54607000D01*
X56655000Y-54611000D01*
X56660000Y-54615000D01*
X56664000Y-54620000D01*
X56668000Y-54624000D01*
X56672000Y-54629000D01*
X56676000Y-54635000D01*
X56679000Y-54640000D01*
X56682000Y-54646000D01*
X56685000Y-54651000D01*
X56687000Y-54657000D01*
X56689000Y-54663000D01*
X56691000Y-54669000D01*
X56692000Y-54675000D01*
X56694000Y-54681000D01*
X56694000Y-54687000D01*
X56695000Y-54694000D01*
X56695000Y-54700000D01*
G36*
X56695000Y-56200000D02*
G01*
X56695000Y-56350000D01*
X56695000Y-56356000D01*
X56694000Y-56363000D01*
X56694000Y-56369000D01*
X56692000Y-56375000D01*
X56691000Y-56381000D01*
X56689000Y-56387000D01*
X56687000Y-56393000D01*
X56685000Y-56399000D01*
X56682000Y-56404000D01*
X56679000Y-56410000D01*
X56676000Y-56415000D01*
X56672000Y-56421000D01*
X56668000Y-56426000D01*
X56664000Y-56430000D01*
X56660000Y-56435000D01*
X56655000Y-56439000D01*
X56651000Y-56443000D01*
X56646000Y-56447000D01*
X56640000Y-56451000D01*
X56635000Y-56454000D01*
X56629000Y-56457000D01*
X56624000Y-56460000D01*
X56618000Y-56462000D01*
X56612000Y-56464000D01*
X56606000Y-56466000D01*
X56600000Y-56467000D01*
X56594000Y-56469000D01*
X56588000Y-56469000D01*
X56581000Y-56470000D01*
X56575000Y-56470000D01*
X56075000Y-56470000D01*
X56069000Y-56470000D01*
X56062000Y-56469000D01*
X56056000Y-56469000D01*
X56050000Y-56467000D01*
X56044000Y-56466000D01*
X56038000Y-56464000D01*
X56032000Y-56462000D01*
X56026000Y-56460000D01*
X56021000Y-56457000D01*
X56015000Y-56454000D01*
X56010000Y-56451000D01*
X56004000Y-56447000D01*
X55999000Y-56443000D01*
X55995000Y-56439000D01*
X55990000Y-56435000D01*
X55986000Y-56430000D01*
X55982000Y-56426000D01*
X55978000Y-56421000D01*
X55974000Y-56415000D01*
X55971000Y-56410000D01*
X55968000Y-56404000D01*
X55965000Y-56399000D01*
X55963000Y-56393000D01*
X55961000Y-56387000D01*
X55959000Y-56381000D01*
X55958000Y-56375000D01*
X55956000Y-56369000D01*
X55956000Y-56363000D01*
X55955000Y-56356000D01*
X55955000Y-56350000D01*
X55955000Y-56200000D01*
X55955000Y-56194000D01*
X55956000Y-56187000D01*
X55956000Y-56181000D01*
X55958000Y-56175000D01*
X55959000Y-56169000D01*
X55961000Y-56163000D01*
X55963000Y-56157000D01*
X55965000Y-56151000D01*
X55968000Y-56146000D01*
X55971000Y-56140000D01*
X55974000Y-56135000D01*
X55978000Y-56129000D01*
X55982000Y-56124000D01*
X55986000Y-56120000D01*
X55990000Y-56115000D01*
X55995000Y-56111000D01*
X55999000Y-56107000D01*
X56004000Y-56103000D01*
X56010000Y-56099000D01*
X56015000Y-56096000D01*
X56021000Y-56093000D01*
X56026000Y-56090000D01*
X56032000Y-56088000D01*
X56038000Y-56086000D01*
X56044000Y-56084000D01*
X56050000Y-56083000D01*
X56056000Y-56081000D01*
X56062000Y-56081000D01*
X56069000Y-56080000D01*
X56075000Y-56080000D01*
X56575000Y-56080000D01*
X56581000Y-56080000D01*
X56588000Y-56081000D01*
X56594000Y-56081000D01*
X56600000Y-56083000D01*
X56606000Y-56084000D01*
X56612000Y-56086000D01*
X56618000Y-56088000D01*
X56624000Y-56090000D01*
X56629000Y-56093000D01*
X56635000Y-56096000D01*
X56640000Y-56099000D01*
X56646000Y-56103000D01*
X56651000Y-56107000D01*
X56655000Y-56111000D01*
X56660000Y-56115000D01*
X56664000Y-56120000D01*
X56668000Y-56124000D01*
X56672000Y-56129000D01*
X56676000Y-56135000D01*
X56679000Y-56140000D01*
X56682000Y-56146000D01*
X56685000Y-56151000D01*
X56687000Y-56157000D01*
X56689000Y-56163000D01*
X56691000Y-56169000D01*
X56692000Y-56175000D01*
X56694000Y-56181000D01*
X56694000Y-56187000D01*
X56695000Y-56194000D01*
X56695000Y-56200000D01*
G37*
X56695000Y-56200000D02*
X56695000Y-56350000D01*
X56695000Y-56356000D01*
X56694000Y-56363000D01*
X56694000Y-56369000D01*
X56692000Y-56375000D01*
X56691000Y-56381000D01*
X56689000Y-56387000D01*
X56687000Y-56393000D01*
X56685000Y-56399000D01*
X56682000Y-56404000D01*
X56679000Y-56410000D01*
X56676000Y-56415000D01*
X56672000Y-56421000D01*
X56668000Y-56426000D01*
X56664000Y-56430000D01*
X56660000Y-56435000D01*
X56655000Y-56439000D01*
X56651000Y-56443000D01*
X56646000Y-56447000D01*
X56640000Y-56451000D01*
X56635000Y-56454000D01*
X56629000Y-56457000D01*
X56624000Y-56460000D01*
X56618000Y-56462000D01*
X56612000Y-56464000D01*
X56606000Y-56466000D01*
X56600000Y-56467000D01*
X56594000Y-56469000D01*
X56588000Y-56469000D01*
X56581000Y-56470000D01*
X56575000Y-56470000D01*
X56075000Y-56470000D01*
X56069000Y-56470000D01*
X56062000Y-56469000D01*
X56056000Y-56469000D01*
X56050000Y-56467000D01*
X56044000Y-56466000D01*
X56038000Y-56464000D01*
X56032000Y-56462000D01*
X56026000Y-56460000D01*
X56021000Y-56457000D01*
X56015000Y-56454000D01*
X56010000Y-56451000D01*
X56004000Y-56447000D01*
X55999000Y-56443000D01*
X55995000Y-56439000D01*
X55990000Y-56435000D01*
X55986000Y-56430000D01*
X55982000Y-56426000D01*
X55978000Y-56421000D01*
X55974000Y-56415000D01*
X55971000Y-56410000D01*
X55968000Y-56404000D01*
X55965000Y-56399000D01*
X55963000Y-56393000D01*
X55961000Y-56387000D01*
X55959000Y-56381000D01*
X55958000Y-56375000D01*
X55956000Y-56369000D01*
X55956000Y-56363000D01*
X55955000Y-56356000D01*
X55955000Y-56350000D01*
X55955000Y-56200000D01*
X55955000Y-56194000D01*
X55956000Y-56187000D01*
X55956000Y-56181000D01*
X55958000Y-56175000D01*
X55959000Y-56169000D01*
X55961000Y-56163000D01*
X55963000Y-56157000D01*
X55965000Y-56151000D01*
X55968000Y-56146000D01*
X55971000Y-56140000D01*
X55974000Y-56135000D01*
X55978000Y-56129000D01*
X55982000Y-56124000D01*
X55986000Y-56120000D01*
X55990000Y-56115000D01*
X55995000Y-56111000D01*
X55999000Y-56107000D01*
X56004000Y-56103000D01*
X56010000Y-56099000D01*
X56015000Y-56096000D01*
X56021000Y-56093000D01*
X56026000Y-56090000D01*
X56032000Y-56088000D01*
X56038000Y-56086000D01*
X56044000Y-56084000D01*
X56050000Y-56083000D01*
X56056000Y-56081000D01*
X56062000Y-56081000D01*
X56069000Y-56080000D01*
X56075000Y-56080000D01*
X56575000Y-56080000D01*
X56581000Y-56080000D01*
X56588000Y-56081000D01*
X56594000Y-56081000D01*
X56600000Y-56083000D01*
X56606000Y-56084000D01*
X56612000Y-56086000D01*
X56618000Y-56088000D01*
X56624000Y-56090000D01*
X56629000Y-56093000D01*
X56635000Y-56096000D01*
X56640000Y-56099000D01*
X56646000Y-56103000D01*
X56651000Y-56107000D01*
X56655000Y-56111000D01*
X56660000Y-56115000D01*
X56664000Y-56120000D01*
X56668000Y-56124000D01*
X56672000Y-56129000D01*
X56676000Y-56135000D01*
X56679000Y-56140000D01*
X56682000Y-56146000D01*
X56685000Y-56151000D01*
X56687000Y-56157000D01*
X56689000Y-56163000D01*
X56691000Y-56169000D01*
X56692000Y-56175000D01*
X56694000Y-56181000D01*
X56694000Y-56187000D01*
X56695000Y-56194000D01*
X56695000Y-56200000D01*
G36*
X56695000Y-56700000D02*
G01*
X56695000Y-56850000D01*
X56695000Y-56856000D01*
X56694000Y-56863000D01*
X56694000Y-56869000D01*
X56692000Y-56875000D01*
X56691000Y-56881000D01*
X56689000Y-56887000D01*
X56687000Y-56893000D01*
X56685000Y-56899000D01*
X56682000Y-56904000D01*
X56679000Y-56910000D01*
X56676000Y-56915000D01*
X56672000Y-56921000D01*
X56668000Y-56926000D01*
X56664000Y-56930000D01*
X56660000Y-56935000D01*
X56655000Y-56939000D01*
X56651000Y-56943000D01*
X56646000Y-56947000D01*
X56640000Y-56951000D01*
X56635000Y-56954000D01*
X56629000Y-56957000D01*
X56624000Y-56960000D01*
X56618000Y-56962000D01*
X56612000Y-56964000D01*
X56606000Y-56966000D01*
X56600000Y-56967000D01*
X56594000Y-56969000D01*
X56588000Y-56969000D01*
X56581000Y-56970000D01*
X56575000Y-56970000D01*
X56075000Y-56970000D01*
X56069000Y-56970000D01*
X56062000Y-56969000D01*
X56056000Y-56969000D01*
X56050000Y-56967000D01*
X56044000Y-56966000D01*
X56038000Y-56964000D01*
X56032000Y-56962000D01*
X56026000Y-56960000D01*
X56021000Y-56957000D01*
X56015000Y-56954000D01*
X56010000Y-56951000D01*
X56004000Y-56947000D01*
X55999000Y-56943000D01*
X55995000Y-56939000D01*
X55990000Y-56935000D01*
X55986000Y-56930000D01*
X55982000Y-56926000D01*
X55978000Y-56921000D01*
X55974000Y-56915000D01*
X55971000Y-56910000D01*
X55968000Y-56904000D01*
X55965000Y-56899000D01*
X55963000Y-56893000D01*
X55961000Y-56887000D01*
X55959000Y-56881000D01*
X55958000Y-56875000D01*
X55956000Y-56869000D01*
X55956000Y-56863000D01*
X55955000Y-56856000D01*
X55955000Y-56850000D01*
X55955000Y-56700000D01*
X55955000Y-56694000D01*
X55956000Y-56687000D01*
X55956000Y-56681000D01*
X55958000Y-56675000D01*
X55959000Y-56669000D01*
X55961000Y-56663000D01*
X55963000Y-56657000D01*
X55965000Y-56651000D01*
X55968000Y-56646000D01*
X55971000Y-56640000D01*
X55974000Y-56635000D01*
X55978000Y-56629000D01*
X55982000Y-56624000D01*
X55986000Y-56620000D01*
X55990000Y-56615000D01*
X55995000Y-56611000D01*
X55999000Y-56607000D01*
X56004000Y-56603000D01*
X56010000Y-56599000D01*
X56015000Y-56596000D01*
X56021000Y-56593000D01*
X56026000Y-56590000D01*
X56032000Y-56588000D01*
X56038000Y-56586000D01*
X56044000Y-56584000D01*
X56050000Y-56583000D01*
X56056000Y-56581000D01*
X56062000Y-56581000D01*
X56069000Y-56580000D01*
X56075000Y-56580000D01*
X56575000Y-56580000D01*
X56581000Y-56580000D01*
X56588000Y-56581000D01*
X56594000Y-56581000D01*
X56600000Y-56583000D01*
X56606000Y-56584000D01*
X56612000Y-56586000D01*
X56618000Y-56588000D01*
X56624000Y-56590000D01*
X56629000Y-56593000D01*
X56635000Y-56596000D01*
X56640000Y-56599000D01*
X56646000Y-56603000D01*
X56651000Y-56607000D01*
X56655000Y-56611000D01*
X56660000Y-56615000D01*
X56664000Y-56620000D01*
X56668000Y-56624000D01*
X56672000Y-56629000D01*
X56676000Y-56635000D01*
X56679000Y-56640000D01*
X56682000Y-56646000D01*
X56685000Y-56651000D01*
X56687000Y-56657000D01*
X56689000Y-56663000D01*
X56691000Y-56669000D01*
X56692000Y-56675000D01*
X56694000Y-56681000D01*
X56694000Y-56687000D01*
X56695000Y-56694000D01*
X56695000Y-56700000D01*
G37*
X56695000Y-56700000D02*
X56695000Y-56850000D01*
X56695000Y-56856000D01*
X56694000Y-56863000D01*
X56694000Y-56869000D01*
X56692000Y-56875000D01*
X56691000Y-56881000D01*
X56689000Y-56887000D01*
X56687000Y-56893000D01*
X56685000Y-56899000D01*
X56682000Y-56904000D01*
X56679000Y-56910000D01*
X56676000Y-56915000D01*
X56672000Y-56921000D01*
X56668000Y-56926000D01*
X56664000Y-56930000D01*
X56660000Y-56935000D01*
X56655000Y-56939000D01*
X56651000Y-56943000D01*
X56646000Y-56947000D01*
X56640000Y-56951000D01*
X56635000Y-56954000D01*
X56629000Y-56957000D01*
X56624000Y-56960000D01*
X56618000Y-56962000D01*
X56612000Y-56964000D01*
X56606000Y-56966000D01*
X56600000Y-56967000D01*
X56594000Y-56969000D01*
X56588000Y-56969000D01*
X56581000Y-56970000D01*
X56575000Y-56970000D01*
X56075000Y-56970000D01*
X56069000Y-56970000D01*
X56062000Y-56969000D01*
X56056000Y-56969000D01*
X56050000Y-56967000D01*
X56044000Y-56966000D01*
X56038000Y-56964000D01*
X56032000Y-56962000D01*
X56026000Y-56960000D01*
X56021000Y-56957000D01*
X56015000Y-56954000D01*
X56010000Y-56951000D01*
X56004000Y-56947000D01*
X55999000Y-56943000D01*
X55995000Y-56939000D01*
X55990000Y-56935000D01*
X55986000Y-56930000D01*
X55982000Y-56926000D01*
X55978000Y-56921000D01*
X55974000Y-56915000D01*
X55971000Y-56910000D01*
X55968000Y-56904000D01*
X55965000Y-56899000D01*
X55963000Y-56893000D01*
X55961000Y-56887000D01*
X55959000Y-56881000D01*
X55958000Y-56875000D01*
X55956000Y-56869000D01*
X55956000Y-56863000D01*
X55955000Y-56856000D01*
X55955000Y-56850000D01*
X55955000Y-56700000D01*
X55955000Y-56694000D01*
X55956000Y-56687000D01*
X55956000Y-56681000D01*
X55958000Y-56675000D01*
X55959000Y-56669000D01*
X55961000Y-56663000D01*
X55963000Y-56657000D01*
X55965000Y-56651000D01*
X55968000Y-56646000D01*
X55971000Y-56640000D01*
X55974000Y-56635000D01*
X55978000Y-56629000D01*
X55982000Y-56624000D01*
X55986000Y-56620000D01*
X55990000Y-56615000D01*
X55995000Y-56611000D01*
X55999000Y-56607000D01*
X56004000Y-56603000D01*
X56010000Y-56599000D01*
X56015000Y-56596000D01*
X56021000Y-56593000D01*
X56026000Y-56590000D01*
X56032000Y-56588000D01*
X56038000Y-56586000D01*
X56044000Y-56584000D01*
X56050000Y-56583000D01*
X56056000Y-56581000D01*
X56062000Y-56581000D01*
X56069000Y-56580000D01*
X56075000Y-56580000D01*
X56575000Y-56580000D01*
X56581000Y-56580000D01*
X56588000Y-56581000D01*
X56594000Y-56581000D01*
X56600000Y-56583000D01*
X56606000Y-56584000D01*
X56612000Y-56586000D01*
X56618000Y-56588000D01*
X56624000Y-56590000D01*
X56629000Y-56593000D01*
X56635000Y-56596000D01*
X56640000Y-56599000D01*
X56646000Y-56603000D01*
X56651000Y-56607000D01*
X56655000Y-56611000D01*
X56660000Y-56615000D01*
X56664000Y-56620000D01*
X56668000Y-56624000D01*
X56672000Y-56629000D01*
X56676000Y-56635000D01*
X56679000Y-56640000D01*
X56682000Y-56646000D01*
X56685000Y-56651000D01*
X56687000Y-56657000D01*
X56689000Y-56663000D01*
X56691000Y-56669000D01*
X56692000Y-56675000D01*
X56694000Y-56681000D01*
X56694000Y-56687000D01*
X56695000Y-56694000D01*
X56695000Y-56700000D01*
G36*
X58495000Y-55700000D02*
G01*
X58495000Y-55850000D01*
X58495000Y-55856000D01*
X58494000Y-55863000D01*
X58494000Y-55869000D01*
X58492000Y-55875000D01*
X58491000Y-55881000D01*
X58489000Y-55887000D01*
X58487000Y-55893000D01*
X58485000Y-55899000D01*
X58482000Y-55904000D01*
X58479000Y-55910000D01*
X58476000Y-55915000D01*
X58472000Y-55921000D01*
X58468000Y-55926000D01*
X58464000Y-55930000D01*
X58460000Y-55935000D01*
X58455000Y-55939000D01*
X58451000Y-55943000D01*
X58446000Y-55947000D01*
X58440000Y-55951000D01*
X58435000Y-55954000D01*
X58429000Y-55957000D01*
X58424000Y-55960000D01*
X58418000Y-55962000D01*
X58412000Y-55964000D01*
X58406000Y-55966000D01*
X58400000Y-55967000D01*
X58394000Y-55969000D01*
X58388000Y-55969000D01*
X58381000Y-55970000D01*
X58375000Y-55970000D01*
X57175000Y-55970000D01*
X57169000Y-55970000D01*
X57162000Y-55969000D01*
X57156000Y-55969000D01*
X57150000Y-55967000D01*
X57144000Y-55966000D01*
X57138000Y-55964000D01*
X57132000Y-55962000D01*
X57126000Y-55960000D01*
X57121000Y-55957000D01*
X57115000Y-55954000D01*
X57110000Y-55951000D01*
X57104000Y-55947000D01*
X57099000Y-55943000D01*
X57095000Y-55939000D01*
X57090000Y-55935000D01*
X57086000Y-55930000D01*
X57082000Y-55926000D01*
X57078000Y-55921000D01*
X57074000Y-55915000D01*
X57071000Y-55910000D01*
X57068000Y-55904000D01*
X57065000Y-55899000D01*
X57063000Y-55893000D01*
X57061000Y-55887000D01*
X57059000Y-55881000D01*
X57058000Y-55875000D01*
X57056000Y-55869000D01*
X57056000Y-55863000D01*
X57055000Y-55856000D01*
X57055000Y-55850000D01*
X57055000Y-55700000D01*
X57055000Y-55694000D01*
X57056000Y-55687000D01*
X57056000Y-55681000D01*
X57058000Y-55675000D01*
X57059000Y-55669000D01*
X57061000Y-55663000D01*
X57063000Y-55657000D01*
X57065000Y-55651000D01*
X57068000Y-55646000D01*
X57071000Y-55640000D01*
X57074000Y-55635000D01*
X57078000Y-55629000D01*
X57082000Y-55624000D01*
X57086000Y-55620000D01*
X57090000Y-55615000D01*
X57095000Y-55611000D01*
X57099000Y-55607000D01*
X57104000Y-55603000D01*
X57110000Y-55599000D01*
X57115000Y-55596000D01*
X57121000Y-55593000D01*
X57126000Y-55590000D01*
X57132000Y-55588000D01*
X57138000Y-55586000D01*
X57144000Y-55584000D01*
X57150000Y-55583000D01*
X57156000Y-55581000D01*
X57162000Y-55581000D01*
X57169000Y-55580000D01*
X57175000Y-55580000D01*
X58375000Y-55580000D01*
X58381000Y-55580000D01*
X58388000Y-55581000D01*
X58394000Y-55581000D01*
X58400000Y-55583000D01*
X58406000Y-55584000D01*
X58412000Y-55586000D01*
X58418000Y-55588000D01*
X58424000Y-55590000D01*
X58429000Y-55593000D01*
X58435000Y-55596000D01*
X58440000Y-55599000D01*
X58446000Y-55603000D01*
X58451000Y-55607000D01*
X58455000Y-55611000D01*
X58460000Y-55615000D01*
X58464000Y-55620000D01*
X58468000Y-55624000D01*
X58472000Y-55629000D01*
X58476000Y-55635000D01*
X58479000Y-55640000D01*
X58482000Y-55646000D01*
X58485000Y-55651000D01*
X58487000Y-55657000D01*
X58489000Y-55663000D01*
X58491000Y-55669000D01*
X58492000Y-55675000D01*
X58494000Y-55681000D01*
X58494000Y-55687000D01*
X58495000Y-55694000D01*
X58495000Y-55700000D01*
G37*
X58495000Y-55700000D02*
X58495000Y-55850000D01*
X58495000Y-55856000D01*
X58494000Y-55863000D01*
X58494000Y-55869000D01*
X58492000Y-55875000D01*
X58491000Y-55881000D01*
X58489000Y-55887000D01*
X58487000Y-55893000D01*
X58485000Y-55899000D01*
X58482000Y-55904000D01*
X58479000Y-55910000D01*
X58476000Y-55915000D01*
X58472000Y-55921000D01*
X58468000Y-55926000D01*
X58464000Y-55930000D01*
X58460000Y-55935000D01*
X58455000Y-55939000D01*
X58451000Y-55943000D01*
X58446000Y-55947000D01*
X58440000Y-55951000D01*
X58435000Y-55954000D01*
X58429000Y-55957000D01*
X58424000Y-55960000D01*
X58418000Y-55962000D01*
X58412000Y-55964000D01*
X58406000Y-55966000D01*
X58400000Y-55967000D01*
X58394000Y-55969000D01*
X58388000Y-55969000D01*
X58381000Y-55970000D01*
X58375000Y-55970000D01*
X57175000Y-55970000D01*
X57169000Y-55970000D01*
X57162000Y-55969000D01*
X57156000Y-55969000D01*
X57150000Y-55967000D01*
X57144000Y-55966000D01*
X57138000Y-55964000D01*
X57132000Y-55962000D01*
X57126000Y-55960000D01*
X57121000Y-55957000D01*
X57115000Y-55954000D01*
X57110000Y-55951000D01*
X57104000Y-55947000D01*
X57099000Y-55943000D01*
X57095000Y-55939000D01*
X57090000Y-55935000D01*
X57086000Y-55930000D01*
X57082000Y-55926000D01*
X57078000Y-55921000D01*
X57074000Y-55915000D01*
X57071000Y-55910000D01*
X57068000Y-55904000D01*
X57065000Y-55899000D01*
X57063000Y-55893000D01*
X57061000Y-55887000D01*
X57059000Y-55881000D01*
X57058000Y-55875000D01*
X57056000Y-55869000D01*
X57056000Y-55863000D01*
X57055000Y-55856000D01*
X57055000Y-55850000D01*
X57055000Y-55700000D01*
X57055000Y-55694000D01*
X57056000Y-55687000D01*
X57056000Y-55681000D01*
X57058000Y-55675000D01*
X57059000Y-55669000D01*
X57061000Y-55663000D01*
X57063000Y-55657000D01*
X57065000Y-55651000D01*
X57068000Y-55646000D01*
X57071000Y-55640000D01*
X57074000Y-55635000D01*
X57078000Y-55629000D01*
X57082000Y-55624000D01*
X57086000Y-55620000D01*
X57090000Y-55615000D01*
X57095000Y-55611000D01*
X57099000Y-55607000D01*
X57104000Y-55603000D01*
X57110000Y-55599000D01*
X57115000Y-55596000D01*
X57121000Y-55593000D01*
X57126000Y-55590000D01*
X57132000Y-55588000D01*
X57138000Y-55586000D01*
X57144000Y-55584000D01*
X57150000Y-55583000D01*
X57156000Y-55581000D01*
X57162000Y-55581000D01*
X57169000Y-55580000D01*
X57175000Y-55580000D01*
X58375000Y-55580000D01*
X58381000Y-55580000D01*
X58388000Y-55581000D01*
X58394000Y-55581000D01*
X58400000Y-55583000D01*
X58406000Y-55584000D01*
X58412000Y-55586000D01*
X58418000Y-55588000D01*
X58424000Y-55590000D01*
X58429000Y-55593000D01*
X58435000Y-55596000D01*
X58440000Y-55599000D01*
X58446000Y-55603000D01*
X58451000Y-55607000D01*
X58455000Y-55611000D01*
X58460000Y-55615000D01*
X58464000Y-55620000D01*
X58468000Y-55624000D01*
X58472000Y-55629000D01*
X58476000Y-55635000D01*
X58479000Y-55640000D01*
X58482000Y-55646000D01*
X58485000Y-55651000D01*
X58487000Y-55657000D01*
X58489000Y-55663000D01*
X58491000Y-55669000D01*
X58492000Y-55675000D01*
X58494000Y-55681000D01*
X58494000Y-55687000D01*
X58495000Y-55694000D01*
X58495000Y-55700000D01*
G36*
X58495000Y-56700000D02*
G01*
X58495000Y-56850000D01*
X58495000Y-56856000D01*
X58494000Y-56863000D01*
X58494000Y-56869000D01*
X58492000Y-56875000D01*
X58491000Y-56881000D01*
X58489000Y-56887000D01*
X58487000Y-56893000D01*
X58485000Y-56899000D01*
X58482000Y-56904000D01*
X58479000Y-56910000D01*
X58476000Y-56915000D01*
X58472000Y-56921000D01*
X58468000Y-56926000D01*
X58464000Y-56930000D01*
X58460000Y-56935000D01*
X58455000Y-56939000D01*
X58451000Y-56943000D01*
X58446000Y-56947000D01*
X58440000Y-56951000D01*
X58435000Y-56954000D01*
X58429000Y-56957000D01*
X58424000Y-56960000D01*
X58418000Y-56962000D01*
X58412000Y-56964000D01*
X58406000Y-56966000D01*
X58400000Y-56967000D01*
X58394000Y-56969000D01*
X58388000Y-56969000D01*
X58381000Y-56970000D01*
X58375000Y-56970000D01*
X57575000Y-56970000D01*
X57569000Y-56970000D01*
X57562000Y-56969000D01*
X57556000Y-56969000D01*
X57550000Y-56967000D01*
X57544000Y-56966000D01*
X57538000Y-56964000D01*
X57532000Y-56962000D01*
X57526000Y-56960000D01*
X57521000Y-56957000D01*
X57515000Y-56954000D01*
X57510000Y-56951000D01*
X57504000Y-56947000D01*
X57499000Y-56943000D01*
X57495000Y-56939000D01*
X57490000Y-56935000D01*
X57486000Y-56930000D01*
X57482000Y-56926000D01*
X57478000Y-56921000D01*
X57474000Y-56915000D01*
X57471000Y-56910000D01*
X57468000Y-56904000D01*
X57465000Y-56899000D01*
X57463000Y-56893000D01*
X57461000Y-56887000D01*
X57459000Y-56881000D01*
X57458000Y-56875000D01*
X57456000Y-56869000D01*
X57456000Y-56863000D01*
X57455000Y-56856000D01*
X57455000Y-56850000D01*
X57455000Y-56700000D01*
X57455000Y-56694000D01*
X57456000Y-56687000D01*
X57456000Y-56681000D01*
X57458000Y-56675000D01*
X57459000Y-56669000D01*
X57461000Y-56663000D01*
X57463000Y-56657000D01*
X57465000Y-56651000D01*
X57468000Y-56646000D01*
X57471000Y-56640000D01*
X57474000Y-56635000D01*
X57478000Y-56629000D01*
X57482000Y-56624000D01*
X57486000Y-56620000D01*
X57490000Y-56615000D01*
X57495000Y-56611000D01*
X57499000Y-56607000D01*
X57504000Y-56603000D01*
X57510000Y-56599000D01*
X57515000Y-56596000D01*
X57521000Y-56593000D01*
X57526000Y-56590000D01*
X57532000Y-56588000D01*
X57538000Y-56586000D01*
X57544000Y-56584000D01*
X57550000Y-56583000D01*
X57556000Y-56581000D01*
X57562000Y-56581000D01*
X57569000Y-56580000D01*
X57575000Y-56580000D01*
X58375000Y-56580000D01*
X58381000Y-56580000D01*
X58388000Y-56581000D01*
X58394000Y-56581000D01*
X58400000Y-56583000D01*
X58406000Y-56584000D01*
X58412000Y-56586000D01*
X58418000Y-56588000D01*
X58424000Y-56590000D01*
X58429000Y-56593000D01*
X58435000Y-56596000D01*
X58440000Y-56599000D01*
X58446000Y-56603000D01*
X58451000Y-56607000D01*
X58455000Y-56611000D01*
X58460000Y-56615000D01*
X58464000Y-56620000D01*
X58468000Y-56624000D01*
X58472000Y-56629000D01*
X58476000Y-56635000D01*
X58479000Y-56640000D01*
X58482000Y-56646000D01*
X58485000Y-56651000D01*
X58487000Y-56657000D01*
X58489000Y-56663000D01*
X58491000Y-56669000D01*
X58492000Y-56675000D01*
X58494000Y-56681000D01*
X58494000Y-56687000D01*
X58495000Y-56694000D01*
X58495000Y-56700000D01*
G37*
X58495000Y-56700000D02*
X58495000Y-56850000D01*
X58495000Y-56856000D01*
X58494000Y-56863000D01*
X58494000Y-56869000D01*
X58492000Y-56875000D01*
X58491000Y-56881000D01*
X58489000Y-56887000D01*
X58487000Y-56893000D01*
X58485000Y-56899000D01*
X58482000Y-56904000D01*
X58479000Y-56910000D01*
X58476000Y-56915000D01*
X58472000Y-56921000D01*
X58468000Y-56926000D01*
X58464000Y-56930000D01*
X58460000Y-56935000D01*
X58455000Y-56939000D01*
X58451000Y-56943000D01*
X58446000Y-56947000D01*
X58440000Y-56951000D01*
X58435000Y-56954000D01*
X58429000Y-56957000D01*
X58424000Y-56960000D01*
X58418000Y-56962000D01*
X58412000Y-56964000D01*
X58406000Y-56966000D01*
X58400000Y-56967000D01*
X58394000Y-56969000D01*
X58388000Y-56969000D01*
X58381000Y-56970000D01*
X58375000Y-56970000D01*
X57575000Y-56970000D01*
X57569000Y-56970000D01*
X57562000Y-56969000D01*
X57556000Y-56969000D01*
X57550000Y-56967000D01*
X57544000Y-56966000D01*
X57538000Y-56964000D01*
X57532000Y-56962000D01*
X57526000Y-56960000D01*
X57521000Y-56957000D01*
X57515000Y-56954000D01*
X57510000Y-56951000D01*
X57504000Y-56947000D01*
X57499000Y-56943000D01*
X57495000Y-56939000D01*
X57490000Y-56935000D01*
X57486000Y-56930000D01*
X57482000Y-56926000D01*
X57478000Y-56921000D01*
X57474000Y-56915000D01*
X57471000Y-56910000D01*
X57468000Y-56904000D01*
X57465000Y-56899000D01*
X57463000Y-56893000D01*
X57461000Y-56887000D01*
X57459000Y-56881000D01*
X57458000Y-56875000D01*
X57456000Y-56869000D01*
X57456000Y-56863000D01*
X57455000Y-56856000D01*
X57455000Y-56850000D01*
X57455000Y-56700000D01*
X57455000Y-56694000D01*
X57456000Y-56687000D01*
X57456000Y-56681000D01*
X57458000Y-56675000D01*
X57459000Y-56669000D01*
X57461000Y-56663000D01*
X57463000Y-56657000D01*
X57465000Y-56651000D01*
X57468000Y-56646000D01*
X57471000Y-56640000D01*
X57474000Y-56635000D01*
X57478000Y-56629000D01*
X57482000Y-56624000D01*
X57486000Y-56620000D01*
X57490000Y-56615000D01*
X57495000Y-56611000D01*
X57499000Y-56607000D01*
X57504000Y-56603000D01*
X57510000Y-56599000D01*
X57515000Y-56596000D01*
X57521000Y-56593000D01*
X57526000Y-56590000D01*
X57532000Y-56588000D01*
X57538000Y-56586000D01*
X57544000Y-56584000D01*
X57550000Y-56583000D01*
X57556000Y-56581000D01*
X57562000Y-56581000D01*
X57569000Y-56580000D01*
X57575000Y-56580000D01*
X58375000Y-56580000D01*
X58381000Y-56580000D01*
X58388000Y-56581000D01*
X58394000Y-56581000D01*
X58400000Y-56583000D01*
X58406000Y-56584000D01*
X58412000Y-56586000D01*
X58418000Y-56588000D01*
X58424000Y-56590000D01*
X58429000Y-56593000D01*
X58435000Y-56596000D01*
X58440000Y-56599000D01*
X58446000Y-56603000D01*
X58451000Y-56607000D01*
X58455000Y-56611000D01*
X58460000Y-56615000D01*
X58464000Y-56620000D01*
X58468000Y-56624000D01*
X58472000Y-56629000D01*
X58476000Y-56635000D01*
X58479000Y-56640000D01*
X58482000Y-56646000D01*
X58485000Y-56651000D01*
X58487000Y-56657000D01*
X58489000Y-56663000D01*
X58491000Y-56669000D01*
X58492000Y-56675000D01*
X58494000Y-56681000D01*
X58494000Y-56687000D01*
X58495000Y-56694000D01*
X58495000Y-56700000D01*
G36*
X58495000Y-56200000D02*
G01*
X58495000Y-56350000D01*
X58495000Y-56356000D01*
X58494000Y-56363000D01*
X58494000Y-56369000D01*
X58492000Y-56375000D01*
X58491000Y-56381000D01*
X58489000Y-56387000D01*
X58487000Y-56393000D01*
X58485000Y-56399000D01*
X58482000Y-56404000D01*
X58479000Y-56410000D01*
X58476000Y-56415000D01*
X58472000Y-56421000D01*
X58468000Y-56426000D01*
X58464000Y-56430000D01*
X58460000Y-56435000D01*
X58455000Y-56439000D01*
X58451000Y-56443000D01*
X58446000Y-56447000D01*
X58440000Y-56451000D01*
X58435000Y-56454000D01*
X58429000Y-56457000D01*
X58424000Y-56460000D01*
X58418000Y-56462000D01*
X58412000Y-56464000D01*
X58406000Y-56466000D01*
X58400000Y-56467000D01*
X58394000Y-56469000D01*
X58388000Y-56469000D01*
X58381000Y-56470000D01*
X58375000Y-56470000D01*
X57575000Y-56470000D01*
X57569000Y-56470000D01*
X57562000Y-56469000D01*
X57556000Y-56469000D01*
X57550000Y-56467000D01*
X57544000Y-56466000D01*
X57538000Y-56464000D01*
X57532000Y-56462000D01*
X57526000Y-56460000D01*
X57521000Y-56457000D01*
X57515000Y-56454000D01*
X57510000Y-56451000D01*
X57504000Y-56447000D01*
X57499000Y-56443000D01*
X57495000Y-56439000D01*
X57490000Y-56435000D01*
X57486000Y-56430000D01*
X57482000Y-56426000D01*
X57478000Y-56421000D01*
X57474000Y-56415000D01*
X57471000Y-56410000D01*
X57468000Y-56404000D01*
X57465000Y-56399000D01*
X57463000Y-56393000D01*
X57461000Y-56387000D01*
X57459000Y-56381000D01*
X57458000Y-56375000D01*
X57456000Y-56369000D01*
X57456000Y-56363000D01*
X57455000Y-56356000D01*
X57455000Y-56350000D01*
X57455000Y-56200000D01*
X57455000Y-56194000D01*
X57456000Y-56187000D01*
X57456000Y-56181000D01*
X57458000Y-56175000D01*
X57459000Y-56169000D01*
X57461000Y-56163000D01*
X57463000Y-56157000D01*
X57465000Y-56151000D01*
X57468000Y-56146000D01*
X57471000Y-56140000D01*
X57474000Y-56135000D01*
X57478000Y-56129000D01*
X57482000Y-56124000D01*
X57486000Y-56120000D01*
X57490000Y-56115000D01*
X57495000Y-56111000D01*
X57499000Y-56107000D01*
X57504000Y-56103000D01*
X57510000Y-56099000D01*
X57515000Y-56096000D01*
X57521000Y-56093000D01*
X57526000Y-56090000D01*
X57532000Y-56088000D01*
X57538000Y-56086000D01*
X57544000Y-56084000D01*
X57550000Y-56083000D01*
X57556000Y-56081000D01*
X57562000Y-56081000D01*
X57569000Y-56080000D01*
X57575000Y-56080000D01*
X58375000Y-56080000D01*
X58381000Y-56080000D01*
X58388000Y-56081000D01*
X58394000Y-56081000D01*
X58400000Y-56083000D01*
X58406000Y-56084000D01*
X58412000Y-56086000D01*
X58418000Y-56088000D01*
X58424000Y-56090000D01*
X58429000Y-56093000D01*
X58435000Y-56096000D01*
X58440000Y-56099000D01*
X58446000Y-56103000D01*
X58451000Y-56107000D01*
X58455000Y-56111000D01*
X58460000Y-56115000D01*
X58464000Y-56120000D01*
X58468000Y-56124000D01*
X58472000Y-56129000D01*
X58476000Y-56135000D01*
X58479000Y-56140000D01*
X58482000Y-56146000D01*
X58485000Y-56151000D01*
X58487000Y-56157000D01*
X58489000Y-56163000D01*
X58491000Y-56169000D01*
X58492000Y-56175000D01*
X58494000Y-56181000D01*
X58494000Y-56187000D01*
X58495000Y-56194000D01*
X58495000Y-56200000D01*
G37*
X58495000Y-56200000D02*
X58495000Y-56350000D01*
X58495000Y-56356000D01*
X58494000Y-56363000D01*
X58494000Y-56369000D01*
X58492000Y-56375000D01*
X58491000Y-56381000D01*
X58489000Y-56387000D01*
X58487000Y-56393000D01*
X58485000Y-56399000D01*
X58482000Y-56404000D01*
X58479000Y-56410000D01*
X58476000Y-56415000D01*
X58472000Y-56421000D01*
X58468000Y-56426000D01*
X58464000Y-56430000D01*
X58460000Y-56435000D01*
X58455000Y-56439000D01*
X58451000Y-56443000D01*
X58446000Y-56447000D01*
X58440000Y-56451000D01*
X58435000Y-56454000D01*
X58429000Y-56457000D01*
X58424000Y-56460000D01*
X58418000Y-56462000D01*
X58412000Y-56464000D01*
X58406000Y-56466000D01*
X58400000Y-56467000D01*
X58394000Y-56469000D01*
X58388000Y-56469000D01*
X58381000Y-56470000D01*
X58375000Y-56470000D01*
X57575000Y-56470000D01*
X57569000Y-56470000D01*
X57562000Y-56469000D01*
X57556000Y-56469000D01*
X57550000Y-56467000D01*
X57544000Y-56466000D01*
X57538000Y-56464000D01*
X57532000Y-56462000D01*
X57526000Y-56460000D01*
X57521000Y-56457000D01*
X57515000Y-56454000D01*
X57510000Y-56451000D01*
X57504000Y-56447000D01*
X57499000Y-56443000D01*
X57495000Y-56439000D01*
X57490000Y-56435000D01*
X57486000Y-56430000D01*
X57482000Y-56426000D01*
X57478000Y-56421000D01*
X57474000Y-56415000D01*
X57471000Y-56410000D01*
X57468000Y-56404000D01*
X57465000Y-56399000D01*
X57463000Y-56393000D01*
X57461000Y-56387000D01*
X57459000Y-56381000D01*
X57458000Y-56375000D01*
X57456000Y-56369000D01*
X57456000Y-56363000D01*
X57455000Y-56356000D01*
X57455000Y-56350000D01*
X57455000Y-56200000D01*
X57455000Y-56194000D01*
X57456000Y-56187000D01*
X57456000Y-56181000D01*
X57458000Y-56175000D01*
X57459000Y-56169000D01*
X57461000Y-56163000D01*
X57463000Y-56157000D01*
X57465000Y-56151000D01*
X57468000Y-56146000D01*
X57471000Y-56140000D01*
X57474000Y-56135000D01*
X57478000Y-56129000D01*
X57482000Y-56124000D01*
X57486000Y-56120000D01*
X57490000Y-56115000D01*
X57495000Y-56111000D01*
X57499000Y-56107000D01*
X57504000Y-56103000D01*
X57510000Y-56099000D01*
X57515000Y-56096000D01*
X57521000Y-56093000D01*
X57526000Y-56090000D01*
X57532000Y-56088000D01*
X57538000Y-56086000D01*
X57544000Y-56084000D01*
X57550000Y-56083000D01*
X57556000Y-56081000D01*
X57562000Y-56081000D01*
X57569000Y-56080000D01*
X57575000Y-56080000D01*
X58375000Y-56080000D01*
X58381000Y-56080000D01*
X58388000Y-56081000D01*
X58394000Y-56081000D01*
X58400000Y-56083000D01*
X58406000Y-56084000D01*
X58412000Y-56086000D01*
X58418000Y-56088000D01*
X58424000Y-56090000D01*
X58429000Y-56093000D01*
X58435000Y-56096000D01*
X58440000Y-56099000D01*
X58446000Y-56103000D01*
X58451000Y-56107000D01*
X58455000Y-56111000D01*
X58460000Y-56115000D01*
X58464000Y-56120000D01*
X58468000Y-56124000D01*
X58472000Y-56129000D01*
X58476000Y-56135000D01*
X58479000Y-56140000D01*
X58482000Y-56146000D01*
X58485000Y-56151000D01*
X58487000Y-56157000D01*
X58489000Y-56163000D01*
X58491000Y-56169000D01*
X58492000Y-56175000D01*
X58494000Y-56181000D01*
X58494000Y-56187000D01*
X58495000Y-56194000D01*
X58495000Y-56200000D01*
G36*
X58495000Y-55200000D02*
G01*
X58495000Y-55350000D01*
X58495000Y-55356000D01*
X58494000Y-55363000D01*
X58494000Y-55369000D01*
X58492000Y-55375000D01*
X58491000Y-55381000D01*
X58489000Y-55387000D01*
X58487000Y-55393000D01*
X58485000Y-55399000D01*
X58482000Y-55404000D01*
X58479000Y-55410000D01*
X58476000Y-55415000D01*
X58472000Y-55421000D01*
X58468000Y-55426000D01*
X58464000Y-55430000D01*
X58460000Y-55435000D01*
X58455000Y-55439000D01*
X58451000Y-55443000D01*
X58446000Y-55447000D01*
X58440000Y-55451000D01*
X58435000Y-55454000D01*
X58429000Y-55457000D01*
X58424000Y-55460000D01*
X58418000Y-55462000D01*
X58412000Y-55464000D01*
X58406000Y-55466000D01*
X58400000Y-55467000D01*
X58394000Y-55469000D01*
X58388000Y-55469000D01*
X58381000Y-55470000D01*
X58375000Y-55470000D01*
X57575000Y-55470000D01*
X57569000Y-55470000D01*
X57562000Y-55469000D01*
X57556000Y-55469000D01*
X57550000Y-55467000D01*
X57544000Y-55466000D01*
X57538000Y-55464000D01*
X57532000Y-55462000D01*
X57526000Y-55460000D01*
X57521000Y-55457000D01*
X57515000Y-55454000D01*
X57510000Y-55451000D01*
X57504000Y-55447000D01*
X57499000Y-55443000D01*
X57495000Y-55439000D01*
X57490000Y-55435000D01*
X57486000Y-55430000D01*
X57482000Y-55426000D01*
X57478000Y-55421000D01*
X57474000Y-55415000D01*
X57471000Y-55410000D01*
X57468000Y-55404000D01*
X57465000Y-55399000D01*
X57463000Y-55393000D01*
X57461000Y-55387000D01*
X57459000Y-55381000D01*
X57458000Y-55375000D01*
X57456000Y-55369000D01*
X57456000Y-55363000D01*
X57455000Y-55356000D01*
X57455000Y-55350000D01*
X57455000Y-55200000D01*
X57455000Y-55194000D01*
X57456000Y-55187000D01*
X57456000Y-55181000D01*
X57458000Y-55175000D01*
X57459000Y-55169000D01*
X57461000Y-55163000D01*
X57463000Y-55157000D01*
X57465000Y-55151000D01*
X57468000Y-55146000D01*
X57471000Y-55140000D01*
X57474000Y-55135000D01*
X57478000Y-55129000D01*
X57482000Y-55124000D01*
X57486000Y-55120000D01*
X57490000Y-55115000D01*
X57495000Y-55111000D01*
X57499000Y-55107000D01*
X57504000Y-55103000D01*
X57510000Y-55099000D01*
X57515000Y-55096000D01*
X57521000Y-55093000D01*
X57526000Y-55090000D01*
X57532000Y-55088000D01*
X57538000Y-55086000D01*
X57544000Y-55084000D01*
X57550000Y-55083000D01*
X57556000Y-55081000D01*
X57562000Y-55081000D01*
X57569000Y-55080000D01*
X57575000Y-55080000D01*
X58375000Y-55080000D01*
X58381000Y-55080000D01*
X58388000Y-55081000D01*
X58394000Y-55081000D01*
X58400000Y-55083000D01*
X58406000Y-55084000D01*
X58412000Y-55086000D01*
X58418000Y-55088000D01*
X58424000Y-55090000D01*
X58429000Y-55093000D01*
X58435000Y-55096000D01*
X58440000Y-55099000D01*
X58446000Y-55103000D01*
X58451000Y-55107000D01*
X58455000Y-55111000D01*
X58460000Y-55115000D01*
X58464000Y-55120000D01*
X58468000Y-55124000D01*
X58472000Y-55129000D01*
X58476000Y-55135000D01*
X58479000Y-55140000D01*
X58482000Y-55146000D01*
X58485000Y-55151000D01*
X58487000Y-55157000D01*
X58489000Y-55163000D01*
X58491000Y-55169000D01*
X58492000Y-55175000D01*
X58494000Y-55181000D01*
X58494000Y-55187000D01*
X58495000Y-55194000D01*
X58495000Y-55200000D01*
G37*
X58495000Y-55200000D02*
X58495000Y-55350000D01*
X58495000Y-55356000D01*
X58494000Y-55363000D01*
X58494000Y-55369000D01*
X58492000Y-55375000D01*
X58491000Y-55381000D01*
X58489000Y-55387000D01*
X58487000Y-55393000D01*
X58485000Y-55399000D01*
X58482000Y-55404000D01*
X58479000Y-55410000D01*
X58476000Y-55415000D01*
X58472000Y-55421000D01*
X58468000Y-55426000D01*
X58464000Y-55430000D01*
X58460000Y-55435000D01*
X58455000Y-55439000D01*
X58451000Y-55443000D01*
X58446000Y-55447000D01*
X58440000Y-55451000D01*
X58435000Y-55454000D01*
X58429000Y-55457000D01*
X58424000Y-55460000D01*
X58418000Y-55462000D01*
X58412000Y-55464000D01*
X58406000Y-55466000D01*
X58400000Y-55467000D01*
X58394000Y-55469000D01*
X58388000Y-55469000D01*
X58381000Y-55470000D01*
X58375000Y-55470000D01*
X57575000Y-55470000D01*
X57569000Y-55470000D01*
X57562000Y-55469000D01*
X57556000Y-55469000D01*
X57550000Y-55467000D01*
X57544000Y-55466000D01*
X57538000Y-55464000D01*
X57532000Y-55462000D01*
X57526000Y-55460000D01*
X57521000Y-55457000D01*
X57515000Y-55454000D01*
X57510000Y-55451000D01*
X57504000Y-55447000D01*
X57499000Y-55443000D01*
X57495000Y-55439000D01*
X57490000Y-55435000D01*
X57486000Y-55430000D01*
X57482000Y-55426000D01*
X57478000Y-55421000D01*
X57474000Y-55415000D01*
X57471000Y-55410000D01*
X57468000Y-55404000D01*
X57465000Y-55399000D01*
X57463000Y-55393000D01*
X57461000Y-55387000D01*
X57459000Y-55381000D01*
X57458000Y-55375000D01*
X57456000Y-55369000D01*
X57456000Y-55363000D01*
X57455000Y-55356000D01*
X57455000Y-55350000D01*
X57455000Y-55200000D01*
X57455000Y-55194000D01*
X57456000Y-55187000D01*
X57456000Y-55181000D01*
X57458000Y-55175000D01*
X57459000Y-55169000D01*
X57461000Y-55163000D01*
X57463000Y-55157000D01*
X57465000Y-55151000D01*
X57468000Y-55146000D01*
X57471000Y-55140000D01*
X57474000Y-55135000D01*
X57478000Y-55129000D01*
X57482000Y-55124000D01*
X57486000Y-55120000D01*
X57490000Y-55115000D01*
X57495000Y-55111000D01*
X57499000Y-55107000D01*
X57504000Y-55103000D01*
X57510000Y-55099000D01*
X57515000Y-55096000D01*
X57521000Y-55093000D01*
X57526000Y-55090000D01*
X57532000Y-55088000D01*
X57538000Y-55086000D01*
X57544000Y-55084000D01*
X57550000Y-55083000D01*
X57556000Y-55081000D01*
X57562000Y-55081000D01*
X57569000Y-55080000D01*
X57575000Y-55080000D01*
X58375000Y-55080000D01*
X58381000Y-55080000D01*
X58388000Y-55081000D01*
X58394000Y-55081000D01*
X58400000Y-55083000D01*
X58406000Y-55084000D01*
X58412000Y-55086000D01*
X58418000Y-55088000D01*
X58424000Y-55090000D01*
X58429000Y-55093000D01*
X58435000Y-55096000D01*
X58440000Y-55099000D01*
X58446000Y-55103000D01*
X58451000Y-55107000D01*
X58455000Y-55111000D01*
X58460000Y-55115000D01*
X58464000Y-55120000D01*
X58468000Y-55124000D01*
X58472000Y-55129000D01*
X58476000Y-55135000D01*
X58479000Y-55140000D01*
X58482000Y-55146000D01*
X58485000Y-55151000D01*
X58487000Y-55157000D01*
X58489000Y-55163000D01*
X58491000Y-55169000D01*
X58492000Y-55175000D01*
X58494000Y-55181000D01*
X58494000Y-55187000D01*
X58495000Y-55194000D01*
X58495000Y-55200000D01*
G36*
X58495000Y-54700000D02*
G01*
X58495000Y-54850000D01*
X58495000Y-54856000D01*
X58494000Y-54863000D01*
X58494000Y-54869000D01*
X58492000Y-54875000D01*
X58491000Y-54881000D01*
X58489000Y-54887000D01*
X58487000Y-54893000D01*
X58485000Y-54899000D01*
X58482000Y-54904000D01*
X58479000Y-54910000D01*
X58476000Y-54915000D01*
X58472000Y-54921000D01*
X58468000Y-54926000D01*
X58464000Y-54930000D01*
X58460000Y-54935000D01*
X58455000Y-54939000D01*
X58451000Y-54943000D01*
X58446000Y-54947000D01*
X58440000Y-54951000D01*
X58435000Y-54954000D01*
X58429000Y-54957000D01*
X58424000Y-54960000D01*
X58418000Y-54962000D01*
X58412000Y-54964000D01*
X58406000Y-54966000D01*
X58400000Y-54967000D01*
X58394000Y-54969000D01*
X58388000Y-54969000D01*
X58381000Y-54970000D01*
X58375000Y-54970000D01*
X57575000Y-54970000D01*
X57569000Y-54970000D01*
X57562000Y-54969000D01*
X57556000Y-54969000D01*
X57550000Y-54967000D01*
X57544000Y-54966000D01*
X57538000Y-54964000D01*
X57532000Y-54962000D01*
X57526000Y-54960000D01*
X57521000Y-54957000D01*
X57515000Y-54954000D01*
X57510000Y-54951000D01*
X57504000Y-54947000D01*
X57499000Y-54943000D01*
X57495000Y-54939000D01*
X57490000Y-54935000D01*
X57486000Y-54930000D01*
X57482000Y-54926000D01*
X57478000Y-54921000D01*
X57474000Y-54915000D01*
X57471000Y-54910000D01*
X57468000Y-54904000D01*
X57465000Y-54899000D01*
X57463000Y-54893000D01*
X57461000Y-54887000D01*
X57459000Y-54881000D01*
X57458000Y-54875000D01*
X57456000Y-54869000D01*
X57456000Y-54863000D01*
X57455000Y-54856000D01*
X57455000Y-54850000D01*
X57455000Y-54700000D01*
X57455000Y-54694000D01*
X57456000Y-54687000D01*
X57456000Y-54681000D01*
X57458000Y-54675000D01*
X57459000Y-54669000D01*
X57461000Y-54663000D01*
X57463000Y-54657000D01*
X57465000Y-54651000D01*
X57468000Y-54646000D01*
X57471000Y-54640000D01*
X57474000Y-54635000D01*
X57478000Y-54629000D01*
X57482000Y-54624000D01*
X57486000Y-54620000D01*
X57490000Y-54615000D01*
X57495000Y-54611000D01*
X57499000Y-54607000D01*
X57504000Y-54603000D01*
X57510000Y-54599000D01*
X57515000Y-54596000D01*
X57521000Y-54593000D01*
X57526000Y-54590000D01*
X57532000Y-54588000D01*
X57538000Y-54586000D01*
X57544000Y-54584000D01*
X57550000Y-54583000D01*
X57556000Y-54581000D01*
X57562000Y-54581000D01*
X57569000Y-54580000D01*
X57575000Y-54580000D01*
X58375000Y-54580000D01*
X58381000Y-54580000D01*
X58388000Y-54581000D01*
X58394000Y-54581000D01*
X58400000Y-54583000D01*
X58406000Y-54584000D01*
X58412000Y-54586000D01*
X58418000Y-54588000D01*
X58424000Y-54590000D01*
X58429000Y-54593000D01*
X58435000Y-54596000D01*
X58440000Y-54599000D01*
X58446000Y-54603000D01*
X58451000Y-54607000D01*
X58455000Y-54611000D01*
X58460000Y-54615000D01*
X58464000Y-54620000D01*
X58468000Y-54624000D01*
X58472000Y-54629000D01*
X58476000Y-54635000D01*
X58479000Y-54640000D01*
X58482000Y-54646000D01*
X58485000Y-54651000D01*
X58487000Y-54657000D01*
X58489000Y-54663000D01*
X58491000Y-54669000D01*
X58492000Y-54675000D01*
X58494000Y-54681000D01*
X58494000Y-54687000D01*
X58495000Y-54694000D01*
X58495000Y-54700000D01*
G37*
X58495000Y-54700000D02*
X58495000Y-54850000D01*
X58495000Y-54856000D01*
X58494000Y-54863000D01*
X58494000Y-54869000D01*
X58492000Y-54875000D01*
X58491000Y-54881000D01*
X58489000Y-54887000D01*
X58487000Y-54893000D01*
X58485000Y-54899000D01*
X58482000Y-54904000D01*
X58479000Y-54910000D01*
X58476000Y-54915000D01*
X58472000Y-54921000D01*
X58468000Y-54926000D01*
X58464000Y-54930000D01*
X58460000Y-54935000D01*
X58455000Y-54939000D01*
X58451000Y-54943000D01*
X58446000Y-54947000D01*
X58440000Y-54951000D01*
X58435000Y-54954000D01*
X58429000Y-54957000D01*
X58424000Y-54960000D01*
X58418000Y-54962000D01*
X58412000Y-54964000D01*
X58406000Y-54966000D01*
X58400000Y-54967000D01*
X58394000Y-54969000D01*
X58388000Y-54969000D01*
X58381000Y-54970000D01*
X58375000Y-54970000D01*
X57575000Y-54970000D01*
X57569000Y-54970000D01*
X57562000Y-54969000D01*
X57556000Y-54969000D01*
X57550000Y-54967000D01*
X57544000Y-54966000D01*
X57538000Y-54964000D01*
X57532000Y-54962000D01*
X57526000Y-54960000D01*
X57521000Y-54957000D01*
X57515000Y-54954000D01*
X57510000Y-54951000D01*
X57504000Y-54947000D01*
X57499000Y-54943000D01*
X57495000Y-54939000D01*
X57490000Y-54935000D01*
X57486000Y-54930000D01*
X57482000Y-54926000D01*
X57478000Y-54921000D01*
X57474000Y-54915000D01*
X57471000Y-54910000D01*
X57468000Y-54904000D01*
X57465000Y-54899000D01*
X57463000Y-54893000D01*
X57461000Y-54887000D01*
X57459000Y-54881000D01*
X57458000Y-54875000D01*
X57456000Y-54869000D01*
X57456000Y-54863000D01*
X57455000Y-54856000D01*
X57455000Y-54850000D01*
X57455000Y-54700000D01*
X57455000Y-54694000D01*
X57456000Y-54687000D01*
X57456000Y-54681000D01*
X57458000Y-54675000D01*
X57459000Y-54669000D01*
X57461000Y-54663000D01*
X57463000Y-54657000D01*
X57465000Y-54651000D01*
X57468000Y-54646000D01*
X57471000Y-54640000D01*
X57474000Y-54635000D01*
X57478000Y-54629000D01*
X57482000Y-54624000D01*
X57486000Y-54620000D01*
X57490000Y-54615000D01*
X57495000Y-54611000D01*
X57499000Y-54607000D01*
X57504000Y-54603000D01*
X57510000Y-54599000D01*
X57515000Y-54596000D01*
X57521000Y-54593000D01*
X57526000Y-54590000D01*
X57532000Y-54588000D01*
X57538000Y-54586000D01*
X57544000Y-54584000D01*
X57550000Y-54583000D01*
X57556000Y-54581000D01*
X57562000Y-54581000D01*
X57569000Y-54580000D01*
X57575000Y-54580000D01*
X58375000Y-54580000D01*
X58381000Y-54580000D01*
X58388000Y-54581000D01*
X58394000Y-54581000D01*
X58400000Y-54583000D01*
X58406000Y-54584000D01*
X58412000Y-54586000D01*
X58418000Y-54588000D01*
X58424000Y-54590000D01*
X58429000Y-54593000D01*
X58435000Y-54596000D01*
X58440000Y-54599000D01*
X58446000Y-54603000D01*
X58451000Y-54607000D01*
X58455000Y-54611000D01*
X58460000Y-54615000D01*
X58464000Y-54620000D01*
X58468000Y-54624000D01*
X58472000Y-54629000D01*
X58476000Y-54635000D01*
X58479000Y-54640000D01*
X58482000Y-54646000D01*
X58485000Y-54651000D01*
X58487000Y-54657000D01*
X58489000Y-54663000D01*
X58491000Y-54669000D01*
X58492000Y-54675000D01*
X58494000Y-54681000D01*
X58494000Y-54687000D01*
X58495000Y-54694000D01*
X58495000Y-54700000D01*
%TD*%
%TO.C,C21*%
G36*
G01*
X109600000Y-63175000D02*
X109600000Y-62675000D01*
G75*
G02*
X109825000Y-62450000I225000J0D01*
G01*
X110275000Y-62450000D01*
G75*
G02*
X110500000Y-62675000I0J-225000D01*
G01*
X110500000Y-63175000D01*
G75*
G02*
X110275000Y-63400000I-225000J0D01*
G01*
X109825000Y-63400000D01*
G75*
G02*
X109600000Y-63175000I0J225000D01*
G01*
G37*
G36*
G01*
X108050000Y-63175000D02*
X108050000Y-62675000D01*
G75*
G02*
X108275000Y-62450000I225000J0D01*
G01*
X108725000Y-62450000D01*
G75*
G02*
X108950000Y-62675000I0J-225000D01*
G01*
X108950000Y-63175000D01*
G75*
G02*
X108725000Y-63400000I-225000J0D01*
G01*
X108275000Y-63400000D01*
G75*
G02*
X108050000Y-63175000I0J225000D01*
G01*
G37*
%TD*%
%TO.C,C13*%
G36*
G01*
X53580000Y-67600000D02*
X53920000Y-67600000D01*
G75*
G02*
X54060000Y-67740000I0J-140000D01*
G01*
X54060000Y-68020000D01*
G75*
G02*
X53920000Y-68160000I-140000J0D01*
G01*
X53580000Y-68160000D01*
G75*
G02*
X53440000Y-68020000I0J140000D01*
G01*
X53440000Y-67740000D01*
G75*
G02*
X53580000Y-67600000I140000J0D01*
G01*
G37*
G36*
G01*
X53580000Y-66640000D02*
X53920000Y-66640000D01*
G75*
G02*
X54060000Y-66780000I0J-140000D01*
G01*
X54060000Y-67060000D01*
G75*
G02*
X53920000Y-67200000I-140000J0D01*
G01*
X53580000Y-67200000D01*
G75*
G02*
X53440000Y-67060000I0J140000D01*
G01*
X53440000Y-66780000D01*
G75*
G02*
X53580000Y-66640000I140000J0D01*
G01*
G37*
%TD*%
%TO.C,C11*%
G36*
G01*
X52630000Y-67875000D02*
X52970000Y-67875000D01*
G75*
G02*
X53110000Y-68015000I0J-140000D01*
G01*
X53110000Y-68295000D01*
G75*
G02*
X52970000Y-68435000I-140000J0D01*
G01*
X52630000Y-68435000D01*
G75*
G02*
X52490000Y-68295000I0J140000D01*
G01*
X52490000Y-68015000D01*
G75*
G02*
X52630000Y-67875000I140000J0D01*
G01*
G37*
G36*
G01*
X52630000Y-66915000D02*
X52970000Y-66915000D01*
G75*
G02*
X53110000Y-67055000I0J-140000D01*
G01*
X53110000Y-67335000D01*
G75*
G02*
X52970000Y-67475000I-140000J0D01*
G01*
X52630000Y-67475000D01*
G75*
G02*
X52490000Y-67335000I0J140000D01*
G01*
X52490000Y-67055000D01*
G75*
G02*
X52630000Y-66915000I140000J0D01*
G01*
G37*
%TD*%
%TO.C,C10*%
G36*
G01*
X54900000Y-68230000D02*
X54900000Y-68570000D01*
G75*
G02*
X54760000Y-68710000I-140000J0D01*
G01*
X54480000Y-68710000D01*
G75*
G02*
X54340000Y-68570000I0J140000D01*
G01*
X54340000Y-68230000D01*
G75*
G02*
X54480000Y-68090000I140000J0D01*
G01*
X54760000Y-68090000D01*
G75*
G02*
X54900000Y-68230000I0J-140000D01*
G01*
G37*
G36*
G01*
X55860000Y-68230000D02*
X55860000Y-68570000D01*
G75*
G02*
X55720000Y-68710000I-140000J0D01*
G01*
X55440000Y-68710000D01*
G75*
G02*
X55300000Y-68570000I0J140000D01*
G01*
X55300000Y-68230000D01*
G75*
G02*
X55440000Y-68090000I140000J0D01*
G01*
X55720000Y-68090000D01*
G75*
G02*
X55860000Y-68230000I0J-140000D01*
G01*
G37*
%TD*%
%TO.C,C1*%
G36*
G01*
X120210000Y-60377500D02*
X120210000Y-60722500D01*
G75*
G02*
X120062500Y-60870000I-147500J0D01*
G01*
X119767500Y-60870000D01*
G75*
G02*
X119620000Y-60722500I0J147500D01*
G01*
X119620000Y-60377500D01*
G75*
G02*
X119767500Y-60230000I147500J0D01*
G01*
X120062500Y-60230000D01*
G75*
G02*
X120210000Y-60377500I0J-147500D01*
G01*
G37*
G36*
G01*
X121180000Y-60377500D02*
X121180000Y-60722500D01*
G75*
G02*
X121032500Y-60870000I-147500J0D01*
G01*
X120737500Y-60870000D01*
G75*
G02*
X120590000Y-60722500I0J147500D01*
G01*
X120590000Y-60377500D01*
G75*
G02*
X120737500Y-60230000I147500J0D01*
G01*
X121032500Y-60230000D01*
G75*
G02*
X121180000Y-60377500I0J-147500D01*
G01*
G37*
%TD*%
D11*
%TO.C,AE1*%
G36*
X121300000Y-66450000D02*
G01*
X119700000Y-66450000D01*
X119700000Y-65650000D01*
X121300000Y-65650000D01*
X121300000Y-66450000D01*
G37*
G36*
X120325000Y-63250000D02*
G01*
X119675000Y-63250000D01*
X119675000Y-62450000D01*
X120325000Y-62450000D01*
X120325000Y-63250000D01*
G37*
G36*
X121325000Y-63250000D02*
G01*
X120675000Y-63250000D01*
X120675000Y-62450000D01*
X121325000Y-62450000D01*
X121325000Y-63250000D01*
G37*
%TD*%
%TO.C,L3*%
G36*
G01*
X70425000Y-53775000D02*
X72575000Y-53775000D01*
G75*
G02*
X72825000Y-54025000I0J-250000D01*
G01*
X72825000Y-54775000D01*
G75*
G02*
X72575000Y-55025000I-250000J0D01*
G01*
X70425000Y-55025000D01*
G75*
G02*
X70175000Y-54775000I0J250000D01*
G01*
X70175000Y-54025000D01*
G75*
G02*
X70425000Y-53775000I250000J0D01*
G01*
G37*
G36*
G01*
X70425000Y-50975000D02*
X72575000Y-50975000D01*
G75*
G02*
X72825000Y-51225000I0J-250000D01*
G01*
X72825000Y-51975000D01*
G75*
G02*
X72575000Y-52225000I-250000J0D01*
G01*
X70425000Y-52225000D01*
G75*
G02*
X70175000Y-51975000I0J250000D01*
G01*
X70175000Y-51225000D01*
G75*
G02*
X70425000Y-50975000I250000J0D01*
G01*
G37*
%TD*%
D12*
%TO.C,U4*%
X50615000Y-75650000D03*
X50615000Y-69550000D03*
%TD*%
D13*
%TO.C,D3*%
X76350000Y-52750000D03*
X73850000Y-52750000D03*
%TD*%
%TO.C,D1*%
X76350000Y-54600000D03*
X73850000Y-54600000D03*
%TD*%
D14*
%TO.C,J4*%
X75800000Y-71215000D03*
X75800000Y-75385000D03*
X73800000Y-71215000D03*
X73800000Y-75385000D03*
X71800000Y-71215000D03*
X71800000Y-75385000D03*
X69800000Y-71215000D03*
X69800000Y-75385000D03*
X67800000Y-71215000D03*
X67800000Y-75385000D03*
%TD*%
D15*
%TO.C,C14*%
X81750000Y-60750000D03*
X81750000Y-66250000D03*
%TD*%
%TO.C,U6*%
G36*
G01*
X64937500Y-68525000D02*
X65312500Y-68525000D01*
G75*
G02*
X65400000Y-68612500I0J-87500D01*
G01*
X65400000Y-68787500D01*
G75*
G02*
X65312500Y-68875000I-87500J0D01*
G01*
X64937500Y-68875000D01*
G75*
G02*
X64850000Y-68787500I0J87500D01*
G01*
X64850000Y-68612500D01*
G75*
G02*
X64937500Y-68525000I87500J0D01*
G01*
G37*
G36*
G01*
X64937500Y-69025000D02*
X65312500Y-69025000D01*
G75*
G02*
X65400000Y-69112500I0J-87500D01*
G01*
X65400000Y-69287500D01*
G75*
G02*
X65312500Y-69375000I-87500J0D01*
G01*
X64937500Y-69375000D01*
G75*
G02*
X64850000Y-69287500I0J87500D01*
G01*
X64850000Y-69112500D01*
G75*
G02*
X64937500Y-69025000I87500J0D01*
G01*
G37*
G36*
G01*
X64937500Y-69525000D02*
X65312500Y-69525000D01*
G75*
G02*
X65400000Y-69612500I0J-87500D01*
G01*
X65400000Y-69787500D01*
G75*
G02*
X65312500Y-69875000I-87500J0D01*
G01*
X64937500Y-69875000D01*
G75*
G02*
X64850000Y-69787500I0J87500D01*
G01*
X64850000Y-69612500D01*
G75*
G02*
X64937500Y-69525000I87500J0D01*
G01*
G37*
G36*
G01*
X64812500Y-70150000D02*
X64987500Y-70150000D01*
G75*
G02*
X65075000Y-70237500I0J-87500D01*
G01*
X65075000Y-70612500D01*
G75*
G02*
X64987500Y-70700000I-87500J0D01*
G01*
X64812500Y-70700000D01*
G75*
G02*
X64725000Y-70612500I0J87500D01*
G01*
X64725000Y-70237500D01*
G75*
G02*
X64812500Y-70150000I87500J0D01*
G01*
G37*
G36*
G01*
X64312500Y-70150000D02*
X64487500Y-70150000D01*
G75*
G02*
X64575000Y-70237500I0J-87500D01*
G01*
X64575000Y-70612500D01*
G75*
G02*
X64487500Y-70700000I-87500J0D01*
G01*
X64312500Y-70700000D01*
G75*
G02*
X64225000Y-70612500I0J87500D01*
G01*
X64225000Y-70237500D01*
G75*
G02*
X64312500Y-70150000I87500J0D01*
G01*
G37*
G36*
G01*
X63812500Y-70150000D02*
X63987500Y-70150000D01*
G75*
G02*
X64075000Y-70237500I0J-87500D01*
G01*
X64075000Y-70612500D01*
G75*
G02*
X63987500Y-70700000I-87500J0D01*
G01*
X63812500Y-70700000D01*
G75*
G02*
X63725000Y-70612500I0J87500D01*
G01*
X63725000Y-70237500D01*
G75*
G02*
X63812500Y-70150000I87500J0D01*
G01*
G37*
G36*
G01*
X63312500Y-70150000D02*
X63487500Y-70150000D01*
G75*
G02*
X63575000Y-70237500I0J-87500D01*
G01*
X63575000Y-70612500D01*
G75*
G02*
X63487500Y-70700000I-87500J0D01*
G01*
X63312500Y-70700000D01*
G75*
G02*
X63225000Y-70612500I0J87500D01*
G01*
X63225000Y-70237500D01*
G75*
G02*
X63312500Y-70150000I87500J0D01*
G01*
G37*
G36*
G01*
X62812500Y-70150000D02*
X62987500Y-70150000D01*
G75*
G02*
X63075000Y-70237500I0J-87500D01*
G01*
X63075000Y-70612500D01*
G75*
G02*
X62987500Y-70700000I-87500J0D01*
G01*
X62812500Y-70700000D01*
G75*
G02*
X62725000Y-70612500I0J87500D01*
G01*
X62725000Y-70237500D01*
G75*
G02*
X62812500Y-70150000I87500J0D01*
G01*
G37*
G36*
G01*
X62487500Y-69525000D02*
X62862500Y-69525000D01*
G75*
G02*
X62950000Y-69612500I0J-87500D01*
G01*
X62950000Y-69787500D01*
G75*
G02*
X62862500Y-69875000I-87500J0D01*
G01*
X62487500Y-69875000D01*
G75*
G02*
X62400000Y-69787500I0J87500D01*
G01*
X62400000Y-69612500D01*
G75*
G02*
X62487500Y-69525000I87500J0D01*
G01*
G37*
G36*
G01*
X62487500Y-69025000D02*
X62862500Y-69025000D01*
G75*
G02*
X62950000Y-69112500I0J-87500D01*
G01*
X62950000Y-69287500D01*
G75*
G02*
X62862500Y-69375000I-87500J0D01*
G01*
X62487500Y-69375000D01*
G75*
G02*
X62400000Y-69287500I0J87500D01*
G01*
X62400000Y-69112500D01*
G75*
G02*
X62487500Y-69025000I87500J0D01*
G01*
G37*
G36*
G01*
X62487500Y-68525000D02*
X62862500Y-68525000D01*
G75*
G02*
X62950000Y-68612500I0J-87500D01*
G01*
X62950000Y-68787500D01*
G75*
G02*
X62862500Y-68875000I-87500J0D01*
G01*
X62487500Y-68875000D01*
G75*
G02*
X62400000Y-68787500I0J87500D01*
G01*
X62400000Y-68612500D01*
G75*
G02*
X62487500Y-68525000I87500J0D01*
G01*
G37*
G36*
G01*
X62812500Y-67700000D02*
X62987500Y-67700000D01*
G75*
G02*
X63075000Y-67787500I0J-87500D01*
G01*
X63075000Y-68162500D01*
G75*
G02*
X62987500Y-68250000I-87500J0D01*
G01*
X62812500Y-68250000D01*
G75*
G02*
X62725000Y-68162500I0J87500D01*
G01*
X62725000Y-67787500D01*
G75*
G02*
X62812500Y-67700000I87500J0D01*
G01*
G37*
G36*
G01*
X63312500Y-67700000D02*
X63487500Y-67700000D01*
G75*
G02*
X63575000Y-67787500I0J-87500D01*
G01*
X63575000Y-68162500D01*
G75*
G02*
X63487500Y-68250000I-87500J0D01*
G01*
X63312500Y-68250000D01*
G75*
G02*
X63225000Y-68162500I0J87500D01*
G01*
X63225000Y-67787500D01*
G75*
G02*
X63312500Y-67700000I87500J0D01*
G01*
G37*
G36*
G01*
X63812500Y-67700000D02*
X63987500Y-67700000D01*
G75*
G02*
X64075000Y-67787500I0J-87500D01*
G01*
X64075000Y-68162500D01*
G75*
G02*
X63987500Y-68250000I-87500J0D01*
G01*
X63812500Y-68250000D01*
G75*
G02*
X63725000Y-68162500I0J87500D01*
G01*
X63725000Y-67787500D01*
G75*
G02*
X63812500Y-67700000I87500J0D01*
G01*
G37*
G36*
G01*
X64312500Y-67700000D02*
X64487500Y-67700000D01*
G75*
G02*
X64575000Y-67787500I0J-87500D01*
G01*
X64575000Y-68162500D01*
G75*
G02*
X64487500Y-68250000I-87500J0D01*
G01*
X64312500Y-68250000D01*
G75*
G02*
X64225000Y-68162500I0J87500D01*
G01*
X64225000Y-67787500D01*
G75*
G02*
X64312500Y-67700000I87500J0D01*
G01*
G37*
G36*
G01*
X64812500Y-67700000D02*
X64987500Y-67700000D01*
G75*
G02*
X65075000Y-67787500I0J-87500D01*
G01*
X65075000Y-68162500D01*
G75*
G02*
X64987500Y-68250000I-87500J0D01*
G01*
X64812500Y-68250000D01*
G75*
G02*
X64725000Y-68162500I0J87500D01*
G01*
X64725000Y-67787500D01*
G75*
G02*
X64812500Y-67700000I87500J0D01*
G01*
G37*
%TD*%
%TO.C,C26*%
G36*
G01*
X66500000Y-67525000D02*
X67000000Y-67525000D01*
G75*
G02*
X67225000Y-67750000I0J-225000D01*
G01*
X67225000Y-68200000D01*
G75*
G02*
X67000000Y-68425000I-225000J0D01*
G01*
X66500000Y-68425000D01*
G75*
G02*
X66275000Y-68200000I0J225000D01*
G01*
X66275000Y-67750000D01*
G75*
G02*
X66500000Y-67525000I225000J0D01*
G01*
G37*
G36*
G01*
X66500000Y-65975000D02*
X67000000Y-65975000D01*
G75*
G02*
X67225000Y-66200000I0J-225000D01*
G01*
X67225000Y-66650000D01*
G75*
G02*
X67000000Y-66875000I-225000J0D01*
G01*
X66500000Y-66875000D01*
G75*
G02*
X66275000Y-66650000I0J225000D01*
G01*
X66275000Y-66200000D01*
G75*
G02*
X66500000Y-65975000I225000J0D01*
G01*
G37*
%TD*%
%TO.C,U2*%
G36*
G01*
X117550000Y-52475000D02*
X117550000Y-52125000D01*
G75*
G02*
X117725000Y-51950000I175000J0D01*
G01*
X119175000Y-51950000D01*
G75*
G02*
X119350000Y-52125000I0J-175000D01*
G01*
X119350000Y-52475000D01*
G75*
G02*
X119175000Y-52650000I-175000J0D01*
G01*
X117725000Y-52650000D01*
G75*
G02*
X117550000Y-52475000I0J175000D01*
G01*
G37*
G36*
G01*
X117550000Y-53600000D02*
X117550000Y-53200000D01*
G75*
G02*
X117750000Y-53000000I200000J0D01*
G01*
X119150000Y-53000000D01*
G75*
G02*
X119350000Y-53200000I0J-200000D01*
G01*
X119350000Y-53600000D01*
G75*
G02*
X119150000Y-53800000I-200000J0D01*
G01*
X117750000Y-53800000D01*
G75*
G02*
X117550000Y-53600000I0J200000D01*
G01*
G37*
G36*
G01*
X117550000Y-54700000D02*
X117550000Y-54300000D01*
G75*
G02*
X117750000Y-54100000I200000J0D01*
G01*
X119150000Y-54100000D01*
G75*
G02*
X119350000Y-54300000I0J-200000D01*
G01*
X119350000Y-54700000D01*
G75*
G02*
X119150000Y-54900000I-200000J0D01*
G01*
X117750000Y-54900000D01*
G75*
G02*
X117550000Y-54700000I0J200000D01*
G01*
G37*
G36*
G01*
X117550000Y-55800000D02*
X117550000Y-55400000D01*
G75*
G02*
X117750000Y-55200000I200000J0D01*
G01*
X119150000Y-55200000D01*
G75*
G02*
X119350000Y-55400000I0J-200000D01*
G01*
X119350000Y-55800000D01*
G75*
G02*
X119150000Y-56000000I-200000J0D01*
G01*
X117750000Y-56000000D01*
G75*
G02*
X117550000Y-55800000I0J200000D01*
G01*
G37*
G36*
G01*
X117550000Y-56900000D02*
X117550000Y-56500000D01*
G75*
G02*
X117750000Y-56300000I200000J0D01*
G01*
X119150000Y-56300000D01*
G75*
G02*
X119350000Y-56500000I0J-200000D01*
G01*
X119350000Y-56900000D01*
G75*
G02*
X119150000Y-57100000I-200000J0D01*
G01*
X117750000Y-57100000D01*
G75*
G02*
X117550000Y-56900000I0J200000D01*
G01*
G37*
G36*
G01*
X117550000Y-58000000D02*
X117550000Y-57600000D01*
G75*
G02*
X117750000Y-57400000I200000J0D01*
G01*
X119150000Y-57400000D01*
G75*
G02*
X119350000Y-57600000I0J-200000D01*
G01*
X119350000Y-58000000D01*
G75*
G02*
X119150000Y-58200000I-200000J0D01*
G01*
X117750000Y-58200000D01*
G75*
G02*
X117550000Y-58000000I0J200000D01*
G01*
G37*
G36*
G01*
X117550000Y-59100000D02*
X117550000Y-58700000D01*
G75*
G02*
X117750000Y-58500000I200000J0D01*
G01*
X119150000Y-58500000D01*
G75*
G02*
X119350000Y-58700000I0J-200000D01*
G01*
X119350000Y-59100000D01*
G75*
G02*
X119150000Y-59300000I-200000J0D01*
G01*
X117750000Y-59300000D01*
G75*
G02*
X117550000Y-59100000I0J200000D01*
G01*
G37*
G36*
G01*
X117550000Y-60200000D02*
X117550000Y-59800000D01*
G75*
G02*
X117750000Y-59600000I200000J0D01*
G01*
X119150000Y-59600000D01*
G75*
G02*
X119350000Y-59800000I0J-200000D01*
G01*
X119350000Y-60200000D01*
G75*
G02*
X119150000Y-60400000I-200000J0D01*
G01*
X117750000Y-60400000D01*
G75*
G02*
X117550000Y-60200000I0J200000D01*
G01*
G37*
G36*
G01*
X117550000Y-61275000D02*
X117550000Y-60925000D01*
G75*
G02*
X117725000Y-60750000I175000J0D01*
G01*
X119175000Y-60750000D01*
G75*
G02*
X119350000Y-60925000I0J-175000D01*
G01*
X119350000Y-61275000D01*
G75*
G02*
X119175000Y-61450000I-175000J0D01*
G01*
X117725000Y-61450000D01*
G75*
G02*
X117550000Y-61275000I0J175000D01*
G01*
G37*
G36*
G01*
X108050000Y-61275000D02*
X108050000Y-60925000D01*
G75*
G02*
X108225000Y-60750000I175000J0D01*
G01*
X109675000Y-60750000D01*
G75*
G02*
X109850000Y-60925000I0J-175000D01*
G01*
X109850000Y-61275000D01*
G75*
G02*
X109675000Y-61450000I-175000J0D01*
G01*
X108225000Y-61450000D01*
G75*
G02*
X108050000Y-61275000I0J175000D01*
G01*
G37*
G36*
G01*
X108050000Y-60200000D02*
X108050000Y-59800000D01*
G75*
G02*
X108250000Y-59600000I200000J0D01*
G01*
X109650000Y-59600000D01*
G75*
G02*
X109850000Y-59800000I0J-200000D01*
G01*
X109850000Y-60200000D01*
G75*
G02*
X109650000Y-60400000I-200000J0D01*
G01*
X108250000Y-60400000D01*
G75*
G02*
X108050000Y-60200000I0J200000D01*
G01*
G37*
G36*
G01*
X108050000Y-59100000D02*
X108050000Y-58700000D01*
G75*
G02*
X108250000Y-58500000I200000J0D01*
G01*
X109650000Y-58500000D01*
G75*
G02*
X109850000Y-58700000I0J-200000D01*
G01*
X109850000Y-59100000D01*
G75*
G02*
X109650000Y-59300000I-200000J0D01*
G01*
X108250000Y-59300000D01*
G75*
G02*
X108050000Y-59100000I0J200000D01*
G01*
G37*
G36*
G01*
X108050000Y-58000000D02*
X108050000Y-57600000D01*
G75*
G02*
X108250000Y-57400000I200000J0D01*
G01*
X109650000Y-57400000D01*
G75*
G02*
X109850000Y-57600000I0J-200000D01*
G01*
X109850000Y-58000000D01*
G75*
G02*
X109650000Y-58200000I-200000J0D01*
G01*
X108250000Y-58200000D01*
G75*
G02*
X108050000Y-58000000I0J200000D01*
G01*
G37*
G36*
G01*
X108050000Y-56900000D02*
X108050000Y-56500000D01*
G75*
G02*
X108250000Y-56300000I200000J0D01*
G01*
X109650000Y-56300000D01*
G75*
G02*
X109850000Y-56500000I0J-200000D01*
G01*
X109850000Y-56900000D01*
G75*
G02*
X109650000Y-57100000I-200000J0D01*
G01*
X108250000Y-57100000D01*
G75*
G02*
X108050000Y-56900000I0J200000D01*
G01*
G37*
G36*
G01*
X108050000Y-55800000D02*
X108050000Y-55400000D01*
G75*
G02*
X108250000Y-55200000I200000J0D01*
G01*
X109650000Y-55200000D01*
G75*
G02*
X109850000Y-55400000I0J-200000D01*
G01*
X109850000Y-55800000D01*
G75*
G02*
X109650000Y-56000000I-200000J0D01*
G01*
X108250000Y-56000000D01*
G75*
G02*
X108050000Y-55800000I0J200000D01*
G01*
G37*
G36*
G01*
X108050000Y-54700000D02*
X108050000Y-54300000D01*
G75*
G02*
X108250000Y-54100000I200000J0D01*
G01*
X109650000Y-54100000D01*
G75*
G02*
X109850000Y-54300000I0J-200000D01*
G01*
X109850000Y-54700000D01*
G75*
G02*
X109650000Y-54900000I-200000J0D01*
G01*
X108250000Y-54900000D01*
G75*
G02*
X108050000Y-54700000I0J200000D01*
G01*
G37*
G36*
G01*
X108050000Y-53600000D02*
X108050000Y-53200000D01*
G75*
G02*
X108250000Y-53000000I200000J0D01*
G01*
X109650000Y-53000000D01*
G75*
G02*
X109850000Y-53200000I0J-200000D01*
G01*
X109850000Y-53600000D01*
G75*
G02*
X109650000Y-53800000I-200000J0D01*
G01*
X108250000Y-53800000D01*
G75*
G02*
X108050000Y-53600000I0J200000D01*
G01*
G37*
G36*
G01*
X108050000Y-52475000D02*
X108050000Y-52125000D01*
G75*
G02*
X108225000Y-51950000I175000J0D01*
G01*
X109675000Y-51950000D01*
G75*
G02*
X109850000Y-52125000I0J-175000D01*
G01*
X109850000Y-52475000D01*
G75*
G02*
X109675000Y-52650000I-175000J0D01*
G01*
X108225000Y-52650000D01*
G75*
G02*
X108050000Y-52475000I0J175000D01*
G01*
G37*
%TD*%
%TO.C,C25*%
G36*
G01*
X62550000Y-75175000D02*
X62050000Y-75175000D01*
G75*
G02*
X61825000Y-74950000I0J225000D01*
G01*
X61825000Y-74500000D01*
G75*
G02*
X62050000Y-74275000I225000J0D01*
G01*
X62550000Y-74275000D01*
G75*
G02*
X62775000Y-74500000I0J-225000D01*
G01*
X62775000Y-74950000D01*
G75*
G02*
X62550000Y-75175000I-225000J0D01*
G01*
G37*
G36*
G01*
X62550000Y-76725000D02*
X62050000Y-76725000D01*
G75*
G02*
X61825000Y-76500000I0J225000D01*
G01*
X61825000Y-76050000D01*
G75*
G02*
X62050000Y-75825000I225000J0D01*
G01*
X62550000Y-75825000D01*
G75*
G02*
X62775000Y-76050000I0J-225000D01*
G01*
X62775000Y-76500000D01*
G75*
G02*
X62550000Y-76725000I-225000J0D01*
G01*
G37*
%TD*%
D16*
%TO.C,J7*%
X56500000Y-61000000D03*
X56500000Y-66000000D03*
X48900000Y-61000000D03*
X49000000Y-66000000D03*
%TD*%
D15*
%TO.C,C17*%
X60200000Y-60750000D03*
X60200000Y-66250000D03*
%TD*%
%TO.C,R6*%
G36*
G01*
X111500000Y-71575000D02*
X111500000Y-72125000D01*
G75*
G02*
X111300000Y-72325000I-200000J0D01*
G01*
X110900000Y-72325000D01*
G75*
G02*
X110700000Y-72125000I0J200000D01*
G01*
X110700000Y-71575000D01*
G75*
G02*
X110900000Y-71375000I200000J0D01*
G01*
X111300000Y-71375000D01*
G75*
G02*
X111500000Y-71575000I0J-200000D01*
G01*
G37*
G36*
G01*
X113150000Y-71575000D02*
X113150000Y-72125000D01*
G75*
G02*
X112950000Y-72325000I-200000J0D01*
G01*
X112550000Y-72325000D01*
G75*
G02*
X112350000Y-72125000I0J200000D01*
G01*
X112350000Y-71575000D01*
G75*
G02*
X112550000Y-71375000I200000J0D01*
G01*
X112950000Y-71375000D01*
G75*
G02*
X113150000Y-71575000I0J-200000D01*
G01*
G37*
%TD*%
%TO.C,R2*%
G36*
G01*
X108600000Y-70275000D02*
X108600000Y-70825000D01*
G75*
G02*
X108400000Y-71025000I-200000J0D01*
G01*
X108000000Y-71025000D01*
G75*
G02*
X107800000Y-70825000I0J200000D01*
G01*
X107800000Y-70275000D01*
G75*
G02*
X108000000Y-70075000I200000J0D01*
G01*
X108400000Y-70075000D01*
G75*
G02*
X108600000Y-70275000I0J-200000D01*
G01*
G37*
G36*
G01*
X110250000Y-70275000D02*
X110250000Y-70825000D01*
G75*
G02*
X110050000Y-71025000I-200000J0D01*
G01*
X109650000Y-71025000D01*
G75*
G02*
X109450000Y-70825000I0J200000D01*
G01*
X109450000Y-70275000D01*
G75*
G02*
X109650000Y-70075000I200000J0D01*
G01*
X110050000Y-70075000D01*
G75*
G02*
X110250000Y-70275000I0J-200000D01*
G01*
G37*
%TD*%
%TO.C,C16*%
G36*
G01*
X111525000Y-70300000D02*
X111525000Y-70800000D01*
G75*
G02*
X111300000Y-71025000I-225000J0D01*
G01*
X110850000Y-71025000D01*
G75*
G02*
X110625000Y-70800000I0J225000D01*
G01*
X110625000Y-70300000D01*
G75*
G02*
X110850000Y-70075000I225000J0D01*
G01*
X111300000Y-70075000D01*
G75*
G02*
X111525000Y-70300000I0J-225000D01*
G01*
G37*
G36*
G01*
X113075000Y-70300000D02*
X113075000Y-70800000D01*
G75*
G02*
X112850000Y-71025000I-225000J0D01*
G01*
X112400000Y-71025000D01*
G75*
G02*
X112175000Y-70800000I0J225000D01*
G01*
X112175000Y-70300000D01*
G75*
G02*
X112400000Y-70075000I225000J0D01*
G01*
X112850000Y-70075000D01*
G75*
G02*
X113075000Y-70300000I0J-225000D01*
G01*
G37*
%TD*%
%TO.C,C2*%
G36*
G01*
X70950000Y-57075000D02*
X70950000Y-58025000D01*
G75*
G02*
X70700000Y-58275000I-250000J0D01*
G01*
X70200000Y-58275000D01*
G75*
G02*
X69950000Y-58025000I0J250000D01*
G01*
X69950000Y-57075000D01*
G75*
G02*
X70200000Y-56825000I250000J0D01*
G01*
X70700000Y-56825000D01*
G75*
G02*
X70950000Y-57075000I0J-250000D01*
G01*
G37*
G36*
G01*
X72850000Y-57075000D02*
X72850000Y-58025000D01*
G75*
G02*
X72600000Y-58275000I-250000J0D01*
G01*
X72100000Y-58275000D01*
G75*
G02*
X71850000Y-58025000I0J250000D01*
G01*
X71850000Y-57075000D01*
G75*
G02*
X72100000Y-56825000I250000J0D01*
G01*
X72600000Y-56825000D01*
G75*
G02*
X72850000Y-57075000I0J-250000D01*
G01*
G37*
%TD*%
D17*
%TO.C,D4*%
X73850000Y-56250000D03*
X75250000Y-56250000D03*
%TD*%
D11*
%TO.C,U5*%
G36*
X67200000Y-52685786D02*
G01*
X68614214Y-54100000D01*
X67200000Y-55514214D01*
X65785786Y-54100000D01*
X67200000Y-52685786D01*
G37*
G36*
G01*
X68923572Y-54232583D02*
X69453902Y-54762913D01*
G75*
G02*
X69453902Y-54851301I-44194J-44194D01*
G01*
X69365514Y-54939689D01*
G75*
G02*
X69277126Y-54939689I-44194J44194D01*
G01*
X68746796Y-54409359D01*
G75*
G02*
X68746796Y-54320971I44194J44194D01*
G01*
X68835184Y-54232583D01*
G75*
G02*
X68923572Y-54232583I44194J-44194D01*
G01*
G37*
G36*
G01*
X68570019Y-54586136D02*
X69100349Y-55116466D01*
G75*
G02*
X69100349Y-55204854I-44194J-44194D01*
G01*
X69011961Y-55293242D01*
G75*
G02*
X68923573Y-55293242I-44194J44194D01*
G01*
X68393243Y-54762912D01*
G75*
G02*
X68393243Y-54674524I44194J44194D01*
G01*
X68481631Y-54586136D01*
G75*
G02*
X68570019Y-54586136I44194J-44194D01*
G01*
G37*
G36*
G01*
X68216466Y-54939690D02*
X68746796Y-55470020D01*
G75*
G02*
X68746796Y-55558408I-44194J-44194D01*
G01*
X68658408Y-55646796D01*
G75*
G02*
X68570020Y-55646796I-44194J44194D01*
G01*
X68039690Y-55116466D01*
G75*
G02*
X68039690Y-55028078I44194J44194D01*
G01*
X68128078Y-54939690D01*
G75*
G02*
X68216466Y-54939690I44194J-44194D01*
G01*
G37*
G36*
G01*
X67862912Y-55293243D02*
X68393242Y-55823573D01*
G75*
G02*
X68393242Y-55911961I-44194J-44194D01*
G01*
X68304854Y-56000349D01*
G75*
G02*
X68216466Y-56000349I-44194J44194D01*
G01*
X67686136Y-55470019D01*
G75*
G02*
X67686136Y-55381631I44194J44194D01*
G01*
X67774524Y-55293243D01*
G75*
G02*
X67862912Y-55293243I44194J-44194D01*
G01*
G37*
G36*
G01*
X67509359Y-55646796D02*
X68039689Y-56177126D01*
G75*
G02*
X68039689Y-56265514I-44194J-44194D01*
G01*
X67951301Y-56353902D01*
G75*
G02*
X67862913Y-56353902I-44194J44194D01*
G01*
X67332583Y-55823572D01*
G75*
G02*
X67332583Y-55735184I44194J44194D01*
G01*
X67420971Y-55646796D01*
G75*
G02*
X67509359Y-55646796I44194J-44194D01*
G01*
G37*
G36*
G01*
X66979029Y-55646796D02*
X67067417Y-55735184D01*
G75*
G02*
X67067417Y-55823572I-44194J-44194D01*
G01*
X66537087Y-56353902D01*
G75*
G02*
X66448699Y-56353902I-44194J44194D01*
G01*
X66360311Y-56265514D01*
G75*
G02*
X66360311Y-56177126I44194J44194D01*
G01*
X66890641Y-55646796D01*
G75*
G02*
X66979029Y-55646796I44194J-44194D01*
G01*
G37*
G36*
G01*
X66625476Y-55293243D02*
X66713864Y-55381631D01*
G75*
G02*
X66713864Y-55470019I-44194J-44194D01*
G01*
X66183534Y-56000349D01*
G75*
G02*
X66095146Y-56000349I-44194J44194D01*
G01*
X66006758Y-55911961D01*
G75*
G02*
X66006758Y-55823573I44194J44194D01*
G01*
X66537088Y-55293243D01*
G75*
G02*
X66625476Y-55293243I44194J-44194D01*
G01*
G37*
G36*
G01*
X66271922Y-54939690D02*
X66360310Y-55028078D01*
G75*
G02*
X66360310Y-55116466I-44194J-44194D01*
G01*
X65829980Y-55646796D01*
G75*
G02*
X65741592Y-55646796I-44194J44194D01*
G01*
X65653204Y-55558408D01*
G75*
G02*
X65653204Y-55470020I44194J44194D01*
G01*
X66183534Y-54939690D01*
G75*
G02*
X66271922Y-54939690I44194J-44194D01*
G01*
G37*
G36*
G01*
X65918369Y-54586136D02*
X66006757Y-54674524D01*
G75*
G02*
X66006757Y-54762912I-44194J-44194D01*
G01*
X65476427Y-55293242D01*
G75*
G02*
X65388039Y-55293242I-44194J44194D01*
G01*
X65299651Y-55204854D01*
G75*
G02*
X65299651Y-55116466I44194J44194D01*
G01*
X65829981Y-54586136D01*
G75*
G02*
X65918369Y-54586136I44194J-44194D01*
G01*
G37*
G36*
G01*
X65564816Y-54232583D02*
X65653204Y-54320971D01*
G75*
G02*
X65653204Y-54409359I-44194J-44194D01*
G01*
X65122874Y-54939689D01*
G75*
G02*
X65034486Y-54939689I-44194J44194D01*
G01*
X64946098Y-54851301D01*
G75*
G02*
X64946098Y-54762913I44194J44194D01*
G01*
X65476428Y-54232583D01*
G75*
G02*
X65564816Y-54232583I44194J-44194D01*
G01*
G37*
G36*
G01*
X65122874Y-53260311D02*
X65653204Y-53790641D01*
G75*
G02*
X65653204Y-53879029I-44194J-44194D01*
G01*
X65564816Y-53967417D01*
G75*
G02*
X65476428Y-53967417I-44194J44194D01*
G01*
X64946098Y-53437087D01*
G75*
G02*
X64946098Y-53348699I44194J44194D01*
G01*
X65034486Y-53260311D01*
G75*
G02*
X65122874Y-53260311I44194J-44194D01*
G01*
G37*
G36*
G01*
X65476427Y-52906758D02*
X66006757Y-53437088D01*
G75*
G02*
X66006757Y-53525476I-44194J-44194D01*
G01*
X65918369Y-53613864D01*
G75*
G02*
X65829981Y-53613864I-44194J44194D01*
G01*
X65299651Y-53083534D01*
G75*
G02*
X65299651Y-52995146I44194J44194D01*
G01*
X65388039Y-52906758D01*
G75*
G02*
X65476427Y-52906758I44194J-44194D01*
G01*
G37*
G36*
G01*
X65829980Y-52553204D02*
X66360310Y-53083534D01*
G75*
G02*
X66360310Y-53171922I-44194J-44194D01*
G01*
X66271922Y-53260310D01*
G75*
G02*
X66183534Y-53260310I-44194J44194D01*
G01*
X65653204Y-52729980D01*
G75*
G02*
X65653204Y-52641592I44194J44194D01*
G01*
X65741592Y-52553204D01*
G75*
G02*
X65829980Y-52553204I44194J-44194D01*
G01*
G37*
G36*
G01*
X66183534Y-52199651D02*
X66713864Y-52729981D01*
G75*
G02*
X66713864Y-52818369I-44194J-44194D01*
G01*
X66625476Y-52906757D01*
G75*
G02*
X66537088Y-52906757I-44194J44194D01*
G01*
X66006758Y-52376427D01*
G75*
G02*
X66006758Y-52288039I44194J44194D01*
G01*
X66095146Y-52199651D01*
G75*
G02*
X66183534Y-52199651I44194J-44194D01*
G01*
G37*
G36*
G01*
X66537087Y-51846098D02*
X67067417Y-52376428D01*
G75*
G02*
X67067417Y-52464816I-44194J-44194D01*
G01*
X66979029Y-52553204D01*
G75*
G02*
X66890641Y-52553204I-44194J44194D01*
G01*
X66360311Y-52022874D01*
G75*
G02*
X66360311Y-51934486I44194J44194D01*
G01*
X66448699Y-51846098D01*
G75*
G02*
X66537087Y-51846098I44194J-44194D01*
G01*
G37*
G36*
G01*
X67951301Y-51846098D02*
X68039689Y-51934486D01*
G75*
G02*
X68039689Y-52022874I-44194J-44194D01*
G01*
X67509359Y-52553204D01*
G75*
G02*
X67420971Y-52553204I-44194J44194D01*
G01*
X67332583Y-52464816D01*
G75*
G02*
X67332583Y-52376428I44194J44194D01*
G01*
X67862913Y-51846098D01*
G75*
G02*
X67951301Y-51846098I44194J-44194D01*
G01*
G37*
G36*
G01*
X68304854Y-52199651D02*
X68393242Y-52288039D01*
G75*
G02*
X68393242Y-52376427I-44194J-44194D01*
G01*
X67862912Y-52906757D01*
G75*
G02*
X67774524Y-52906757I-44194J44194D01*
G01*
X67686136Y-52818369D01*
G75*
G02*
X67686136Y-52729981I44194J44194D01*
G01*
X68216466Y-52199651D01*
G75*
G02*
X68304854Y-52199651I44194J-44194D01*
G01*
G37*
G36*
G01*
X68658408Y-52553204D02*
X68746796Y-52641592D01*
G75*
G02*
X68746796Y-52729980I-44194J-44194D01*
G01*
X68216466Y-53260310D01*
G75*
G02*
X68128078Y-53260310I-44194J44194D01*
G01*
X68039690Y-53171922D01*
G75*
G02*
X68039690Y-53083534I44194J44194D01*
G01*
X68570020Y-52553204D01*
G75*
G02*
X68658408Y-52553204I44194J-44194D01*
G01*
G37*
G36*
G01*
X69011961Y-52906758D02*
X69100349Y-52995146D01*
G75*
G02*
X69100349Y-53083534I-44194J-44194D01*
G01*
X68570019Y-53613864D01*
G75*
G02*
X68481631Y-53613864I-44194J44194D01*
G01*
X68393243Y-53525476D01*
G75*
G02*
X68393243Y-53437088I44194J44194D01*
G01*
X68923573Y-52906758D01*
G75*
G02*
X69011961Y-52906758I44194J-44194D01*
G01*
G37*
G36*
G01*
X69365514Y-53260311D02*
X69453902Y-53348699D01*
G75*
G02*
X69453902Y-53437087I-44194J-44194D01*
G01*
X68923572Y-53967417D01*
G75*
G02*
X68835184Y-53967417I-44194J44194D01*
G01*
X68746796Y-53879029D01*
G75*
G02*
X68746796Y-53790641I44194J44194D01*
G01*
X69277126Y-53260311D01*
G75*
G02*
X69365514Y-53260311I44194J-44194D01*
G01*
G37*
%TD*%
%TO.C,ROV4*%
G36*
G01*
X63106250Y-51150000D02*
X62593750Y-51150000D01*
G75*
G02*
X62375000Y-50931250I0J218750D01*
G01*
X62375000Y-50493750D01*
G75*
G02*
X62593750Y-50275000I218750J0D01*
G01*
X63106250Y-50275000D01*
G75*
G02*
X63325000Y-50493750I0J-218750D01*
G01*
X63325000Y-50931250D01*
G75*
G02*
X63106250Y-51150000I-218750J0D01*
G01*
G37*
G36*
G01*
X63106250Y-52725000D02*
X62593750Y-52725000D01*
G75*
G02*
X62375000Y-52506250I0J218750D01*
G01*
X62375000Y-52068750D01*
G75*
G02*
X62593750Y-51850000I218750J0D01*
G01*
X63106250Y-51850000D01*
G75*
G02*
X63325000Y-52068750I0J-218750D01*
G01*
X63325000Y-52506250D01*
G75*
G02*
X63106250Y-52725000I-218750J0D01*
G01*
G37*
%TD*%
%TO.C,ROV3*%
G36*
G01*
X65237500Y-50956250D02*
X65237500Y-50443750D01*
G75*
G02*
X65456250Y-50225000I218750J0D01*
G01*
X65893750Y-50225000D01*
G75*
G02*
X66112500Y-50443750I0J-218750D01*
G01*
X66112500Y-50956250D01*
G75*
G02*
X65893750Y-51175000I-218750J0D01*
G01*
X65456250Y-51175000D01*
G75*
G02*
X65237500Y-50956250I0J218750D01*
G01*
G37*
G36*
G01*
X63662500Y-50956250D02*
X63662500Y-50443750D01*
G75*
G02*
X63881250Y-50225000I218750J0D01*
G01*
X64318750Y-50225000D01*
G75*
G02*
X64537500Y-50443750I0J-218750D01*
G01*
X64537500Y-50956250D01*
G75*
G02*
X64318750Y-51175000I-218750J0D01*
G01*
X63881250Y-51175000D01*
G75*
G02*
X63662500Y-50956250I0J218750D01*
G01*
G37*
%TD*%
%TO.C,C19*%
G36*
G01*
X71162500Y-55643750D02*
X71162500Y-56156250D01*
G75*
G02*
X70943750Y-56375000I-218750J0D01*
G01*
X70506250Y-56375000D01*
G75*
G02*
X70287500Y-56156250I0J218750D01*
G01*
X70287500Y-55643750D01*
G75*
G02*
X70506250Y-55425000I218750J0D01*
G01*
X70943750Y-55425000D01*
G75*
G02*
X71162500Y-55643750I0J-218750D01*
G01*
G37*
G36*
G01*
X72737500Y-55643750D02*
X72737500Y-56156250D01*
G75*
G02*
X72518750Y-56375000I-218750J0D01*
G01*
X72081250Y-56375000D01*
G75*
G02*
X71862500Y-56156250I0J218750D01*
G01*
X71862500Y-55643750D01*
G75*
G02*
X72081250Y-55425000I218750J0D01*
G01*
X72518750Y-55425000D01*
G75*
G02*
X72737500Y-55643750I0J-218750D01*
G01*
G37*
%TD*%
%TO.C,C15*%
G36*
G01*
X68612500Y-57806250D02*
X68612500Y-57293750D01*
G75*
G02*
X68831250Y-57075000I218750J0D01*
G01*
X69268750Y-57075000D01*
G75*
G02*
X69487500Y-57293750I0J-218750D01*
G01*
X69487500Y-57806250D01*
G75*
G02*
X69268750Y-58025000I-218750J0D01*
G01*
X68831250Y-58025000D01*
G75*
G02*
X68612500Y-57806250I0J218750D01*
G01*
G37*
G36*
G01*
X67037500Y-57806250D02*
X67037500Y-57293750D01*
G75*
G02*
X67256250Y-57075000I218750J0D01*
G01*
X67693750Y-57075000D01*
G75*
G02*
X67912500Y-57293750I0J-218750D01*
G01*
X67912500Y-57806250D01*
G75*
G02*
X67693750Y-58025000I-218750J0D01*
G01*
X67256250Y-58025000D01*
G75*
G02*
X67037500Y-57806250I0J218750D01*
G01*
G37*
%TD*%
%TO.C,C6*%
G36*
G01*
X67312500Y-50443750D02*
X67312500Y-50956250D01*
G75*
G02*
X67093750Y-51175000I-218750J0D01*
G01*
X66656250Y-51175000D01*
G75*
G02*
X66437500Y-50956250I0J218750D01*
G01*
X66437500Y-50443750D01*
G75*
G02*
X66656250Y-50225000I218750J0D01*
G01*
X67093750Y-50225000D01*
G75*
G02*
X67312500Y-50443750I0J-218750D01*
G01*
G37*
G36*
G01*
X68887500Y-50443750D02*
X68887500Y-50956250D01*
G75*
G02*
X68668750Y-51175000I-218750J0D01*
G01*
X68231250Y-51175000D01*
G75*
G02*
X68012500Y-50956250I0J218750D01*
G01*
X68012500Y-50443750D01*
G75*
G02*
X68231250Y-50225000I218750J0D01*
G01*
X68668750Y-50225000D01*
G75*
G02*
X68887500Y-50443750I0J-218750D01*
G01*
G37*
%TD*%
%TO.C,C3*%
G36*
G01*
X75262500Y-51356250D02*
X75262500Y-50443750D01*
G75*
G02*
X75506250Y-50200000I243750J0D01*
G01*
X75993750Y-50200000D01*
G75*
G02*
X76237500Y-50443750I0J-243750D01*
G01*
X76237500Y-51356250D01*
G75*
G02*
X75993750Y-51600000I-243750J0D01*
G01*
X75506250Y-51600000D01*
G75*
G02*
X75262500Y-51356250I0J243750D01*
G01*
G37*
G36*
G01*
X73387500Y-51356250D02*
X73387500Y-50443750D01*
G75*
G02*
X73631250Y-50200000I243750J0D01*
G01*
X74118750Y-50200000D01*
G75*
G02*
X74362500Y-50443750I0J-243750D01*
G01*
X74362500Y-51356250D01*
G75*
G02*
X74118750Y-51600000I-243750J0D01*
G01*
X73631250Y-51600000D01*
G75*
G02*
X73387500Y-51356250I0J243750D01*
G01*
G37*
%TD*%
%TO.C,C9*%
G36*
G01*
X60150000Y-63016250D02*
X60150000Y-62503750D01*
G75*
G02*
X60368750Y-62285000I218750J0D01*
G01*
X60806250Y-62285000D01*
G75*
G02*
X61025000Y-62503750I0J-218750D01*
G01*
X61025000Y-63016250D01*
G75*
G02*
X60806250Y-63235000I-218750J0D01*
G01*
X60368750Y-63235000D01*
G75*
G02*
X60150000Y-63016250I0J218750D01*
G01*
G37*
G36*
G01*
X58575000Y-63016250D02*
X58575000Y-62503750D01*
G75*
G02*
X58793750Y-62285000I218750J0D01*
G01*
X59231250Y-62285000D01*
G75*
G02*
X59450000Y-62503750I0J-218750D01*
G01*
X59450000Y-63016250D01*
G75*
G02*
X59231250Y-63235000I-218750J0D01*
G01*
X58793750Y-63235000D01*
G75*
G02*
X58575000Y-63016250I0J218750D01*
G01*
G37*
%TD*%
%TO.C,L2*%
G36*
G01*
X59068750Y-56325000D02*
X60381250Y-56325000D01*
G75*
G02*
X60625000Y-56568750I0J-243750D01*
G01*
X60625000Y-57056250D01*
G75*
G02*
X60381250Y-57300000I-243750J0D01*
G01*
X59068750Y-57300000D01*
G75*
G02*
X58825000Y-57056250I0J243750D01*
G01*
X58825000Y-56568750D01*
G75*
G02*
X59068750Y-56325000I243750J0D01*
G01*
G37*
G36*
G01*
X59068750Y-54450000D02*
X60381250Y-54450000D01*
G75*
G02*
X60625000Y-54693750I0J-243750D01*
G01*
X60625000Y-55181250D01*
G75*
G02*
X60381250Y-55425000I-243750J0D01*
G01*
X59068750Y-55425000D01*
G75*
G02*
X58825000Y-55181250I0J243750D01*
G01*
X58825000Y-54693750D01*
G75*
G02*
X59068750Y-54450000I243750J0D01*
G01*
G37*
%TD*%
%TO.C,R5*%
G36*
G01*
X53068750Y-56075000D02*
X53581250Y-56075000D01*
G75*
G02*
X53800000Y-56293750I0J-218750D01*
G01*
X53800000Y-56731250D01*
G75*
G02*
X53581250Y-56950000I-218750J0D01*
G01*
X53068750Y-56950000D01*
G75*
G02*
X52850000Y-56731250I0J218750D01*
G01*
X52850000Y-56293750D01*
G75*
G02*
X53068750Y-56075000I218750J0D01*
G01*
G37*
G36*
G01*
X53068750Y-54500000D02*
X53581250Y-54500000D01*
G75*
G02*
X53800000Y-54718750I0J-218750D01*
G01*
X53800000Y-55156250D01*
G75*
G02*
X53581250Y-55375000I-218750J0D01*
G01*
X53068750Y-55375000D01*
G75*
G02*
X52850000Y-55156250I0J218750D01*
G01*
X52850000Y-54718750D01*
G75*
G02*
X53068750Y-54500000I218750J0D01*
G01*
G37*
%TD*%
%TO.C,R4*%
G36*
G01*
X54618750Y-57637500D02*
X55131250Y-57637500D01*
G75*
G02*
X55350000Y-57856250I0J-218750D01*
G01*
X55350000Y-58293750D01*
G75*
G02*
X55131250Y-58512500I-218750J0D01*
G01*
X54618750Y-58512500D01*
G75*
G02*
X54400000Y-58293750I0J218750D01*
G01*
X54400000Y-57856250D01*
G75*
G02*
X54618750Y-57637500I218750J0D01*
G01*
G37*
G36*
G01*
X54618750Y-56062500D02*
X55131250Y-56062500D01*
G75*
G02*
X55350000Y-56281250I0J-218750D01*
G01*
X55350000Y-56718750D01*
G75*
G02*
X55131250Y-56937500I-218750J0D01*
G01*
X54618750Y-56937500D01*
G75*
G02*
X54400000Y-56718750I0J218750D01*
G01*
X54400000Y-56281250D01*
G75*
G02*
X54618750Y-56062500I218750J0D01*
G01*
G37*
%TD*%
%TO.C,C8*%
G36*
G01*
X57450000Y-53706250D02*
X57450000Y-53193750D01*
G75*
G02*
X57668750Y-52975000I218750J0D01*
G01*
X58106250Y-52975000D01*
G75*
G02*
X58325000Y-53193750I0J-218750D01*
G01*
X58325000Y-53706250D01*
G75*
G02*
X58106250Y-53925000I-218750J0D01*
G01*
X57668750Y-53925000D01*
G75*
G02*
X57450000Y-53706250I0J218750D01*
G01*
G37*
G36*
G01*
X55875000Y-53706250D02*
X55875000Y-53193750D01*
G75*
G02*
X56093750Y-52975000I218750J0D01*
G01*
X56531250Y-52975000D01*
G75*
G02*
X56750000Y-53193750I0J-218750D01*
G01*
X56750000Y-53706250D01*
G75*
G02*
X56531250Y-53925000I-218750J0D01*
G01*
X56093750Y-53925000D01*
G75*
G02*
X55875000Y-53706250I0J218750D01*
G01*
G37*
%TD*%
%TO.C,C7*%
G36*
G01*
X50700000Y-57250000D02*
X51950000Y-57250000D01*
G75*
G02*
X52200000Y-57500000I0J-250000D01*
G01*
X52200000Y-58250000D01*
G75*
G02*
X51950000Y-58500000I-250000J0D01*
G01*
X50700000Y-58500000D01*
G75*
G02*
X50450000Y-58250000I0J250000D01*
G01*
X50450000Y-57500000D01*
G75*
G02*
X50700000Y-57250000I250000J0D01*
G01*
G37*
G36*
G01*
X50700000Y-54450000D02*
X51950000Y-54450000D01*
G75*
G02*
X52200000Y-54700000I0J-250000D01*
G01*
X52200000Y-55450000D01*
G75*
G02*
X51950000Y-55700000I-250000J0D01*
G01*
X50700000Y-55700000D01*
G75*
G02*
X50450000Y-55450000I0J250000D01*
G01*
X50450000Y-54700000D01*
G75*
G02*
X50700000Y-54450000I250000J0D01*
G01*
G37*
%TD*%
%TO.C,C5*%
G36*
G01*
X58425000Y-58118750D02*
X58425000Y-58631250D01*
G75*
G02*
X58206250Y-58850000I-218750J0D01*
G01*
X57768750Y-58850000D01*
G75*
G02*
X57550000Y-58631250I0J218750D01*
G01*
X57550000Y-58118750D01*
G75*
G02*
X57768750Y-57900000I218750J0D01*
G01*
X58206250Y-57900000D01*
G75*
G02*
X58425000Y-58118750I0J-218750D01*
G01*
G37*
G36*
G01*
X60000000Y-58118750D02*
X60000000Y-58631250D01*
G75*
G02*
X59781250Y-58850000I-218750J0D01*
G01*
X59343750Y-58850000D01*
G75*
G02*
X59125000Y-58631250I0J218750D01*
G01*
X59125000Y-58118750D01*
G75*
G02*
X59343750Y-57900000I218750J0D01*
G01*
X59781250Y-57900000D01*
G75*
G02*
X60000000Y-58118750I0J-218750D01*
G01*
G37*
%TD*%
%TO.C,C20*%
G36*
G01*
X60137500Y-64336250D02*
X60137500Y-63823750D01*
G75*
G02*
X60356250Y-63605000I218750J0D01*
G01*
X60793750Y-63605000D01*
G75*
G02*
X61012500Y-63823750I0J-218750D01*
G01*
X61012500Y-64336250D01*
G75*
G02*
X60793750Y-64555000I-218750J0D01*
G01*
X60356250Y-64555000D01*
G75*
G02*
X60137500Y-64336250I0J218750D01*
G01*
G37*
G36*
G01*
X58562500Y-64336250D02*
X58562500Y-63823750D01*
G75*
G02*
X58781250Y-63605000I218750J0D01*
G01*
X59218750Y-63605000D01*
G75*
G02*
X59437500Y-63823750I0J-218750D01*
G01*
X59437500Y-64336250D01*
G75*
G02*
X59218750Y-64555000I-218750J0D01*
G01*
X58781250Y-64555000D01*
G75*
G02*
X58562500Y-64336250I0J218750D01*
G01*
G37*
%TD*%
D18*
%TO.C,J6*%
X65000000Y-77000000D03*
%TD*%
%TO.C,J5*%
X110000000Y-77000000D03*
%TD*%
%TO.C,J3*%
X53000000Y-50000000D03*
%TD*%
%TO.C,J2*%
X110000000Y-50000000D03*
%TD*%
%TO.C,D2*%
G36*
G01*
X52718750Y-61862500D02*
X53631250Y-61862500D01*
G75*
G02*
X53875000Y-62106250I0J-243750D01*
G01*
X53875000Y-62593750D01*
G75*
G02*
X53631250Y-62837500I-243750J0D01*
G01*
X52718750Y-62837500D01*
G75*
G02*
X52475000Y-62593750I0J243750D01*
G01*
X52475000Y-62106250D01*
G75*
G02*
X52718750Y-61862500I243750J0D01*
G01*
G37*
G36*
G01*
X52718750Y-59987500D02*
X53631250Y-59987500D01*
G75*
G02*
X53875000Y-60231250I0J-243750D01*
G01*
X53875000Y-60718750D01*
G75*
G02*
X53631250Y-60962500I-243750J0D01*
G01*
X52718750Y-60962500D01*
G75*
G02*
X52475000Y-60718750I0J243750D01*
G01*
X52475000Y-60231250D01*
G75*
G02*
X52718750Y-59987500I243750J0D01*
G01*
G37*
%TD*%
%TO.C,R3*%
G36*
G01*
X53206250Y-64087500D02*
X52693750Y-64087500D01*
G75*
G02*
X52475000Y-63868750I0J218750D01*
G01*
X52475000Y-63431250D01*
G75*
G02*
X52693750Y-63212500I218750J0D01*
G01*
X53206250Y-63212500D01*
G75*
G02*
X53425000Y-63431250I0J-218750D01*
G01*
X53425000Y-63868750D01*
G75*
G02*
X53206250Y-64087500I-218750J0D01*
G01*
G37*
G36*
G01*
X53206250Y-65662500D02*
X52693750Y-65662500D01*
G75*
G02*
X52475000Y-65443750I0J218750D01*
G01*
X52475000Y-65006250D01*
G75*
G02*
X52693750Y-64787500I218750J0D01*
G01*
X53206250Y-64787500D01*
G75*
G02*
X53425000Y-65006250I0J-218750D01*
G01*
X53425000Y-65443750D01*
G75*
G02*
X53206250Y-65662500I-218750J0D01*
G01*
G37*
%TD*%
D19*
%TO.C,J1*%
X64750000Y-60250000D03*
X64750000Y-66750000D03*
D20*
X62250000Y-61250000D03*
X62250000Y-61750000D03*
X62250000Y-62250000D03*
X62250000Y-62750000D03*
X62250000Y-63250000D03*
X62250000Y-63750000D03*
X62250000Y-64250000D03*
X62250000Y-64750000D03*
X62250000Y-65250000D03*
X62250000Y-65750000D03*
%TD*%
%TO.C,R15*%
G36*
G01*
X64625000Y-56950000D02*
X64075000Y-56950000D01*
G75*
G02*
X63875000Y-56750000I0J200000D01*
G01*
X63875000Y-56350000D01*
G75*
G02*
X64075000Y-56150000I200000J0D01*
G01*
X64625000Y-56150000D01*
G75*
G02*
X64825000Y-56350000I0J-200000D01*
G01*
X64825000Y-56750000D01*
G75*
G02*
X64625000Y-56950000I-200000J0D01*
G01*
G37*
G36*
G01*
X64625000Y-58600000D02*
X64075000Y-58600000D01*
G75*
G02*
X63875000Y-58400000I0J200000D01*
G01*
X63875000Y-58000000D01*
G75*
G02*
X64075000Y-57800000I200000J0D01*
G01*
X64625000Y-57800000D01*
G75*
G02*
X64825000Y-58000000I0J-200000D01*
G01*
X64825000Y-58400000D01*
G75*
G02*
X64625000Y-58600000I-200000J0D01*
G01*
G37*
%TD*%
%TO.C,R14*%
G36*
G01*
X61925000Y-55375000D02*
X61375000Y-55375000D01*
G75*
G02*
X61175000Y-55175000I0J200000D01*
G01*
X61175000Y-54775000D01*
G75*
G02*
X61375000Y-54575000I200000J0D01*
G01*
X61925000Y-54575000D01*
G75*
G02*
X62125000Y-54775000I0J-200000D01*
G01*
X62125000Y-55175000D01*
G75*
G02*
X61925000Y-55375000I-200000J0D01*
G01*
G37*
G36*
G01*
X61925000Y-57025000D02*
X61375000Y-57025000D01*
G75*
G02*
X61175000Y-56825000I0J200000D01*
G01*
X61175000Y-56425000D01*
G75*
G02*
X61375000Y-56225000I200000J0D01*
G01*
X61925000Y-56225000D01*
G75*
G02*
X62125000Y-56425000I0J-200000D01*
G01*
X62125000Y-56825000D01*
G75*
G02*
X61925000Y-57025000I-200000J0D01*
G01*
G37*
%TD*%
%TO.C,R13*%
G36*
G01*
X111575000Y-74475000D02*
X111575000Y-75025000D01*
G75*
G02*
X111375000Y-75225000I-200000J0D01*
G01*
X110975000Y-75225000D01*
G75*
G02*
X110775000Y-75025000I0J200000D01*
G01*
X110775000Y-74475000D01*
G75*
G02*
X110975000Y-74275000I200000J0D01*
G01*
X111375000Y-74275000D01*
G75*
G02*
X111575000Y-74475000I0J-200000D01*
G01*
G37*
G36*
G01*
X113225000Y-74475000D02*
X113225000Y-75025000D01*
G75*
G02*
X113025000Y-75225000I-200000J0D01*
G01*
X112625000Y-75225000D01*
G75*
G02*
X112425000Y-75025000I0J200000D01*
G01*
X112425000Y-74475000D01*
G75*
G02*
X112625000Y-74275000I200000J0D01*
G01*
X113025000Y-74275000D01*
G75*
G02*
X113225000Y-74475000I0J-200000D01*
G01*
G37*
%TD*%
%TO.C,R12*%
G36*
G01*
X108750000Y-72925000D02*
X108750000Y-73475000D01*
G75*
G02*
X108550000Y-73675000I-200000J0D01*
G01*
X108150000Y-73675000D01*
G75*
G02*
X107950000Y-73475000I0J200000D01*
G01*
X107950000Y-72925000D01*
G75*
G02*
X108150000Y-72725000I200000J0D01*
G01*
X108550000Y-72725000D01*
G75*
G02*
X108750000Y-72925000I0J-200000D01*
G01*
G37*
G36*
G01*
X110400000Y-72925000D02*
X110400000Y-73475000D01*
G75*
G02*
X110200000Y-73675000I-200000J0D01*
G01*
X109800000Y-73675000D01*
G75*
G02*
X109600000Y-73475000I0J200000D01*
G01*
X109600000Y-72925000D01*
G75*
G02*
X109800000Y-72725000I200000J0D01*
G01*
X110200000Y-72725000D01*
G75*
G02*
X110400000Y-72925000I0J-200000D01*
G01*
G37*
%TD*%
%TO.C,C28*%
G36*
G01*
X63200000Y-57100000D02*
X62700000Y-57100000D01*
G75*
G02*
X62475000Y-56875000I0J225000D01*
G01*
X62475000Y-56425000D01*
G75*
G02*
X62700000Y-56200000I225000J0D01*
G01*
X63200000Y-56200000D01*
G75*
G02*
X63425000Y-56425000I0J-225000D01*
G01*
X63425000Y-56875000D01*
G75*
G02*
X63200000Y-57100000I-225000J0D01*
G01*
G37*
G36*
G01*
X63200000Y-58650000D02*
X62700000Y-58650000D01*
G75*
G02*
X62475000Y-58425000I0J225000D01*
G01*
X62475000Y-57975000D01*
G75*
G02*
X62700000Y-57750000I225000J0D01*
G01*
X63200000Y-57750000D01*
G75*
G02*
X63425000Y-57975000I0J-225000D01*
G01*
X63425000Y-58425000D01*
G75*
G02*
X63200000Y-58650000I-225000J0D01*
G01*
G37*
%TD*%
%TO.C,C23*%
G36*
G01*
X111675000Y-72950000D02*
X111675000Y-73450000D01*
G75*
G02*
X111450000Y-73675000I-225000J0D01*
G01*
X111000000Y-73675000D01*
G75*
G02*
X110775000Y-73450000I0J225000D01*
G01*
X110775000Y-72950000D01*
G75*
G02*
X111000000Y-72725000I225000J0D01*
G01*
X111450000Y-72725000D01*
G75*
G02*
X111675000Y-72950000I0J-225000D01*
G01*
G37*
G36*
G01*
X113225000Y-72950000D02*
X113225000Y-73450000D01*
G75*
G02*
X113000000Y-73675000I-225000J0D01*
G01*
X112550000Y-73675000D01*
G75*
G02*
X112325000Y-73450000I0J225000D01*
G01*
X112325000Y-72950000D01*
G75*
G02*
X112550000Y-72725000I225000J0D01*
G01*
X113000000Y-72725000D01*
G75*
G02*
X113225000Y-72950000I0J-225000D01*
G01*
G37*
%TD*%
%TO.C,C18*%
G36*
G01*
X74650000Y-68800000D02*
X74650000Y-69300000D01*
G75*
G02*
X74425000Y-69525000I-225000J0D01*
G01*
X73975000Y-69525000D01*
G75*
G02*
X73750000Y-69300000I0J225000D01*
G01*
X73750000Y-68800000D01*
G75*
G02*
X73975000Y-68575000I225000J0D01*
G01*
X74425000Y-68575000D01*
G75*
G02*
X74650000Y-68800000I0J-225000D01*
G01*
G37*
G36*
G01*
X76200000Y-68800000D02*
X76200000Y-69300000D01*
G75*
G02*
X75975000Y-69525000I-225000J0D01*
G01*
X75525000Y-69525000D01*
G75*
G02*
X75300000Y-69300000I0J225000D01*
G01*
X75300000Y-68800000D01*
G75*
G02*
X75525000Y-68575000I225000J0D01*
G01*
X75975000Y-68575000D01*
G75*
G02*
X76200000Y-68800000I0J-225000D01*
G01*
G37*
%TD*%
%TO.C,C12*%
G36*
G01*
X60075000Y-51900001D02*
X60075000Y-50599999D01*
G75*
G02*
X60324999Y-50350000I249999J0D01*
G01*
X60975001Y-50350000D01*
G75*
G02*
X61225000Y-50599999I0J-249999D01*
G01*
X61225000Y-51900001D01*
G75*
G02*
X60975001Y-52150000I-249999J0D01*
G01*
X60324999Y-52150000D01*
G75*
G02*
X60075000Y-51900001I0J249999D01*
G01*
G37*
G36*
G01*
X57125000Y-51900001D02*
X57125000Y-50599999D01*
G75*
G02*
X57374999Y-50350000I249999J0D01*
G01*
X58025001Y-50350000D01*
G75*
G02*
X58275000Y-50599999I0J-249999D01*
G01*
X58275000Y-51900001D01*
G75*
G02*
X58025001Y-52150000I-249999J0D01*
G01*
X57374999Y-52150000D01*
G75*
G02*
X57125000Y-51900001I0J249999D01*
G01*
G37*
%TD*%
M02*
