%TF.GenerationSoftware,KiCad,Pcbnew,(6.0.6)*%
%TF.CreationDate,2022-11-03T14:15:42-06:00*%
%TF.ProjectId,SolarGPS,536f6c61-7247-4505-932e-6b696361645f,rev?*%
%TF.SameCoordinates,Original*%
%TF.FileFunction,Paste,Top*%
%TF.FilePolarity,Positive*%
%FSLAX46Y46*%
G04 Gerber Fmt 4.6, Leading zero omitted, Abs format (unit mm)*
G04 Created by KiCad (PCBNEW (6.0.6)) date 2022-11-03 14:15:42*
%MOMM*%
%LPD*%
G01*
G04 APERTURE LIST*
G04 Aperture macros list*
%AMRoundRect*
0 Rectangle with rounded corners*
0 $1 Rounding radius*
0 $2 $3 $4 $5 $6 $7 $8 $9 X,Y pos of 4 corners*
0 Add a 4 corners polygon primitive as box body*
4,1,4,$2,$3,$4,$5,$6,$7,$8,$9,$2,$3,0*
0 Add four circle primitives for the rounded corners*
1,1,$1+$1,$2,$3*
1,1,$1+$1,$4,$5*
1,1,$1+$1,$6,$7*
1,1,$1+$1,$8,$9*
0 Add four rect primitives between the rounded corners*
20,1,$1+$1,$2,$3,$4,$5,0*
20,1,$1+$1,$4,$5,$6,$7,0*
20,1,$1+$1,$6,$7,$8,$9,0*
20,1,$1+$1,$8,$9,$2,$3,0*%
G04 Aperture macros list end*
%ADD10C,0.010000*%
%ADD11R,0.650000X0.400000*%
%ADD12RoundRect,0.250000X0.250000X0.475000X-0.250000X0.475000X-0.250000X-0.475000X0.250000X-0.475000X0*%
%ADD13RoundRect,0.225000X-0.250000X0.225000X-0.250000X-0.225000X0.250000X-0.225000X0.250000X0.225000X0*%
%ADD14RoundRect,0.200000X0.200000X0.275000X-0.200000X0.275000X-0.200000X-0.275000X0.200000X-0.275000X0*%
%ADD15RoundRect,0.225000X0.225000X0.250000X-0.225000X0.250000X-0.225000X-0.250000X0.225000X-0.250000X0*%
%ADD16R,4.000000X0.300000*%
%ADD17R,1.500000X1.500000*%
%ADD18RoundRect,0.200000X-0.200000X-0.275000X0.200000X-0.275000X0.200000X0.275000X-0.200000X0.275000X0*%
%ADD19RoundRect,0.225000X-0.225000X-0.250000X0.225000X-0.250000X0.225000X0.250000X-0.225000X0.250000X0*%
%ADD20RoundRect,0.250000X-0.350000X0.275000X-0.350000X-0.275000X0.350000X-0.275000X0.350000X0.275000X0*%
%ADD21R,0.580000X0.720000*%
%ADD22R,0.720000X0.580000*%
%ADD23RoundRect,0.125000X0.125000X-0.625000X0.125000X0.625000X-0.125000X0.625000X-0.125000X-0.625000X0*%
%ADD24RoundRect,0.125000X0.625000X-0.125000X0.625000X0.125000X-0.625000X0.125000X-0.625000X-0.125000X0*%
%ADD25RoundRect,0.250000X0.650000X-0.325000X0.650000X0.325000X-0.650000X0.325000X-0.650000X-0.325000X0*%
%ADD26R,1.800000X1.000000*%
%ADD27RoundRect,0.250000X-0.325000X-0.650000X0.325000X-0.650000X0.325000X0.650000X-0.325000X0.650000X0*%
%ADD28RoundRect,0.012500X-0.287500X-0.112500X0.287500X-0.112500X0.287500X0.112500X-0.287500X0.112500X0*%
%ADD29RoundRect,0.012500X-0.437500X-0.112500X0.437500X-0.112500X0.437500X0.112500X-0.437500X0.112500X0*%
G04 APERTURE END LIST*
%TO.C,U1*%
G36*
X69258000Y-55236000D02*
G01*
X69260000Y-55236000D01*
X69263000Y-55237000D01*
X69265000Y-55237000D01*
X69268000Y-55238000D01*
X69270000Y-55239000D01*
X69273000Y-55240000D01*
X69275000Y-55242000D01*
X69277000Y-55243000D01*
X69279000Y-55245000D01*
X69281000Y-55246000D01*
X69289000Y-55254000D01*
X69290000Y-55256000D01*
X69292000Y-55258000D01*
X69293000Y-55260000D01*
X69295000Y-55262000D01*
X69296000Y-55265000D01*
X69297000Y-55267000D01*
X69298000Y-55270000D01*
X69298000Y-55272000D01*
X69299000Y-55275000D01*
X69299000Y-55277000D01*
X69300000Y-55280000D01*
X69300000Y-55440000D01*
X69299000Y-55443000D01*
X69299000Y-55445000D01*
X69298000Y-55448000D01*
X69298000Y-55450000D01*
X69297000Y-55453000D01*
X69296000Y-55455000D01*
X69295000Y-55458000D01*
X69293000Y-55460000D01*
X69292000Y-55462000D01*
X69290000Y-55464000D01*
X69289000Y-55466000D01*
X69281000Y-55474000D01*
X69279000Y-55475000D01*
X69277000Y-55477000D01*
X69275000Y-55478000D01*
X69273000Y-55480000D01*
X69270000Y-55481000D01*
X69268000Y-55482000D01*
X69265000Y-55483000D01*
X69263000Y-55483000D01*
X69260000Y-55484000D01*
X69258000Y-55484000D01*
X69255000Y-55485000D01*
X68795000Y-55485000D01*
X68792000Y-55484000D01*
X68790000Y-55484000D01*
X68787000Y-55483000D01*
X68785000Y-55483000D01*
X68782000Y-55482000D01*
X68780000Y-55481000D01*
X68777000Y-55480000D01*
X68775000Y-55478000D01*
X68773000Y-55477000D01*
X68771000Y-55475000D01*
X68769000Y-55474000D01*
X68761000Y-55466000D01*
X68760000Y-55464000D01*
X68758000Y-55462000D01*
X68757000Y-55460000D01*
X68755000Y-55458000D01*
X68754000Y-55455000D01*
X68753000Y-55453000D01*
X68752000Y-55450000D01*
X68752000Y-55448000D01*
X68751000Y-55445000D01*
X68751000Y-55443000D01*
X68750000Y-55440000D01*
X68750000Y-55280000D01*
X68751000Y-55277000D01*
X68751000Y-55275000D01*
X68752000Y-55272000D01*
X68752000Y-55270000D01*
X68753000Y-55267000D01*
X68754000Y-55265000D01*
X68755000Y-55262000D01*
X68757000Y-55260000D01*
X68758000Y-55258000D01*
X68760000Y-55256000D01*
X68761000Y-55254000D01*
X68769000Y-55246000D01*
X68771000Y-55245000D01*
X68773000Y-55243000D01*
X68775000Y-55242000D01*
X68777000Y-55240000D01*
X68780000Y-55239000D01*
X68782000Y-55238000D01*
X68785000Y-55237000D01*
X68787000Y-55237000D01*
X68790000Y-55236000D01*
X68792000Y-55236000D01*
X68795000Y-55235000D01*
X69255000Y-55235000D01*
X69258000Y-55236000D01*
G37*
D10*
X69258000Y-55236000D02*
X69260000Y-55236000D01*
X69263000Y-55237000D01*
X69265000Y-55237000D01*
X69268000Y-55238000D01*
X69270000Y-55239000D01*
X69273000Y-55240000D01*
X69275000Y-55242000D01*
X69277000Y-55243000D01*
X69279000Y-55245000D01*
X69281000Y-55246000D01*
X69289000Y-55254000D01*
X69290000Y-55256000D01*
X69292000Y-55258000D01*
X69293000Y-55260000D01*
X69295000Y-55262000D01*
X69296000Y-55265000D01*
X69297000Y-55267000D01*
X69298000Y-55270000D01*
X69298000Y-55272000D01*
X69299000Y-55275000D01*
X69299000Y-55277000D01*
X69300000Y-55280000D01*
X69300000Y-55440000D01*
X69299000Y-55443000D01*
X69299000Y-55445000D01*
X69298000Y-55448000D01*
X69298000Y-55450000D01*
X69297000Y-55453000D01*
X69296000Y-55455000D01*
X69295000Y-55458000D01*
X69293000Y-55460000D01*
X69292000Y-55462000D01*
X69290000Y-55464000D01*
X69289000Y-55466000D01*
X69281000Y-55474000D01*
X69279000Y-55475000D01*
X69277000Y-55477000D01*
X69275000Y-55478000D01*
X69273000Y-55480000D01*
X69270000Y-55481000D01*
X69268000Y-55482000D01*
X69265000Y-55483000D01*
X69263000Y-55483000D01*
X69260000Y-55484000D01*
X69258000Y-55484000D01*
X69255000Y-55485000D01*
X68795000Y-55485000D01*
X68792000Y-55484000D01*
X68790000Y-55484000D01*
X68787000Y-55483000D01*
X68785000Y-55483000D01*
X68782000Y-55482000D01*
X68780000Y-55481000D01*
X68777000Y-55480000D01*
X68775000Y-55478000D01*
X68773000Y-55477000D01*
X68771000Y-55475000D01*
X68769000Y-55474000D01*
X68761000Y-55466000D01*
X68760000Y-55464000D01*
X68758000Y-55462000D01*
X68757000Y-55460000D01*
X68755000Y-55458000D01*
X68754000Y-55455000D01*
X68753000Y-55453000D01*
X68752000Y-55450000D01*
X68752000Y-55448000D01*
X68751000Y-55445000D01*
X68751000Y-55443000D01*
X68750000Y-55440000D01*
X68750000Y-55280000D01*
X68751000Y-55277000D01*
X68751000Y-55275000D01*
X68752000Y-55272000D01*
X68752000Y-55270000D01*
X68753000Y-55267000D01*
X68754000Y-55265000D01*
X68755000Y-55262000D01*
X68757000Y-55260000D01*
X68758000Y-55258000D01*
X68760000Y-55256000D01*
X68761000Y-55254000D01*
X68769000Y-55246000D01*
X68771000Y-55245000D01*
X68773000Y-55243000D01*
X68775000Y-55242000D01*
X68777000Y-55240000D01*
X68780000Y-55239000D01*
X68782000Y-55238000D01*
X68785000Y-55237000D01*
X68787000Y-55237000D01*
X68790000Y-55236000D01*
X68792000Y-55236000D01*
X68795000Y-55235000D01*
X69255000Y-55235000D01*
X69258000Y-55236000D01*
G36*
X68508000Y-55236000D02*
G01*
X68510000Y-55236000D01*
X68513000Y-55237000D01*
X68515000Y-55237000D01*
X68518000Y-55238000D01*
X68520000Y-55239000D01*
X68523000Y-55240000D01*
X68525000Y-55242000D01*
X68527000Y-55243000D01*
X68529000Y-55245000D01*
X68531000Y-55246000D01*
X68539000Y-55254000D01*
X68540000Y-55256000D01*
X68542000Y-55258000D01*
X68543000Y-55260000D01*
X68545000Y-55262000D01*
X68546000Y-55265000D01*
X68547000Y-55267000D01*
X68548000Y-55270000D01*
X68548000Y-55272000D01*
X68549000Y-55275000D01*
X68549000Y-55277000D01*
X68550000Y-55280000D01*
X68550000Y-55440000D01*
X68549000Y-55443000D01*
X68549000Y-55445000D01*
X68548000Y-55448000D01*
X68548000Y-55450000D01*
X68547000Y-55453000D01*
X68546000Y-55455000D01*
X68545000Y-55458000D01*
X68543000Y-55460000D01*
X68542000Y-55462000D01*
X68540000Y-55464000D01*
X68539000Y-55466000D01*
X68531000Y-55474000D01*
X68529000Y-55475000D01*
X68527000Y-55477000D01*
X68525000Y-55478000D01*
X68523000Y-55480000D01*
X68520000Y-55481000D01*
X68518000Y-55482000D01*
X68515000Y-55483000D01*
X68513000Y-55483000D01*
X68510000Y-55484000D01*
X68508000Y-55484000D01*
X68505000Y-55485000D01*
X68045000Y-55485000D01*
X68042000Y-55484000D01*
X68040000Y-55484000D01*
X68037000Y-55483000D01*
X68035000Y-55483000D01*
X68032000Y-55482000D01*
X68030000Y-55481000D01*
X68027000Y-55480000D01*
X68025000Y-55478000D01*
X68023000Y-55477000D01*
X68021000Y-55475000D01*
X68019000Y-55474000D01*
X68011000Y-55466000D01*
X68010000Y-55464000D01*
X68008000Y-55462000D01*
X68007000Y-55460000D01*
X68005000Y-55458000D01*
X68004000Y-55455000D01*
X68003000Y-55453000D01*
X68002000Y-55450000D01*
X68002000Y-55448000D01*
X68001000Y-55445000D01*
X68001000Y-55443000D01*
X68000000Y-55440000D01*
X68000000Y-55280000D01*
X68001000Y-55277000D01*
X68001000Y-55275000D01*
X68002000Y-55272000D01*
X68002000Y-55270000D01*
X68003000Y-55267000D01*
X68004000Y-55265000D01*
X68005000Y-55262000D01*
X68007000Y-55260000D01*
X68008000Y-55258000D01*
X68010000Y-55256000D01*
X68011000Y-55254000D01*
X68019000Y-55246000D01*
X68021000Y-55245000D01*
X68023000Y-55243000D01*
X68025000Y-55242000D01*
X68027000Y-55240000D01*
X68030000Y-55239000D01*
X68032000Y-55238000D01*
X68035000Y-55237000D01*
X68037000Y-55237000D01*
X68040000Y-55236000D01*
X68042000Y-55236000D01*
X68045000Y-55235000D01*
X68505000Y-55235000D01*
X68508000Y-55236000D01*
G37*
X68508000Y-55236000D02*
X68510000Y-55236000D01*
X68513000Y-55237000D01*
X68515000Y-55237000D01*
X68518000Y-55238000D01*
X68520000Y-55239000D01*
X68523000Y-55240000D01*
X68525000Y-55242000D01*
X68527000Y-55243000D01*
X68529000Y-55245000D01*
X68531000Y-55246000D01*
X68539000Y-55254000D01*
X68540000Y-55256000D01*
X68542000Y-55258000D01*
X68543000Y-55260000D01*
X68545000Y-55262000D01*
X68546000Y-55265000D01*
X68547000Y-55267000D01*
X68548000Y-55270000D01*
X68548000Y-55272000D01*
X68549000Y-55275000D01*
X68549000Y-55277000D01*
X68550000Y-55280000D01*
X68550000Y-55440000D01*
X68549000Y-55443000D01*
X68549000Y-55445000D01*
X68548000Y-55448000D01*
X68548000Y-55450000D01*
X68547000Y-55453000D01*
X68546000Y-55455000D01*
X68545000Y-55458000D01*
X68543000Y-55460000D01*
X68542000Y-55462000D01*
X68540000Y-55464000D01*
X68539000Y-55466000D01*
X68531000Y-55474000D01*
X68529000Y-55475000D01*
X68527000Y-55477000D01*
X68525000Y-55478000D01*
X68523000Y-55480000D01*
X68520000Y-55481000D01*
X68518000Y-55482000D01*
X68515000Y-55483000D01*
X68513000Y-55483000D01*
X68510000Y-55484000D01*
X68508000Y-55484000D01*
X68505000Y-55485000D01*
X68045000Y-55485000D01*
X68042000Y-55484000D01*
X68040000Y-55484000D01*
X68037000Y-55483000D01*
X68035000Y-55483000D01*
X68032000Y-55482000D01*
X68030000Y-55481000D01*
X68027000Y-55480000D01*
X68025000Y-55478000D01*
X68023000Y-55477000D01*
X68021000Y-55475000D01*
X68019000Y-55474000D01*
X68011000Y-55466000D01*
X68010000Y-55464000D01*
X68008000Y-55462000D01*
X68007000Y-55460000D01*
X68005000Y-55458000D01*
X68004000Y-55455000D01*
X68003000Y-55453000D01*
X68002000Y-55450000D01*
X68002000Y-55448000D01*
X68001000Y-55445000D01*
X68001000Y-55443000D01*
X68000000Y-55440000D01*
X68000000Y-55280000D01*
X68001000Y-55277000D01*
X68001000Y-55275000D01*
X68002000Y-55272000D01*
X68002000Y-55270000D01*
X68003000Y-55267000D01*
X68004000Y-55265000D01*
X68005000Y-55262000D01*
X68007000Y-55260000D01*
X68008000Y-55258000D01*
X68010000Y-55256000D01*
X68011000Y-55254000D01*
X68019000Y-55246000D01*
X68021000Y-55245000D01*
X68023000Y-55243000D01*
X68025000Y-55242000D01*
X68027000Y-55240000D01*
X68030000Y-55239000D01*
X68032000Y-55238000D01*
X68035000Y-55237000D01*
X68037000Y-55237000D01*
X68040000Y-55236000D01*
X68042000Y-55236000D01*
X68045000Y-55235000D01*
X68505000Y-55235000D01*
X68508000Y-55236000D01*
%TD*%
D11*
%TO.C,U6*%
X78275000Y-52775000D03*
X78275000Y-52125000D03*
X78275000Y-51475000D03*
X76375000Y-51475000D03*
X76375000Y-52125000D03*
X76375000Y-52775000D03*
%TD*%
%TO.C,U5*%
X78275000Y-55650000D03*
X78275000Y-55000000D03*
X78275000Y-54350000D03*
X76375000Y-54350000D03*
X76375000Y-55000000D03*
X76375000Y-55650000D03*
%TD*%
%TO.C,U4*%
X115100000Y-73975000D03*
X115100000Y-74625000D03*
X115100000Y-75275000D03*
X117000000Y-75275000D03*
X117000000Y-74625000D03*
X117000000Y-73975000D03*
%TD*%
D12*
%TO.C,C5*%
X120900000Y-75675000D03*
X119000000Y-75675000D03*
%TD*%
D13*
%TO.C,C6*%
X68900000Y-51535000D03*
X68900000Y-53085000D03*
%TD*%
D14*
%TO.C,R3*%
X64295000Y-53040000D03*
X62645000Y-53040000D03*
%TD*%
D15*
%TO.C,C13*%
X58550000Y-79025000D03*
X57000000Y-79025000D03*
%TD*%
D16*
%TO.C,J1*%
X66500000Y-67250000D03*
X66500000Y-66750000D03*
X66500000Y-66250000D03*
X66500000Y-65750000D03*
X66500000Y-65250000D03*
X66500000Y-64750000D03*
X66500000Y-64250000D03*
X66500000Y-63750000D03*
X66500000Y-63250000D03*
X66500000Y-62750000D03*
%TD*%
D17*
%TO.C,SW1*%
X52125000Y-55300000D03*
X59925000Y-55300000D03*
%TD*%
D15*
%TO.C,C14*%
X64125000Y-78900000D03*
X62575000Y-78900000D03*
%TD*%
D13*
%TO.C,C2*%
X53850000Y-76275000D03*
X53850000Y-77825000D03*
%TD*%
D18*
%TO.C,R4*%
X115150000Y-76850000D03*
X116800000Y-76850000D03*
%TD*%
D19*
%TO.C,C7*%
X62705000Y-51700000D03*
X64255000Y-51700000D03*
%TD*%
D15*
%TO.C,C1*%
X120625000Y-74075000D03*
X119075000Y-74075000D03*
%TD*%
D14*
%TO.C,R2*%
X67185000Y-53040000D03*
X65535000Y-53040000D03*
%TD*%
D20*
%TO.C,L1*%
X70430000Y-54080000D03*
X70430000Y-56380000D03*
%TD*%
D13*
%TO.C,C19*%
X52225000Y-76300000D03*
X52225000Y-77850000D03*
%TD*%
D19*
%TO.C,C3*%
X61125000Y-63800000D03*
X62675000Y-63800000D03*
%TD*%
D21*
%TO.C,U2*%
X115875000Y-72200000D03*
D22*
X114000000Y-67425000D03*
X126200000Y-61725000D03*
D21*
X122425000Y-72200000D03*
D22*
X114000000Y-66575000D03*
D21*
X118625000Y-58000000D03*
D22*
X126200000Y-66575000D03*
X127200000Y-62775000D03*
X126200000Y-67425000D03*
X127200000Y-65525000D03*
X113000000Y-62775000D03*
X113000000Y-65525000D03*
D21*
X116725000Y-72200000D03*
D22*
X114000000Y-63625000D03*
D21*
X121575000Y-72200000D03*
X124325000Y-71200000D03*
X124325000Y-72200000D03*
D22*
X114000000Y-68475000D03*
X127200000Y-66575000D03*
X127200000Y-69325000D03*
D21*
X117775000Y-58000000D03*
D22*
X114000000Y-69325000D03*
D21*
X119675000Y-58000000D03*
X123475000Y-71200000D03*
D22*
X126200000Y-69325000D03*
X126200000Y-62775000D03*
X113000000Y-67425000D03*
D21*
X121575000Y-59000000D03*
D22*
X126200000Y-64675000D03*
X114000000Y-64675000D03*
D21*
X122425000Y-71200000D03*
D22*
X127200000Y-64675000D03*
D21*
X124325000Y-59000000D03*
X120525000Y-71200000D03*
X120525000Y-72200000D03*
D22*
X113000000Y-61725000D03*
X113000000Y-64675000D03*
D21*
X116725000Y-59000000D03*
X116725000Y-71200000D03*
X118625000Y-59000000D03*
D22*
X127200000Y-63625000D03*
X114000000Y-60875000D03*
D21*
X115875000Y-59000000D03*
X124325000Y-58000000D03*
X120525000Y-59000000D03*
D22*
X113000000Y-68475000D03*
D21*
X117775000Y-59000000D03*
D22*
X127200000Y-67425000D03*
X114000000Y-61725000D03*
D21*
X119675000Y-59000000D03*
X116725000Y-58000000D03*
X123475000Y-58000000D03*
X122425000Y-59000000D03*
D22*
X126200000Y-68475000D03*
D21*
X117775000Y-71200000D03*
X118625000Y-71200000D03*
D22*
X114000000Y-62775000D03*
X126200000Y-65525000D03*
X113000000Y-63625000D03*
X127200000Y-61725000D03*
X126200000Y-63625000D03*
D21*
X119675000Y-72200000D03*
X115875000Y-58000000D03*
X120525000Y-58000000D03*
X115875000Y-71200000D03*
D22*
X127200000Y-68475000D03*
D21*
X123475000Y-72200000D03*
D22*
X113000000Y-60875000D03*
D21*
X118625000Y-72200000D03*
D22*
X113000000Y-69325000D03*
D21*
X119675000Y-71200000D03*
X123475000Y-59000000D03*
D22*
X113000000Y-66575000D03*
X127200000Y-60875000D03*
D21*
X122425000Y-58000000D03*
D22*
X114000000Y-65525000D03*
D21*
X121575000Y-71200000D03*
X121575000Y-58000000D03*
D22*
X126200000Y-60875000D03*
D21*
X117775000Y-72200000D03*
%TD*%
D14*
%TO.C,R6*%
X64625000Y-57200000D03*
X62975000Y-57200000D03*
%TD*%
D23*
%TO.C,U3*%
X65625000Y-78400000D03*
X66425000Y-78400000D03*
X67225000Y-78400000D03*
X68025000Y-78400000D03*
X68825000Y-78400000D03*
X69625000Y-78400000D03*
X70425000Y-78400000D03*
X71225000Y-78400000D03*
D24*
X72600000Y-77025000D03*
X72600000Y-76225000D03*
X72600000Y-75425000D03*
X72600000Y-74625000D03*
X72600000Y-73825000D03*
X72600000Y-73025000D03*
X72600000Y-72225000D03*
X72600000Y-71425000D03*
D23*
X71225000Y-70050000D03*
X70425000Y-70050000D03*
X69625000Y-70050000D03*
X68825000Y-70050000D03*
X68025000Y-70050000D03*
X67225000Y-70050000D03*
X66425000Y-70050000D03*
X65625000Y-70050000D03*
D24*
X64250000Y-71425000D03*
X64250000Y-72225000D03*
X64250000Y-73025000D03*
X64250000Y-73825000D03*
X64250000Y-74625000D03*
X64250000Y-75425000D03*
X64250000Y-76225000D03*
X64250000Y-77025000D03*
%TD*%
D25*
%TO.C,C10*%
X73025000Y-56625000D03*
X73025000Y-53675000D03*
%TD*%
D13*
%TO.C,C16*%
X74800000Y-70925000D03*
X74800000Y-72475000D03*
%TD*%
D15*
%TO.C,C15*%
X58625000Y-76750000D03*
X57075000Y-76750000D03*
%TD*%
D18*
%TO.C,R7*%
X62975000Y-55860000D03*
X64625000Y-55860000D03*
%TD*%
D26*
%TO.C,Y1*%
X60525000Y-76500000D03*
X60525000Y-79000000D03*
%TD*%
D27*
%TO.C,C9*%
X66225000Y-59490000D03*
X69175000Y-59490000D03*
%TD*%
D19*
%TO.C,C8*%
X67335000Y-57650000D03*
X68885000Y-57650000D03*
%TD*%
D14*
%TO.C,R1*%
X61825000Y-74675000D03*
X60175000Y-74675000D03*
%TD*%
D28*
%TO.C,U1*%
X67200000Y-54360000D03*
X67200000Y-54860000D03*
X67200000Y-55360000D03*
X67200000Y-55860000D03*
X67200000Y-56360000D03*
D29*
X68850000Y-56360000D03*
X68850000Y-55860000D03*
X68850000Y-54860000D03*
X68850000Y-54360000D03*
%TD*%
M02*
