%TF.GenerationSoftware,KiCad,Pcbnew,(6.0.10)*%
%TF.CreationDate,2023-04-20T12:34:08-06:00*%
%TF.ProjectId,SolarGPS,536f6c61-7247-4505-932e-6b696361645f,rev?*%
%TF.SameCoordinates,Original*%
%TF.FileFunction,Legend,Bot*%
%TF.FilePolarity,Positive*%
%FSLAX46Y46*%
G04 Gerber Fmt 4.6, Leading zero omitted, Abs format (unit mm)*
G04 Created by KiCad (PCBNEW (6.0.10)) date 2023-04-20 12:34:08*
%MOMM*%
%LPD*%
G01*
G04 APERTURE LIST*
%ADD10C,0.300000*%
%ADD11C,0.200000*%
%ADD12C,0.250000*%
%ADD13C,0.120000*%
G04 APERTURE END LIST*
D10*
X79517857Y-75075000D02*
X79660714Y-75003571D01*
X79875000Y-75003571D01*
X80089285Y-75075000D01*
X80232142Y-75217857D01*
X80303571Y-75360714D01*
X80375000Y-75646428D01*
X80375000Y-75860714D01*
X80303571Y-76146428D01*
X80232142Y-76289285D01*
X80089285Y-76432142D01*
X79875000Y-76503571D01*
X79732142Y-76503571D01*
X79517857Y-76432142D01*
X79446428Y-76360714D01*
X79446428Y-75860714D01*
X79732142Y-75860714D01*
X78803571Y-76503571D02*
X78803571Y-75003571D01*
X77946428Y-76503571D01*
X77946428Y-75003571D01*
X77232142Y-76503571D02*
X77232142Y-75003571D01*
X76875000Y-75003571D01*
X76660714Y-75075000D01*
X76517857Y-75217857D01*
X76446428Y-75360714D01*
X76375000Y-75646428D01*
X76375000Y-75860714D01*
X76446428Y-76146428D01*
X76517857Y-76289285D01*
X76660714Y-76432142D01*
X76875000Y-76503571D01*
X77232142Y-76503571D01*
D11*
X116429761Y-51929761D02*
X116286904Y-51977380D01*
X116048809Y-51977380D01*
X115953571Y-51929761D01*
X115905952Y-51882142D01*
X115858333Y-51786904D01*
X115858333Y-51691666D01*
X115905952Y-51596428D01*
X115953571Y-51548809D01*
X116048809Y-51501190D01*
X116239285Y-51453571D01*
X116334523Y-51405952D01*
X116382142Y-51358333D01*
X116429761Y-51263095D01*
X116429761Y-51167857D01*
X116382142Y-51072619D01*
X116334523Y-51025000D01*
X116239285Y-50977380D01*
X116001190Y-50977380D01*
X115858333Y-51025000D01*
X115429761Y-51596428D02*
X114667857Y-51596428D01*
X115048809Y-51977380D02*
X115048809Y-51215476D01*
X110054761Y-79029761D02*
X109911904Y-79077380D01*
X109673809Y-79077380D01*
X109578571Y-79029761D01*
X109530952Y-78982142D01*
X109483333Y-78886904D01*
X109483333Y-78791666D01*
X109530952Y-78696428D01*
X109578571Y-78648809D01*
X109673809Y-78601190D01*
X109864285Y-78553571D01*
X109959523Y-78505952D01*
X110007142Y-78458333D01*
X110054761Y-78363095D01*
X110054761Y-78267857D01*
X110007142Y-78172619D01*
X109959523Y-78125000D01*
X109864285Y-78077380D01*
X109626190Y-78077380D01*
X109483333Y-78125000D01*
X109054761Y-78696428D02*
X108292857Y-78696428D01*
X108673809Y-79077380D02*
X108673809Y-78315476D01*
D10*
X56342857Y-50925000D02*
X56485714Y-50853571D01*
X56700000Y-50853571D01*
X56914285Y-50925000D01*
X57057142Y-51067857D01*
X57128571Y-51210714D01*
X57200000Y-51496428D01*
X57200000Y-51710714D01*
X57128571Y-51996428D01*
X57057142Y-52139285D01*
X56914285Y-52282142D01*
X56700000Y-52353571D01*
X56557142Y-52353571D01*
X56342857Y-52282142D01*
X56271428Y-52210714D01*
X56271428Y-51710714D01*
X56557142Y-51710714D01*
X55628571Y-52353571D02*
X55628571Y-50853571D01*
X54771428Y-52353571D01*
X54771428Y-50853571D01*
X54057142Y-52353571D02*
X54057142Y-50853571D01*
X53700000Y-50853571D01*
X53485714Y-50925000D01*
X53342857Y-51067857D01*
X53271428Y-51210714D01*
X53200000Y-51496428D01*
X53200000Y-51710714D01*
X53271428Y-51996428D01*
X53342857Y-52139285D01*
X53485714Y-52282142D01*
X53700000Y-52353571D01*
X54057142Y-52353571D01*
D11*
X103771428Y-57178571D02*
X103771428Y-55678571D01*
X103414285Y-55678571D01*
X103200000Y-55750000D01*
X103057142Y-55892857D01*
X102985714Y-56035714D01*
X102914285Y-56321428D01*
X102914285Y-56535714D01*
X102985714Y-56821428D01*
X103057142Y-56964285D01*
X103200000Y-57107142D01*
X103414285Y-57178571D01*
X103771428Y-57178571D01*
X101985714Y-55678571D02*
X101700000Y-55678571D01*
X101557142Y-55750000D01*
X101414285Y-55892857D01*
X101342857Y-56178571D01*
X101342857Y-56678571D01*
X101414285Y-56964285D01*
X101557142Y-57107142D01*
X101700000Y-57178571D01*
X101985714Y-57178571D01*
X102128571Y-57107142D01*
X102271428Y-56964285D01*
X102342857Y-56678571D01*
X102342857Y-56178571D01*
X102271428Y-55892857D01*
X102128571Y-55750000D01*
X101985714Y-55678571D01*
X100700000Y-57178571D02*
X100700000Y-55678571D01*
X99842857Y-57178571D01*
X99842857Y-55678571D01*
X99342857Y-55678571D02*
X98485714Y-55678571D01*
X98914285Y-57178571D02*
X98914285Y-55678571D01*
X96128571Y-57178571D02*
X96842857Y-57178571D01*
X96842857Y-55678571D01*
X95342857Y-55678571D02*
X95057142Y-55678571D01*
X94914285Y-55750000D01*
X94771428Y-55892857D01*
X94700000Y-56178571D01*
X94700000Y-56678571D01*
X94771428Y-56964285D01*
X94914285Y-57107142D01*
X95057142Y-57178571D01*
X95342857Y-57178571D01*
X95485714Y-57107142D01*
X95628571Y-56964285D01*
X95700000Y-56678571D01*
X95700000Y-56178571D01*
X95628571Y-55892857D01*
X95485714Y-55750000D01*
X95342857Y-55678571D01*
X93771428Y-55678571D02*
X93485714Y-55678571D01*
X93342857Y-55750000D01*
X93200000Y-55892857D01*
X93128571Y-56178571D01*
X93128571Y-56678571D01*
X93200000Y-56964285D01*
X93342857Y-57107142D01*
X93485714Y-57178571D01*
X93771428Y-57178571D01*
X93914285Y-57107142D01*
X94057142Y-56964285D01*
X94128571Y-56678571D01*
X94128571Y-56178571D01*
X94057142Y-55892857D01*
X93914285Y-55750000D01*
X93771428Y-55678571D01*
X92485714Y-57178571D02*
X92485714Y-55678571D01*
X91628571Y-57178571D02*
X92271428Y-56321428D01*
X91628571Y-55678571D02*
X92485714Y-56535714D01*
X89842857Y-57178571D02*
X89842857Y-55678571D01*
X89842857Y-56392857D02*
X88985714Y-56392857D01*
X88985714Y-57178571D02*
X88985714Y-55678571D01*
X88271428Y-56392857D02*
X87771428Y-56392857D01*
X87557142Y-57178571D02*
X88271428Y-57178571D01*
X88271428Y-55678571D01*
X87557142Y-55678571D01*
X86057142Y-57178571D02*
X86557142Y-56464285D01*
X86914285Y-57178571D02*
X86914285Y-55678571D01*
X86342857Y-55678571D01*
X86200000Y-55750000D01*
X86128571Y-55821428D01*
X86057142Y-55964285D01*
X86057142Y-56178571D01*
X86128571Y-56321428D01*
X86200000Y-56392857D01*
X86342857Y-56464285D01*
X86914285Y-56464285D01*
X85414285Y-56392857D02*
X84914285Y-56392857D01*
X84700000Y-57178571D02*
X85414285Y-57178571D01*
X85414285Y-55678571D01*
X84700000Y-55678571D01*
D12*
X95931071Y-71980357D02*
X97431071Y-72480357D01*
X95931071Y-72980357D01*
X97431071Y-73480357D02*
X95931071Y-73480357D01*
X95931071Y-73837500D01*
X96002500Y-74051785D01*
X96145357Y-74194642D01*
X96288214Y-74266071D01*
X96573928Y-74337500D01*
X96788214Y-74337500D01*
X97073928Y-74266071D01*
X97216785Y-74194642D01*
X97359642Y-74051785D01*
X97431071Y-73837500D01*
X97431071Y-73480357D01*
X97431071Y-74980357D02*
X95931071Y-74980357D01*
X95931071Y-75337500D01*
X96002500Y-75551785D01*
X96145357Y-75694642D01*
X96288214Y-75766071D01*
X96573928Y-75837500D01*
X96788214Y-75837500D01*
X97073928Y-75766071D01*
X97216785Y-75694642D01*
X97359642Y-75551785D01*
X97431071Y-75337500D01*
X97431071Y-74980357D01*
X99846071Y-72194642D02*
X98346071Y-72194642D01*
X99417500Y-72694642D01*
X98346071Y-73194642D01*
X99846071Y-73194642D01*
X98346071Y-74194642D02*
X98346071Y-74480357D01*
X98417500Y-74623214D01*
X98560357Y-74766071D01*
X98846071Y-74837500D01*
X99346071Y-74837500D01*
X99631785Y-74766071D01*
X99774642Y-74623214D01*
X99846071Y-74480357D01*
X99846071Y-74194642D01*
X99774642Y-74051785D01*
X99631785Y-73908928D01*
X99346071Y-73837500D01*
X98846071Y-73837500D01*
X98560357Y-73908928D01*
X98417500Y-74051785D01*
X98346071Y-74194642D01*
X99774642Y-75408928D02*
X99846071Y-75623214D01*
X99846071Y-75980357D01*
X99774642Y-76123214D01*
X99703214Y-76194642D01*
X99560357Y-76266071D01*
X99417500Y-76266071D01*
X99274642Y-76194642D01*
X99203214Y-76123214D01*
X99131785Y-75980357D01*
X99060357Y-75694642D01*
X98988928Y-75551785D01*
X98917500Y-75480357D01*
X98774642Y-75408928D01*
X98631785Y-75408928D01*
X98488928Y-75480357D01*
X98417500Y-75551785D01*
X98346071Y-75694642D01*
X98346071Y-76051785D01*
X98417500Y-76266071D01*
X99846071Y-76908928D02*
X98346071Y-76908928D01*
X102261071Y-72194642D02*
X100761071Y-72194642D01*
X101832500Y-72694642D01*
X100761071Y-73194642D01*
X102261071Y-73194642D01*
X102261071Y-73908928D02*
X100761071Y-73908928D01*
X102189642Y-74551785D02*
X102261071Y-74766071D01*
X102261071Y-75123214D01*
X102189642Y-75266071D01*
X102118214Y-75337500D01*
X101975357Y-75408928D01*
X101832500Y-75408928D01*
X101689642Y-75337500D01*
X101618214Y-75266071D01*
X101546785Y-75123214D01*
X101475357Y-74837500D01*
X101403928Y-74694642D01*
X101332500Y-74623214D01*
X101189642Y-74551785D01*
X101046785Y-74551785D01*
X100903928Y-74623214D01*
X100832500Y-74694642D01*
X100761071Y-74837500D01*
X100761071Y-75194642D01*
X100832500Y-75408928D01*
X100761071Y-76337500D02*
X100761071Y-76623214D01*
X100832500Y-76766071D01*
X100975357Y-76908928D01*
X101261071Y-76980357D01*
X101761071Y-76980357D01*
X102046785Y-76908928D01*
X102189642Y-76766071D01*
X102261071Y-76623214D01*
X102261071Y-76337500D01*
X102189642Y-76194642D01*
X102046785Y-76051785D01*
X101761071Y-75980357D01*
X101261071Y-75980357D01*
X100975357Y-76051785D01*
X100832500Y-76194642D01*
X100761071Y-76337500D01*
X103247500Y-72980357D02*
X103176071Y-72837500D01*
X103176071Y-72623214D01*
X103247500Y-72408928D01*
X103390357Y-72266071D01*
X103533214Y-72194642D01*
X103818928Y-72123214D01*
X104033214Y-72123214D01*
X104318928Y-72194642D01*
X104461785Y-72266071D01*
X104604642Y-72408928D01*
X104676071Y-72623214D01*
X104676071Y-72766071D01*
X104604642Y-72980357D01*
X104533214Y-73051785D01*
X104033214Y-73051785D01*
X104033214Y-72766071D01*
X104676071Y-73694642D02*
X103176071Y-73694642D01*
X104676071Y-74551785D01*
X103176071Y-74551785D01*
X104676071Y-75266071D02*
X103176071Y-75266071D01*
X103176071Y-75623214D01*
X103247500Y-75837500D01*
X103390357Y-75980357D01*
X103533214Y-76051785D01*
X103818928Y-76123214D01*
X104033214Y-76123214D01*
X104318928Y-76051785D01*
X104461785Y-75980357D01*
X104604642Y-75837500D01*
X104676071Y-75623214D01*
X104676071Y-75266071D01*
D11*
%TO.C,C4*%
X65338095Y-69257142D02*
X66861904Y-69257142D01*
X66100000Y-68495238D02*
X66100000Y-70019047D01*
D13*
X69500000Y-60500000D02*
X91500000Y-60500000D01*
X91500000Y-60500000D02*
X91500000Y-69000000D01*
X69500000Y-61500000D02*
X91500000Y-61500000D01*
X69500000Y-60500000D02*
X69500000Y-69000000D01*
X69500000Y-69000000D02*
X91500000Y-69000000D01*
%TO.C,J8*%
X105300000Y-77545000D02*
X105300000Y-80205000D01*
X97620000Y-77545000D02*
X105300000Y-77545000D01*
X95020000Y-78875000D02*
X95020000Y-80205000D01*
X97620000Y-80205000D02*
X105300000Y-80205000D01*
X95020000Y-80205000D02*
X96350000Y-80205000D01*
X97620000Y-77545000D02*
X97620000Y-80205000D01*
%TD*%
M02*
