%TF.GenerationSoftware,KiCad,Pcbnew,(6.0.6)*%
%TF.CreationDate,2022-11-03T14:15:42-06:00*%
%TF.ProjectId,SolarGPS,536f6c61-7247-4505-932e-6b696361645f,rev?*%
%TF.SameCoordinates,Original*%
%TF.FileFunction,Soldermask,Top*%
%TF.FilePolarity,Negative*%
%FSLAX46Y46*%
G04 Gerber Fmt 4.6, Leading zero omitted, Abs format (unit mm)*
G04 Created by KiCad (PCBNEW (6.0.6)) date 2022-11-03 14:15:42*
%MOMM*%
%LPD*%
G01*
G04 APERTURE LIST*
G04 Aperture macros list*
%AMRoundRect*
0 Rectangle with rounded corners*
0 $1 Rounding radius*
0 $2 $3 $4 $5 $6 $7 $8 $9 X,Y pos of 4 corners*
0 Add a 4 corners polygon primitive as box body*
4,1,4,$2,$3,$4,$5,$6,$7,$8,$9,$2,$3,0*
0 Add four circle primitives for the rounded corners*
1,1,$1+$1,$2,$3*
1,1,$1+$1,$4,$5*
1,1,$1+$1,$6,$7*
1,1,$1+$1,$8,$9*
0 Add four rect primitives between the rounded corners*
20,1,$1+$1,$2,$3,$4,$5,0*
20,1,$1+$1,$4,$5,$6,$7,0*
20,1,$1+$1,$6,$7,$8,$9,0*
20,1,$1+$1,$8,$9,$2,$3,0*%
G04 Aperture macros list end*
%ADD10C,0.250000*%
%ADD11C,0.010000*%
%ADD12R,0.650000X0.400000*%
%ADD13RoundRect,0.250000X0.250000X0.475000X-0.250000X0.475000X-0.250000X-0.475000X0.250000X-0.475000X0*%
%ADD14C,3.000000*%
%ADD15C,0.990600*%
%ADD16C,0.787400*%
%ADD17RoundRect,0.225000X-0.250000X0.225000X-0.250000X-0.225000X0.250000X-0.225000X0.250000X0.225000X0*%
%ADD18RoundRect,0.200000X0.200000X0.275000X-0.200000X0.275000X-0.200000X-0.275000X0.200000X-0.275000X0*%
%ADD19RoundRect,0.225000X0.225000X0.250000X-0.225000X0.250000X-0.225000X-0.250000X0.225000X-0.250000X0*%
%ADD20RoundRect,0.120000X2.000000X-0.150000X2.000000X0.150000X-2.000000X0.150000X-2.000000X-0.150000X0*%
%ADD21R,1.500000X1.500000*%
%ADD22R,1.700000X1.700000*%
%ADD23RoundRect,0.200000X-0.200000X-0.275000X0.200000X-0.275000X0.200000X0.275000X-0.200000X0.275000X0*%
%ADD24RoundRect,0.225000X-0.225000X-0.250000X0.225000X-0.250000X0.225000X0.250000X-0.225000X0.250000X0*%
%ADD25RoundRect,0.250000X-0.350000X0.275000X-0.350000X-0.275000X0.350000X-0.275000X0.350000X0.275000X0*%
%ADD26RoundRect,0.000001X0.900000X0.750000X-0.900000X0.750000X-0.900000X-0.750000X0.900000X-0.750000X0*%
%ADD27RoundRect,0.000001X0.750000X0.900000X-0.750000X0.900000X-0.750000X-0.900000X0.750000X-0.900000X0*%
%ADD28RoundRect,0.125000X0.125000X-0.625000X0.125000X0.625000X-0.125000X0.625000X-0.125000X-0.625000X0*%
%ADD29RoundRect,0.125000X0.625000X-0.125000X0.625000X0.125000X-0.625000X0.125000X-0.625000X-0.125000X0*%
%ADD30RoundRect,0.250000X0.650000X-0.325000X0.650000X0.325000X-0.650000X0.325000X-0.650000X-0.325000X0*%
%ADD31R,1.800000X1.000000*%
%ADD32RoundRect,0.250000X-0.325000X-0.650000X0.325000X-0.650000X0.325000X0.650000X-0.325000X0.650000X0*%
%ADD33O,1.700000X1.700000*%
G04 APERTURE END LIST*
D10*
X54308928Y-64601857D02*
X53908928Y-64030428D01*
X53623214Y-64601857D02*
X53623214Y-63401857D01*
X54080357Y-63401857D01*
X54194642Y-63459000D01*
X54251785Y-63516142D01*
X54308928Y-63630428D01*
X54308928Y-63801857D01*
X54251785Y-63916142D01*
X54194642Y-63973285D01*
X54080357Y-64030428D01*
X53623214Y-64030428D01*
X54823214Y-63973285D02*
X55223214Y-63973285D01*
X55394642Y-64601857D02*
X54823214Y-64601857D01*
X54823214Y-63401857D01*
X55394642Y-63401857D01*
X55851785Y-64259000D02*
X56423214Y-64259000D01*
X55737500Y-64601857D02*
X56137500Y-63401857D01*
X56537500Y-64601857D01*
X57508928Y-64601857D02*
X56937500Y-64601857D01*
X56937500Y-63401857D01*
X54251785Y-65391000D02*
X54137500Y-65333857D01*
X53966071Y-65333857D01*
X53794642Y-65391000D01*
X53680357Y-65505285D01*
X53623214Y-65619571D01*
X53566071Y-65848142D01*
X53566071Y-66019571D01*
X53623214Y-66248142D01*
X53680357Y-66362428D01*
X53794642Y-66476714D01*
X53966071Y-66533857D01*
X54080357Y-66533857D01*
X54251785Y-66476714D01*
X54308928Y-66419571D01*
X54308928Y-66019571D01*
X54080357Y-66019571D01*
X55051785Y-65333857D02*
X55280357Y-65333857D01*
X55394642Y-65391000D01*
X55508928Y-65505285D01*
X55566071Y-65733857D01*
X55566071Y-66133857D01*
X55508928Y-66362428D01*
X55394642Y-66476714D01*
X55280357Y-66533857D01*
X55051785Y-66533857D01*
X54937500Y-66476714D01*
X54823214Y-66362428D01*
X54766071Y-66133857D01*
X54766071Y-65733857D01*
X54823214Y-65505285D01*
X54937500Y-65391000D01*
X55051785Y-65333857D01*
X56651785Y-66533857D02*
X56080357Y-66533857D01*
X56080357Y-65333857D01*
X57051785Y-66533857D02*
X57051785Y-65333857D01*
X57337500Y-65333857D01*
X57508928Y-65391000D01*
X57623214Y-65505285D01*
X57680357Y-65619571D01*
X57737500Y-65848142D01*
X57737500Y-66019571D01*
X57680357Y-66248142D01*
X57623214Y-66362428D01*
X57508928Y-66476714D01*
X57337500Y-66533857D01*
X57051785Y-66533857D01*
%TO.C,U1*%
G36*
X69263000Y-54666000D02*
G01*
X69269000Y-54666000D01*
X69275000Y-54668000D01*
X69281000Y-54669000D01*
X69299000Y-54675000D01*
X69304000Y-54678000D01*
X69310000Y-54681000D01*
X69315000Y-54684000D01*
X69321000Y-54688000D01*
X69326000Y-54692000D01*
X69330000Y-54696000D01*
X69335000Y-54700000D01*
X69339000Y-54705000D01*
X69343000Y-54709000D01*
X69347000Y-54714000D01*
X69351000Y-54720000D01*
X69354000Y-54725000D01*
X69357000Y-54731000D01*
X69360000Y-54736000D01*
X69366000Y-54754000D01*
X69367000Y-54760000D01*
X69369000Y-54766000D01*
X69369000Y-54772000D01*
X69370000Y-54779000D01*
X69370000Y-54941000D01*
X69369000Y-54948000D01*
X69369000Y-54954000D01*
X69367000Y-54960000D01*
X69366000Y-54966000D01*
X69360000Y-54984000D01*
X69357000Y-54989000D01*
X69354000Y-54995000D01*
X69351000Y-55000000D01*
X69347000Y-55006000D01*
X69343000Y-55011000D01*
X69339000Y-55015000D01*
X69335000Y-55020000D01*
X69330000Y-55024000D01*
X69326000Y-55028000D01*
X69321000Y-55032000D01*
X69315000Y-55036000D01*
X69310000Y-55039000D01*
X69304000Y-55042000D01*
X69299000Y-55045000D01*
X69281000Y-55051000D01*
X69275000Y-55052000D01*
X69269000Y-55054000D01*
X69263000Y-55054000D01*
X69256000Y-55055000D01*
X68444000Y-55055000D01*
X68437000Y-55054000D01*
X68431000Y-55054000D01*
X68425000Y-55052000D01*
X68419000Y-55051000D01*
X68401000Y-55045000D01*
X68396000Y-55042000D01*
X68390000Y-55039000D01*
X68385000Y-55036000D01*
X68379000Y-55032000D01*
X68374000Y-55028000D01*
X68370000Y-55024000D01*
X68365000Y-55020000D01*
X68361000Y-55015000D01*
X68357000Y-55011000D01*
X68353000Y-55006000D01*
X68349000Y-55000000D01*
X68346000Y-54995000D01*
X68343000Y-54989000D01*
X68340000Y-54984000D01*
X68334000Y-54966000D01*
X68333000Y-54960000D01*
X68331000Y-54954000D01*
X68331000Y-54948000D01*
X68330000Y-54941000D01*
X68330000Y-54779000D01*
X68331000Y-54772000D01*
X68331000Y-54766000D01*
X68333000Y-54760000D01*
X68334000Y-54754000D01*
X68340000Y-54736000D01*
X68343000Y-54731000D01*
X68346000Y-54725000D01*
X68349000Y-54720000D01*
X68353000Y-54714000D01*
X68357000Y-54709000D01*
X68361000Y-54705000D01*
X68365000Y-54700000D01*
X68370000Y-54696000D01*
X68374000Y-54692000D01*
X68379000Y-54688000D01*
X68385000Y-54684000D01*
X68390000Y-54681000D01*
X68396000Y-54678000D01*
X68401000Y-54675000D01*
X68419000Y-54669000D01*
X68425000Y-54668000D01*
X68431000Y-54666000D01*
X68437000Y-54666000D01*
X68444000Y-54665000D01*
X69256000Y-54665000D01*
X69263000Y-54666000D01*
G37*
D11*
X69263000Y-54666000D02*
X69269000Y-54666000D01*
X69275000Y-54668000D01*
X69281000Y-54669000D01*
X69299000Y-54675000D01*
X69304000Y-54678000D01*
X69310000Y-54681000D01*
X69315000Y-54684000D01*
X69321000Y-54688000D01*
X69326000Y-54692000D01*
X69330000Y-54696000D01*
X69335000Y-54700000D01*
X69339000Y-54705000D01*
X69343000Y-54709000D01*
X69347000Y-54714000D01*
X69351000Y-54720000D01*
X69354000Y-54725000D01*
X69357000Y-54731000D01*
X69360000Y-54736000D01*
X69366000Y-54754000D01*
X69367000Y-54760000D01*
X69369000Y-54766000D01*
X69369000Y-54772000D01*
X69370000Y-54779000D01*
X69370000Y-54941000D01*
X69369000Y-54948000D01*
X69369000Y-54954000D01*
X69367000Y-54960000D01*
X69366000Y-54966000D01*
X69360000Y-54984000D01*
X69357000Y-54989000D01*
X69354000Y-54995000D01*
X69351000Y-55000000D01*
X69347000Y-55006000D01*
X69343000Y-55011000D01*
X69339000Y-55015000D01*
X69335000Y-55020000D01*
X69330000Y-55024000D01*
X69326000Y-55028000D01*
X69321000Y-55032000D01*
X69315000Y-55036000D01*
X69310000Y-55039000D01*
X69304000Y-55042000D01*
X69299000Y-55045000D01*
X69281000Y-55051000D01*
X69275000Y-55052000D01*
X69269000Y-55054000D01*
X69263000Y-55054000D01*
X69256000Y-55055000D01*
X68444000Y-55055000D01*
X68437000Y-55054000D01*
X68431000Y-55054000D01*
X68425000Y-55052000D01*
X68419000Y-55051000D01*
X68401000Y-55045000D01*
X68396000Y-55042000D01*
X68390000Y-55039000D01*
X68385000Y-55036000D01*
X68379000Y-55032000D01*
X68374000Y-55028000D01*
X68370000Y-55024000D01*
X68365000Y-55020000D01*
X68361000Y-55015000D01*
X68357000Y-55011000D01*
X68353000Y-55006000D01*
X68349000Y-55000000D01*
X68346000Y-54995000D01*
X68343000Y-54989000D01*
X68340000Y-54984000D01*
X68334000Y-54966000D01*
X68333000Y-54960000D01*
X68331000Y-54954000D01*
X68331000Y-54948000D01*
X68330000Y-54941000D01*
X68330000Y-54779000D01*
X68331000Y-54772000D01*
X68331000Y-54766000D01*
X68333000Y-54760000D01*
X68334000Y-54754000D01*
X68340000Y-54736000D01*
X68343000Y-54731000D01*
X68346000Y-54725000D01*
X68349000Y-54720000D01*
X68353000Y-54714000D01*
X68357000Y-54709000D01*
X68361000Y-54705000D01*
X68365000Y-54700000D01*
X68370000Y-54696000D01*
X68374000Y-54692000D01*
X68379000Y-54688000D01*
X68385000Y-54684000D01*
X68390000Y-54681000D01*
X68396000Y-54678000D01*
X68401000Y-54675000D01*
X68419000Y-54669000D01*
X68425000Y-54668000D01*
X68431000Y-54666000D01*
X68437000Y-54666000D01*
X68444000Y-54665000D01*
X69256000Y-54665000D01*
X69263000Y-54666000D01*
G36*
X69263000Y-56166000D02*
G01*
X69269000Y-56166000D01*
X69275000Y-56168000D01*
X69281000Y-56169000D01*
X69299000Y-56175000D01*
X69304000Y-56178000D01*
X69310000Y-56181000D01*
X69315000Y-56184000D01*
X69321000Y-56188000D01*
X69326000Y-56192000D01*
X69330000Y-56196000D01*
X69335000Y-56200000D01*
X69339000Y-56205000D01*
X69343000Y-56209000D01*
X69347000Y-56214000D01*
X69351000Y-56220000D01*
X69354000Y-56225000D01*
X69357000Y-56231000D01*
X69360000Y-56236000D01*
X69366000Y-56254000D01*
X69367000Y-56260000D01*
X69369000Y-56266000D01*
X69369000Y-56272000D01*
X69370000Y-56279000D01*
X69370000Y-56441000D01*
X69369000Y-56448000D01*
X69369000Y-56454000D01*
X69367000Y-56460000D01*
X69366000Y-56466000D01*
X69360000Y-56484000D01*
X69357000Y-56489000D01*
X69354000Y-56495000D01*
X69351000Y-56500000D01*
X69347000Y-56506000D01*
X69343000Y-56511000D01*
X69339000Y-56515000D01*
X69335000Y-56520000D01*
X69330000Y-56524000D01*
X69326000Y-56528000D01*
X69321000Y-56532000D01*
X69315000Y-56536000D01*
X69310000Y-56539000D01*
X69304000Y-56542000D01*
X69299000Y-56545000D01*
X69281000Y-56551000D01*
X69275000Y-56552000D01*
X69269000Y-56554000D01*
X69263000Y-56554000D01*
X69256000Y-56555000D01*
X68444000Y-56555000D01*
X68437000Y-56554000D01*
X68431000Y-56554000D01*
X68425000Y-56552000D01*
X68419000Y-56551000D01*
X68401000Y-56545000D01*
X68396000Y-56542000D01*
X68390000Y-56539000D01*
X68385000Y-56536000D01*
X68379000Y-56532000D01*
X68374000Y-56528000D01*
X68370000Y-56524000D01*
X68365000Y-56520000D01*
X68361000Y-56515000D01*
X68357000Y-56511000D01*
X68353000Y-56506000D01*
X68349000Y-56500000D01*
X68346000Y-56495000D01*
X68343000Y-56489000D01*
X68340000Y-56484000D01*
X68334000Y-56466000D01*
X68333000Y-56460000D01*
X68331000Y-56454000D01*
X68331000Y-56448000D01*
X68330000Y-56441000D01*
X68330000Y-56279000D01*
X68331000Y-56272000D01*
X68331000Y-56266000D01*
X68333000Y-56260000D01*
X68334000Y-56254000D01*
X68340000Y-56236000D01*
X68343000Y-56231000D01*
X68346000Y-56225000D01*
X68349000Y-56220000D01*
X68353000Y-56214000D01*
X68357000Y-56209000D01*
X68361000Y-56205000D01*
X68365000Y-56200000D01*
X68370000Y-56196000D01*
X68374000Y-56192000D01*
X68379000Y-56188000D01*
X68385000Y-56184000D01*
X68390000Y-56181000D01*
X68396000Y-56178000D01*
X68401000Y-56175000D01*
X68419000Y-56169000D01*
X68425000Y-56168000D01*
X68431000Y-56166000D01*
X68437000Y-56166000D01*
X68444000Y-56165000D01*
X69256000Y-56165000D01*
X69263000Y-56166000D01*
G37*
X69263000Y-56166000D02*
X69269000Y-56166000D01*
X69275000Y-56168000D01*
X69281000Y-56169000D01*
X69299000Y-56175000D01*
X69304000Y-56178000D01*
X69310000Y-56181000D01*
X69315000Y-56184000D01*
X69321000Y-56188000D01*
X69326000Y-56192000D01*
X69330000Y-56196000D01*
X69335000Y-56200000D01*
X69339000Y-56205000D01*
X69343000Y-56209000D01*
X69347000Y-56214000D01*
X69351000Y-56220000D01*
X69354000Y-56225000D01*
X69357000Y-56231000D01*
X69360000Y-56236000D01*
X69366000Y-56254000D01*
X69367000Y-56260000D01*
X69369000Y-56266000D01*
X69369000Y-56272000D01*
X69370000Y-56279000D01*
X69370000Y-56441000D01*
X69369000Y-56448000D01*
X69369000Y-56454000D01*
X69367000Y-56460000D01*
X69366000Y-56466000D01*
X69360000Y-56484000D01*
X69357000Y-56489000D01*
X69354000Y-56495000D01*
X69351000Y-56500000D01*
X69347000Y-56506000D01*
X69343000Y-56511000D01*
X69339000Y-56515000D01*
X69335000Y-56520000D01*
X69330000Y-56524000D01*
X69326000Y-56528000D01*
X69321000Y-56532000D01*
X69315000Y-56536000D01*
X69310000Y-56539000D01*
X69304000Y-56542000D01*
X69299000Y-56545000D01*
X69281000Y-56551000D01*
X69275000Y-56552000D01*
X69269000Y-56554000D01*
X69263000Y-56554000D01*
X69256000Y-56555000D01*
X68444000Y-56555000D01*
X68437000Y-56554000D01*
X68431000Y-56554000D01*
X68425000Y-56552000D01*
X68419000Y-56551000D01*
X68401000Y-56545000D01*
X68396000Y-56542000D01*
X68390000Y-56539000D01*
X68385000Y-56536000D01*
X68379000Y-56532000D01*
X68374000Y-56528000D01*
X68370000Y-56524000D01*
X68365000Y-56520000D01*
X68361000Y-56515000D01*
X68357000Y-56511000D01*
X68353000Y-56506000D01*
X68349000Y-56500000D01*
X68346000Y-56495000D01*
X68343000Y-56489000D01*
X68340000Y-56484000D01*
X68334000Y-56466000D01*
X68333000Y-56460000D01*
X68331000Y-56454000D01*
X68331000Y-56448000D01*
X68330000Y-56441000D01*
X68330000Y-56279000D01*
X68331000Y-56272000D01*
X68331000Y-56266000D01*
X68333000Y-56260000D01*
X68334000Y-56254000D01*
X68340000Y-56236000D01*
X68343000Y-56231000D01*
X68346000Y-56225000D01*
X68349000Y-56220000D01*
X68353000Y-56214000D01*
X68357000Y-56209000D01*
X68361000Y-56205000D01*
X68365000Y-56200000D01*
X68370000Y-56196000D01*
X68374000Y-56192000D01*
X68379000Y-56188000D01*
X68385000Y-56184000D01*
X68390000Y-56181000D01*
X68396000Y-56178000D01*
X68401000Y-56175000D01*
X68419000Y-56169000D01*
X68425000Y-56168000D01*
X68431000Y-56166000D01*
X68437000Y-56166000D01*
X68444000Y-56165000D01*
X69256000Y-56165000D01*
X69263000Y-56166000D01*
G36*
X69263000Y-55166000D02*
G01*
X69269000Y-55166000D01*
X69275000Y-55168000D01*
X69281000Y-55169000D01*
X69299000Y-55175000D01*
X69304000Y-55178000D01*
X69310000Y-55181000D01*
X69315000Y-55184000D01*
X69321000Y-55188000D01*
X69326000Y-55192000D01*
X69330000Y-55196000D01*
X69335000Y-55200000D01*
X69339000Y-55205000D01*
X69343000Y-55209000D01*
X69347000Y-55214000D01*
X69351000Y-55220000D01*
X69354000Y-55225000D01*
X69357000Y-55231000D01*
X69360000Y-55236000D01*
X69366000Y-55254000D01*
X69367000Y-55260000D01*
X69369000Y-55266000D01*
X69369000Y-55272000D01*
X69370000Y-55279000D01*
X69370000Y-55441000D01*
X69369000Y-55448000D01*
X69369000Y-55454000D01*
X69367000Y-55460000D01*
X69366000Y-55466000D01*
X69360000Y-55484000D01*
X69357000Y-55489000D01*
X69354000Y-55495000D01*
X69351000Y-55500000D01*
X69347000Y-55506000D01*
X69343000Y-55511000D01*
X69339000Y-55515000D01*
X69335000Y-55520000D01*
X69330000Y-55524000D01*
X69326000Y-55528000D01*
X69321000Y-55532000D01*
X69315000Y-55536000D01*
X69310000Y-55539000D01*
X69304000Y-55542000D01*
X69299000Y-55545000D01*
X69281000Y-55551000D01*
X69275000Y-55552000D01*
X69269000Y-55554000D01*
X69263000Y-55554000D01*
X69256000Y-55555000D01*
X68044000Y-55555000D01*
X68037000Y-55554000D01*
X68031000Y-55554000D01*
X68025000Y-55552000D01*
X68019000Y-55551000D01*
X68001000Y-55545000D01*
X67996000Y-55542000D01*
X67990000Y-55539000D01*
X67985000Y-55536000D01*
X67979000Y-55532000D01*
X67974000Y-55528000D01*
X67970000Y-55524000D01*
X67965000Y-55520000D01*
X67961000Y-55515000D01*
X67957000Y-55511000D01*
X67953000Y-55506000D01*
X67949000Y-55500000D01*
X67946000Y-55495000D01*
X67943000Y-55489000D01*
X67940000Y-55484000D01*
X67934000Y-55466000D01*
X67933000Y-55460000D01*
X67931000Y-55454000D01*
X67931000Y-55448000D01*
X67930000Y-55441000D01*
X67930000Y-55279000D01*
X67931000Y-55272000D01*
X67931000Y-55266000D01*
X67933000Y-55260000D01*
X67934000Y-55254000D01*
X67940000Y-55236000D01*
X67943000Y-55231000D01*
X67946000Y-55225000D01*
X67949000Y-55220000D01*
X67953000Y-55214000D01*
X67957000Y-55209000D01*
X67961000Y-55205000D01*
X67965000Y-55200000D01*
X67970000Y-55196000D01*
X67974000Y-55192000D01*
X67979000Y-55188000D01*
X67985000Y-55184000D01*
X67990000Y-55181000D01*
X67996000Y-55178000D01*
X68001000Y-55175000D01*
X68019000Y-55169000D01*
X68025000Y-55168000D01*
X68031000Y-55166000D01*
X68037000Y-55166000D01*
X68044000Y-55165000D01*
X69256000Y-55165000D01*
X69263000Y-55166000D01*
G37*
X69263000Y-55166000D02*
X69269000Y-55166000D01*
X69275000Y-55168000D01*
X69281000Y-55169000D01*
X69299000Y-55175000D01*
X69304000Y-55178000D01*
X69310000Y-55181000D01*
X69315000Y-55184000D01*
X69321000Y-55188000D01*
X69326000Y-55192000D01*
X69330000Y-55196000D01*
X69335000Y-55200000D01*
X69339000Y-55205000D01*
X69343000Y-55209000D01*
X69347000Y-55214000D01*
X69351000Y-55220000D01*
X69354000Y-55225000D01*
X69357000Y-55231000D01*
X69360000Y-55236000D01*
X69366000Y-55254000D01*
X69367000Y-55260000D01*
X69369000Y-55266000D01*
X69369000Y-55272000D01*
X69370000Y-55279000D01*
X69370000Y-55441000D01*
X69369000Y-55448000D01*
X69369000Y-55454000D01*
X69367000Y-55460000D01*
X69366000Y-55466000D01*
X69360000Y-55484000D01*
X69357000Y-55489000D01*
X69354000Y-55495000D01*
X69351000Y-55500000D01*
X69347000Y-55506000D01*
X69343000Y-55511000D01*
X69339000Y-55515000D01*
X69335000Y-55520000D01*
X69330000Y-55524000D01*
X69326000Y-55528000D01*
X69321000Y-55532000D01*
X69315000Y-55536000D01*
X69310000Y-55539000D01*
X69304000Y-55542000D01*
X69299000Y-55545000D01*
X69281000Y-55551000D01*
X69275000Y-55552000D01*
X69269000Y-55554000D01*
X69263000Y-55554000D01*
X69256000Y-55555000D01*
X68044000Y-55555000D01*
X68037000Y-55554000D01*
X68031000Y-55554000D01*
X68025000Y-55552000D01*
X68019000Y-55551000D01*
X68001000Y-55545000D01*
X67996000Y-55542000D01*
X67990000Y-55539000D01*
X67985000Y-55536000D01*
X67979000Y-55532000D01*
X67974000Y-55528000D01*
X67970000Y-55524000D01*
X67965000Y-55520000D01*
X67961000Y-55515000D01*
X67957000Y-55511000D01*
X67953000Y-55506000D01*
X67949000Y-55500000D01*
X67946000Y-55495000D01*
X67943000Y-55489000D01*
X67940000Y-55484000D01*
X67934000Y-55466000D01*
X67933000Y-55460000D01*
X67931000Y-55454000D01*
X67931000Y-55448000D01*
X67930000Y-55441000D01*
X67930000Y-55279000D01*
X67931000Y-55272000D01*
X67931000Y-55266000D01*
X67933000Y-55260000D01*
X67934000Y-55254000D01*
X67940000Y-55236000D01*
X67943000Y-55231000D01*
X67946000Y-55225000D01*
X67949000Y-55220000D01*
X67953000Y-55214000D01*
X67957000Y-55209000D01*
X67961000Y-55205000D01*
X67965000Y-55200000D01*
X67970000Y-55196000D01*
X67974000Y-55192000D01*
X67979000Y-55188000D01*
X67985000Y-55184000D01*
X67990000Y-55181000D01*
X67996000Y-55178000D01*
X68001000Y-55175000D01*
X68019000Y-55169000D01*
X68025000Y-55168000D01*
X68031000Y-55166000D01*
X68037000Y-55166000D01*
X68044000Y-55165000D01*
X69256000Y-55165000D01*
X69263000Y-55166000D01*
G36*
X69263000Y-55666000D02*
G01*
X69269000Y-55666000D01*
X69275000Y-55668000D01*
X69281000Y-55669000D01*
X69299000Y-55675000D01*
X69304000Y-55678000D01*
X69310000Y-55681000D01*
X69315000Y-55684000D01*
X69321000Y-55688000D01*
X69326000Y-55692000D01*
X69330000Y-55696000D01*
X69335000Y-55700000D01*
X69339000Y-55705000D01*
X69343000Y-55709000D01*
X69347000Y-55714000D01*
X69351000Y-55720000D01*
X69354000Y-55725000D01*
X69357000Y-55731000D01*
X69360000Y-55736000D01*
X69366000Y-55754000D01*
X69367000Y-55760000D01*
X69369000Y-55766000D01*
X69369000Y-55772000D01*
X69370000Y-55779000D01*
X69370000Y-55941000D01*
X69369000Y-55948000D01*
X69369000Y-55954000D01*
X69367000Y-55960000D01*
X69366000Y-55966000D01*
X69360000Y-55984000D01*
X69357000Y-55989000D01*
X69354000Y-55995000D01*
X69351000Y-56000000D01*
X69347000Y-56006000D01*
X69343000Y-56011000D01*
X69339000Y-56015000D01*
X69335000Y-56020000D01*
X69330000Y-56024000D01*
X69326000Y-56028000D01*
X69321000Y-56032000D01*
X69315000Y-56036000D01*
X69310000Y-56039000D01*
X69304000Y-56042000D01*
X69299000Y-56045000D01*
X69281000Y-56051000D01*
X69275000Y-56052000D01*
X69269000Y-56054000D01*
X69263000Y-56054000D01*
X69256000Y-56055000D01*
X68444000Y-56055000D01*
X68437000Y-56054000D01*
X68431000Y-56054000D01*
X68425000Y-56052000D01*
X68419000Y-56051000D01*
X68401000Y-56045000D01*
X68396000Y-56042000D01*
X68390000Y-56039000D01*
X68385000Y-56036000D01*
X68379000Y-56032000D01*
X68374000Y-56028000D01*
X68370000Y-56024000D01*
X68365000Y-56020000D01*
X68361000Y-56015000D01*
X68357000Y-56011000D01*
X68353000Y-56006000D01*
X68349000Y-56000000D01*
X68346000Y-55995000D01*
X68343000Y-55989000D01*
X68340000Y-55984000D01*
X68334000Y-55966000D01*
X68333000Y-55960000D01*
X68331000Y-55954000D01*
X68331000Y-55948000D01*
X68330000Y-55941000D01*
X68330000Y-55779000D01*
X68331000Y-55772000D01*
X68331000Y-55766000D01*
X68333000Y-55760000D01*
X68334000Y-55754000D01*
X68340000Y-55736000D01*
X68343000Y-55731000D01*
X68346000Y-55725000D01*
X68349000Y-55720000D01*
X68353000Y-55714000D01*
X68357000Y-55709000D01*
X68361000Y-55705000D01*
X68365000Y-55700000D01*
X68370000Y-55696000D01*
X68374000Y-55692000D01*
X68379000Y-55688000D01*
X68385000Y-55684000D01*
X68390000Y-55681000D01*
X68396000Y-55678000D01*
X68401000Y-55675000D01*
X68419000Y-55669000D01*
X68425000Y-55668000D01*
X68431000Y-55666000D01*
X68437000Y-55666000D01*
X68444000Y-55665000D01*
X69256000Y-55665000D01*
X69263000Y-55666000D01*
G37*
X69263000Y-55666000D02*
X69269000Y-55666000D01*
X69275000Y-55668000D01*
X69281000Y-55669000D01*
X69299000Y-55675000D01*
X69304000Y-55678000D01*
X69310000Y-55681000D01*
X69315000Y-55684000D01*
X69321000Y-55688000D01*
X69326000Y-55692000D01*
X69330000Y-55696000D01*
X69335000Y-55700000D01*
X69339000Y-55705000D01*
X69343000Y-55709000D01*
X69347000Y-55714000D01*
X69351000Y-55720000D01*
X69354000Y-55725000D01*
X69357000Y-55731000D01*
X69360000Y-55736000D01*
X69366000Y-55754000D01*
X69367000Y-55760000D01*
X69369000Y-55766000D01*
X69369000Y-55772000D01*
X69370000Y-55779000D01*
X69370000Y-55941000D01*
X69369000Y-55948000D01*
X69369000Y-55954000D01*
X69367000Y-55960000D01*
X69366000Y-55966000D01*
X69360000Y-55984000D01*
X69357000Y-55989000D01*
X69354000Y-55995000D01*
X69351000Y-56000000D01*
X69347000Y-56006000D01*
X69343000Y-56011000D01*
X69339000Y-56015000D01*
X69335000Y-56020000D01*
X69330000Y-56024000D01*
X69326000Y-56028000D01*
X69321000Y-56032000D01*
X69315000Y-56036000D01*
X69310000Y-56039000D01*
X69304000Y-56042000D01*
X69299000Y-56045000D01*
X69281000Y-56051000D01*
X69275000Y-56052000D01*
X69269000Y-56054000D01*
X69263000Y-56054000D01*
X69256000Y-56055000D01*
X68444000Y-56055000D01*
X68437000Y-56054000D01*
X68431000Y-56054000D01*
X68425000Y-56052000D01*
X68419000Y-56051000D01*
X68401000Y-56045000D01*
X68396000Y-56042000D01*
X68390000Y-56039000D01*
X68385000Y-56036000D01*
X68379000Y-56032000D01*
X68374000Y-56028000D01*
X68370000Y-56024000D01*
X68365000Y-56020000D01*
X68361000Y-56015000D01*
X68357000Y-56011000D01*
X68353000Y-56006000D01*
X68349000Y-56000000D01*
X68346000Y-55995000D01*
X68343000Y-55989000D01*
X68340000Y-55984000D01*
X68334000Y-55966000D01*
X68333000Y-55960000D01*
X68331000Y-55954000D01*
X68331000Y-55948000D01*
X68330000Y-55941000D01*
X68330000Y-55779000D01*
X68331000Y-55772000D01*
X68331000Y-55766000D01*
X68333000Y-55760000D01*
X68334000Y-55754000D01*
X68340000Y-55736000D01*
X68343000Y-55731000D01*
X68346000Y-55725000D01*
X68349000Y-55720000D01*
X68353000Y-55714000D01*
X68357000Y-55709000D01*
X68361000Y-55705000D01*
X68365000Y-55700000D01*
X68370000Y-55696000D01*
X68374000Y-55692000D01*
X68379000Y-55688000D01*
X68385000Y-55684000D01*
X68390000Y-55681000D01*
X68396000Y-55678000D01*
X68401000Y-55675000D01*
X68419000Y-55669000D01*
X68425000Y-55668000D01*
X68431000Y-55666000D01*
X68437000Y-55666000D01*
X68444000Y-55665000D01*
X69256000Y-55665000D01*
X69263000Y-55666000D01*
G36*
X67463000Y-56166000D02*
G01*
X67469000Y-56166000D01*
X67475000Y-56168000D01*
X67481000Y-56169000D01*
X67499000Y-56175000D01*
X67504000Y-56178000D01*
X67510000Y-56181000D01*
X67515000Y-56184000D01*
X67521000Y-56188000D01*
X67526000Y-56192000D01*
X67530000Y-56196000D01*
X67535000Y-56200000D01*
X67539000Y-56205000D01*
X67543000Y-56209000D01*
X67547000Y-56214000D01*
X67551000Y-56220000D01*
X67554000Y-56225000D01*
X67557000Y-56231000D01*
X67560000Y-56236000D01*
X67566000Y-56254000D01*
X67567000Y-56260000D01*
X67569000Y-56266000D01*
X67569000Y-56272000D01*
X67570000Y-56279000D01*
X67570000Y-56441000D01*
X67569000Y-56448000D01*
X67569000Y-56454000D01*
X67567000Y-56460000D01*
X67566000Y-56466000D01*
X67560000Y-56484000D01*
X67557000Y-56489000D01*
X67554000Y-56495000D01*
X67551000Y-56500000D01*
X67547000Y-56506000D01*
X67543000Y-56511000D01*
X67539000Y-56515000D01*
X67535000Y-56520000D01*
X67530000Y-56524000D01*
X67526000Y-56528000D01*
X67521000Y-56532000D01*
X67515000Y-56536000D01*
X67510000Y-56539000D01*
X67504000Y-56542000D01*
X67499000Y-56545000D01*
X67481000Y-56551000D01*
X67475000Y-56552000D01*
X67469000Y-56554000D01*
X67463000Y-56554000D01*
X67456000Y-56555000D01*
X66944000Y-56555000D01*
X66937000Y-56554000D01*
X66931000Y-56554000D01*
X66925000Y-56552000D01*
X66919000Y-56551000D01*
X66901000Y-56545000D01*
X66896000Y-56542000D01*
X66890000Y-56539000D01*
X66885000Y-56536000D01*
X66879000Y-56532000D01*
X66874000Y-56528000D01*
X66870000Y-56524000D01*
X66865000Y-56520000D01*
X66861000Y-56515000D01*
X66857000Y-56511000D01*
X66853000Y-56506000D01*
X66849000Y-56500000D01*
X66846000Y-56495000D01*
X66843000Y-56489000D01*
X66840000Y-56484000D01*
X66834000Y-56466000D01*
X66833000Y-56460000D01*
X66831000Y-56454000D01*
X66831000Y-56448000D01*
X66830000Y-56441000D01*
X66830000Y-56279000D01*
X66831000Y-56272000D01*
X66831000Y-56266000D01*
X66833000Y-56260000D01*
X66834000Y-56254000D01*
X66840000Y-56236000D01*
X66843000Y-56231000D01*
X66846000Y-56225000D01*
X66849000Y-56220000D01*
X66853000Y-56214000D01*
X66857000Y-56209000D01*
X66861000Y-56205000D01*
X66865000Y-56200000D01*
X66870000Y-56196000D01*
X66874000Y-56192000D01*
X66879000Y-56188000D01*
X66885000Y-56184000D01*
X66890000Y-56181000D01*
X66896000Y-56178000D01*
X66901000Y-56175000D01*
X66919000Y-56169000D01*
X66925000Y-56168000D01*
X66931000Y-56166000D01*
X66937000Y-56166000D01*
X66944000Y-56165000D01*
X67456000Y-56165000D01*
X67463000Y-56166000D01*
G37*
X67463000Y-56166000D02*
X67469000Y-56166000D01*
X67475000Y-56168000D01*
X67481000Y-56169000D01*
X67499000Y-56175000D01*
X67504000Y-56178000D01*
X67510000Y-56181000D01*
X67515000Y-56184000D01*
X67521000Y-56188000D01*
X67526000Y-56192000D01*
X67530000Y-56196000D01*
X67535000Y-56200000D01*
X67539000Y-56205000D01*
X67543000Y-56209000D01*
X67547000Y-56214000D01*
X67551000Y-56220000D01*
X67554000Y-56225000D01*
X67557000Y-56231000D01*
X67560000Y-56236000D01*
X67566000Y-56254000D01*
X67567000Y-56260000D01*
X67569000Y-56266000D01*
X67569000Y-56272000D01*
X67570000Y-56279000D01*
X67570000Y-56441000D01*
X67569000Y-56448000D01*
X67569000Y-56454000D01*
X67567000Y-56460000D01*
X67566000Y-56466000D01*
X67560000Y-56484000D01*
X67557000Y-56489000D01*
X67554000Y-56495000D01*
X67551000Y-56500000D01*
X67547000Y-56506000D01*
X67543000Y-56511000D01*
X67539000Y-56515000D01*
X67535000Y-56520000D01*
X67530000Y-56524000D01*
X67526000Y-56528000D01*
X67521000Y-56532000D01*
X67515000Y-56536000D01*
X67510000Y-56539000D01*
X67504000Y-56542000D01*
X67499000Y-56545000D01*
X67481000Y-56551000D01*
X67475000Y-56552000D01*
X67469000Y-56554000D01*
X67463000Y-56554000D01*
X67456000Y-56555000D01*
X66944000Y-56555000D01*
X66937000Y-56554000D01*
X66931000Y-56554000D01*
X66925000Y-56552000D01*
X66919000Y-56551000D01*
X66901000Y-56545000D01*
X66896000Y-56542000D01*
X66890000Y-56539000D01*
X66885000Y-56536000D01*
X66879000Y-56532000D01*
X66874000Y-56528000D01*
X66870000Y-56524000D01*
X66865000Y-56520000D01*
X66861000Y-56515000D01*
X66857000Y-56511000D01*
X66853000Y-56506000D01*
X66849000Y-56500000D01*
X66846000Y-56495000D01*
X66843000Y-56489000D01*
X66840000Y-56484000D01*
X66834000Y-56466000D01*
X66833000Y-56460000D01*
X66831000Y-56454000D01*
X66831000Y-56448000D01*
X66830000Y-56441000D01*
X66830000Y-56279000D01*
X66831000Y-56272000D01*
X66831000Y-56266000D01*
X66833000Y-56260000D01*
X66834000Y-56254000D01*
X66840000Y-56236000D01*
X66843000Y-56231000D01*
X66846000Y-56225000D01*
X66849000Y-56220000D01*
X66853000Y-56214000D01*
X66857000Y-56209000D01*
X66861000Y-56205000D01*
X66865000Y-56200000D01*
X66870000Y-56196000D01*
X66874000Y-56192000D01*
X66879000Y-56188000D01*
X66885000Y-56184000D01*
X66890000Y-56181000D01*
X66896000Y-56178000D01*
X66901000Y-56175000D01*
X66919000Y-56169000D01*
X66925000Y-56168000D01*
X66931000Y-56166000D01*
X66937000Y-56166000D01*
X66944000Y-56165000D01*
X67456000Y-56165000D01*
X67463000Y-56166000D01*
G36*
X67463000Y-54666000D02*
G01*
X67469000Y-54666000D01*
X67475000Y-54668000D01*
X67481000Y-54669000D01*
X67499000Y-54675000D01*
X67504000Y-54678000D01*
X67510000Y-54681000D01*
X67515000Y-54684000D01*
X67521000Y-54688000D01*
X67526000Y-54692000D01*
X67530000Y-54696000D01*
X67535000Y-54700000D01*
X67539000Y-54705000D01*
X67543000Y-54709000D01*
X67547000Y-54714000D01*
X67551000Y-54720000D01*
X67554000Y-54725000D01*
X67557000Y-54731000D01*
X67560000Y-54736000D01*
X67566000Y-54754000D01*
X67567000Y-54760000D01*
X67569000Y-54766000D01*
X67569000Y-54772000D01*
X67570000Y-54779000D01*
X67570000Y-54941000D01*
X67569000Y-54948000D01*
X67569000Y-54954000D01*
X67567000Y-54960000D01*
X67566000Y-54966000D01*
X67560000Y-54984000D01*
X67557000Y-54989000D01*
X67554000Y-54995000D01*
X67551000Y-55000000D01*
X67547000Y-55006000D01*
X67543000Y-55011000D01*
X67539000Y-55015000D01*
X67535000Y-55020000D01*
X67530000Y-55024000D01*
X67526000Y-55028000D01*
X67521000Y-55032000D01*
X67515000Y-55036000D01*
X67510000Y-55039000D01*
X67504000Y-55042000D01*
X67499000Y-55045000D01*
X67481000Y-55051000D01*
X67475000Y-55052000D01*
X67469000Y-55054000D01*
X67463000Y-55054000D01*
X67456000Y-55055000D01*
X66944000Y-55055000D01*
X66937000Y-55054000D01*
X66931000Y-55054000D01*
X66925000Y-55052000D01*
X66919000Y-55051000D01*
X66901000Y-55045000D01*
X66896000Y-55042000D01*
X66890000Y-55039000D01*
X66885000Y-55036000D01*
X66879000Y-55032000D01*
X66874000Y-55028000D01*
X66870000Y-55024000D01*
X66865000Y-55020000D01*
X66861000Y-55015000D01*
X66857000Y-55011000D01*
X66853000Y-55006000D01*
X66849000Y-55000000D01*
X66846000Y-54995000D01*
X66843000Y-54989000D01*
X66840000Y-54984000D01*
X66834000Y-54966000D01*
X66833000Y-54960000D01*
X66831000Y-54954000D01*
X66831000Y-54948000D01*
X66830000Y-54941000D01*
X66830000Y-54779000D01*
X66831000Y-54772000D01*
X66831000Y-54766000D01*
X66833000Y-54760000D01*
X66834000Y-54754000D01*
X66840000Y-54736000D01*
X66843000Y-54731000D01*
X66846000Y-54725000D01*
X66849000Y-54720000D01*
X66853000Y-54714000D01*
X66857000Y-54709000D01*
X66861000Y-54705000D01*
X66865000Y-54700000D01*
X66870000Y-54696000D01*
X66874000Y-54692000D01*
X66879000Y-54688000D01*
X66885000Y-54684000D01*
X66890000Y-54681000D01*
X66896000Y-54678000D01*
X66901000Y-54675000D01*
X66919000Y-54669000D01*
X66925000Y-54668000D01*
X66931000Y-54666000D01*
X66937000Y-54666000D01*
X66944000Y-54665000D01*
X67456000Y-54665000D01*
X67463000Y-54666000D01*
G37*
X67463000Y-54666000D02*
X67469000Y-54666000D01*
X67475000Y-54668000D01*
X67481000Y-54669000D01*
X67499000Y-54675000D01*
X67504000Y-54678000D01*
X67510000Y-54681000D01*
X67515000Y-54684000D01*
X67521000Y-54688000D01*
X67526000Y-54692000D01*
X67530000Y-54696000D01*
X67535000Y-54700000D01*
X67539000Y-54705000D01*
X67543000Y-54709000D01*
X67547000Y-54714000D01*
X67551000Y-54720000D01*
X67554000Y-54725000D01*
X67557000Y-54731000D01*
X67560000Y-54736000D01*
X67566000Y-54754000D01*
X67567000Y-54760000D01*
X67569000Y-54766000D01*
X67569000Y-54772000D01*
X67570000Y-54779000D01*
X67570000Y-54941000D01*
X67569000Y-54948000D01*
X67569000Y-54954000D01*
X67567000Y-54960000D01*
X67566000Y-54966000D01*
X67560000Y-54984000D01*
X67557000Y-54989000D01*
X67554000Y-54995000D01*
X67551000Y-55000000D01*
X67547000Y-55006000D01*
X67543000Y-55011000D01*
X67539000Y-55015000D01*
X67535000Y-55020000D01*
X67530000Y-55024000D01*
X67526000Y-55028000D01*
X67521000Y-55032000D01*
X67515000Y-55036000D01*
X67510000Y-55039000D01*
X67504000Y-55042000D01*
X67499000Y-55045000D01*
X67481000Y-55051000D01*
X67475000Y-55052000D01*
X67469000Y-55054000D01*
X67463000Y-55054000D01*
X67456000Y-55055000D01*
X66944000Y-55055000D01*
X66937000Y-55054000D01*
X66931000Y-55054000D01*
X66925000Y-55052000D01*
X66919000Y-55051000D01*
X66901000Y-55045000D01*
X66896000Y-55042000D01*
X66890000Y-55039000D01*
X66885000Y-55036000D01*
X66879000Y-55032000D01*
X66874000Y-55028000D01*
X66870000Y-55024000D01*
X66865000Y-55020000D01*
X66861000Y-55015000D01*
X66857000Y-55011000D01*
X66853000Y-55006000D01*
X66849000Y-55000000D01*
X66846000Y-54995000D01*
X66843000Y-54989000D01*
X66840000Y-54984000D01*
X66834000Y-54966000D01*
X66833000Y-54960000D01*
X66831000Y-54954000D01*
X66831000Y-54948000D01*
X66830000Y-54941000D01*
X66830000Y-54779000D01*
X66831000Y-54772000D01*
X66831000Y-54766000D01*
X66833000Y-54760000D01*
X66834000Y-54754000D01*
X66840000Y-54736000D01*
X66843000Y-54731000D01*
X66846000Y-54725000D01*
X66849000Y-54720000D01*
X66853000Y-54714000D01*
X66857000Y-54709000D01*
X66861000Y-54705000D01*
X66865000Y-54700000D01*
X66870000Y-54696000D01*
X66874000Y-54692000D01*
X66879000Y-54688000D01*
X66885000Y-54684000D01*
X66890000Y-54681000D01*
X66896000Y-54678000D01*
X66901000Y-54675000D01*
X66919000Y-54669000D01*
X66925000Y-54668000D01*
X66931000Y-54666000D01*
X66937000Y-54666000D01*
X66944000Y-54665000D01*
X67456000Y-54665000D01*
X67463000Y-54666000D01*
G36*
X67463000Y-55166000D02*
G01*
X67469000Y-55166000D01*
X67475000Y-55168000D01*
X67481000Y-55169000D01*
X67499000Y-55175000D01*
X67504000Y-55178000D01*
X67510000Y-55181000D01*
X67515000Y-55184000D01*
X67521000Y-55188000D01*
X67526000Y-55192000D01*
X67530000Y-55196000D01*
X67535000Y-55200000D01*
X67539000Y-55205000D01*
X67543000Y-55209000D01*
X67547000Y-55214000D01*
X67551000Y-55220000D01*
X67554000Y-55225000D01*
X67557000Y-55231000D01*
X67560000Y-55236000D01*
X67566000Y-55254000D01*
X67567000Y-55260000D01*
X67569000Y-55266000D01*
X67569000Y-55272000D01*
X67570000Y-55279000D01*
X67570000Y-55441000D01*
X67569000Y-55448000D01*
X67569000Y-55454000D01*
X67567000Y-55460000D01*
X67566000Y-55466000D01*
X67560000Y-55484000D01*
X67557000Y-55489000D01*
X67554000Y-55495000D01*
X67551000Y-55500000D01*
X67547000Y-55506000D01*
X67543000Y-55511000D01*
X67539000Y-55515000D01*
X67535000Y-55520000D01*
X67530000Y-55524000D01*
X67526000Y-55528000D01*
X67521000Y-55532000D01*
X67515000Y-55536000D01*
X67510000Y-55539000D01*
X67504000Y-55542000D01*
X67499000Y-55545000D01*
X67481000Y-55551000D01*
X67475000Y-55552000D01*
X67469000Y-55554000D01*
X67463000Y-55554000D01*
X67456000Y-55555000D01*
X66944000Y-55555000D01*
X66937000Y-55554000D01*
X66931000Y-55554000D01*
X66925000Y-55552000D01*
X66919000Y-55551000D01*
X66901000Y-55545000D01*
X66896000Y-55542000D01*
X66890000Y-55539000D01*
X66885000Y-55536000D01*
X66879000Y-55532000D01*
X66874000Y-55528000D01*
X66870000Y-55524000D01*
X66865000Y-55520000D01*
X66861000Y-55515000D01*
X66857000Y-55511000D01*
X66853000Y-55506000D01*
X66849000Y-55500000D01*
X66846000Y-55495000D01*
X66843000Y-55489000D01*
X66840000Y-55484000D01*
X66834000Y-55466000D01*
X66833000Y-55460000D01*
X66831000Y-55454000D01*
X66831000Y-55448000D01*
X66830000Y-55441000D01*
X66830000Y-55279000D01*
X66831000Y-55272000D01*
X66831000Y-55266000D01*
X66833000Y-55260000D01*
X66834000Y-55254000D01*
X66840000Y-55236000D01*
X66843000Y-55231000D01*
X66846000Y-55225000D01*
X66849000Y-55220000D01*
X66853000Y-55214000D01*
X66857000Y-55209000D01*
X66861000Y-55205000D01*
X66865000Y-55200000D01*
X66870000Y-55196000D01*
X66874000Y-55192000D01*
X66879000Y-55188000D01*
X66885000Y-55184000D01*
X66890000Y-55181000D01*
X66896000Y-55178000D01*
X66901000Y-55175000D01*
X66919000Y-55169000D01*
X66925000Y-55168000D01*
X66931000Y-55166000D01*
X66937000Y-55166000D01*
X66944000Y-55165000D01*
X67456000Y-55165000D01*
X67463000Y-55166000D01*
G37*
X67463000Y-55166000D02*
X67469000Y-55166000D01*
X67475000Y-55168000D01*
X67481000Y-55169000D01*
X67499000Y-55175000D01*
X67504000Y-55178000D01*
X67510000Y-55181000D01*
X67515000Y-55184000D01*
X67521000Y-55188000D01*
X67526000Y-55192000D01*
X67530000Y-55196000D01*
X67535000Y-55200000D01*
X67539000Y-55205000D01*
X67543000Y-55209000D01*
X67547000Y-55214000D01*
X67551000Y-55220000D01*
X67554000Y-55225000D01*
X67557000Y-55231000D01*
X67560000Y-55236000D01*
X67566000Y-55254000D01*
X67567000Y-55260000D01*
X67569000Y-55266000D01*
X67569000Y-55272000D01*
X67570000Y-55279000D01*
X67570000Y-55441000D01*
X67569000Y-55448000D01*
X67569000Y-55454000D01*
X67567000Y-55460000D01*
X67566000Y-55466000D01*
X67560000Y-55484000D01*
X67557000Y-55489000D01*
X67554000Y-55495000D01*
X67551000Y-55500000D01*
X67547000Y-55506000D01*
X67543000Y-55511000D01*
X67539000Y-55515000D01*
X67535000Y-55520000D01*
X67530000Y-55524000D01*
X67526000Y-55528000D01*
X67521000Y-55532000D01*
X67515000Y-55536000D01*
X67510000Y-55539000D01*
X67504000Y-55542000D01*
X67499000Y-55545000D01*
X67481000Y-55551000D01*
X67475000Y-55552000D01*
X67469000Y-55554000D01*
X67463000Y-55554000D01*
X67456000Y-55555000D01*
X66944000Y-55555000D01*
X66937000Y-55554000D01*
X66931000Y-55554000D01*
X66925000Y-55552000D01*
X66919000Y-55551000D01*
X66901000Y-55545000D01*
X66896000Y-55542000D01*
X66890000Y-55539000D01*
X66885000Y-55536000D01*
X66879000Y-55532000D01*
X66874000Y-55528000D01*
X66870000Y-55524000D01*
X66865000Y-55520000D01*
X66861000Y-55515000D01*
X66857000Y-55511000D01*
X66853000Y-55506000D01*
X66849000Y-55500000D01*
X66846000Y-55495000D01*
X66843000Y-55489000D01*
X66840000Y-55484000D01*
X66834000Y-55466000D01*
X66833000Y-55460000D01*
X66831000Y-55454000D01*
X66831000Y-55448000D01*
X66830000Y-55441000D01*
X66830000Y-55279000D01*
X66831000Y-55272000D01*
X66831000Y-55266000D01*
X66833000Y-55260000D01*
X66834000Y-55254000D01*
X66840000Y-55236000D01*
X66843000Y-55231000D01*
X66846000Y-55225000D01*
X66849000Y-55220000D01*
X66853000Y-55214000D01*
X66857000Y-55209000D01*
X66861000Y-55205000D01*
X66865000Y-55200000D01*
X66870000Y-55196000D01*
X66874000Y-55192000D01*
X66879000Y-55188000D01*
X66885000Y-55184000D01*
X66890000Y-55181000D01*
X66896000Y-55178000D01*
X66901000Y-55175000D01*
X66919000Y-55169000D01*
X66925000Y-55168000D01*
X66931000Y-55166000D01*
X66937000Y-55166000D01*
X66944000Y-55165000D01*
X67456000Y-55165000D01*
X67463000Y-55166000D01*
G36*
X67463000Y-54166000D02*
G01*
X67469000Y-54166000D01*
X67475000Y-54168000D01*
X67481000Y-54169000D01*
X67499000Y-54175000D01*
X67504000Y-54178000D01*
X67510000Y-54181000D01*
X67515000Y-54184000D01*
X67521000Y-54188000D01*
X67526000Y-54192000D01*
X67530000Y-54196000D01*
X67535000Y-54200000D01*
X67539000Y-54205000D01*
X67543000Y-54209000D01*
X67547000Y-54214000D01*
X67551000Y-54220000D01*
X67554000Y-54225000D01*
X67557000Y-54231000D01*
X67560000Y-54236000D01*
X67566000Y-54254000D01*
X67567000Y-54260000D01*
X67569000Y-54266000D01*
X67569000Y-54272000D01*
X67570000Y-54279000D01*
X67570000Y-54441000D01*
X67569000Y-54448000D01*
X67569000Y-54454000D01*
X67567000Y-54460000D01*
X67566000Y-54466000D01*
X67560000Y-54484000D01*
X67557000Y-54489000D01*
X67554000Y-54495000D01*
X67551000Y-54500000D01*
X67547000Y-54506000D01*
X67543000Y-54511000D01*
X67539000Y-54515000D01*
X67535000Y-54520000D01*
X67530000Y-54524000D01*
X67526000Y-54528000D01*
X67521000Y-54532000D01*
X67515000Y-54536000D01*
X67510000Y-54539000D01*
X67504000Y-54542000D01*
X67499000Y-54545000D01*
X67481000Y-54551000D01*
X67475000Y-54552000D01*
X67469000Y-54554000D01*
X67463000Y-54554000D01*
X67456000Y-54555000D01*
X66944000Y-54555000D01*
X66937000Y-54554000D01*
X66931000Y-54554000D01*
X66925000Y-54552000D01*
X66919000Y-54551000D01*
X66901000Y-54545000D01*
X66896000Y-54542000D01*
X66890000Y-54539000D01*
X66885000Y-54536000D01*
X66879000Y-54532000D01*
X66874000Y-54528000D01*
X66870000Y-54524000D01*
X66865000Y-54520000D01*
X66861000Y-54515000D01*
X66857000Y-54511000D01*
X66853000Y-54506000D01*
X66849000Y-54500000D01*
X66846000Y-54495000D01*
X66843000Y-54489000D01*
X66840000Y-54484000D01*
X66834000Y-54466000D01*
X66833000Y-54460000D01*
X66831000Y-54454000D01*
X66831000Y-54448000D01*
X66830000Y-54441000D01*
X66830000Y-54279000D01*
X66831000Y-54272000D01*
X66831000Y-54266000D01*
X66833000Y-54260000D01*
X66834000Y-54254000D01*
X66840000Y-54236000D01*
X66843000Y-54231000D01*
X66846000Y-54225000D01*
X66849000Y-54220000D01*
X66853000Y-54214000D01*
X66857000Y-54209000D01*
X66861000Y-54205000D01*
X66865000Y-54200000D01*
X66870000Y-54196000D01*
X66874000Y-54192000D01*
X66879000Y-54188000D01*
X66885000Y-54184000D01*
X66890000Y-54181000D01*
X66896000Y-54178000D01*
X66901000Y-54175000D01*
X66919000Y-54169000D01*
X66925000Y-54168000D01*
X66931000Y-54166000D01*
X66937000Y-54166000D01*
X66944000Y-54165000D01*
X67456000Y-54165000D01*
X67463000Y-54166000D01*
G37*
X67463000Y-54166000D02*
X67469000Y-54166000D01*
X67475000Y-54168000D01*
X67481000Y-54169000D01*
X67499000Y-54175000D01*
X67504000Y-54178000D01*
X67510000Y-54181000D01*
X67515000Y-54184000D01*
X67521000Y-54188000D01*
X67526000Y-54192000D01*
X67530000Y-54196000D01*
X67535000Y-54200000D01*
X67539000Y-54205000D01*
X67543000Y-54209000D01*
X67547000Y-54214000D01*
X67551000Y-54220000D01*
X67554000Y-54225000D01*
X67557000Y-54231000D01*
X67560000Y-54236000D01*
X67566000Y-54254000D01*
X67567000Y-54260000D01*
X67569000Y-54266000D01*
X67569000Y-54272000D01*
X67570000Y-54279000D01*
X67570000Y-54441000D01*
X67569000Y-54448000D01*
X67569000Y-54454000D01*
X67567000Y-54460000D01*
X67566000Y-54466000D01*
X67560000Y-54484000D01*
X67557000Y-54489000D01*
X67554000Y-54495000D01*
X67551000Y-54500000D01*
X67547000Y-54506000D01*
X67543000Y-54511000D01*
X67539000Y-54515000D01*
X67535000Y-54520000D01*
X67530000Y-54524000D01*
X67526000Y-54528000D01*
X67521000Y-54532000D01*
X67515000Y-54536000D01*
X67510000Y-54539000D01*
X67504000Y-54542000D01*
X67499000Y-54545000D01*
X67481000Y-54551000D01*
X67475000Y-54552000D01*
X67469000Y-54554000D01*
X67463000Y-54554000D01*
X67456000Y-54555000D01*
X66944000Y-54555000D01*
X66937000Y-54554000D01*
X66931000Y-54554000D01*
X66925000Y-54552000D01*
X66919000Y-54551000D01*
X66901000Y-54545000D01*
X66896000Y-54542000D01*
X66890000Y-54539000D01*
X66885000Y-54536000D01*
X66879000Y-54532000D01*
X66874000Y-54528000D01*
X66870000Y-54524000D01*
X66865000Y-54520000D01*
X66861000Y-54515000D01*
X66857000Y-54511000D01*
X66853000Y-54506000D01*
X66849000Y-54500000D01*
X66846000Y-54495000D01*
X66843000Y-54489000D01*
X66840000Y-54484000D01*
X66834000Y-54466000D01*
X66833000Y-54460000D01*
X66831000Y-54454000D01*
X66831000Y-54448000D01*
X66830000Y-54441000D01*
X66830000Y-54279000D01*
X66831000Y-54272000D01*
X66831000Y-54266000D01*
X66833000Y-54260000D01*
X66834000Y-54254000D01*
X66840000Y-54236000D01*
X66843000Y-54231000D01*
X66846000Y-54225000D01*
X66849000Y-54220000D01*
X66853000Y-54214000D01*
X66857000Y-54209000D01*
X66861000Y-54205000D01*
X66865000Y-54200000D01*
X66870000Y-54196000D01*
X66874000Y-54192000D01*
X66879000Y-54188000D01*
X66885000Y-54184000D01*
X66890000Y-54181000D01*
X66896000Y-54178000D01*
X66901000Y-54175000D01*
X66919000Y-54169000D01*
X66925000Y-54168000D01*
X66931000Y-54166000D01*
X66937000Y-54166000D01*
X66944000Y-54165000D01*
X67456000Y-54165000D01*
X67463000Y-54166000D01*
G36*
X67463000Y-55666000D02*
G01*
X67469000Y-55666000D01*
X67475000Y-55668000D01*
X67481000Y-55669000D01*
X67499000Y-55675000D01*
X67504000Y-55678000D01*
X67510000Y-55681000D01*
X67515000Y-55684000D01*
X67521000Y-55688000D01*
X67526000Y-55692000D01*
X67530000Y-55696000D01*
X67535000Y-55700000D01*
X67539000Y-55705000D01*
X67543000Y-55709000D01*
X67547000Y-55714000D01*
X67551000Y-55720000D01*
X67554000Y-55725000D01*
X67557000Y-55731000D01*
X67560000Y-55736000D01*
X67566000Y-55754000D01*
X67567000Y-55760000D01*
X67569000Y-55766000D01*
X67569000Y-55772000D01*
X67570000Y-55779000D01*
X67570000Y-55941000D01*
X67569000Y-55948000D01*
X67569000Y-55954000D01*
X67567000Y-55960000D01*
X67566000Y-55966000D01*
X67560000Y-55984000D01*
X67557000Y-55989000D01*
X67554000Y-55995000D01*
X67551000Y-56000000D01*
X67547000Y-56006000D01*
X67543000Y-56011000D01*
X67539000Y-56015000D01*
X67535000Y-56020000D01*
X67530000Y-56024000D01*
X67526000Y-56028000D01*
X67521000Y-56032000D01*
X67515000Y-56036000D01*
X67510000Y-56039000D01*
X67504000Y-56042000D01*
X67499000Y-56045000D01*
X67481000Y-56051000D01*
X67475000Y-56052000D01*
X67469000Y-56054000D01*
X67463000Y-56054000D01*
X67456000Y-56055000D01*
X66944000Y-56055000D01*
X66937000Y-56054000D01*
X66931000Y-56054000D01*
X66925000Y-56052000D01*
X66919000Y-56051000D01*
X66901000Y-56045000D01*
X66896000Y-56042000D01*
X66890000Y-56039000D01*
X66885000Y-56036000D01*
X66879000Y-56032000D01*
X66874000Y-56028000D01*
X66870000Y-56024000D01*
X66865000Y-56020000D01*
X66861000Y-56015000D01*
X66857000Y-56011000D01*
X66853000Y-56006000D01*
X66849000Y-56000000D01*
X66846000Y-55995000D01*
X66843000Y-55989000D01*
X66840000Y-55984000D01*
X66834000Y-55966000D01*
X66833000Y-55960000D01*
X66831000Y-55954000D01*
X66831000Y-55948000D01*
X66830000Y-55941000D01*
X66830000Y-55779000D01*
X66831000Y-55772000D01*
X66831000Y-55766000D01*
X66833000Y-55760000D01*
X66834000Y-55754000D01*
X66840000Y-55736000D01*
X66843000Y-55731000D01*
X66846000Y-55725000D01*
X66849000Y-55720000D01*
X66853000Y-55714000D01*
X66857000Y-55709000D01*
X66861000Y-55705000D01*
X66865000Y-55700000D01*
X66870000Y-55696000D01*
X66874000Y-55692000D01*
X66879000Y-55688000D01*
X66885000Y-55684000D01*
X66890000Y-55681000D01*
X66896000Y-55678000D01*
X66901000Y-55675000D01*
X66919000Y-55669000D01*
X66925000Y-55668000D01*
X66931000Y-55666000D01*
X66937000Y-55666000D01*
X66944000Y-55665000D01*
X67456000Y-55665000D01*
X67463000Y-55666000D01*
G37*
X67463000Y-55666000D02*
X67469000Y-55666000D01*
X67475000Y-55668000D01*
X67481000Y-55669000D01*
X67499000Y-55675000D01*
X67504000Y-55678000D01*
X67510000Y-55681000D01*
X67515000Y-55684000D01*
X67521000Y-55688000D01*
X67526000Y-55692000D01*
X67530000Y-55696000D01*
X67535000Y-55700000D01*
X67539000Y-55705000D01*
X67543000Y-55709000D01*
X67547000Y-55714000D01*
X67551000Y-55720000D01*
X67554000Y-55725000D01*
X67557000Y-55731000D01*
X67560000Y-55736000D01*
X67566000Y-55754000D01*
X67567000Y-55760000D01*
X67569000Y-55766000D01*
X67569000Y-55772000D01*
X67570000Y-55779000D01*
X67570000Y-55941000D01*
X67569000Y-55948000D01*
X67569000Y-55954000D01*
X67567000Y-55960000D01*
X67566000Y-55966000D01*
X67560000Y-55984000D01*
X67557000Y-55989000D01*
X67554000Y-55995000D01*
X67551000Y-56000000D01*
X67547000Y-56006000D01*
X67543000Y-56011000D01*
X67539000Y-56015000D01*
X67535000Y-56020000D01*
X67530000Y-56024000D01*
X67526000Y-56028000D01*
X67521000Y-56032000D01*
X67515000Y-56036000D01*
X67510000Y-56039000D01*
X67504000Y-56042000D01*
X67499000Y-56045000D01*
X67481000Y-56051000D01*
X67475000Y-56052000D01*
X67469000Y-56054000D01*
X67463000Y-56054000D01*
X67456000Y-56055000D01*
X66944000Y-56055000D01*
X66937000Y-56054000D01*
X66931000Y-56054000D01*
X66925000Y-56052000D01*
X66919000Y-56051000D01*
X66901000Y-56045000D01*
X66896000Y-56042000D01*
X66890000Y-56039000D01*
X66885000Y-56036000D01*
X66879000Y-56032000D01*
X66874000Y-56028000D01*
X66870000Y-56024000D01*
X66865000Y-56020000D01*
X66861000Y-56015000D01*
X66857000Y-56011000D01*
X66853000Y-56006000D01*
X66849000Y-56000000D01*
X66846000Y-55995000D01*
X66843000Y-55989000D01*
X66840000Y-55984000D01*
X66834000Y-55966000D01*
X66833000Y-55960000D01*
X66831000Y-55954000D01*
X66831000Y-55948000D01*
X66830000Y-55941000D01*
X66830000Y-55779000D01*
X66831000Y-55772000D01*
X66831000Y-55766000D01*
X66833000Y-55760000D01*
X66834000Y-55754000D01*
X66840000Y-55736000D01*
X66843000Y-55731000D01*
X66846000Y-55725000D01*
X66849000Y-55720000D01*
X66853000Y-55714000D01*
X66857000Y-55709000D01*
X66861000Y-55705000D01*
X66865000Y-55700000D01*
X66870000Y-55696000D01*
X66874000Y-55692000D01*
X66879000Y-55688000D01*
X66885000Y-55684000D01*
X66890000Y-55681000D01*
X66896000Y-55678000D01*
X66901000Y-55675000D01*
X66919000Y-55669000D01*
X66925000Y-55668000D01*
X66931000Y-55666000D01*
X66937000Y-55666000D01*
X66944000Y-55665000D01*
X67456000Y-55665000D01*
X67463000Y-55666000D01*
G36*
X69263000Y-54166000D02*
G01*
X69269000Y-54166000D01*
X69275000Y-54168000D01*
X69281000Y-54169000D01*
X69299000Y-54175000D01*
X69304000Y-54178000D01*
X69310000Y-54181000D01*
X69315000Y-54184000D01*
X69321000Y-54188000D01*
X69326000Y-54192000D01*
X69330000Y-54196000D01*
X69335000Y-54200000D01*
X69339000Y-54205000D01*
X69343000Y-54209000D01*
X69347000Y-54214000D01*
X69351000Y-54220000D01*
X69354000Y-54225000D01*
X69357000Y-54231000D01*
X69360000Y-54236000D01*
X69366000Y-54254000D01*
X69367000Y-54260000D01*
X69369000Y-54266000D01*
X69369000Y-54272000D01*
X69370000Y-54279000D01*
X69370000Y-54441000D01*
X69369000Y-54448000D01*
X69369000Y-54454000D01*
X69367000Y-54460000D01*
X69366000Y-54466000D01*
X69360000Y-54484000D01*
X69357000Y-54489000D01*
X69354000Y-54495000D01*
X69351000Y-54500000D01*
X69347000Y-54506000D01*
X69343000Y-54511000D01*
X69339000Y-54515000D01*
X69335000Y-54520000D01*
X69330000Y-54524000D01*
X69326000Y-54528000D01*
X69321000Y-54532000D01*
X69315000Y-54536000D01*
X69310000Y-54539000D01*
X69304000Y-54542000D01*
X69299000Y-54545000D01*
X69281000Y-54551000D01*
X69275000Y-54552000D01*
X69269000Y-54554000D01*
X69263000Y-54554000D01*
X69256000Y-54555000D01*
X68444000Y-54555000D01*
X68437000Y-54554000D01*
X68431000Y-54554000D01*
X68425000Y-54552000D01*
X68419000Y-54551000D01*
X68401000Y-54545000D01*
X68396000Y-54542000D01*
X68390000Y-54539000D01*
X68385000Y-54536000D01*
X68379000Y-54532000D01*
X68374000Y-54528000D01*
X68370000Y-54524000D01*
X68365000Y-54520000D01*
X68361000Y-54515000D01*
X68357000Y-54511000D01*
X68353000Y-54506000D01*
X68349000Y-54500000D01*
X68346000Y-54495000D01*
X68343000Y-54489000D01*
X68340000Y-54484000D01*
X68334000Y-54466000D01*
X68333000Y-54460000D01*
X68331000Y-54454000D01*
X68331000Y-54448000D01*
X68330000Y-54441000D01*
X68330000Y-54279000D01*
X68331000Y-54272000D01*
X68331000Y-54266000D01*
X68333000Y-54260000D01*
X68334000Y-54254000D01*
X68340000Y-54236000D01*
X68343000Y-54231000D01*
X68346000Y-54225000D01*
X68349000Y-54220000D01*
X68353000Y-54214000D01*
X68357000Y-54209000D01*
X68361000Y-54205000D01*
X68365000Y-54200000D01*
X68370000Y-54196000D01*
X68374000Y-54192000D01*
X68379000Y-54188000D01*
X68385000Y-54184000D01*
X68390000Y-54181000D01*
X68396000Y-54178000D01*
X68401000Y-54175000D01*
X68419000Y-54169000D01*
X68425000Y-54168000D01*
X68431000Y-54166000D01*
X68437000Y-54166000D01*
X68444000Y-54165000D01*
X69256000Y-54165000D01*
X69263000Y-54166000D01*
G37*
X69263000Y-54166000D02*
X69269000Y-54166000D01*
X69275000Y-54168000D01*
X69281000Y-54169000D01*
X69299000Y-54175000D01*
X69304000Y-54178000D01*
X69310000Y-54181000D01*
X69315000Y-54184000D01*
X69321000Y-54188000D01*
X69326000Y-54192000D01*
X69330000Y-54196000D01*
X69335000Y-54200000D01*
X69339000Y-54205000D01*
X69343000Y-54209000D01*
X69347000Y-54214000D01*
X69351000Y-54220000D01*
X69354000Y-54225000D01*
X69357000Y-54231000D01*
X69360000Y-54236000D01*
X69366000Y-54254000D01*
X69367000Y-54260000D01*
X69369000Y-54266000D01*
X69369000Y-54272000D01*
X69370000Y-54279000D01*
X69370000Y-54441000D01*
X69369000Y-54448000D01*
X69369000Y-54454000D01*
X69367000Y-54460000D01*
X69366000Y-54466000D01*
X69360000Y-54484000D01*
X69357000Y-54489000D01*
X69354000Y-54495000D01*
X69351000Y-54500000D01*
X69347000Y-54506000D01*
X69343000Y-54511000D01*
X69339000Y-54515000D01*
X69335000Y-54520000D01*
X69330000Y-54524000D01*
X69326000Y-54528000D01*
X69321000Y-54532000D01*
X69315000Y-54536000D01*
X69310000Y-54539000D01*
X69304000Y-54542000D01*
X69299000Y-54545000D01*
X69281000Y-54551000D01*
X69275000Y-54552000D01*
X69269000Y-54554000D01*
X69263000Y-54554000D01*
X69256000Y-54555000D01*
X68444000Y-54555000D01*
X68437000Y-54554000D01*
X68431000Y-54554000D01*
X68425000Y-54552000D01*
X68419000Y-54551000D01*
X68401000Y-54545000D01*
X68396000Y-54542000D01*
X68390000Y-54539000D01*
X68385000Y-54536000D01*
X68379000Y-54532000D01*
X68374000Y-54528000D01*
X68370000Y-54524000D01*
X68365000Y-54520000D01*
X68361000Y-54515000D01*
X68357000Y-54511000D01*
X68353000Y-54506000D01*
X68349000Y-54500000D01*
X68346000Y-54495000D01*
X68343000Y-54489000D01*
X68340000Y-54484000D01*
X68334000Y-54466000D01*
X68333000Y-54460000D01*
X68331000Y-54454000D01*
X68331000Y-54448000D01*
X68330000Y-54441000D01*
X68330000Y-54279000D01*
X68331000Y-54272000D01*
X68331000Y-54266000D01*
X68333000Y-54260000D01*
X68334000Y-54254000D01*
X68340000Y-54236000D01*
X68343000Y-54231000D01*
X68346000Y-54225000D01*
X68349000Y-54220000D01*
X68353000Y-54214000D01*
X68357000Y-54209000D01*
X68361000Y-54205000D01*
X68365000Y-54200000D01*
X68370000Y-54196000D01*
X68374000Y-54192000D01*
X68379000Y-54188000D01*
X68385000Y-54184000D01*
X68390000Y-54181000D01*
X68396000Y-54178000D01*
X68401000Y-54175000D01*
X68419000Y-54169000D01*
X68425000Y-54168000D01*
X68431000Y-54166000D01*
X68437000Y-54166000D01*
X68444000Y-54165000D01*
X69256000Y-54165000D01*
X69263000Y-54166000D01*
%TD*%
D12*
%TO.C,U6*%
X78275000Y-52775000D03*
X78275000Y-52125000D03*
X78275000Y-51475000D03*
X76375000Y-51475000D03*
X76375000Y-52125000D03*
X76375000Y-52775000D03*
%TD*%
%TO.C,U5*%
X78275000Y-55650000D03*
X78275000Y-55000000D03*
X78275000Y-54350000D03*
X76375000Y-54350000D03*
X76375000Y-55000000D03*
X76375000Y-55650000D03*
%TD*%
%TO.C,U4*%
X115100000Y-73975000D03*
X115100000Y-74625000D03*
X115100000Y-75275000D03*
X117000000Y-75275000D03*
X117000000Y-74625000D03*
X117000000Y-73975000D03*
%TD*%
D13*
%TO.C,C5*%
X120900000Y-75675000D03*
X119000000Y-75675000D03*
%TD*%
D14*
%TO.C,J7*%
X58000000Y-61250000D03*
X53000000Y-61250000D03*
X53000000Y-68750000D03*
X58000000Y-68750000D03*
%TD*%
D15*
%TO.C,J6*%
X51360000Y-73400000D03*
X56440000Y-72384000D03*
X56440000Y-74416000D03*
D16*
X52630000Y-74035000D03*
X52630000Y-72765000D03*
X53900000Y-74035000D03*
X53900000Y-72765000D03*
X55170000Y-74035000D03*
X55170000Y-72765000D03*
%TD*%
D17*
%TO.C,C6*%
X68900000Y-51535000D03*
X68900000Y-53085000D03*
%TD*%
D18*
%TO.C,R3*%
X64295000Y-53040000D03*
X62645000Y-53040000D03*
%TD*%
D19*
%TO.C,C13*%
X58550000Y-79025000D03*
X57000000Y-79025000D03*
%TD*%
D20*
%TO.C,J1*%
X66500000Y-67250000D03*
X66500000Y-66750000D03*
X66500000Y-66250000D03*
X66500000Y-65750000D03*
X66500000Y-65250000D03*
X66500000Y-64750000D03*
X66500000Y-64250000D03*
X66500000Y-63750000D03*
X66500000Y-63250000D03*
X66500000Y-62750000D03*
%TD*%
D21*
%TO.C,SW1*%
X52125000Y-55300000D03*
X59925000Y-55300000D03*
%TD*%
D19*
%TO.C,C14*%
X64125000Y-78900000D03*
X62575000Y-78900000D03*
%TD*%
D17*
%TO.C,C2*%
X53850000Y-76275000D03*
X53850000Y-77825000D03*
%TD*%
D22*
%TO.C,J3*%
X59425000Y-51500000D03*
%TD*%
D23*
%TO.C,R4*%
X115150000Y-76850000D03*
X116800000Y-76850000D03*
%TD*%
D24*
%TO.C,C7*%
X62705000Y-51700000D03*
X64255000Y-51700000D03*
%TD*%
D19*
%TO.C,C1*%
X120625000Y-74075000D03*
X119075000Y-74075000D03*
%TD*%
D18*
%TO.C,R2*%
X67185000Y-53040000D03*
X65535000Y-53040000D03*
%TD*%
D25*
%TO.C,L1*%
X70430000Y-54080000D03*
X70430000Y-56380000D03*
%TD*%
D17*
%TO.C,C19*%
X52225000Y-76300000D03*
X52225000Y-77850000D03*
%TD*%
D22*
%TO.C,J4*%
X112025000Y-78450000D03*
%TD*%
D24*
%TO.C,C3*%
X61125000Y-63800000D03*
X62675000Y-63800000D03*
%TD*%
D26*
%TO.C,U2*%
X126700000Y-68900000D03*
X126700000Y-67000000D03*
X126700000Y-65100000D03*
X126700000Y-63200000D03*
X126700000Y-61300000D03*
D27*
X123900000Y-58500000D03*
X122000000Y-58500000D03*
X120100000Y-58500000D03*
X118200000Y-58500000D03*
X116300000Y-58500000D03*
D26*
X113500000Y-61300000D03*
X113500000Y-63200000D03*
X113500000Y-65100000D03*
X113500000Y-67000000D03*
X113500000Y-68900000D03*
D27*
X116300000Y-71700000D03*
X118200000Y-71700000D03*
X120100000Y-71700000D03*
X122000000Y-71700000D03*
X123900000Y-71700000D03*
%TD*%
D18*
%TO.C,R6*%
X64625000Y-57200000D03*
X62975000Y-57200000D03*
%TD*%
D28*
%TO.C,U3*%
X65625000Y-78400000D03*
X66425000Y-78400000D03*
X67225000Y-78400000D03*
X68025000Y-78400000D03*
X68825000Y-78400000D03*
X69625000Y-78400000D03*
X70425000Y-78400000D03*
X71225000Y-78400000D03*
D29*
X72600000Y-77025000D03*
X72600000Y-76225000D03*
X72600000Y-75425000D03*
X72600000Y-74625000D03*
X72600000Y-73825000D03*
X72600000Y-73025000D03*
X72600000Y-72225000D03*
X72600000Y-71425000D03*
D28*
X71225000Y-70050000D03*
X70425000Y-70050000D03*
X69625000Y-70050000D03*
X68825000Y-70050000D03*
X68025000Y-70050000D03*
X67225000Y-70050000D03*
X66425000Y-70050000D03*
X65625000Y-70050000D03*
D29*
X64250000Y-71425000D03*
X64250000Y-72225000D03*
X64250000Y-73025000D03*
X64250000Y-73825000D03*
X64250000Y-74625000D03*
X64250000Y-75425000D03*
X64250000Y-76225000D03*
X64250000Y-77025000D03*
%TD*%
D30*
%TO.C,C10*%
X73025000Y-56625000D03*
X73025000Y-53675000D03*
%TD*%
D17*
%TO.C,C16*%
X74800000Y-70925000D03*
X74800000Y-72475000D03*
%TD*%
D22*
%TO.C,J5*%
X112675000Y-51425000D03*
%TD*%
D19*
%TO.C,C15*%
X58625000Y-76750000D03*
X57075000Y-76750000D03*
%TD*%
D23*
%TO.C,R7*%
X62975000Y-55860000D03*
X64625000Y-55860000D03*
%TD*%
D31*
%TO.C,Y1*%
X60525000Y-76500000D03*
X60525000Y-79000000D03*
%TD*%
D22*
%TO.C,J2*%
X77450000Y-78850000D03*
%TD*%
D32*
%TO.C,C9*%
X66225000Y-59490000D03*
X69175000Y-59490000D03*
%TD*%
D24*
%TO.C,C8*%
X67335000Y-57650000D03*
X68885000Y-57650000D03*
%TD*%
D18*
%TO.C,R1*%
X61825000Y-74675000D03*
X60175000Y-74675000D03*
%TD*%
D22*
%TO.C,J8*%
X96350000Y-78875000D03*
D33*
X98890000Y-78875000D03*
X101430000Y-78875000D03*
X103970000Y-78875000D03*
%TD*%
M02*
