%TF.GenerationSoftware,KiCad,Pcbnew,(6.0.10)*%
%TF.CreationDate,2023-04-20T12:34:08-06:00*%
%TF.ProjectId,SolarGPS,536f6c61-7247-4505-932e-6b696361645f,rev?*%
%TF.SameCoordinates,Original*%
%TF.FileFunction,Soldermask,Top*%
%TF.FilePolarity,Negative*%
%FSLAX46Y46*%
G04 Gerber Fmt 4.6, Leading zero omitted, Abs format (unit mm)*
G04 Created by KiCad (PCBNEW (6.0.10)) date 2023-04-20 12:34:08*
%MOMM*%
%LPD*%
G01*
G04 APERTURE LIST*
G04 Aperture macros list*
%AMRoundRect*
0 Rectangle with rounded corners*
0 $1 Rounding radius*
0 $2 $3 $4 $5 $6 $7 $8 $9 X,Y pos of 4 corners*
0 Add a 4 corners polygon primitive as box body*
4,1,4,$2,$3,$4,$5,$6,$7,$8,$9,$2,$3,0*
0 Add four circle primitives for the rounded corners*
1,1,$1+$1,$2,$3*
1,1,$1+$1,$4,$5*
1,1,$1+$1,$6,$7*
1,1,$1+$1,$8,$9*
0 Add four rect primitives between the rounded corners*
20,1,$1+$1,$2,$3,$4,$5,0*
20,1,$1+$1,$4,$5,$6,$7,0*
20,1,$1+$1,$6,$7,$8,$9,0*
20,1,$1+$1,$8,$9,$2,$3,0*%
G04 Aperture macros list end*
%ADD10C,0.250000*%
%ADD11C,0.010000*%
%ADD12C,3.000000*%
%ADD13C,0.990600*%
%ADD14C,0.787400*%
%ADD15RoundRect,0.225000X-0.250000X0.225000X-0.250000X-0.225000X0.250000X-0.225000X0.250000X0.225000X0*%
%ADD16RoundRect,0.200000X-0.200000X-0.275000X0.200000X-0.275000X0.200000X0.275000X-0.200000X0.275000X0*%
%ADD17RoundRect,0.225000X-0.225000X-0.250000X0.225000X-0.250000X0.225000X0.250000X-0.225000X0.250000X0*%
%ADD18RoundRect,0.120000X2.000000X-0.150000X2.000000X0.150000X-2.000000X0.150000X-2.000000X-0.150000X0*%
%ADD19RoundRect,0.200000X-0.275000X0.200000X-0.275000X-0.200000X0.275000X-0.200000X0.275000X0.200000X0*%
%ADD20RoundRect,0.101600X2.000000X0.125000X-2.000000X0.125000X-2.000000X-0.125000X2.000000X-0.125000X0*%
%ADD21RoundRect,0.101600X1.750000X0.125000X-1.750000X0.125000X-1.750000X-0.125000X1.750000X-0.125000X0*%
%ADD22RoundRect,0.225000X0.250000X-0.225000X0.250000X0.225000X-0.250000X0.225000X-0.250000X-0.225000X0*%
%ADD23R,1.700000X1.700000*%
%ADD24RoundRect,0.200000X0.200000X0.275000X-0.200000X0.275000X-0.200000X-0.275000X0.200000X-0.275000X0*%
%ADD25RoundRect,0.225000X0.225000X0.250000X-0.225000X0.250000X-0.225000X-0.250000X0.225000X-0.250000X0*%
%ADD26RoundRect,0.150000X0.512500X0.150000X-0.512500X0.150000X-0.512500X-0.150000X0.512500X-0.150000X0*%
%ADD27RoundRect,0.250000X-0.450000X0.325000X-0.450000X-0.325000X0.450000X-0.325000X0.450000X0.325000X0*%
%ADD28RoundRect,0.150000X-0.512500X-0.150000X0.512500X-0.150000X0.512500X0.150000X-0.512500X0.150000X0*%
%ADD29RoundRect,0.000001X0.900000X0.750000X-0.900000X0.750000X-0.900000X-0.750000X0.900000X-0.750000X0*%
%ADD30RoundRect,0.000001X0.750000X0.900000X-0.750000X0.900000X-0.750000X-0.900000X0.750000X-0.900000X0*%
%ADD31RoundRect,0.062500X0.375000X0.062500X-0.375000X0.062500X-0.375000X-0.062500X0.375000X-0.062500X0*%
%ADD32RoundRect,0.062500X0.062500X0.375000X-0.062500X0.375000X-0.062500X-0.375000X0.062500X-0.375000X0*%
%ADD33R,3.450000X3.450000*%
%ADD34RoundRect,0.250000X0.650000X-0.325000X0.650000X0.325000X-0.650000X0.325000X-0.650000X-0.325000X0*%
%ADD35R,1.800000X1.000000*%
%ADD36RoundRect,0.200000X0.275000X-0.200000X0.275000X0.200000X-0.275000X0.200000X-0.275000X-0.200000X0*%
%ADD37RoundRect,0.250000X-0.325000X-0.650000X0.325000X-0.650000X0.325000X0.650000X-0.325000X0.650000X0*%
%ADD38R,0.675000X0.250000*%
%ADD39R,0.250000X0.675000*%
%ADD40RoundRect,0.243750X0.243750X0.456250X-0.243750X0.456250X-0.243750X-0.456250X0.243750X-0.456250X0*%
%ADD41RoundRect,0.250000X-0.262500X-0.450000X0.262500X-0.450000X0.262500X0.450000X-0.262500X0.450000X0*%
%ADD42O,1.700000X1.700000*%
G04 APERTURE END LIST*
D10*
X123733928Y-76226857D02*
X123333928Y-75655428D01*
X123048214Y-76226857D02*
X123048214Y-75026857D01*
X123505357Y-75026857D01*
X123619642Y-75084000D01*
X123676785Y-75141142D01*
X123733928Y-75255428D01*
X123733928Y-75426857D01*
X123676785Y-75541142D01*
X123619642Y-75598285D01*
X123505357Y-75655428D01*
X123048214Y-75655428D01*
X124248214Y-75598285D02*
X124648214Y-75598285D01*
X124819642Y-76226857D02*
X124248214Y-76226857D01*
X124248214Y-75026857D01*
X124819642Y-75026857D01*
X125276785Y-75884000D02*
X125848214Y-75884000D01*
X125162500Y-76226857D02*
X125562500Y-75026857D01*
X125962500Y-76226857D01*
X126933928Y-76226857D02*
X126362500Y-76226857D01*
X126362500Y-75026857D01*
X123676785Y-77016000D02*
X123562500Y-76958857D01*
X123391071Y-76958857D01*
X123219642Y-77016000D01*
X123105357Y-77130285D01*
X123048214Y-77244571D01*
X122991071Y-77473142D01*
X122991071Y-77644571D01*
X123048214Y-77873142D01*
X123105357Y-77987428D01*
X123219642Y-78101714D01*
X123391071Y-78158857D01*
X123505357Y-78158857D01*
X123676785Y-78101714D01*
X123733928Y-78044571D01*
X123733928Y-77644571D01*
X123505357Y-77644571D01*
X124476785Y-76958857D02*
X124705357Y-76958857D01*
X124819642Y-77016000D01*
X124933928Y-77130285D01*
X124991071Y-77358857D01*
X124991071Y-77758857D01*
X124933928Y-77987428D01*
X124819642Y-78101714D01*
X124705357Y-78158857D01*
X124476785Y-78158857D01*
X124362500Y-78101714D01*
X124248214Y-77987428D01*
X124191071Y-77758857D01*
X124191071Y-77358857D01*
X124248214Y-77130285D01*
X124362500Y-77016000D01*
X124476785Y-76958857D01*
X126076785Y-78158857D02*
X125505357Y-78158857D01*
X125505357Y-76958857D01*
X126476785Y-78158857D02*
X126476785Y-76958857D01*
X126762500Y-76958857D01*
X126933928Y-77016000D01*
X127048214Y-77130285D01*
X127105357Y-77244571D01*
X127162500Y-77473142D01*
X127162500Y-77644571D01*
X127105357Y-77873142D01*
X127048214Y-77987428D01*
X126933928Y-78101714D01*
X126762500Y-78158857D01*
X126476785Y-78158857D01*
%TO.C,U1*%
G36*
X66008000Y-54506000D02*
G01*
X66014000Y-54506000D01*
X66020000Y-54508000D01*
X66026000Y-54509000D01*
X66044000Y-54515000D01*
X66049000Y-54518000D01*
X66055000Y-54521000D01*
X66060000Y-54524000D01*
X66066000Y-54528000D01*
X66071000Y-54532000D01*
X66075000Y-54536000D01*
X66080000Y-54540000D01*
X66084000Y-54545000D01*
X66088000Y-54549000D01*
X66092000Y-54554000D01*
X66096000Y-54560000D01*
X66099000Y-54565000D01*
X66102000Y-54571000D01*
X66105000Y-54576000D01*
X66111000Y-54594000D01*
X66112000Y-54600000D01*
X66114000Y-54606000D01*
X66114000Y-54612000D01*
X66115000Y-54619000D01*
X66115000Y-54781000D01*
X66114000Y-54788000D01*
X66114000Y-54794000D01*
X66112000Y-54800000D01*
X66111000Y-54806000D01*
X66105000Y-54824000D01*
X66102000Y-54829000D01*
X66099000Y-54835000D01*
X66096000Y-54840000D01*
X66092000Y-54846000D01*
X66088000Y-54851000D01*
X66084000Y-54855000D01*
X66080000Y-54860000D01*
X66075000Y-54864000D01*
X66071000Y-54868000D01*
X66066000Y-54872000D01*
X66060000Y-54876000D01*
X66055000Y-54879000D01*
X66049000Y-54882000D01*
X66044000Y-54885000D01*
X66026000Y-54891000D01*
X66020000Y-54892000D01*
X66014000Y-54894000D01*
X66008000Y-54894000D01*
X66001000Y-54895000D01*
X65189000Y-54895000D01*
X65182000Y-54894000D01*
X65176000Y-54894000D01*
X65170000Y-54892000D01*
X65164000Y-54891000D01*
X65146000Y-54885000D01*
X65141000Y-54882000D01*
X65135000Y-54879000D01*
X65130000Y-54876000D01*
X65124000Y-54872000D01*
X65119000Y-54868000D01*
X65115000Y-54864000D01*
X65110000Y-54860000D01*
X65106000Y-54855000D01*
X65102000Y-54851000D01*
X65098000Y-54846000D01*
X65094000Y-54840000D01*
X65091000Y-54835000D01*
X65088000Y-54829000D01*
X65085000Y-54824000D01*
X65079000Y-54806000D01*
X65078000Y-54800000D01*
X65076000Y-54794000D01*
X65076000Y-54788000D01*
X65075000Y-54781000D01*
X65075000Y-54619000D01*
X65076000Y-54612000D01*
X65076000Y-54606000D01*
X65078000Y-54600000D01*
X65079000Y-54594000D01*
X65085000Y-54576000D01*
X65088000Y-54571000D01*
X65091000Y-54565000D01*
X65094000Y-54560000D01*
X65098000Y-54554000D01*
X65102000Y-54549000D01*
X65106000Y-54545000D01*
X65110000Y-54540000D01*
X65115000Y-54536000D01*
X65119000Y-54532000D01*
X65124000Y-54528000D01*
X65130000Y-54524000D01*
X65135000Y-54521000D01*
X65141000Y-54518000D01*
X65146000Y-54515000D01*
X65164000Y-54509000D01*
X65170000Y-54508000D01*
X65176000Y-54506000D01*
X65182000Y-54506000D01*
X65189000Y-54505000D01*
X66001000Y-54505000D01*
X66008000Y-54506000D01*
G37*
D11*
X66008000Y-54506000D02*
X66014000Y-54506000D01*
X66020000Y-54508000D01*
X66026000Y-54509000D01*
X66044000Y-54515000D01*
X66049000Y-54518000D01*
X66055000Y-54521000D01*
X66060000Y-54524000D01*
X66066000Y-54528000D01*
X66071000Y-54532000D01*
X66075000Y-54536000D01*
X66080000Y-54540000D01*
X66084000Y-54545000D01*
X66088000Y-54549000D01*
X66092000Y-54554000D01*
X66096000Y-54560000D01*
X66099000Y-54565000D01*
X66102000Y-54571000D01*
X66105000Y-54576000D01*
X66111000Y-54594000D01*
X66112000Y-54600000D01*
X66114000Y-54606000D01*
X66114000Y-54612000D01*
X66115000Y-54619000D01*
X66115000Y-54781000D01*
X66114000Y-54788000D01*
X66114000Y-54794000D01*
X66112000Y-54800000D01*
X66111000Y-54806000D01*
X66105000Y-54824000D01*
X66102000Y-54829000D01*
X66099000Y-54835000D01*
X66096000Y-54840000D01*
X66092000Y-54846000D01*
X66088000Y-54851000D01*
X66084000Y-54855000D01*
X66080000Y-54860000D01*
X66075000Y-54864000D01*
X66071000Y-54868000D01*
X66066000Y-54872000D01*
X66060000Y-54876000D01*
X66055000Y-54879000D01*
X66049000Y-54882000D01*
X66044000Y-54885000D01*
X66026000Y-54891000D01*
X66020000Y-54892000D01*
X66014000Y-54894000D01*
X66008000Y-54894000D01*
X66001000Y-54895000D01*
X65189000Y-54895000D01*
X65182000Y-54894000D01*
X65176000Y-54894000D01*
X65170000Y-54892000D01*
X65164000Y-54891000D01*
X65146000Y-54885000D01*
X65141000Y-54882000D01*
X65135000Y-54879000D01*
X65130000Y-54876000D01*
X65124000Y-54872000D01*
X65119000Y-54868000D01*
X65115000Y-54864000D01*
X65110000Y-54860000D01*
X65106000Y-54855000D01*
X65102000Y-54851000D01*
X65098000Y-54846000D01*
X65094000Y-54840000D01*
X65091000Y-54835000D01*
X65088000Y-54829000D01*
X65085000Y-54824000D01*
X65079000Y-54806000D01*
X65078000Y-54800000D01*
X65076000Y-54794000D01*
X65076000Y-54788000D01*
X65075000Y-54781000D01*
X65075000Y-54619000D01*
X65076000Y-54612000D01*
X65076000Y-54606000D01*
X65078000Y-54600000D01*
X65079000Y-54594000D01*
X65085000Y-54576000D01*
X65088000Y-54571000D01*
X65091000Y-54565000D01*
X65094000Y-54560000D01*
X65098000Y-54554000D01*
X65102000Y-54549000D01*
X65106000Y-54545000D01*
X65110000Y-54540000D01*
X65115000Y-54536000D01*
X65119000Y-54532000D01*
X65124000Y-54528000D01*
X65130000Y-54524000D01*
X65135000Y-54521000D01*
X65141000Y-54518000D01*
X65146000Y-54515000D01*
X65164000Y-54509000D01*
X65170000Y-54508000D01*
X65176000Y-54506000D01*
X65182000Y-54506000D01*
X65189000Y-54505000D01*
X66001000Y-54505000D01*
X66008000Y-54506000D01*
G36*
X66008000Y-56006000D02*
G01*
X66014000Y-56006000D01*
X66020000Y-56008000D01*
X66026000Y-56009000D01*
X66044000Y-56015000D01*
X66049000Y-56018000D01*
X66055000Y-56021000D01*
X66060000Y-56024000D01*
X66066000Y-56028000D01*
X66071000Y-56032000D01*
X66075000Y-56036000D01*
X66080000Y-56040000D01*
X66084000Y-56045000D01*
X66088000Y-56049000D01*
X66092000Y-56054000D01*
X66096000Y-56060000D01*
X66099000Y-56065000D01*
X66102000Y-56071000D01*
X66105000Y-56076000D01*
X66111000Y-56094000D01*
X66112000Y-56100000D01*
X66114000Y-56106000D01*
X66114000Y-56112000D01*
X66115000Y-56119000D01*
X66115000Y-56281000D01*
X66114000Y-56288000D01*
X66114000Y-56294000D01*
X66112000Y-56300000D01*
X66111000Y-56306000D01*
X66105000Y-56324000D01*
X66102000Y-56329000D01*
X66099000Y-56335000D01*
X66096000Y-56340000D01*
X66092000Y-56346000D01*
X66088000Y-56351000D01*
X66084000Y-56355000D01*
X66080000Y-56360000D01*
X66075000Y-56364000D01*
X66071000Y-56368000D01*
X66066000Y-56372000D01*
X66060000Y-56376000D01*
X66055000Y-56379000D01*
X66049000Y-56382000D01*
X66044000Y-56385000D01*
X66026000Y-56391000D01*
X66020000Y-56392000D01*
X66014000Y-56394000D01*
X66008000Y-56394000D01*
X66001000Y-56395000D01*
X65189000Y-56395000D01*
X65182000Y-56394000D01*
X65176000Y-56394000D01*
X65170000Y-56392000D01*
X65164000Y-56391000D01*
X65146000Y-56385000D01*
X65141000Y-56382000D01*
X65135000Y-56379000D01*
X65130000Y-56376000D01*
X65124000Y-56372000D01*
X65119000Y-56368000D01*
X65115000Y-56364000D01*
X65110000Y-56360000D01*
X65106000Y-56355000D01*
X65102000Y-56351000D01*
X65098000Y-56346000D01*
X65094000Y-56340000D01*
X65091000Y-56335000D01*
X65088000Y-56329000D01*
X65085000Y-56324000D01*
X65079000Y-56306000D01*
X65078000Y-56300000D01*
X65076000Y-56294000D01*
X65076000Y-56288000D01*
X65075000Y-56281000D01*
X65075000Y-56119000D01*
X65076000Y-56112000D01*
X65076000Y-56106000D01*
X65078000Y-56100000D01*
X65079000Y-56094000D01*
X65085000Y-56076000D01*
X65088000Y-56071000D01*
X65091000Y-56065000D01*
X65094000Y-56060000D01*
X65098000Y-56054000D01*
X65102000Y-56049000D01*
X65106000Y-56045000D01*
X65110000Y-56040000D01*
X65115000Y-56036000D01*
X65119000Y-56032000D01*
X65124000Y-56028000D01*
X65130000Y-56024000D01*
X65135000Y-56021000D01*
X65141000Y-56018000D01*
X65146000Y-56015000D01*
X65164000Y-56009000D01*
X65170000Y-56008000D01*
X65176000Y-56006000D01*
X65182000Y-56006000D01*
X65189000Y-56005000D01*
X66001000Y-56005000D01*
X66008000Y-56006000D01*
G37*
X66008000Y-56006000D02*
X66014000Y-56006000D01*
X66020000Y-56008000D01*
X66026000Y-56009000D01*
X66044000Y-56015000D01*
X66049000Y-56018000D01*
X66055000Y-56021000D01*
X66060000Y-56024000D01*
X66066000Y-56028000D01*
X66071000Y-56032000D01*
X66075000Y-56036000D01*
X66080000Y-56040000D01*
X66084000Y-56045000D01*
X66088000Y-56049000D01*
X66092000Y-56054000D01*
X66096000Y-56060000D01*
X66099000Y-56065000D01*
X66102000Y-56071000D01*
X66105000Y-56076000D01*
X66111000Y-56094000D01*
X66112000Y-56100000D01*
X66114000Y-56106000D01*
X66114000Y-56112000D01*
X66115000Y-56119000D01*
X66115000Y-56281000D01*
X66114000Y-56288000D01*
X66114000Y-56294000D01*
X66112000Y-56300000D01*
X66111000Y-56306000D01*
X66105000Y-56324000D01*
X66102000Y-56329000D01*
X66099000Y-56335000D01*
X66096000Y-56340000D01*
X66092000Y-56346000D01*
X66088000Y-56351000D01*
X66084000Y-56355000D01*
X66080000Y-56360000D01*
X66075000Y-56364000D01*
X66071000Y-56368000D01*
X66066000Y-56372000D01*
X66060000Y-56376000D01*
X66055000Y-56379000D01*
X66049000Y-56382000D01*
X66044000Y-56385000D01*
X66026000Y-56391000D01*
X66020000Y-56392000D01*
X66014000Y-56394000D01*
X66008000Y-56394000D01*
X66001000Y-56395000D01*
X65189000Y-56395000D01*
X65182000Y-56394000D01*
X65176000Y-56394000D01*
X65170000Y-56392000D01*
X65164000Y-56391000D01*
X65146000Y-56385000D01*
X65141000Y-56382000D01*
X65135000Y-56379000D01*
X65130000Y-56376000D01*
X65124000Y-56372000D01*
X65119000Y-56368000D01*
X65115000Y-56364000D01*
X65110000Y-56360000D01*
X65106000Y-56355000D01*
X65102000Y-56351000D01*
X65098000Y-56346000D01*
X65094000Y-56340000D01*
X65091000Y-56335000D01*
X65088000Y-56329000D01*
X65085000Y-56324000D01*
X65079000Y-56306000D01*
X65078000Y-56300000D01*
X65076000Y-56294000D01*
X65076000Y-56288000D01*
X65075000Y-56281000D01*
X65075000Y-56119000D01*
X65076000Y-56112000D01*
X65076000Y-56106000D01*
X65078000Y-56100000D01*
X65079000Y-56094000D01*
X65085000Y-56076000D01*
X65088000Y-56071000D01*
X65091000Y-56065000D01*
X65094000Y-56060000D01*
X65098000Y-56054000D01*
X65102000Y-56049000D01*
X65106000Y-56045000D01*
X65110000Y-56040000D01*
X65115000Y-56036000D01*
X65119000Y-56032000D01*
X65124000Y-56028000D01*
X65130000Y-56024000D01*
X65135000Y-56021000D01*
X65141000Y-56018000D01*
X65146000Y-56015000D01*
X65164000Y-56009000D01*
X65170000Y-56008000D01*
X65176000Y-56006000D01*
X65182000Y-56006000D01*
X65189000Y-56005000D01*
X66001000Y-56005000D01*
X66008000Y-56006000D01*
G36*
X66008000Y-55006000D02*
G01*
X66014000Y-55006000D01*
X66020000Y-55008000D01*
X66026000Y-55009000D01*
X66044000Y-55015000D01*
X66049000Y-55018000D01*
X66055000Y-55021000D01*
X66060000Y-55024000D01*
X66066000Y-55028000D01*
X66071000Y-55032000D01*
X66075000Y-55036000D01*
X66080000Y-55040000D01*
X66084000Y-55045000D01*
X66088000Y-55049000D01*
X66092000Y-55054000D01*
X66096000Y-55060000D01*
X66099000Y-55065000D01*
X66102000Y-55071000D01*
X66105000Y-55076000D01*
X66111000Y-55094000D01*
X66112000Y-55100000D01*
X66114000Y-55106000D01*
X66114000Y-55112000D01*
X66115000Y-55119000D01*
X66115000Y-55281000D01*
X66114000Y-55288000D01*
X66114000Y-55294000D01*
X66112000Y-55300000D01*
X66111000Y-55306000D01*
X66105000Y-55324000D01*
X66102000Y-55329000D01*
X66099000Y-55335000D01*
X66096000Y-55340000D01*
X66092000Y-55346000D01*
X66088000Y-55351000D01*
X66084000Y-55355000D01*
X66080000Y-55360000D01*
X66075000Y-55364000D01*
X66071000Y-55368000D01*
X66066000Y-55372000D01*
X66060000Y-55376000D01*
X66055000Y-55379000D01*
X66049000Y-55382000D01*
X66044000Y-55385000D01*
X66026000Y-55391000D01*
X66020000Y-55392000D01*
X66014000Y-55394000D01*
X66008000Y-55394000D01*
X66001000Y-55395000D01*
X64789000Y-55395000D01*
X64782000Y-55394000D01*
X64776000Y-55394000D01*
X64770000Y-55392000D01*
X64764000Y-55391000D01*
X64746000Y-55385000D01*
X64741000Y-55382000D01*
X64735000Y-55379000D01*
X64730000Y-55376000D01*
X64724000Y-55372000D01*
X64719000Y-55368000D01*
X64715000Y-55364000D01*
X64710000Y-55360000D01*
X64706000Y-55355000D01*
X64702000Y-55351000D01*
X64698000Y-55346000D01*
X64694000Y-55340000D01*
X64691000Y-55335000D01*
X64688000Y-55329000D01*
X64685000Y-55324000D01*
X64679000Y-55306000D01*
X64678000Y-55300000D01*
X64676000Y-55294000D01*
X64676000Y-55288000D01*
X64675000Y-55281000D01*
X64675000Y-55119000D01*
X64676000Y-55112000D01*
X64676000Y-55106000D01*
X64678000Y-55100000D01*
X64679000Y-55094000D01*
X64685000Y-55076000D01*
X64688000Y-55071000D01*
X64691000Y-55065000D01*
X64694000Y-55060000D01*
X64698000Y-55054000D01*
X64702000Y-55049000D01*
X64706000Y-55045000D01*
X64710000Y-55040000D01*
X64715000Y-55036000D01*
X64719000Y-55032000D01*
X64724000Y-55028000D01*
X64730000Y-55024000D01*
X64735000Y-55021000D01*
X64741000Y-55018000D01*
X64746000Y-55015000D01*
X64764000Y-55009000D01*
X64770000Y-55008000D01*
X64776000Y-55006000D01*
X64782000Y-55006000D01*
X64789000Y-55005000D01*
X66001000Y-55005000D01*
X66008000Y-55006000D01*
G37*
X66008000Y-55006000D02*
X66014000Y-55006000D01*
X66020000Y-55008000D01*
X66026000Y-55009000D01*
X66044000Y-55015000D01*
X66049000Y-55018000D01*
X66055000Y-55021000D01*
X66060000Y-55024000D01*
X66066000Y-55028000D01*
X66071000Y-55032000D01*
X66075000Y-55036000D01*
X66080000Y-55040000D01*
X66084000Y-55045000D01*
X66088000Y-55049000D01*
X66092000Y-55054000D01*
X66096000Y-55060000D01*
X66099000Y-55065000D01*
X66102000Y-55071000D01*
X66105000Y-55076000D01*
X66111000Y-55094000D01*
X66112000Y-55100000D01*
X66114000Y-55106000D01*
X66114000Y-55112000D01*
X66115000Y-55119000D01*
X66115000Y-55281000D01*
X66114000Y-55288000D01*
X66114000Y-55294000D01*
X66112000Y-55300000D01*
X66111000Y-55306000D01*
X66105000Y-55324000D01*
X66102000Y-55329000D01*
X66099000Y-55335000D01*
X66096000Y-55340000D01*
X66092000Y-55346000D01*
X66088000Y-55351000D01*
X66084000Y-55355000D01*
X66080000Y-55360000D01*
X66075000Y-55364000D01*
X66071000Y-55368000D01*
X66066000Y-55372000D01*
X66060000Y-55376000D01*
X66055000Y-55379000D01*
X66049000Y-55382000D01*
X66044000Y-55385000D01*
X66026000Y-55391000D01*
X66020000Y-55392000D01*
X66014000Y-55394000D01*
X66008000Y-55394000D01*
X66001000Y-55395000D01*
X64789000Y-55395000D01*
X64782000Y-55394000D01*
X64776000Y-55394000D01*
X64770000Y-55392000D01*
X64764000Y-55391000D01*
X64746000Y-55385000D01*
X64741000Y-55382000D01*
X64735000Y-55379000D01*
X64730000Y-55376000D01*
X64724000Y-55372000D01*
X64719000Y-55368000D01*
X64715000Y-55364000D01*
X64710000Y-55360000D01*
X64706000Y-55355000D01*
X64702000Y-55351000D01*
X64698000Y-55346000D01*
X64694000Y-55340000D01*
X64691000Y-55335000D01*
X64688000Y-55329000D01*
X64685000Y-55324000D01*
X64679000Y-55306000D01*
X64678000Y-55300000D01*
X64676000Y-55294000D01*
X64676000Y-55288000D01*
X64675000Y-55281000D01*
X64675000Y-55119000D01*
X64676000Y-55112000D01*
X64676000Y-55106000D01*
X64678000Y-55100000D01*
X64679000Y-55094000D01*
X64685000Y-55076000D01*
X64688000Y-55071000D01*
X64691000Y-55065000D01*
X64694000Y-55060000D01*
X64698000Y-55054000D01*
X64702000Y-55049000D01*
X64706000Y-55045000D01*
X64710000Y-55040000D01*
X64715000Y-55036000D01*
X64719000Y-55032000D01*
X64724000Y-55028000D01*
X64730000Y-55024000D01*
X64735000Y-55021000D01*
X64741000Y-55018000D01*
X64746000Y-55015000D01*
X64764000Y-55009000D01*
X64770000Y-55008000D01*
X64776000Y-55006000D01*
X64782000Y-55006000D01*
X64789000Y-55005000D01*
X66001000Y-55005000D01*
X66008000Y-55006000D01*
G36*
X66008000Y-55506000D02*
G01*
X66014000Y-55506000D01*
X66020000Y-55508000D01*
X66026000Y-55509000D01*
X66044000Y-55515000D01*
X66049000Y-55518000D01*
X66055000Y-55521000D01*
X66060000Y-55524000D01*
X66066000Y-55528000D01*
X66071000Y-55532000D01*
X66075000Y-55536000D01*
X66080000Y-55540000D01*
X66084000Y-55545000D01*
X66088000Y-55549000D01*
X66092000Y-55554000D01*
X66096000Y-55560000D01*
X66099000Y-55565000D01*
X66102000Y-55571000D01*
X66105000Y-55576000D01*
X66111000Y-55594000D01*
X66112000Y-55600000D01*
X66114000Y-55606000D01*
X66114000Y-55612000D01*
X66115000Y-55619000D01*
X66115000Y-55781000D01*
X66114000Y-55788000D01*
X66114000Y-55794000D01*
X66112000Y-55800000D01*
X66111000Y-55806000D01*
X66105000Y-55824000D01*
X66102000Y-55829000D01*
X66099000Y-55835000D01*
X66096000Y-55840000D01*
X66092000Y-55846000D01*
X66088000Y-55851000D01*
X66084000Y-55855000D01*
X66080000Y-55860000D01*
X66075000Y-55864000D01*
X66071000Y-55868000D01*
X66066000Y-55872000D01*
X66060000Y-55876000D01*
X66055000Y-55879000D01*
X66049000Y-55882000D01*
X66044000Y-55885000D01*
X66026000Y-55891000D01*
X66020000Y-55892000D01*
X66014000Y-55894000D01*
X66008000Y-55894000D01*
X66001000Y-55895000D01*
X65189000Y-55895000D01*
X65182000Y-55894000D01*
X65176000Y-55894000D01*
X65170000Y-55892000D01*
X65164000Y-55891000D01*
X65146000Y-55885000D01*
X65141000Y-55882000D01*
X65135000Y-55879000D01*
X65130000Y-55876000D01*
X65124000Y-55872000D01*
X65119000Y-55868000D01*
X65115000Y-55864000D01*
X65110000Y-55860000D01*
X65106000Y-55855000D01*
X65102000Y-55851000D01*
X65098000Y-55846000D01*
X65094000Y-55840000D01*
X65091000Y-55835000D01*
X65088000Y-55829000D01*
X65085000Y-55824000D01*
X65079000Y-55806000D01*
X65078000Y-55800000D01*
X65076000Y-55794000D01*
X65076000Y-55788000D01*
X65075000Y-55781000D01*
X65075000Y-55619000D01*
X65076000Y-55612000D01*
X65076000Y-55606000D01*
X65078000Y-55600000D01*
X65079000Y-55594000D01*
X65085000Y-55576000D01*
X65088000Y-55571000D01*
X65091000Y-55565000D01*
X65094000Y-55560000D01*
X65098000Y-55554000D01*
X65102000Y-55549000D01*
X65106000Y-55545000D01*
X65110000Y-55540000D01*
X65115000Y-55536000D01*
X65119000Y-55532000D01*
X65124000Y-55528000D01*
X65130000Y-55524000D01*
X65135000Y-55521000D01*
X65141000Y-55518000D01*
X65146000Y-55515000D01*
X65164000Y-55509000D01*
X65170000Y-55508000D01*
X65176000Y-55506000D01*
X65182000Y-55506000D01*
X65189000Y-55505000D01*
X66001000Y-55505000D01*
X66008000Y-55506000D01*
G37*
X66008000Y-55506000D02*
X66014000Y-55506000D01*
X66020000Y-55508000D01*
X66026000Y-55509000D01*
X66044000Y-55515000D01*
X66049000Y-55518000D01*
X66055000Y-55521000D01*
X66060000Y-55524000D01*
X66066000Y-55528000D01*
X66071000Y-55532000D01*
X66075000Y-55536000D01*
X66080000Y-55540000D01*
X66084000Y-55545000D01*
X66088000Y-55549000D01*
X66092000Y-55554000D01*
X66096000Y-55560000D01*
X66099000Y-55565000D01*
X66102000Y-55571000D01*
X66105000Y-55576000D01*
X66111000Y-55594000D01*
X66112000Y-55600000D01*
X66114000Y-55606000D01*
X66114000Y-55612000D01*
X66115000Y-55619000D01*
X66115000Y-55781000D01*
X66114000Y-55788000D01*
X66114000Y-55794000D01*
X66112000Y-55800000D01*
X66111000Y-55806000D01*
X66105000Y-55824000D01*
X66102000Y-55829000D01*
X66099000Y-55835000D01*
X66096000Y-55840000D01*
X66092000Y-55846000D01*
X66088000Y-55851000D01*
X66084000Y-55855000D01*
X66080000Y-55860000D01*
X66075000Y-55864000D01*
X66071000Y-55868000D01*
X66066000Y-55872000D01*
X66060000Y-55876000D01*
X66055000Y-55879000D01*
X66049000Y-55882000D01*
X66044000Y-55885000D01*
X66026000Y-55891000D01*
X66020000Y-55892000D01*
X66014000Y-55894000D01*
X66008000Y-55894000D01*
X66001000Y-55895000D01*
X65189000Y-55895000D01*
X65182000Y-55894000D01*
X65176000Y-55894000D01*
X65170000Y-55892000D01*
X65164000Y-55891000D01*
X65146000Y-55885000D01*
X65141000Y-55882000D01*
X65135000Y-55879000D01*
X65130000Y-55876000D01*
X65124000Y-55872000D01*
X65119000Y-55868000D01*
X65115000Y-55864000D01*
X65110000Y-55860000D01*
X65106000Y-55855000D01*
X65102000Y-55851000D01*
X65098000Y-55846000D01*
X65094000Y-55840000D01*
X65091000Y-55835000D01*
X65088000Y-55829000D01*
X65085000Y-55824000D01*
X65079000Y-55806000D01*
X65078000Y-55800000D01*
X65076000Y-55794000D01*
X65076000Y-55788000D01*
X65075000Y-55781000D01*
X65075000Y-55619000D01*
X65076000Y-55612000D01*
X65076000Y-55606000D01*
X65078000Y-55600000D01*
X65079000Y-55594000D01*
X65085000Y-55576000D01*
X65088000Y-55571000D01*
X65091000Y-55565000D01*
X65094000Y-55560000D01*
X65098000Y-55554000D01*
X65102000Y-55549000D01*
X65106000Y-55545000D01*
X65110000Y-55540000D01*
X65115000Y-55536000D01*
X65119000Y-55532000D01*
X65124000Y-55528000D01*
X65130000Y-55524000D01*
X65135000Y-55521000D01*
X65141000Y-55518000D01*
X65146000Y-55515000D01*
X65164000Y-55509000D01*
X65170000Y-55508000D01*
X65176000Y-55506000D01*
X65182000Y-55506000D01*
X65189000Y-55505000D01*
X66001000Y-55505000D01*
X66008000Y-55506000D01*
G36*
X64208000Y-56006000D02*
G01*
X64214000Y-56006000D01*
X64220000Y-56008000D01*
X64226000Y-56009000D01*
X64244000Y-56015000D01*
X64249000Y-56018000D01*
X64255000Y-56021000D01*
X64260000Y-56024000D01*
X64266000Y-56028000D01*
X64271000Y-56032000D01*
X64275000Y-56036000D01*
X64280000Y-56040000D01*
X64284000Y-56045000D01*
X64288000Y-56049000D01*
X64292000Y-56054000D01*
X64296000Y-56060000D01*
X64299000Y-56065000D01*
X64302000Y-56071000D01*
X64305000Y-56076000D01*
X64311000Y-56094000D01*
X64312000Y-56100000D01*
X64314000Y-56106000D01*
X64314000Y-56112000D01*
X64315000Y-56119000D01*
X64315000Y-56281000D01*
X64314000Y-56288000D01*
X64314000Y-56294000D01*
X64312000Y-56300000D01*
X64311000Y-56306000D01*
X64305000Y-56324000D01*
X64302000Y-56329000D01*
X64299000Y-56335000D01*
X64296000Y-56340000D01*
X64292000Y-56346000D01*
X64288000Y-56351000D01*
X64284000Y-56355000D01*
X64280000Y-56360000D01*
X64275000Y-56364000D01*
X64271000Y-56368000D01*
X64266000Y-56372000D01*
X64260000Y-56376000D01*
X64255000Y-56379000D01*
X64249000Y-56382000D01*
X64244000Y-56385000D01*
X64226000Y-56391000D01*
X64220000Y-56392000D01*
X64214000Y-56394000D01*
X64208000Y-56394000D01*
X64201000Y-56395000D01*
X63689000Y-56395000D01*
X63682000Y-56394000D01*
X63676000Y-56394000D01*
X63670000Y-56392000D01*
X63664000Y-56391000D01*
X63646000Y-56385000D01*
X63641000Y-56382000D01*
X63635000Y-56379000D01*
X63630000Y-56376000D01*
X63624000Y-56372000D01*
X63619000Y-56368000D01*
X63615000Y-56364000D01*
X63610000Y-56360000D01*
X63606000Y-56355000D01*
X63602000Y-56351000D01*
X63598000Y-56346000D01*
X63594000Y-56340000D01*
X63591000Y-56335000D01*
X63588000Y-56329000D01*
X63585000Y-56324000D01*
X63579000Y-56306000D01*
X63578000Y-56300000D01*
X63576000Y-56294000D01*
X63576000Y-56288000D01*
X63575000Y-56281000D01*
X63575000Y-56119000D01*
X63576000Y-56112000D01*
X63576000Y-56106000D01*
X63578000Y-56100000D01*
X63579000Y-56094000D01*
X63585000Y-56076000D01*
X63588000Y-56071000D01*
X63591000Y-56065000D01*
X63594000Y-56060000D01*
X63598000Y-56054000D01*
X63602000Y-56049000D01*
X63606000Y-56045000D01*
X63610000Y-56040000D01*
X63615000Y-56036000D01*
X63619000Y-56032000D01*
X63624000Y-56028000D01*
X63630000Y-56024000D01*
X63635000Y-56021000D01*
X63641000Y-56018000D01*
X63646000Y-56015000D01*
X63664000Y-56009000D01*
X63670000Y-56008000D01*
X63676000Y-56006000D01*
X63682000Y-56006000D01*
X63689000Y-56005000D01*
X64201000Y-56005000D01*
X64208000Y-56006000D01*
G37*
X64208000Y-56006000D02*
X64214000Y-56006000D01*
X64220000Y-56008000D01*
X64226000Y-56009000D01*
X64244000Y-56015000D01*
X64249000Y-56018000D01*
X64255000Y-56021000D01*
X64260000Y-56024000D01*
X64266000Y-56028000D01*
X64271000Y-56032000D01*
X64275000Y-56036000D01*
X64280000Y-56040000D01*
X64284000Y-56045000D01*
X64288000Y-56049000D01*
X64292000Y-56054000D01*
X64296000Y-56060000D01*
X64299000Y-56065000D01*
X64302000Y-56071000D01*
X64305000Y-56076000D01*
X64311000Y-56094000D01*
X64312000Y-56100000D01*
X64314000Y-56106000D01*
X64314000Y-56112000D01*
X64315000Y-56119000D01*
X64315000Y-56281000D01*
X64314000Y-56288000D01*
X64314000Y-56294000D01*
X64312000Y-56300000D01*
X64311000Y-56306000D01*
X64305000Y-56324000D01*
X64302000Y-56329000D01*
X64299000Y-56335000D01*
X64296000Y-56340000D01*
X64292000Y-56346000D01*
X64288000Y-56351000D01*
X64284000Y-56355000D01*
X64280000Y-56360000D01*
X64275000Y-56364000D01*
X64271000Y-56368000D01*
X64266000Y-56372000D01*
X64260000Y-56376000D01*
X64255000Y-56379000D01*
X64249000Y-56382000D01*
X64244000Y-56385000D01*
X64226000Y-56391000D01*
X64220000Y-56392000D01*
X64214000Y-56394000D01*
X64208000Y-56394000D01*
X64201000Y-56395000D01*
X63689000Y-56395000D01*
X63682000Y-56394000D01*
X63676000Y-56394000D01*
X63670000Y-56392000D01*
X63664000Y-56391000D01*
X63646000Y-56385000D01*
X63641000Y-56382000D01*
X63635000Y-56379000D01*
X63630000Y-56376000D01*
X63624000Y-56372000D01*
X63619000Y-56368000D01*
X63615000Y-56364000D01*
X63610000Y-56360000D01*
X63606000Y-56355000D01*
X63602000Y-56351000D01*
X63598000Y-56346000D01*
X63594000Y-56340000D01*
X63591000Y-56335000D01*
X63588000Y-56329000D01*
X63585000Y-56324000D01*
X63579000Y-56306000D01*
X63578000Y-56300000D01*
X63576000Y-56294000D01*
X63576000Y-56288000D01*
X63575000Y-56281000D01*
X63575000Y-56119000D01*
X63576000Y-56112000D01*
X63576000Y-56106000D01*
X63578000Y-56100000D01*
X63579000Y-56094000D01*
X63585000Y-56076000D01*
X63588000Y-56071000D01*
X63591000Y-56065000D01*
X63594000Y-56060000D01*
X63598000Y-56054000D01*
X63602000Y-56049000D01*
X63606000Y-56045000D01*
X63610000Y-56040000D01*
X63615000Y-56036000D01*
X63619000Y-56032000D01*
X63624000Y-56028000D01*
X63630000Y-56024000D01*
X63635000Y-56021000D01*
X63641000Y-56018000D01*
X63646000Y-56015000D01*
X63664000Y-56009000D01*
X63670000Y-56008000D01*
X63676000Y-56006000D01*
X63682000Y-56006000D01*
X63689000Y-56005000D01*
X64201000Y-56005000D01*
X64208000Y-56006000D01*
G36*
X64208000Y-54506000D02*
G01*
X64214000Y-54506000D01*
X64220000Y-54508000D01*
X64226000Y-54509000D01*
X64244000Y-54515000D01*
X64249000Y-54518000D01*
X64255000Y-54521000D01*
X64260000Y-54524000D01*
X64266000Y-54528000D01*
X64271000Y-54532000D01*
X64275000Y-54536000D01*
X64280000Y-54540000D01*
X64284000Y-54545000D01*
X64288000Y-54549000D01*
X64292000Y-54554000D01*
X64296000Y-54560000D01*
X64299000Y-54565000D01*
X64302000Y-54571000D01*
X64305000Y-54576000D01*
X64311000Y-54594000D01*
X64312000Y-54600000D01*
X64314000Y-54606000D01*
X64314000Y-54612000D01*
X64315000Y-54619000D01*
X64315000Y-54781000D01*
X64314000Y-54788000D01*
X64314000Y-54794000D01*
X64312000Y-54800000D01*
X64311000Y-54806000D01*
X64305000Y-54824000D01*
X64302000Y-54829000D01*
X64299000Y-54835000D01*
X64296000Y-54840000D01*
X64292000Y-54846000D01*
X64288000Y-54851000D01*
X64284000Y-54855000D01*
X64280000Y-54860000D01*
X64275000Y-54864000D01*
X64271000Y-54868000D01*
X64266000Y-54872000D01*
X64260000Y-54876000D01*
X64255000Y-54879000D01*
X64249000Y-54882000D01*
X64244000Y-54885000D01*
X64226000Y-54891000D01*
X64220000Y-54892000D01*
X64214000Y-54894000D01*
X64208000Y-54894000D01*
X64201000Y-54895000D01*
X63689000Y-54895000D01*
X63682000Y-54894000D01*
X63676000Y-54894000D01*
X63670000Y-54892000D01*
X63664000Y-54891000D01*
X63646000Y-54885000D01*
X63641000Y-54882000D01*
X63635000Y-54879000D01*
X63630000Y-54876000D01*
X63624000Y-54872000D01*
X63619000Y-54868000D01*
X63615000Y-54864000D01*
X63610000Y-54860000D01*
X63606000Y-54855000D01*
X63602000Y-54851000D01*
X63598000Y-54846000D01*
X63594000Y-54840000D01*
X63591000Y-54835000D01*
X63588000Y-54829000D01*
X63585000Y-54824000D01*
X63579000Y-54806000D01*
X63578000Y-54800000D01*
X63576000Y-54794000D01*
X63576000Y-54788000D01*
X63575000Y-54781000D01*
X63575000Y-54619000D01*
X63576000Y-54612000D01*
X63576000Y-54606000D01*
X63578000Y-54600000D01*
X63579000Y-54594000D01*
X63585000Y-54576000D01*
X63588000Y-54571000D01*
X63591000Y-54565000D01*
X63594000Y-54560000D01*
X63598000Y-54554000D01*
X63602000Y-54549000D01*
X63606000Y-54545000D01*
X63610000Y-54540000D01*
X63615000Y-54536000D01*
X63619000Y-54532000D01*
X63624000Y-54528000D01*
X63630000Y-54524000D01*
X63635000Y-54521000D01*
X63641000Y-54518000D01*
X63646000Y-54515000D01*
X63664000Y-54509000D01*
X63670000Y-54508000D01*
X63676000Y-54506000D01*
X63682000Y-54506000D01*
X63689000Y-54505000D01*
X64201000Y-54505000D01*
X64208000Y-54506000D01*
G37*
X64208000Y-54506000D02*
X64214000Y-54506000D01*
X64220000Y-54508000D01*
X64226000Y-54509000D01*
X64244000Y-54515000D01*
X64249000Y-54518000D01*
X64255000Y-54521000D01*
X64260000Y-54524000D01*
X64266000Y-54528000D01*
X64271000Y-54532000D01*
X64275000Y-54536000D01*
X64280000Y-54540000D01*
X64284000Y-54545000D01*
X64288000Y-54549000D01*
X64292000Y-54554000D01*
X64296000Y-54560000D01*
X64299000Y-54565000D01*
X64302000Y-54571000D01*
X64305000Y-54576000D01*
X64311000Y-54594000D01*
X64312000Y-54600000D01*
X64314000Y-54606000D01*
X64314000Y-54612000D01*
X64315000Y-54619000D01*
X64315000Y-54781000D01*
X64314000Y-54788000D01*
X64314000Y-54794000D01*
X64312000Y-54800000D01*
X64311000Y-54806000D01*
X64305000Y-54824000D01*
X64302000Y-54829000D01*
X64299000Y-54835000D01*
X64296000Y-54840000D01*
X64292000Y-54846000D01*
X64288000Y-54851000D01*
X64284000Y-54855000D01*
X64280000Y-54860000D01*
X64275000Y-54864000D01*
X64271000Y-54868000D01*
X64266000Y-54872000D01*
X64260000Y-54876000D01*
X64255000Y-54879000D01*
X64249000Y-54882000D01*
X64244000Y-54885000D01*
X64226000Y-54891000D01*
X64220000Y-54892000D01*
X64214000Y-54894000D01*
X64208000Y-54894000D01*
X64201000Y-54895000D01*
X63689000Y-54895000D01*
X63682000Y-54894000D01*
X63676000Y-54894000D01*
X63670000Y-54892000D01*
X63664000Y-54891000D01*
X63646000Y-54885000D01*
X63641000Y-54882000D01*
X63635000Y-54879000D01*
X63630000Y-54876000D01*
X63624000Y-54872000D01*
X63619000Y-54868000D01*
X63615000Y-54864000D01*
X63610000Y-54860000D01*
X63606000Y-54855000D01*
X63602000Y-54851000D01*
X63598000Y-54846000D01*
X63594000Y-54840000D01*
X63591000Y-54835000D01*
X63588000Y-54829000D01*
X63585000Y-54824000D01*
X63579000Y-54806000D01*
X63578000Y-54800000D01*
X63576000Y-54794000D01*
X63576000Y-54788000D01*
X63575000Y-54781000D01*
X63575000Y-54619000D01*
X63576000Y-54612000D01*
X63576000Y-54606000D01*
X63578000Y-54600000D01*
X63579000Y-54594000D01*
X63585000Y-54576000D01*
X63588000Y-54571000D01*
X63591000Y-54565000D01*
X63594000Y-54560000D01*
X63598000Y-54554000D01*
X63602000Y-54549000D01*
X63606000Y-54545000D01*
X63610000Y-54540000D01*
X63615000Y-54536000D01*
X63619000Y-54532000D01*
X63624000Y-54528000D01*
X63630000Y-54524000D01*
X63635000Y-54521000D01*
X63641000Y-54518000D01*
X63646000Y-54515000D01*
X63664000Y-54509000D01*
X63670000Y-54508000D01*
X63676000Y-54506000D01*
X63682000Y-54506000D01*
X63689000Y-54505000D01*
X64201000Y-54505000D01*
X64208000Y-54506000D01*
G36*
X64208000Y-55006000D02*
G01*
X64214000Y-55006000D01*
X64220000Y-55008000D01*
X64226000Y-55009000D01*
X64244000Y-55015000D01*
X64249000Y-55018000D01*
X64255000Y-55021000D01*
X64260000Y-55024000D01*
X64266000Y-55028000D01*
X64271000Y-55032000D01*
X64275000Y-55036000D01*
X64280000Y-55040000D01*
X64284000Y-55045000D01*
X64288000Y-55049000D01*
X64292000Y-55054000D01*
X64296000Y-55060000D01*
X64299000Y-55065000D01*
X64302000Y-55071000D01*
X64305000Y-55076000D01*
X64311000Y-55094000D01*
X64312000Y-55100000D01*
X64314000Y-55106000D01*
X64314000Y-55112000D01*
X64315000Y-55119000D01*
X64315000Y-55281000D01*
X64314000Y-55288000D01*
X64314000Y-55294000D01*
X64312000Y-55300000D01*
X64311000Y-55306000D01*
X64305000Y-55324000D01*
X64302000Y-55329000D01*
X64299000Y-55335000D01*
X64296000Y-55340000D01*
X64292000Y-55346000D01*
X64288000Y-55351000D01*
X64284000Y-55355000D01*
X64280000Y-55360000D01*
X64275000Y-55364000D01*
X64271000Y-55368000D01*
X64266000Y-55372000D01*
X64260000Y-55376000D01*
X64255000Y-55379000D01*
X64249000Y-55382000D01*
X64244000Y-55385000D01*
X64226000Y-55391000D01*
X64220000Y-55392000D01*
X64214000Y-55394000D01*
X64208000Y-55394000D01*
X64201000Y-55395000D01*
X63689000Y-55395000D01*
X63682000Y-55394000D01*
X63676000Y-55394000D01*
X63670000Y-55392000D01*
X63664000Y-55391000D01*
X63646000Y-55385000D01*
X63641000Y-55382000D01*
X63635000Y-55379000D01*
X63630000Y-55376000D01*
X63624000Y-55372000D01*
X63619000Y-55368000D01*
X63615000Y-55364000D01*
X63610000Y-55360000D01*
X63606000Y-55355000D01*
X63602000Y-55351000D01*
X63598000Y-55346000D01*
X63594000Y-55340000D01*
X63591000Y-55335000D01*
X63588000Y-55329000D01*
X63585000Y-55324000D01*
X63579000Y-55306000D01*
X63578000Y-55300000D01*
X63576000Y-55294000D01*
X63576000Y-55288000D01*
X63575000Y-55281000D01*
X63575000Y-55119000D01*
X63576000Y-55112000D01*
X63576000Y-55106000D01*
X63578000Y-55100000D01*
X63579000Y-55094000D01*
X63585000Y-55076000D01*
X63588000Y-55071000D01*
X63591000Y-55065000D01*
X63594000Y-55060000D01*
X63598000Y-55054000D01*
X63602000Y-55049000D01*
X63606000Y-55045000D01*
X63610000Y-55040000D01*
X63615000Y-55036000D01*
X63619000Y-55032000D01*
X63624000Y-55028000D01*
X63630000Y-55024000D01*
X63635000Y-55021000D01*
X63641000Y-55018000D01*
X63646000Y-55015000D01*
X63664000Y-55009000D01*
X63670000Y-55008000D01*
X63676000Y-55006000D01*
X63682000Y-55006000D01*
X63689000Y-55005000D01*
X64201000Y-55005000D01*
X64208000Y-55006000D01*
G37*
X64208000Y-55006000D02*
X64214000Y-55006000D01*
X64220000Y-55008000D01*
X64226000Y-55009000D01*
X64244000Y-55015000D01*
X64249000Y-55018000D01*
X64255000Y-55021000D01*
X64260000Y-55024000D01*
X64266000Y-55028000D01*
X64271000Y-55032000D01*
X64275000Y-55036000D01*
X64280000Y-55040000D01*
X64284000Y-55045000D01*
X64288000Y-55049000D01*
X64292000Y-55054000D01*
X64296000Y-55060000D01*
X64299000Y-55065000D01*
X64302000Y-55071000D01*
X64305000Y-55076000D01*
X64311000Y-55094000D01*
X64312000Y-55100000D01*
X64314000Y-55106000D01*
X64314000Y-55112000D01*
X64315000Y-55119000D01*
X64315000Y-55281000D01*
X64314000Y-55288000D01*
X64314000Y-55294000D01*
X64312000Y-55300000D01*
X64311000Y-55306000D01*
X64305000Y-55324000D01*
X64302000Y-55329000D01*
X64299000Y-55335000D01*
X64296000Y-55340000D01*
X64292000Y-55346000D01*
X64288000Y-55351000D01*
X64284000Y-55355000D01*
X64280000Y-55360000D01*
X64275000Y-55364000D01*
X64271000Y-55368000D01*
X64266000Y-55372000D01*
X64260000Y-55376000D01*
X64255000Y-55379000D01*
X64249000Y-55382000D01*
X64244000Y-55385000D01*
X64226000Y-55391000D01*
X64220000Y-55392000D01*
X64214000Y-55394000D01*
X64208000Y-55394000D01*
X64201000Y-55395000D01*
X63689000Y-55395000D01*
X63682000Y-55394000D01*
X63676000Y-55394000D01*
X63670000Y-55392000D01*
X63664000Y-55391000D01*
X63646000Y-55385000D01*
X63641000Y-55382000D01*
X63635000Y-55379000D01*
X63630000Y-55376000D01*
X63624000Y-55372000D01*
X63619000Y-55368000D01*
X63615000Y-55364000D01*
X63610000Y-55360000D01*
X63606000Y-55355000D01*
X63602000Y-55351000D01*
X63598000Y-55346000D01*
X63594000Y-55340000D01*
X63591000Y-55335000D01*
X63588000Y-55329000D01*
X63585000Y-55324000D01*
X63579000Y-55306000D01*
X63578000Y-55300000D01*
X63576000Y-55294000D01*
X63576000Y-55288000D01*
X63575000Y-55281000D01*
X63575000Y-55119000D01*
X63576000Y-55112000D01*
X63576000Y-55106000D01*
X63578000Y-55100000D01*
X63579000Y-55094000D01*
X63585000Y-55076000D01*
X63588000Y-55071000D01*
X63591000Y-55065000D01*
X63594000Y-55060000D01*
X63598000Y-55054000D01*
X63602000Y-55049000D01*
X63606000Y-55045000D01*
X63610000Y-55040000D01*
X63615000Y-55036000D01*
X63619000Y-55032000D01*
X63624000Y-55028000D01*
X63630000Y-55024000D01*
X63635000Y-55021000D01*
X63641000Y-55018000D01*
X63646000Y-55015000D01*
X63664000Y-55009000D01*
X63670000Y-55008000D01*
X63676000Y-55006000D01*
X63682000Y-55006000D01*
X63689000Y-55005000D01*
X64201000Y-55005000D01*
X64208000Y-55006000D01*
G36*
X64208000Y-54006000D02*
G01*
X64214000Y-54006000D01*
X64220000Y-54008000D01*
X64226000Y-54009000D01*
X64244000Y-54015000D01*
X64249000Y-54018000D01*
X64255000Y-54021000D01*
X64260000Y-54024000D01*
X64266000Y-54028000D01*
X64271000Y-54032000D01*
X64275000Y-54036000D01*
X64280000Y-54040000D01*
X64284000Y-54045000D01*
X64288000Y-54049000D01*
X64292000Y-54054000D01*
X64296000Y-54060000D01*
X64299000Y-54065000D01*
X64302000Y-54071000D01*
X64305000Y-54076000D01*
X64311000Y-54094000D01*
X64312000Y-54100000D01*
X64314000Y-54106000D01*
X64314000Y-54112000D01*
X64315000Y-54119000D01*
X64315000Y-54281000D01*
X64314000Y-54288000D01*
X64314000Y-54294000D01*
X64312000Y-54300000D01*
X64311000Y-54306000D01*
X64305000Y-54324000D01*
X64302000Y-54329000D01*
X64299000Y-54335000D01*
X64296000Y-54340000D01*
X64292000Y-54346000D01*
X64288000Y-54351000D01*
X64284000Y-54355000D01*
X64280000Y-54360000D01*
X64275000Y-54364000D01*
X64271000Y-54368000D01*
X64266000Y-54372000D01*
X64260000Y-54376000D01*
X64255000Y-54379000D01*
X64249000Y-54382000D01*
X64244000Y-54385000D01*
X64226000Y-54391000D01*
X64220000Y-54392000D01*
X64214000Y-54394000D01*
X64208000Y-54394000D01*
X64201000Y-54395000D01*
X63689000Y-54395000D01*
X63682000Y-54394000D01*
X63676000Y-54394000D01*
X63670000Y-54392000D01*
X63664000Y-54391000D01*
X63646000Y-54385000D01*
X63641000Y-54382000D01*
X63635000Y-54379000D01*
X63630000Y-54376000D01*
X63624000Y-54372000D01*
X63619000Y-54368000D01*
X63615000Y-54364000D01*
X63610000Y-54360000D01*
X63606000Y-54355000D01*
X63602000Y-54351000D01*
X63598000Y-54346000D01*
X63594000Y-54340000D01*
X63591000Y-54335000D01*
X63588000Y-54329000D01*
X63585000Y-54324000D01*
X63579000Y-54306000D01*
X63578000Y-54300000D01*
X63576000Y-54294000D01*
X63576000Y-54288000D01*
X63575000Y-54281000D01*
X63575000Y-54119000D01*
X63576000Y-54112000D01*
X63576000Y-54106000D01*
X63578000Y-54100000D01*
X63579000Y-54094000D01*
X63585000Y-54076000D01*
X63588000Y-54071000D01*
X63591000Y-54065000D01*
X63594000Y-54060000D01*
X63598000Y-54054000D01*
X63602000Y-54049000D01*
X63606000Y-54045000D01*
X63610000Y-54040000D01*
X63615000Y-54036000D01*
X63619000Y-54032000D01*
X63624000Y-54028000D01*
X63630000Y-54024000D01*
X63635000Y-54021000D01*
X63641000Y-54018000D01*
X63646000Y-54015000D01*
X63664000Y-54009000D01*
X63670000Y-54008000D01*
X63676000Y-54006000D01*
X63682000Y-54006000D01*
X63689000Y-54005000D01*
X64201000Y-54005000D01*
X64208000Y-54006000D01*
G37*
X64208000Y-54006000D02*
X64214000Y-54006000D01*
X64220000Y-54008000D01*
X64226000Y-54009000D01*
X64244000Y-54015000D01*
X64249000Y-54018000D01*
X64255000Y-54021000D01*
X64260000Y-54024000D01*
X64266000Y-54028000D01*
X64271000Y-54032000D01*
X64275000Y-54036000D01*
X64280000Y-54040000D01*
X64284000Y-54045000D01*
X64288000Y-54049000D01*
X64292000Y-54054000D01*
X64296000Y-54060000D01*
X64299000Y-54065000D01*
X64302000Y-54071000D01*
X64305000Y-54076000D01*
X64311000Y-54094000D01*
X64312000Y-54100000D01*
X64314000Y-54106000D01*
X64314000Y-54112000D01*
X64315000Y-54119000D01*
X64315000Y-54281000D01*
X64314000Y-54288000D01*
X64314000Y-54294000D01*
X64312000Y-54300000D01*
X64311000Y-54306000D01*
X64305000Y-54324000D01*
X64302000Y-54329000D01*
X64299000Y-54335000D01*
X64296000Y-54340000D01*
X64292000Y-54346000D01*
X64288000Y-54351000D01*
X64284000Y-54355000D01*
X64280000Y-54360000D01*
X64275000Y-54364000D01*
X64271000Y-54368000D01*
X64266000Y-54372000D01*
X64260000Y-54376000D01*
X64255000Y-54379000D01*
X64249000Y-54382000D01*
X64244000Y-54385000D01*
X64226000Y-54391000D01*
X64220000Y-54392000D01*
X64214000Y-54394000D01*
X64208000Y-54394000D01*
X64201000Y-54395000D01*
X63689000Y-54395000D01*
X63682000Y-54394000D01*
X63676000Y-54394000D01*
X63670000Y-54392000D01*
X63664000Y-54391000D01*
X63646000Y-54385000D01*
X63641000Y-54382000D01*
X63635000Y-54379000D01*
X63630000Y-54376000D01*
X63624000Y-54372000D01*
X63619000Y-54368000D01*
X63615000Y-54364000D01*
X63610000Y-54360000D01*
X63606000Y-54355000D01*
X63602000Y-54351000D01*
X63598000Y-54346000D01*
X63594000Y-54340000D01*
X63591000Y-54335000D01*
X63588000Y-54329000D01*
X63585000Y-54324000D01*
X63579000Y-54306000D01*
X63578000Y-54300000D01*
X63576000Y-54294000D01*
X63576000Y-54288000D01*
X63575000Y-54281000D01*
X63575000Y-54119000D01*
X63576000Y-54112000D01*
X63576000Y-54106000D01*
X63578000Y-54100000D01*
X63579000Y-54094000D01*
X63585000Y-54076000D01*
X63588000Y-54071000D01*
X63591000Y-54065000D01*
X63594000Y-54060000D01*
X63598000Y-54054000D01*
X63602000Y-54049000D01*
X63606000Y-54045000D01*
X63610000Y-54040000D01*
X63615000Y-54036000D01*
X63619000Y-54032000D01*
X63624000Y-54028000D01*
X63630000Y-54024000D01*
X63635000Y-54021000D01*
X63641000Y-54018000D01*
X63646000Y-54015000D01*
X63664000Y-54009000D01*
X63670000Y-54008000D01*
X63676000Y-54006000D01*
X63682000Y-54006000D01*
X63689000Y-54005000D01*
X64201000Y-54005000D01*
X64208000Y-54006000D01*
G36*
X64208000Y-55506000D02*
G01*
X64214000Y-55506000D01*
X64220000Y-55508000D01*
X64226000Y-55509000D01*
X64244000Y-55515000D01*
X64249000Y-55518000D01*
X64255000Y-55521000D01*
X64260000Y-55524000D01*
X64266000Y-55528000D01*
X64271000Y-55532000D01*
X64275000Y-55536000D01*
X64280000Y-55540000D01*
X64284000Y-55545000D01*
X64288000Y-55549000D01*
X64292000Y-55554000D01*
X64296000Y-55560000D01*
X64299000Y-55565000D01*
X64302000Y-55571000D01*
X64305000Y-55576000D01*
X64311000Y-55594000D01*
X64312000Y-55600000D01*
X64314000Y-55606000D01*
X64314000Y-55612000D01*
X64315000Y-55619000D01*
X64315000Y-55781000D01*
X64314000Y-55788000D01*
X64314000Y-55794000D01*
X64312000Y-55800000D01*
X64311000Y-55806000D01*
X64305000Y-55824000D01*
X64302000Y-55829000D01*
X64299000Y-55835000D01*
X64296000Y-55840000D01*
X64292000Y-55846000D01*
X64288000Y-55851000D01*
X64284000Y-55855000D01*
X64280000Y-55860000D01*
X64275000Y-55864000D01*
X64271000Y-55868000D01*
X64266000Y-55872000D01*
X64260000Y-55876000D01*
X64255000Y-55879000D01*
X64249000Y-55882000D01*
X64244000Y-55885000D01*
X64226000Y-55891000D01*
X64220000Y-55892000D01*
X64214000Y-55894000D01*
X64208000Y-55894000D01*
X64201000Y-55895000D01*
X63689000Y-55895000D01*
X63682000Y-55894000D01*
X63676000Y-55894000D01*
X63670000Y-55892000D01*
X63664000Y-55891000D01*
X63646000Y-55885000D01*
X63641000Y-55882000D01*
X63635000Y-55879000D01*
X63630000Y-55876000D01*
X63624000Y-55872000D01*
X63619000Y-55868000D01*
X63615000Y-55864000D01*
X63610000Y-55860000D01*
X63606000Y-55855000D01*
X63602000Y-55851000D01*
X63598000Y-55846000D01*
X63594000Y-55840000D01*
X63591000Y-55835000D01*
X63588000Y-55829000D01*
X63585000Y-55824000D01*
X63579000Y-55806000D01*
X63578000Y-55800000D01*
X63576000Y-55794000D01*
X63576000Y-55788000D01*
X63575000Y-55781000D01*
X63575000Y-55619000D01*
X63576000Y-55612000D01*
X63576000Y-55606000D01*
X63578000Y-55600000D01*
X63579000Y-55594000D01*
X63585000Y-55576000D01*
X63588000Y-55571000D01*
X63591000Y-55565000D01*
X63594000Y-55560000D01*
X63598000Y-55554000D01*
X63602000Y-55549000D01*
X63606000Y-55545000D01*
X63610000Y-55540000D01*
X63615000Y-55536000D01*
X63619000Y-55532000D01*
X63624000Y-55528000D01*
X63630000Y-55524000D01*
X63635000Y-55521000D01*
X63641000Y-55518000D01*
X63646000Y-55515000D01*
X63664000Y-55509000D01*
X63670000Y-55508000D01*
X63676000Y-55506000D01*
X63682000Y-55506000D01*
X63689000Y-55505000D01*
X64201000Y-55505000D01*
X64208000Y-55506000D01*
G37*
X64208000Y-55506000D02*
X64214000Y-55506000D01*
X64220000Y-55508000D01*
X64226000Y-55509000D01*
X64244000Y-55515000D01*
X64249000Y-55518000D01*
X64255000Y-55521000D01*
X64260000Y-55524000D01*
X64266000Y-55528000D01*
X64271000Y-55532000D01*
X64275000Y-55536000D01*
X64280000Y-55540000D01*
X64284000Y-55545000D01*
X64288000Y-55549000D01*
X64292000Y-55554000D01*
X64296000Y-55560000D01*
X64299000Y-55565000D01*
X64302000Y-55571000D01*
X64305000Y-55576000D01*
X64311000Y-55594000D01*
X64312000Y-55600000D01*
X64314000Y-55606000D01*
X64314000Y-55612000D01*
X64315000Y-55619000D01*
X64315000Y-55781000D01*
X64314000Y-55788000D01*
X64314000Y-55794000D01*
X64312000Y-55800000D01*
X64311000Y-55806000D01*
X64305000Y-55824000D01*
X64302000Y-55829000D01*
X64299000Y-55835000D01*
X64296000Y-55840000D01*
X64292000Y-55846000D01*
X64288000Y-55851000D01*
X64284000Y-55855000D01*
X64280000Y-55860000D01*
X64275000Y-55864000D01*
X64271000Y-55868000D01*
X64266000Y-55872000D01*
X64260000Y-55876000D01*
X64255000Y-55879000D01*
X64249000Y-55882000D01*
X64244000Y-55885000D01*
X64226000Y-55891000D01*
X64220000Y-55892000D01*
X64214000Y-55894000D01*
X64208000Y-55894000D01*
X64201000Y-55895000D01*
X63689000Y-55895000D01*
X63682000Y-55894000D01*
X63676000Y-55894000D01*
X63670000Y-55892000D01*
X63664000Y-55891000D01*
X63646000Y-55885000D01*
X63641000Y-55882000D01*
X63635000Y-55879000D01*
X63630000Y-55876000D01*
X63624000Y-55872000D01*
X63619000Y-55868000D01*
X63615000Y-55864000D01*
X63610000Y-55860000D01*
X63606000Y-55855000D01*
X63602000Y-55851000D01*
X63598000Y-55846000D01*
X63594000Y-55840000D01*
X63591000Y-55835000D01*
X63588000Y-55829000D01*
X63585000Y-55824000D01*
X63579000Y-55806000D01*
X63578000Y-55800000D01*
X63576000Y-55794000D01*
X63576000Y-55788000D01*
X63575000Y-55781000D01*
X63575000Y-55619000D01*
X63576000Y-55612000D01*
X63576000Y-55606000D01*
X63578000Y-55600000D01*
X63579000Y-55594000D01*
X63585000Y-55576000D01*
X63588000Y-55571000D01*
X63591000Y-55565000D01*
X63594000Y-55560000D01*
X63598000Y-55554000D01*
X63602000Y-55549000D01*
X63606000Y-55545000D01*
X63610000Y-55540000D01*
X63615000Y-55536000D01*
X63619000Y-55532000D01*
X63624000Y-55528000D01*
X63630000Y-55524000D01*
X63635000Y-55521000D01*
X63641000Y-55518000D01*
X63646000Y-55515000D01*
X63664000Y-55509000D01*
X63670000Y-55508000D01*
X63676000Y-55506000D01*
X63682000Y-55506000D01*
X63689000Y-55505000D01*
X64201000Y-55505000D01*
X64208000Y-55506000D01*
G36*
X66008000Y-54006000D02*
G01*
X66014000Y-54006000D01*
X66020000Y-54008000D01*
X66026000Y-54009000D01*
X66044000Y-54015000D01*
X66049000Y-54018000D01*
X66055000Y-54021000D01*
X66060000Y-54024000D01*
X66066000Y-54028000D01*
X66071000Y-54032000D01*
X66075000Y-54036000D01*
X66080000Y-54040000D01*
X66084000Y-54045000D01*
X66088000Y-54049000D01*
X66092000Y-54054000D01*
X66096000Y-54060000D01*
X66099000Y-54065000D01*
X66102000Y-54071000D01*
X66105000Y-54076000D01*
X66111000Y-54094000D01*
X66112000Y-54100000D01*
X66114000Y-54106000D01*
X66114000Y-54112000D01*
X66115000Y-54119000D01*
X66115000Y-54281000D01*
X66114000Y-54288000D01*
X66114000Y-54294000D01*
X66112000Y-54300000D01*
X66111000Y-54306000D01*
X66105000Y-54324000D01*
X66102000Y-54329000D01*
X66099000Y-54335000D01*
X66096000Y-54340000D01*
X66092000Y-54346000D01*
X66088000Y-54351000D01*
X66084000Y-54355000D01*
X66080000Y-54360000D01*
X66075000Y-54364000D01*
X66071000Y-54368000D01*
X66066000Y-54372000D01*
X66060000Y-54376000D01*
X66055000Y-54379000D01*
X66049000Y-54382000D01*
X66044000Y-54385000D01*
X66026000Y-54391000D01*
X66020000Y-54392000D01*
X66014000Y-54394000D01*
X66008000Y-54394000D01*
X66001000Y-54395000D01*
X65189000Y-54395000D01*
X65182000Y-54394000D01*
X65176000Y-54394000D01*
X65170000Y-54392000D01*
X65164000Y-54391000D01*
X65146000Y-54385000D01*
X65141000Y-54382000D01*
X65135000Y-54379000D01*
X65130000Y-54376000D01*
X65124000Y-54372000D01*
X65119000Y-54368000D01*
X65115000Y-54364000D01*
X65110000Y-54360000D01*
X65106000Y-54355000D01*
X65102000Y-54351000D01*
X65098000Y-54346000D01*
X65094000Y-54340000D01*
X65091000Y-54335000D01*
X65088000Y-54329000D01*
X65085000Y-54324000D01*
X65079000Y-54306000D01*
X65078000Y-54300000D01*
X65076000Y-54294000D01*
X65076000Y-54288000D01*
X65075000Y-54281000D01*
X65075000Y-54119000D01*
X65076000Y-54112000D01*
X65076000Y-54106000D01*
X65078000Y-54100000D01*
X65079000Y-54094000D01*
X65085000Y-54076000D01*
X65088000Y-54071000D01*
X65091000Y-54065000D01*
X65094000Y-54060000D01*
X65098000Y-54054000D01*
X65102000Y-54049000D01*
X65106000Y-54045000D01*
X65110000Y-54040000D01*
X65115000Y-54036000D01*
X65119000Y-54032000D01*
X65124000Y-54028000D01*
X65130000Y-54024000D01*
X65135000Y-54021000D01*
X65141000Y-54018000D01*
X65146000Y-54015000D01*
X65164000Y-54009000D01*
X65170000Y-54008000D01*
X65176000Y-54006000D01*
X65182000Y-54006000D01*
X65189000Y-54005000D01*
X66001000Y-54005000D01*
X66008000Y-54006000D01*
G37*
X66008000Y-54006000D02*
X66014000Y-54006000D01*
X66020000Y-54008000D01*
X66026000Y-54009000D01*
X66044000Y-54015000D01*
X66049000Y-54018000D01*
X66055000Y-54021000D01*
X66060000Y-54024000D01*
X66066000Y-54028000D01*
X66071000Y-54032000D01*
X66075000Y-54036000D01*
X66080000Y-54040000D01*
X66084000Y-54045000D01*
X66088000Y-54049000D01*
X66092000Y-54054000D01*
X66096000Y-54060000D01*
X66099000Y-54065000D01*
X66102000Y-54071000D01*
X66105000Y-54076000D01*
X66111000Y-54094000D01*
X66112000Y-54100000D01*
X66114000Y-54106000D01*
X66114000Y-54112000D01*
X66115000Y-54119000D01*
X66115000Y-54281000D01*
X66114000Y-54288000D01*
X66114000Y-54294000D01*
X66112000Y-54300000D01*
X66111000Y-54306000D01*
X66105000Y-54324000D01*
X66102000Y-54329000D01*
X66099000Y-54335000D01*
X66096000Y-54340000D01*
X66092000Y-54346000D01*
X66088000Y-54351000D01*
X66084000Y-54355000D01*
X66080000Y-54360000D01*
X66075000Y-54364000D01*
X66071000Y-54368000D01*
X66066000Y-54372000D01*
X66060000Y-54376000D01*
X66055000Y-54379000D01*
X66049000Y-54382000D01*
X66044000Y-54385000D01*
X66026000Y-54391000D01*
X66020000Y-54392000D01*
X66014000Y-54394000D01*
X66008000Y-54394000D01*
X66001000Y-54395000D01*
X65189000Y-54395000D01*
X65182000Y-54394000D01*
X65176000Y-54394000D01*
X65170000Y-54392000D01*
X65164000Y-54391000D01*
X65146000Y-54385000D01*
X65141000Y-54382000D01*
X65135000Y-54379000D01*
X65130000Y-54376000D01*
X65124000Y-54372000D01*
X65119000Y-54368000D01*
X65115000Y-54364000D01*
X65110000Y-54360000D01*
X65106000Y-54355000D01*
X65102000Y-54351000D01*
X65098000Y-54346000D01*
X65094000Y-54340000D01*
X65091000Y-54335000D01*
X65088000Y-54329000D01*
X65085000Y-54324000D01*
X65079000Y-54306000D01*
X65078000Y-54300000D01*
X65076000Y-54294000D01*
X65076000Y-54288000D01*
X65075000Y-54281000D01*
X65075000Y-54119000D01*
X65076000Y-54112000D01*
X65076000Y-54106000D01*
X65078000Y-54100000D01*
X65079000Y-54094000D01*
X65085000Y-54076000D01*
X65088000Y-54071000D01*
X65091000Y-54065000D01*
X65094000Y-54060000D01*
X65098000Y-54054000D01*
X65102000Y-54049000D01*
X65106000Y-54045000D01*
X65110000Y-54040000D01*
X65115000Y-54036000D01*
X65119000Y-54032000D01*
X65124000Y-54028000D01*
X65130000Y-54024000D01*
X65135000Y-54021000D01*
X65141000Y-54018000D01*
X65146000Y-54015000D01*
X65164000Y-54009000D01*
X65170000Y-54008000D01*
X65176000Y-54006000D01*
X65182000Y-54006000D01*
X65189000Y-54005000D01*
X66001000Y-54005000D01*
X66008000Y-54006000D01*
%TD*%
D12*
%TO.C,J7*%
X58000000Y-61250000D03*
X53000000Y-61250000D03*
X53000000Y-68750000D03*
X58000000Y-68750000D03*
%TD*%
D13*
%TO.C,J6*%
X55560000Y-78200000D03*
X60640000Y-77184000D03*
X60640000Y-79216000D03*
D14*
X56830000Y-78835000D03*
X56830000Y-77565000D03*
X58100000Y-78835000D03*
X58100000Y-77565000D03*
X59370000Y-78835000D03*
X59370000Y-77565000D03*
%TD*%
D15*
%TO.C,C6*%
X65645000Y-51375000D03*
X65645000Y-52925000D03*
%TD*%
D16*
%TO.C,R11*%
X57575000Y-72400000D03*
X59225000Y-72400000D03*
%TD*%
%TO.C,R3*%
X62270000Y-51290000D03*
X63920000Y-51290000D03*
%TD*%
D17*
%TO.C,C13*%
X73150000Y-77100000D03*
X74700000Y-77100000D03*
%TD*%
D18*
%TO.C,J1*%
X66500000Y-67250000D03*
X66500000Y-66750000D03*
X66500000Y-66250000D03*
X66500000Y-65750000D03*
X66500000Y-65250000D03*
X66500000Y-64750000D03*
X66500000Y-64250000D03*
X66500000Y-63750000D03*
X66500000Y-63250000D03*
X66500000Y-62750000D03*
%TD*%
D19*
%TO.C,R4*%
X77150000Y-52225000D03*
X77150000Y-53875000D03*
%TD*%
D20*
%TO.C,J9*%
X45450000Y-73905000D03*
D21*
X45700000Y-74405000D03*
X45700000Y-74905000D03*
D20*
X45450000Y-75405000D03*
D21*
X45700000Y-75905000D03*
X45700000Y-76405000D03*
X45700000Y-76905000D03*
X45700000Y-77405000D03*
D20*
X45450000Y-77905000D03*
D21*
X45700000Y-78405000D03*
X45700000Y-78905000D03*
D20*
X45450000Y-79405000D03*
%TD*%
D22*
%TO.C,C14*%
X61600000Y-69675000D03*
X61600000Y-68125000D03*
%TD*%
D17*
%TO.C,C2*%
X73125000Y-75100000D03*
X74675000Y-75100000D03*
%TD*%
D23*
%TO.C,J3*%
X59425000Y-51500000D03*
%TD*%
D24*
%TO.C,R13*%
X56575000Y-66400000D03*
X54925000Y-66400000D03*
%TD*%
D25*
%TO.C,C7*%
X76425000Y-71600000D03*
X74875000Y-71600000D03*
%TD*%
D15*
%TO.C,C17*%
X75900000Y-73525000D03*
X75900000Y-75075000D03*
%TD*%
D22*
%TO.C,C1*%
X115900000Y-75575000D03*
X115900000Y-74025000D03*
%TD*%
D26*
%TO.C,U6*%
X75137500Y-57900000D03*
X75137500Y-56950000D03*
X75137500Y-56000000D03*
X72862500Y-56000000D03*
X72862500Y-57900000D03*
%TD*%
D24*
%TO.C,R2*%
X63930000Y-52880000D03*
X62280000Y-52880000D03*
%TD*%
D15*
%TO.C,C12*%
X127900000Y-63425000D03*
X127900000Y-64975000D03*
%TD*%
D27*
%TO.C,L1*%
X67445000Y-54045000D03*
X67445000Y-56095000D03*
%TD*%
D28*
%TO.C,U5*%
X111862500Y-74050000D03*
X111862500Y-75000000D03*
X111862500Y-75950000D03*
X114137500Y-75950000D03*
X114137500Y-74050000D03*
%TD*%
D23*
%TO.C,J4*%
X112025000Y-78450000D03*
%TD*%
D25*
%TO.C,C3*%
X62875000Y-63200000D03*
X61325000Y-63200000D03*
%TD*%
D29*
%TO.C,U2*%
X125500000Y-68900000D03*
X125500000Y-67000000D03*
X125500000Y-65100000D03*
X125500000Y-63200000D03*
X125500000Y-61300000D03*
D30*
X122700000Y-58500000D03*
X120800000Y-58500000D03*
X118900000Y-58500000D03*
X117000000Y-58500000D03*
X115100000Y-58500000D03*
D29*
X112300000Y-61300000D03*
X112300000Y-63200000D03*
X112300000Y-65100000D03*
X112300000Y-67000000D03*
X112300000Y-68900000D03*
D30*
X115100000Y-71700000D03*
X117000000Y-71700000D03*
X118900000Y-71700000D03*
X120800000Y-71700000D03*
X122700000Y-71700000D03*
%TD*%
D24*
%TO.C,R6*%
X61370000Y-57290000D03*
X59720000Y-57290000D03*
%TD*%
D28*
%TO.C,U8*%
X53662500Y-73650000D03*
X53662500Y-74600000D03*
X53662500Y-75550000D03*
X55937500Y-75550000D03*
X55937500Y-74600000D03*
X55937500Y-73650000D03*
%TD*%
D31*
%TO.C,U3*%
X67637500Y-75850000D03*
X67637500Y-75350000D03*
X67637500Y-74850000D03*
X67637500Y-74350000D03*
X67637500Y-73850000D03*
X67637500Y-73350000D03*
X67637500Y-72850000D03*
X67637500Y-72350000D03*
D32*
X66950000Y-71662500D03*
X66450000Y-71662500D03*
X65950000Y-71662500D03*
X65450000Y-71662500D03*
X64950000Y-71662500D03*
X64450000Y-71662500D03*
X63950000Y-71662500D03*
X63450000Y-71662500D03*
D31*
X62762500Y-72350000D03*
X62762500Y-72850000D03*
X62762500Y-73350000D03*
X62762500Y-73850000D03*
X62762500Y-74350000D03*
X62762500Y-74850000D03*
X62762500Y-75350000D03*
X62762500Y-75850000D03*
D32*
X63450000Y-76537500D03*
X63950000Y-76537500D03*
X64450000Y-76537500D03*
X64950000Y-76537500D03*
X65450000Y-76537500D03*
X65950000Y-76537500D03*
X66450000Y-76537500D03*
X66950000Y-76537500D03*
D33*
X65200000Y-74100000D03*
%TD*%
D34*
%TO.C,C10*%
X69770000Y-56465000D03*
X69770000Y-53515000D03*
%TD*%
D19*
%TO.C,R12*%
X76900000Y-56225000D03*
X76900000Y-57875000D03*
%TD*%
D25*
%TO.C,C16*%
X68675000Y-78500000D03*
X67125000Y-78500000D03*
%TD*%
D23*
%TO.C,J5*%
X112675000Y-51425000D03*
%TD*%
D17*
%TO.C,C15*%
X73125000Y-78700000D03*
X74675000Y-78700000D03*
%TD*%
D16*
%TO.C,R7*%
X59720000Y-55700000D03*
X61370000Y-55700000D03*
%TD*%
D35*
%TO.C,Y1*%
X71175000Y-78725000D03*
X71175000Y-76225000D03*
%TD*%
D23*
%TO.C,J2*%
X77450000Y-78850000D03*
%TD*%
D36*
%TO.C,R9*%
X53800000Y-78725000D03*
X53800000Y-77075000D03*
%TD*%
D37*
%TO.C,C9*%
X62970000Y-59440000D03*
X65920000Y-59440000D03*
%TD*%
D38*
%TO.C,U4*%
X69937500Y-69850000D03*
X69937500Y-70350000D03*
X69937500Y-70850000D03*
X69937500Y-71350000D03*
D39*
X70700000Y-71612500D03*
X71200000Y-71612500D03*
X71700000Y-71612500D03*
D38*
X72462500Y-71350000D03*
X72462500Y-70850000D03*
X72462500Y-70350000D03*
X72462500Y-69850000D03*
D39*
X71700000Y-69587500D03*
X71200000Y-69587500D03*
X70700000Y-69587500D03*
%TD*%
D17*
%TO.C,C8*%
X64080000Y-57540000D03*
X65630000Y-57540000D03*
%TD*%
D40*
%TO.C,D1*%
X58987500Y-64600000D03*
X57112500Y-64600000D03*
%TD*%
D16*
%TO.C,R8*%
X53375000Y-72000000D03*
X55025000Y-72000000D03*
%TD*%
D24*
%TO.C,R1*%
X65625000Y-78500000D03*
X63975000Y-78500000D03*
%TD*%
D41*
%TO.C,R10*%
X53625000Y-64600000D03*
X55450000Y-64600000D03*
%TD*%
D26*
%TO.C,U7*%
X75137500Y-53900000D03*
X75137500Y-52950000D03*
X75137500Y-52000000D03*
X72862500Y-52000000D03*
X72862500Y-53900000D03*
%TD*%
D23*
%TO.C,J8*%
X96350000Y-78875000D03*
D42*
X98890000Y-78875000D03*
X101430000Y-78875000D03*
X103970000Y-78875000D03*
%TD*%
M02*
