M48
; DRILL file {KiCad (6.0.6)} date Thu Nov  3 14:15:40 2022
; FORMAT={-:-/ absolute / inch / decimal}
; #@! TF.CreationDate,2022-11-03T14:15:40-06:00
; #@! TF.GenerationSoftware,Kicad,Pcbnew,(6.0.6)
; #@! TF.FileFunction,Plated,1,2,PTH
FMAT,2
INCH
; #@! TA.AperFunction,Plated,PTH,ViaDrill
T1C0.0118
; #@! TA.AperFunction,Plated,PTH,ViaDrill
T2C0.0157
; #@! TA.AperFunction,Plated,PTH,ComponentDrill
T3C0.0394
; #@! TA.AperFunction,Plated,PTH,ComponentDrill
T4C0.0728
%
G90
G05
T1
X2.0591Y-2.9528
X2.0906Y-2.8169
X2.1181Y-2.9567
X2.1486Y-2.8317
X2.3681Y-2.2372
X2.3809Y-3.0748
X2.4085Y-3.0423
X2.4331Y-2.4016
X2.4764Y-2.148
X2.4813Y-3.0344
X2.4941Y-2.7657
X2.5016Y-2.3583
X2.5016Y-2.3583
X2.5069Y-2.3071
X2.5092Y-2.6348
X2.5268Y-2.7358
X2.5502Y-2.1516
X2.5571Y-2.6752
X2.5925Y-2.126
X2.5955Y-2.2707
X2.6024Y-2.1693
X2.6191Y-3.0335
X2.6535Y-2.3189
X2.6542Y-3.0358
X2.688Y-3.0384
X2.7057Y-3.0049
X2.7461Y-3.0207
X2.7667Y-2.4813
X2.7717Y-2.2717
X2.7825Y-3.0276
X2.8317Y-2.2874
X2.8317Y-2.4823
X2.8346Y-2.3514
X2.8386Y-2.0285
X2.9016Y-2.2894
X2.9055Y-2.4823
X2.9163Y-2.9065
X2.9193Y-2.9685
X2.9262Y-2.1122
X2.937Y-2.0305
X2.9587Y-2.1516
X2.9646Y-3.1102
X3.1378Y-2.0285
X3.1388Y-2.1388
X3.1811Y-2.8622
X3.2323Y-3.1142
X3.5Y-3.1142
X3.5079Y-2.8583
X3.7923Y-2.9862
X4.1604Y-2.6417
X4.2077Y-2.5758
X4.2313Y-3.1142
X4.2598Y-3.0413
X4.3701Y-2.1398
X4.374Y-2.9337
X4.5315Y-2.128
X4.5463Y-2.4085
X4.5591Y-2.6969
X4.5768Y-2.372
X4.6299Y-1.998
X4.6398Y-3.0984
X4.6447Y-3.0256
X4.7874Y-2.002
X4.8031Y-3.1004
X4.8081Y-2.9793
X4.8445Y-2.9341
X4.8573Y-2.3671
X4.8947Y-2.4882
X4.9055Y-2.7175
X4.9075Y-2.3986
X4.9528Y-3.1004
X4.9606Y-1.998
X4.9882Y-2.9547
X5.0453Y-2.0157
X5.0738Y-2.313
X5.0738Y-2.4695
X5.0787Y-2.6939
X5.0787Y-3.0965
X5.0866Y-2.9626
X5.0945Y-2.1043
T2
X4.2638Y-2.1526
T3
X2.3396Y-2.0276
X3.0492Y-3.1043
X3.7933Y-3.1053
X3.8933Y-3.1053
X3.9933Y-3.1053
X4.0933Y-3.1053
X4.4104Y-3.0886
X4.436Y-2.0246
T4
X2.0866Y-2.4114
X2.0866Y-2.7067
X2.2835Y-2.4114
X2.2835Y-2.7067
T0
M30
