%TF.GenerationSoftware,KiCad,Pcbnew,(6.0.10)*%
%TF.CreationDate,2023-04-20T12:34:08-06:00*%
%TF.ProjectId,SolarGPS,536f6c61-7247-4505-932e-6b696361645f,rev?*%
%TF.SameCoordinates,Original*%
%TF.FileFunction,Legend,Top*%
%TF.FilePolarity,Positive*%
%FSLAX46Y46*%
G04 Gerber Fmt 4.6, Leading zero omitted, Abs format (unit mm)*
G04 Created by KiCad (PCBNEW (6.0.10)) date 2023-04-20 12:34:08*
%MOMM*%
%LPD*%
G01*
G04 APERTURE LIST*
%ADD10C,0.150000*%
%ADD11C,0.250000*%
%ADD12C,0.180000*%
%ADD13C,0.120000*%
%ADD14C,0.100000*%
%ADD15C,0.152400*%
%ADD16C,0.127000*%
%ADD17C,0.200000*%
G04 APERTURE END LIST*
D10*
X118276190Y-77877380D02*
X118609523Y-78877380D01*
X118942857Y-77877380D01*
X119800000Y-78877380D02*
X119228571Y-78877380D01*
X119514285Y-78877380D02*
X119514285Y-77877380D01*
X119419047Y-78020238D01*
X119323809Y-78115476D01*
X119228571Y-78163095D01*
X120228571Y-78782142D02*
X120276190Y-78829761D01*
X120228571Y-78877380D01*
X120180952Y-78829761D01*
X120228571Y-78782142D01*
X120228571Y-78877380D01*
X120609523Y-77877380D02*
X121276190Y-77877380D01*
X120847619Y-78877380D01*
D11*
X126234225Y-54439019D02*
X125363033Y-53119540D01*
X125268299Y-54697838D01*
X124600465Y-54137301D02*
X124117502Y-54266711D01*
X123707161Y-53563230D02*
X124397108Y-53378359D01*
X124785336Y-54827248D01*
X124095389Y-55012119D01*
X122258272Y-53951459D02*
X122926105Y-54511996D01*
X123086208Y-53729614D02*
X123474437Y-55178502D01*
X122922479Y-55326399D01*
X122766003Y-55294378D01*
X122678521Y-55243871D01*
X122572552Y-55124369D01*
X122517091Y-54917384D01*
X122549111Y-54760908D01*
X122599619Y-54673426D01*
X122719121Y-54567457D01*
X123271079Y-54419561D01*
X121637319Y-54117842D02*
X122025548Y-55566731D01*
X120947372Y-54302713D02*
X121335601Y-55751602D01*
X120990628Y-55844037D01*
X120765156Y-55830504D01*
X120590193Y-55729488D01*
X120484224Y-55609986D01*
X120341281Y-55352494D01*
X120285820Y-55145510D01*
X120280866Y-54851044D01*
X120312887Y-54694568D01*
X120413902Y-54519604D01*
X120602399Y-54395148D01*
X120947372Y-54302713D01*
X119498484Y-54690942D02*
X119886712Y-56139830D01*
X118988454Y-55271293D02*
X118298507Y-55456164D01*
X119015521Y-54820351D02*
X118920786Y-56398649D01*
X118049595Y-55079170D01*
X117566632Y-55208580D02*
X117954861Y-56657468D01*
X116738696Y-55430425D01*
X117126924Y-56879313D01*
X126324864Y-50361627D02*
X126713092Y-51810515D01*
X126528221Y-51120568D02*
X125700285Y-51342413D01*
X125496927Y-50583471D02*
X125885156Y-52032360D01*
X125010338Y-51527284D02*
X124527375Y-51656693D01*
X124117033Y-50953213D02*
X124806980Y-50768342D01*
X125195209Y-52217231D01*
X124505262Y-52402102D01*
X122806134Y-51304467D02*
X123496081Y-51119597D01*
X123884309Y-52568485D01*
X122323171Y-51433877D02*
X122711399Y-52882766D01*
X121745474Y-53141585D02*
X121469495Y-53215533D01*
X121313018Y-53183512D01*
X121138055Y-53082497D01*
X120995112Y-52825005D01*
X120865702Y-52342042D01*
X120860749Y-52047577D01*
X120961764Y-51872613D01*
X121081266Y-51766644D01*
X121357245Y-51692696D01*
X121513721Y-51724716D01*
X121688685Y-51825732D01*
X121831628Y-52083223D01*
X121961038Y-52566186D01*
X121965991Y-52860652D01*
X121864976Y-53035616D01*
X121745474Y-53141585D01*
X119726140Y-53608715D02*
X119882617Y-53640736D01*
X120089601Y-53585274D01*
X120278098Y-53460818D01*
X120379113Y-53285855D01*
X120411134Y-53129378D01*
X120406180Y-52834913D01*
X120350719Y-52627928D01*
X120207776Y-52370437D01*
X120101807Y-52250934D01*
X119926843Y-52149919D01*
X119701372Y-52136386D01*
X119563383Y-52173360D01*
X119374886Y-52297816D01*
X119324378Y-52385298D01*
X119453788Y-52868260D01*
X119729766Y-52794312D01*
X117838515Y-52635537D02*
X118506349Y-53196074D01*
X118666452Y-52413692D02*
X119054680Y-53862581D01*
X118502723Y-54010477D01*
X118346246Y-53978457D01*
X118258764Y-53927949D01*
X118152795Y-53808447D01*
X118097334Y-53601463D01*
X118129355Y-53444986D01*
X118179862Y-53357504D01*
X118299365Y-53251535D01*
X118851322Y-53103639D01*
X117397480Y-53197401D02*
X116707533Y-53382272D01*
X117424547Y-52746459D02*
X117329813Y-54324757D01*
X116458621Y-53005278D01*
X115975658Y-53134688D02*
X116363887Y-54583576D01*
X115811929Y-54731473D01*
X115655453Y-54699452D01*
X115567971Y-54648945D01*
X115462002Y-54529443D01*
X115406541Y-54322458D01*
X115438561Y-54165982D01*
X115489069Y-54078500D01*
X115608571Y-53972531D01*
X116160529Y-53824635D01*
X114526769Y-53522916D02*
X114914998Y-54971805D01*
X114730127Y-54281858D02*
X113902191Y-54503703D01*
X113698833Y-53744761D02*
X114087062Y-55193650D01*
D10*
X51986641Y-51820618D02*
X52053984Y-51955305D01*
X52222343Y-52123664D01*
X52323358Y-52157336D01*
X52390702Y-52157336D01*
X52491717Y-52123664D01*
X52559060Y-52056321D01*
X52592732Y-51955305D01*
X52592732Y-51887962D01*
X52559060Y-51786947D01*
X52458045Y-51618588D01*
X52424373Y-51517573D01*
X52424373Y-51450229D01*
X52458045Y-51349214D01*
X52525389Y-51281870D01*
X52626404Y-51248199D01*
X52693747Y-51248199D01*
X52794763Y-51281870D01*
X52963121Y-51450229D01*
X53030465Y-51584916D01*
X52828434Y-52325695D02*
X53165152Y-52662412D01*
X52559060Y-52460382D02*
X53501869Y-51988977D01*
X53030465Y-52931786D01*
X53266167Y-53100145D02*
X53333511Y-53234832D01*
X53501869Y-53403191D01*
X53602885Y-53436862D01*
X53670228Y-53436862D01*
X53771243Y-53403191D01*
X53838587Y-53335847D01*
X53872259Y-53234832D01*
X53872259Y-53167488D01*
X53838587Y-53066473D01*
X53737572Y-52898114D01*
X53703900Y-52797099D01*
X53703900Y-52729756D01*
X53737572Y-52628740D01*
X53804915Y-52561397D01*
X53905930Y-52527725D01*
X53973274Y-52527725D01*
X54074289Y-52561397D01*
X54242648Y-52729756D01*
X54309991Y-52864443D01*
X54343663Y-54379671D02*
X54309991Y-54278656D01*
X54309991Y-54143969D01*
X54309991Y-53941939D01*
X54276320Y-53840923D01*
X54208976Y-53773580D01*
X54074289Y-53975610D02*
X54040617Y-53874595D01*
X54040617Y-53739908D01*
X54141633Y-53571549D01*
X54377335Y-53335847D01*
X54545694Y-53234832D01*
X54680381Y-53234832D01*
X54781396Y-53268504D01*
X54916083Y-53403191D01*
X54949755Y-53504206D01*
X54949755Y-53638893D01*
X54848739Y-53807252D01*
X54613037Y-54042954D01*
X54444678Y-54143969D01*
X54309991Y-54143969D01*
X54208976Y-54110297D01*
X54074289Y-53975610D01*
X55387487Y-53874595D02*
X54815068Y-54447015D01*
X54781396Y-54548030D01*
X54781396Y-54615374D01*
X54815068Y-54716389D01*
X54949755Y-54851076D01*
X55050770Y-54884748D01*
X55118113Y-54884748D01*
X55219129Y-54851076D01*
X55791548Y-54278656D01*
X55589518Y-55086778D02*
X55926235Y-55423496D01*
X55320144Y-55221465D02*
X56262953Y-54750061D01*
X55791548Y-55692870D01*
X56633342Y-55120450D02*
X57037403Y-55524511D01*
X56128266Y-56029587D02*
X56835373Y-55322480D01*
X57037403Y-56804038D02*
X56970060Y-56804038D01*
X56835373Y-56736694D01*
X56768029Y-56669351D01*
X56700686Y-56534664D01*
X56700686Y-56399977D01*
X56734357Y-56298961D01*
X56835373Y-56130602D01*
X56936388Y-56029587D01*
X57104747Y-55928572D01*
X57205762Y-55894900D01*
X57340449Y-55894900D01*
X57475136Y-55962244D01*
X57542480Y-56029587D01*
X57609823Y-56164274D01*
X57609823Y-56231618D01*
X57273106Y-57174427D02*
X57980212Y-56467320D01*
X57643495Y-56804038D02*
X58047556Y-57208099D01*
X57677167Y-57578488D02*
X58384273Y-56871381D01*
X51016557Y-52790702D02*
X51353275Y-53127419D01*
X50747183Y-52925389D02*
X51689992Y-52453984D01*
X51218588Y-53396793D01*
X51454290Y-53632495D02*
X52161397Y-52925389D01*
X52430771Y-53194763D01*
X52464443Y-53295778D01*
X52464443Y-53363121D01*
X52430771Y-53464137D01*
X52329756Y-53565152D01*
X52228740Y-53598824D01*
X52161397Y-53598824D01*
X52060382Y-53565152D01*
X51791008Y-53295778D01*
X52161397Y-54339602D02*
X52868504Y-53632495D01*
X53137878Y-53901869D01*
X53171549Y-54002885D01*
X53171549Y-54070228D01*
X53137878Y-54171243D01*
X53036862Y-54272259D01*
X52935847Y-54305930D01*
X52868504Y-54305930D01*
X52767488Y-54272259D01*
X52498114Y-54002885D01*
X53272565Y-55450770D02*
X53373580Y-54878350D01*
X52868504Y-55046709D02*
X53575610Y-54339602D01*
X53844984Y-54608976D01*
X53878656Y-54709991D01*
X53878656Y-54777335D01*
X53844984Y-54878350D01*
X53743969Y-54979365D01*
X53642954Y-55013037D01*
X53575610Y-55013037D01*
X53474595Y-54979365D01*
X53205221Y-54709991D01*
X54417404Y-55181396D02*
X54552091Y-55316083D01*
X54585763Y-55417098D01*
X54585763Y-55551785D01*
X54484748Y-55720144D01*
X54249045Y-55955846D01*
X54080687Y-56056861D01*
X53946000Y-56056861D01*
X53844984Y-56023190D01*
X53710297Y-55888503D01*
X53676626Y-55787487D01*
X53676626Y-55652800D01*
X53777641Y-55484442D01*
X54013343Y-55248739D01*
X54181702Y-55147724D01*
X54316389Y-55147724D01*
X54417404Y-55181396D01*
X54922480Y-55686472D02*
X54451076Y-56629281D01*
X55393885Y-56157877D01*
X55292870Y-56730296D02*
X55528572Y-56965999D01*
X55259198Y-57437403D02*
X54922480Y-57100686D01*
X55629587Y-56393579D01*
X55966305Y-56730296D01*
X55562244Y-57740449D02*
X56269351Y-57033342D01*
X56437709Y-57201701D01*
X56505053Y-57336388D01*
X56505053Y-57471075D01*
X56471381Y-57572090D01*
X56370366Y-57740449D01*
X56269351Y-57841464D01*
X56100992Y-57942480D01*
X55999977Y-57976151D01*
X55865290Y-57976151D01*
X55730602Y-57908808D01*
X55562244Y-57740449D01*
X56336694Y-58380212D02*
X56336694Y-58447556D01*
X56269351Y-58447556D01*
X56269351Y-58380212D01*
X56336694Y-58380212D01*
X56269351Y-58447556D01*
X56538725Y-58178182D02*
X56909114Y-57740449D01*
X56976457Y-57740449D01*
X56976457Y-57807793D01*
X56538725Y-58178182D01*
X56976457Y-57740449D01*
D11*
X60385714Y-65357142D02*
X60338095Y-65404761D01*
X60195238Y-65452380D01*
X60100000Y-65452380D01*
X59957142Y-65404761D01*
X59861904Y-65309523D01*
X59814285Y-65214285D01*
X59766666Y-65023809D01*
X59766666Y-64880952D01*
X59814285Y-64690476D01*
X59861904Y-64595238D01*
X59957142Y-64500000D01*
X60100000Y-64452380D01*
X60195238Y-64452380D01*
X60338095Y-64500000D01*
X60385714Y-64547619D01*
X60814285Y-65452380D02*
X60814285Y-64452380D01*
X60814285Y-64928571D02*
X61385714Y-64928571D01*
X61385714Y-65452380D02*
X61385714Y-64452380D01*
X62433333Y-65452380D02*
X62100000Y-64976190D01*
X61861904Y-65452380D02*
X61861904Y-64452380D01*
X62242857Y-64452380D01*
X62338095Y-64500000D01*
X62385714Y-64547619D01*
X62433333Y-64642857D01*
X62433333Y-64785714D01*
X62385714Y-64880952D01*
X62338095Y-64928571D01*
X62242857Y-64976190D01*
X61861904Y-64976190D01*
X63385714Y-64500000D02*
X63290476Y-64452380D01*
X63147619Y-64452380D01*
X63004761Y-64500000D01*
X62909523Y-64595238D01*
X62861904Y-64690476D01*
X62814285Y-64880952D01*
X62814285Y-65023809D01*
X62861904Y-65214285D01*
X62909523Y-65309523D01*
X63004761Y-65404761D01*
X63147619Y-65452380D01*
X63242857Y-65452380D01*
X63385714Y-65404761D01*
X63433333Y-65357142D01*
X63433333Y-65023809D01*
X63242857Y-65023809D01*
D12*
X126385714Y-55800000D02*
X126290476Y-55752380D01*
X126147619Y-55752380D01*
X126004761Y-55800000D01*
X125909523Y-55895238D01*
X125861904Y-55990476D01*
X125814285Y-56180952D01*
X125814285Y-56323809D01*
X125861904Y-56514285D01*
X125909523Y-56609523D01*
X126004761Y-56704761D01*
X126147619Y-56752380D01*
X126242857Y-56752380D01*
X126385714Y-56704761D01*
X126433333Y-56657142D01*
X126433333Y-56323809D01*
X126242857Y-56323809D01*
X126861904Y-56752380D02*
X126861904Y-55752380D01*
X127433333Y-56752380D01*
X127433333Y-55752380D01*
X127861904Y-56704761D02*
X128004761Y-56752380D01*
X128242857Y-56752380D01*
X128338095Y-56704761D01*
X128385714Y-56657142D01*
X128433333Y-56561904D01*
X128433333Y-56466666D01*
X128385714Y-56371428D01*
X128338095Y-56323809D01*
X128242857Y-56276190D01*
X128052380Y-56228571D01*
X127957142Y-56180952D01*
X127909523Y-56133333D01*
X127861904Y-56038095D01*
X127861904Y-55942857D01*
X127909523Y-55847619D01*
X127957142Y-55800000D01*
X128052380Y-55752380D01*
X128290476Y-55752380D01*
X128433333Y-55800000D01*
X128814285Y-56704761D02*
X128957142Y-56752380D01*
X129195238Y-56752380D01*
X129290476Y-56704761D01*
X129338095Y-56657142D01*
X129385714Y-56561904D01*
X129385714Y-56466666D01*
X129338095Y-56371428D01*
X129290476Y-56323809D01*
X129195238Y-56276190D01*
X129004761Y-56228571D01*
X128909523Y-56180952D01*
X128861904Y-56133333D01*
X128814285Y-56038095D01*
X128814285Y-55942857D01*
X128861904Y-55847619D01*
X128909523Y-55800000D01*
X129004761Y-55752380D01*
X129242857Y-55752380D01*
X129385714Y-55800000D01*
D13*
%TO.C,J7*%
X48000000Y-69000000D02*
X48000000Y-61000000D01*
X59500000Y-61000000D02*
X59500000Y-69000000D01*
%TO.C,J6*%
X56830000Y-79470000D02*
X56195000Y-79470000D01*
X56195000Y-79470000D02*
X56195000Y-78835000D01*
%TO.C,C6*%
X66155000Y-52009420D02*
X66155000Y-52290580D01*
X65135000Y-52009420D02*
X65135000Y-52290580D01*
%TO.C,R11*%
X58162742Y-71877500D02*
X58637258Y-71877500D01*
X58162742Y-72922500D02*
X58637258Y-72922500D01*
%TO.C,R3*%
X62857742Y-51812500D02*
X63332258Y-51812500D01*
X62857742Y-50767500D02*
X63332258Y-50767500D01*
%TO.C,C13*%
X73784420Y-76590000D02*
X74065580Y-76590000D01*
X73784420Y-77610000D02*
X74065580Y-77610000D01*
%TO.C,J1*%
X79630000Y-51700000D02*
X110000000Y-51700000D01*
X74000000Y-67750000D02*
X66000000Y-67750000D01*
X66000000Y-62250000D02*
X74000000Y-62250000D01*
X66000000Y-62250000D02*
X66000000Y-62400000D01*
X79630000Y-60000000D02*
X79630000Y-51700000D01*
X66000000Y-67750000D02*
X66000000Y-67600000D01*
X79630000Y-70000000D02*
X74000000Y-70000000D01*
X74000000Y-60000000D02*
X79630000Y-60000000D01*
X74000000Y-62250000D02*
X74000000Y-60000000D01*
X79630000Y-78300000D02*
X79630000Y-70000000D01*
X110000000Y-51700000D02*
X110000000Y-78300000D01*
X74000000Y-70000000D02*
X74000000Y-67750000D01*
X110000000Y-78300000D02*
X79630000Y-78300000D01*
%TO.C,R4*%
X76627500Y-52812742D02*
X76627500Y-53287258D01*
X77672500Y-52812742D02*
X77672500Y-53287258D01*
%TO.C,C14*%
X61090000Y-69040580D02*
X61090000Y-68759420D01*
X62110000Y-69040580D02*
X62110000Y-68759420D01*
%TO.C,C2*%
X73759420Y-75610000D02*
X74040580Y-75610000D01*
X73759420Y-74590000D02*
X74040580Y-74590000D01*
%TO.C,J3*%
X58095000Y-52770000D02*
X58095000Y-52830000D01*
X58095000Y-50170000D02*
X59425000Y-50170000D01*
X58095000Y-51500000D02*
X58095000Y-50170000D01*
X58095000Y-52770000D02*
X60755000Y-52770000D01*
X60755000Y-52770000D02*
X60755000Y-52830000D01*
X58095000Y-52830000D02*
X60755000Y-52830000D01*
%TO.C,R13*%
X55987258Y-65877500D02*
X55512742Y-65877500D01*
X55987258Y-66922500D02*
X55512742Y-66922500D01*
%TO.C,C7*%
X75790580Y-72110000D02*
X75509420Y-72110000D01*
X75790580Y-71090000D02*
X75509420Y-71090000D01*
%TO.C,C17*%
X75390000Y-74159420D02*
X75390000Y-74440580D01*
X76410000Y-74159420D02*
X76410000Y-74440580D01*
%TO.C,C1*%
X115390000Y-74940580D02*
X115390000Y-74659420D01*
X116410000Y-74940580D02*
X116410000Y-74659420D01*
%TO.C,U6*%
X74000000Y-58510000D02*
X75800000Y-58510000D01*
X74000000Y-55390000D02*
X73200000Y-55390000D01*
X74000000Y-58510000D02*
X73200000Y-58510000D01*
X74000000Y-55390000D02*
X74800000Y-55390000D01*
%TO.C,R2*%
X63342258Y-52357500D02*
X62867742Y-52357500D01*
X63342258Y-53402500D02*
X62867742Y-53402500D01*
%TO.C,C12*%
X128410000Y-64059420D02*
X128410000Y-64340580D01*
X127390000Y-64059420D02*
X127390000Y-64340580D01*
%TO.C,L1*%
X68155000Y-54808748D02*
X68155000Y-55331252D01*
X66735000Y-54808748D02*
X66735000Y-55331252D01*
%TO.C,U5*%
X113000000Y-73440000D02*
X111200000Y-73440000D01*
X113000000Y-76560000D02*
X112200000Y-76560000D01*
X113000000Y-73440000D02*
X113800000Y-73440000D01*
X113000000Y-76560000D02*
X113800000Y-76560000D01*
%TO.C,J4*%
X110695000Y-77120000D02*
X112025000Y-77120000D01*
X110695000Y-78450000D02*
X110695000Y-77120000D01*
X110695000Y-79780000D02*
X113355000Y-79780000D01*
X113355000Y-79720000D02*
X113355000Y-79780000D01*
X110695000Y-79720000D02*
X113355000Y-79720000D01*
X110695000Y-79720000D02*
X110695000Y-79780000D01*
%TO.C,C3*%
X62240580Y-63710000D02*
X61959420Y-63710000D01*
X62240580Y-62690000D02*
X61959420Y-62690000D01*
%TO.C,U2*%
X126760000Y-57240000D02*
X111040000Y-57240000D01*
X126760000Y-67900000D02*
X126760000Y-57240000D01*
X111040000Y-72960000D02*
X111040000Y-57240000D01*
X126650000Y-72960000D02*
X111040000Y-72960000D01*
%TO.C,R6*%
X60782258Y-57812500D02*
X60307742Y-57812500D01*
X60782258Y-56767500D02*
X60307742Y-56767500D01*
%TO.C,U8*%
X54800000Y-76160000D02*
X54000000Y-76160000D01*
X54800000Y-73040000D02*
X55600000Y-73040000D01*
X54800000Y-76160000D02*
X55600000Y-76160000D01*
X54800000Y-73040000D02*
X53000000Y-73040000D01*
%TO.C,U3*%
X62590000Y-76710000D02*
X62590000Y-76235000D01*
X67335000Y-71490000D02*
X67810000Y-71490000D01*
X63065000Y-76710000D02*
X62590000Y-76710000D01*
X67335000Y-76710000D02*
X67810000Y-76710000D01*
X63065000Y-71490000D02*
X62590000Y-71490000D01*
X67810000Y-71490000D02*
X67810000Y-71965000D01*
X62590000Y-71490000D02*
X62590000Y-71965000D01*
%TO.C,C10*%
X68860000Y-55701252D02*
X68860000Y-54278748D01*
X70680000Y-55701252D02*
X70680000Y-54278748D01*
%TO.C,R12*%
X77422500Y-56812742D02*
X77422500Y-57287258D01*
X76377500Y-56812742D02*
X76377500Y-57287258D01*
%TO.C,C16*%
X68040580Y-79010000D02*
X67759420Y-79010000D01*
X68040580Y-77990000D02*
X67759420Y-77990000D01*
%TO.C,J5*%
X111345000Y-50095000D02*
X112675000Y-50095000D01*
X111345000Y-52755000D02*
X114005000Y-52755000D01*
X111345000Y-52695000D02*
X114005000Y-52695000D01*
X111345000Y-51425000D02*
X111345000Y-50095000D01*
X111345000Y-52695000D02*
X111345000Y-52755000D01*
X114005000Y-52695000D02*
X114005000Y-52755000D01*
%TO.C,C15*%
X73759420Y-79210000D02*
X74040580Y-79210000D01*
X73759420Y-78190000D02*
X74040580Y-78190000D01*
%TO.C,R7*%
X60307742Y-56222500D02*
X60782258Y-56222500D01*
X60307742Y-55177500D02*
X60782258Y-55177500D01*
%TO.C,Y1*%
X72050000Y-76800000D02*
X72050000Y-78150000D01*
X70300000Y-76800000D02*
X70300000Y-78150000D01*
%TO.C,J2*%
X76120000Y-80180000D02*
X78780000Y-80180000D01*
X78780000Y-80120000D02*
X78780000Y-80180000D01*
X76120000Y-78850000D02*
X76120000Y-77520000D01*
X76120000Y-80120000D02*
X78780000Y-80120000D01*
X76120000Y-80120000D02*
X76120000Y-80180000D01*
X76120000Y-77520000D02*
X77450000Y-77520000D01*
%TO.C,R9*%
X54322500Y-78137258D02*
X54322500Y-77662742D01*
X53277500Y-78137258D02*
X53277500Y-77662742D01*
%TO.C,C9*%
X63733748Y-58530000D02*
X65156252Y-58530000D01*
X63733748Y-60350000D02*
X65156252Y-60350000D01*
D14*
%TO.C,U4*%
X69600000Y-69200000D02*
X70000000Y-69200000D01*
X72800000Y-72000000D02*
X72400000Y-72000000D01*
X69600000Y-72000000D02*
X70000000Y-72000000D01*
X72800000Y-69200000D02*
X72400000Y-69200000D01*
X72800000Y-72000000D02*
X72800000Y-71600000D01*
X69600000Y-69200000D02*
X69600000Y-69600000D01*
X72800000Y-69200000D02*
X72800000Y-69600000D01*
X69600000Y-72000000D02*
X69600000Y-71600000D01*
D15*
X69350000Y-69350000D02*
G75*
G03*
X69350000Y-69350000I-50000J0D01*
G01*
D13*
%TO.C,C8*%
X64714420Y-57030000D02*
X64995580Y-57030000D01*
X64714420Y-58050000D02*
X64995580Y-58050000D01*
%TO.C,D1*%
X57050000Y-65560000D02*
X59735000Y-65560000D01*
X59735000Y-63640000D02*
X57050000Y-63640000D01*
X59735000Y-65560000D02*
X59735000Y-63640000D01*
%TO.C,R8*%
X53962742Y-72522500D02*
X54437258Y-72522500D01*
X53962742Y-71477500D02*
X54437258Y-71477500D01*
%TO.C,R1*%
X65037258Y-79022500D02*
X64562742Y-79022500D01*
X65037258Y-77977500D02*
X64562742Y-77977500D01*
D16*
%TO.C,U1*%
X63845000Y-56700000D02*
X65845000Y-56700000D01*
X63845000Y-53700000D02*
X65845000Y-53700000D01*
D17*
X63195000Y-53950000D02*
G75*
G03*
X63195000Y-53950000I-100000J0D01*
G01*
D13*
%TO.C,R10*%
X54310436Y-65335000D02*
X54764564Y-65335000D01*
X54310436Y-63865000D02*
X54764564Y-63865000D01*
%TO.C,U7*%
X74000000Y-54510000D02*
X73200000Y-54510000D01*
X74000000Y-51390000D02*
X73200000Y-51390000D01*
X74000000Y-54510000D02*
X75800000Y-54510000D01*
X74000000Y-51390000D02*
X74800000Y-51390000D01*
%TD*%
M02*
