%TF.GenerationSoftware,KiCad,Pcbnew,(6.0.10)*%
%TF.CreationDate,2023-04-20T12:34:08-06:00*%
%TF.ProjectId,SolarGPS,536f6c61-7247-4505-932e-6b696361645f,rev?*%
%TF.SameCoordinates,Original*%
%TF.FileFunction,Copper,L2,Bot*%
%TF.FilePolarity,Positive*%
%FSLAX46Y46*%
G04 Gerber Fmt 4.6, Leading zero omitted, Abs format (unit mm)*
G04 Created by KiCad (PCBNEW (6.0.10)) date 2023-04-20 12:34:08*
%MOMM*%
%LPD*%
G01*
G04 APERTURE LIST*
G04 Aperture macros list*
%AMRoundRect*
0 Rectangle with rounded corners*
0 $1 Rounding radius*
0 $2 $3 $4 $5 $6 $7 $8 $9 X,Y pos of 4 corners*
0 Add a 4 corners polygon primitive as box body*
4,1,4,$2,$3,$4,$5,$6,$7,$8,$9,$2,$3,0*
0 Add four circle primitives for the rounded corners*
1,1,$1+$1,$2,$3*
1,1,$1+$1,$4,$5*
1,1,$1+$1,$6,$7*
1,1,$1+$1,$8,$9*
0 Add four rect primitives between the rounded corners*
20,1,$1+$1,$2,$3,$4,$5,0*
20,1,$1+$1,$4,$5,$6,$7,0*
20,1,$1+$1,$6,$7,$8,$9,0*
20,1,$1+$1,$8,$9,$2,$3,0*%
G04 Aperture macros list end*
%TA.AperFunction,ComponentPad*%
%ADD10C,3.000000*%
%TD*%
%TA.AperFunction,SMDPad,CuDef*%
%ADD11R,4.000000X0.250000*%
%TD*%
%TA.AperFunction,SMDPad,CuDef*%
%ADD12R,3.500000X0.250000*%
%TD*%
%TA.AperFunction,ComponentPad*%
%ADD13R,1.700000X1.700000*%
%TD*%
%TA.AperFunction,SMDPad,CuDef*%
%ADD14RoundRect,0.500000X-2.500000X-0.500000X2.500000X-0.500000X2.500000X0.500000X-2.500000X0.500000X0*%
%TD*%
%TA.AperFunction,ComponentPad*%
%ADD15O,1.700000X1.700000*%
%TD*%
%TA.AperFunction,ViaPad*%
%ADD16C,0.600000*%
%TD*%
%TA.AperFunction,ViaPad*%
%ADD17C,0.800000*%
%TD*%
%TA.AperFunction,Conductor*%
%ADD18C,0.200000*%
%TD*%
%TA.AperFunction,Conductor*%
%ADD19C,0.300000*%
%TD*%
%TA.AperFunction,Conductor*%
%ADD20C,0.250000*%
%TD*%
%TA.AperFunction,Conductor*%
%ADD21C,0.400000*%
%TD*%
G04 APERTURE END LIST*
D10*
%TO.P,J7,1,Pin_1*%
%TO.N,GND*%
X58000000Y-61250000D03*
X53000000Y-61250000D03*
X53000000Y-68750000D03*
X58000000Y-68750000D03*
%TD*%
D11*
%TO.P,J9,B1,GND*%
%TO.N,GND*%
X45450000Y-79405000D03*
D12*
%TO.P,J9,B2*%
%TO.N,N/C*%
X45700000Y-78905000D03*
%TO.P,J9,B3*%
X45700000Y-78405000D03*
D11*
%TO.P,J9,B4,VBUS*%
%TO.N,VUSB*%
X45450000Y-77905000D03*
D12*
%TO.P,J9,B5,CC2*%
%TO.N,Net-(J9-PadB5)*%
X45700000Y-77405000D03*
%TO.P,J9,B6,D+*%
%TO.N,USBR_P*%
X45700000Y-76905000D03*
%TO.P,J9,B7,D-*%
%TO.N,USBR_N*%
X45700000Y-76405000D03*
%TO.P,J9,B8,SBU2*%
%TO.N,unconnected-(J9-PadB8)*%
X45700000Y-75905000D03*
D11*
%TO.P,J9,B9,VBUS*%
%TO.N,VUSB*%
X45450000Y-75405000D03*
D12*
%TO.P,J9,B10*%
%TO.N,N/C*%
X45700000Y-74905000D03*
%TO.P,J9,B11*%
X45700000Y-74405000D03*
D11*
%TO.P,J9,B12,GND*%
%TO.N,GND*%
X45450000Y-73905000D03*
%TD*%
D13*
%TO.P,J3,1,Pin_1*%
%TO.N,GND*%
X59425000Y-51500000D03*
%TD*%
%TO.P,J4,1,Pin_1*%
%TO.N,/SOLAR1+*%
X112025000Y-78450000D03*
%TD*%
%TO.P,J5,1,Pin_1*%
%TO.N,/SOLAR2+*%
X112675000Y-51425000D03*
%TD*%
%TO.P,J2,1,Pin_1*%
%TO.N,GND*%
X77450000Y-78850000D03*
%TD*%
D14*
%TO.P,C4,1*%
%TO.N,VBAT*%
X66000000Y-62500000D03*
%TO.P,C4,2*%
%TO.N,GND*%
X66000000Y-67000000D03*
%TD*%
D13*
%TO.P,J8,1,Pin_1*%
%TO.N,GPS_EN*%
X96350000Y-78875000D03*
D15*
%TO.P,J8,2,Pin_2*%
%TO.N,GPS_UART_MOSI*%
X98890000Y-78875000D03*
%TO.P,J8,3,Pin_3*%
%TO.N,GPS_UART_MISO*%
X101430000Y-78875000D03*
%TO.P,J8,4,Pin_4*%
%TO.N,GND*%
X103970000Y-78875000D03*
%TD*%
D16*
%TO.N,GND*%
X96000000Y-55600000D03*
X94550000Y-62550000D03*
X99700000Y-70100000D03*
X107850000Y-53000000D03*
X83400000Y-53050000D03*
X128875000Y-62725000D03*
X78000000Y-68700000D03*
X103500000Y-71700000D03*
X77500000Y-66300000D03*
X125000000Y-74200000D03*
X111000000Y-54350000D03*
X76600000Y-50750000D03*
X74650000Y-59650000D03*
X109800000Y-68900000D03*
X110000000Y-63500000D03*
X76200000Y-76900000D03*
X115100000Y-54050000D03*
X129400000Y-53450000D03*
X51300000Y-79400000D03*
X52400000Y-77400000D03*
X129000000Y-69900000D03*
X88600000Y-71800000D03*
X82100000Y-79100000D03*
X72600000Y-62150000D03*
X62700000Y-68550000D03*
X101100000Y-75000000D03*
X62670000Y-57515000D03*
X121600000Y-50850000D03*
X67145000Y-57540000D03*
X51850000Y-64700000D03*
X82800000Y-72600000D03*
X78700000Y-52850000D03*
X128150000Y-51200000D03*
X91872047Y-70605794D03*
X50800000Y-58600000D03*
X110100000Y-61200000D03*
X122000000Y-78750000D03*
X129200000Y-75250000D03*
X52400000Y-74600000D03*
X117850000Y-78700000D03*
X69845000Y-58240000D03*
X74050000Y-65900000D03*
X108200000Y-77250000D03*
X71550000Y-66000000D03*
X78800000Y-57050000D03*
X62845000Y-54940000D03*
X118400000Y-54800000D03*
X55500000Y-79400000D03*
X126700000Y-75050000D03*
X61700000Y-59450000D03*
X80900000Y-69800000D03*
X58300000Y-66300000D03*
X67100000Y-79400000D03*
X80000000Y-64300000D03*
X56700000Y-50800000D03*
X122200000Y-74200000D03*
X110200000Y-70500000D03*
X59400000Y-78850000D03*
X106900000Y-56900000D03*
X113100000Y-75100000D03*
X72500000Y-59650000D03*
X107100000Y-75100000D03*
X78600000Y-75200000D03*
X109900000Y-72500000D03*
X71300000Y-62900000D03*
X67245000Y-51340000D03*
X76850000Y-75050000D03*
X107475000Y-79100000D03*
X126000000Y-50750000D03*
X88900000Y-79100000D03*
X59600000Y-54700000D03*
X62200000Y-79400000D03*
X67545000Y-59340000D03*
X65100000Y-74800000D03*
X71900000Y-67500000D03*
X49300000Y-73800000D03*
X48450000Y-79250000D03*
X128875000Y-58750000D03*
X126000000Y-54500000D03*
X51000000Y-51300000D03*
X125800000Y-78750000D03*
X129000000Y-78650000D03*
X120300000Y-76200000D03*
X121700000Y-54700000D03*
X85600000Y-74600000D03*
X106900000Y-62400000D03*
X74100000Y-67500000D03*
X78550000Y-54950000D03*
X109800000Y-57000000D03*
X116400000Y-56100000D03*
X69845000Y-59740000D03*
X85300000Y-69200000D03*
X103700000Y-69000000D03*
X64000000Y-79400000D03*
X117600000Y-50750000D03*
%TO.N,VDD*%
X69300000Y-73700000D03*
X56850000Y-78850000D03*
X110500000Y-73400000D03*
X68775000Y-76375000D03*
X73975767Y-73359500D03*
X127900000Y-65900000D03*
X61525000Y-71125000D03*
%TO.N,GPS_UART_MOSI*%
X105675000Y-67100000D03*
X68990534Y-72040534D03*
X90700000Y-77300000D03*
%TO.N,GPS_UART_MISO*%
X106875000Y-65425000D03*
X91300000Y-76600000D03*
X68829373Y-70720627D03*
%TO.N,VBATSENSE*%
X74800000Y-72800000D03*
X69950000Y-72800000D03*
X62595000Y-53840000D03*
X76100000Y-66000000D03*
%TO.N,SPI_MOSI*%
X63800000Y-68800000D03*
X66663522Y-68662379D03*
%TO.N,SPI_MISO*%
X67650000Y-69200000D03*
X65283717Y-69340500D03*
D17*
%TO.N,/SOLAR1+*%
X108300000Y-72800000D03*
D16*
%TO.N,nRESET*%
X58100000Y-78850000D03*
X71400000Y-74700000D03*
%TO.N,GPS_EN*%
X66500000Y-70700000D03*
X89700000Y-75850000D03*
%TO.N,Net-(U3-Pad28)*%
X64800000Y-77600000D03*
X59200000Y-71500000D03*
%TO.N,MMU_INT*%
X64100000Y-70200000D03*
X68200001Y-71349999D03*
%TO.N,MMU_CS*%
X73600000Y-69459500D03*
X63050000Y-69750000D03*
%TO.N,/GPS_VDD*%
X127900000Y-67000000D03*
X117125000Y-74025000D03*
%TO.N,SOLAREN*%
X75100000Y-55250000D03*
X61200000Y-72400000D03*
%TO.N,VBAT*%
X71125000Y-53500000D03*
X61000000Y-65000000D03*
X71650000Y-57900000D03*
%TO.N,Net-(J9-PadB5)*%
X50700000Y-77500000D03*
%TO.N,VUSB*%
X51800000Y-71400000D03*
X57000000Y-72400000D03*
X57200000Y-74600000D03*
X49600000Y-78400000D03*
%TO.N,USBR_P*%
X52306250Y-75550000D03*
%TO.N,USBR_N*%
X52400000Y-73700000D03*
X51000000Y-75900000D03*
%TD*%
D18*
%TO.N,VDD*%
X59800000Y-75850000D02*
X61800000Y-75850000D01*
X127900000Y-65900000D02*
X120400000Y-73400000D01*
X120400000Y-73400000D02*
X110500000Y-73400000D01*
X56850000Y-78800000D02*
X59800000Y-75850000D01*
X64190499Y-78240499D02*
X66909501Y-78240499D01*
D19*
X64700000Y-73700000D02*
X62125000Y-71125000D01*
X73635267Y-73700000D02*
X73975767Y-73359500D01*
X69300000Y-73700000D02*
X64700000Y-73700000D01*
X62125000Y-71125000D02*
X61525000Y-71125000D01*
X69300000Y-73700000D02*
X73635267Y-73700000D01*
D18*
X61800000Y-75850000D02*
X64190499Y-78240499D01*
D19*
X69300000Y-73700000D02*
X69300000Y-75850000D01*
X69300000Y-75850000D02*
X68775000Y-76375000D01*
D18*
X56850000Y-78850000D02*
X56850000Y-78800000D01*
X66909501Y-78240499D02*
X68775000Y-76375000D01*
D20*
%TO.N,GPS_UART_MOSI*%
X98890000Y-78875000D02*
X105675000Y-72090000D01*
X105675000Y-72090000D02*
X105675000Y-67100000D01*
D18*
X83300000Y-77300000D02*
X78040534Y-72040534D01*
X78040534Y-72040534D02*
X68990534Y-72040534D01*
X90700000Y-77300000D02*
X83300000Y-77300000D01*
%TO.N,GPS_UART_MISO*%
X91300000Y-76600000D02*
X84000000Y-76600000D01*
X78909501Y-71509501D02*
X69618247Y-71509501D01*
D20*
X106875000Y-73430000D02*
X106875000Y-65425000D01*
D18*
X69618247Y-71509501D02*
X68829373Y-70720627D01*
X84000000Y-76600000D02*
X78909501Y-71509501D01*
D20*
X101430000Y-78875000D02*
X106875000Y-73430000D01*
D18*
%TO.N,VBATSENSE*%
X74800000Y-72800000D02*
X69950000Y-72800000D01*
X63935000Y-52500000D02*
X75450000Y-52500000D01*
X62595000Y-53840000D02*
X63935000Y-52500000D01*
X76900000Y-65200000D02*
X76100000Y-66000000D01*
X75450000Y-52500000D02*
X76900000Y-53950000D01*
X76900000Y-53950000D02*
X76900000Y-65200000D01*
%TO.N,SPI_MOSI*%
X66663522Y-68662379D02*
X63937621Y-68662379D01*
X63937621Y-68662379D02*
X63800000Y-68800000D01*
%TO.N,SPI_MISO*%
X67509500Y-69340500D02*
X67650000Y-69200000D01*
X65283717Y-69340500D02*
X67509500Y-69340500D01*
D21*
%TO.N,/SOLAR1+*%
X108300000Y-74725000D02*
X108300000Y-72800000D01*
X108300000Y-74725000D02*
X112025000Y-78450000D01*
D18*
%TO.N,nRESET*%
X67500000Y-78600000D02*
X63725719Y-78600000D01*
X63725719Y-78600000D02*
X61464418Y-76338699D01*
X59961301Y-76338699D02*
X58100000Y-78200000D01*
X71400000Y-74700000D02*
X67500000Y-78600000D01*
X58100000Y-78200000D02*
X58100000Y-78850000D01*
X61464418Y-76338699D02*
X59961301Y-76338699D01*
%TO.N,GPS_EN*%
X71358412Y-71150000D02*
X79850000Y-71150000D01*
X66500000Y-70700000D02*
X67850000Y-70700000D01*
X70308412Y-70100000D02*
X71358412Y-71150000D01*
X68450000Y-70100000D02*
X70308412Y-70100000D01*
X84550000Y-75850000D02*
X89700000Y-75850000D01*
X67850000Y-70700000D02*
X68450000Y-70100000D01*
X79850000Y-71150000D02*
X84550000Y-75850000D01*
%TO.N,Net-(U3-Pad28)*%
X64800000Y-77400000D02*
X64800000Y-77600000D01*
X59200000Y-71800000D02*
X64800000Y-77400000D01*
X59200000Y-71500000D02*
X59200000Y-71800000D01*
%TO.N,MMU_INT*%
X65249999Y-71349999D02*
X68200001Y-71349999D01*
X64100000Y-70200000D02*
X65249999Y-71349999D01*
%TO.N,MMU_CS*%
X68019000Y-69900000D02*
X64650000Y-69900000D01*
X63200000Y-69600000D02*
X63050000Y-69750000D01*
X73600000Y-69459500D02*
X68459500Y-69459500D01*
X64350000Y-69600000D02*
X63200000Y-69600000D01*
X64650000Y-69900000D02*
X64350000Y-69600000D01*
X68459500Y-69459500D02*
X68019000Y-69900000D01*
D19*
%TO.N,/GPS_VDD*%
X120875000Y-74025000D02*
X127900000Y-67000000D01*
X117125000Y-74025000D02*
X120875000Y-74025000D01*
D18*
%TO.N,SOLAREN*%
X60400000Y-71600000D02*
X61200000Y-72400000D01*
X63000000Y-64700000D02*
X60400000Y-67300000D01*
X75100000Y-55250000D02*
X75950000Y-56100000D01*
X75950000Y-60600000D02*
X71850000Y-64700000D01*
X75950000Y-56100000D02*
X75950000Y-60600000D01*
X71850000Y-64700000D02*
X63000000Y-64700000D01*
X60400000Y-67300000D02*
X60400000Y-71600000D01*
D21*
%TO.N,VBAT*%
X71125000Y-60725000D02*
X68850000Y-63000000D01*
D19*
X71200000Y-57900000D02*
X71125000Y-57825000D01*
D21*
X71125000Y-57825000D02*
X71125000Y-60725000D01*
X68850000Y-63000000D02*
X63000000Y-63000000D01*
X71125000Y-53500000D02*
X71125000Y-57825000D01*
D19*
X71650000Y-57900000D02*
X71200000Y-57900000D01*
D21*
X63000000Y-63000000D02*
X61000000Y-65000000D01*
D18*
%TO.N,Net-(J9-PadB5)*%
X46700000Y-77400000D02*
X50600000Y-77400000D01*
X50600000Y-77400000D02*
X50700000Y-77500000D01*
%TO.N,VUSB*%
X45450000Y-75405000D02*
X49095000Y-75405000D01*
D19*
X54250000Y-71400000D02*
X51800000Y-71400000D01*
D18*
X51000000Y-72200000D02*
X51800000Y-71400000D01*
D19*
X53400000Y-78400000D02*
X49600000Y-78400000D01*
D18*
X49100000Y-77900000D02*
X46450000Y-77900000D01*
X51000000Y-73500000D02*
X51000000Y-72200000D01*
D19*
X57200000Y-74600000D02*
X53400000Y-78400000D01*
D18*
X49095000Y-75405000D02*
X51000000Y-73500000D01*
D19*
X57200000Y-72600000D02*
X57000000Y-72400000D01*
X57200000Y-74600000D02*
X57200000Y-72600000D01*
D18*
X49600000Y-78400000D02*
X49100000Y-77900000D01*
D19*
X57000000Y-72400000D02*
X55250000Y-72400000D01*
X55250000Y-72400000D02*
X54250000Y-71400000D01*
D18*
%TO.N,USBR_P*%
X52306250Y-76193750D02*
X52306250Y-75550000D01*
X46700000Y-76900000D02*
X51600000Y-76900000D01*
X51600000Y-76900000D02*
X52306250Y-76193750D01*
%TO.N,USBR_N*%
X52400000Y-73700000D02*
X51900000Y-73700000D01*
X51000000Y-74600000D02*
X51000000Y-75900000D01*
X46700000Y-76400000D02*
X50500000Y-76400000D01*
X51900000Y-73700000D02*
X51000000Y-74600000D01*
X50500000Y-76400000D02*
X51000000Y-75900000D01*
%TD*%
%TA.AperFunction,Conductor*%
%TO.N,GND*%
G36*
X126985402Y-50202382D02*
G01*
X126989208Y-50203257D01*
X126999641Y-50205656D01*
X127007768Y-50203817D01*
X127007769Y-50203817D01*
X127007847Y-50203799D01*
X127028326Y-50202091D01*
X127127227Y-50207645D01*
X127309312Y-50217871D01*
X127317542Y-50218799D01*
X127555580Y-50259243D01*
X127618844Y-50269992D01*
X127626935Y-50271838D01*
X127920623Y-50356449D01*
X127928455Y-50359190D01*
X128210816Y-50476147D01*
X128218293Y-50479747D01*
X128468988Y-50618301D01*
X128485784Y-50627584D01*
X128492811Y-50632000D01*
X128742076Y-50808863D01*
X128748564Y-50814037D01*
X128962030Y-51004802D01*
X128976447Y-51017686D01*
X128982314Y-51023553D01*
X129185963Y-51251436D01*
X129191137Y-51257924D01*
X129368000Y-51507189D01*
X129372416Y-51514216D01*
X129520253Y-51781707D01*
X129523853Y-51789184D01*
X129640810Y-52071545D01*
X129643551Y-52079377D01*
X129728162Y-52373065D01*
X129730008Y-52381156D01*
X129778235Y-52664998D01*
X129781200Y-52682450D01*
X129782129Y-52690688D01*
X129797883Y-52971199D01*
X129796213Y-52990800D01*
X129796212Y-52991519D01*
X129794344Y-52999641D01*
X129796183Y-53007768D01*
X129796183Y-53007770D01*
X129797675Y-53014362D01*
X129799500Y-53030694D01*
X129799500Y-77968819D01*
X129797618Y-77985402D01*
X129794344Y-77999641D01*
X129796184Y-78007772D01*
X129796181Y-78009324D01*
X129797658Y-78028093D01*
X129784422Y-78230046D01*
X129783158Y-78239642D01*
X129774716Y-78282083D01*
X129739494Y-78459162D01*
X129739131Y-78460985D01*
X129736628Y-78470330D01*
X129664537Y-78682700D01*
X129664080Y-78684047D01*
X129660377Y-78692987D01*
X129617532Y-78779868D01*
X129560558Y-78895400D01*
X129555718Y-78903783D01*
X129430331Y-79091437D01*
X129424438Y-79099116D01*
X129275637Y-79268792D01*
X129268792Y-79275637D01*
X129099116Y-79424438D01*
X129091437Y-79430331D01*
X128903783Y-79555718D01*
X128895400Y-79560558D01*
X128802261Y-79606489D01*
X128730956Y-79641653D01*
X128692989Y-79660376D01*
X128684050Y-79664079D01*
X128470330Y-79736628D01*
X128460988Y-79739130D01*
X128360627Y-79759093D01*
X128239642Y-79783158D01*
X128230046Y-79784422D01*
X128028563Y-79797628D01*
X128011026Y-79796216D01*
X128008480Y-79796212D01*
X128000359Y-79794344D01*
X127992232Y-79796183D01*
X127992230Y-79796183D01*
X127985638Y-79797675D01*
X127969306Y-79799500D01*
X104707162Y-79799500D01*
X104659596Y-79782187D01*
X104634286Y-79738350D01*
X104643076Y-79688500D01*
X104661603Y-79667187D01*
X104694751Y-79641289D01*
X104699970Y-79636319D01*
X104829791Y-79485920D01*
X104833939Y-79480040D01*
X104932078Y-79307283D01*
X104935006Y-79300708D01*
X104997719Y-79112189D01*
X104999316Y-79105155D01*
X105010713Y-79014946D01*
X105008356Y-79004573D01*
X105004966Y-79002000D01*
X102939971Y-79002000D01*
X102929975Y-79005638D01*
X102927577Y-79009792D01*
X102931949Y-79061854D01*
X102933250Y-79068942D01*
X102988013Y-79259922D01*
X102990663Y-79266617D01*
X103081479Y-79443326D01*
X103085384Y-79449384D01*
X103208789Y-79605083D01*
X103213794Y-79610267D01*
X103282977Y-79669146D01*
X103307980Y-79713159D01*
X103298842Y-79762947D01*
X103259839Y-79795212D01*
X103235016Y-79799500D01*
X102167975Y-79799500D01*
X102120409Y-79782187D01*
X102095099Y-79738350D01*
X102103889Y-79688500D01*
X102122416Y-79667187D01*
X102155098Y-79641653D01*
X102157951Y-79639424D01*
X102182817Y-79610616D01*
X102290201Y-79486210D01*
X102290203Y-79486208D01*
X102292564Y-79483472D01*
X102294347Y-79480333D01*
X102294350Y-79480329D01*
X102352349Y-79378231D01*
X102394323Y-79304344D01*
X102402048Y-79281124D01*
X102458208Y-79112299D01*
X102459351Y-79108863D01*
X102459820Y-79105155D01*
X102484913Y-78906519D01*
X102484913Y-78906513D01*
X102485171Y-78904474D01*
X102485216Y-78901294D01*
X102485554Y-78877062D01*
X102485583Y-78875000D01*
X102485120Y-78870270D01*
X102471860Y-78735034D01*
X102929069Y-78735034D01*
X102931571Y-78745372D01*
X102935136Y-78748000D01*
X103829952Y-78748000D01*
X103839948Y-78744362D01*
X103843000Y-78739075D01*
X103843000Y-78734952D01*
X104097000Y-78734952D01*
X104100638Y-78744948D01*
X104105925Y-78748000D01*
X104999580Y-78748000D01*
X105009576Y-78744362D01*
X105011880Y-78740371D01*
X105005340Y-78673669D01*
X105003941Y-78666602D01*
X104946516Y-78476403D01*
X104943772Y-78469745D01*
X104850498Y-78294322D01*
X104846512Y-78288323D01*
X104720942Y-78134358D01*
X104715866Y-78129247D01*
X104562789Y-78002610D01*
X104556804Y-77998573D01*
X104382043Y-77904081D01*
X104375405Y-77901290D01*
X104185612Y-77842540D01*
X104178552Y-77841091D01*
X104109977Y-77833883D01*
X104099657Y-77836456D01*
X104097000Y-77840113D01*
X104097000Y-78734952D01*
X103843000Y-78734952D01*
X103843000Y-77845221D01*
X103839362Y-77835225D01*
X103835290Y-77832875D01*
X103775912Y-77838278D01*
X103768818Y-77839631D01*
X103578231Y-77895724D01*
X103571555Y-77898422D01*
X103395483Y-77990469D01*
X103389456Y-77994413D01*
X103234619Y-78118906D01*
X103229471Y-78123947D01*
X103101765Y-78276140D01*
X103097696Y-78282083D01*
X103001980Y-78456191D01*
X102999144Y-78462808D01*
X102939071Y-78652181D01*
X102937571Y-78659237D01*
X102929069Y-78735034D01*
X102471860Y-78735034D01*
X102465833Y-78673570D01*
X102465480Y-78669970D01*
X102405935Y-78472749D01*
X102392290Y-78447087D01*
X102385246Y-78396964D01*
X102405303Y-78360023D01*
X107092832Y-73672494D01*
X107097592Y-73668133D01*
X107114392Y-73654036D01*
X107128194Y-73642455D01*
X107148172Y-73607851D01*
X107151638Y-73602411D01*
X107170841Y-73574987D01*
X107170842Y-73574986D01*
X107174554Y-73569684D01*
X107176229Y-73563432D01*
X107178351Y-73558882D01*
X107180639Y-73553358D01*
X107182353Y-73548647D01*
X107185588Y-73543045D01*
X107186949Y-73535330D01*
X107191738Y-73508163D01*
X107192525Y-73503703D01*
X107193922Y-73497401D01*
X107204264Y-73458807D01*
X107203604Y-73451255D01*
X107200782Y-73419005D01*
X107200500Y-73412556D01*
X107200500Y-72800000D01*
X107694318Y-72800000D01*
X107694951Y-72804808D01*
X107712913Y-72941242D01*
X107714956Y-72956762D01*
X107775464Y-73102841D01*
X107778414Y-73106685D01*
X107778416Y-73106689D01*
X107843730Y-73191807D01*
X107871718Y-73228282D01*
X107875566Y-73231234D01*
X107877828Y-73233497D01*
X107899219Y-73279374D01*
X107899500Y-73285821D01*
X107899500Y-74788433D01*
X107901300Y-74793971D01*
X107901300Y-74793974D01*
X107907562Y-74813246D01*
X107910273Y-74824537D01*
X107914354Y-74850304D01*
X107917000Y-74855497D01*
X107926198Y-74873550D01*
X107930642Y-74884278D01*
X107938704Y-74909090D01*
X107942126Y-74913799D01*
X107942128Y-74913804D01*
X107954039Y-74930198D01*
X107960106Y-74940098D01*
X107969306Y-74958153D01*
X107971950Y-74963342D01*
X107994513Y-74985905D01*
X107994516Y-74985909D01*
X110952826Y-77944219D01*
X110974218Y-77990095D01*
X110974500Y-77996545D01*
X110974500Y-79319748D01*
X110986133Y-79378231D01*
X111030448Y-79444552D01*
X111036509Y-79448602D01*
X111083559Y-79480040D01*
X111096769Y-79488867D01*
X111141295Y-79497724D01*
X111151682Y-79499790D01*
X111151683Y-79499790D01*
X111155252Y-79500500D01*
X112894748Y-79500500D01*
X112898317Y-79499790D01*
X112898318Y-79499790D01*
X112908705Y-79497724D01*
X112953231Y-79488867D01*
X112966442Y-79480040D01*
X113013491Y-79448602D01*
X113019552Y-79444552D01*
X113063867Y-79378231D01*
X113075500Y-79319748D01*
X113075500Y-77580252D01*
X113074580Y-77575624D01*
X113071370Y-77559487D01*
X113063867Y-77521769D01*
X113059463Y-77515177D01*
X113023602Y-77461509D01*
X113019552Y-77455448D01*
X112953231Y-77411133D01*
X112908705Y-77402276D01*
X112898318Y-77400210D01*
X112898317Y-77400210D01*
X112894748Y-77399500D01*
X111571545Y-77399500D01*
X111523979Y-77382187D01*
X111519219Y-77377826D01*
X108722174Y-74580781D01*
X108700782Y-74534905D01*
X108700500Y-74528455D01*
X108700500Y-73393823D01*
X109994391Y-73393823D01*
X109995074Y-73399046D01*
X109995074Y-73399049D01*
X109996969Y-73413540D01*
X110012980Y-73535979D01*
X110070720Y-73667203D01*
X110074112Y-73671238D01*
X110159580Y-73772916D01*
X110159583Y-73772919D01*
X110162970Y-73776948D01*
X110175269Y-73785135D01*
X110277924Y-73853469D01*
X110277927Y-73853470D01*
X110282313Y-73856390D01*
X110419157Y-73899142D01*
X110424425Y-73899239D01*
X110424428Y-73899239D01*
X110484733Y-73900344D01*
X110562499Y-73901770D01*
X110567582Y-73900384D01*
X110567584Y-73900384D01*
X110695727Y-73865448D01*
X110695729Y-73865447D01*
X110700817Y-73864060D01*
X110794670Y-73806434D01*
X110818498Y-73791804D01*
X110818499Y-73791803D01*
X110822991Y-73789045D01*
X110881105Y-73724841D01*
X110925861Y-73701194D01*
X110935968Y-73700500D01*
X116607897Y-73700500D01*
X116655463Y-73717813D01*
X116680773Y-73761650D01*
X116674881Y-73805950D01*
X116643687Y-73872389D01*
X116643684Y-73872398D01*
X116641447Y-73877163D01*
X116640637Y-73882368D01*
X116640636Y-73882370D01*
X116631426Y-73941528D01*
X116619391Y-74018823D01*
X116620074Y-74024046D01*
X116620074Y-74024049D01*
X116623895Y-74053268D01*
X116637980Y-74160979D01*
X116695720Y-74292203D01*
X116707131Y-74305778D01*
X116784580Y-74397916D01*
X116784583Y-74397919D01*
X116787970Y-74401948D01*
X116792357Y-74404868D01*
X116902924Y-74478469D01*
X116902927Y-74478470D01*
X116907313Y-74481390D01*
X117044157Y-74524142D01*
X117049425Y-74524239D01*
X117049428Y-74524239D01*
X117109733Y-74525344D01*
X117187499Y-74526770D01*
X117192582Y-74525384D01*
X117192584Y-74525384D01*
X117320727Y-74490448D01*
X117320729Y-74490447D01*
X117325817Y-74489060D01*
X117426636Y-74427157D01*
X117443498Y-74416804D01*
X117443499Y-74416803D01*
X117447991Y-74414045D01*
X117460849Y-74399839D01*
X117505605Y-74376193D01*
X117515711Y-74375500D01*
X120829713Y-74375500D01*
X120845288Y-74377158D01*
X120858261Y-74379951D01*
X120864336Y-74379232D01*
X120864337Y-74379232D01*
X120891533Y-74376013D01*
X120900231Y-74375500D01*
X120904115Y-74375500D01*
X120907129Y-74374998D01*
X120907133Y-74374998D01*
X120922701Y-74372407D01*
X120926151Y-74371916D01*
X120968065Y-74366955D01*
X120968066Y-74366955D01*
X120974138Y-74366236D01*
X120979650Y-74363589D01*
X120980787Y-74363259D01*
X120981595Y-74363075D01*
X120982180Y-74362890D01*
X120982932Y-74362582D01*
X120984071Y-74362192D01*
X120990103Y-74361188D01*
X121013324Y-74348659D01*
X121032645Y-74338234D01*
X121035751Y-74336652D01*
X121075125Y-74317745D01*
X121075135Y-74317738D01*
X121079326Y-74315726D01*
X121083274Y-74312408D01*
X121084227Y-74311455D01*
X121087690Y-74308532D01*
X121092794Y-74305778D01*
X121127140Y-74268623D01*
X121129154Y-74266528D01*
X127872908Y-67522774D01*
X127918784Y-67501382D01*
X127926590Y-67501112D01*
X127942670Y-67501406D01*
X127962499Y-67501770D01*
X127967581Y-67500385D01*
X127967585Y-67500384D01*
X128095727Y-67465448D01*
X128095729Y-67465447D01*
X128100817Y-67464060D01*
X128206211Y-67399348D01*
X128218498Y-67391804D01*
X128218499Y-67391803D01*
X128222991Y-67389045D01*
X128319200Y-67282754D01*
X128381710Y-67153733D01*
X128405496Y-67012354D01*
X128405647Y-67000000D01*
X128398796Y-66952163D01*
X128386070Y-66863297D01*
X128386070Y-66863296D01*
X128385323Y-66858082D01*
X128325984Y-66727572D01*
X128251597Y-66641242D01*
X128235840Y-66622955D01*
X128235839Y-66622954D01*
X128232400Y-66618963D01*
X128227981Y-66616099D01*
X128227979Y-66616097D01*
X128188068Y-66590228D01*
X128112095Y-66540985D01*
X128045306Y-66521011D01*
X128004695Y-66490796D01*
X127993007Y-66441545D01*
X128015711Y-66396303D01*
X128047045Y-66378720D01*
X128095727Y-66365448D01*
X128095729Y-66365447D01*
X128100817Y-66364060D01*
X128222991Y-66289045D01*
X128319200Y-66182754D01*
X128381710Y-66053733D01*
X128405496Y-65912354D01*
X128405647Y-65900000D01*
X128398796Y-65852163D01*
X128386070Y-65763297D01*
X128386070Y-65763296D01*
X128385323Y-65758082D01*
X128325984Y-65627572D01*
X128269925Y-65562512D01*
X128235840Y-65522955D01*
X128235839Y-65522954D01*
X128232400Y-65518963D01*
X128227981Y-65516099D01*
X128227979Y-65516097D01*
X128188068Y-65490228D01*
X128112095Y-65440985D01*
X127997851Y-65406819D01*
X127979792Y-65401418D01*
X127979791Y-65401418D01*
X127974739Y-65399907D01*
X127901103Y-65399457D01*
X127836646Y-65399063D01*
X127836645Y-65399063D01*
X127831376Y-65399031D01*
X127693529Y-65438428D01*
X127572280Y-65514930D01*
X127531611Y-65560979D01*
X127483964Y-65614930D01*
X127477377Y-65622388D01*
X127416447Y-65752163D01*
X127415637Y-65757368D01*
X127415636Y-65757370D01*
X127408017Y-65806308D01*
X127394391Y-65893823D01*
X127395074Y-65899047D01*
X127395074Y-65899048D01*
X127399704Y-65934452D01*
X127388705Y-65983862D01*
X127378655Y-65996373D01*
X120297203Y-73077826D01*
X120251327Y-73099218D01*
X120244877Y-73099500D01*
X110935714Y-73099500D01*
X110888148Y-73082187D01*
X110879654Y-73073804D01*
X110835840Y-73022955D01*
X110835839Y-73022954D01*
X110832400Y-73018963D01*
X110827981Y-73016099D01*
X110827979Y-73016097D01*
X110788068Y-72990228D01*
X110712095Y-72940985D01*
X110608168Y-72909904D01*
X110579792Y-72901418D01*
X110579791Y-72901418D01*
X110574739Y-72899907D01*
X110501103Y-72899457D01*
X110436646Y-72899063D01*
X110436645Y-72899063D01*
X110431376Y-72899031D01*
X110293529Y-72938428D01*
X110172280Y-73014930D01*
X110126114Y-73067203D01*
X110096708Y-73100500D01*
X110077377Y-73122388D01*
X110016447Y-73252163D01*
X110015637Y-73257368D01*
X110015636Y-73257370D01*
X110009117Y-73299239D01*
X109994391Y-73393823D01*
X108700500Y-73393823D01*
X108700500Y-73285821D01*
X108717813Y-73238255D01*
X108722172Y-73233497D01*
X108724434Y-73231234D01*
X108728282Y-73228282D01*
X108756270Y-73191807D01*
X108821584Y-73106689D01*
X108821586Y-73106685D01*
X108824536Y-73102841D01*
X108885044Y-72956762D01*
X108887088Y-72941242D01*
X108905049Y-72804808D01*
X108905682Y-72800000D01*
X108902116Y-72772916D01*
X108885677Y-72648043D01*
X108885676Y-72648040D01*
X108885044Y-72643238D01*
X108824536Y-72497159D01*
X108821586Y-72493315D01*
X108821584Y-72493311D01*
X108731237Y-72375569D01*
X108728282Y-72371718D01*
X108724431Y-72368763D01*
X108606689Y-72278416D01*
X108606685Y-72278414D01*
X108602841Y-72275464D01*
X108456762Y-72214956D01*
X108451960Y-72214324D01*
X108451957Y-72214323D01*
X108304808Y-72194951D01*
X108300000Y-72194318D01*
X108295192Y-72194951D01*
X108148043Y-72214323D01*
X108148040Y-72214324D01*
X108143238Y-72214956D01*
X107997159Y-72275464D01*
X107993315Y-72278414D01*
X107993311Y-72278416D01*
X107875569Y-72368763D01*
X107871718Y-72371718D01*
X107868763Y-72375569D01*
X107778416Y-72493311D01*
X107778414Y-72493315D01*
X107775464Y-72497159D01*
X107714956Y-72643238D01*
X107714324Y-72648040D01*
X107714323Y-72648043D01*
X107697884Y-72772916D01*
X107694318Y-72800000D01*
X107200500Y-72800000D01*
X107200500Y-65839790D01*
X107219637Y-65790131D01*
X107284530Y-65718437D01*
X107294200Y-65707754D01*
X107356710Y-65578733D01*
X107380496Y-65437354D01*
X107380647Y-65425000D01*
X107374184Y-65379868D01*
X107361070Y-65288297D01*
X107361070Y-65288296D01*
X107360323Y-65283082D01*
X107349546Y-65259378D01*
X107303166Y-65157371D01*
X107300984Y-65152572D01*
X107207400Y-65043963D01*
X107202981Y-65041099D01*
X107202979Y-65041097D01*
X107140345Y-65000500D01*
X107087095Y-64965985D01*
X106954959Y-64926468D01*
X106954792Y-64926418D01*
X106954791Y-64926418D01*
X106949739Y-64924907D01*
X106876103Y-64924457D01*
X106811646Y-64924063D01*
X106811645Y-64924063D01*
X106806376Y-64924031D01*
X106668529Y-64963428D01*
X106547280Y-65039930D01*
X106542911Y-65044877D01*
X106458193Y-65140803D01*
X106452377Y-65147388D01*
X106391447Y-65277163D01*
X106369391Y-65418823D01*
X106370074Y-65424046D01*
X106370074Y-65424049D01*
X106373210Y-65448029D01*
X106387980Y-65560979D01*
X106445720Y-65692203D01*
X106500499Y-65757370D01*
X106532146Y-65795019D01*
X106549500Y-65842635D01*
X106549500Y-73264522D01*
X106532187Y-73312088D01*
X106527826Y-73316848D01*
X101945379Y-77899295D01*
X101899503Y-77920687D01*
X101857857Y-77912063D01*
X101842238Y-77903618D01*
X101839055Y-77901897D01*
X101835605Y-77900829D01*
X101835600Y-77900827D01*
X101677085Y-77851759D01*
X101642254Y-77840977D01*
X101437369Y-77819443D01*
X101433765Y-77819771D01*
X101433764Y-77819771D01*
X101433215Y-77819821D01*
X101232203Y-77838114D01*
X101185841Y-77851759D01*
X101038043Y-77895258D01*
X101038039Y-77895260D01*
X101034572Y-77896280D01*
X100953813Y-77938500D01*
X100855209Y-77990049D01*
X100855206Y-77990051D01*
X100852002Y-77991726D01*
X100849184Y-77993992D01*
X100849182Y-77993993D01*
X100694266Y-78118548D01*
X100694263Y-78118551D01*
X100691447Y-78120815D01*
X100689121Y-78123587D01*
X100689119Y-78123589D01*
X100561351Y-78275856D01*
X100561348Y-78275860D01*
X100559024Y-78278630D01*
X100459776Y-78459162D01*
X100458164Y-78464245D01*
X100399305Y-78649793D01*
X100397484Y-78655532D01*
X100397081Y-78659123D01*
X100397081Y-78659124D01*
X100395722Y-78671238D01*
X100374520Y-78860262D01*
X100374823Y-78863871D01*
X100374823Y-78863873D01*
X100387509Y-79014946D01*
X100391759Y-79065553D01*
X100448544Y-79263586D01*
X100450196Y-79266800D01*
X100450197Y-79266803D01*
X100540917Y-79443326D01*
X100542712Y-79446818D01*
X100670677Y-79608270D01*
X100673430Y-79610613D01*
X100673433Y-79610616D01*
X100742206Y-79669146D01*
X100767209Y-79713159D01*
X100758071Y-79762947D01*
X100719068Y-79795212D01*
X100694245Y-79799500D01*
X99627975Y-79799500D01*
X99580409Y-79782187D01*
X99555099Y-79738350D01*
X99563889Y-79688500D01*
X99582416Y-79667187D01*
X99615098Y-79641653D01*
X99617951Y-79639424D01*
X99642817Y-79610616D01*
X99750201Y-79486210D01*
X99750203Y-79486208D01*
X99752564Y-79483472D01*
X99754347Y-79480333D01*
X99754350Y-79480329D01*
X99812349Y-79378231D01*
X99854323Y-79304344D01*
X99862048Y-79281124D01*
X99918208Y-79112299D01*
X99919351Y-79108863D01*
X99919820Y-79105155D01*
X99944913Y-78906519D01*
X99944913Y-78906513D01*
X99945171Y-78904474D01*
X99945216Y-78901294D01*
X99945554Y-78877062D01*
X99945583Y-78875000D01*
X99945120Y-78870270D01*
X99925833Y-78673570D01*
X99925480Y-78669970D01*
X99865935Y-78472749D01*
X99852290Y-78447087D01*
X99845246Y-78396964D01*
X99865303Y-78360023D01*
X105892832Y-72332494D01*
X105897592Y-72328133D01*
X105921899Y-72307737D01*
X105928194Y-72302455D01*
X105948172Y-72267851D01*
X105951638Y-72262411D01*
X105970841Y-72234987D01*
X105970842Y-72234986D01*
X105974554Y-72229684D01*
X105976229Y-72223432D01*
X105978351Y-72218882D01*
X105980639Y-72213358D01*
X105982353Y-72208647D01*
X105985588Y-72203045D01*
X105989416Y-72181337D01*
X105992524Y-72163706D01*
X105993922Y-72157401D01*
X106002588Y-72125060D01*
X106004264Y-72118807D01*
X106001114Y-72082798D01*
X106000782Y-72079009D01*
X106000500Y-72072559D01*
X106000500Y-67514790D01*
X106019637Y-67465131D01*
X106046822Y-67435097D01*
X106094200Y-67382754D01*
X106156710Y-67253733D01*
X106180496Y-67112354D01*
X106180647Y-67100000D01*
X106165921Y-66997172D01*
X106161070Y-66963297D01*
X106161070Y-66963296D01*
X106160323Y-66958082D01*
X106100984Y-66827572D01*
X106014818Y-66727572D01*
X106010840Y-66722955D01*
X106010839Y-66722954D01*
X106007400Y-66718963D01*
X106002981Y-66716099D01*
X106002979Y-66716097D01*
X105963068Y-66690228D01*
X105887095Y-66640985D01*
X105783168Y-66609904D01*
X105754792Y-66601418D01*
X105754791Y-66601418D01*
X105749739Y-66599907D01*
X105676103Y-66599457D01*
X105611646Y-66599063D01*
X105611645Y-66599063D01*
X105606376Y-66599031D01*
X105468529Y-66638428D01*
X105347280Y-66714930D01*
X105252377Y-66822388D01*
X105191447Y-66952163D01*
X105169391Y-67093823D01*
X105170074Y-67099046D01*
X105170074Y-67099049D01*
X105174896Y-67135925D01*
X105187980Y-67235979D01*
X105245720Y-67367203D01*
X105331683Y-67469468D01*
X105332146Y-67470019D01*
X105349500Y-67517635D01*
X105349500Y-71924522D01*
X105332187Y-71972088D01*
X105327826Y-71976848D01*
X99405379Y-77899295D01*
X99359503Y-77920687D01*
X99317857Y-77912063D01*
X99302238Y-77903618D01*
X99299055Y-77901897D01*
X99295605Y-77900829D01*
X99295600Y-77900827D01*
X99137085Y-77851759D01*
X99102254Y-77840977D01*
X98897369Y-77819443D01*
X98893765Y-77819771D01*
X98893764Y-77819771D01*
X98893215Y-77819821D01*
X98692203Y-77838114D01*
X98645841Y-77851759D01*
X98498043Y-77895258D01*
X98498039Y-77895260D01*
X98494572Y-77896280D01*
X98413813Y-77938500D01*
X98315209Y-77990049D01*
X98315206Y-77990051D01*
X98312002Y-77991726D01*
X98309184Y-77993992D01*
X98309182Y-77993993D01*
X98154266Y-78118548D01*
X98154263Y-78118551D01*
X98151447Y-78120815D01*
X98149121Y-78123587D01*
X98149119Y-78123589D01*
X98021351Y-78275856D01*
X98021348Y-78275860D01*
X98019024Y-78278630D01*
X97919776Y-78459162D01*
X97918164Y-78464245D01*
X97859305Y-78649793D01*
X97857484Y-78655532D01*
X97857081Y-78659123D01*
X97857081Y-78659124D01*
X97855722Y-78671238D01*
X97834520Y-78860262D01*
X97834823Y-78863871D01*
X97834823Y-78863873D01*
X97847509Y-79014946D01*
X97851759Y-79065553D01*
X97908544Y-79263586D01*
X97910196Y-79266800D01*
X97910197Y-79266803D01*
X98000917Y-79443326D01*
X98002712Y-79446818D01*
X98130677Y-79608270D01*
X98133430Y-79610613D01*
X98133433Y-79610616D01*
X98202206Y-79669146D01*
X98227209Y-79713159D01*
X98218071Y-79762947D01*
X98179068Y-79795212D01*
X98154245Y-79799500D01*
X97474500Y-79799500D01*
X97426934Y-79782187D01*
X97401624Y-79738350D01*
X97400500Y-79725500D01*
X97400500Y-78005252D01*
X97399172Y-77998573D01*
X97392306Y-77964060D01*
X97388867Y-77946769D01*
X97384344Y-77939999D01*
X97348602Y-77886509D01*
X97344552Y-77880448D01*
X97287820Y-77842540D01*
X97284294Y-77840184D01*
X97284293Y-77840184D01*
X97278231Y-77836133D01*
X97231442Y-77826826D01*
X97223318Y-77825210D01*
X97223317Y-77825210D01*
X97219748Y-77824500D01*
X95480252Y-77824500D01*
X95476683Y-77825210D01*
X95476682Y-77825210D01*
X95468558Y-77826826D01*
X95421769Y-77836133D01*
X95415707Y-77840184D01*
X95415706Y-77840184D01*
X95412180Y-77842540D01*
X95355448Y-77880448D01*
X95351398Y-77886509D01*
X95315657Y-77939999D01*
X95311133Y-77946769D01*
X95307694Y-77964060D01*
X95300829Y-77998573D01*
X95299500Y-78005252D01*
X95299500Y-79725500D01*
X95282187Y-79773066D01*
X95238350Y-79798376D01*
X95225500Y-79799500D01*
X78573429Y-79799500D01*
X78525863Y-79782187D01*
X78500553Y-79738350D01*
X78499785Y-79718252D01*
X78500000Y-79716067D01*
X78500000Y-78990048D01*
X78496362Y-78980052D01*
X78491075Y-78977000D01*
X76413048Y-78977000D01*
X76403052Y-78980638D01*
X76400000Y-78985925D01*
X76400000Y-79716067D01*
X76400215Y-79718252D01*
X76400000Y-79719091D01*
X76400000Y-79719698D01*
X76399844Y-79719698D01*
X76387644Y-79767286D01*
X76346497Y-79796767D01*
X76326571Y-79799500D01*
X61286622Y-79799500D01*
X61239056Y-79782187D01*
X61213746Y-79738350D01*
X61222536Y-79688500D01*
X61232896Y-79674613D01*
X61241251Y-79665793D01*
X61244398Y-79660376D01*
X61305187Y-79555718D01*
X61328599Y-79515412D01*
X61379010Y-79348969D01*
X61381554Y-79307962D01*
X61389512Y-79179687D01*
X61389512Y-79179684D01*
X61389778Y-79175393D01*
X61361323Y-79009792D01*
X61361055Y-79008231D01*
X61361054Y-79008229D01*
X61360327Y-79003996D01*
X61352638Y-78985925D01*
X61293917Y-78847923D01*
X61293915Y-78847920D01*
X61292235Y-78843971D01*
X61242912Y-78776948D01*
X61191703Y-78707362D01*
X61191701Y-78707360D01*
X61189157Y-78703903D01*
X61181490Y-78697389D01*
X61059897Y-78594089D01*
X61056620Y-78591305D01*
X60901735Y-78512217D01*
X60732810Y-78470881D01*
X60721833Y-78470200D01*
X60596453Y-78470200D01*
X60594328Y-78470448D01*
X60594324Y-78470448D01*
X60471532Y-78484764D01*
X60471531Y-78484764D01*
X60467261Y-78485262D01*
X60463220Y-78486729D01*
X60463219Y-78486729D01*
X60307834Y-78543131D01*
X60307831Y-78543132D01*
X60303788Y-78544600D01*
X60158350Y-78639953D01*
X60038749Y-78766207D01*
X60036593Y-78769918D01*
X60036592Y-78769920D01*
X59989605Y-78850815D01*
X59951401Y-78916588D01*
X59900990Y-79083031D01*
X59900724Y-79087316D01*
X59900724Y-79087317D01*
X59890489Y-79252311D01*
X59890222Y-79256607D01*
X59901685Y-79323318D01*
X59911121Y-79378231D01*
X59919673Y-79428004D01*
X59921355Y-79431957D01*
X59976305Y-79561096D01*
X59987765Y-79588029D01*
X60046487Y-79667824D01*
X60056654Y-79681639D01*
X60070903Y-79730211D01*
X60050597Y-79776579D01*
X60005237Y-79799046D01*
X59997053Y-79799500D01*
X47645525Y-79799500D01*
X47597959Y-79782187D01*
X47572649Y-79738350D01*
X47581439Y-79688500D01*
X47593199Y-79673174D01*
X47598241Y-79668132D01*
X47634348Y-79614094D01*
X47639818Y-79600890D01*
X47649290Y-79553268D01*
X47650000Y-79546058D01*
X47650000Y-79543048D01*
X47646362Y-79533052D01*
X47641075Y-79530000D01*
X45399000Y-79530000D01*
X45351434Y-79512687D01*
X45326124Y-79468850D01*
X45325000Y-79456000D01*
X45325000Y-79354000D01*
X45342313Y-79306434D01*
X45386150Y-79281124D01*
X45399000Y-79280000D01*
X47636952Y-79280000D01*
X47646948Y-79276362D01*
X47650000Y-79271075D01*
X47650000Y-79263942D01*
X47649290Y-79256732D01*
X47639818Y-79209113D01*
X47631557Y-79189168D01*
X47632847Y-79188634D01*
X47622756Y-79147388D01*
X47632311Y-79121142D01*
X47632029Y-79121025D01*
X47634704Y-79114568D01*
X47634788Y-79114336D01*
X47634819Y-79114290D01*
X47634820Y-79114288D01*
X47638867Y-79108231D01*
X47644342Y-79080710D01*
X47649790Y-79053318D01*
X47649790Y-79053317D01*
X47650500Y-79049748D01*
X47650500Y-78760252D01*
X47638867Y-78701769D01*
X47634816Y-78695706D01*
X47632028Y-78688976D01*
X47633220Y-78688482D01*
X47623056Y-78646942D01*
X47632429Y-78621190D01*
X47632028Y-78621024D01*
X47634816Y-78614294D01*
X47638867Y-78608231D01*
X47650500Y-78549748D01*
X47650500Y-78274500D01*
X47667813Y-78226934D01*
X47711650Y-78201624D01*
X47724500Y-78200500D01*
X48944877Y-78200500D01*
X48992443Y-78217813D01*
X48997203Y-78222174D01*
X49077847Y-78302818D01*
X49099239Y-78348694D01*
X49098640Y-78366526D01*
X49095231Y-78388428D01*
X49094391Y-78393823D01*
X49095074Y-78399046D01*
X49095074Y-78399049D01*
X49101513Y-78448286D01*
X49112980Y-78535979D01*
X49170720Y-78667203D01*
X49174112Y-78671238D01*
X49259580Y-78772916D01*
X49259583Y-78772919D01*
X49262970Y-78776948D01*
X49300437Y-78801888D01*
X49377924Y-78853469D01*
X49377927Y-78853470D01*
X49382313Y-78856390D01*
X49519157Y-78899142D01*
X49524425Y-78899239D01*
X49524428Y-78899239D01*
X49584733Y-78900344D01*
X49662499Y-78901770D01*
X49667582Y-78900384D01*
X49667584Y-78900384D01*
X49795727Y-78865448D01*
X49795729Y-78865447D01*
X49800817Y-78864060D01*
X49877177Y-78817175D01*
X49918498Y-78791804D01*
X49918499Y-78791803D01*
X49922991Y-78789045D01*
X49935849Y-78774839D01*
X49980605Y-78751193D01*
X49990711Y-78750500D01*
X53354713Y-78750500D01*
X53370288Y-78752158D01*
X53383261Y-78754951D01*
X53389336Y-78754232D01*
X53389337Y-78754232D01*
X53416533Y-78751013D01*
X53425231Y-78750500D01*
X53429115Y-78750500D01*
X53432129Y-78749998D01*
X53432133Y-78749998D01*
X53447701Y-78747407D01*
X53451151Y-78746916D01*
X53493065Y-78741955D01*
X53493066Y-78741955D01*
X53499138Y-78741236D01*
X53504650Y-78738589D01*
X53505787Y-78738259D01*
X53506595Y-78738075D01*
X53507180Y-78737890D01*
X53507932Y-78737582D01*
X53509071Y-78737192D01*
X53515103Y-78736188D01*
X53539545Y-78723000D01*
X53557645Y-78713234D01*
X53560751Y-78711652D01*
X53600125Y-78692745D01*
X53600135Y-78692738D01*
X53604326Y-78690726D01*
X53608274Y-78687408D01*
X53609227Y-78686455D01*
X53612690Y-78683532D01*
X53617794Y-78680778D01*
X53652140Y-78643623D01*
X53654154Y-78641528D01*
X54055075Y-78240607D01*
X54810222Y-78240607D01*
X54817300Y-78281800D01*
X54837089Y-78396964D01*
X54839673Y-78412004D01*
X54841355Y-78415957D01*
X54896094Y-78544600D01*
X54907765Y-78572029D01*
X54923999Y-78594089D01*
X55004813Y-78703903D01*
X55010843Y-78712097D01*
X55014114Y-78714876D01*
X55014116Y-78714878D01*
X55107666Y-78794354D01*
X55143380Y-78824695D01*
X55298265Y-78903783D01*
X55467190Y-78945119D01*
X55478167Y-78945800D01*
X55603547Y-78945800D01*
X55605672Y-78945552D01*
X55605676Y-78945552D01*
X55728468Y-78931236D01*
X55728469Y-78931236D01*
X55732739Y-78930738D01*
X55760388Y-78920702D01*
X55892166Y-78872869D01*
X55892169Y-78872868D01*
X55896212Y-78871400D01*
X55938274Y-78843823D01*
X56344391Y-78843823D01*
X56345074Y-78849046D01*
X56345074Y-78849049D01*
X56351505Y-78898226D01*
X56362980Y-78985979D01*
X56420720Y-79117203D01*
X56444569Y-79145574D01*
X56509580Y-79222916D01*
X56509583Y-79222919D01*
X56512970Y-79226948D01*
X56517357Y-79229868D01*
X56627924Y-79303469D01*
X56627927Y-79303470D01*
X56632313Y-79306390D01*
X56769157Y-79349142D01*
X56774425Y-79349239D01*
X56774428Y-79349239D01*
X56834733Y-79350344D01*
X56912499Y-79351770D01*
X56917582Y-79350384D01*
X56917584Y-79350384D01*
X57045727Y-79315448D01*
X57045729Y-79315447D01*
X57050817Y-79314060D01*
X57113395Y-79275637D01*
X57168498Y-79241804D01*
X57168499Y-79241803D01*
X57172991Y-79239045D01*
X57269200Y-79132754D01*
X57331710Y-79003733D01*
X57355496Y-78862354D01*
X57355647Y-78850000D01*
X57354784Y-78843971D01*
X57344525Y-78772335D01*
X57354920Y-78722795D01*
X57365452Y-78709519D01*
X57533026Y-78541945D01*
X57578902Y-78520553D01*
X57627797Y-78533654D01*
X57656831Y-78575118D01*
X57652336Y-78625721D01*
X57618687Y-78697389D01*
X57618684Y-78697398D01*
X57616447Y-78702163D01*
X57615638Y-78707362D01*
X57615636Y-78707370D01*
X57607403Y-78760252D01*
X57594391Y-78843823D01*
X57595074Y-78849046D01*
X57595074Y-78849049D01*
X57601505Y-78898226D01*
X57612980Y-78985979D01*
X57670720Y-79117203D01*
X57694569Y-79145574D01*
X57759580Y-79222916D01*
X57759583Y-79222919D01*
X57762970Y-79226948D01*
X57767357Y-79229868D01*
X57877924Y-79303469D01*
X57877927Y-79303470D01*
X57882313Y-79306390D01*
X58019157Y-79349142D01*
X58024425Y-79349239D01*
X58024428Y-79349239D01*
X58084733Y-79350344D01*
X58162499Y-79351770D01*
X58167582Y-79350384D01*
X58167584Y-79350384D01*
X58295727Y-79315448D01*
X58295729Y-79315447D01*
X58300817Y-79314060D01*
X58363395Y-79275637D01*
X58418498Y-79241804D01*
X58418499Y-79241803D01*
X58422991Y-79239045D01*
X58519200Y-79132754D01*
X58581710Y-79003733D01*
X58605496Y-78862354D01*
X58605647Y-78850000D01*
X58595871Y-78781734D01*
X58586070Y-78713297D01*
X58586070Y-78713296D01*
X58585323Y-78708082D01*
X58582159Y-78701122D01*
X58528166Y-78582371D01*
X58525984Y-78577572D01*
X58432400Y-78468963D01*
X58427973Y-78466093D01*
X58425854Y-78464245D01*
X58401391Y-78419930D01*
X58400500Y-78408481D01*
X58400500Y-78355123D01*
X58417813Y-78307557D01*
X58422174Y-78302797D01*
X59790929Y-76934042D01*
X59836805Y-76912650D01*
X59885700Y-76925751D01*
X59914734Y-76967215D01*
X59914078Y-77007818D01*
X59900990Y-77051031D01*
X59900724Y-77055316D01*
X59900724Y-77055317D01*
X59891639Y-77201769D01*
X59890222Y-77224607D01*
X59919673Y-77396004D01*
X59921355Y-77399957D01*
X59980536Y-77539039D01*
X59987765Y-77556029D01*
X60011746Y-77588616D01*
X60087684Y-77691804D01*
X60090843Y-77696097D01*
X60094114Y-77698876D01*
X60094116Y-77698878D01*
X60213145Y-77800000D01*
X60223380Y-77808695D01*
X60378265Y-77887783D01*
X60547190Y-77929119D01*
X60558167Y-77929800D01*
X60683547Y-77929800D01*
X60685672Y-77929552D01*
X60685676Y-77929552D01*
X60808468Y-77915236D01*
X60808469Y-77915236D01*
X60812739Y-77914738D01*
X60819073Y-77912439D01*
X60972166Y-77856869D01*
X60972169Y-77856868D01*
X60976212Y-77855400D01*
X61121650Y-77760047D01*
X61241251Y-77633793D01*
X61258314Y-77604418D01*
X61303205Y-77527131D01*
X61328599Y-77483412D01*
X61379010Y-77316969D01*
X61384740Y-77224607D01*
X61389512Y-77147687D01*
X61389512Y-77147684D01*
X61389778Y-77143393D01*
X61374644Y-77055317D01*
X61361055Y-76976231D01*
X61361054Y-76976229D01*
X61360327Y-76971996D01*
X61329642Y-76899883D01*
X61293917Y-76815923D01*
X61293915Y-76815920D01*
X61292235Y-76811971D01*
X61257764Y-76765130D01*
X61243515Y-76716558D01*
X61263821Y-76670190D01*
X61309181Y-76647723D01*
X61358370Y-76659669D01*
X61369691Y-76668943D01*
X63474649Y-78773901D01*
X63478234Y-78778054D01*
X63480294Y-78782269D01*
X63516900Y-78816226D01*
X63518900Y-78818152D01*
X63532996Y-78832248D01*
X63535807Y-78834176D01*
X63538426Y-78836353D01*
X63538316Y-78836485D01*
X63541492Y-78839039D01*
X63556394Y-78852862D01*
X63562365Y-78858401D01*
X63575638Y-78863696D01*
X63590074Y-78871404D01*
X63601865Y-78879493D01*
X63624038Y-78884755D01*
X63629567Y-78886067D01*
X63639900Y-78889335D01*
X63661488Y-78897947D01*
X63666341Y-78899883D01*
X63672634Y-78900500D01*
X63681727Y-78900500D01*
X63698813Y-78902500D01*
X63704133Y-78903762D01*
X63704136Y-78903762D01*
X63710785Y-78905340D01*
X63717553Y-78904419D01*
X63717556Y-78904419D01*
X63741382Y-78901176D01*
X63751361Y-78900500D01*
X67445433Y-78900500D01*
X67450906Y-78900902D01*
X67455342Y-78902425D01*
X67462166Y-78902169D01*
X67462167Y-78902169D01*
X67505241Y-78900552D01*
X67508017Y-78900500D01*
X67527948Y-78900500D01*
X67531300Y-78899876D01*
X67534691Y-78899563D01*
X67534709Y-78899753D01*
X67538755Y-78899294D01*
X67567208Y-78898226D01*
X67573485Y-78895529D01*
X67573490Y-78895528D01*
X67580343Y-78892584D01*
X67596002Y-78887826D01*
X67603336Y-78886460D01*
X67610053Y-78885209D01*
X67615868Y-78881624D01*
X67615872Y-78881623D01*
X67634290Y-78870270D01*
X67643907Y-78865274D01*
X67665262Y-78856099D01*
X67665264Y-78856098D01*
X67670063Y-78854036D01*
X67674949Y-78850022D01*
X67681380Y-78843591D01*
X67694876Y-78832923D01*
X67699532Y-78830053D01*
X67705348Y-78826468D01*
X67724039Y-78801888D01*
X67730617Y-78794354D01*
X67815019Y-78709952D01*
X76400000Y-78709952D01*
X76403638Y-78719948D01*
X76408925Y-78723000D01*
X77309952Y-78723000D01*
X77319948Y-78719362D01*
X77323000Y-78714075D01*
X77323000Y-78709952D01*
X77577000Y-78709952D01*
X77580638Y-78719948D01*
X77585925Y-78723000D01*
X78486952Y-78723000D01*
X78496948Y-78719362D01*
X78500000Y-78714075D01*
X78500000Y-77983942D01*
X78499290Y-77976732D01*
X78489818Y-77929110D01*
X78484348Y-77915906D01*
X78448241Y-77861868D01*
X78438132Y-77851759D01*
X78384094Y-77815652D01*
X78370890Y-77810182D01*
X78323268Y-77800710D01*
X78316058Y-77800000D01*
X77590048Y-77800000D01*
X77580052Y-77803638D01*
X77577000Y-77808925D01*
X77577000Y-78709952D01*
X77323000Y-78709952D01*
X77323000Y-77813048D01*
X77319362Y-77803052D01*
X77314075Y-77800000D01*
X76583942Y-77800000D01*
X76576732Y-77800710D01*
X76529110Y-77810182D01*
X76515906Y-77815652D01*
X76461868Y-77851759D01*
X76451759Y-77861868D01*
X76415652Y-77915906D01*
X76410182Y-77929110D01*
X76400710Y-77976732D01*
X76400000Y-77983942D01*
X76400000Y-78709952D01*
X67815019Y-78709952D01*
X71303470Y-75221501D01*
X71349346Y-75200109D01*
X71357152Y-75199839D01*
X71412105Y-75200846D01*
X71462499Y-75201770D01*
X71467581Y-75200385D01*
X71467585Y-75200384D01*
X71595727Y-75165448D01*
X71595729Y-75165447D01*
X71600817Y-75164060D01*
X71697820Y-75104500D01*
X71718498Y-75091804D01*
X71718499Y-75091803D01*
X71722991Y-75089045D01*
X71819200Y-74982754D01*
X71881710Y-74853733D01*
X71905496Y-74712354D01*
X71905647Y-74700000D01*
X71894337Y-74621024D01*
X71886070Y-74563297D01*
X71886070Y-74563296D01*
X71885323Y-74558082D01*
X71877385Y-74540622D01*
X71828166Y-74432371D01*
X71825984Y-74427572D01*
X71739818Y-74327572D01*
X71735840Y-74322955D01*
X71735839Y-74322954D01*
X71732400Y-74318963D01*
X71727981Y-74316099D01*
X71727979Y-74316097D01*
X71654735Y-74268623D01*
X71612095Y-74240985D01*
X71504863Y-74208916D01*
X71479792Y-74201418D01*
X71479791Y-74201418D01*
X71474739Y-74199907D01*
X71401103Y-74199457D01*
X71336646Y-74199063D01*
X71336645Y-74199063D01*
X71331376Y-74199031D01*
X71193529Y-74238428D01*
X71072280Y-74314930D01*
X71029760Y-74363075D01*
X70982309Y-74416804D01*
X70977377Y-74422388D01*
X70916447Y-74552163D01*
X70915637Y-74557368D01*
X70915636Y-74557370D01*
X70909961Y-74593823D01*
X70894391Y-74693823D01*
X70895074Y-74699046D01*
X70895074Y-74699049D01*
X70899704Y-74734453D01*
X70888705Y-74783863D01*
X70878655Y-74796374D01*
X69777008Y-75898021D01*
X69731132Y-75919413D01*
X69682237Y-75906312D01*
X69653203Y-75864848D01*
X69650739Y-75848597D01*
X69650557Y-75843960D01*
X69650500Y-75841058D01*
X69650500Y-74124500D01*
X69667813Y-74076934D01*
X69711650Y-74051624D01*
X69724500Y-74050500D01*
X73589980Y-74050500D01*
X73605555Y-74052158D01*
X73610711Y-74053268D01*
X73618528Y-74054951D01*
X73624603Y-74054232D01*
X73624604Y-74054232D01*
X73651800Y-74051013D01*
X73660498Y-74050500D01*
X73664382Y-74050500D01*
X73667396Y-74049998D01*
X73667400Y-74049998D01*
X73682968Y-74047407D01*
X73686418Y-74046916D01*
X73728332Y-74041955D01*
X73728333Y-74041955D01*
X73734405Y-74041236D01*
X73739917Y-74038589D01*
X73741054Y-74038259D01*
X73741862Y-74038075D01*
X73742447Y-74037890D01*
X73743199Y-74037582D01*
X73744338Y-74037192D01*
X73750370Y-74036188D01*
X73778770Y-74020864D01*
X73792912Y-74013234D01*
X73796018Y-74011652D01*
X73835392Y-73992745D01*
X73835402Y-73992738D01*
X73839593Y-73990726D01*
X73843541Y-73987408D01*
X73844494Y-73986455D01*
X73847957Y-73983532D01*
X73853061Y-73980778D01*
X73887407Y-73943623D01*
X73889421Y-73941528D01*
X73948675Y-73882274D01*
X73994551Y-73860882D01*
X74002357Y-73860612D01*
X74018437Y-73860906D01*
X74038266Y-73861270D01*
X74043348Y-73859885D01*
X74043352Y-73859884D01*
X74171494Y-73824948D01*
X74171496Y-73824947D01*
X74176584Y-73823560D01*
X74245698Y-73781124D01*
X74294265Y-73751304D01*
X74294266Y-73751303D01*
X74298758Y-73748545D01*
X74394967Y-73642254D01*
X74457477Y-73513233D01*
X74481263Y-73371854D01*
X74481414Y-73359500D01*
X74480676Y-73354344D01*
X74477626Y-73333047D01*
X74488020Y-73283506D01*
X74527826Y-73252237D01*
X74581226Y-73255666D01*
X74582313Y-73256390D01*
X74587343Y-73257961D01*
X74587344Y-73257962D01*
X74643523Y-73275513D01*
X74719157Y-73299142D01*
X74724425Y-73299239D01*
X74724428Y-73299239D01*
X74784733Y-73300344D01*
X74862499Y-73301770D01*
X74867582Y-73300384D01*
X74867584Y-73300384D01*
X74995727Y-73265448D01*
X74995729Y-73265447D01*
X75000817Y-73264060D01*
X75065358Y-73224432D01*
X75118498Y-73191804D01*
X75118499Y-73191803D01*
X75122991Y-73189045D01*
X75219200Y-73082754D01*
X75281710Y-72953733D01*
X75305496Y-72812354D01*
X75305647Y-72800000D01*
X75298851Y-72752544D01*
X75286070Y-72663297D01*
X75286070Y-72663296D01*
X75285323Y-72658082D01*
X75225984Y-72527572D01*
X75170636Y-72463338D01*
X75152702Y-72416003D01*
X75169391Y-72368214D01*
X75212893Y-72342333D01*
X75226696Y-72341034D01*
X77885411Y-72341034D01*
X77932977Y-72358347D01*
X77937737Y-72362708D01*
X83048930Y-77473901D01*
X83052515Y-77478054D01*
X83054575Y-77482269D01*
X83079618Y-77505500D01*
X83091181Y-77516226D01*
X83093181Y-77518152D01*
X83107277Y-77532248D01*
X83110088Y-77534176D01*
X83112707Y-77536353D01*
X83112597Y-77536485D01*
X83115773Y-77539039D01*
X83130895Y-77553066D01*
X83136646Y-77558401D01*
X83142988Y-77560931D01*
X83142994Y-77560935D01*
X83149923Y-77563699D01*
X83164359Y-77571407D01*
X83170042Y-77575305D01*
X83176146Y-77579492D01*
X83182796Y-77581070D01*
X83182798Y-77581071D01*
X83203840Y-77586064D01*
X83214176Y-77589332D01*
X83240622Y-77599883D01*
X83246915Y-77600500D01*
X83256012Y-77600500D01*
X83273099Y-77602500D01*
X83278415Y-77603762D01*
X83278417Y-77603762D01*
X83285066Y-77605340D01*
X83315663Y-77601176D01*
X83325642Y-77600500D01*
X90264241Y-77600500D01*
X90311807Y-77617813D01*
X90320887Y-77626884D01*
X90359580Y-77672916D01*
X90359583Y-77672919D01*
X90362970Y-77676948D01*
X90381143Y-77689045D01*
X90477924Y-77753469D01*
X90477927Y-77753470D01*
X90482313Y-77756390D01*
X90619157Y-77799142D01*
X90624425Y-77799239D01*
X90624428Y-77799239D01*
X90684733Y-77800344D01*
X90762499Y-77801770D01*
X90767582Y-77800384D01*
X90767584Y-77800384D01*
X90895727Y-77765448D01*
X90895729Y-77765447D01*
X90900817Y-77764060D01*
X91004335Y-77700500D01*
X91018498Y-77691804D01*
X91018499Y-77691803D01*
X91022991Y-77689045D01*
X91119200Y-77582754D01*
X91181710Y-77453733D01*
X91205496Y-77312354D01*
X91205647Y-77300000D01*
X91189097Y-77184437D01*
X91199492Y-77134897D01*
X91239299Y-77103629D01*
X91263706Y-77099959D01*
X91297672Y-77100581D01*
X91362499Y-77101770D01*
X91367582Y-77100384D01*
X91367584Y-77100384D01*
X91495727Y-77065448D01*
X91495729Y-77065447D01*
X91500817Y-77064060D01*
X91592416Y-77007818D01*
X91618498Y-76991804D01*
X91618499Y-76991803D01*
X91622991Y-76989045D01*
X91719200Y-76882754D01*
X91781710Y-76753733D01*
X91805496Y-76612354D01*
X91805647Y-76600000D01*
X91785323Y-76458082D01*
X91759180Y-76400582D01*
X91728166Y-76332371D01*
X91725984Y-76327572D01*
X91639466Y-76227163D01*
X91635840Y-76222955D01*
X91635839Y-76222954D01*
X91632400Y-76218963D01*
X91627981Y-76216099D01*
X91627979Y-76216097D01*
X91582564Y-76186661D01*
X91512095Y-76140985D01*
X91382263Y-76102157D01*
X91379792Y-76101418D01*
X91379791Y-76101418D01*
X91374739Y-76099907D01*
X91301103Y-76099457D01*
X91236646Y-76099063D01*
X91236645Y-76099063D01*
X91231376Y-76099031D01*
X91093529Y-76138428D01*
X90972280Y-76214930D01*
X90950983Y-76239045D01*
X90919683Y-76274485D01*
X90875219Y-76298678D01*
X90864217Y-76299500D01*
X90135063Y-76299500D01*
X90087497Y-76282187D01*
X90062187Y-76238350D01*
X90070977Y-76188500D01*
X90080200Y-76175841D01*
X90103274Y-76150349D01*
X90119200Y-76132754D01*
X90181710Y-76003733D01*
X90205496Y-75862354D01*
X90205647Y-75850000D01*
X90192794Y-75760252D01*
X90186070Y-75713297D01*
X90186070Y-75713296D01*
X90185323Y-75708082D01*
X90177766Y-75691460D01*
X90128166Y-75582371D01*
X90125984Y-75577572D01*
X90064416Y-75506119D01*
X90035840Y-75472955D01*
X90035839Y-75472954D01*
X90032400Y-75468963D01*
X90027981Y-75466099D01*
X90027979Y-75466097D01*
X89988068Y-75440228D01*
X89912095Y-75390985D01*
X89808168Y-75359904D01*
X89779792Y-75351418D01*
X89779791Y-75351418D01*
X89774739Y-75349907D01*
X89701103Y-75349457D01*
X89636646Y-75349063D01*
X89636645Y-75349063D01*
X89631376Y-75349031D01*
X89493529Y-75388428D01*
X89372280Y-75464930D01*
X89365193Y-75472955D01*
X89319683Y-75524485D01*
X89275219Y-75548678D01*
X89264217Y-75549500D01*
X84705124Y-75549500D01*
X84657558Y-75532187D01*
X84652798Y-75527826D01*
X80101070Y-70976099D01*
X80097485Y-70971946D01*
X80095425Y-70967731D01*
X80058818Y-70933773D01*
X80056819Y-70931848D01*
X80042723Y-70917752D01*
X80039912Y-70915824D01*
X80037293Y-70913647D01*
X80037403Y-70913515D01*
X80034227Y-70910961D01*
X80018364Y-70896246D01*
X80018363Y-70896245D01*
X80013354Y-70891599D01*
X80007012Y-70889069D01*
X80007006Y-70889065D01*
X80000077Y-70886301D01*
X79985641Y-70878593D01*
X79979493Y-70874376D01*
X79979492Y-70874375D01*
X79973854Y-70870508D01*
X79967204Y-70868930D01*
X79967202Y-70868929D01*
X79946160Y-70863936D01*
X79935824Y-70860668D01*
X79930959Y-70858727D01*
X79909378Y-70850117D01*
X79903085Y-70849500D01*
X79893988Y-70849500D01*
X79876901Y-70847500D01*
X79871585Y-70846238D01*
X79871583Y-70846238D01*
X79864934Y-70844660D01*
X79844066Y-70847500D01*
X79834337Y-70848824D01*
X79824358Y-70849500D01*
X71513535Y-70849500D01*
X71465969Y-70832187D01*
X71461209Y-70827826D01*
X70559482Y-69926099D01*
X70555897Y-69921946D01*
X70553837Y-69917731D01*
X70522058Y-69888251D01*
X70498959Y-69843211D01*
X70510217Y-69793860D01*
X70550563Y-69763290D01*
X70572384Y-69760000D01*
X73164241Y-69760000D01*
X73211807Y-69777313D01*
X73220887Y-69786384D01*
X73259580Y-69832416D01*
X73259583Y-69832419D01*
X73262970Y-69836448D01*
X73289784Y-69854297D01*
X73377924Y-69912969D01*
X73377927Y-69912970D01*
X73382313Y-69915890D01*
X73519157Y-69958642D01*
X73524425Y-69958739D01*
X73524428Y-69958739D01*
X73584733Y-69959844D01*
X73662499Y-69961270D01*
X73667582Y-69959884D01*
X73667584Y-69959884D01*
X73795727Y-69924948D01*
X73795729Y-69924947D01*
X73800817Y-69923560D01*
X73870537Y-69880752D01*
X73918498Y-69851304D01*
X73918499Y-69851303D01*
X73922991Y-69848545D01*
X74019200Y-69742254D01*
X74081710Y-69613233D01*
X74105496Y-69471854D01*
X74105647Y-69459500D01*
X74094802Y-69383774D01*
X74086070Y-69322797D01*
X74086070Y-69322796D01*
X74085323Y-69317582D01*
X74054170Y-69249063D01*
X74028166Y-69191871D01*
X74025984Y-69187072D01*
X73939464Y-69086661D01*
X73935840Y-69082455D01*
X73935839Y-69082454D01*
X73932400Y-69078463D01*
X73927981Y-69075599D01*
X73927979Y-69075597D01*
X73873059Y-69040000D01*
X73812095Y-69000485D01*
X73686349Y-68962879D01*
X73679792Y-68960918D01*
X73679791Y-68960918D01*
X73674739Y-68959407D01*
X73601103Y-68958957D01*
X73536646Y-68958563D01*
X73536645Y-68958563D01*
X73531376Y-68958531D01*
X73393529Y-68997928D01*
X73272280Y-69074430D01*
X73238127Y-69113101D01*
X73219683Y-69133985D01*
X73175219Y-69158178D01*
X73164217Y-69159000D01*
X68514067Y-69159000D01*
X68508594Y-69158598D01*
X68504158Y-69157075D01*
X68497334Y-69157331D01*
X68497333Y-69157331D01*
X68454259Y-69158948D01*
X68451483Y-69159000D01*
X68431552Y-69159000D01*
X68428200Y-69159624D01*
X68424809Y-69159937D01*
X68424791Y-69159747D01*
X68420745Y-69160206D01*
X68392292Y-69161274D01*
X68386015Y-69163971D01*
X68386010Y-69163972D01*
X68379157Y-69166916D01*
X68363498Y-69171674D01*
X68349447Y-69174291D01*
X68343632Y-69177876D01*
X68343628Y-69177877D01*
X68325210Y-69189230D01*
X68315593Y-69194226D01*
X68294238Y-69203401D01*
X68294236Y-69203402D01*
X68289437Y-69205464D01*
X68284551Y-69209478D01*
X68278120Y-69215909D01*
X68264631Y-69226572D01*
X68264068Y-69226919D01*
X68214494Y-69237143D01*
X68169945Y-69213109D01*
X68151983Y-69174417D01*
X68149910Y-69159937D01*
X68138856Y-69082754D01*
X68136070Y-69063297D01*
X68136070Y-69063296D01*
X68135323Y-69058082D01*
X68083969Y-68945133D01*
X68078166Y-68932371D01*
X68075984Y-68927572D01*
X67982400Y-68818963D01*
X67977981Y-68816099D01*
X67977979Y-68816097D01*
X67890237Y-68759226D01*
X67862095Y-68740985D01*
X67752195Y-68708118D01*
X67729792Y-68701418D01*
X67729791Y-68701418D01*
X67724739Y-68699907D01*
X67651103Y-68699457D01*
X67586646Y-68699063D01*
X67586645Y-68699063D01*
X67581376Y-68699031D01*
X67443529Y-68738428D01*
X67322280Y-68814930D01*
X67275211Y-68868226D01*
X67230747Y-68892419D01*
X67181135Y-68882370D01*
X67149590Y-68842783D01*
X67146771Y-68806964D01*
X67158546Y-68736979D01*
X67169018Y-68674733D01*
X67169169Y-68662379D01*
X67167023Y-68647395D01*
X67149592Y-68525676D01*
X67149592Y-68525675D01*
X67148845Y-68520461D01*
X67089506Y-68389951D01*
X67031216Y-68322303D01*
X67013283Y-68274969D01*
X67029972Y-68227180D01*
X67073474Y-68201299D01*
X67087277Y-68200000D01*
X68554246Y-68200000D01*
X68557638Y-68199845D01*
X68624594Y-68193692D01*
X68632248Y-68192159D01*
X68785916Y-68144003D01*
X68793995Y-68140355D01*
X68931285Y-68057208D01*
X68938248Y-68051749D01*
X69051749Y-67938248D01*
X69057208Y-67931285D01*
X69140355Y-67793995D01*
X69144003Y-67785916D01*
X69192159Y-67632248D01*
X69193692Y-67624594D01*
X69199845Y-67557638D01*
X69200000Y-67554246D01*
X69200000Y-67140048D01*
X69196362Y-67130052D01*
X69191075Y-67127000D01*
X66140048Y-67127000D01*
X66130052Y-67130638D01*
X66127000Y-67135925D01*
X66127000Y-68186952D01*
X66130638Y-68196948D01*
X66135925Y-68200000D01*
X66239997Y-68200000D01*
X66287563Y-68217313D01*
X66312873Y-68261150D01*
X66304083Y-68311000D01*
X66295467Y-68322980D01*
X66283204Y-68336866D01*
X66238739Y-68361057D01*
X66227739Y-68361879D01*
X64066215Y-68361879D01*
X64025966Y-68349976D01*
X64016521Y-68343854D01*
X64016522Y-68343854D01*
X64012095Y-68340985D01*
X64009859Y-68340316D01*
X63974807Y-68305508D01*
X63970219Y-68255098D01*
X63999107Y-68213532D01*
X64041764Y-68200000D01*
X65859952Y-68200000D01*
X65869948Y-68196362D01*
X65873000Y-68191075D01*
X65873000Y-67140048D01*
X65869362Y-67130052D01*
X65864075Y-67127000D01*
X62813048Y-67127000D01*
X62803052Y-67130638D01*
X62800000Y-67135925D01*
X62800000Y-67554246D01*
X62800155Y-67557638D01*
X62806308Y-67624594D01*
X62807841Y-67632248D01*
X62855997Y-67785916D01*
X62859645Y-67793995D01*
X62942792Y-67931285D01*
X62948251Y-67938248D01*
X63061752Y-68051749D01*
X63068715Y-68057208D01*
X63206005Y-68140355D01*
X63214084Y-68144003D01*
X63367752Y-68192159D01*
X63375406Y-68193692D01*
X63442362Y-68199845D01*
X63445754Y-68200000D01*
X63558164Y-68200000D01*
X63605730Y-68217313D01*
X63631040Y-68261150D01*
X63622250Y-68311000D01*
X63592917Y-68337458D01*
X63593529Y-68338428D01*
X63472280Y-68414930D01*
X63468792Y-68418880D01*
X63396489Y-68500748D01*
X63377377Y-68522388D01*
X63316447Y-68652163D01*
X63315637Y-68657368D01*
X63315636Y-68657370D01*
X63307735Y-68708118D01*
X63294391Y-68793823D01*
X63295074Y-68799046D01*
X63295074Y-68799049D01*
X63297678Y-68818963D01*
X63312980Y-68935979D01*
X63370720Y-69067203D01*
X63449795Y-69161274D01*
X63462970Y-69176948D01*
X63461088Y-69178530D01*
X63480614Y-69214941D01*
X63470266Y-69264491D01*
X63430488Y-69295796D01*
X63407371Y-69299500D01*
X63295011Y-69299500D01*
X63265080Y-69292919D01*
X63262095Y-69290985D01*
X63146417Y-69256390D01*
X63129792Y-69251418D01*
X63129791Y-69251418D01*
X63124739Y-69249907D01*
X63051103Y-69249457D01*
X62986646Y-69249063D01*
X62986645Y-69249063D01*
X62981376Y-69249031D01*
X62843529Y-69288428D01*
X62839069Y-69291242D01*
X62831851Y-69295796D01*
X62722280Y-69364930D01*
X62717459Y-69370389D01*
X62636232Y-69462362D01*
X62627377Y-69472388D01*
X62566447Y-69602163D01*
X62544391Y-69743823D01*
X62545074Y-69749046D01*
X62545074Y-69749049D01*
X62548291Y-69773648D01*
X62562980Y-69885979D01*
X62620720Y-70017203D01*
X62624112Y-70021238D01*
X62709580Y-70122916D01*
X62709583Y-70122919D01*
X62712970Y-70126948D01*
X62717357Y-70129868D01*
X62827924Y-70203469D01*
X62827927Y-70203470D01*
X62832313Y-70206390D01*
X62969157Y-70249142D01*
X62974425Y-70249239D01*
X62974428Y-70249239D01*
X63034733Y-70250344D01*
X63112499Y-70251770D01*
X63117582Y-70250384D01*
X63117584Y-70250384D01*
X63245727Y-70215448D01*
X63245729Y-70215447D01*
X63250817Y-70214060D01*
X63372991Y-70139045D01*
X63469200Y-70032754D01*
X63474739Y-70021321D01*
X63511060Y-69986063D01*
X63561546Y-69982401D01*
X63602575Y-70012047D01*
X63614453Y-70064971D01*
X63594391Y-70193823D01*
X63595074Y-70199046D01*
X63595074Y-70199049D01*
X63596814Y-70212354D01*
X63612980Y-70335979D01*
X63670720Y-70467203D01*
X63674112Y-70471238D01*
X63759580Y-70572916D01*
X63759583Y-70572919D01*
X63762970Y-70576948D01*
X63767357Y-70579868D01*
X63877924Y-70653469D01*
X63877927Y-70653470D01*
X63882313Y-70656390D01*
X64019157Y-70699142D01*
X64024425Y-70699239D01*
X64024428Y-70699239D01*
X64147212Y-70701490D01*
X64198181Y-70723152D01*
X64998929Y-71523900D01*
X65002514Y-71528053D01*
X65004574Y-71532268D01*
X65041180Y-71566225D01*
X65043180Y-71568151D01*
X65057276Y-71582247D01*
X65060087Y-71584175D01*
X65062706Y-71586352D01*
X65062596Y-71586484D01*
X65065772Y-71589038D01*
X65086645Y-71608400D01*
X65092987Y-71610930D01*
X65092993Y-71610934D01*
X65099922Y-71613698D01*
X65114358Y-71621406D01*
X65120158Y-71625384D01*
X65126145Y-71629491D01*
X65132795Y-71631069D01*
X65132797Y-71631070D01*
X65153839Y-71636063D01*
X65164175Y-71639331D01*
X65190621Y-71649882D01*
X65196914Y-71650499D01*
X65206011Y-71650499D01*
X65223098Y-71652499D01*
X65228414Y-71653761D01*
X65228416Y-71653761D01*
X65235065Y-71655339D01*
X65265662Y-71651175D01*
X65275641Y-71650499D01*
X67764242Y-71650499D01*
X67811808Y-71667812D01*
X67820888Y-71676883D01*
X67859581Y-71722915D01*
X67859584Y-71722918D01*
X67862971Y-71726947D01*
X67898354Y-71750500D01*
X67977925Y-71803468D01*
X67977928Y-71803469D01*
X67982314Y-71806389D01*
X68119158Y-71849141D01*
X68124426Y-71849238D01*
X68124429Y-71849238D01*
X68184734Y-71850343D01*
X68262500Y-71851769D01*
X68267583Y-71850383D01*
X68267585Y-71850383D01*
X68395728Y-71815447D01*
X68395730Y-71815446D01*
X68400818Y-71814059D01*
X68405161Y-71811393D01*
X68455617Y-71808397D01*
X68496254Y-71838578D01*
X68507983Y-71887819D01*
X68506964Y-71892694D01*
X68506981Y-71892697D01*
X68484925Y-72034357D01*
X68485608Y-72039580D01*
X68485608Y-72039583D01*
X68490764Y-72079009D01*
X68503514Y-72176513D01*
X68561254Y-72307737D01*
X68564646Y-72311772D01*
X68650114Y-72413450D01*
X68650117Y-72413453D01*
X68653504Y-72417482D01*
X68657891Y-72420402D01*
X68768458Y-72494003D01*
X68768461Y-72494004D01*
X68772847Y-72496924D01*
X68909691Y-72539676D01*
X68914959Y-72539773D01*
X68914962Y-72539773D01*
X68975267Y-72540878D01*
X69053033Y-72542304D01*
X69058116Y-72540918D01*
X69058118Y-72540918D01*
X69186261Y-72505982D01*
X69186263Y-72505981D01*
X69191351Y-72504594D01*
X69258543Y-72463338D01*
X69309032Y-72432338D01*
X69309033Y-72432337D01*
X69313525Y-72429579D01*
X69371639Y-72365375D01*
X69416395Y-72341728D01*
X69426502Y-72341034D01*
X69523460Y-72341034D01*
X69571026Y-72358347D01*
X69596336Y-72402184D01*
X69587546Y-72452034D01*
X69578926Y-72464019D01*
X69531060Y-72518218D01*
X69527377Y-72522388D01*
X69466447Y-72652163D01*
X69444391Y-72793823D01*
X69445074Y-72799046D01*
X69445074Y-72799049D01*
X69445573Y-72802862D01*
X69462980Y-72935979D01*
X69520720Y-73067203D01*
X69524112Y-73071238D01*
X69559533Y-73113377D01*
X69576887Y-73160929D01*
X69559616Y-73208510D01*
X69515800Y-73233858D01*
X69481684Y-73231890D01*
X69379792Y-73201418D01*
X69379791Y-73201418D01*
X69374739Y-73199907D01*
X69301103Y-73199457D01*
X69236646Y-73199063D01*
X69236645Y-73199063D01*
X69231376Y-73199031D01*
X69093529Y-73238428D01*
X68972280Y-73314930D01*
X68968793Y-73318878D01*
X68968791Y-73318880D01*
X68963840Y-73324486D01*
X68919375Y-73348678D01*
X68908375Y-73349500D01*
X64875834Y-73349500D01*
X64828268Y-73332187D01*
X64823508Y-73327826D01*
X62404866Y-70909184D01*
X62395025Y-70896998D01*
X62391145Y-70890989D01*
X62391143Y-70890987D01*
X62387825Y-70885848D01*
X62361514Y-70865106D01*
X62355001Y-70859319D01*
X62352254Y-70856572D01*
X62349776Y-70854801D01*
X62349771Y-70854797D01*
X62336920Y-70845614D01*
X62334157Y-70843540D01*
X62296189Y-70813608D01*
X62290420Y-70811582D01*
X62289383Y-70811012D01*
X62288680Y-70810570D01*
X62288140Y-70810289D01*
X62287383Y-70809972D01*
X62286307Y-70809445D01*
X62281331Y-70805889D01*
X62235023Y-70792040D01*
X62231707Y-70790963D01*
X62224374Y-70788388D01*
X62186094Y-70774945D01*
X62180956Y-70774500D01*
X62179619Y-70774500D01*
X62175088Y-70774116D01*
X62169536Y-70772456D01*
X62163426Y-70772696D01*
X62163425Y-70772696D01*
X62118963Y-70774443D01*
X62116058Y-70774500D01*
X61917631Y-70774500D01*
X61870065Y-70757187D01*
X61861573Y-70748806D01*
X61857400Y-70743963D01*
X61846840Y-70737118D01*
X61791872Y-70701490D01*
X61737095Y-70665985D01*
X61633168Y-70634904D01*
X61604792Y-70626418D01*
X61604791Y-70626418D01*
X61599739Y-70624907D01*
X61526103Y-70624457D01*
X61461646Y-70624063D01*
X61461645Y-70624063D01*
X61456376Y-70624031D01*
X61318529Y-70663428D01*
X61197280Y-70739930D01*
X61152210Y-70790963D01*
X61108193Y-70840803D01*
X61102377Y-70847388D01*
X61041447Y-70977163D01*
X61040637Y-70982368D01*
X61040636Y-70982370D01*
X61034952Y-71018880D01*
X61019391Y-71118823D01*
X61020074Y-71124046D01*
X61020074Y-71124049D01*
X61020663Y-71128552D01*
X61037980Y-71260979D01*
X61095720Y-71392203D01*
X61099112Y-71396238D01*
X61184580Y-71497916D01*
X61184583Y-71497919D01*
X61187970Y-71501948D01*
X61210288Y-71516804D01*
X61302924Y-71578469D01*
X61302927Y-71578470D01*
X61307313Y-71581390D01*
X61444157Y-71624142D01*
X61449425Y-71624239D01*
X61449428Y-71624239D01*
X61509733Y-71625344D01*
X61587499Y-71626770D01*
X61592582Y-71625384D01*
X61592584Y-71625384D01*
X61720727Y-71590448D01*
X61720729Y-71590447D01*
X61725817Y-71589060D01*
X61805203Y-71540317D01*
X61843498Y-71516804D01*
X61843499Y-71516803D01*
X61847991Y-71514045D01*
X61860849Y-71499839D01*
X61905605Y-71476193D01*
X61915711Y-71475500D01*
X61949166Y-71475500D01*
X61996732Y-71492813D01*
X62001492Y-71497174D01*
X64420132Y-73915813D01*
X64429973Y-73927999D01*
X64433855Y-73934011D01*
X64437175Y-73939152D01*
X64441977Y-73942938D01*
X64441981Y-73942942D01*
X64463495Y-73959902D01*
X64470008Y-73965689D01*
X64472747Y-73968428D01*
X64475227Y-73970200D01*
X64475229Y-73970202D01*
X64488068Y-73979377D01*
X64490830Y-73981450D01*
X64528811Y-74011392D01*
X64534581Y-74013418D01*
X64535617Y-74013988D01*
X64536320Y-74014430D01*
X64536860Y-74014711D01*
X64537617Y-74015028D01*
X64538693Y-74015555D01*
X64543669Y-74019111D01*
X64549531Y-74020864D01*
X64589977Y-74032960D01*
X64593293Y-74034037D01*
X64600626Y-74036612D01*
X64638906Y-74050055D01*
X64644044Y-74050500D01*
X64645381Y-74050500D01*
X64649912Y-74050884D01*
X64655464Y-74052544D01*
X64661574Y-74052304D01*
X64661575Y-74052304D01*
X64706037Y-74050557D01*
X64708942Y-74050500D01*
X68875500Y-74050500D01*
X68923066Y-74067813D01*
X68948376Y-74111650D01*
X68949500Y-74124500D01*
X68949500Y-75674166D01*
X68932187Y-75721732D01*
X68927826Y-75726492D01*
X68801700Y-75852618D01*
X68755824Y-75874010D01*
X68748922Y-75874291D01*
X68711646Y-75874063D01*
X68711645Y-75874063D01*
X68706376Y-75874031D01*
X68568529Y-75913428D01*
X68447280Y-75989930D01*
X68410032Y-76032106D01*
X68359751Y-76089039D01*
X68352377Y-76097388D01*
X68291447Y-76227163D01*
X68290637Y-76232368D01*
X68290636Y-76232370D01*
X68286295Y-76260252D01*
X68269391Y-76368823D01*
X68270074Y-76374046D01*
X68270074Y-76374049D01*
X68274704Y-76409453D01*
X68263705Y-76458863D01*
X68253655Y-76471374D01*
X66806704Y-77918325D01*
X66760828Y-77939717D01*
X66754378Y-77939999D01*
X65309545Y-77939999D01*
X65261979Y-77922686D01*
X65236669Y-77878849D01*
X65242949Y-77833737D01*
X65281710Y-77753733D01*
X65305496Y-77612354D01*
X65305647Y-77600000D01*
X65295422Y-77528600D01*
X65286070Y-77463297D01*
X65286070Y-77463296D01*
X65285323Y-77458082D01*
X65255173Y-77391769D01*
X65228166Y-77332371D01*
X65225984Y-77327572D01*
X65132400Y-77218963D01*
X65127981Y-77216099D01*
X65127979Y-77216097D01*
X65080324Y-77185209D01*
X65012095Y-77140985D01*
X64964177Y-77126654D01*
X64933055Y-77108084D01*
X59652675Y-71827704D01*
X59631283Y-71781828D01*
X59638404Y-71743116D01*
X59681710Y-71653733D01*
X59705496Y-71512354D01*
X59705647Y-71500000D01*
X59690787Y-71396238D01*
X59686070Y-71363297D01*
X59686070Y-71363296D01*
X59685323Y-71358082D01*
X59643367Y-71265803D01*
X59628166Y-71232371D01*
X59625984Y-71227572D01*
X59541735Y-71129797D01*
X59535840Y-71122955D01*
X59535839Y-71122954D01*
X59532400Y-71118963D01*
X59527981Y-71116099D01*
X59527979Y-71116097D01*
X59480881Y-71085570D01*
X59412095Y-71040985D01*
X59283159Y-71002425D01*
X59279792Y-71001418D01*
X59279791Y-71001418D01*
X59274739Y-70999907D01*
X59201103Y-70999457D01*
X59136646Y-70999063D01*
X59136645Y-70999063D01*
X59131376Y-70999031D01*
X58993529Y-71038428D01*
X58872280Y-71114930D01*
X58835072Y-71157060D01*
X58808342Y-71187327D01*
X58777377Y-71222388D01*
X58716447Y-71352163D01*
X58694391Y-71493823D01*
X58695074Y-71499046D01*
X58695074Y-71499049D01*
X58699246Y-71530950D01*
X58712980Y-71635979D01*
X58770720Y-71767203D01*
X58782637Y-71781380D01*
X58859580Y-71872916D01*
X58859583Y-71872919D01*
X58862970Y-71876948D01*
X58902757Y-71903433D01*
X58924742Y-71926198D01*
X58929730Y-71934289D01*
X58934728Y-71943910D01*
X58945964Y-71970063D01*
X58949978Y-71974949D01*
X58956409Y-71981380D01*
X58967076Y-71994875D01*
X58973532Y-72005348D01*
X58978971Y-72009484D01*
X58998112Y-72024039D01*
X59005646Y-72030617D01*
X64315089Y-77340060D01*
X64336481Y-77385936D01*
X64329747Y-77423835D01*
X64316447Y-77452163D01*
X64294391Y-77593823D01*
X64295074Y-77599046D01*
X64295074Y-77599049D01*
X64311290Y-77723058D01*
X64312980Y-77735979D01*
X64315104Y-77740805D01*
X64316460Y-77745663D01*
X64312577Y-77796133D01*
X64277160Y-77832299D01*
X64226783Y-77837238D01*
X64192860Y-77817889D01*
X62051070Y-75676099D01*
X62047485Y-75671946D01*
X62045425Y-75667731D01*
X62008818Y-75633773D01*
X62006819Y-75631848D01*
X61992723Y-75617752D01*
X61989912Y-75615824D01*
X61987293Y-75613647D01*
X61987403Y-75613515D01*
X61984227Y-75610961D01*
X61968364Y-75596246D01*
X61968363Y-75596245D01*
X61963354Y-75591599D01*
X61957012Y-75589069D01*
X61957006Y-75589065D01*
X61950077Y-75586301D01*
X61935641Y-75578593D01*
X61929493Y-75574376D01*
X61929492Y-75574375D01*
X61923854Y-75570508D01*
X61917204Y-75568930D01*
X61917202Y-75568929D01*
X61896160Y-75563936D01*
X61885824Y-75560668D01*
X61877673Y-75557416D01*
X61859378Y-75550117D01*
X61853085Y-75549500D01*
X61843988Y-75549500D01*
X61826901Y-75547500D01*
X61821585Y-75546238D01*
X61821583Y-75546238D01*
X61814934Y-75544660D01*
X61794066Y-75547500D01*
X61784337Y-75548824D01*
X61774358Y-75549500D01*
X59854567Y-75549500D01*
X59849094Y-75549098D01*
X59844658Y-75547575D01*
X59837834Y-75547831D01*
X59837833Y-75547831D01*
X59794759Y-75549448D01*
X59791983Y-75549500D01*
X59772052Y-75549500D01*
X59768700Y-75550124D01*
X59765309Y-75550437D01*
X59765291Y-75550247D01*
X59761245Y-75550706D01*
X59732792Y-75551774D01*
X59726515Y-75554471D01*
X59726510Y-75554472D01*
X59719657Y-75557416D01*
X59703998Y-75562174D01*
X59689947Y-75564791D01*
X59684132Y-75568376D01*
X59684128Y-75568377D01*
X59665710Y-75579730D01*
X59656093Y-75584726D01*
X59634738Y-75593901D01*
X59634736Y-75593902D01*
X59629937Y-75595964D01*
X59625051Y-75599978D01*
X59618620Y-75606409D01*
X59605125Y-75617076D01*
X59594652Y-75623532D01*
X59590516Y-75628971D01*
X59575961Y-75648112D01*
X59569383Y-75655646D01*
X56897285Y-78327744D01*
X56851409Y-78349136D01*
X56844507Y-78349417D01*
X56839726Y-78349388D01*
X56786645Y-78349063D01*
X56786644Y-78349063D01*
X56781376Y-78349031D01*
X56643529Y-78388428D01*
X56522280Y-78464930D01*
X56480518Y-78512217D01*
X56450587Y-78546108D01*
X56427377Y-78572388D01*
X56366447Y-78702163D01*
X56365638Y-78707362D01*
X56365636Y-78707370D01*
X56357403Y-78760252D01*
X56344391Y-78843823D01*
X55938274Y-78843823D01*
X56041650Y-78776047D01*
X56161251Y-78649793D01*
X56177675Y-78621518D01*
X56230395Y-78530752D01*
X56248599Y-78499412D01*
X56299010Y-78332969D01*
X56299537Y-78324471D01*
X56309512Y-78163687D01*
X56309512Y-78163684D01*
X56309778Y-78159393D01*
X56286480Y-78023803D01*
X56281055Y-77992231D01*
X56281054Y-77992229D01*
X56280327Y-77987996D01*
X56212235Y-77827971D01*
X56167515Y-77767203D01*
X56111703Y-77691362D01*
X56111701Y-77691360D01*
X56109157Y-77687903D01*
X56099700Y-77679868D01*
X55979897Y-77578089D01*
X55976620Y-77575305D01*
X55821735Y-77496217D01*
X55652810Y-77454881D01*
X55641833Y-77454200D01*
X55516453Y-77454200D01*
X55514328Y-77454448D01*
X55514324Y-77454448D01*
X55391532Y-77468764D01*
X55391531Y-77468764D01*
X55387261Y-77469262D01*
X55383220Y-77470729D01*
X55383219Y-77470729D01*
X55227834Y-77527131D01*
X55227831Y-77527132D01*
X55223788Y-77528600D01*
X55078350Y-77623953D01*
X54958749Y-77750207D01*
X54956593Y-77753918D01*
X54956592Y-77753920D01*
X54905404Y-77842048D01*
X54871401Y-77900588D01*
X54820990Y-78067031D01*
X54820724Y-78071316D01*
X54820724Y-78071317D01*
X54811366Y-78222174D01*
X54810222Y-78240607D01*
X54055075Y-78240607D01*
X57172908Y-75122774D01*
X57218784Y-75101382D01*
X57226590Y-75101112D01*
X57242670Y-75101406D01*
X57262499Y-75101770D01*
X57267581Y-75100385D01*
X57267585Y-75100384D01*
X57395727Y-75065448D01*
X57395729Y-75065447D01*
X57400817Y-75064060D01*
X57461904Y-75026553D01*
X57518498Y-74991804D01*
X57518499Y-74991803D01*
X57522991Y-74989045D01*
X57619200Y-74882754D01*
X57681710Y-74753733D01*
X57705496Y-74612354D01*
X57705647Y-74600000D01*
X57698304Y-74548728D01*
X57686070Y-74463297D01*
X57686070Y-74463296D01*
X57685323Y-74458082D01*
X57662224Y-74407277D01*
X57628166Y-74332371D01*
X57625984Y-74327572D01*
X57573385Y-74266528D01*
X57568440Y-74260789D01*
X57550500Y-74212485D01*
X57550500Y-72645292D01*
X57552158Y-72629716D01*
X57553664Y-72622721D01*
X57554952Y-72616740D01*
X57551013Y-72583459D01*
X57550500Y-72574761D01*
X57550500Y-72570885D01*
X57547409Y-72552315D01*
X57546918Y-72548863D01*
X57544966Y-72532371D01*
X57541237Y-72500862D01*
X57538589Y-72495348D01*
X57538257Y-72494206D01*
X57538075Y-72493408D01*
X57537885Y-72492808D01*
X57537574Y-72492048D01*
X57537192Y-72490933D01*
X57536188Y-72484897D01*
X57514412Y-72444541D01*
X57505543Y-72408498D01*
X57505612Y-72402861D01*
X57505647Y-72400000D01*
X57499220Y-72355123D01*
X57486070Y-72263297D01*
X57486070Y-72263296D01*
X57485323Y-72258082D01*
X57464175Y-72211568D01*
X57428166Y-72132371D01*
X57425984Y-72127572D01*
X57353107Y-72042994D01*
X57335840Y-72022955D01*
X57335839Y-72022954D01*
X57332400Y-72018963D01*
X57327981Y-72016099D01*
X57327979Y-72016097D01*
X57283863Y-71987503D01*
X57212095Y-71940985D01*
X57086526Y-71903432D01*
X57079792Y-71901418D01*
X57079791Y-71901418D01*
X57074739Y-71899907D01*
X57001103Y-71899457D01*
X56936646Y-71899063D01*
X56936645Y-71899063D01*
X56931376Y-71899031D01*
X56793529Y-71938428D01*
X56672280Y-72014930D01*
X56668793Y-72018878D01*
X56668791Y-72018880D01*
X56663840Y-72024486D01*
X56619375Y-72048678D01*
X56608375Y-72049500D01*
X55425834Y-72049500D01*
X55378268Y-72032187D01*
X55373508Y-72027826D01*
X54529866Y-71184184D01*
X54520025Y-71171998D01*
X54516145Y-71165989D01*
X54516143Y-71165987D01*
X54512825Y-71160848D01*
X54486514Y-71140106D01*
X54480001Y-71134319D01*
X54477254Y-71131572D01*
X54474776Y-71129801D01*
X54474771Y-71129797D01*
X54461920Y-71120614D01*
X54459157Y-71118540D01*
X54421189Y-71088608D01*
X54415420Y-71086582D01*
X54414383Y-71086012D01*
X54413680Y-71085570D01*
X54413140Y-71085289D01*
X54412383Y-71084972D01*
X54411307Y-71084445D01*
X54406331Y-71080889D01*
X54360023Y-71067040D01*
X54356707Y-71065963D01*
X54349374Y-71063388D01*
X54311094Y-71049945D01*
X54305956Y-71049500D01*
X54304619Y-71049500D01*
X54300088Y-71049116D01*
X54294536Y-71047456D01*
X54288426Y-71047696D01*
X54288425Y-71047696D01*
X54243963Y-71049443D01*
X54241058Y-71049500D01*
X52192631Y-71049500D01*
X52145065Y-71032187D01*
X52136573Y-71023806D01*
X52132400Y-71018963D01*
X52121840Y-71012118D01*
X52075944Y-70982370D01*
X52012095Y-70940985D01*
X51887138Y-70903615D01*
X51879792Y-70901418D01*
X51879791Y-70901418D01*
X51874739Y-70899907D01*
X51801103Y-70899457D01*
X51736646Y-70899063D01*
X51736645Y-70899063D01*
X51731376Y-70899031D01*
X51593529Y-70938428D01*
X51472280Y-71014930D01*
X51427210Y-71065963D01*
X51383964Y-71114930D01*
X51377377Y-71122388D01*
X51316447Y-71252163D01*
X51294391Y-71393823D01*
X51295074Y-71399046D01*
X51295074Y-71399049D01*
X51299704Y-71434453D01*
X51288705Y-71483863D01*
X51278655Y-71496374D01*
X50826099Y-71948930D01*
X50821946Y-71952515D01*
X50817731Y-71954575D01*
X50797647Y-71976226D01*
X50783774Y-71991181D01*
X50781848Y-71993181D01*
X50767752Y-72007277D01*
X50765824Y-72010088D01*
X50763647Y-72012707D01*
X50763515Y-72012597D01*
X50760961Y-72015773D01*
X50747192Y-72030617D01*
X50741599Y-72036646D01*
X50739069Y-72042988D01*
X50739065Y-72042994D01*
X50736301Y-72049923D01*
X50728593Y-72064359D01*
X50724376Y-72070507D01*
X50720508Y-72076146D01*
X50718930Y-72082796D01*
X50718929Y-72082798D01*
X50713936Y-72103840D01*
X50710668Y-72114176D01*
X50700117Y-72140622D01*
X50699500Y-72146915D01*
X50699500Y-72156012D01*
X50697500Y-72173098D01*
X50694660Y-72185066D01*
X50697107Y-72203045D01*
X50698824Y-72215663D01*
X50699500Y-72225642D01*
X50699500Y-73344877D01*
X50682187Y-73392443D01*
X50677826Y-73397203D01*
X48992203Y-75082826D01*
X48946327Y-75104218D01*
X48939877Y-75104500D01*
X47724500Y-75104500D01*
X47676934Y-75087187D01*
X47651624Y-75043350D01*
X47650500Y-75030500D01*
X47650500Y-74760252D01*
X47638867Y-74701769D01*
X47634816Y-74695706D01*
X47632028Y-74688976D01*
X47633220Y-74688482D01*
X47623056Y-74646942D01*
X47632429Y-74621190D01*
X47632028Y-74621024D01*
X47634816Y-74614294D01*
X47638867Y-74608231D01*
X47650500Y-74549748D01*
X47650500Y-74260252D01*
X47646616Y-74240724D01*
X47640289Y-74208916D01*
X47640288Y-74208914D01*
X47638867Y-74201769D01*
X47634820Y-74195712D01*
X47634819Y-74195710D01*
X47634788Y-74195664D01*
X47634771Y-74195595D01*
X47632029Y-74188975D01*
X47633048Y-74188553D01*
X47622756Y-74146496D01*
X47632025Y-74121026D01*
X47631557Y-74120832D01*
X47639818Y-74100887D01*
X47649290Y-74053268D01*
X47650000Y-74046058D01*
X47650000Y-74043048D01*
X47646362Y-74033052D01*
X47641075Y-74030000D01*
X45399000Y-74030000D01*
X45351434Y-74012687D01*
X45326124Y-73968850D01*
X45325000Y-73956000D01*
X45325000Y-73854000D01*
X45342313Y-73806434D01*
X45386150Y-73781124D01*
X45399000Y-73780000D01*
X47636952Y-73780000D01*
X47646948Y-73776362D01*
X47650000Y-73771075D01*
X47650000Y-73763942D01*
X47649290Y-73756732D01*
X47639818Y-73709110D01*
X47634348Y-73695906D01*
X47598241Y-73641868D01*
X47593199Y-73636826D01*
X47571807Y-73590950D01*
X47584908Y-73542055D01*
X47626372Y-73513021D01*
X47645525Y-73510500D01*
X48468577Y-73510500D01*
X48485287Y-73512411D01*
X48499282Y-73515655D01*
X48500000Y-73515656D01*
X48504074Y-73514727D01*
X48506932Y-73514407D01*
X48509875Y-73514138D01*
X48742625Y-73497491D01*
X48869243Y-73469947D01*
X48977733Y-73446347D01*
X48977738Y-73446345D01*
X48980310Y-73445786D01*
X49006320Y-73436085D01*
X49205738Y-73361706D01*
X49208218Y-73360781D01*
X49210535Y-73359516D01*
X49210539Y-73359514D01*
X49419390Y-73245472D01*
X49419393Y-73245470D01*
X49421708Y-73244206D01*
X49616435Y-73098435D01*
X49788435Y-72926435D01*
X49934206Y-72731708D01*
X49935472Y-72729390D01*
X50049514Y-72520539D01*
X50049516Y-72520535D01*
X50050781Y-72518218D01*
X50078260Y-72444544D01*
X50134863Y-72292785D01*
X50134863Y-72292783D01*
X50135786Y-72290310D01*
X50138374Y-72278416D01*
X50166585Y-72148728D01*
X50187491Y-72052625D01*
X50204044Y-71821190D01*
X50204340Y-71818012D01*
X50204710Y-71814795D01*
X50205655Y-71810718D01*
X50205656Y-71810000D01*
X50202353Y-71795520D01*
X50200500Y-71779063D01*
X50200500Y-70041973D01*
X51892776Y-70041973D01*
X51894173Y-70047183D01*
X51895059Y-70047941D01*
X52094404Y-70194105D01*
X52099033Y-70196998D01*
X52317796Y-70312095D01*
X52322817Y-70314279D01*
X52556181Y-70395773D01*
X52561476Y-70397191D01*
X52804316Y-70443297D01*
X52809758Y-70443917D01*
X53056751Y-70453621D01*
X53062229Y-70453430D01*
X53307933Y-70426521D01*
X53313331Y-70425520D01*
X53552359Y-70362589D01*
X53557540Y-70360805D01*
X53784649Y-70263232D01*
X53789513Y-70260699D01*
X53999701Y-70130631D01*
X54004136Y-70127408D01*
X54099056Y-70047053D01*
X54101959Y-70041973D01*
X56892776Y-70041973D01*
X56894173Y-70047183D01*
X56895059Y-70047941D01*
X57094404Y-70194105D01*
X57099033Y-70196998D01*
X57317796Y-70312095D01*
X57322817Y-70314279D01*
X57556181Y-70395773D01*
X57561476Y-70397191D01*
X57804316Y-70443297D01*
X57809758Y-70443917D01*
X58056751Y-70453621D01*
X58062229Y-70453430D01*
X58307933Y-70426521D01*
X58313331Y-70425520D01*
X58552359Y-70362589D01*
X58557540Y-70360805D01*
X58784649Y-70263232D01*
X58789513Y-70260699D01*
X58999701Y-70130631D01*
X59004136Y-70127408D01*
X59099056Y-70047053D01*
X59104335Y-70037816D01*
X59103480Y-70033085D01*
X58009226Y-68938831D01*
X57999587Y-68934336D01*
X57993688Y-68935917D01*
X56897271Y-70032334D01*
X56892776Y-70041973D01*
X54101959Y-70041973D01*
X54104335Y-70037816D01*
X54103480Y-70033085D01*
X53009226Y-68938831D01*
X52999587Y-68934336D01*
X52993688Y-68935917D01*
X51897271Y-70032334D01*
X51892776Y-70041973D01*
X50200500Y-70041973D01*
X50200500Y-68708118D01*
X51295949Y-68708118D01*
X51307808Y-68955021D01*
X51308475Y-68960449D01*
X51356699Y-69202884D01*
X51358164Y-69208165D01*
X51441691Y-69440808D01*
X51443916Y-69445807D01*
X51560913Y-69663549D01*
X51563859Y-69668174D01*
X51700703Y-69851430D01*
X51709598Y-69857262D01*
X51713608Y-69856787D01*
X52811169Y-68759226D01*
X52815279Y-68750413D01*
X53184336Y-68750413D01*
X53185917Y-68756312D01*
X54279407Y-69849802D01*
X54289046Y-69854297D01*
X54293930Y-69852988D01*
X54359679Y-69778015D01*
X54362971Y-69773648D01*
X54496692Y-69565756D01*
X54499308Y-69560937D01*
X54600827Y-69335572D01*
X54602703Y-69330422D01*
X54669798Y-69092517D01*
X54670890Y-69087151D01*
X54702196Y-68841070D01*
X54702480Y-68837365D01*
X54704718Y-68751854D01*
X54704630Y-68748152D01*
X54701655Y-68708118D01*
X56295949Y-68708118D01*
X56307808Y-68955021D01*
X56308475Y-68960449D01*
X56356699Y-69202884D01*
X56358164Y-69208165D01*
X56441691Y-69440808D01*
X56443916Y-69445807D01*
X56560913Y-69663549D01*
X56563859Y-69668174D01*
X56700703Y-69851430D01*
X56709598Y-69857262D01*
X56713608Y-69856787D01*
X57811169Y-68759226D01*
X57815279Y-68750413D01*
X58184336Y-68750413D01*
X58185917Y-68756312D01*
X59279407Y-69849802D01*
X59289046Y-69854297D01*
X59293930Y-69852988D01*
X59359679Y-69778015D01*
X59362971Y-69773648D01*
X59496692Y-69565756D01*
X59499308Y-69560937D01*
X59600827Y-69335572D01*
X59602703Y-69330422D01*
X59669798Y-69092517D01*
X59670890Y-69087151D01*
X59702196Y-68841070D01*
X59702480Y-68837365D01*
X59704718Y-68751854D01*
X59704630Y-68748152D01*
X59686245Y-68500748D01*
X59685437Y-68495345D01*
X59630884Y-68254258D01*
X59629281Y-68249012D01*
X59539691Y-68018633D01*
X59537338Y-68013700D01*
X59414678Y-67799089D01*
X59411614Y-67794547D01*
X59297780Y-67650150D01*
X59288735Y-67644552D01*
X59284428Y-67645177D01*
X58188831Y-68740774D01*
X58184336Y-68750413D01*
X57815279Y-68750413D01*
X57815664Y-68749587D01*
X57814083Y-68743688D01*
X56720473Y-67650078D01*
X56710834Y-67645583D01*
X56706302Y-67646798D01*
X56613882Y-67757922D01*
X56610693Y-67762394D01*
X56482467Y-67973702D01*
X56479980Y-67978582D01*
X56384391Y-68206536D01*
X56382652Y-68211734D01*
X56321807Y-68451311D01*
X56320858Y-68456696D01*
X56296092Y-68702642D01*
X56295949Y-68708118D01*
X54701655Y-68708118D01*
X54686245Y-68500748D01*
X54685437Y-68495345D01*
X54630884Y-68254258D01*
X54629281Y-68249012D01*
X54539691Y-68018633D01*
X54537338Y-68013700D01*
X54414678Y-67799089D01*
X54411614Y-67794547D01*
X54297780Y-67650150D01*
X54288735Y-67644552D01*
X54284428Y-67645177D01*
X53188831Y-68740774D01*
X53184336Y-68750413D01*
X52815279Y-68750413D01*
X52815664Y-68749587D01*
X52814083Y-68743688D01*
X51720473Y-67650078D01*
X51710834Y-67645583D01*
X51706302Y-67646798D01*
X51613882Y-67757922D01*
X51610693Y-67762394D01*
X51482467Y-67973702D01*
X51479980Y-67978582D01*
X51384391Y-68206536D01*
X51382652Y-68211734D01*
X51321807Y-68451311D01*
X51320858Y-68456696D01*
X51296092Y-68702642D01*
X51295949Y-68708118D01*
X50200500Y-68708118D01*
X50200500Y-67461906D01*
X51895528Y-67461906D01*
X51896583Y-67466978D01*
X52990774Y-68561169D01*
X53000413Y-68565664D01*
X53006312Y-68564083D01*
X54100927Y-67469468D01*
X54104453Y-67461906D01*
X56895528Y-67461906D01*
X56896583Y-67466978D01*
X57990774Y-68561169D01*
X58000413Y-68565664D01*
X58006312Y-68564083D01*
X59100927Y-67469468D01*
X59105422Y-67459829D01*
X59103975Y-67454430D01*
X59074846Y-67427029D01*
X59070589Y-67423582D01*
X58870919Y-67285066D01*
X60094660Y-67285066D01*
X60095582Y-67291839D01*
X60098824Y-67315663D01*
X60099500Y-67325642D01*
X60099500Y-71545433D01*
X60099098Y-71550906D01*
X60097575Y-71555342D01*
X60097831Y-71562166D01*
X60097831Y-71562167D01*
X60099448Y-71605241D01*
X60099500Y-71608017D01*
X60099500Y-71627948D01*
X60100124Y-71631300D01*
X60100437Y-71634691D01*
X60100247Y-71634709D01*
X60100706Y-71638755D01*
X60101774Y-71667208D01*
X60104471Y-71673485D01*
X60104472Y-71673490D01*
X60107416Y-71680343D01*
X60112174Y-71696002D01*
X60114791Y-71710053D01*
X60118376Y-71715868D01*
X60118377Y-71715872D01*
X60129730Y-71734290D01*
X60134726Y-71743907D01*
X60137857Y-71751193D01*
X60145964Y-71770063D01*
X60149978Y-71774949D01*
X60156409Y-71781380D01*
X60167076Y-71794875D01*
X60173532Y-71805348D01*
X60178971Y-71809484D01*
X60198112Y-71824039D01*
X60205646Y-71830617D01*
X60677847Y-72302818D01*
X60699239Y-72348694D01*
X60698640Y-72366526D01*
X60695202Y-72388613D01*
X60694391Y-72393823D01*
X60695074Y-72399046D01*
X60695074Y-72399049D01*
X60702003Y-72452034D01*
X60712980Y-72535979D01*
X60770720Y-72667203D01*
X60782723Y-72681482D01*
X60859580Y-72772916D01*
X60859583Y-72772919D01*
X60862970Y-72776948D01*
X60881143Y-72789045D01*
X60977924Y-72853469D01*
X60977927Y-72853470D01*
X60982313Y-72856390D01*
X61119157Y-72899142D01*
X61124425Y-72899239D01*
X61124428Y-72899239D01*
X61184733Y-72900344D01*
X61262499Y-72901770D01*
X61267582Y-72900384D01*
X61267584Y-72900384D01*
X61395727Y-72865448D01*
X61395729Y-72865447D01*
X61400817Y-72864060D01*
X61485029Y-72812354D01*
X61518498Y-72791804D01*
X61518499Y-72791803D01*
X61522991Y-72789045D01*
X61619200Y-72682754D01*
X61681710Y-72553733D01*
X61705496Y-72412354D01*
X61705647Y-72400000D01*
X61699220Y-72355123D01*
X61686070Y-72263297D01*
X61686070Y-72263296D01*
X61685323Y-72258082D01*
X61664175Y-72211568D01*
X61628166Y-72132371D01*
X61625984Y-72127572D01*
X61553107Y-72042994D01*
X61535840Y-72022955D01*
X61535839Y-72022954D01*
X61532400Y-72018963D01*
X61527981Y-72016099D01*
X61527979Y-72016097D01*
X61483863Y-71987503D01*
X61412095Y-71940985D01*
X61286526Y-71903432D01*
X61279792Y-71901418D01*
X61279791Y-71901418D01*
X61274739Y-71899907D01*
X61224752Y-71899602D01*
X61154343Y-71899171D01*
X61106883Y-71881567D01*
X61102469Y-71877498D01*
X60722174Y-71497203D01*
X60700782Y-71451327D01*
X60700500Y-71444877D01*
X60700500Y-67455123D01*
X60717813Y-67407557D01*
X60722174Y-67402797D01*
X61265019Y-66859952D01*
X62800000Y-66859952D01*
X62803638Y-66869948D01*
X62808925Y-66873000D01*
X65859952Y-66873000D01*
X65869948Y-66869362D01*
X65873000Y-66864075D01*
X65873000Y-66859952D01*
X66127000Y-66859952D01*
X66130638Y-66869948D01*
X66135925Y-66873000D01*
X69186952Y-66873000D01*
X69196948Y-66869362D01*
X69200000Y-66864075D01*
X69200000Y-66445754D01*
X69199845Y-66442362D01*
X69193692Y-66375406D01*
X69192159Y-66367752D01*
X69144003Y-66214084D01*
X69140355Y-66206005D01*
X69057208Y-66068715D01*
X69051749Y-66061752D01*
X68938248Y-65948251D01*
X68931285Y-65942792D01*
X68793995Y-65859645D01*
X68785916Y-65855997D01*
X68632248Y-65807841D01*
X68624594Y-65806308D01*
X68557638Y-65800155D01*
X68554246Y-65800000D01*
X66140048Y-65800000D01*
X66130052Y-65803638D01*
X66127000Y-65808925D01*
X66127000Y-66859952D01*
X65873000Y-66859952D01*
X65873000Y-65813048D01*
X65869362Y-65803052D01*
X65864075Y-65800000D01*
X63445754Y-65800000D01*
X63442362Y-65800155D01*
X63375406Y-65806308D01*
X63367752Y-65807841D01*
X63214084Y-65855997D01*
X63206005Y-65859645D01*
X63068715Y-65942792D01*
X63061752Y-65948251D01*
X62948251Y-66061752D01*
X62942792Y-66068715D01*
X62859645Y-66206005D01*
X62855997Y-66214084D01*
X62807841Y-66367752D01*
X62806308Y-66375406D01*
X62800155Y-66442362D01*
X62800000Y-66445754D01*
X62800000Y-66859952D01*
X61265019Y-66859952D01*
X63102798Y-65022174D01*
X63148674Y-65000782D01*
X63155124Y-65000500D01*
X71795433Y-65000500D01*
X71800906Y-65000902D01*
X71805342Y-65002425D01*
X71812166Y-65002169D01*
X71812167Y-65002169D01*
X71855241Y-65000552D01*
X71858017Y-65000500D01*
X71877948Y-65000500D01*
X71881300Y-64999876D01*
X71884691Y-64999563D01*
X71884709Y-64999753D01*
X71888755Y-64999294D01*
X71917208Y-64998226D01*
X71923485Y-64995529D01*
X71923490Y-64995528D01*
X71930343Y-64992584D01*
X71946002Y-64987826D01*
X71953336Y-64986460D01*
X71960053Y-64985209D01*
X71965868Y-64981624D01*
X71965872Y-64981623D01*
X71984290Y-64970270D01*
X71993907Y-64965274D01*
X72015262Y-64956099D01*
X72015264Y-64956098D01*
X72020063Y-64954036D01*
X72024949Y-64950022D01*
X72031380Y-64943591D01*
X72044876Y-64932923D01*
X72049532Y-64930053D01*
X72055348Y-64926468D01*
X72074039Y-64901888D01*
X72080617Y-64894354D01*
X76123901Y-60851070D01*
X76128054Y-60847485D01*
X76132269Y-60845425D01*
X76166227Y-60808818D01*
X76168152Y-60806819D01*
X76182248Y-60792723D01*
X76184176Y-60789912D01*
X76186353Y-60787293D01*
X76186485Y-60787403D01*
X76189039Y-60784227D01*
X76203754Y-60768364D01*
X76203755Y-60768363D01*
X76208401Y-60763354D01*
X76213696Y-60750081D01*
X76221405Y-60735644D01*
X76225626Y-60729491D01*
X76229493Y-60723854D01*
X76236067Y-60696152D01*
X76239335Y-60685819D01*
X76247947Y-60664231D01*
X76247947Y-60664230D01*
X76249883Y-60659378D01*
X76250500Y-60653085D01*
X76250500Y-60643992D01*
X76252500Y-60626906D01*
X76253762Y-60621586D01*
X76253762Y-60621583D01*
X76255340Y-60614934D01*
X76251176Y-60584337D01*
X76250500Y-60574358D01*
X76250500Y-56154573D01*
X76250902Y-56149096D01*
X76252426Y-56144658D01*
X76250552Y-56094744D01*
X76250500Y-56091968D01*
X76250500Y-56072052D01*
X76249875Y-56068695D01*
X76249562Y-56065307D01*
X76249750Y-56065290D01*
X76249294Y-56061242D01*
X76248482Y-56039620D01*
X76248226Y-56032792D01*
X76245529Y-56026515D01*
X76245528Y-56026510D01*
X76242584Y-56019657D01*
X76237826Y-56003998D01*
X76236460Y-55996662D01*
X76236459Y-55996660D01*
X76235209Y-55989947D01*
X76220270Y-55965710D01*
X76215274Y-55956094D01*
X76206097Y-55934734D01*
X76206096Y-55934732D01*
X76204036Y-55929938D01*
X76200023Y-55925052D01*
X76193591Y-55918620D01*
X76182923Y-55905124D01*
X76180053Y-55900468D01*
X76176468Y-55894652D01*
X76151888Y-55875961D01*
X76144354Y-55869383D01*
X75622657Y-55347686D01*
X75601265Y-55301810D01*
X75602008Y-55283084D01*
X75605496Y-55262354D01*
X75605647Y-55250000D01*
X75585323Y-55108082D01*
X75525984Y-54977572D01*
X75432400Y-54868963D01*
X75427981Y-54866099D01*
X75427979Y-54866097D01*
X75388068Y-54840228D01*
X75312095Y-54790985D01*
X75208168Y-54759904D01*
X75179792Y-54751418D01*
X75179791Y-54751418D01*
X75174739Y-54749907D01*
X75101103Y-54749457D01*
X75036646Y-54749063D01*
X75036645Y-54749063D01*
X75031376Y-54749031D01*
X74893529Y-54788428D01*
X74772280Y-54864930D01*
X74677377Y-54972388D01*
X74616447Y-55102163D01*
X74594391Y-55243823D01*
X74595074Y-55249046D01*
X74595074Y-55249049D01*
X74595573Y-55252862D01*
X74612980Y-55385979D01*
X74670720Y-55517203D01*
X74674112Y-55521238D01*
X74759580Y-55622916D01*
X74759583Y-55622919D01*
X74762970Y-55626948D01*
X74767357Y-55629868D01*
X74877924Y-55703469D01*
X74877927Y-55703470D01*
X74882313Y-55706390D01*
X75019157Y-55749142D01*
X75024425Y-55749239D01*
X75024428Y-55749239D01*
X75147212Y-55751490D01*
X75198181Y-55773152D01*
X75627826Y-56202797D01*
X75649218Y-56248673D01*
X75649500Y-56255123D01*
X75649500Y-60444876D01*
X75632187Y-60492442D01*
X75627826Y-60497202D01*
X71747203Y-64377826D01*
X71701327Y-64399218D01*
X71694877Y-64399500D01*
X63054567Y-64399500D01*
X63049094Y-64399098D01*
X63044658Y-64397575D01*
X63037834Y-64397831D01*
X63037833Y-64397831D01*
X62994758Y-64399448D01*
X62991982Y-64399500D01*
X62972052Y-64399500D01*
X62968700Y-64400124D01*
X62965309Y-64400437D01*
X62965291Y-64400247D01*
X62961245Y-64400706D01*
X62932791Y-64401774D01*
X62926516Y-64404470D01*
X62926512Y-64404471D01*
X62919658Y-64407416D01*
X62903995Y-64412175D01*
X62896664Y-64413540D01*
X62896663Y-64413540D01*
X62889947Y-64414791D01*
X62884132Y-64418376D01*
X62884128Y-64418377D01*
X62865710Y-64429730D01*
X62856093Y-64434726D01*
X62834738Y-64443901D01*
X62834736Y-64443902D01*
X62829937Y-64445964D01*
X62825051Y-64449978D01*
X62818620Y-64456409D01*
X62805125Y-64467076D01*
X62794652Y-64473532D01*
X62790516Y-64478971D01*
X62775961Y-64498112D01*
X62769383Y-64505646D01*
X60226099Y-67048930D01*
X60221946Y-67052515D01*
X60217731Y-67054575D01*
X60192182Y-67082117D01*
X60183774Y-67091181D01*
X60181853Y-67093176D01*
X60167752Y-67107277D01*
X60165824Y-67110088D01*
X60163647Y-67112707D01*
X60163515Y-67112597D01*
X60160961Y-67115773D01*
X60147716Y-67130052D01*
X60141599Y-67136646D01*
X60139069Y-67142988D01*
X60139065Y-67142994D01*
X60136301Y-67149923D01*
X60128593Y-67164359D01*
X60124376Y-67170507D01*
X60120508Y-67176146D01*
X60118930Y-67182796D01*
X60118929Y-67182798D01*
X60113936Y-67203840D01*
X60110668Y-67214176D01*
X60100117Y-67240622D01*
X60099500Y-67246915D01*
X60099500Y-67256012D01*
X60097500Y-67273098D01*
X60094660Y-67285066D01*
X58870919Y-67285066D01*
X58867494Y-67282690D01*
X58862769Y-67279907D01*
X58641081Y-67170583D01*
X58635998Y-67168530D01*
X58400594Y-67093176D01*
X58395254Y-67091894D01*
X58151281Y-67052160D01*
X58145844Y-67051684D01*
X57898671Y-67048449D01*
X57893203Y-67048784D01*
X57648274Y-67082117D01*
X57642931Y-67083252D01*
X57405608Y-67152425D01*
X57400492Y-67154338D01*
X57176001Y-67257830D01*
X57171219Y-67260481D01*
X56964502Y-67396010D01*
X56960152Y-67399348D01*
X56900564Y-67452533D01*
X56895528Y-67461906D01*
X54104453Y-67461906D01*
X54105422Y-67459829D01*
X54103975Y-67454430D01*
X54074846Y-67427029D01*
X54070589Y-67423582D01*
X53867494Y-67282690D01*
X53862769Y-67279907D01*
X53641081Y-67170583D01*
X53635998Y-67168530D01*
X53400594Y-67093176D01*
X53395254Y-67091894D01*
X53151281Y-67052160D01*
X53145844Y-67051684D01*
X52898671Y-67048449D01*
X52893203Y-67048784D01*
X52648274Y-67082117D01*
X52642931Y-67083252D01*
X52405608Y-67152425D01*
X52400492Y-67154338D01*
X52176001Y-67257830D01*
X52171219Y-67260481D01*
X51964502Y-67396010D01*
X51960152Y-67399348D01*
X51900564Y-67452533D01*
X51895528Y-67461906D01*
X50200500Y-67461906D01*
X50200500Y-64993823D01*
X60494391Y-64993823D01*
X60495074Y-64999046D01*
X60495074Y-64999049D01*
X60501067Y-65044877D01*
X60512980Y-65135979D01*
X60570720Y-65267203D01*
X60583469Y-65282370D01*
X60659580Y-65372916D01*
X60659583Y-65372919D01*
X60662970Y-65376948D01*
X60667357Y-65379868D01*
X60777924Y-65453469D01*
X60777927Y-65453470D01*
X60782313Y-65456390D01*
X60919157Y-65499142D01*
X60924425Y-65499239D01*
X60924428Y-65499239D01*
X60984733Y-65500344D01*
X61062499Y-65501770D01*
X61067582Y-65500384D01*
X61067584Y-65500384D01*
X61195727Y-65465448D01*
X61195729Y-65465447D01*
X61200817Y-65464060D01*
X61261904Y-65426553D01*
X61318498Y-65391804D01*
X61318499Y-65391803D01*
X61322991Y-65389045D01*
X61419200Y-65282754D01*
X61481710Y-65153733D01*
X61491753Y-65094040D01*
X61512401Y-65053992D01*
X62990245Y-63576148D01*
X63036121Y-63554756D01*
X63080905Y-63565177D01*
X63179779Y-63625056D01*
X63209617Y-63643127D01*
X63371406Y-63693829D01*
X63391263Y-63695654D01*
X63442317Y-63700345D01*
X63442323Y-63700345D01*
X63444007Y-63700500D01*
X65999249Y-63700500D01*
X68555992Y-63700499D01*
X68616886Y-63694905D01*
X68624687Y-63694188D01*
X68624688Y-63694188D01*
X68628594Y-63693829D01*
X68632335Y-63692657D01*
X68632338Y-63692656D01*
X68786123Y-63644462D01*
X68790383Y-63643127D01*
X68935408Y-63555297D01*
X69055297Y-63435408D01*
X69143127Y-63290383D01*
X69145503Y-63282800D01*
X69163791Y-63252602D01*
X71430484Y-60985909D01*
X71430487Y-60985905D01*
X71453050Y-60963342D01*
X71455692Y-60958156D01*
X71455696Y-60958151D01*
X71464897Y-60940093D01*
X71470959Y-60930198D01*
X71486296Y-60909089D01*
X71494357Y-60884280D01*
X71498801Y-60873552D01*
X71508000Y-60855497D01*
X71510646Y-60850304D01*
X71514727Y-60824537D01*
X71517438Y-60813246D01*
X71523700Y-60793974D01*
X71523700Y-60793971D01*
X71525500Y-60788433D01*
X71525500Y-58473711D01*
X71542813Y-58426145D01*
X71586650Y-58400835D01*
X71600855Y-58399723D01*
X71712499Y-58401770D01*
X71717582Y-58400384D01*
X71717584Y-58400384D01*
X71845727Y-58365448D01*
X71845729Y-58365447D01*
X71850817Y-58364060D01*
X71972991Y-58289045D01*
X72069200Y-58182754D01*
X72131710Y-58053733D01*
X72155496Y-57912354D01*
X72155647Y-57900000D01*
X72135323Y-57758082D01*
X72075984Y-57627572D01*
X71982400Y-57518963D01*
X71977981Y-57516099D01*
X71977979Y-57516097D01*
X71938068Y-57490228D01*
X71862095Y-57440985D01*
X71758168Y-57409904D01*
X71729792Y-57401418D01*
X71729791Y-57401418D01*
X71724739Y-57399907D01*
X71599048Y-57399139D01*
X71551588Y-57381536D01*
X71526547Y-57337544D01*
X71525500Y-57325140D01*
X71525500Y-53831767D01*
X71538148Y-53790391D01*
X71540663Y-53786661D01*
X71544200Y-53782754D01*
X71606710Y-53653733D01*
X71630496Y-53512354D01*
X71630647Y-53500000D01*
X71610323Y-53358082D01*
X71550984Y-53227572D01*
X71457400Y-53118963D01*
X71452981Y-53116099D01*
X71452979Y-53116097D01*
X71413068Y-53090228D01*
X71337095Y-53040985D01*
X71226031Y-53007770D01*
X71204792Y-53001418D01*
X71204791Y-53001418D01*
X71199739Y-52999907D01*
X71126103Y-52999457D01*
X71061646Y-52999063D01*
X71061645Y-52999063D01*
X71056376Y-52999031D01*
X70918529Y-53038428D01*
X70797280Y-53114930D01*
X70702377Y-53222388D01*
X70641447Y-53352163D01*
X70640637Y-53357368D01*
X70640636Y-53357370D01*
X70636919Y-53381242D01*
X70619391Y-53493823D01*
X70620074Y-53499046D01*
X70620074Y-53499049D01*
X70620573Y-53502862D01*
X70637980Y-53635979D01*
X70695720Y-53767203D01*
X70699115Y-53771241D01*
X70699115Y-53771242D01*
X70707146Y-53780797D01*
X70724500Y-53828412D01*
X70724500Y-60528455D01*
X70707187Y-60576021D01*
X70702826Y-60580781D01*
X69323783Y-61959824D01*
X69277907Y-61981216D01*
X69229012Y-61968115D01*
X69199978Y-61926651D01*
X69197767Y-61914268D01*
X69194188Y-61875313D01*
X69194188Y-61875312D01*
X69193829Y-61871406D01*
X69180986Y-61830422D01*
X69144462Y-61713877D01*
X69143127Y-61709617D01*
X69055297Y-61564592D01*
X68935408Y-61444703D01*
X68790383Y-61356873D01*
X68628594Y-61306171D01*
X68608737Y-61304346D01*
X68557683Y-61299655D01*
X68557677Y-61299655D01*
X68555993Y-61299500D01*
X66000751Y-61299500D01*
X63444008Y-61299501D01*
X63383114Y-61305095D01*
X63375313Y-61305812D01*
X63375312Y-61305812D01*
X63371406Y-61306171D01*
X63367665Y-61307343D01*
X63367662Y-61307344D01*
X63260044Y-61341070D01*
X63209617Y-61356873D01*
X63064592Y-61444703D01*
X62944703Y-61564592D01*
X62856873Y-61709617D01*
X62806171Y-61871406D01*
X62805812Y-61875313D01*
X62805812Y-61875314D01*
X62802233Y-61914268D01*
X62799500Y-61944007D01*
X62799501Y-62278015D01*
X62799501Y-62607877D01*
X62782188Y-62655443D01*
X62768996Y-62667745D01*
X62766848Y-62669305D01*
X62761658Y-62671950D01*
X62739091Y-62694517D01*
X60949413Y-64484194D01*
X60917422Y-64503019D01*
X60819136Y-64531109D01*
X60793529Y-64538428D01*
X60672280Y-64614930D01*
X60577377Y-64722388D01*
X60516447Y-64852163D01*
X60494391Y-64993823D01*
X50200500Y-64993823D01*
X50200500Y-62541973D01*
X51892776Y-62541973D01*
X51894173Y-62547183D01*
X51895059Y-62547941D01*
X52094404Y-62694105D01*
X52099033Y-62696998D01*
X52317796Y-62812095D01*
X52322817Y-62814279D01*
X52556181Y-62895773D01*
X52561476Y-62897191D01*
X52804316Y-62943297D01*
X52809758Y-62943917D01*
X53056751Y-62953621D01*
X53062229Y-62953430D01*
X53307933Y-62926521D01*
X53313331Y-62925520D01*
X53552359Y-62862589D01*
X53557540Y-62860805D01*
X53784649Y-62763232D01*
X53789513Y-62760699D01*
X53999701Y-62630631D01*
X54004136Y-62627408D01*
X54099056Y-62547053D01*
X54101959Y-62541973D01*
X56892776Y-62541973D01*
X56894173Y-62547183D01*
X56895059Y-62547941D01*
X57094404Y-62694105D01*
X57099033Y-62696998D01*
X57317796Y-62812095D01*
X57322817Y-62814279D01*
X57556181Y-62895773D01*
X57561476Y-62897191D01*
X57804316Y-62943297D01*
X57809758Y-62943917D01*
X58056751Y-62953621D01*
X58062229Y-62953430D01*
X58307933Y-62926521D01*
X58313331Y-62925520D01*
X58552359Y-62862589D01*
X58557540Y-62860805D01*
X58784649Y-62763232D01*
X58789513Y-62760699D01*
X58999701Y-62630631D01*
X59004136Y-62627408D01*
X59099056Y-62547053D01*
X59104335Y-62537816D01*
X59103480Y-62533085D01*
X58009226Y-61438831D01*
X57999587Y-61434336D01*
X57993688Y-61435917D01*
X56897271Y-62532334D01*
X56892776Y-62541973D01*
X54101959Y-62541973D01*
X54104335Y-62537816D01*
X54103480Y-62533085D01*
X53009226Y-61438831D01*
X52999587Y-61434336D01*
X52993688Y-61435917D01*
X51897271Y-62532334D01*
X51892776Y-62541973D01*
X50200500Y-62541973D01*
X50200500Y-61208118D01*
X51295949Y-61208118D01*
X51307808Y-61455021D01*
X51308475Y-61460449D01*
X51356699Y-61702884D01*
X51358164Y-61708165D01*
X51441691Y-61940808D01*
X51443916Y-61945807D01*
X51560913Y-62163549D01*
X51563859Y-62168174D01*
X51700703Y-62351430D01*
X51709598Y-62357262D01*
X51713608Y-62356787D01*
X52811169Y-61259226D01*
X52815279Y-61250413D01*
X53184336Y-61250413D01*
X53185917Y-61256312D01*
X54279407Y-62349802D01*
X54289046Y-62354297D01*
X54293930Y-62352988D01*
X54359679Y-62278015D01*
X54362971Y-62273648D01*
X54496692Y-62065756D01*
X54499308Y-62060937D01*
X54600827Y-61835572D01*
X54602703Y-61830422D01*
X54669798Y-61592517D01*
X54670890Y-61587151D01*
X54702196Y-61341070D01*
X54702480Y-61337365D01*
X54704718Y-61251854D01*
X54704630Y-61248152D01*
X54701655Y-61208118D01*
X56295949Y-61208118D01*
X56307808Y-61455021D01*
X56308475Y-61460449D01*
X56356699Y-61702884D01*
X56358164Y-61708165D01*
X56441691Y-61940808D01*
X56443916Y-61945807D01*
X56560913Y-62163549D01*
X56563859Y-62168174D01*
X56700703Y-62351430D01*
X56709598Y-62357262D01*
X56713608Y-62356787D01*
X57811169Y-61259226D01*
X57815279Y-61250413D01*
X58184336Y-61250413D01*
X58185917Y-61256312D01*
X59279407Y-62349802D01*
X59289046Y-62354297D01*
X59293930Y-62352988D01*
X59359679Y-62278015D01*
X59362971Y-62273648D01*
X59496692Y-62065756D01*
X59499308Y-62060937D01*
X59600827Y-61835572D01*
X59602703Y-61830422D01*
X59669798Y-61592517D01*
X59670890Y-61587151D01*
X59702196Y-61341070D01*
X59702480Y-61337365D01*
X59704718Y-61251854D01*
X59704630Y-61248152D01*
X59686245Y-61000748D01*
X59685437Y-60995345D01*
X59630884Y-60754258D01*
X59629281Y-60749012D01*
X59539691Y-60518633D01*
X59537338Y-60513700D01*
X59414678Y-60299089D01*
X59411614Y-60294547D01*
X59297780Y-60150150D01*
X59288735Y-60144552D01*
X59284428Y-60145177D01*
X58188831Y-61240774D01*
X58184336Y-61250413D01*
X57815279Y-61250413D01*
X57815664Y-61249587D01*
X57814083Y-61243688D01*
X56720473Y-60150078D01*
X56710834Y-60145583D01*
X56706302Y-60146798D01*
X56613882Y-60257922D01*
X56610693Y-60262394D01*
X56482467Y-60473702D01*
X56479980Y-60478582D01*
X56384391Y-60706536D01*
X56382652Y-60711734D01*
X56321807Y-60951311D01*
X56320858Y-60956696D01*
X56296092Y-61202642D01*
X56295949Y-61208118D01*
X54701655Y-61208118D01*
X54686245Y-61000748D01*
X54685437Y-60995345D01*
X54630884Y-60754258D01*
X54629281Y-60749012D01*
X54539691Y-60518633D01*
X54537338Y-60513700D01*
X54414678Y-60299089D01*
X54411614Y-60294547D01*
X54297780Y-60150150D01*
X54288735Y-60144552D01*
X54284428Y-60145177D01*
X53188831Y-61240774D01*
X53184336Y-61250413D01*
X52815279Y-61250413D01*
X52815664Y-61249587D01*
X52814083Y-61243688D01*
X51720473Y-60150078D01*
X51710834Y-60145583D01*
X51706302Y-60146798D01*
X51613882Y-60257922D01*
X51610693Y-60262394D01*
X51482467Y-60473702D01*
X51479980Y-60478582D01*
X51384391Y-60706536D01*
X51382652Y-60711734D01*
X51321807Y-60951311D01*
X51320858Y-60956696D01*
X51296092Y-61202642D01*
X51295949Y-61208118D01*
X50200500Y-61208118D01*
X50200500Y-59961906D01*
X51895528Y-59961906D01*
X51896583Y-59966978D01*
X52990774Y-61061169D01*
X53000413Y-61065664D01*
X53006312Y-61064083D01*
X54100927Y-59969468D01*
X54104453Y-59961906D01*
X56895528Y-59961906D01*
X56896583Y-59966978D01*
X57990774Y-61061169D01*
X58000413Y-61065664D01*
X58006312Y-61064083D01*
X59100927Y-59969468D01*
X59105422Y-59959829D01*
X59103975Y-59954430D01*
X59074846Y-59927029D01*
X59070589Y-59923582D01*
X58867494Y-59782690D01*
X58862769Y-59779907D01*
X58641081Y-59670583D01*
X58635998Y-59668530D01*
X58400594Y-59593176D01*
X58395254Y-59591894D01*
X58151281Y-59552160D01*
X58145844Y-59551684D01*
X57898671Y-59548449D01*
X57893203Y-59548784D01*
X57648274Y-59582117D01*
X57642931Y-59583252D01*
X57405608Y-59652425D01*
X57400492Y-59654338D01*
X57176001Y-59757830D01*
X57171219Y-59760481D01*
X56964502Y-59896010D01*
X56960152Y-59899348D01*
X56900564Y-59952533D01*
X56895528Y-59961906D01*
X54104453Y-59961906D01*
X54105422Y-59959829D01*
X54103975Y-59954430D01*
X54074846Y-59927029D01*
X54070589Y-59923582D01*
X53867494Y-59782690D01*
X53862769Y-59779907D01*
X53641081Y-59670583D01*
X53635998Y-59668530D01*
X53400594Y-59593176D01*
X53395254Y-59591894D01*
X53151281Y-59552160D01*
X53145844Y-59551684D01*
X52898671Y-59548449D01*
X52893203Y-59548784D01*
X52648274Y-59582117D01*
X52642931Y-59583252D01*
X52405608Y-59652425D01*
X52400492Y-59654338D01*
X52176001Y-59757830D01*
X52171219Y-59760481D01*
X51964502Y-59896010D01*
X51960152Y-59899348D01*
X51900564Y-59952533D01*
X51895528Y-59961906D01*
X50200500Y-59961906D01*
X50200500Y-53833823D01*
X62089391Y-53833823D01*
X62090074Y-53839046D01*
X62090074Y-53839049D01*
X62090573Y-53842862D01*
X62107980Y-53975979D01*
X62165720Y-54107203D01*
X62169112Y-54111238D01*
X62254580Y-54212916D01*
X62254583Y-54212919D01*
X62257970Y-54216948D01*
X62262357Y-54219868D01*
X62372924Y-54293469D01*
X62372927Y-54293470D01*
X62377313Y-54296390D01*
X62514157Y-54339142D01*
X62519425Y-54339239D01*
X62519428Y-54339239D01*
X62579733Y-54340344D01*
X62657499Y-54341770D01*
X62662582Y-54340384D01*
X62662584Y-54340384D01*
X62790727Y-54305448D01*
X62790729Y-54305447D01*
X62795817Y-54304060D01*
X62917991Y-54229045D01*
X63014200Y-54122754D01*
X63076710Y-53993733D01*
X63100496Y-53852354D01*
X63100647Y-53840000D01*
X63095788Y-53806072D01*
X63106183Y-53756533D01*
X63116715Y-53743256D01*
X64037797Y-52822174D01*
X64083673Y-52800782D01*
X64090123Y-52800500D01*
X75294877Y-52800500D01*
X75342443Y-52817813D01*
X75347203Y-52822174D01*
X76577826Y-54052797D01*
X76599218Y-54098673D01*
X76599500Y-54105123D01*
X76599500Y-65044877D01*
X76582187Y-65092443D01*
X76577826Y-65097203D01*
X76196982Y-65478047D01*
X76151106Y-65499439D01*
X76144204Y-65499720D01*
X76036646Y-65499063D01*
X76036645Y-65499063D01*
X76031376Y-65499031D01*
X75893529Y-65538428D01*
X75772280Y-65614930D01*
X75764642Y-65623579D01*
X75686851Y-65711661D01*
X75677377Y-65722388D01*
X75616447Y-65852163D01*
X75594391Y-65993823D01*
X75595074Y-65999046D01*
X75595074Y-65999049D01*
X75595573Y-66002862D01*
X75612980Y-66135979D01*
X75670720Y-66267203D01*
X75674112Y-66271238D01*
X75759580Y-66372916D01*
X75759583Y-66372919D01*
X75762970Y-66376948D01*
X75767357Y-66379868D01*
X75877924Y-66453469D01*
X75877927Y-66453470D01*
X75882313Y-66456390D01*
X76019157Y-66499142D01*
X76024425Y-66499239D01*
X76024428Y-66499239D01*
X76084733Y-66500344D01*
X76162499Y-66501770D01*
X76167582Y-66500384D01*
X76167584Y-66500384D01*
X76295727Y-66465448D01*
X76295729Y-66465447D01*
X76300817Y-66464060D01*
X76361904Y-66426552D01*
X76418498Y-66391804D01*
X76418499Y-66391803D01*
X76422991Y-66389045D01*
X76519200Y-66282754D01*
X76581710Y-66153733D01*
X76605496Y-66012354D01*
X76605647Y-66000000D01*
X76600788Y-65966072D01*
X76611183Y-65916533D01*
X76621715Y-65903256D01*
X77073901Y-65451070D01*
X77078054Y-65447485D01*
X77082269Y-65445425D01*
X77116227Y-65408818D01*
X77118152Y-65406819D01*
X77132248Y-65392723D01*
X77134176Y-65389912D01*
X77136353Y-65387293D01*
X77136485Y-65387403D01*
X77139039Y-65384227D01*
X77153754Y-65368364D01*
X77153755Y-65368363D01*
X77158401Y-65363354D01*
X77163696Y-65350081D01*
X77171405Y-65335644D01*
X77175626Y-65329491D01*
X77179493Y-65323854D01*
X77186067Y-65296152D01*
X77189335Y-65285819D01*
X77197947Y-65264231D01*
X77197947Y-65264230D01*
X77199883Y-65259378D01*
X77200500Y-65253085D01*
X77200500Y-65243992D01*
X77202500Y-65226906D01*
X77203762Y-65221586D01*
X77203762Y-65221583D01*
X77205340Y-65214934D01*
X77201176Y-65184337D01*
X77200500Y-65174358D01*
X77200500Y-54004572D01*
X77200902Y-53999096D01*
X77202426Y-53994658D01*
X77201529Y-53970752D01*
X77200552Y-53944744D01*
X77200500Y-53941968D01*
X77200500Y-53922052D01*
X77199875Y-53918695D01*
X77199562Y-53915307D01*
X77199750Y-53915290D01*
X77199294Y-53911242D01*
X77198482Y-53889620D01*
X77198226Y-53882792D01*
X77195529Y-53876515D01*
X77195528Y-53876510D01*
X77192584Y-53869657D01*
X77187826Y-53853998D01*
X77186460Y-53846662D01*
X77186459Y-53846660D01*
X77185209Y-53839947D01*
X77170270Y-53815710D01*
X77165274Y-53806094D01*
X77165265Y-53806073D01*
X77154036Y-53779938D01*
X77150023Y-53775051D01*
X77143590Y-53768618D01*
X77132923Y-53755123D01*
X77130055Y-53750470D01*
X77130053Y-53750468D01*
X77126468Y-53744652D01*
X77101892Y-53725964D01*
X77094358Y-53719386D01*
X75701070Y-52326099D01*
X75697485Y-52321946D01*
X75695425Y-52317731D01*
X75670649Y-52294748D01*
X111624500Y-52294748D01*
X111636133Y-52353231D01*
X111640184Y-52359293D01*
X111640184Y-52359294D01*
X111654792Y-52381156D01*
X111680448Y-52419552D01*
X111746769Y-52463867D01*
X111791295Y-52472724D01*
X111801682Y-52474790D01*
X111801683Y-52474790D01*
X111805252Y-52475500D01*
X113544748Y-52475500D01*
X113548317Y-52474790D01*
X113548318Y-52474790D01*
X113558705Y-52472724D01*
X113603231Y-52463867D01*
X113669552Y-52419552D01*
X113695208Y-52381156D01*
X113709816Y-52359294D01*
X113709816Y-52359293D01*
X113713867Y-52353231D01*
X113725500Y-52294748D01*
X113725500Y-50555252D01*
X113713867Y-50496769D01*
X113682617Y-50450000D01*
X113673602Y-50436509D01*
X113669552Y-50430448D01*
X113603231Y-50386133D01*
X113558705Y-50377276D01*
X113548318Y-50375210D01*
X113548317Y-50375210D01*
X113544748Y-50374500D01*
X111805252Y-50374500D01*
X111801683Y-50375210D01*
X111801682Y-50375210D01*
X111791295Y-50377276D01*
X111746769Y-50386133D01*
X111680448Y-50430448D01*
X111676398Y-50436509D01*
X111667384Y-50450000D01*
X111636133Y-50496769D01*
X111624500Y-50555252D01*
X111624500Y-52294748D01*
X75670649Y-52294748D01*
X75658818Y-52283773D01*
X75656819Y-52281848D01*
X75642723Y-52267752D01*
X75639912Y-52265824D01*
X75637293Y-52263647D01*
X75637403Y-52263515D01*
X75634227Y-52260961D01*
X75618364Y-52246246D01*
X75618363Y-52246245D01*
X75613354Y-52241599D01*
X75607012Y-52239069D01*
X75607006Y-52239065D01*
X75600077Y-52236301D01*
X75585641Y-52228593D01*
X75579493Y-52224376D01*
X75579492Y-52224375D01*
X75573854Y-52220508D01*
X75567204Y-52218930D01*
X75567202Y-52218929D01*
X75546160Y-52213936D01*
X75535824Y-52210668D01*
X75520291Y-52204471D01*
X75509378Y-52200117D01*
X75503085Y-52199500D01*
X75493988Y-52199500D01*
X75476901Y-52197500D01*
X75471585Y-52196238D01*
X75471583Y-52196238D01*
X75464934Y-52194660D01*
X75444066Y-52197500D01*
X75434337Y-52198824D01*
X75424358Y-52199500D01*
X63989567Y-52199500D01*
X63984094Y-52199098D01*
X63979658Y-52197575D01*
X63972834Y-52197831D01*
X63972833Y-52197831D01*
X63929758Y-52199448D01*
X63926982Y-52199500D01*
X63907052Y-52199500D01*
X63903700Y-52200124D01*
X63900309Y-52200437D01*
X63900291Y-52200247D01*
X63896245Y-52200706D01*
X63867791Y-52201774D01*
X63861516Y-52204470D01*
X63861512Y-52204471D01*
X63854658Y-52207416D01*
X63838995Y-52212175D01*
X63831664Y-52213540D01*
X63831663Y-52213540D01*
X63824947Y-52214791D01*
X63819132Y-52218376D01*
X63819128Y-52218377D01*
X63800710Y-52229730D01*
X63791093Y-52234726D01*
X63769738Y-52243901D01*
X63769736Y-52243902D01*
X63764937Y-52245964D01*
X63760051Y-52249978D01*
X63753620Y-52256409D01*
X63740125Y-52267076D01*
X63729652Y-52273532D01*
X63725516Y-52278971D01*
X63710961Y-52298112D01*
X63704383Y-52305646D01*
X62691982Y-53318047D01*
X62646106Y-53339439D01*
X62639204Y-53339720D01*
X62531646Y-53339063D01*
X62531645Y-53339063D01*
X62526376Y-53339031D01*
X62388529Y-53378428D01*
X62267280Y-53454930D01*
X62172377Y-53562388D01*
X62111447Y-53692163D01*
X62110637Y-53697368D01*
X62110636Y-53697370D01*
X62103492Y-53743256D01*
X62089391Y-53833823D01*
X50200500Y-53833823D01*
X50200500Y-52366058D01*
X58375000Y-52366058D01*
X58375710Y-52373268D01*
X58385182Y-52420890D01*
X58390652Y-52434094D01*
X58426759Y-52488132D01*
X58436868Y-52498241D01*
X58490906Y-52534348D01*
X58504110Y-52539818D01*
X58551732Y-52549290D01*
X58558942Y-52550000D01*
X59284952Y-52550000D01*
X59294948Y-52546362D01*
X59298000Y-52541075D01*
X59298000Y-52536952D01*
X59552000Y-52536952D01*
X59555638Y-52546948D01*
X59560925Y-52550000D01*
X60291058Y-52550000D01*
X60298268Y-52549290D01*
X60345890Y-52539818D01*
X60359094Y-52534348D01*
X60413132Y-52498241D01*
X60423241Y-52488132D01*
X60459348Y-52434094D01*
X60464818Y-52420890D01*
X60474290Y-52373268D01*
X60475000Y-52366058D01*
X60475000Y-51640048D01*
X60471362Y-51630052D01*
X60466075Y-51627000D01*
X59565048Y-51627000D01*
X59555052Y-51630638D01*
X59552000Y-51635925D01*
X59552000Y-52536952D01*
X59298000Y-52536952D01*
X59298000Y-51640048D01*
X59294362Y-51630052D01*
X59289075Y-51627000D01*
X58388048Y-51627000D01*
X58378052Y-51630638D01*
X58375000Y-51635925D01*
X58375000Y-52366058D01*
X50200500Y-52366058D01*
X50200500Y-51359952D01*
X58375000Y-51359952D01*
X58378638Y-51369948D01*
X58383925Y-51373000D01*
X59284952Y-51373000D01*
X59294948Y-51369362D01*
X59298000Y-51364075D01*
X59298000Y-51359952D01*
X59552000Y-51359952D01*
X59555638Y-51369948D01*
X59560925Y-51373000D01*
X60461952Y-51373000D01*
X60471948Y-51369362D01*
X60475000Y-51364075D01*
X60475000Y-50633942D01*
X60474290Y-50626732D01*
X60464818Y-50579110D01*
X60459348Y-50565906D01*
X60423241Y-50511868D01*
X60413132Y-50501759D01*
X60359094Y-50465652D01*
X60345890Y-50460182D01*
X60298268Y-50450710D01*
X60291058Y-50450000D01*
X59565048Y-50450000D01*
X59555052Y-50453638D01*
X59552000Y-50458925D01*
X59552000Y-51359952D01*
X59298000Y-51359952D01*
X59298000Y-50463048D01*
X59294362Y-50453052D01*
X59289075Y-50450000D01*
X58558942Y-50450000D01*
X58551732Y-50450710D01*
X58504110Y-50460182D01*
X58490906Y-50465652D01*
X58436868Y-50501759D01*
X58426759Y-50511868D01*
X58390652Y-50565906D01*
X58385182Y-50579110D01*
X58375710Y-50626732D01*
X58375000Y-50633942D01*
X58375000Y-51359952D01*
X50200500Y-51359952D01*
X50200500Y-51031423D01*
X50202411Y-51014713D01*
X50204708Y-51004802D01*
X50205655Y-51000718D01*
X50205656Y-51000000D01*
X50204727Y-50995926D01*
X50204262Y-50991772D01*
X50204466Y-50991749D01*
X50203235Y-50972237D01*
X50215148Y-50851279D01*
X50217978Y-50837051D01*
X50259243Y-50701016D01*
X50264792Y-50687621D01*
X50331806Y-50562246D01*
X50339862Y-50550190D01*
X50371312Y-50511868D01*
X50430046Y-50440300D01*
X50440302Y-50430044D01*
X50468153Y-50407188D01*
X50550190Y-50339862D01*
X50562246Y-50331806D01*
X50687621Y-50264792D01*
X50701013Y-50259244D01*
X50761612Y-50240862D01*
X50837051Y-50217978D01*
X50851279Y-50215148D01*
X50972008Y-50203257D01*
X50983186Y-50203973D01*
X50983186Y-50203774D01*
X50991520Y-50203789D01*
X50999641Y-50205656D01*
X51007768Y-50203817D01*
X51007770Y-50203817D01*
X51014362Y-50202325D01*
X51030694Y-50200500D01*
X126968819Y-50200500D01*
X126985402Y-50202382D01*
G37*
%TD.AperFunction*%
%TA.AperFunction,Conductor*%
G36*
X54121732Y-71767813D02*
G01*
X54126492Y-71772174D01*
X54970134Y-72615816D01*
X54979975Y-72628002D01*
X54983855Y-72634011D01*
X54983857Y-72634013D01*
X54987175Y-72639152D01*
X54991980Y-72642940D01*
X55013486Y-72659894D01*
X55019999Y-72665681D01*
X55022747Y-72668429D01*
X55025225Y-72670200D01*
X55025230Y-72670204D01*
X55038081Y-72679387D01*
X55040864Y-72681476D01*
X55078811Y-72711392D01*
X55084585Y-72713420D01*
X55085629Y-72713994D01*
X55086327Y-72714433D01*
X55086867Y-72714714D01*
X55087622Y-72715030D01*
X55088694Y-72715555D01*
X55093670Y-72719111D01*
X55099527Y-72720863D01*
X55099530Y-72720864D01*
X55139974Y-72732959D01*
X55143290Y-72734036D01*
X55188906Y-72750055D01*
X55194044Y-72750500D01*
X55195381Y-72750500D01*
X55199912Y-72750884D01*
X55205464Y-72752544D01*
X55211574Y-72752304D01*
X55211575Y-72752304D01*
X55256037Y-72750557D01*
X55258942Y-72750500D01*
X56606270Y-72750500D01*
X56653836Y-72767813D01*
X56655542Y-72769514D01*
X56655646Y-72769398D01*
X56659580Y-72772915D01*
X56662970Y-72776948D01*
X56681143Y-72789045D01*
X56777924Y-72853469D01*
X56777927Y-72853470D01*
X56782313Y-72856390D01*
X56787343Y-72857961D01*
X56787342Y-72857961D01*
X56797569Y-72861156D01*
X56837807Y-72891867D01*
X56849500Y-72931789D01*
X56849500Y-74212725D01*
X56830966Y-74261710D01*
X56777377Y-74322388D01*
X56716447Y-74452163D01*
X56715637Y-74457368D01*
X56715636Y-74457370D01*
X56695137Y-74589032D01*
X56674344Y-74629974D01*
X53276492Y-78027826D01*
X53230616Y-78049218D01*
X53224166Y-78049500D01*
X51023612Y-78049500D01*
X50976046Y-78032187D01*
X50950736Y-77988350D01*
X50959526Y-77938500D01*
X50984892Y-77912439D01*
X51018494Y-77891807D01*
X51018498Y-77891804D01*
X51022991Y-77889045D01*
X51119200Y-77782754D01*
X51181710Y-77653733D01*
X51205496Y-77512354D01*
X51205647Y-77500000D01*
X51193501Y-77415184D01*
X51186070Y-77363297D01*
X51186070Y-77363296D01*
X51185323Y-77358082D01*
X51161246Y-77305127D01*
X51157319Y-77254662D01*
X51186749Y-77213478D01*
X51228610Y-77200500D01*
X51545433Y-77200500D01*
X51550906Y-77200902D01*
X51555342Y-77202425D01*
X51562166Y-77202169D01*
X51562167Y-77202169D01*
X51605241Y-77200552D01*
X51608017Y-77200500D01*
X51627948Y-77200500D01*
X51631300Y-77199876D01*
X51634691Y-77199563D01*
X51634709Y-77199753D01*
X51638755Y-77199294D01*
X51667208Y-77198226D01*
X51673485Y-77195529D01*
X51673490Y-77195528D01*
X51680343Y-77192584D01*
X51696002Y-77187826D01*
X51703336Y-77186460D01*
X51710053Y-77185209D01*
X51715868Y-77181624D01*
X51715872Y-77181623D01*
X51734290Y-77170270D01*
X51743907Y-77165274D01*
X51765262Y-77156099D01*
X51765264Y-77156098D01*
X51770063Y-77154036D01*
X51774949Y-77150022D01*
X51781380Y-77143591D01*
X51794876Y-77132923D01*
X51799532Y-77130053D01*
X51805348Y-77126468D01*
X51819328Y-77108084D01*
X51824039Y-77101888D01*
X51830617Y-77094354D01*
X52480155Y-76444817D01*
X52484304Y-76441235D01*
X52488519Y-76439175D01*
X52522465Y-76402581D01*
X52524390Y-76400582D01*
X52538498Y-76386474D01*
X52540424Y-76383666D01*
X52542606Y-76381040D01*
X52542745Y-76381156D01*
X52545292Y-76377974D01*
X52560002Y-76362116D01*
X52560003Y-76362115D01*
X52564651Y-76357104D01*
X52569948Y-76343827D01*
X52577656Y-76329391D01*
X52581875Y-76323241D01*
X52585742Y-76317604D01*
X52590157Y-76299002D01*
X52592314Y-76289910D01*
X52595582Y-76279574D01*
X52598204Y-76273003D01*
X52606133Y-76253128D01*
X52606750Y-76246835D01*
X52606750Y-76237738D01*
X52608750Y-76220651D01*
X52610012Y-76215335D01*
X52610012Y-76215333D01*
X52611590Y-76208684D01*
X52607426Y-76178087D01*
X52606750Y-76168108D01*
X52606750Y-75991489D01*
X52624063Y-75943923D01*
X52628523Y-75939486D01*
X52629241Y-75939045D01*
X52725450Y-75832754D01*
X52787960Y-75703733D01*
X52811746Y-75562354D01*
X52811897Y-75550000D01*
X52806875Y-75514930D01*
X52792320Y-75413297D01*
X52792320Y-75413296D01*
X52791573Y-75408082D01*
X52732234Y-75277572D01*
X52676175Y-75212512D01*
X52642090Y-75172955D01*
X52642089Y-75172954D01*
X52638650Y-75168963D01*
X52634231Y-75166099D01*
X52634229Y-75166097D01*
X52567389Y-75122774D01*
X52518345Y-75090985D01*
X52391552Y-75053066D01*
X52386042Y-75051418D01*
X52386041Y-75051418D01*
X52380989Y-75049907D01*
X52307353Y-75049457D01*
X52242896Y-75049063D01*
X52242895Y-75049063D01*
X52237626Y-75049031D01*
X52099779Y-75088428D01*
X51978530Y-75164930D01*
X51883627Y-75272388D01*
X51822697Y-75402163D01*
X51800641Y-75543823D01*
X51801324Y-75549046D01*
X51801324Y-75549049D01*
X51803064Y-75562354D01*
X51819230Y-75685979D01*
X51876970Y-75817203D01*
X51880362Y-75821238D01*
X51965830Y-75922916D01*
X51965833Y-75922919D01*
X51969220Y-75926948D01*
X51973606Y-75929867D01*
X51977537Y-75933382D01*
X51976561Y-75934473D01*
X52002757Y-75970068D01*
X52005750Y-75990901D01*
X52005750Y-76038627D01*
X51988437Y-76086193D01*
X51984076Y-76090953D01*
X51497203Y-76577826D01*
X51451327Y-76599218D01*
X51444877Y-76599500D01*
X50904123Y-76599500D01*
X50856557Y-76582187D01*
X50831247Y-76538350D01*
X50840037Y-76488500D01*
X50851797Y-76473174D01*
X50903470Y-76421501D01*
X50949346Y-76400109D01*
X50957152Y-76399839D01*
X51012105Y-76400846D01*
X51062499Y-76401770D01*
X51067581Y-76400385D01*
X51067585Y-76400384D01*
X51195727Y-76365448D01*
X51195729Y-76365447D01*
X51200817Y-76364060D01*
X51287312Y-76310952D01*
X51318498Y-76291804D01*
X51318499Y-76291803D01*
X51322991Y-76289045D01*
X51419200Y-76182754D01*
X51481710Y-76053733D01*
X51505496Y-75912354D01*
X51505647Y-75900000D01*
X51498896Y-75852862D01*
X51486070Y-75763297D01*
X51486070Y-75763296D01*
X51485323Y-75758082D01*
X51478408Y-75742872D01*
X51428166Y-75632371D01*
X51425984Y-75627572D01*
X51332400Y-75518963D01*
X51327973Y-75516093D01*
X51325854Y-75514245D01*
X51301391Y-75469930D01*
X51300500Y-75458481D01*
X51300500Y-74755123D01*
X51317813Y-74707557D01*
X51322174Y-74702797D01*
X51953421Y-74071551D01*
X51999298Y-74050159D01*
X52048192Y-74063260D01*
X52055311Y-74069775D01*
X52055648Y-74069398D01*
X52059576Y-74072910D01*
X52062970Y-74076948D01*
X52067361Y-74079871D01*
X52177924Y-74153469D01*
X52177927Y-74153470D01*
X52182313Y-74156390D01*
X52319157Y-74199142D01*
X52324425Y-74199239D01*
X52324428Y-74199239D01*
X52384733Y-74200344D01*
X52462499Y-74201770D01*
X52467582Y-74200384D01*
X52467584Y-74200384D01*
X52595727Y-74165448D01*
X52595729Y-74165447D01*
X52600817Y-74164060D01*
X52686175Y-74111650D01*
X52718498Y-74091804D01*
X52718499Y-74091803D01*
X52722991Y-74089045D01*
X52819200Y-73982754D01*
X52881710Y-73853733D01*
X52905496Y-73712354D01*
X52905647Y-73700000D01*
X52895809Y-73631300D01*
X52886070Y-73563297D01*
X52886070Y-73563296D01*
X52885323Y-73558082D01*
X52864932Y-73513233D01*
X52828166Y-73432371D01*
X52825984Y-73427572D01*
X52732400Y-73318963D01*
X52727981Y-73316099D01*
X52727979Y-73316097D01*
X52671322Y-73279374D01*
X52612095Y-73240985D01*
X52503506Y-73208510D01*
X52479792Y-73201418D01*
X52479791Y-73201418D01*
X52474739Y-73199907D01*
X52401103Y-73199457D01*
X52336646Y-73199063D01*
X52336645Y-73199063D01*
X52331376Y-73199031D01*
X52193529Y-73238428D01*
X52072280Y-73314930D01*
X52056280Y-73333047D01*
X52019683Y-73374485D01*
X51975219Y-73398678D01*
X51964217Y-73399500D01*
X51954567Y-73399500D01*
X51949094Y-73399098D01*
X51944658Y-73397575D01*
X51937834Y-73397831D01*
X51937833Y-73397831D01*
X51894758Y-73399448D01*
X51891982Y-73399500D01*
X51872052Y-73399500D01*
X51868700Y-73400124D01*
X51865309Y-73400437D01*
X51865291Y-73400247D01*
X51861245Y-73400706D01*
X51832791Y-73401774D01*
X51826516Y-73404470D01*
X51826512Y-73404471D01*
X51819658Y-73407416D01*
X51803995Y-73412175D01*
X51796664Y-73413540D01*
X51796663Y-73413540D01*
X51789947Y-73414791D01*
X51784132Y-73418376D01*
X51784128Y-73418377D01*
X51765710Y-73429730D01*
X51756093Y-73434726D01*
X51734738Y-73443901D01*
X51734736Y-73443902D01*
X51729937Y-73445964D01*
X51725051Y-73449978D01*
X51718620Y-73456409D01*
X51705125Y-73467076D01*
X51694652Y-73473532D01*
X51690516Y-73478971D01*
X51675961Y-73498112D01*
X51669383Y-73505646D01*
X50826099Y-74348930D01*
X50821946Y-74352515D01*
X50817731Y-74354575D01*
X50783774Y-74391181D01*
X50781848Y-74393181D01*
X50767752Y-74407277D01*
X50765824Y-74410088D01*
X50763647Y-74412707D01*
X50763515Y-74412597D01*
X50760961Y-74415773D01*
X50741599Y-74436646D01*
X50739069Y-74442988D01*
X50739065Y-74442994D01*
X50736301Y-74449923D01*
X50728593Y-74464359D01*
X50724376Y-74470507D01*
X50720508Y-74476146D01*
X50718930Y-74482796D01*
X50718929Y-74482798D01*
X50713936Y-74503840D01*
X50710668Y-74514176D01*
X50700117Y-74540622D01*
X50699500Y-74546915D01*
X50699500Y-74556012D01*
X50697500Y-74573098D01*
X50694660Y-74585066D01*
X50697082Y-74602862D01*
X50698824Y-74615663D01*
X50699500Y-74625642D01*
X50699500Y-75458553D01*
X50682187Y-75506119D01*
X50675379Y-75512975D01*
X50672280Y-75514930D01*
X50641204Y-75550117D01*
X50584207Y-75614655D01*
X50577377Y-75622388D01*
X50516447Y-75752163D01*
X50515637Y-75757368D01*
X50515636Y-75757370D01*
X50514713Y-75763297D01*
X50494391Y-75893823D01*
X50495074Y-75899047D01*
X50495074Y-75899048D01*
X50495378Y-75901371D01*
X50498723Y-75926948D01*
X50499704Y-75934452D01*
X50488705Y-75983862D01*
X50478655Y-75996373D01*
X50397203Y-76077826D01*
X50351327Y-76099218D01*
X50344877Y-76099500D01*
X47724500Y-76099500D01*
X47676934Y-76082187D01*
X47651624Y-76038350D01*
X47650500Y-76025500D01*
X47650500Y-75779500D01*
X47667813Y-75731934D01*
X47711650Y-75706624D01*
X47724500Y-75705500D01*
X49040433Y-75705500D01*
X49045906Y-75705902D01*
X49050342Y-75707425D01*
X49057166Y-75707169D01*
X49057167Y-75707169D01*
X49100241Y-75705552D01*
X49103017Y-75705500D01*
X49122948Y-75705500D01*
X49126300Y-75704876D01*
X49129691Y-75704563D01*
X49129709Y-75704753D01*
X49133755Y-75704294D01*
X49162208Y-75703226D01*
X49168485Y-75700529D01*
X49168490Y-75700528D01*
X49175343Y-75697584D01*
X49191002Y-75692826D01*
X49198336Y-75691460D01*
X49205053Y-75690209D01*
X49210868Y-75686624D01*
X49210872Y-75686623D01*
X49229290Y-75675270D01*
X49238907Y-75670274D01*
X49260262Y-75661099D01*
X49260264Y-75661098D01*
X49265063Y-75659036D01*
X49269949Y-75655022D01*
X49276380Y-75648591D01*
X49289876Y-75637923D01*
X49294532Y-75635053D01*
X49300348Y-75631468D01*
X49319039Y-75606888D01*
X49325617Y-75599354D01*
X51173901Y-73751070D01*
X51178054Y-73747485D01*
X51182269Y-73745425D01*
X51216227Y-73708818D01*
X51218152Y-73706819D01*
X51232248Y-73692723D01*
X51234176Y-73689912D01*
X51236353Y-73687293D01*
X51236485Y-73687403D01*
X51239039Y-73684227D01*
X51253754Y-73668364D01*
X51253755Y-73668363D01*
X51258401Y-73663354D01*
X51263696Y-73650081D01*
X51271405Y-73635644D01*
X51275626Y-73629491D01*
X51279493Y-73623854D01*
X51286067Y-73596152D01*
X51289335Y-73585819D01*
X51297947Y-73564231D01*
X51297947Y-73564230D01*
X51299883Y-73559378D01*
X51300500Y-73553085D01*
X51300500Y-73543992D01*
X51302500Y-73526906D01*
X51303762Y-73521586D01*
X51303762Y-73521583D01*
X51305340Y-73514934D01*
X51301176Y-73484337D01*
X51300500Y-73474358D01*
X51300500Y-72355123D01*
X51317813Y-72307557D01*
X51322174Y-72302797D01*
X51703470Y-71921501D01*
X51749346Y-71900109D01*
X51757152Y-71899839D01*
X51812105Y-71900846D01*
X51862499Y-71901770D01*
X51867581Y-71900385D01*
X51867585Y-71900384D01*
X51995727Y-71865448D01*
X51995729Y-71865447D01*
X52000817Y-71864060D01*
X52088861Y-71810001D01*
X52118498Y-71791804D01*
X52118499Y-71791803D01*
X52122991Y-71789045D01*
X52135849Y-71774839D01*
X52180605Y-71751193D01*
X52190711Y-71750500D01*
X54074166Y-71750500D01*
X54121732Y-71767813D01*
G37*
%TD.AperFunction*%
%TD*%
M02*
