%TF.GenerationSoftware,KiCad,Pcbnew,(6.0.6)*%
%TF.CreationDate,2022-11-03T14:15:42-06:00*%
%TF.ProjectId,SolarGPS,536f6c61-7247-4505-932e-6b696361645f,rev?*%
%TF.SameCoordinates,Original*%
%TF.FileFunction,Copper,L2,Bot*%
%TF.FilePolarity,Positive*%
%FSLAX46Y46*%
G04 Gerber Fmt 4.6, Leading zero omitted, Abs format (unit mm)*
G04 Created by KiCad (PCBNEW (6.0.6)) date 2022-11-03 14:15:42*
%MOMM*%
%LPD*%
G01*
G04 APERTURE LIST*
G04 Aperture macros list*
%AMRoundRect*
0 Rectangle with rounded corners*
0 $1 Rounding radius*
0 $2 $3 $4 $5 $6 $7 $8 $9 X,Y pos of 4 corners*
0 Add a 4 corners polygon primitive as box body*
4,1,4,$2,$3,$4,$5,$6,$7,$8,$9,$2,$3,0*
0 Add four circle primitives for the rounded corners*
1,1,$1+$1,$2,$3*
1,1,$1+$1,$4,$5*
1,1,$1+$1,$6,$7*
1,1,$1+$1,$8,$9*
0 Add four rect primitives between the rounded corners*
20,1,$1+$1,$2,$3,$4,$5,0*
20,1,$1+$1,$4,$5,$6,$7,0*
20,1,$1+$1,$6,$7,$8,$9,0*
20,1,$1+$1,$8,$9,$2,$3,0*%
G04 Aperture macros list end*
%TA.AperFunction,SMDPad,CuDef*%
%ADD10R,2.300000X3.500000*%
%TD*%
%TA.AperFunction,ComponentPad*%
%ADD11C,3.000000*%
%TD*%
%TA.AperFunction,ComponentPad*%
%ADD12R,1.700000X1.700000*%
%TD*%
%TA.AperFunction,SMDPad,CuDef*%
%ADD13RoundRect,0.500000X-2.500000X-0.500000X2.500000X-0.500000X2.500000X0.500000X-2.500000X0.500000X0*%
%TD*%
%TA.AperFunction,ComponentPad*%
%ADD14O,1.700000X1.700000*%
%TD*%
%TA.AperFunction,ViaPad*%
%ADD15C,0.600000*%
%TD*%
%TA.AperFunction,ViaPad*%
%ADD16C,0.800000*%
%TD*%
%TA.AperFunction,Conductor*%
%ADD17C,0.500000*%
%TD*%
%TA.AperFunction,Conductor*%
%ADD18C,0.200000*%
%TD*%
%TA.AperFunction,Conductor*%
%ADD19C,0.250000*%
%TD*%
%TA.AperFunction,Conductor*%
%ADD20C,0.400000*%
%TD*%
G04 APERTURE END LIST*
D10*
%TO.P,D1,1,K*%
%TO.N,VBAT*%
X66175000Y-64250000D03*
%TO.P,D1,2,A*%
%TO.N,GND*%
X66175000Y-58850000D03*
%TD*%
D11*
%TO.P,J7,1,Pin_1*%
%TO.N,GND*%
X58000000Y-61250000D03*
X53000000Y-61250000D03*
X53000000Y-68750000D03*
X58000000Y-68750000D03*
%TD*%
D12*
%TO.P,J3,1,Pin_1*%
%TO.N,GND*%
X59425000Y-51500000D03*
%TD*%
%TO.P,J4,1,Pin_1*%
%TO.N,/SOLAR1+*%
X112025000Y-78450000D03*
%TD*%
%TO.P,J5,1,Pin_1*%
%TO.N,/SOLAR2+*%
X112675000Y-51425000D03*
%TD*%
%TO.P,J2,1,Pin_1*%
%TO.N,GND*%
X77450000Y-78850000D03*
%TD*%
D13*
%TO.P,C4,1*%
%TO.N,VBAT*%
X71920000Y-67500000D03*
%TO.P,C4,2*%
%TO.N,GND*%
X71920000Y-63000000D03*
%TD*%
D12*
%TO.P,J8,1,Pin_1*%
%TO.N,GPS_EN*%
X96350000Y-78875000D03*
D14*
%TO.P,J8,2,Pin_2*%
%TO.N,GPS_UART_MOSI*%
X98890000Y-78875000D03*
%TO.P,J8,3,Pin_3*%
%TO.N,GPS_UART_MISO*%
X101430000Y-78875000D03*
%TO.P,J8,4,Pin_4*%
%TO.N,GND*%
X103970000Y-78875000D03*
%TD*%
D15*
%TO.N,GND*%
X63675000Y-58600000D03*
X75150000Y-54650000D03*
X79725000Y-54325000D03*
X79700000Y-51525000D03*
X72100000Y-51525000D03*
X74600000Y-51575000D03*
X128875000Y-62725000D03*
X115800000Y-68500000D03*
X73700000Y-58150000D03*
X111000000Y-54350000D03*
X115100000Y-54050000D03*
X129400000Y-53450000D03*
X124600000Y-69025000D03*
X63025000Y-77075000D03*
X124325000Y-63200000D03*
X129000000Y-68425000D03*
X82100000Y-79100000D03*
X123050000Y-74525000D03*
X62900000Y-54559500D03*
X63540498Y-59900000D03*
X65925000Y-57675000D03*
X121600000Y-50850000D03*
X70400000Y-57700000D03*
X71925000Y-63050000D03*
X128150000Y-51200000D03*
X89100000Y-72600000D03*
X75300000Y-79000000D03*
X122000000Y-78750000D03*
X129200000Y-75250000D03*
X63540500Y-59900000D03*
X67400000Y-58900000D03*
X73800000Y-63050000D03*
X117850000Y-78700000D03*
X123375000Y-60125000D03*
X80800000Y-72700000D03*
X108200000Y-77250000D03*
X116250000Y-60250000D03*
X122125000Y-75675000D03*
X66100000Y-55100000D03*
X126700000Y-75050000D03*
X115475000Y-61175000D03*
X111100000Y-74515500D03*
X71925000Y-58100000D03*
X107475000Y-79100000D03*
X64775000Y-54650000D03*
X126000000Y-50750000D03*
X117975000Y-76850000D03*
X88900000Y-79100000D03*
X72000000Y-59725000D03*
X128875000Y-58750000D03*
X125800000Y-78750000D03*
X70275000Y-63025000D03*
X129000000Y-78650000D03*
X124650000Y-60925000D03*
X117600000Y-50750000D03*
%TO.N,VDD*%
X52300000Y-75000000D03*
X68725000Y-76325000D03*
X61800000Y-61000000D03*
%TO.N,GPS_UART_MOSI*%
X105675000Y-67100000D03*
%TO.N,GPS_UART_MISO*%
X106875000Y-65425000D03*
%TO.N,VBAT*%
X74325000Y-53650000D03*
%TO.N,VBATSENSE*%
X70675000Y-76900000D03*
X65850000Y-54000000D03*
%TO.N,SPI_MOSI*%
X63734500Y-66923070D03*
X74075000Y-73825000D03*
%TO.N,SPI_CLK*%
X64950000Y-67950000D03*
X74150000Y-75400000D03*
D16*
%TO.N,/SOLAR1+*%
X108300000Y-54675000D03*
D15*
%TO.N,XTAL2*%
X60475000Y-78100000D03*
X67416873Y-77108127D03*
%TO.N,XTAL1*%
X66525000Y-77050000D03*
X61175000Y-77275000D03*
%TO.N,SWCLK*%
X63350000Y-70250000D03*
X54575000Y-71925000D03*
%TO.N,nRESET*%
X53800000Y-75100000D03*
X68275000Y-77175000D03*
%TO.N,SWDIO*%
X64181027Y-69490500D03*
X53100000Y-71550000D03*
%TO.N,GPS_EN*%
X96325000Y-75850000D03*
%TO.N,Button*%
X69750000Y-76725000D03*
X60150000Y-56825000D03*
%TD*%
D17*
%TO.N,VBAT*%
X66425000Y-64250000D02*
X66175000Y-64250000D01*
X69675000Y-67500000D02*
X66425000Y-64250000D01*
X71920000Y-67500000D02*
X69675000Y-67500000D01*
X76225000Y-57775000D02*
X74325000Y-55875000D01*
X74325000Y-55875000D02*
X74325000Y-53650000D01*
X73175000Y-67500000D02*
X76225000Y-64450000D01*
X71920000Y-67500000D02*
X73175000Y-67500000D01*
X76225000Y-64450000D02*
X76225000Y-57775000D01*
D18*
%TO.N,VDD*%
X53875000Y-73425000D02*
X65825000Y-73425000D01*
X65825000Y-73425000D02*
X68725000Y-76325000D01*
X52300000Y-75000000D02*
X53875000Y-73425000D01*
D19*
%TO.N,GPS_UART_MOSI*%
X98890000Y-78875000D02*
X105675000Y-72090000D01*
X105675000Y-72090000D02*
X105675000Y-67100000D01*
%TO.N,GPS_UART_MISO*%
X106875000Y-73430000D02*
X106875000Y-65425000D01*
X101430000Y-78875000D02*
X106875000Y-73430000D01*
D18*
%TO.N,VBATSENSE*%
X64526066Y-68571499D02*
X60975000Y-65020433D01*
X60975000Y-65020433D02*
X60975000Y-54950000D01*
X70675000Y-76900000D02*
X70675000Y-73025000D01*
X60975000Y-54950000D02*
X61925000Y-54000000D01*
X61925000Y-54000000D02*
X65850000Y-54000000D01*
X66221499Y-68571499D02*
X64526066Y-68571499D01*
X70675000Y-73025000D02*
X66221499Y-68571499D01*
%TO.N,SPI_MOSI*%
X74075000Y-73825000D02*
X72625000Y-73825000D01*
X72625000Y-73825000D02*
X65723070Y-66923070D01*
X65723070Y-66923070D02*
X63734500Y-66923070D01*
%TO.N,SPI_CLK*%
X66150000Y-67950000D02*
X64950000Y-67950000D01*
X73600000Y-75400000D02*
X66150000Y-67950000D01*
X74150000Y-75400000D02*
X73600000Y-75400000D01*
D20*
%TO.N,/SOLAR1+*%
X108300000Y-74725000D02*
X112025000Y-78450000D01*
X108300000Y-54675000D02*
X108300000Y-74725000D01*
D18*
%TO.N,XTAL2*%
X66350000Y-78175000D02*
X60550000Y-78175000D01*
X60550000Y-78175000D02*
X60475000Y-78100000D01*
X67416873Y-77108127D02*
X66350000Y-78175000D01*
%TO.N,XTAL1*%
X65925000Y-77650000D02*
X61550000Y-77650000D01*
X66525000Y-77050000D02*
X65925000Y-77650000D01*
X61550000Y-77650000D02*
X61175000Y-77275000D01*
%TO.N,SWCLK*%
X63350000Y-70250000D02*
X62315499Y-71284501D01*
X55215499Y-71284501D02*
X54575000Y-71925000D01*
X62315499Y-71284501D02*
X55215499Y-71284501D01*
%TO.N,nRESET*%
X68275000Y-77175000D02*
X66750000Y-75650000D01*
X66750000Y-75650000D02*
X54350000Y-75650000D01*
X54350000Y-75650000D02*
X53800000Y-75100000D01*
%TO.N,SWDIO*%
X53100000Y-71550000D02*
X53725000Y-70925000D01*
X61575000Y-70925000D02*
X63009500Y-69490500D01*
X63009500Y-69490500D02*
X64181027Y-69490500D01*
X53725000Y-70925000D02*
X61575000Y-70925000D01*
D19*
%TO.N,GPS_EN*%
X96350000Y-75875000D02*
X96325000Y-75850000D01*
X96350000Y-78875000D02*
X96350000Y-75875000D01*
D18*
%TO.N,Button*%
X69750000Y-72608412D02*
X66072588Y-68931000D01*
X64206000Y-68931000D02*
X60150000Y-64875000D01*
X69750000Y-76725000D02*
X69750000Y-72608412D01*
X60150000Y-64875000D02*
X60150000Y-56825000D01*
X66072588Y-68931000D02*
X64206000Y-68931000D01*
%TD*%
%TA.AperFunction,Conductor*%
%TO.N,GND*%
G36*
X126985402Y-50202382D02*
G01*
X126989208Y-50203257D01*
X126999641Y-50205656D01*
X127007768Y-50203817D01*
X127007769Y-50203817D01*
X127007847Y-50203799D01*
X127028326Y-50202091D01*
X127127227Y-50207645D01*
X127309312Y-50217871D01*
X127317542Y-50218799D01*
X127555580Y-50259243D01*
X127618844Y-50269992D01*
X127626935Y-50271838D01*
X127920623Y-50356449D01*
X127928455Y-50359190D01*
X128210816Y-50476147D01*
X128218293Y-50479747D01*
X128468988Y-50618301D01*
X128485784Y-50627584D01*
X128492811Y-50632000D01*
X128742076Y-50808863D01*
X128748564Y-50814037D01*
X128962030Y-51004802D01*
X128976447Y-51017686D01*
X128982314Y-51023553D01*
X129185963Y-51251436D01*
X129191137Y-51257924D01*
X129368000Y-51507189D01*
X129372416Y-51514216D01*
X129520253Y-51781707D01*
X129523853Y-51789184D01*
X129640810Y-52071545D01*
X129643551Y-52079377D01*
X129728162Y-52373065D01*
X129730008Y-52381156D01*
X129778235Y-52664998D01*
X129781200Y-52682450D01*
X129782130Y-52690696D01*
X129797883Y-52971199D01*
X129796213Y-52990800D01*
X129796212Y-52991519D01*
X129794344Y-52999641D01*
X129796183Y-53007768D01*
X129796183Y-53007770D01*
X129797675Y-53014362D01*
X129799500Y-53030694D01*
X129799500Y-77968819D01*
X129797618Y-77985402D01*
X129794344Y-77999641D01*
X129796184Y-78007772D01*
X129796181Y-78009324D01*
X129797658Y-78028093D01*
X129784422Y-78230046D01*
X129783158Y-78239642D01*
X129774716Y-78282083D01*
X129739494Y-78459162D01*
X129739131Y-78460985D01*
X129736628Y-78470330D01*
X129667603Y-78673669D01*
X129664080Y-78684047D01*
X129660377Y-78692987D01*
X129633248Y-78748000D01*
X129560558Y-78895400D01*
X129555718Y-78903783D01*
X129430331Y-79091437D01*
X129424438Y-79099116D01*
X129275637Y-79268792D01*
X129268792Y-79275637D01*
X129099116Y-79424438D01*
X129091437Y-79430331D01*
X128903783Y-79555718D01*
X128895400Y-79560558D01*
X128798650Y-79608270D01*
X128693472Y-79660138D01*
X128692989Y-79660376D01*
X128684050Y-79664079D01*
X128470330Y-79736628D01*
X128460988Y-79739130D01*
X128350313Y-79761145D01*
X128239642Y-79783158D01*
X128230046Y-79784422D01*
X128028563Y-79797628D01*
X128011026Y-79796216D01*
X128008480Y-79796212D01*
X128000359Y-79794344D01*
X127992232Y-79796183D01*
X127992230Y-79796183D01*
X127985638Y-79797675D01*
X127969306Y-79799500D01*
X104707162Y-79799500D01*
X104659596Y-79782187D01*
X104634286Y-79738350D01*
X104643076Y-79688500D01*
X104661603Y-79667187D01*
X104694751Y-79641289D01*
X104699970Y-79636319D01*
X104829791Y-79485920D01*
X104833939Y-79480040D01*
X104932078Y-79307283D01*
X104935006Y-79300708D01*
X104997719Y-79112189D01*
X104999316Y-79105155D01*
X105010713Y-79014946D01*
X105008356Y-79004573D01*
X105004966Y-79002000D01*
X102939971Y-79002000D01*
X102929975Y-79005638D01*
X102927577Y-79009792D01*
X102931949Y-79061854D01*
X102933250Y-79068942D01*
X102988013Y-79259922D01*
X102990663Y-79266617D01*
X103081479Y-79443326D01*
X103085384Y-79449384D01*
X103208789Y-79605083D01*
X103213794Y-79610267D01*
X103282977Y-79669146D01*
X103307980Y-79713159D01*
X103298842Y-79762947D01*
X103259839Y-79795212D01*
X103235016Y-79799500D01*
X102167975Y-79799500D01*
X102120409Y-79782187D01*
X102095099Y-79738350D01*
X102103889Y-79688500D01*
X102122416Y-79667187D01*
X102155098Y-79641653D01*
X102157951Y-79639424D01*
X102182817Y-79610616D01*
X102290201Y-79486210D01*
X102290203Y-79486208D01*
X102292564Y-79483472D01*
X102294347Y-79480333D01*
X102294350Y-79480329D01*
X102355820Y-79372122D01*
X102394323Y-79304344D01*
X102404937Y-79272439D01*
X102458208Y-79112299D01*
X102459351Y-79108863D01*
X102459820Y-79105155D01*
X102484913Y-78906519D01*
X102484913Y-78906513D01*
X102485171Y-78904474D01*
X102485583Y-78875000D01*
X102476439Y-78781734D01*
X102471860Y-78735034D01*
X102929069Y-78735034D01*
X102931571Y-78745372D01*
X102935136Y-78748000D01*
X103829952Y-78748000D01*
X103839948Y-78744362D01*
X103843000Y-78739075D01*
X103843000Y-78734952D01*
X104097000Y-78734952D01*
X104100638Y-78744948D01*
X104105925Y-78748000D01*
X104999580Y-78748000D01*
X105009576Y-78744362D01*
X105011880Y-78740371D01*
X105005340Y-78673669D01*
X105003941Y-78666602D01*
X104946516Y-78476403D01*
X104943772Y-78469745D01*
X104850498Y-78294322D01*
X104846512Y-78288323D01*
X104720942Y-78134358D01*
X104715866Y-78129247D01*
X104562789Y-78002610D01*
X104556804Y-77998573D01*
X104382043Y-77904081D01*
X104375405Y-77901290D01*
X104185612Y-77842540D01*
X104178552Y-77841091D01*
X104109977Y-77833883D01*
X104099657Y-77836456D01*
X104097000Y-77840113D01*
X104097000Y-78734952D01*
X103843000Y-78734952D01*
X103843000Y-77845221D01*
X103839362Y-77835225D01*
X103835290Y-77832875D01*
X103775912Y-77838278D01*
X103768818Y-77839631D01*
X103578231Y-77895724D01*
X103571555Y-77898422D01*
X103395483Y-77990469D01*
X103389456Y-77994413D01*
X103234619Y-78118906D01*
X103229471Y-78123947D01*
X103101765Y-78276140D01*
X103097696Y-78282083D01*
X103001980Y-78456191D01*
X102999144Y-78462808D01*
X102939071Y-78652181D01*
X102937571Y-78659237D01*
X102929069Y-78735034D01*
X102471860Y-78735034D01*
X102465833Y-78673570D01*
X102465480Y-78669970D01*
X102405935Y-78472749D01*
X102392290Y-78447087D01*
X102385246Y-78396964D01*
X102405303Y-78360023D01*
X107092832Y-73672494D01*
X107097592Y-73668133D01*
X107128194Y-73642455D01*
X107148172Y-73607851D01*
X107151638Y-73602411D01*
X107170841Y-73574987D01*
X107170842Y-73574986D01*
X107174554Y-73569684D01*
X107176229Y-73563432D01*
X107178351Y-73558882D01*
X107180639Y-73553358D01*
X107182353Y-73548647D01*
X107185588Y-73543045D01*
X107192525Y-73503703D01*
X107193922Y-73497401D01*
X107202588Y-73465060D01*
X107204264Y-73458807D01*
X107202966Y-73443963D01*
X107200782Y-73419005D01*
X107200500Y-73412556D01*
X107200500Y-65839790D01*
X107219637Y-65790131D01*
X107246822Y-65760097D01*
X107294200Y-65707754D01*
X107356710Y-65578733D01*
X107380496Y-65437354D01*
X107380647Y-65425000D01*
X107360323Y-65283082D01*
X107300984Y-65152572D01*
X107242315Y-65084484D01*
X107210840Y-65047955D01*
X107210839Y-65047954D01*
X107207400Y-65043963D01*
X107202981Y-65041099D01*
X107202979Y-65041097D01*
X107153906Y-65009290D01*
X107087095Y-64965985D01*
X106983168Y-64934904D01*
X106954792Y-64926418D01*
X106954791Y-64926418D01*
X106949739Y-64924907D01*
X106876103Y-64924457D01*
X106811646Y-64924063D01*
X106811645Y-64924063D01*
X106806376Y-64924031D01*
X106668529Y-64963428D01*
X106547280Y-65039930D01*
X106452377Y-65147388D01*
X106391447Y-65277163D01*
X106369391Y-65418823D01*
X106370074Y-65424046D01*
X106370074Y-65424049D01*
X106370573Y-65427862D01*
X106387980Y-65560979D01*
X106445720Y-65692203D01*
X106449112Y-65696238D01*
X106532146Y-65795019D01*
X106549500Y-65842635D01*
X106549500Y-73264522D01*
X106532187Y-73312088D01*
X106527826Y-73316848D01*
X101945379Y-77899295D01*
X101899503Y-77920687D01*
X101857857Y-77912063D01*
X101842238Y-77903618D01*
X101839055Y-77901897D01*
X101835605Y-77900829D01*
X101835600Y-77900827D01*
X101664612Y-77847898D01*
X101642254Y-77840977D01*
X101437369Y-77819443D01*
X101433765Y-77819771D01*
X101433764Y-77819771D01*
X101394151Y-77823376D01*
X101232203Y-77838114D01*
X101198960Y-77847898D01*
X101038043Y-77895258D01*
X101038039Y-77895260D01*
X101034572Y-77896280D01*
X100949594Y-77940706D01*
X100855209Y-77990049D01*
X100855206Y-77990051D01*
X100852002Y-77991726D01*
X100849184Y-77993992D01*
X100849182Y-77993993D01*
X100694266Y-78118548D01*
X100694263Y-78118551D01*
X100691447Y-78120815D01*
X100689121Y-78123587D01*
X100689119Y-78123589D01*
X100561351Y-78275856D01*
X100561348Y-78275860D01*
X100559024Y-78278630D01*
X100459776Y-78459162D01*
X100458614Y-78462826D01*
X100426501Y-78564060D01*
X100397484Y-78655532D01*
X100397081Y-78659123D01*
X100397081Y-78659124D01*
X100395461Y-78673570D01*
X100374520Y-78860262D01*
X100374823Y-78863871D01*
X100374823Y-78863873D01*
X100387509Y-79014946D01*
X100391759Y-79065553D01*
X100448544Y-79263586D01*
X100450196Y-79266800D01*
X100450197Y-79266803D01*
X100540917Y-79443326D01*
X100542712Y-79446818D01*
X100670677Y-79608270D01*
X100673430Y-79610613D01*
X100673433Y-79610616D01*
X100742206Y-79669146D01*
X100767209Y-79713159D01*
X100758071Y-79762947D01*
X100719068Y-79795212D01*
X100694245Y-79799500D01*
X99627975Y-79799500D01*
X99580409Y-79782187D01*
X99555099Y-79738350D01*
X99563889Y-79688500D01*
X99582416Y-79667187D01*
X99615098Y-79641653D01*
X99617951Y-79639424D01*
X99642817Y-79610616D01*
X99750201Y-79486210D01*
X99750203Y-79486208D01*
X99752564Y-79483472D01*
X99754347Y-79480333D01*
X99754350Y-79480329D01*
X99815820Y-79372122D01*
X99854323Y-79304344D01*
X99864937Y-79272439D01*
X99918208Y-79112299D01*
X99919351Y-79108863D01*
X99919820Y-79105155D01*
X99944913Y-78906519D01*
X99944913Y-78906513D01*
X99945171Y-78904474D01*
X99945583Y-78875000D01*
X99936439Y-78781734D01*
X99925833Y-78673570D01*
X99925480Y-78669970D01*
X99865935Y-78472749D01*
X99852290Y-78447087D01*
X99845246Y-78396964D01*
X99865303Y-78360023D01*
X105892832Y-72332494D01*
X105897592Y-72328133D01*
X105911093Y-72316804D01*
X105928194Y-72302455D01*
X105948172Y-72267851D01*
X105951638Y-72262411D01*
X105970841Y-72234987D01*
X105970842Y-72234986D01*
X105974554Y-72229684D01*
X105976229Y-72223432D01*
X105978351Y-72218882D01*
X105980639Y-72213358D01*
X105982353Y-72208647D01*
X105985588Y-72203045D01*
X105986789Y-72196238D01*
X105992524Y-72163706D01*
X105993922Y-72157401D01*
X106002588Y-72125060D01*
X106004264Y-72118807D01*
X106000782Y-72079009D01*
X106000500Y-72072559D01*
X106000500Y-67514790D01*
X106019637Y-67465131D01*
X106046822Y-67435097D01*
X106094200Y-67382754D01*
X106156710Y-67253733D01*
X106180496Y-67112354D01*
X106180647Y-67100000D01*
X106160323Y-66958082D01*
X106100984Y-66827572D01*
X106030079Y-66745283D01*
X106010840Y-66722955D01*
X106010839Y-66722954D01*
X106007400Y-66718963D01*
X106002981Y-66716099D01*
X106002979Y-66716097D01*
X105930804Y-66669316D01*
X105887095Y-66640985D01*
X105783168Y-66609904D01*
X105754792Y-66601418D01*
X105754791Y-66601418D01*
X105749739Y-66599907D01*
X105676103Y-66599457D01*
X105611646Y-66599063D01*
X105611645Y-66599063D01*
X105606376Y-66599031D01*
X105468529Y-66638428D01*
X105347280Y-66714930D01*
X105252377Y-66822388D01*
X105191447Y-66952163D01*
X105169391Y-67093823D01*
X105170074Y-67099046D01*
X105170074Y-67099049D01*
X105170573Y-67102862D01*
X105187980Y-67235979D01*
X105245720Y-67367203D01*
X105331683Y-67469468D01*
X105332146Y-67470019D01*
X105349500Y-67517635D01*
X105349500Y-71924522D01*
X105332187Y-71972088D01*
X105327826Y-71976848D01*
X99405379Y-77899295D01*
X99359503Y-77920687D01*
X99317857Y-77912063D01*
X99302238Y-77903618D01*
X99299055Y-77901897D01*
X99295605Y-77900829D01*
X99295600Y-77900827D01*
X99124612Y-77847898D01*
X99102254Y-77840977D01*
X98897369Y-77819443D01*
X98893765Y-77819771D01*
X98893764Y-77819771D01*
X98854151Y-77823376D01*
X98692203Y-77838114D01*
X98658960Y-77847898D01*
X98498043Y-77895258D01*
X98498039Y-77895260D01*
X98494572Y-77896280D01*
X98409594Y-77940706D01*
X98315209Y-77990049D01*
X98315206Y-77990051D01*
X98312002Y-77991726D01*
X98309184Y-77993992D01*
X98309182Y-77993993D01*
X98154266Y-78118548D01*
X98154263Y-78118551D01*
X98151447Y-78120815D01*
X98149121Y-78123587D01*
X98149119Y-78123589D01*
X98021351Y-78275856D01*
X98021348Y-78275860D01*
X98019024Y-78278630D01*
X97919776Y-78459162D01*
X97918614Y-78462826D01*
X97886501Y-78564060D01*
X97857484Y-78655532D01*
X97857081Y-78659123D01*
X97857081Y-78659124D01*
X97855461Y-78673570D01*
X97834520Y-78860262D01*
X97834823Y-78863871D01*
X97834823Y-78863873D01*
X97847509Y-79014946D01*
X97851759Y-79065553D01*
X97908544Y-79263586D01*
X97910196Y-79266800D01*
X97910197Y-79266803D01*
X98000917Y-79443326D01*
X98002712Y-79446818D01*
X98130677Y-79608270D01*
X98133430Y-79610613D01*
X98133433Y-79610616D01*
X98202206Y-79669146D01*
X98227209Y-79713159D01*
X98218071Y-79762947D01*
X98179068Y-79795212D01*
X98154245Y-79799500D01*
X97474500Y-79799500D01*
X97426934Y-79782187D01*
X97401624Y-79738350D01*
X97400500Y-79725500D01*
X97400500Y-78005252D01*
X97399172Y-77998573D01*
X97392671Y-77965893D01*
X97388867Y-77946769D01*
X97377068Y-77929110D01*
X97348602Y-77886509D01*
X97344552Y-77880448D01*
X97301617Y-77851759D01*
X97284294Y-77840184D01*
X97284293Y-77840184D01*
X97278231Y-77836133D01*
X97232025Y-77826942D01*
X97223318Y-77825210D01*
X97223317Y-77825210D01*
X97219748Y-77824500D01*
X96749500Y-77824500D01*
X96701934Y-77807187D01*
X96676624Y-77763350D01*
X96675500Y-77750500D01*
X96675500Y-76237170D01*
X96694637Y-76187511D01*
X96710810Y-76169643D01*
X96744200Y-76132754D01*
X96806710Y-76003733D01*
X96830496Y-75862354D01*
X96830647Y-75850000D01*
X96821358Y-75785135D01*
X96811070Y-75713297D01*
X96811070Y-75713296D01*
X96810323Y-75708082D01*
X96750984Y-75577572D01*
X96694925Y-75512512D01*
X96660840Y-75472955D01*
X96660839Y-75472954D01*
X96657400Y-75468963D01*
X96652981Y-75466099D01*
X96652979Y-75466097D01*
X96601646Y-75432825D01*
X96537095Y-75390985D01*
X96433168Y-75359904D01*
X96404792Y-75351418D01*
X96404791Y-75351418D01*
X96399739Y-75349907D01*
X96326103Y-75349457D01*
X96261646Y-75349063D01*
X96261645Y-75349063D01*
X96256376Y-75349031D01*
X96118529Y-75388428D01*
X96114069Y-75391242D01*
X96100188Y-75400000D01*
X95997280Y-75464930D01*
X95964830Y-75501673D01*
X95915118Y-75557962D01*
X95902377Y-75572388D01*
X95841447Y-75702163D01*
X95819391Y-75843823D01*
X95820074Y-75849046D01*
X95820074Y-75849049D01*
X95824820Y-75885343D01*
X95837980Y-75985979D01*
X95895720Y-76117203D01*
X95899112Y-76121238D01*
X95984580Y-76222916D01*
X95984583Y-76222919D01*
X95987970Y-76226948D01*
X95992356Y-76229867D01*
X95996287Y-76233382D01*
X95995311Y-76234473D01*
X96021507Y-76270068D01*
X96024500Y-76290901D01*
X96024500Y-77750500D01*
X96007187Y-77798066D01*
X95963350Y-77823376D01*
X95950500Y-77824500D01*
X95480252Y-77824500D01*
X95476683Y-77825210D01*
X95476682Y-77825210D01*
X95467975Y-77826942D01*
X95421769Y-77836133D01*
X95415707Y-77840184D01*
X95415706Y-77840184D01*
X95398383Y-77851759D01*
X95355448Y-77880448D01*
X95351398Y-77886509D01*
X95322933Y-77929110D01*
X95311133Y-77946769D01*
X95307329Y-77965893D01*
X95300829Y-77998573D01*
X95299500Y-78005252D01*
X95299500Y-79725500D01*
X95282187Y-79773066D01*
X95238350Y-79798376D01*
X95225500Y-79799500D01*
X78573429Y-79799500D01*
X78525863Y-79782187D01*
X78500553Y-79738350D01*
X78499785Y-79718252D01*
X78500000Y-79716067D01*
X78500000Y-78990048D01*
X78496362Y-78980052D01*
X78491075Y-78977000D01*
X76413048Y-78977000D01*
X76403052Y-78980638D01*
X76400000Y-78985925D01*
X76400000Y-79716067D01*
X76400215Y-79718252D01*
X76400000Y-79719091D01*
X76400000Y-79719698D01*
X76399844Y-79719698D01*
X76387644Y-79767286D01*
X76346497Y-79796767D01*
X76326571Y-79799500D01*
X51031181Y-79799500D01*
X51014598Y-79797618D01*
X51009953Y-79796550D01*
X51000359Y-79794344D01*
X50992229Y-79796184D01*
X50983900Y-79796169D01*
X50983900Y-79796076D01*
X50972466Y-79796788D01*
X50851279Y-79784852D01*
X50837051Y-79782022D01*
X50761612Y-79759138D01*
X50701013Y-79740756D01*
X50687621Y-79735208D01*
X50562246Y-79668194D01*
X50550190Y-79660138D01*
X50440302Y-79569956D01*
X50430044Y-79559698D01*
X50428990Y-79558413D01*
X50339862Y-79449810D01*
X50331806Y-79437754D01*
X50264792Y-79312379D01*
X50259243Y-79298984D01*
X50217978Y-79162949D01*
X50215148Y-79148721D01*
X50203280Y-79028220D01*
X50204526Y-79009001D01*
X50204229Y-79008967D01*
X50204708Y-79004804D01*
X50205655Y-79000718D01*
X50205656Y-79000000D01*
X50202353Y-78985520D01*
X50200500Y-78969063D01*
X50200500Y-78709952D01*
X76400000Y-78709952D01*
X76403638Y-78719948D01*
X76408925Y-78723000D01*
X77309952Y-78723000D01*
X77319948Y-78719362D01*
X77323000Y-78714075D01*
X77323000Y-78709952D01*
X77577000Y-78709952D01*
X77580638Y-78719948D01*
X77585925Y-78723000D01*
X78486952Y-78723000D01*
X78496948Y-78719362D01*
X78500000Y-78714075D01*
X78500000Y-77983942D01*
X78499290Y-77976732D01*
X78489818Y-77929110D01*
X78484348Y-77915906D01*
X78448241Y-77861868D01*
X78438132Y-77851759D01*
X78384094Y-77815652D01*
X78370890Y-77810182D01*
X78323268Y-77800710D01*
X78316058Y-77800000D01*
X77590048Y-77800000D01*
X77580052Y-77803638D01*
X77577000Y-77808925D01*
X77577000Y-78709952D01*
X77323000Y-78709952D01*
X77323000Y-77813048D01*
X77319362Y-77803052D01*
X77314075Y-77800000D01*
X76583942Y-77800000D01*
X76576732Y-77800710D01*
X76529110Y-77810182D01*
X76515906Y-77815652D01*
X76461868Y-77851759D01*
X76451759Y-77861868D01*
X76415652Y-77915906D01*
X76410182Y-77929110D01*
X76400710Y-77976732D01*
X76400000Y-77983942D01*
X76400000Y-78709952D01*
X50200500Y-78709952D01*
X50200500Y-74993823D01*
X51794391Y-74993823D01*
X51795074Y-74999046D01*
X51795074Y-74999049D01*
X51797678Y-75018963D01*
X51812980Y-75135979D01*
X51870720Y-75267203D01*
X51874112Y-75271238D01*
X51959580Y-75372916D01*
X51959583Y-75372919D01*
X51962970Y-75376948D01*
X51984980Y-75391599D01*
X52077924Y-75453469D01*
X52077927Y-75453470D01*
X52082313Y-75456390D01*
X52219157Y-75499142D01*
X52224425Y-75499239D01*
X52224428Y-75499239D01*
X52284733Y-75500344D01*
X52362499Y-75501770D01*
X52367582Y-75500384D01*
X52367584Y-75500384D01*
X52495727Y-75465448D01*
X52495729Y-75465447D01*
X52500817Y-75464060D01*
X52587297Y-75410961D01*
X52618498Y-75391804D01*
X52618499Y-75391803D01*
X52622991Y-75389045D01*
X52719200Y-75282754D01*
X52781710Y-75153733D01*
X52805496Y-75012354D01*
X52805647Y-75000000D01*
X52804763Y-74993823D01*
X52803609Y-74985769D01*
X52800788Y-74966072D01*
X52811183Y-74916533D01*
X52821715Y-74903256D01*
X53398202Y-74326770D01*
X53977798Y-73747174D01*
X54023675Y-73725782D01*
X54030124Y-73725500D01*
X55894740Y-73725500D01*
X55942306Y-73742813D01*
X55967616Y-73786650D01*
X55958826Y-73836500D01*
X55948462Y-73850391D01*
X55838749Y-73966207D01*
X55836593Y-73969918D01*
X55836592Y-73969920D01*
X55803640Y-74026651D01*
X55751401Y-74116588D01*
X55700990Y-74283031D01*
X55700724Y-74287316D01*
X55700724Y-74287317D01*
X55698277Y-74326770D01*
X55690222Y-74456607D01*
X55690951Y-74460848D01*
X55717427Y-74614930D01*
X55719673Y-74628004D01*
X55721355Y-74631957D01*
X55785459Y-74782609D01*
X55787765Y-74788029D01*
X55790310Y-74791487D01*
X55882333Y-74916533D01*
X55890843Y-74928097D01*
X55894114Y-74930876D01*
X55894116Y-74930878D01*
X55993343Y-75015177D01*
X56023380Y-75040695D01*
X56178265Y-75119783D01*
X56347190Y-75161119D01*
X56358167Y-75161800D01*
X56483547Y-75161800D01*
X56485672Y-75161552D01*
X56485676Y-75161552D01*
X56608468Y-75147236D01*
X56608469Y-75147236D01*
X56612739Y-75146738D01*
X56629090Y-75140803D01*
X56772166Y-75088869D01*
X56772169Y-75088868D01*
X56776212Y-75087400D01*
X56921650Y-74992047D01*
X57041251Y-74865793D01*
X57046144Y-74857370D01*
X57126441Y-74719127D01*
X57128599Y-74715412D01*
X57179010Y-74548969D01*
X57179754Y-74536979D01*
X57189512Y-74379687D01*
X57189512Y-74379684D01*
X57189778Y-74375393D01*
X57160327Y-74203996D01*
X57123134Y-74116588D01*
X57093917Y-74047923D01*
X57093915Y-74047920D01*
X57092235Y-74043971D01*
X57047719Y-73983480D01*
X56991703Y-73907362D01*
X56991701Y-73907360D01*
X56989157Y-73903903D01*
X56932649Y-73855896D01*
X56907608Y-73811905D01*
X56916702Y-73762109D01*
X56955677Y-73729809D01*
X56980561Y-73725500D01*
X65669877Y-73725500D01*
X65717443Y-73742813D01*
X65722203Y-73747174D01*
X68202847Y-76227819D01*
X68224239Y-76273695D01*
X68223640Y-76291528D01*
X68220955Y-76308776D01*
X68219391Y-76318823D01*
X68220074Y-76324046D01*
X68220074Y-76324049D01*
X68222678Y-76343963D01*
X68237980Y-76460979D01*
X68277143Y-76549983D01*
X68280454Y-76600493D01*
X68250522Y-76641315D01*
X68201354Y-76653346D01*
X68157084Y-76632112D01*
X67001070Y-75476099D01*
X66997485Y-75471946D01*
X66995425Y-75467731D01*
X66958818Y-75433773D01*
X66956819Y-75431848D01*
X66942723Y-75417752D01*
X66939912Y-75415824D01*
X66937293Y-75413647D01*
X66937403Y-75413515D01*
X66934227Y-75410961D01*
X66918364Y-75396246D01*
X66918363Y-75396245D01*
X66913354Y-75391599D01*
X66907012Y-75389069D01*
X66907006Y-75389065D01*
X66900077Y-75386301D01*
X66885641Y-75378593D01*
X66879493Y-75374376D01*
X66879492Y-75374375D01*
X66873854Y-75370508D01*
X66867204Y-75368930D01*
X66867202Y-75368929D01*
X66846160Y-75363936D01*
X66835824Y-75360668D01*
X66833932Y-75359913D01*
X66809378Y-75350117D01*
X66803085Y-75349500D01*
X66793988Y-75349500D01*
X66776901Y-75347500D01*
X66771585Y-75346238D01*
X66771583Y-75346238D01*
X66764934Y-75344660D01*
X66744066Y-75347500D01*
X66734337Y-75348824D01*
X66724358Y-75349500D01*
X54505123Y-75349500D01*
X54457557Y-75332187D01*
X54452797Y-75327826D01*
X54322657Y-75197686D01*
X54301265Y-75151810D01*
X54302008Y-75133084D01*
X54302128Y-75132371D01*
X54305496Y-75112354D01*
X54305647Y-75100000D01*
X54296755Y-75037911D01*
X54286070Y-74963297D01*
X54286070Y-74963296D01*
X54285323Y-74958082D01*
X54225984Y-74827572D01*
X54169925Y-74762512D01*
X54135840Y-74722955D01*
X54135839Y-74722954D01*
X54132400Y-74718963D01*
X54127981Y-74716099D01*
X54127979Y-74716097D01*
X54088068Y-74690228D01*
X54012095Y-74640985D01*
X53908168Y-74609904D01*
X53879792Y-74601418D01*
X53879791Y-74601418D01*
X53874739Y-74599907D01*
X53801103Y-74599457D01*
X53736646Y-74599063D01*
X53736645Y-74599063D01*
X53731376Y-74599031D01*
X53593529Y-74638428D01*
X53472280Y-74714930D01*
X53465193Y-74722955D01*
X53404668Y-74791487D01*
X53377377Y-74822388D01*
X53316447Y-74952163D01*
X53315637Y-74957368D01*
X53315636Y-74957370D01*
X53310237Y-74992047D01*
X53294391Y-75093823D01*
X53295074Y-75099046D01*
X53295074Y-75099049D01*
X53301545Y-75148531D01*
X53312980Y-75235979D01*
X53331474Y-75278010D01*
X53367845Y-75360668D01*
X53370720Y-75367203D01*
X53387343Y-75386979D01*
X53459580Y-75472916D01*
X53459583Y-75472919D01*
X53462970Y-75476948D01*
X53467357Y-75479868D01*
X53577924Y-75553469D01*
X53577927Y-75553470D01*
X53582313Y-75556390D01*
X53719157Y-75599142D01*
X53724425Y-75599239D01*
X53724428Y-75599239D01*
X53847212Y-75601490D01*
X53898181Y-75623152D01*
X54098930Y-75823901D01*
X54102515Y-75828054D01*
X54104575Y-75832269D01*
X54127429Y-75853469D01*
X54141181Y-75866226D01*
X54143181Y-75868152D01*
X54157276Y-75882247D01*
X54160087Y-75884175D01*
X54162712Y-75886356D01*
X54162607Y-75886482D01*
X54165777Y-75889042D01*
X54181637Y-75903755D01*
X54181639Y-75903756D01*
X54186646Y-75908401D01*
X54192990Y-75910932D01*
X54192993Y-75910934D01*
X54199923Y-75913699D01*
X54214359Y-75921407D01*
X54220507Y-75925624D01*
X54226146Y-75929492D01*
X54232796Y-75931070D01*
X54232798Y-75931071D01*
X54253840Y-75936064D01*
X54264176Y-75939332D01*
X54290622Y-75949883D01*
X54296915Y-75950500D01*
X54306012Y-75950500D01*
X54323099Y-75952500D01*
X54328415Y-75953762D01*
X54328417Y-75953762D01*
X54335066Y-75955340D01*
X54365663Y-75951176D01*
X54375642Y-75950500D01*
X66594877Y-75950500D01*
X66642443Y-75967813D01*
X66647203Y-75972174D01*
X67213083Y-76538054D01*
X67234475Y-76583930D01*
X67221374Y-76632825D01*
X67200244Y-76652964D01*
X67164257Y-76675670D01*
X67089153Y-76723057D01*
X67053615Y-76763297D01*
X67051594Y-76765585D01*
X67007130Y-76789778D01*
X66957519Y-76779729D01*
X66940068Y-76764904D01*
X66938684Y-76763297D01*
X66857400Y-76668963D01*
X66852981Y-76666099D01*
X66852979Y-76666097D01*
X66801646Y-76632825D01*
X66737095Y-76590985D01*
X66633168Y-76559904D01*
X66604792Y-76551418D01*
X66604791Y-76551418D01*
X66599739Y-76549907D01*
X66526103Y-76549457D01*
X66461646Y-76549063D01*
X66461645Y-76549063D01*
X66456376Y-76549031D01*
X66318529Y-76588428D01*
X66197280Y-76664930D01*
X66151467Y-76716804D01*
X66108987Y-76764904D01*
X66102377Y-76772388D01*
X66041447Y-76902163D01*
X66019391Y-77043823D01*
X66020074Y-77049046D01*
X66020074Y-77049049D01*
X66024704Y-77084453D01*
X66013705Y-77133863D01*
X66003655Y-77146374D01*
X65822203Y-77327826D01*
X65776327Y-77349218D01*
X65769877Y-77349500D01*
X61754615Y-77349500D01*
X61707049Y-77332187D01*
X61681739Y-77288350D01*
X61680771Y-77280304D01*
X61680612Y-77277860D01*
X61680647Y-77275000D01*
X61680242Y-77272171D01*
X61661070Y-77138297D01*
X61661070Y-77138296D01*
X61660323Y-77133082D01*
X61628924Y-77064022D01*
X61603166Y-77007371D01*
X61600984Y-77002572D01*
X61507400Y-76893963D01*
X61502981Y-76891099D01*
X61502979Y-76891097D01*
X61448448Y-76855752D01*
X61387095Y-76815985D01*
X61265863Y-76779729D01*
X61254792Y-76776418D01*
X61254791Y-76776418D01*
X61249739Y-76774907D01*
X61176103Y-76774457D01*
X61111646Y-76774063D01*
X61111645Y-76774063D01*
X61106376Y-76774031D01*
X60968529Y-76813428D01*
X60847280Y-76889930D01*
X60827476Y-76912354D01*
X60764882Y-76983229D01*
X60752377Y-76997388D01*
X60691447Y-77127163D01*
X60669391Y-77268823D01*
X60670074Y-77274046D01*
X60670074Y-77274049D01*
X60677225Y-77328733D01*
X60687980Y-77410979D01*
X60716151Y-77475002D01*
X60740155Y-77529556D01*
X60743466Y-77580066D01*
X60713534Y-77620888D01*
X60664366Y-77632919D01*
X60651221Y-77630256D01*
X60603459Y-77615973D01*
X60554792Y-77601418D01*
X60554791Y-77601418D01*
X60549739Y-77599907D01*
X60476103Y-77599457D01*
X60411646Y-77599063D01*
X60411645Y-77599063D01*
X60406376Y-77599031D01*
X60268529Y-77638428D01*
X60147280Y-77714930D01*
X60115866Y-77750500D01*
X60060626Y-77813048D01*
X60052377Y-77822388D01*
X59991447Y-77952163D01*
X59990637Y-77957368D01*
X59990636Y-77957370D01*
X59983181Y-78005252D01*
X59969391Y-78093823D01*
X59970074Y-78099046D01*
X59970074Y-78099049D01*
X59977412Y-78155164D01*
X59987980Y-78235979D01*
X60045720Y-78367203D01*
X60049112Y-78371238D01*
X60134580Y-78472916D01*
X60134583Y-78472919D01*
X60137970Y-78476948D01*
X60175896Y-78502194D01*
X60252924Y-78553469D01*
X60252927Y-78553470D01*
X60257313Y-78556390D01*
X60394157Y-78599142D01*
X60399425Y-78599239D01*
X60399428Y-78599239D01*
X60459733Y-78600344D01*
X60537499Y-78601770D01*
X60542582Y-78600384D01*
X60542584Y-78600384D01*
X60670727Y-78565448D01*
X60670729Y-78565447D01*
X60675817Y-78564060D01*
X60797991Y-78489045D01*
X60798779Y-78490328D01*
X60839851Y-78475500D01*
X66295433Y-78475500D01*
X66300906Y-78475902D01*
X66305342Y-78477425D01*
X66312166Y-78477169D01*
X66312167Y-78477169D01*
X66355241Y-78475552D01*
X66358017Y-78475500D01*
X66377948Y-78475500D01*
X66381300Y-78474876D01*
X66384691Y-78474563D01*
X66384709Y-78474753D01*
X66388755Y-78474294D01*
X66417208Y-78473226D01*
X66423485Y-78470529D01*
X66423490Y-78470528D01*
X66430343Y-78467584D01*
X66446002Y-78462826D01*
X66453336Y-78461460D01*
X66460053Y-78460209D01*
X66465868Y-78456624D01*
X66465872Y-78456623D01*
X66484290Y-78445270D01*
X66493907Y-78440274D01*
X66515262Y-78431099D01*
X66515264Y-78431098D01*
X66520063Y-78429036D01*
X66524949Y-78425022D01*
X66531380Y-78418591D01*
X66544876Y-78407923D01*
X66549532Y-78405053D01*
X66555348Y-78401468D01*
X66574039Y-78376888D01*
X66580617Y-78369354D01*
X67320344Y-77629628D01*
X67366221Y-77608236D01*
X67374026Y-77607966D01*
X67428812Y-77608970D01*
X67479372Y-77609897D01*
X67484454Y-77608512D01*
X67484458Y-77608511D01*
X67612600Y-77573575D01*
X67612602Y-77573574D01*
X67617690Y-77572187D01*
X67678777Y-77534679D01*
X67735371Y-77499931D01*
X67735372Y-77499930D01*
X67739864Y-77497172D01*
X67761781Y-77472958D01*
X67806536Y-77449311D01*
X67856022Y-77459964D01*
X67873290Y-77475002D01*
X67934577Y-77547913D01*
X67934582Y-77547917D01*
X67937970Y-77551948D01*
X67942357Y-77554868D01*
X68052924Y-77628469D01*
X68052927Y-77628470D01*
X68057313Y-77631390D01*
X68194157Y-77674142D01*
X68199425Y-77674239D01*
X68199428Y-77674239D01*
X68259733Y-77675344D01*
X68337499Y-77676770D01*
X68342582Y-77675384D01*
X68342584Y-77675384D01*
X68470727Y-77640448D01*
X68470729Y-77640447D01*
X68475817Y-77639060D01*
X68565667Y-77583892D01*
X68593498Y-77566804D01*
X68593499Y-77566803D01*
X68597991Y-77564045D01*
X68694200Y-77457754D01*
X68756710Y-77328733D01*
X68780496Y-77187354D01*
X68780647Y-77175000D01*
X68778839Y-77162376D01*
X68761070Y-77038297D01*
X68761070Y-77038296D01*
X68760323Y-77033082D01*
X68714045Y-76931298D01*
X68710118Y-76880833D01*
X68739548Y-76839649D01*
X68777125Y-76828376D01*
X68776994Y-76827326D01*
X68782233Y-76826673D01*
X68787499Y-76826770D01*
X68792582Y-76825384D01*
X68792584Y-76825384D01*
X68920727Y-76790448D01*
X68920729Y-76790447D01*
X68925817Y-76789060D01*
X69033314Y-76723057D01*
X69043498Y-76716804D01*
X69043499Y-76716803D01*
X69047991Y-76714045D01*
X69120043Y-76634442D01*
X69164797Y-76610796D01*
X69214283Y-76621449D01*
X69245343Y-76661418D01*
X69248024Y-76695485D01*
X69245744Y-76710135D01*
X69244391Y-76718823D01*
X69262980Y-76860979D01*
X69320720Y-76992203D01*
X69326080Y-76998579D01*
X69409580Y-77097916D01*
X69409583Y-77097919D01*
X69412970Y-77101948D01*
X69417357Y-77104868D01*
X69527924Y-77178469D01*
X69527927Y-77178470D01*
X69532313Y-77181390D01*
X69669157Y-77224142D01*
X69674425Y-77224239D01*
X69674428Y-77224239D01*
X69734733Y-77225344D01*
X69812499Y-77226770D01*
X69817582Y-77225384D01*
X69817584Y-77225384D01*
X69945727Y-77190448D01*
X69945729Y-77190447D01*
X69950817Y-77189060D01*
X70049799Y-77128285D01*
X70068498Y-77116804D01*
X70068499Y-77116803D01*
X70072991Y-77114045D01*
X70096865Y-77087669D01*
X70141620Y-77064022D01*
X70191106Y-77074675D01*
X70219461Y-77107525D01*
X70245720Y-77167203D01*
X70262076Y-77186661D01*
X70334580Y-77272916D01*
X70334583Y-77272919D01*
X70337970Y-77276948D01*
X70342357Y-77279868D01*
X70452924Y-77353469D01*
X70452927Y-77353470D01*
X70457313Y-77356390D01*
X70594157Y-77399142D01*
X70599425Y-77399239D01*
X70599428Y-77399239D01*
X70659733Y-77400344D01*
X70737499Y-77401770D01*
X70742582Y-77400384D01*
X70742584Y-77400384D01*
X70870727Y-77365448D01*
X70870729Y-77365447D01*
X70875817Y-77364060D01*
X70997991Y-77289045D01*
X71094200Y-77182754D01*
X71156710Y-77053733D01*
X71180496Y-76912354D01*
X71180647Y-76900000D01*
X71169961Y-76825384D01*
X71161070Y-76763297D01*
X71161070Y-76763296D01*
X71160323Y-76758082D01*
X71100984Y-76627572D01*
X71007400Y-76518963D01*
X71002973Y-76516093D01*
X71000854Y-76514245D01*
X70976391Y-76469930D01*
X70975500Y-76458481D01*
X70975500Y-73379123D01*
X70992813Y-73331557D01*
X71036650Y-73306247D01*
X71086500Y-73315037D01*
X71101826Y-73326797D01*
X73348930Y-75573901D01*
X73352515Y-75578054D01*
X73354575Y-75582269D01*
X73391181Y-75616226D01*
X73393181Y-75618152D01*
X73407277Y-75632248D01*
X73410088Y-75634176D01*
X73412707Y-75636353D01*
X73412597Y-75636485D01*
X73415773Y-75639039D01*
X73436646Y-75658401D01*
X73442988Y-75660931D01*
X73442994Y-75660935D01*
X73449923Y-75663699D01*
X73464359Y-75671407D01*
X73470507Y-75675624D01*
X73476146Y-75679492D01*
X73482796Y-75681070D01*
X73482798Y-75681071D01*
X73503840Y-75686064D01*
X73514176Y-75689332D01*
X73540622Y-75699883D01*
X73546915Y-75700500D01*
X73556012Y-75700500D01*
X73573099Y-75702500D01*
X73578415Y-75703762D01*
X73578417Y-75703762D01*
X73585066Y-75705340D01*
X73615663Y-75701176D01*
X73625642Y-75700500D01*
X73714241Y-75700500D01*
X73761807Y-75717813D01*
X73770887Y-75726884D01*
X73809580Y-75772916D01*
X73809583Y-75772919D01*
X73812970Y-75776948D01*
X73817357Y-75779868D01*
X73927924Y-75853469D01*
X73927927Y-75853470D01*
X73932313Y-75856390D01*
X74069157Y-75899142D01*
X74074425Y-75899239D01*
X74074428Y-75899239D01*
X74134733Y-75900344D01*
X74212499Y-75901770D01*
X74217582Y-75900384D01*
X74217584Y-75900384D01*
X74345727Y-75865448D01*
X74345729Y-75865447D01*
X74350817Y-75864060D01*
X74472991Y-75789045D01*
X74569200Y-75682754D01*
X74631710Y-75553733D01*
X74655496Y-75412354D01*
X74655647Y-75400000D01*
X74635323Y-75258082D01*
X74575984Y-75127572D01*
X74482400Y-75018963D01*
X74477981Y-75016099D01*
X74477979Y-75016097D01*
X74431398Y-74985905D01*
X74362095Y-74940985D01*
X74236924Y-74903551D01*
X74229792Y-74901418D01*
X74229791Y-74901418D01*
X74224739Y-74899907D01*
X74151103Y-74899457D01*
X74086646Y-74899063D01*
X74086645Y-74899063D01*
X74081376Y-74899031D01*
X73943529Y-74938428D01*
X73822280Y-75014930D01*
X73818793Y-75018878D01*
X73818791Y-75018880D01*
X73788866Y-75052764D01*
X73744403Y-75076956D01*
X73694791Y-75066907D01*
X73681075Y-75056104D01*
X72876797Y-74251826D01*
X72855405Y-74205950D01*
X72868506Y-74157055D01*
X72909970Y-74128021D01*
X72929123Y-74125500D01*
X73639241Y-74125500D01*
X73686807Y-74142813D01*
X73695887Y-74151884D01*
X73734580Y-74197916D01*
X73734583Y-74197919D01*
X73737970Y-74201948D01*
X73742357Y-74204868D01*
X73852924Y-74278469D01*
X73852927Y-74278470D01*
X73857313Y-74281390D01*
X73994157Y-74324142D01*
X73999425Y-74324239D01*
X73999428Y-74324239D01*
X74059733Y-74325344D01*
X74137499Y-74326770D01*
X74142582Y-74325384D01*
X74142584Y-74325384D01*
X74270727Y-74290448D01*
X74270729Y-74290447D01*
X74275817Y-74289060D01*
X74397991Y-74214045D01*
X74494200Y-74107754D01*
X74556710Y-73978733D01*
X74580496Y-73837354D01*
X74580647Y-73825000D01*
X74562662Y-73699412D01*
X74561070Y-73688297D01*
X74561070Y-73688296D01*
X74560323Y-73683082D01*
X74500984Y-73552572D01*
X74444925Y-73487512D01*
X74410840Y-73447955D01*
X74410839Y-73447954D01*
X74407400Y-73443963D01*
X74402981Y-73441099D01*
X74402979Y-73441097D01*
X74358945Y-73412556D01*
X74287095Y-73365985D01*
X74156059Y-73326797D01*
X74154792Y-73326418D01*
X74154791Y-73326418D01*
X74149739Y-73324907D01*
X74076103Y-73324457D01*
X74011646Y-73324063D01*
X74011645Y-73324063D01*
X74006376Y-73324031D01*
X73868529Y-73363428D01*
X73747280Y-73439930D01*
X73742937Y-73444848D01*
X73694683Y-73499485D01*
X73650219Y-73523678D01*
X73639217Y-73524500D01*
X72780123Y-73524500D01*
X72732557Y-73507187D01*
X72727797Y-73502826D01*
X65974140Y-66749169D01*
X65970555Y-66745016D01*
X65968495Y-66740801D01*
X65931888Y-66706843D01*
X65929889Y-66704918D01*
X65915793Y-66690822D01*
X65912982Y-66688894D01*
X65910363Y-66686717D01*
X65910473Y-66686585D01*
X65907297Y-66684031D01*
X65891434Y-66669316D01*
X65891433Y-66669315D01*
X65886424Y-66664669D01*
X65880082Y-66662139D01*
X65880076Y-66662135D01*
X65873147Y-66659371D01*
X65858711Y-66651663D01*
X65852563Y-66647446D01*
X65852562Y-66647445D01*
X65846924Y-66643578D01*
X65840274Y-66642000D01*
X65840272Y-66641999D01*
X65819230Y-66637006D01*
X65808894Y-66633738D01*
X65807002Y-66632983D01*
X65782448Y-66623187D01*
X65776155Y-66622570D01*
X65767058Y-66622570D01*
X65749971Y-66620570D01*
X65744655Y-66619308D01*
X65744653Y-66619308D01*
X65738004Y-66617730D01*
X65717136Y-66620570D01*
X65707407Y-66621894D01*
X65697428Y-66622570D01*
X64170214Y-66622570D01*
X64122648Y-66605257D01*
X64114154Y-66596874D01*
X64070340Y-66546025D01*
X64070339Y-66546024D01*
X64066900Y-66542033D01*
X64062481Y-66539169D01*
X64062479Y-66539167D01*
X64006718Y-66503025D01*
X63946595Y-66464055D01*
X63842668Y-66432974D01*
X63814292Y-66424488D01*
X63814291Y-66424488D01*
X63809239Y-66422977D01*
X63735603Y-66422527D01*
X63671146Y-66422133D01*
X63671145Y-66422133D01*
X63665876Y-66422101D01*
X63528029Y-66461498D01*
X63406780Y-66538000D01*
X63354785Y-66596874D01*
X63318086Y-66638428D01*
X63311877Y-66645458D01*
X63309638Y-66650227D01*
X63309634Y-66650233D01*
X63265007Y-66745283D01*
X63229120Y-66780982D01*
X63178683Y-66785261D01*
X63145697Y-66766159D01*
X62399286Y-66019748D01*
X64824500Y-66019748D01*
X64836133Y-66078231D01*
X64880448Y-66144552D01*
X64946769Y-66188867D01*
X64991295Y-66197724D01*
X65001682Y-66199790D01*
X65001683Y-66199790D01*
X65005252Y-66200500D01*
X67344748Y-66200500D01*
X67348317Y-66199790D01*
X67348318Y-66199790D01*
X67358705Y-66197724D01*
X67403231Y-66188867D01*
X67469552Y-66144552D01*
X67504733Y-66091900D01*
X67545553Y-66061971D01*
X67596064Y-66065282D01*
X67618586Y-66080689D01*
X68697826Y-67159929D01*
X68719218Y-67205805D01*
X68719500Y-67212255D01*
X68719501Y-67644552D01*
X68719501Y-68055992D01*
X68726171Y-68128594D01*
X68776873Y-68290383D01*
X68864703Y-68435408D01*
X68984592Y-68555297D01*
X69129617Y-68643127D01*
X69291406Y-68693829D01*
X69311263Y-68695654D01*
X69362317Y-68700345D01*
X69362323Y-68700345D01*
X69364007Y-68700500D01*
X71919249Y-68700500D01*
X74475992Y-68700499D01*
X74536886Y-68694905D01*
X74544687Y-68694188D01*
X74544688Y-68694188D01*
X74548594Y-68693829D01*
X74552335Y-68692657D01*
X74552338Y-68692656D01*
X74706123Y-68644462D01*
X74710383Y-68643127D01*
X74855408Y-68555297D01*
X74975297Y-68435408D01*
X75063127Y-68290383D01*
X75113829Y-68128594D01*
X75120500Y-68055993D01*
X75120499Y-66944008D01*
X75113829Y-66871406D01*
X75109770Y-66858452D01*
X75064462Y-66713877D01*
X75063127Y-66709617D01*
X74975297Y-66564592D01*
X74913730Y-66503025D01*
X74892338Y-66457149D01*
X74905439Y-66408254D01*
X74913730Y-66398373D01*
X76521526Y-64790577D01*
X76528039Y-64784790D01*
X76552766Y-64765297D01*
X76552768Y-64765295D01*
X76557110Y-64761872D01*
X76581677Y-64726327D01*
X76590926Y-64712944D01*
X76592278Y-64711052D01*
X76624348Y-64667634D01*
X76624350Y-64667630D01*
X76627634Y-64663184D01*
X76629412Y-64658118D01*
X76629597Y-64657815D01*
X76629724Y-64657555D01*
X76630774Y-64655494D01*
X76630936Y-64655189D01*
X76631080Y-64654845D01*
X76634131Y-64650431D01*
X76652063Y-64593732D01*
X76652798Y-64591529D01*
X76670685Y-64540592D01*
X76670685Y-64540591D01*
X76672519Y-64535369D01*
X76672729Y-64530006D01*
X76672987Y-64528987D01*
X76673706Y-64525297D01*
X76674980Y-64521270D01*
X76675500Y-64514663D01*
X76675500Y-64460961D01*
X76675557Y-64458055D01*
X76677621Y-64405534D01*
X76677621Y-64405533D01*
X76677838Y-64400006D01*
X76676420Y-64394659D01*
X76675947Y-64390374D01*
X76675500Y-64382253D01*
X76675500Y-57806151D01*
X76676013Y-57797454D01*
X76679714Y-57766181D01*
X76680364Y-57760690D01*
X76669681Y-57702191D01*
X76669300Y-57699900D01*
X76661272Y-57646509D01*
X76661271Y-57646506D01*
X76660449Y-57641038D01*
X76658126Y-57636199D01*
X76658038Y-57635842D01*
X76657942Y-57635560D01*
X76657224Y-57633350D01*
X76657134Y-57633057D01*
X76656990Y-57632706D01*
X76656026Y-57627427D01*
X76628576Y-57574582D01*
X76627595Y-57572620D01*
X76601809Y-57518921D01*
X76598165Y-57514980D01*
X76597626Y-57514077D01*
X76595528Y-57510963D01*
X76593580Y-57507212D01*
X76590841Y-57504005D01*
X76590838Y-57504001D01*
X76590210Y-57503267D01*
X76589275Y-57502172D01*
X76551305Y-57464202D01*
X76549291Y-57462107D01*
X76513607Y-57423504D01*
X76509854Y-57419444D01*
X76505072Y-57416666D01*
X76501705Y-57413969D01*
X76495646Y-57408543D01*
X74797174Y-55710071D01*
X74775782Y-55664195D01*
X74775500Y-55657745D01*
X74775500Y-54675000D01*
X107694318Y-54675000D01*
X107694951Y-54679808D01*
X107714217Y-54826146D01*
X107714956Y-54831762D01*
X107775464Y-54977841D01*
X107778414Y-54981685D01*
X107778416Y-54981689D01*
X107836632Y-55057557D01*
X107871718Y-55103282D01*
X107875566Y-55106234D01*
X107877828Y-55108497D01*
X107899219Y-55154374D01*
X107899500Y-55160821D01*
X107899500Y-74788433D01*
X107901300Y-74793971D01*
X107901300Y-74793974D01*
X107907562Y-74813246D01*
X107910273Y-74824537D01*
X107914354Y-74850304D01*
X107917000Y-74855497D01*
X107926198Y-74873550D01*
X107930642Y-74884278D01*
X107935436Y-74899031D01*
X107938704Y-74909090D01*
X107942126Y-74913799D01*
X107942128Y-74913804D01*
X107954039Y-74930198D01*
X107960106Y-74940098D01*
X107968907Y-74957370D01*
X107971950Y-74963342D01*
X107994513Y-74985905D01*
X107994516Y-74985909D01*
X110952826Y-77944219D01*
X110974218Y-77990095D01*
X110974500Y-77996545D01*
X110974500Y-79319748D01*
X110986133Y-79378231D01*
X111030448Y-79444552D01*
X111036509Y-79448602D01*
X111083559Y-79480040D01*
X111096769Y-79488867D01*
X111141295Y-79497724D01*
X111151682Y-79499790D01*
X111151683Y-79499790D01*
X111155252Y-79500500D01*
X112894748Y-79500500D01*
X112898317Y-79499790D01*
X112898318Y-79499790D01*
X112908705Y-79497724D01*
X112953231Y-79488867D01*
X112966442Y-79480040D01*
X113013491Y-79448602D01*
X113019552Y-79444552D01*
X113063867Y-79378231D01*
X113075500Y-79319748D01*
X113075500Y-77580252D01*
X113063867Y-77521769D01*
X113023704Y-77461661D01*
X113023602Y-77461509D01*
X113019552Y-77455448D01*
X113013491Y-77451398D01*
X112959294Y-77415184D01*
X112959293Y-77415184D01*
X112953231Y-77411133D01*
X112906160Y-77401770D01*
X112898318Y-77400210D01*
X112898317Y-77400210D01*
X112894748Y-77399500D01*
X111571545Y-77399500D01*
X111523979Y-77382187D01*
X111519219Y-77377826D01*
X108722174Y-74580781D01*
X108700782Y-74534905D01*
X108700500Y-74528455D01*
X108700500Y-55160821D01*
X108717813Y-55113255D01*
X108722172Y-55108497D01*
X108724434Y-55106234D01*
X108728282Y-55103282D01*
X108763368Y-55057557D01*
X108821584Y-54981689D01*
X108821586Y-54981685D01*
X108824536Y-54977841D01*
X108885044Y-54831762D01*
X108885784Y-54826146D01*
X108905049Y-54679808D01*
X108905682Y-54675000D01*
X108885044Y-54518238D01*
X108824536Y-54372159D01*
X108821586Y-54368315D01*
X108821584Y-54368311D01*
X108731237Y-54250569D01*
X108728282Y-54246718D01*
X108724431Y-54243763D01*
X108606689Y-54153416D01*
X108606685Y-54153414D01*
X108602841Y-54150464D01*
X108456762Y-54089956D01*
X108451960Y-54089324D01*
X108451957Y-54089323D01*
X108304808Y-54069951D01*
X108300000Y-54069318D01*
X108295192Y-54069951D01*
X108148043Y-54089323D01*
X108148040Y-54089324D01*
X108143238Y-54089956D01*
X107997159Y-54150464D01*
X107993315Y-54153414D01*
X107993311Y-54153416D01*
X107875569Y-54243763D01*
X107871718Y-54246718D01*
X107868763Y-54250569D01*
X107778416Y-54368311D01*
X107778414Y-54368315D01*
X107775464Y-54372159D01*
X107714956Y-54518238D01*
X107694318Y-54675000D01*
X74775500Y-54675000D01*
X74775500Y-53885134D01*
X74782904Y-53852869D01*
X74804412Y-53808476D01*
X74806710Y-53803733D01*
X74808886Y-53790803D01*
X74830021Y-53665177D01*
X74830496Y-53662354D01*
X74830647Y-53650000D01*
X74810323Y-53508082D01*
X74750984Y-53377572D01*
X74657400Y-53268963D01*
X74652981Y-53266099D01*
X74652979Y-53266097D01*
X74613068Y-53240228D01*
X74537095Y-53190985D01*
X74433168Y-53159904D01*
X74404792Y-53151418D01*
X74404791Y-53151418D01*
X74399739Y-53149907D01*
X74326103Y-53149457D01*
X74261646Y-53149063D01*
X74261645Y-53149063D01*
X74256376Y-53149031D01*
X74118529Y-53188428D01*
X73997280Y-53264930D01*
X73902377Y-53372388D01*
X73841447Y-53502163D01*
X73840637Y-53507368D01*
X73840636Y-53507370D01*
X73834956Y-53543852D01*
X73819391Y-53643823D01*
X73820074Y-53649046D01*
X73820074Y-53649049D01*
X73826420Y-53697575D01*
X73837980Y-53785979D01*
X73845792Y-53803733D01*
X73868233Y-53854734D01*
X73874500Y-53884537D01*
X73874500Y-55843849D01*
X73873987Y-55852546D01*
X73869636Y-55889310D01*
X73870630Y-55894752D01*
X73870630Y-55894755D01*
X73880318Y-55947800D01*
X73880700Y-55950093D01*
X73889551Y-56008962D01*
X73891874Y-56013798D01*
X73891956Y-56014136D01*
X73892047Y-56014400D01*
X73892773Y-56016637D01*
X73892868Y-56016946D01*
X73893012Y-56017296D01*
X73893975Y-56022573D01*
X73896525Y-56027482D01*
X73921382Y-56075334D01*
X73922417Y-56077405D01*
X73948191Y-56131079D01*
X73951837Y-56135023D01*
X73952379Y-56135931D01*
X73954475Y-56139042D01*
X73956421Y-56142788D01*
X73960725Y-56147828D01*
X73998695Y-56185798D01*
X74000709Y-56187893D01*
X74040146Y-56230556D01*
X74044928Y-56233334D01*
X74048295Y-56236031D01*
X74054354Y-56241457D01*
X75752826Y-57939929D01*
X75774218Y-57985805D01*
X75774500Y-57992255D01*
X75774500Y-64232745D01*
X75757187Y-64280311D01*
X75752826Y-64285071D01*
X73760071Y-66277826D01*
X73714195Y-66299218D01*
X73707745Y-66299500D01*
X69594253Y-66299501D01*
X69364008Y-66299501D01*
X69303114Y-66305095D01*
X69295313Y-66305812D01*
X69295312Y-66305812D01*
X69291406Y-66306171D01*
X69287665Y-66307343D01*
X69287662Y-66307344D01*
X69202350Y-66334080D01*
X69151784Y-66331784D01*
X69127895Y-66315792D01*
X67547174Y-64735071D01*
X67525782Y-64689195D01*
X67525500Y-64682745D01*
X67525500Y-63554246D01*
X68720000Y-63554246D01*
X68720155Y-63557638D01*
X68726308Y-63624594D01*
X68727841Y-63632248D01*
X68775997Y-63785916D01*
X68779645Y-63793995D01*
X68862792Y-63931285D01*
X68868251Y-63938248D01*
X68981752Y-64051749D01*
X68988715Y-64057208D01*
X69126005Y-64140355D01*
X69134084Y-64144003D01*
X69287752Y-64192159D01*
X69295406Y-64193692D01*
X69362362Y-64199845D01*
X69365754Y-64200000D01*
X71779952Y-64200000D01*
X71789948Y-64196362D01*
X71793000Y-64191075D01*
X71793000Y-64186952D01*
X72047000Y-64186952D01*
X72050638Y-64196948D01*
X72055925Y-64200000D01*
X74474246Y-64200000D01*
X74477638Y-64199845D01*
X74544594Y-64193692D01*
X74552248Y-64192159D01*
X74705916Y-64144003D01*
X74713995Y-64140355D01*
X74851285Y-64057208D01*
X74858248Y-64051749D01*
X74971749Y-63938248D01*
X74977208Y-63931285D01*
X75060355Y-63793995D01*
X75064003Y-63785916D01*
X75112159Y-63632248D01*
X75113692Y-63624594D01*
X75119845Y-63557638D01*
X75120000Y-63554246D01*
X75120000Y-63140048D01*
X75116362Y-63130052D01*
X75111075Y-63127000D01*
X72060048Y-63127000D01*
X72050052Y-63130638D01*
X72047000Y-63135925D01*
X72047000Y-64186952D01*
X71793000Y-64186952D01*
X71793000Y-63140048D01*
X71789362Y-63130052D01*
X71784075Y-63127000D01*
X68733048Y-63127000D01*
X68723052Y-63130638D01*
X68720000Y-63135925D01*
X68720000Y-63554246D01*
X67525500Y-63554246D01*
X67525500Y-62859952D01*
X68720000Y-62859952D01*
X68723638Y-62869948D01*
X68728925Y-62873000D01*
X71779952Y-62873000D01*
X71789948Y-62869362D01*
X71793000Y-62864075D01*
X71793000Y-62859952D01*
X72047000Y-62859952D01*
X72050638Y-62869948D01*
X72055925Y-62873000D01*
X75106952Y-62873000D01*
X75116948Y-62869362D01*
X75120000Y-62864075D01*
X75120000Y-62445754D01*
X75119845Y-62442362D01*
X75113692Y-62375406D01*
X75112159Y-62367752D01*
X75064003Y-62214084D01*
X75060355Y-62206005D01*
X74977208Y-62068715D01*
X74971749Y-62061752D01*
X74858248Y-61948251D01*
X74851285Y-61942792D01*
X74713995Y-61859645D01*
X74705916Y-61855997D01*
X74552248Y-61807841D01*
X74544594Y-61806308D01*
X74477638Y-61800155D01*
X74474246Y-61800000D01*
X72060048Y-61800000D01*
X72050052Y-61803638D01*
X72047000Y-61808925D01*
X72047000Y-62859952D01*
X71793000Y-62859952D01*
X71793000Y-61813048D01*
X71789362Y-61803052D01*
X71784075Y-61800000D01*
X69365754Y-61800000D01*
X69362362Y-61800155D01*
X69295406Y-61806308D01*
X69287752Y-61807841D01*
X69134084Y-61855997D01*
X69126005Y-61859645D01*
X68988715Y-61942792D01*
X68981752Y-61948251D01*
X68868251Y-62061752D01*
X68862792Y-62068715D01*
X68779645Y-62206005D01*
X68775997Y-62214084D01*
X68727841Y-62367752D01*
X68726308Y-62375406D01*
X68720155Y-62442362D01*
X68720000Y-62445754D01*
X68720000Y-62859952D01*
X67525500Y-62859952D01*
X67525500Y-62480252D01*
X67513867Y-62421769D01*
X67477774Y-62367752D01*
X67473602Y-62361509D01*
X67469552Y-62355448D01*
X67403231Y-62311133D01*
X67358705Y-62302276D01*
X67348318Y-62300210D01*
X67348317Y-62300210D01*
X67344748Y-62299500D01*
X65005252Y-62299500D01*
X65001683Y-62300210D01*
X65001682Y-62300210D01*
X64991295Y-62302276D01*
X64946769Y-62311133D01*
X64880448Y-62355448D01*
X64876398Y-62361509D01*
X64872227Y-62367752D01*
X64836133Y-62421769D01*
X64824500Y-62480252D01*
X64824500Y-66019748D01*
X62399286Y-66019748D01*
X61297174Y-64917636D01*
X61275782Y-64871760D01*
X61275500Y-64865310D01*
X61275500Y-61356963D01*
X61292813Y-61309397D01*
X61336650Y-61284087D01*
X61386500Y-61292877D01*
X61406146Y-61309348D01*
X61459577Y-61372913D01*
X61459582Y-61372917D01*
X61462970Y-61376948D01*
X61467357Y-61379868D01*
X61577924Y-61453469D01*
X61577927Y-61453470D01*
X61582313Y-61456390D01*
X61719157Y-61499142D01*
X61724425Y-61499239D01*
X61724428Y-61499239D01*
X61784733Y-61500344D01*
X61862499Y-61501770D01*
X61867582Y-61500384D01*
X61867584Y-61500384D01*
X61995727Y-61465448D01*
X61995729Y-61465447D01*
X62000817Y-61464060D01*
X62122991Y-61389045D01*
X62219200Y-61282754D01*
X62281710Y-61153733D01*
X62305496Y-61012354D01*
X62305647Y-61000000D01*
X62304762Y-60993823D01*
X62286070Y-60863297D01*
X62286070Y-60863296D01*
X62285323Y-60858082D01*
X62225984Y-60727572D01*
X62152391Y-60642164D01*
X62135840Y-60622955D01*
X62135839Y-60622954D01*
X62132400Y-60618963D01*
X62127981Y-60616099D01*
X62127979Y-60616097D01*
X62127919Y-60616058D01*
X64825000Y-60616058D01*
X64825710Y-60623268D01*
X64835182Y-60670890D01*
X64840652Y-60684094D01*
X64876759Y-60738132D01*
X64886868Y-60748241D01*
X64940906Y-60784348D01*
X64954110Y-60789818D01*
X65001732Y-60799290D01*
X65008942Y-60800000D01*
X66034952Y-60800000D01*
X66044948Y-60796362D01*
X66048000Y-60791075D01*
X66048000Y-60786952D01*
X66302000Y-60786952D01*
X66305638Y-60796948D01*
X66310925Y-60800000D01*
X67341058Y-60800000D01*
X67348268Y-60799290D01*
X67395890Y-60789818D01*
X67409094Y-60784348D01*
X67463132Y-60748241D01*
X67473241Y-60738132D01*
X67509348Y-60684094D01*
X67514818Y-60670890D01*
X67524290Y-60623268D01*
X67525000Y-60616058D01*
X67525000Y-58990048D01*
X67521362Y-58980052D01*
X67516075Y-58977000D01*
X66315048Y-58977000D01*
X66305052Y-58980638D01*
X66302000Y-58985925D01*
X66302000Y-60786952D01*
X66048000Y-60786952D01*
X66048000Y-58990048D01*
X66044362Y-58980052D01*
X66039075Y-58977000D01*
X64838048Y-58977000D01*
X64828052Y-58980638D01*
X64825000Y-58985925D01*
X64825000Y-60616058D01*
X62127919Y-60616058D01*
X62088068Y-60590228D01*
X62012095Y-60540985D01*
X61908168Y-60509904D01*
X61879792Y-60501418D01*
X61879791Y-60501418D01*
X61874739Y-60499907D01*
X61801103Y-60499457D01*
X61736646Y-60499063D01*
X61736645Y-60499063D01*
X61731376Y-60499031D01*
X61593529Y-60538428D01*
X61472280Y-60614930D01*
X61422858Y-60670890D01*
X61404966Y-60691149D01*
X61360502Y-60715342D01*
X61310890Y-60705293D01*
X61279345Y-60665706D01*
X61275500Y-60642164D01*
X61275500Y-58709952D01*
X64825000Y-58709952D01*
X64828638Y-58719948D01*
X64833925Y-58723000D01*
X66034952Y-58723000D01*
X66044948Y-58719362D01*
X66048000Y-58714075D01*
X66048000Y-58709952D01*
X66302000Y-58709952D01*
X66305638Y-58719948D01*
X66310925Y-58723000D01*
X67511952Y-58723000D01*
X67521948Y-58719362D01*
X67525000Y-58714075D01*
X67525000Y-57083942D01*
X67524290Y-57076732D01*
X67514818Y-57029110D01*
X67509348Y-57015906D01*
X67473241Y-56961868D01*
X67463132Y-56951759D01*
X67409094Y-56915652D01*
X67395890Y-56910182D01*
X67348268Y-56900710D01*
X67341058Y-56900000D01*
X66315048Y-56900000D01*
X66305052Y-56903638D01*
X66302000Y-56908925D01*
X66302000Y-58709952D01*
X66048000Y-58709952D01*
X66048000Y-56913048D01*
X66044362Y-56903052D01*
X66039075Y-56900000D01*
X65008942Y-56900000D01*
X65001732Y-56900710D01*
X64954110Y-56910182D01*
X64940906Y-56915652D01*
X64886868Y-56951759D01*
X64876759Y-56961868D01*
X64840652Y-57015906D01*
X64835182Y-57029110D01*
X64825710Y-57076732D01*
X64825000Y-57083942D01*
X64825000Y-58709952D01*
X61275500Y-58709952D01*
X61275500Y-55105123D01*
X61292813Y-55057557D01*
X61297174Y-55052797D01*
X62027797Y-54322174D01*
X62073673Y-54300782D01*
X62080123Y-54300500D01*
X65414241Y-54300500D01*
X65461807Y-54317813D01*
X65470887Y-54326884D01*
X65509580Y-54372916D01*
X65509583Y-54372919D01*
X65512970Y-54376948D01*
X65517357Y-54379868D01*
X65627924Y-54453469D01*
X65627927Y-54453470D01*
X65632313Y-54456390D01*
X65769157Y-54499142D01*
X65774425Y-54499239D01*
X65774428Y-54499239D01*
X65834733Y-54500344D01*
X65912499Y-54501770D01*
X65917582Y-54500384D01*
X65917584Y-54500384D01*
X66045727Y-54465448D01*
X66045729Y-54465447D01*
X66050817Y-54464060D01*
X66172991Y-54389045D01*
X66269200Y-54282754D01*
X66331710Y-54153733D01*
X66355496Y-54012354D01*
X66355647Y-54000000D01*
X66335323Y-53858082D01*
X66275984Y-53727572D01*
X66182400Y-53618963D01*
X66177981Y-53616099D01*
X66177979Y-53616097D01*
X66138068Y-53590228D01*
X66062095Y-53540985D01*
X65958168Y-53509904D01*
X65929792Y-53501418D01*
X65929791Y-53501418D01*
X65924739Y-53499907D01*
X65851103Y-53499457D01*
X65786646Y-53499063D01*
X65786645Y-53499063D01*
X65781376Y-53499031D01*
X65643529Y-53538428D01*
X65522280Y-53614930D01*
X65496763Y-53643823D01*
X65469683Y-53674485D01*
X65425219Y-53698678D01*
X65414217Y-53699500D01*
X61979567Y-53699500D01*
X61974094Y-53699098D01*
X61969658Y-53697575D01*
X61962834Y-53697831D01*
X61962833Y-53697831D01*
X61919759Y-53699448D01*
X61916983Y-53699500D01*
X61897052Y-53699500D01*
X61893700Y-53700124D01*
X61890309Y-53700437D01*
X61890291Y-53700247D01*
X61886245Y-53700706D01*
X61857792Y-53701774D01*
X61851515Y-53704471D01*
X61851510Y-53704472D01*
X61844657Y-53707416D01*
X61828998Y-53712174D01*
X61814947Y-53714791D01*
X61809132Y-53718376D01*
X61809128Y-53718377D01*
X61790710Y-53729730D01*
X61781093Y-53734726D01*
X61759738Y-53743901D01*
X61759736Y-53743902D01*
X61754937Y-53745964D01*
X61750051Y-53749978D01*
X61743620Y-53756409D01*
X61730125Y-53767076D01*
X61719652Y-53773532D01*
X61715516Y-53778971D01*
X61700961Y-53798112D01*
X61694383Y-53805646D01*
X60801099Y-54698930D01*
X60796946Y-54702515D01*
X60792731Y-54704575D01*
X60758774Y-54741181D01*
X60756848Y-54743181D01*
X60742752Y-54757277D01*
X60740824Y-54760088D01*
X60738647Y-54762707D01*
X60738515Y-54762597D01*
X60735961Y-54765773D01*
X60716599Y-54786646D01*
X60714069Y-54792988D01*
X60714065Y-54792994D01*
X60711301Y-54799923D01*
X60703593Y-54814359D01*
X60699376Y-54820507D01*
X60695508Y-54826146D01*
X60693930Y-54832796D01*
X60693929Y-54832798D01*
X60688936Y-54853840D01*
X60685668Y-54864176D01*
X60675117Y-54890622D01*
X60674500Y-54896915D01*
X60674500Y-54906012D01*
X60672500Y-54923098D01*
X60669660Y-54935066D01*
X60670582Y-54941839D01*
X60673824Y-54965663D01*
X60674500Y-54975642D01*
X60674500Y-56467660D01*
X60657187Y-56515226D01*
X60613350Y-56540536D01*
X60563500Y-56531746D01*
X60544440Y-56515964D01*
X60485840Y-56447955D01*
X60485839Y-56447954D01*
X60482400Y-56443963D01*
X60477981Y-56441099D01*
X60477979Y-56441097D01*
X60438068Y-56415228D01*
X60362095Y-56365985D01*
X60258168Y-56334904D01*
X60229792Y-56326418D01*
X60229791Y-56326418D01*
X60224739Y-56324907D01*
X60151103Y-56324457D01*
X60086646Y-56324063D01*
X60086645Y-56324063D01*
X60081376Y-56324031D01*
X59943529Y-56363428D01*
X59822280Y-56439930D01*
X59815193Y-56447955D01*
X59755130Y-56515964D01*
X59727377Y-56547388D01*
X59666447Y-56677163D01*
X59644391Y-56818823D01*
X59645074Y-56824046D01*
X59645074Y-56824049D01*
X59646814Y-56837354D01*
X59662980Y-56960979D01*
X59720720Y-57092203D01*
X59724112Y-57096238D01*
X59809580Y-57197916D01*
X59809583Y-57197919D01*
X59812970Y-57201948D01*
X59817356Y-57204867D01*
X59821287Y-57208382D01*
X59820311Y-57209473D01*
X59846507Y-57245068D01*
X59849500Y-57265901D01*
X59849500Y-61203284D01*
X59832187Y-61250850D01*
X59788350Y-61276160D01*
X59738500Y-61267370D01*
X59705963Y-61228593D01*
X59701703Y-61208768D01*
X59686245Y-61000748D01*
X59685437Y-60995345D01*
X59630884Y-60754258D01*
X59629281Y-60749012D01*
X59539691Y-60518633D01*
X59537338Y-60513700D01*
X59414678Y-60299089D01*
X59411614Y-60294547D01*
X59297780Y-60150150D01*
X59288735Y-60144552D01*
X59284428Y-60145177D01*
X58188831Y-61240774D01*
X58184336Y-61250413D01*
X58185917Y-61256312D01*
X59279407Y-62349802D01*
X59289046Y-62354297D01*
X59293930Y-62352988D01*
X59359679Y-62278015D01*
X59362971Y-62273648D01*
X59496692Y-62065756D01*
X59499308Y-62060937D01*
X59600827Y-61835572D01*
X59602703Y-61830422D01*
X59669798Y-61592517D01*
X59670890Y-61587151D01*
X59702092Y-61341886D01*
X59725269Y-61296885D01*
X59771950Y-61277310D01*
X59820292Y-61292321D01*
X59847675Y-61334894D01*
X59849500Y-61351225D01*
X59849500Y-64820433D01*
X59849098Y-64825906D01*
X59847575Y-64830342D01*
X59847831Y-64837166D01*
X59847831Y-64837167D01*
X59849448Y-64880241D01*
X59849500Y-64883017D01*
X59849500Y-64902948D01*
X59850124Y-64906300D01*
X59850437Y-64909691D01*
X59850247Y-64909709D01*
X59850706Y-64913755D01*
X59851774Y-64942208D01*
X59854471Y-64948485D01*
X59854472Y-64948490D01*
X59857416Y-64955343D01*
X59862174Y-64971002D01*
X59864791Y-64985053D01*
X59868376Y-64990868D01*
X59868377Y-64990872D01*
X59879730Y-65009290D01*
X59884726Y-65018907D01*
X59893759Y-65039930D01*
X59895964Y-65045063D01*
X59899978Y-65049949D01*
X59906409Y-65056380D01*
X59917076Y-65069875D01*
X59923532Y-65080348D01*
X59928971Y-65084484D01*
X59948112Y-65099039D01*
X59955646Y-65105617D01*
X63852317Y-69002289D01*
X63873709Y-69048165D01*
X63860608Y-69097060D01*
X63853132Y-69105276D01*
X63853307Y-69105430D01*
X63800710Y-69164985D01*
X63756246Y-69189178D01*
X63745244Y-69190000D01*
X63064067Y-69190000D01*
X63058594Y-69189598D01*
X63054158Y-69188075D01*
X63047334Y-69188331D01*
X63047333Y-69188331D01*
X63004258Y-69189948D01*
X63001482Y-69190000D01*
X62981552Y-69190000D01*
X62978200Y-69190624D01*
X62974809Y-69190937D01*
X62974791Y-69190747D01*
X62970745Y-69191206D01*
X62942291Y-69192274D01*
X62936016Y-69194970D01*
X62936012Y-69194971D01*
X62929158Y-69197916D01*
X62913495Y-69202675D01*
X62906164Y-69204040D01*
X62906163Y-69204040D01*
X62899447Y-69205291D01*
X62893632Y-69208876D01*
X62893628Y-69208877D01*
X62875210Y-69220230D01*
X62865593Y-69225226D01*
X62844238Y-69234401D01*
X62844236Y-69234402D01*
X62839437Y-69236464D01*
X62834551Y-69240478D01*
X62828120Y-69246909D01*
X62814625Y-69257576D01*
X62804152Y-69264032D01*
X62800016Y-69269471D01*
X62785461Y-69288612D01*
X62778883Y-69296146D01*
X61472203Y-70602826D01*
X61426327Y-70624218D01*
X61419877Y-70624500D01*
X53779567Y-70624500D01*
X53774094Y-70624098D01*
X53769658Y-70622575D01*
X53762835Y-70622831D01*
X53762834Y-70622831D01*
X53719771Y-70624448D01*
X53716995Y-70624500D01*
X53697052Y-70624500D01*
X53693703Y-70625124D01*
X53690307Y-70625437D01*
X53690290Y-70625253D01*
X53686236Y-70625707D01*
X53657791Y-70626775D01*
X53644662Y-70632416D01*
X53629009Y-70637172D01*
X53614947Y-70639791D01*
X53609130Y-70643377D01*
X53590713Y-70654729D01*
X53581094Y-70659725D01*
X53559739Y-70668900D01*
X53559734Y-70668903D01*
X53554937Y-70670964D01*
X53550051Y-70674978D01*
X53543620Y-70681409D01*
X53530125Y-70692076D01*
X53519652Y-70698532D01*
X53515516Y-70703971D01*
X53500961Y-70723112D01*
X53494383Y-70730646D01*
X53196982Y-71028047D01*
X53151106Y-71049439D01*
X53144204Y-71049720D01*
X53036646Y-71049063D01*
X53036645Y-71049063D01*
X53031376Y-71049031D01*
X52893529Y-71088428D01*
X52772280Y-71164930D01*
X52768792Y-71168880D01*
X52703497Y-71242813D01*
X52677377Y-71272388D01*
X52616447Y-71402163D01*
X52615637Y-71407368D01*
X52615636Y-71407370D01*
X52608492Y-71453256D01*
X52594391Y-71543823D01*
X52595074Y-71549046D01*
X52595074Y-71549049D01*
X52599879Y-71585795D01*
X52612980Y-71685979D01*
X52670720Y-71817203D01*
X52674112Y-71821238D01*
X52759580Y-71922916D01*
X52759583Y-71922919D01*
X52762970Y-71926948D01*
X52785288Y-71941804D01*
X52877924Y-72003469D01*
X52877927Y-72003470D01*
X52882313Y-72006390D01*
X53019157Y-72049142D01*
X53024425Y-72049239D01*
X53024428Y-72049239D01*
X53084733Y-72050344D01*
X53162499Y-72051770D01*
X53167582Y-72050384D01*
X53167584Y-72050384D01*
X53295727Y-72015448D01*
X53295729Y-72015447D01*
X53300817Y-72014060D01*
X53369175Y-71972088D01*
X53418498Y-71941804D01*
X53418499Y-71941803D01*
X53422991Y-71939045D01*
X53519200Y-71832754D01*
X53581710Y-71703733D01*
X53605496Y-71562354D01*
X53605647Y-71550000D01*
X53600788Y-71516072D01*
X53611183Y-71466533D01*
X53621715Y-71453256D01*
X53827797Y-71247174D01*
X53873673Y-71225782D01*
X53880123Y-71225500D01*
X54670877Y-71225500D01*
X54718443Y-71242813D01*
X54743753Y-71286650D01*
X54734963Y-71336500D01*
X54723203Y-71351826D01*
X54671982Y-71403047D01*
X54626106Y-71424439D01*
X54619204Y-71424720D01*
X54511646Y-71424063D01*
X54511645Y-71424063D01*
X54506376Y-71424031D01*
X54368529Y-71463428D01*
X54247280Y-71539930D01*
X54208135Y-71584254D01*
X54160492Y-71638200D01*
X54152377Y-71647388D01*
X54091447Y-71777163D01*
X54069391Y-71918823D01*
X54070074Y-71924046D01*
X54070074Y-71924049D01*
X54071440Y-71934491D01*
X54087980Y-72060979D01*
X54145720Y-72192203D01*
X54149112Y-72196238D01*
X54234580Y-72297916D01*
X54234583Y-72297919D01*
X54237970Y-72301948D01*
X54242357Y-72304868D01*
X54352924Y-72378469D01*
X54352927Y-72378470D01*
X54357313Y-72381390D01*
X54494157Y-72424142D01*
X54499425Y-72424239D01*
X54499428Y-72424239D01*
X54559733Y-72425344D01*
X54637499Y-72426770D01*
X54642582Y-72425384D01*
X54642584Y-72425384D01*
X54770727Y-72390448D01*
X54770729Y-72390447D01*
X54775817Y-72389060D01*
X54871657Y-72330214D01*
X54893498Y-72316804D01*
X54893499Y-72316803D01*
X54897991Y-72314045D01*
X54994200Y-72207754D01*
X55056710Y-72078733D01*
X55080496Y-71937354D01*
X55080647Y-71925000D01*
X55075788Y-71891072D01*
X55086183Y-71841534D01*
X55096715Y-71828257D01*
X55318297Y-71606675D01*
X55364173Y-71585283D01*
X55370623Y-71585001D01*
X56050576Y-71585001D01*
X56098142Y-71602314D01*
X56123452Y-71646151D01*
X56114662Y-71696001D01*
X56091150Y-71720885D01*
X55958350Y-71807953D01*
X55838749Y-71934207D01*
X55836593Y-71937918D01*
X55836592Y-71937920D01*
X55796822Y-72006390D01*
X55751401Y-72084588D01*
X55700990Y-72251031D01*
X55700724Y-72255316D01*
X55700724Y-72255317D01*
X55696910Y-72316804D01*
X55690222Y-72424607D01*
X55719673Y-72596004D01*
X55721355Y-72599957D01*
X55776094Y-72728600D01*
X55787765Y-72756029D01*
X55803999Y-72778089D01*
X55884813Y-72887903D01*
X55890843Y-72896097D01*
X55894114Y-72898876D01*
X55894116Y-72898878D01*
X56006205Y-72994104D01*
X56031246Y-73038095D01*
X56022152Y-73087891D01*
X55983177Y-73120191D01*
X55958293Y-73124500D01*
X53929567Y-73124500D01*
X53924094Y-73124098D01*
X53919658Y-73122575D01*
X53912834Y-73122831D01*
X53912833Y-73122831D01*
X53869758Y-73124448D01*
X53866982Y-73124500D01*
X53847052Y-73124500D01*
X53843700Y-73125124D01*
X53840309Y-73125437D01*
X53840291Y-73125247D01*
X53836245Y-73125706D01*
X53807791Y-73126774D01*
X53801516Y-73129470D01*
X53801512Y-73129471D01*
X53794658Y-73132416D01*
X53778995Y-73137175D01*
X53771664Y-73138540D01*
X53771663Y-73138540D01*
X53764947Y-73139791D01*
X53759132Y-73143376D01*
X53759128Y-73143377D01*
X53740710Y-73154730D01*
X53731093Y-73159726D01*
X53709738Y-73168901D01*
X53709736Y-73168902D01*
X53704937Y-73170964D01*
X53700051Y-73174978D01*
X53693620Y-73181409D01*
X53680125Y-73192076D01*
X53669652Y-73198532D01*
X53665516Y-73203971D01*
X53650961Y-73223112D01*
X53644383Y-73230646D01*
X52396982Y-74478047D01*
X52351106Y-74499439D01*
X52344204Y-74499720D01*
X52236646Y-74499063D01*
X52236645Y-74499063D01*
X52231376Y-74499031D01*
X52093529Y-74538428D01*
X51972280Y-74614930D01*
X51950603Y-74639475D01*
X51883964Y-74714930D01*
X51877377Y-74722388D01*
X51816447Y-74852163D01*
X51794391Y-74993823D01*
X50200500Y-74993823D01*
X50200500Y-73440607D01*
X50610222Y-73440607D01*
X50614424Y-73465060D01*
X50638479Y-73605054D01*
X50639673Y-73612004D01*
X50641355Y-73615957D01*
X50696094Y-73744600D01*
X50707765Y-73772029D01*
X50737110Y-73811905D01*
X50804813Y-73903903D01*
X50810843Y-73912097D01*
X50814114Y-73914876D01*
X50814116Y-73914878D01*
X50940103Y-74021911D01*
X50943380Y-74024695D01*
X51098265Y-74103783D01*
X51267190Y-74145119D01*
X51278167Y-74145800D01*
X51403547Y-74145800D01*
X51405672Y-74145552D01*
X51405676Y-74145552D01*
X51528468Y-74131236D01*
X51528469Y-74131236D01*
X51532739Y-74130738D01*
X51536781Y-74129271D01*
X51692166Y-74072869D01*
X51692169Y-74072868D01*
X51696212Y-74071400D01*
X51841650Y-73976047D01*
X51961251Y-73849793D01*
X51966837Y-73840177D01*
X52046441Y-73703127D01*
X52048599Y-73699412D01*
X52099010Y-73532969D01*
X52099276Y-73528683D01*
X52109512Y-73363687D01*
X52109512Y-73363684D01*
X52109778Y-73359393D01*
X52091170Y-73251099D01*
X52081055Y-73192231D01*
X52081054Y-73192229D01*
X52080327Y-73187996D01*
X52074450Y-73174185D01*
X52013917Y-73031923D01*
X52013915Y-73031920D01*
X52012235Y-73027971D01*
X51959950Y-72956923D01*
X51911703Y-72891362D01*
X51911701Y-72891360D01*
X51909157Y-72887903D01*
X51835670Y-72825471D01*
X51779897Y-72778089D01*
X51776620Y-72775305D01*
X51621735Y-72696217D01*
X51452810Y-72654881D01*
X51441833Y-72654200D01*
X51316453Y-72654200D01*
X51314328Y-72654448D01*
X51314324Y-72654448D01*
X51191532Y-72668764D01*
X51191531Y-72668764D01*
X51187261Y-72669262D01*
X51183220Y-72670729D01*
X51183219Y-72670729D01*
X51027834Y-72727131D01*
X51027831Y-72727132D01*
X51023788Y-72728600D01*
X50878350Y-72823953D01*
X50758749Y-72950207D01*
X50756593Y-72953918D01*
X50756592Y-72953920D01*
X50715589Y-73024513D01*
X50671401Y-73100588D01*
X50620990Y-73267031D01*
X50620724Y-73271316D01*
X50620724Y-73271317D01*
X50617400Y-73324907D01*
X50610222Y-73440607D01*
X50200500Y-73440607D01*
X50200500Y-70041973D01*
X51892776Y-70041973D01*
X51894173Y-70047183D01*
X51895059Y-70047941D01*
X52094404Y-70194105D01*
X52099033Y-70196998D01*
X52317796Y-70312095D01*
X52322817Y-70314279D01*
X52556181Y-70395773D01*
X52561476Y-70397191D01*
X52804316Y-70443297D01*
X52809758Y-70443917D01*
X53056751Y-70453621D01*
X53062229Y-70453430D01*
X53307933Y-70426521D01*
X53313331Y-70425520D01*
X53552359Y-70362589D01*
X53557540Y-70360805D01*
X53784649Y-70263232D01*
X53789513Y-70260699D01*
X53999701Y-70130631D01*
X54004136Y-70127408D01*
X54099056Y-70047053D01*
X54101959Y-70041973D01*
X56892776Y-70041973D01*
X56894173Y-70047183D01*
X56895059Y-70047941D01*
X57094404Y-70194105D01*
X57099033Y-70196998D01*
X57317796Y-70312095D01*
X57322817Y-70314279D01*
X57556181Y-70395773D01*
X57561476Y-70397191D01*
X57804316Y-70443297D01*
X57809758Y-70443917D01*
X58056751Y-70453621D01*
X58062229Y-70453430D01*
X58307933Y-70426521D01*
X58313331Y-70425520D01*
X58552359Y-70362589D01*
X58557540Y-70360805D01*
X58784649Y-70263232D01*
X58789513Y-70260699D01*
X58999701Y-70130631D01*
X59004136Y-70127408D01*
X59099056Y-70047053D01*
X59104335Y-70037816D01*
X59103480Y-70033085D01*
X58009226Y-68938831D01*
X57999587Y-68934336D01*
X57993688Y-68935917D01*
X56897271Y-70032334D01*
X56892776Y-70041973D01*
X54101959Y-70041973D01*
X54104335Y-70037816D01*
X54103480Y-70033085D01*
X53009226Y-68938831D01*
X52999587Y-68934336D01*
X52993688Y-68935917D01*
X51897271Y-70032334D01*
X51892776Y-70041973D01*
X50200500Y-70041973D01*
X50200500Y-68708118D01*
X51295949Y-68708118D01*
X51307808Y-68955021D01*
X51308475Y-68960449D01*
X51356699Y-69202884D01*
X51358164Y-69208165D01*
X51441691Y-69440808D01*
X51443916Y-69445807D01*
X51560913Y-69663549D01*
X51563859Y-69668174D01*
X51700703Y-69851430D01*
X51709598Y-69857262D01*
X51713608Y-69856787D01*
X52811169Y-68759226D01*
X52815279Y-68750413D01*
X53184336Y-68750413D01*
X53185917Y-68756312D01*
X54279407Y-69849802D01*
X54289046Y-69854297D01*
X54293930Y-69852988D01*
X54359679Y-69778015D01*
X54362971Y-69773648D01*
X54496692Y-69565756D01*
X54499308Y-69560937D01*
X54600827Y-69335572D01*
X54602703Y-69330422D01*
X54669798Y-69092517D01*
X54670890Y-69087151D01*
X54702196Y-68841070D01*
X54702480Y-68837365D01*
X54704718Y-68751854D01*
X54704630Y-68748152D01*
X54701655Y-68708118D01*
X56295949Y-68708118D01*
X56307808Y-68955021D01*
X56308475Y-68960449D01*
X56356699Y-69202884D01*
X56358164Y-69208165D01*
X56441691Y-69440808D01*
X56443916Y-69445807D01*
X56560913Y-69663549D01*
X56563859Y-69668174D01*
X56700703Y-69851430D01*
X56709598Y-69857262D01*
X56713608Y-69856787D01*
X57811169Y-68759226D01*
X57815279Y-68750413D01*
X58184336Y-68750413D01*
X58185917Y-68756312D01*
X59279407Y-69849802D01*
X59289046Y-69854297D01*
X59293930Y-69852988D01*
X59359679Y-69778015D01*
X59362971Y-69773648D01*
X59496692Y-69565756D01*
X59499308Y-69560937D01*
X59600827Y-69335572D01*
X59602703Y-69330422D01*
X59669798Y-69092517D01*
X59670890Y-69087151D01*
X59702196Y-68841070D01*
X59702480Y-68837365D01*
X59704718Y-68751854D01*
X59704630Y-68748152D01*
X59686245Y-68500748D01*
X59685437Y-68495345D01*
X59630884Y-68254258D01*
X59629281Y-68249012D01*
X59539691Y-68018633D01*
X59537338Y-68013700D01*
X59414678Y-67799089D01*
X59411614Y-67794547D01*
X59297780Y-67650150D01*
X59288735Y-67644552D01*
X59284428Y-67645177D01*
X58188831Y-68740774D01*
X58184336Y-68750413D01*
X57815279Y-68750413D01*
X57815664Y-68749587D01*
X57814083Y-68743688D01*
X56720473Y-67650078D01*
X56710834Y-67645583D01*
X56706302Y-67646798D01*
X56613882Y-67757922D01*
X56610693Y-67762394D01*
X56482467Y-67973702D01*
X56479980Y-67978582D01*
X56384391Y-68206536D01*
X56382652Y-68211734D01*
X56321807Y-68451311D01*
X56320858Y-68456696D01*
X56296092Y-68702642D01*
X56295949Y-68708118D01*
X54701655Y-68708118D01*
X54686245Y-68500748D01*
X54685437Y-68495345D01*
X54630884Y-68254258D01*
X54629281Y-68249012D01*
X54539691Y-68018633D01*
X54537338Y-68013700D01*
X54414678Y-67799089D01*
X54411614Y-67794547D01*
X54297780Y-67650150D01*
X54288735Y-67644552D01*
X54284428Y-67645177D01*
X53188831Y-68740774D01*
X53184336Y-68750413D01*
X52815279Y-68750413D01*
X52815664Y-68749587D01*
X52814083Y-68743688D01*
X51720473Y-67650078D01*
X51710834Y-67645583D01*
X51706302Y-67646798D01*
X51613882Y-67757922D01*
X51610693Y-67762394D01*
X51482467Y-67973702D01*
X51479980Y-67978582D01*
X51384391Y-68206536D01*
X51382652Y-68211734D01*
X51321807Y-68451311D01*
X51320858Y-68456696D01*
X51296092Y-68702642D01*
X51295949Y-68708118D01*
X50200500Y-68708118D01*
X50200500Y-67461906D01*
X51895528Y-67461906D01*
X51896583Y-67466978D01*
X52990774Y-68561169D01*
X53000413Y-68565664D01*
X53006312Y-68564083D01*
X54100927Y-67469468D01*
X54104453Y-67461906D01*
X56895528Y-67461906D01*
X56896583Y-67466978D01*
X57990774Y-68561169D01*
X58000413Y-68565664D01*
X58006312Y-68564083D01*
X59100927Y-67469468D01*
X59105422Y-67459829D01*
X59103975Y-67454430D01*
X59074846Y-67427029D01*
X59070589Y-67423582D01*
X58867494Y-67282690D01*
X58862769Y-67279907D01*
X58641081Y-67170583D01*
X58635998Y-67168530D01*
X58400594Y-67093176D01*
X58395254Y-67091894D01*
X58151281Y-67052160D01*
X58145844Y-67051684D01*
X57898671Y-67048449D01*
X57893203Y-67048784D01*
X57648274Y-67082117D01*
X57642931Y-67083252D01*
X57405608Y-67152425D01*
X57400492Y-67154338D01*
X57176001Y-67257830D01*
X57171219Y-67260481D01*
X56964502Y-67396010D01*
X56960152Y-67399348D01*
X56900564Y-67452533D01*
X56895528Y-67461906D01*
X54104453Y-67461906D01*
X54105422Y-67459829D01*
X54103975Y-67454430D01*
X54074846Y-67427029D01*
X54070589Y-67423582D01*
X53867494Y-67282690D01*
X53862769Y-67279907D01*
X53641081Y-67170583D01*
X53635998Y-67168530D01*
X53400594Y-67093176D01*
X53395254Y-67091894D01*
X53151281Y-67052160D01*
X53145844Y-67051684D01*
X52898671Y-67048449D01*
X52893203Y-67048784D01*
X52648274Y-67082117D01*
X52642931Y-67083252D01*
X52405608Y-67152425D01*
X52400492Y-67154338D01*
X52176001Y-67257830D01*
X52171219Y-67260481D01*
X51964502Y-67396010D01*
X51960152Y-67399348D01*
X51900564Y-67452533D01*
X51895528Y-67461906D01*
X50200500Y-67461906D01*
X50200500Y-62541973D01*
X51892776Y-62541973D01*
X51894173Y-62547183D01*
X51895059Y-62547941D01*
X52094404Y-62694105D01*
X52099033Y-62696998D01*
X52317796Y-62812095D01*
X52322817Y-62814279D01*
X52556181Y-62895773D01*
X52561476Y-62897191D01*
X52804316Y-62943297D01*
X52809758Y-62943917D01*
X53056751Y-62953621D01*
X53062229Y-62953430D01*
X53307933Y-62926521D01*
X53313331Y-62925520D01*
X53552359Y-62862589D01*
X53557540Y-62860805D01*
X53784649Y-62763232D01*
X53789513Y-62760699D01*
X53999701Y-62630631D01*
X54004136Y-62627408D01*
X54099056Y-62547053D01*
X54101959Y-62541973D01*
X56892776Y-62541973D01*
X56894173Y-62547183D01*
X56895059Y-62547941D01*
X57094404Y-62694105D01*
X57099033Y-62696998D01*
X57317796Y-62812095D01*
X57322817Y-62814279D01*
X57556181Y-62895773D01*
X57561476Y-62897191D01*
X57804316Y-62943297D01*
X57809758Y-62943917D01*
X58056751Y-62953621D01*
X58062229Y-62953430D01*
X58307933Y-62926521D01*
X58313331Y-62925520D01*
X58552359Y-62862589D01*
X58557540Y-62860805D01*
X58784649Y-62763232D01*
X58789513Y-62760699D01*
X58999701Y-62630631D01*
X59004136Y-62627408D01*
X59099056Y-62547053D01*
X59104335Y-62537816D01*
X59103480Y-62533085D01*
X58009226Y-61438831D01*
X57999587Y-61434336D01*
X57993688Y-61435917D01*
X56897271Y-62532334D01*
X56892776Y-62541973D01*
X54101959Y-62541973D01*
X54104335Y-62537816D01*
X54103480Y-62533085D01*
X53009226Y-61438831D01*
X52999587Y-61434336D01*
X52993688Y-61435917D01*
X51897271Y-62532334D01*
X51892776Y-62541973D01*
X50200500Y-62541973D01*
X50200500Y-61208118D01*
X51295949Y-61208118D01*
X51307808Y-61455021D01*
X51308475Y-61460449D01*
X51356699Y-61702884D01*
X51358164Y-61708165D01*
X51441691Y-61940808D01*
X51443916Y-61945807D01*
X51560913Y-62163549D01*
X51563859Y-62168174D01*
X51700703Y-62351430D01*
X51709598Y-62357262D01*
X51713608Y-62356787D01*
X52811169Y-61259226D01*
X52815279Y-61250413D01*
X53184336Y-61250413D01*
X53185917Y-61256312D01*
X54279407Y-62349802D01*
X54289046Y-62354297D01*
X54293930Y-62352988D01*
X54359679Y-62278015D01*
X54362971Y-62273648D01*
X54496692Y-62065756D01*
X54499308Y-62060937D01*
X54600827Y-61835572D01*
X54602703Y-61830422D01*
X54669798Y-61592517D01*
X54670890Y-61587151D01*
X54702196Y-61341070D01*
X54702480Y-61337365D01*
X54704718Y-61251854D01*
X54704630Y-61248152D01*
X54701655Y-61208118D01*
X56295949Y-61208118D01*
X56307808Y-61455021D01*
X56308475Y-61460449D01*
X56356699Y-61702884D01*
X56358164Y-61708165D01*
X56441691Y-61940808D01*
X56443916Y-61945807D01*
X56560913Y-62163549D01*
X56563859Y-62168174D01*
X56700703Y-62351430D01*
X56709598Y-62357262D01*
X56713608Y-62356787D01*
X57811169Y-61259226D01*
X57815664Y-61249587D01*
X57814083Y-61243688D01*
X56720473Y-60150078D01*
X56710834Y-60145583D01*
X56706302Y-60146798D01*
X56613882Y-60257922D01*
X56610693Y-60262394D01*
X56482467Y-60473702D01*
X56479980Y-60478582D01*
X56384391Y-60706536D01*
X56382652Y-60711734D01*
X56321807Y-60951311D01*
X56320858Y-60956696D01*
X56296092Y-61202642D01*
X56295949Y-61208118D01*
X54701655Y-61208118D01*
X54686245Y-61000748D01*
X54685437Y-60995345D01*
X54630884Y-60754258D01*
X54629281Y-60749012D01*
X54539691Y-60518633D01*
X54537338Y-60513700D01*
X54414678Y-60299089D01*
X54411614Y-60294547D01*
X54297780Y-60150150D01*
X54288735Y-60144552D01*
X54284428Y-60145177D01*
X53188831Y-61240774D01*
X53184336Y-61250413D01*
X52815279Y-61250413D01*
X52815664Y-61249587D01*
X52814083Y-61243688D01*
X51720473Y-60150078D01*
X51710834Y-60145583D01*
X51706302Y-60146798D01*
X51613882Y-60257922D01*
X51610693Y-60262394D01*
X51482467Y-60473702D01*
X51479980Y-60478582D01*
X51384391Y-60706536D01*
X51382652Y-60711734D01*
X51321807Y-60951311D01*
X51320858Y-60956696D01*
X51296092Y-61202642D01*
X51295949Y-61208118D01*
X50200500Y-61208118D01*
X50200500Y-59961906D01*
X51895528Y-59961906D01*
X51896583Y-59966978D01*
X52990774Y-61061169D01*
X53000413Y-61065664D01*
X53006312Y-61064083D01*
X54100927Y-59969468D01*
X54104453Y-59961906D01*
X56895528Y-59961906D01*
X56896583Y-59966978D01*
X57990774Y-61061169D01*
X58000413Y-61065664D01*
X58006312Y-61064083D01*
X59100927Y-59969468D01*
X59105422Y-59959829D01*
X59103975Y-59954430D01*
X59074846Y-59927029D01*
X59070589Y-59923582D01*
X58867494Y-59782690D01*
X58862769Y-59779907D01*
X58641081Y-59670583D01*
X58635998Y-59668530D01*
X58400594Y-59593176D01*
X58395254Y-59591894D01*
X58151281Y-59552160D01*
X58145844Y-59551684D01*
X57898671Y-59548449D01*
X57893203Y-59548784D01*
X57648274Y-59582117D01*
X57642931Y-59583252D01*
X57405608Y-59652425D01*
X57400492Y-59654338D01*
X57176001Y-59757830D01*
X57171219Y-59760481D01*
X56964502Y-59896010D01*
X56960152Y-59899348D01*
X56900564Y-59952533D01*
X56895528Y-59961906D01*
X54104453Y-59961906D01*
X54105422Y-59959829D01*
X54103975Y-59954430D01*
X54074846Y-59927029D01*
X54070589Y-59923582D01*
X53867494Y-59782690D01*
X53862769Y-59779907D01*
X53641081Y-59670583D01*
X53635998Y-59668530D01*
X53400594Y-59593176D01*
X53395254Y-59591894D01*
X53151281Y-59552160D01*
X53145844Y-59551684D01*
X52898671Y-59548449D01*
X52893203Y-59548784D01*
X52648274Y-59582117D01*
X52642931Y-59583252D01*
X52405608Y-59652425D01*
X52400492Y-59654338D01*
X52176001Y-59757830D01*
X52171219Y-59760481D01*
X51964502Y-59896010D01*
X51960152Y-59899348D01*
X51900564Y-59952533D01*
X51895528Y-59961906D01*
X50200500Y-59961906D01*
X50200500Y-52366058D01*
X58375000Y-52366058D01*
X58375710Y-52373268D01*
X58385182Y-52420890D01*
X58390652Y-52434094D01*
X58426759Y-52488132D01*
X58436868Y-52498241D01*
X58490906Y-52534348D01*
X58504110Y-52539818D01*
X58551732Y-52549290D01*
X58558942Y-52550000D01*
X59284952Y-52550000D01*
X59294948Y-52546362D01*
X59298000Y-52541075D01*
X59298000Y-52536952D01*
X59552000Y-52536952D01*
X59555638Y-52546948D01*
X59560925Y-52550000D01*
X60291058Y-52550000D01*
X60298268Y-52549290D01*
X60345890Y-52539818D01*
X60359094Y-52534348D01*
X60413132Y-52498241D01*
X60423241Y-52488132D01*
X60459348Y-52434094D01*
X60464818Y-52420890D01*
X60474290Y-52373268D01*
X60475000Y-52366058D01*
X60475000Y-52294748D01*
X111624500Y-52294748D01*
X111636133Y-52353231D01*
X111640184Y-52359293D01*
X111640184Y-52359294D01*
X111654792Y-52381156D01*
X111680448Y-52419552D01*
X111746769Y-52463867D01*
X111791295Y-52472724D01*
X111801682Y-52474790D01*
X111801683Y-52474790D01*
X111805252Y-52475500D01*
X113544748Y-52475500D01*
X113548317Y-52474790D01*
X113548318Y-52474790D01*
X113558705Y-52472724D01*
X113603231Y-52463867D01*
X113669552Y-52419552D01*
X113695208Y-52381156D01*
X113709816Y-52359294D01*
X113709816Y-52359293D01*
X113713867Y-52353231D01*
X113725500Y-52294748D01*
X113725500Y-50555252D01*
X113713867Y-50496769D01*
X113682617Y-50450000D01*
X113673602Y-50436509D01*
X113669552Y-50430448D01*
X113603231Y-50386133D01*
X113558705Y-50377276D01*
X113548318Y-50375210D01*
X113548317Y-50375210D01*
X113544748Y-50374500D01*
X111805252Y-50374500D01*
X111801683Y-50375210D01*
X111801682Y-50375210D01*
X111791295Y-50377276D01*
X111746769Y-50386133D01*
X111680448Y-50430448D01*
X111676398Y-50436509D01*
X111667384Y-50450000D01*
X111636133Y-50496769D01*
X111624500Y-50555252D01*
X111624500Y-52294748D01*
X60475000Y-52294748D01*
X60475000Y-51640048D01*
X60471362Y-51630052D01*
X60466075Y-51627000D01*
X59565048Y-51627000D01*
X59555052Y-51630638D01*
X59552000Y-51635925D01*
X59552000Y-52536952D01*
X59298000Y-52536952D01*
X59298000Y-51640048D01*
X59294362Y-51630052D01*
X59289075Y-51627000D01*
X58388048Y-51627000D01*
X58378052Y-51630638D01*
X58375000Y-51635925D01*
X58375000Y-52366058D01*
X50200500Y-52366058D01*
X50200500Y-51359952D01*
X58375000Y-51359952D01*
X58378638Y-51369948D01*
X58383925Y-51373000D01*
X59284952Y-51373000D01*
X59294948Y-51369362D01*
X59298000Y-51364075D01*
X59298000Y-51359952D01*
X59552000Y-51359952D01*
X59555638Y-51369948D01*
X59560925Y-51373000D01*
X60461952Y-51373000D01*
X60471948Y-51369362D01*
X60475000Y-51364075D01*
X60475000Y-50633942D01*
X60474290Y-50626732D01*
X60464818Y-50579110D01*
X60459348Y-50565906D01*
X60423241Y-50511868D01*
X60413132Y-50501759D01*
X60359094Y-50465652D01*
X60345890Y-50460182D01*
X60298268Y-50450710D01*
X60291058Y-50450000D01*
X59565048Y-50450000D01*
X59555052Y-50453638D01*
X59552000Y-50458925D01*
X59552000Y-51359952D01*
X59298000Y-51359952D01*
X59298000Y-50463048D01*
X59294362Y-50453052D01*
X59289075Y-50450000D01*
X58558942Y-50450000D01*
X58551732Y-50450710D01*
X58504110Y-50460182D01*
X58490906Y-50465652D01*
X58436868Y-50501759D01*
X58426759Y-50511868D01*
X58390652Y-50565906D01*
X58385182Y-50579110D01*
X58375710Y-50626732D01*
X58375000Y-50633942D01*
X58375000Y-51359952D01*
X50200500Y-51359952D01*
X50200500Y-51031423D01*
X50202411Y-51014713D01*
X50204708Y-51004802D01*
X50205655Y-51000718D01*
X50205656Y-51000000D01*
X50204727Y-50995926D01*
X50204262Y-50991772D01*
X50204466Y-50991749D01*
X50203235Y-50972237D01*
X50215148Y-50851279D01*
X50217978Y-50837051D01*
X50259243Y-50701016D01*
X50264792Y-50687621D01*
X50331806Y-50562246D01*
X50339862Y-50550190D01*
X50371312Y-50511868D01*
X50430046Y-50440300D01*
X50440302Y-50430044D01*
X50468153Y-50407188D01*
X50550190Y-50339862D01*
X50562246Y-50331806D01*
X50687621Y-50264792D01*
X50701013Y-50259244D01*
X50761612Y-50240862D01*
X50837051Y-50217978D01*
X50851279Y-50215148D01*
X50972008Y-50203257D01*
X50983186Y-50203973D01*
X50983186Y-50203774D01*
X50991520Y-50203789D01*
X50999641Y-50205656D01*
X51007768Y-50203817D01*
X51007770Y-50203817D01*
X51014362Y-50202325D01*
X51030694Y-50200500D01*
X126968819Y-50200500D01*
X126985402Y-50202382D01*
G37*
%TD.AperFunction*%
%TD*%
M02*
