%TF.GenerationSoftware,KiCad,Pcbnew,(6.0.10)*%
%TF.CreationDate,2023-04-20T12:34:08-06:00*%
%TF.ProjectId,SolarGPS,536f6c61-7247-4505-932e-6b696361645f,rev?*%
%TF.SameCoordinates,Original*%
%TF.FileFunction,Paste,Top*%
%TF.FilePolarity,Positive*%
%FSLAX46Y46*%
G04 Gerber Fmt 4.6, Leading zero omitted, Abs format (unit mm)*
G04 Created by KiCad (PCBNEW (6.0.10)) date 2023-04-20 12:34:08*
%MOMM*%
%LPD*%
G01*
G04 APERTURE LIST*
G04 Aperture macros list*
%AMRoundRect*
0 Rectangle with rounded corners*
0 $1 Rounding radius*
0 $2 $3 $4 $5 $6 $7 $8 $9 X,Y pos of 4 corners*
0 Add a 4 corners polygon primitive as box body*
4,1,4,$2,$3,$4,$5,$6,$7,$8,$9,$2,$3,0*
0 Add four circle primitives for the rounded corners*
1,1,$1+$1,$2,$3*
1,1,$1+$1,$4,$5*
1,1,$1+$1,$6,$7*
1,1,$1+$1,$8,$9*
0 Add four rect primitives between the rounded corners*
20,1,$1+$1,$2,$3,$4,$5,0*
20,1,$1+$1,$4,$5,$6,$7,0*
20,1,$1+$1,$6,$7,$8,$9,0*
20,1,$1+$1,$8,$9,$2,$3,0*%
G04 Aperture macros list end*
%ADD10C,0.010000*%
%ADD11RoundRect,0.225000X-0.250000X0.225000X-0.250000X-0.225000X0.250000X-0.225000X0.250000X0.225000X0*%
%ADD12RoundRect,0.200000X-0.200000X-0.275000X0.200000X-0.275000X0.200000X0.275000X-0.200000X0.275000X0*%
%ADD13RoundRect,0.225000X-0.225000X-0.250000X0.225000X-0.250000X0.225000X0.250000X-0.225000X0.250000X0*%
%ADD14R,4.000000X0.300000*%
%ADD15RoundRect,0.200000X-0.275000X0.200000X-0.275000X-0.200000X0.275000X-0.200000X0.275000X0.200000X0*%
%ADD16R,4.000000X0.250000*%
%ADD17R,3.500000X0.250000*%
%ADD18RoundRect,0.225000X0.250000X-0.225000X0.250000X0.225000X-0.250000X0.225000X-0.250000X-0.225000X0*%
%ADD19RoundRect,0.200000X0.200000X0.275000X-0.200000X0.275000X-0.200000X-0.275000X0.200000X-0.275000X0*%
%ADD20RoundRect,0.225000X0.225000X0.250000X-0.225000X0.250000X-0.225000X-0.250000X0.225000X-0.250000X0*%
%ADD21RoundRect,0.150000X0.512500X0.150000X-0.512500X0.150000X-0.512500X-0.150000X0.512500X-0.150000X0*%
%ADD22RoundRect,0.250000X-0.450000X0.325000X-0.450000X-0.325000X0.450000X-0.325000X0.450000X0.325000X0*%
%ADD23RoundRect,0.150000X-0.512500X-0.150000X0.512500X-0.150000X0.512500X0.150000X-0.512500X0.150000X0*%
%ADD24R,0.580000X0.720000*%
%ADD25R,0.720000X0.580000*%
%ADD26RoundRect,0.232500X0.232500X0.232500X-0.232500X0.232500X-0.232500X-0.232500X0.232500X-0.232500X0*%
%ADD27RoundRect,0.062500X0.375000X0.062500X-0.375000X0.062500X-0.375000X-0.062500X0.375000X-0.062500X0*%
%ADD28RoundRect,0.062500X0.062500X0.375000X-0.062500X0.375000X-0.062500X-0.375000X0.062500X-0.375000X0*%
%ADD29RoundRect,0.250000X0.650000X-0.325000X0.650000X0.325000X-0.650000X0.325000X-0.650000X-0.325000X0*%
%ADD30R,1.800000X1.000000*%
%ADD31RoundRect,0.200000X0.275000X-0.200000X0.275000X0.200000X-0.275000X0.200000X-0.275000X-0.200000X0*%
%ADD32RoundRect,0.250000X-0.325000X-0.650000X0.325000X-0.650000X0.325000X0.650000X-0.325000X0.650000X0*%
%ADD33R,0.675000X0.250000*%
%ADD34R,0.250000X0.675000*%
%ADD35RoundRect,0.243750X0.243750X0.456250X-0.243750X0.456250X-0.243750X-0.456250X0.243750X-0.456250X0*%
%ADD36RoundRect,0.012500X-0.287500X-0.112500X0.287500X-0.112500X0.287500X0.112500X-0.287500X0.112500X0*%
%ADD37RoundRect,0.012500X-0.437500X-0.112500X0.437500X-0.112500X0.437500X0.112500X-0.437500X0.112500X0*%
%ADD38RoundRect,0.250000X-0.262500X-0.450000X0.262500X-0.450000X0.262500X0.450000X-0.262500X0.450000X0*%
G04 APERTURE END LIST*
%TO.C,U1*%
G36*
X66003000Y-55076000D02*
G01*
X66005000Y-55076000D01*
X66008000Y-55077000D01*
X66010000Y-55077000D01*
X66013000Y-55078000D01*
X66015000Y-55079000D01*
X66018000Y-55080000D01*
X66020000Y-55082000D01*
X66022000Y-55083000D01*
X66024000Y-55085000D01*
X66026000Y-55086000D01*
X66034000Y-55094000D01*
X66035000Y-55096000D01*
X66037000Y-55098000D01*
X66038000Y-55100000D01*
X66040000Y-55102000D01*
X66041000Y-55105000D01*
X66042000Y-55107000D01*
X66043000Y-55110000D01*
X66043000Y-55112000D01*
X66044000Y-55115000D01*
X66044000Y-55117000D01*
X66045000Y-55120000D01*
X66045000Y-55280000D01*
X66044000Y-55283000D01*
X66044000Y-55285000D01*
X66043000Y-55288000D01*
X66043000Y-55290000D01*
X66042000Y-55293000D01*
X66041000Y-55295000D01*
X66040000Y-55298000D01*
X66038000Y-55300000D01*
X66037000Y-55302000D01*
X66035000Y-55304000D01*
X66034000Y-55306000D01*
X66026000Y-55314000D01*
X66024000Y-55315000D01*
X66022000Y-55317000D01*
X66020000Y-55318000D01*
X66018000Y-55320000D01*
X66015000Y-55321000D01*
X66013000Y-55322000D01*
X66010000Y-55323000D01*
X66008000Y-55323000D01*
X66005000Y-55324000D01*
X66003000Y-55324000D01*
X66000000Y-55325000D01*
X65540000Y-55325000D01*
X65537000Y-55324000D01*
X65535000Y-55324000D01*
X65532000Y-55323000D01*
X65530000Y-55323000D01*
X65527000Y-55322000D01*
X65525000Y-55321000D01*
X65522000Y-55320000D01*
X65520000Y-55318000D01*
X65518000Y-55317000D01*
X65516000Y-55315000D01*
X65514000Y-55314000D01*
X65506000Y-55306000D01*
X65505000Y-55304000D01*
X65503000Y-55302000D01*
X65502000Y-55300000D01*
X65500000Y-55298000D01*
X65499000Y-55295000D01*
X65498000Y-55293000D01*
X65497000Y-55290000D01*
X65497000Y-55288000D01*
X65496000Y-55285000D01*
X65496000Y-55283000D01*
X65495000Y-55280000D01*
X65495000Y-55120000D01*
X65496000Y-55117000D01*
X65496000Y-55115000D01*
X65497000Y-55112000D01*
X65497000Y-55110000D01*
X65498000Y-55107000D01*
X65499000Y-55105000D01*
X65500000Y-55102000D01*
X65502000Y-55100000D01*
X65503000Y-55098000D01*
X65505000Y-55096000D01*
X65506000Y-55094000D01*
X65514000Y-55086000D01*
X65516000Y-55085000D01*
X65518000Y-55083000D01*
X65520000Y-55082000D01*
X65522000Y-55080000D01*
X65525000Y-55079000D01*
X65527000Y-55078000D01*
X65530000Y-55077000D01*
X65532000Y-55077000D01*
X65535000Y-55076000D01*
X65537000Y-55076000D01*
X65540000Y-55075000D01*
X66000000Y-55075000D01*
X66003000Y-55076000D01*
G37*
D10*
X66003000Y-55076000D02*
X66005000Y-55076000D01*
X66008000Y-55077000D01*
X66010000Y-55077000D01*
X66013000Y-55078000D01*
X66015000Y-55079000D01*
X66018000Y-55080000D01*
X66020000Y-55082000D01*
X66022000Y-55083000D01*
X66024000Y-55085000D01*
X66026000Y-55086000D01*
X66034000Y-55094000D01*
X66035000Y-55096000D01*
X66037000Y-55098000D01*
X66038000Y-55100000D01*
X66040000Y-55102000D01*
X66041000Y-55105000D01*
X66042000Y-55107000D01*
X66043000Y-55110000D01*
X66043000Y-55112000D01*
X66044000Y-55115000D01*
X66044000Y-55117000D01*
X66045000Y-55120000D01*
X66045000Y-55280000D01*
X66044000Y-55283000D01*
X66044000Y-55285000D01*
X66043000Y-55288000D01*
X66043000Y-55290000D01*
X66042000Y-55293000D01*
X66041000Y-55295000D01*
X66040000Y-55298000D01*
X66038000Y-55300000D01*
X66037000Y-55302000D01*
X66035000Y-55304000D01*
X66034000Y-55306000D01*
X66026000Y-55314000D01*
X66024000Y-55315000D01*
X66022000Y-55317000D01*
X66020000Y-55318000D01*
X66018000Y-55320000D01*
X66015000Y-55321000D01*
X66013000Y-55322000D01*
X66010000Y-55323000D01*
X66008000Y-55323000D01*
X66005000Y-55324000D01*
X66003000Y-55324000D01*
X66000000Y-55325000D01*
X65540000Y-55325000D01*
X65537000Y-55324000D01*
X65535000Y-55324000D01*
X65532000Y-55323000D01*
X65530000Y-55323000D01*
X65527000Y-55322000D01*
X65525000Y-55321000D01*
X65522000Y-55320000D01*
X65520000Y-55318000D01*
X65518000Y-55317000D01*
X65516000Y-55315000D01*
X65514000Y-55314000D01*
X65506000Y-55306000D01*
X65505000Y-55304000D01*
X65503000Y-55302000D01*
X65502000Y-55300000D01*
X65500000Y-55298000D01*
X65499000Y-55295000D01*
X65498000Y-55293000D01*
X65497000Y-55290000D01*
X65497000Y-55288000D01*
X65496000Y-55285000D01*
X65496000Y-55283000D01*
X65495000Y-55280000D01*
X65495000Y-55120000D01*
X65496000Y-55117000D01*
X65496000Y-55115000D01*
X65497000Y-55112000D01*
X65497000Y-55110000D01*
X65498000Y-55107000D01*
X65499000Y-55105000D01*
X65500000Y-55102000D01*
X65502000Y-55100000D01*
X65503000Y-55098000D01*
X65505000Y-55096000D01*
X65506000Y-55094000D01*
X65514000Y-55086000D01*
X65516000Y-55085000D01*
X65518000Y-55083000D01*
X65520000Y-55082000D01*
X65522000Y-55080000D01*
X65525000Y-55079000D01*
X65527000Y-55078000D01*
X65530000Y-55077000D01*
X65532000Y-55077000D01*
X65535000Y-55076000D01*
X65537000Y-55076000D01*
X65540000Y-55075000D01*
X66000000Y-55075000D01*
X66003000Y-55076000D01*
G36*
X65253000Y-55076000D02*
G01*
X65255000Y-55076000D01*
X65258000Y-55077000D01*
X65260000Y-55077000D01*
X65263000Y-55078000D01*
X65265000Y-55079000D01*
X65268000Y-55080000D01*
X65270000Y-55082000D01*
X65272000Y-55083000D01*
X65274000Y-55085000D01*
X65276000Y-55086000D01*
X65284000Y-55094000D01*
X65285000Y-55096000D01*
X65287000Y-55098000D01*
X65288000Y-55100000D01*
X65290000Y-55102000D01*
X65291000Y-55105000D01*
X65292000Y-55107000D01*
X65293000Y-55110000D01*
X65293000Y-55112000D01*
X65294000Y-55115000D01*
X65294000Y-55117000D01*
X65295000Y-55120000D01*
X65295000Y-55280000D01*
X65294000Y-55283000D01*
X65294000Y-55285000D01*
X65293000Y-55288000D01*
X65293000Y-55290000D01*
X65292000Y-55293000D01*
X65291000Y-55295000D01*
X65290000Y-55298000D01*
X65288000Y-55300000D01*
X65287000Y-55302000D01*
X65285000Y-55304000D01*
X65284000Y-55306000D01*
X65276000Y-55314000D01*
X65274000Y-55315000D01*
X65272000Y-55317000D01*
X65270000Y-55318000D01*
X65268000Y-55320000D01*
X65265000Y-55321000D01*
X65263000Y-55322000D01*
X65260000Y-55323000D01*
X65258000Y-55323000D01*
X65255000Y-55324000D01*
X65253000Y-55324000D01*
X65250000Y-55325000D01*
X64790000Y-55325000D01*
X64787000Y-55324000D01*
X64785000Y-55324000D01*
X64782000Y-55323000D01*
X64780000Y-55323000D01*
X64777000Y-55322000D01*
X64775000Y-55321000D01*
X64772000Y-55320000D01*
X64770000Y-55318000D01*
X64768000Y-55317000D01*
X64766000Y-55315000D01*
X64764000Y-55314000D01*
X64756000Y-55306000D01*
X64755000Y-55304000D01*
X64753000Y-55302000D01*
X64752000Y-55300000D01*
X64750000Y-55298000D01*
X64749000Y-55295000D01*
X64748000Y-55293000D01*
X64747000Y-55290000D01*
X64747000Y-55288000D01*
X64746000Y-55285000D01*
X64746000Y-55283000D01*
X64745000Y-55280000D01*
X64745000Y-55120000D01*
X64746000Y-55117000D01*
X64746000Y-55115000D01*
X64747000Y-55112000D01*
X64747000Y-55110000D01*
X64748000Y-55107000D01*
X64749000Y-55105000D01*
X64750000Y-55102000D01*
X64752000Y-55100000D01*
X64753000Y-55098000D01*
X64755000Y-55096000D01*
X64756000Y-55094000D01*
X64764000Y-55086000D01*
X64766000Y-55085000D01*
X64768000Y-55083000D01*
X64770000Y-55082000D01*
X64772000Y-55080000D01*
X64775000Y-55079000D01*
X64777000Y-55078000D01*
X64780000Y-55077000D01*
X64782000Y-55077000D01*
X64785000Y-55076000D01*
X64787000Y-55076000D01*
X64790000Y-55075000D01*
X65250000Y-55075000D01*
X65253000Y-55076000D01*
G37*
X65253000Y-55076000D02*
X65255000Y-55076000D01*
X65258000Y-55077000D01*
X65260000Y-55077000D01*
X65263000Y-55078000D01*
X65265000Y-55079000D01*
X65268000Y-55080000D01*
X65270000Y-55082000D01*
X65272000Y-55083000D01*
X65274000Y-55085000D01*
X65276000Y-55086000D01*
X65284000Y-55094000D01*
X65285000Y-55096000D01*
X65287000Y-55098000D01*
X65288000Y-55100000D01*
X65290000Y-55102000D01*
X65291000Y-55105000D01*
X65292000Y-55107000D01*
X65293000Y-55110000D01*
X65293000Y-55112000D01*
X65294000Y-55115000D01*
X65294000Y-55117000D01*
X65295000Y-55120000D01*
X65295000Y-55280000D01*
X65294000Y-55283000D01*
X65294000Y-55285000D01*
X65293000Y-55288000D01*
X65293000Y-55290000D01*
X65292000Y-55293000D01*
X65291000Y-55295000D01*
X65290000Y-55298000D01*
X65288000Y-55300000D01*
X65287000Y-55302000D01*
X65285000Y-55304000D01*
X65284000Y-55306000D01*
X65276000Y-55314000D01*
X65274000Y-55315000D01*
X65272000Y-55317000D01*
X65270000Y-55318000D01*
X65268000Y-55320000D01*
X65265000Y-55321000D01*
X65263000Y-55322000D01*
X65260000Y-55323000D01*
X65258000Y-55323000D01*
X65255000Y-55324000D01*
X65253000Y-55324000D01*
X65250000Y-55325000D01*
X64790000Y-55325000D01*
X64787000Y-55324000D01*
X64785000Y-55324000D01*
X64782000Y-55323000D01*
X64780000Y-55323000D01*
X64777000Y-55322000D01*
X64775000Y-55321000D01*
X64772000Y-55320000D01*
X64770000Y-55318000D01*
X64768000Y-55317000D01*
X64766000Y-55315000D01*
X64764000Y-55314000D01*
X64756000Y-55306000D01*
X64755000Y-55304000D01*
X64753000Y-55302000D01*
X64752000Y-55300000D01*
X64750000Y-55298000D01*
X64749000Y-55295000D01*
X64748000Y-55293000D01*
X64747000Y-55290000D01*
X64747000Y-55288000D01*
X64746000Y-55285000D01*
X64746000Y-55283000D01*
X64745000Y-55280000D01*
X64745000Y-55120000D01*
X64746000Y-55117000D01*
X64746000Y-55115000D01*
X64747000Y-55112000D01*
X64747000Y-55110000D01*
X64748000Y-55107000D01*
X64749000Y-55105000D01*
X64750000Y-55102000D01*
X64752000Y-55100000D01*
X64753000Y-55098000D01*
X64755000Y-55096000D01*
X64756000Y-55094000D01*
X64764000Y-55086000D01*
X64766000Y-55085000D01*
X64768000Y-55083000D01*
X64770000Y-55082000D01*
X64772000Y-55080000D01*
X64775000Y-55079000D01*
X64777000Y-55078000D01*
X64780000Y-55077000D01*
X64782000Y-55077000D01*
X64785000Y-55076000D01*
X64787000Y-55076000D01*
X64790000Y-55075000D01*
X65250000Y-55075000D01*
X65253000Y-55076000D01*
%TD*%
D11*
%TO.C,C6*%
X65645000Y-51375000D03*
X65645000Y-52925000D03*
%TD*%
D12*
%TO.C,R11*%
X57575000Y-72400000D03*
X59225000Y-72400000D03*
%TD*%
%TO.C,R3*%
X62270000Y-51290000D03*
X63920000Y-51290000D03*
%TD*%
D13*
%TO.C,C13*%
X73150000Y-77100000D03*
X74700000Y-77100000D03*
%TD*%
D14*
%TO.C,J1*%
X66500000Y-67250000D03*
X66500000Y-66750000D03*
X66500000Y-66250000D03*
X66500000Y-65750000D03*
X66500000Y-65250000D03*
X66500000Y-64750000D03*
X66500000Y-64250000D03*
X66500000Y-63750000D03*
X66500000Y-63250000D03*
X66500000Y-62750000D03*
%TD*%
D15*
%TO.C,R4*%
X77150000Y-52225000D03*
X77150000Y-53875000D03*
%TD*%
D16*
%TO.C,J9*%
X45450000Y-73905000D03*
D17*
X45700000Y-74405000D03*
X45700000Y-74905000D03*
D16*
X45450000Y-75405000D03*
D17*
X45700000Y-75905000D03*
X45700000Y-76405000D03*
X45700000Y-76905000D03*
X45700000Y-77405000D03*
D16*
X45450000Y-77905000D03*
D17*
X45700000Y-78405000D03*
X45700000Y-78905000D03*
D16*
X45450000Y-79405000D03*
%TD*%
D18*
%TO.C,C14*%
X61600000Y-69675000D03*
X61600000Y-68125000D03*
%TD*%
D13*
%TO.C,C2*%
X73125000Y-75100000D03*
X74675000Y-75100000D03*
%TD*%
D19*
%TO.C,R13*%
X56575000Y-66400000D03*
X54925000Y-66400000D03*
%TD*%
D20*
%TO.C,C7*%
X76425000Y-71600000D03*
X74875000Y-71600000D03*
%TD*%
D11*
%TO.C,C17*%
X75900000Y-73525000D03*
X75900000Y-75075000D03*
%TD*%
D18*
%TO.C,C1*%
X115900000Y-75575000D03*
X115900000Y-74025000D03*
%TD*%
D21*
%TO.C,U6*%
X75137500Y-57900000D03*
X75137500Y-56950000D03*
X75137500Y-56000000D03*
X72862500Y-56000000D03*
X72862500Y-57900000D03*
%TD*%
D19*
%TO.C,R2*%
X63930000Y-52880000D03*
X62280000Y-52880000D03*
%TD*%
D11*
%TO.C,C12*%
X127900000Y-63425000D03*
X127900000Y-64975000D03*
%TD*%
D22*
%TO.C,L1*%
X67445000Y-54045000D03*
X67445000Y-56095000D03*
%TD*%
D23*
%TO.C,U5*%
X111862500Y-74050000D03*
X111862500Y-75000000D03*
X111862500Y-75950000D03*
X114137500Y-75950000D03*
X114137500Y-74050000D03*
%TD*%
D20*
%TO.C,C3*%
X62875000Y-63200000D03*
X61325000Y-63200000D03*
%TD*%
D24*
%TO.C,U2*%
X114675000Y-72200000D03*
D25*
X112800000Y-67425000D03*
X125000000Y-61725000D03*
D24*
X121225000Y-72200000D03*
D25*
X112800000Y-66575000D03*
D24*
X117425000Y-58000000D03*
D25*
X125000000Y-66575000D03*
X126000000Y-62775000D03*
X125000000Y-67425000D03*
X126000000Y-65525000D03*
X111800000Y-62775000D03*
X111800000Y-65525000D03*
D24*
X115525000Y-72200000D03*
D25*
X112800000Y-63625000D03*
D24*
X120375000Y-72200000D03*
X123125000Y-71200000D03*
X123125000Y-72200000D03*
D25*
X112800000Y-68475000D03*
X126000000Y-66575000D03*
X126000000Y-69325000D03*
D24*
X116575000Y-58000000D03*
D25*
X112800000Y-69325000D03*
D24*
X118475000Y-58000000D03*
X122275000Y-71200000D03*
D25*
X125000000Y-69325000D03*
X125000000Y-62775000D03*
X111800000Y-67425000D03*
D24*
X120375000Y-59000000D03*
D25*
X125000000Y-64675000D03*
X112800000Y-64675000D03*
D24*
X121225000Y-71200000D03*
D25*
X126000000Y-64675000D03*
D24*
X123125000Y-59000000D03*
X119325000Y-71200000D03*
X119325000Y-72200000D03*
D25*
X111800000Y-61725000D03*
X111800000Y-64675000D03*
D24*
X115525000Y-59000000D03*
X115525000Y-71200000D03*
X117425000Y-59000000D03*
D25*
X126000000Y-63625000D03*
X112800000Y-60875000D03*
D24*
X114675000Y-59000000D03*
X123125000Y-58000000D03*
X119325000Y-59000000D03*
D25*
X111800000Y-68475000D03*
D24*
X116575000Y-59000000D03*
D25*
X126000000Y-67425000D03*
X112800000Y-61725000D03*
D24*
X118475000Y-59000000D03*
X115525000Y-58000000D03*
X122275000Y-58000000D03*
X121225000Y-59000000D03*
D25*
X125000000Y-68475000D03*
D24*
X116575000Y-71200000D03*
X117425000Y-71200000D03*
D25*
X112800000Y-62775000D03*
X125000000Y-65525000D03*
X111800000Y-63625000D03*
X126000000Y-61725000D03*
X125000000Y-63625000D03*
D24*
X118475000Y-72200000D03*
X114675000Y-58000000D03*
X119325000Y-58000000D03*
X114675000Y-71200000D03*
D25*
X126000000Y-68475000D03*
D24*
X122275000Y-72200000D03*
D25*
X111800000Y-60875000D03*
D24*
X117425000Y-72200000D03*
D25*
X111800000Y-69325000D03*
D24*
X118475000Y-71200000D03*
X122275000Y-59000000D03*
D25*
X111800000Y-66575000D03*
X126000000Y-60875000D03*
D24*
X121225000Y-58000000D03*
D25*
X112800000Y-65525000D03*
D24*
X120375000Y-71200000D03*
X120375000Y-58000000D03*
D25*
X125000000Y-60875000D03*
D24*
X116575000Y-72200000D03*
%TD*%
D19*
%TO.C,R6*%
X61370000Y-57290000D03*
X59720000Y-57290000D03*
%TD*%
D23*
%TO.C,U8*%
X53662500Y-73650000D03*
X53662500Y-74600000D03*
X53662500Y-75550000D03*
X55937500Y-75550000D03*
X55937500Y-74600000D03*
X55937500Y-73650000D03*
%TD*%
D26*
%TO.C,U3*%
X64050000Y-75250000D03*
X64050000Y-74100000D03*
X65200000Y-75250000D03*
X65200000Y-72950000D03*
X64050000Y-72950000D03*
X66350000Y-74100000D03*
X66350000Y-75250000D03*
X66350000Y-72950000D03*
X65200000Y-74100000D03*
D27*
X67637500Y-75850000D03*
X67637500Y-75350000D03*
X67637500Y-74850000D03*
X67637500Y-74350000D03*
X67637500Y-73850000D03*
X67637500Y-73350000D03*
X67637500Y-72850000D03*
X67637500Y-72350000D03*
D28*
X66950000Y-71662500D03*
X66450000Y-71662500D03*
X65950000Y-71662500D03*
X65450000Y-71662500D03*
X64950000Y-71662500D03*
X64450000Y-71662500D03*
X63950000Y-71662500D03*
X63450000Y-71662500D03*
D27*
X62762500Y-72350000D03*
X62762500Y-72850000D03*
X62762500Y-73350000D03*
X62762500Y-73850000D03*
X62762500Y-74350000D03*
X62762500Y-74850000D03*
X62762500Y-75350000D03*
X62762500Y-75850000D03*
D28*
X63450000Y-76537500D03*
X63950000Y-76537500D03*
X64450000Y-76537500D03*
X64950000Y-76537500D03*
X65450000Y-76537500D03*
X65950000Y-76537500D03*
X66450000Y-76537500D03*
X66950000Y-76537500D03*
%TD*%
D29*
%TO.C,C10*%
X69770000Y-56465000D03*
X69770000Y-53515000D03*
%TD*%
D15*
%TO.C,R12*%
X76900000Y-56225000D03*
X76900000Y-57875000D03*
%TD*%
D20*
%TO.C,C16*%
X68675000Y-78500000D03*
X67125000Y-78500000D03*
%TD*%
D13*
%TO.C,C15*%
X73125000Y-78700000D03*
X74675000Y-78700000D03*
%TD*%
D12*
%TO.C,R7*%
X59720000Y-55700000D03*
X61370000Y-55700000D03*
%TD*%
D30*
%TO.C,Y1*%
X71175000Y-78725000D03*
X71175000Y-76225000D03*
%TD*%
D31*
%TO.C,R9*%
X53800000Y-78725000D03*
X53800000Y-77075000D03*
%TD*%
D32*
%TO.C,C9*%
X62970000Y-59440000D03*
X65920000Y-59440000D03*
%TD*%
D33*
%TO.C,U4*%
X69937500Y-69850000D03*
X69937500Y-70350000D03*
X69937500Y-70850000D03*
X69937500Y-71350000D03*
D34*
X70700000Y-71612500D03*
X71200000Y-71612500D03*
X71700000Y-71612500D03*
D33*
X72462500Y-71350000D03*
X72462500Y-70850000D03*
X72462500Y-70350000D03*
X72462500Y-69850000D03*
D34*
X71700000Y-69587500D03*
X71200000Y-69587500D03*
X70700000Y-69587500D03*
%TD*%
D13*
%TO.C,C8*%
X64080000Y-57540000D03*
X65630000Y-57540000D03*
%TD*%
D35*
%TO.C,D1*%
X58987500Y-64600000D03*
X57112500Y-64600000D03*
%TD*%
D12*
%TO.C,R8*%
X53375000Y-72000000D03*
X55025000Y-72000000D03*
%TD*%
D19*
%TO.C,R1*%
X65625000Y-78500000D03*
X63975000Y-78500000D03*
%TD*%
D36*
%TO.C,U1*%
X63945000Y-54200000D03*
X63945000Y-54700000D03*
X63945000Y-55200000D03*
X63945000Y-55700000D03*
X63945000Y-56200000D03*
D37*
X65595000Y-56200000D03*
X65595000Y-55700000D03*
X65595000Y-54700000D03*
X65595000Y-54200000D03*
%TD*%
D38*
%TO.C,R10*%
X53625000Y-64600000D03*
X55450000Y-64600000D03*
%TD*%
D21*
%TO.C,U7*%
X75137500Y-53900000D03*
X75137500Y-52950000D03*
X75137500Y-52000000D03*
X72862500Y-52000000D03*
X72862500Y-53900000D03*
%TD*%
M02*
