M48
; DRILL file {KiCad (6.0.10)} date Thu Apr 20 12:34:07 2023
; FORMAT={-:-/ absolute / inch / decimal}
; #@! TF.CreationDate,2023-04-20T12:34:07-06:00
; #@! TF.GenerationSoftware,Kicad,Pcbnew,(6.0.10)
; #@! TF.FileFunction,Plated,1,2,PTH
FMAT,2
INCH
; #@! TA.AperFunction,Plated,PTH,ViaDrill
T1C0.0118
; #@! TA.AperFunction,Plated,PTH,ViaDrill
T2C0.0157
; #@! TA.AperFunction,Plated,PTH,ComponentDrill
T3C0.0394
; #@! TA.AperFunction,Plated,PTH,ComponentDrill
T4C0.0728
%
G90
G05
T1
X1.9075Y-3.1201
X1.9409Y-2.9055
X1.9528Y-3.0866
X1.9961Y-3.0512
X2.0Y-2.3071
X2.0079Y-2.0197
X2.0079Y-2.9882
X2.0197Y-3.126
X2.0394Y-2.811
X2.0413Y-2.5472
X2.0593Y-2.9744
X2.063Y-2.9016
X2.063Y-2.937
X2.063Y-3.0472
X2.185Y-3.126
X2.2323Y-2.0
X2.2382Y-3.1043
X2.2441Y-2.8504
X2.252Y-2.937
X2.2874Y-3.1043
X2.2953Y-2.6102
X2.3307Y-2.815
X2.3386Y-3.1043
X2.3465Y-2.1535
X2.4016Y-2.5591
X2.4094Y-2.8504
X2.4222Y-2.8002
X2.4291Y-2.3406
X2.4488Y-3.126
X2.4644Y-2.1197
X2.4673Y-2.2644
X2.4685Y-2.6988
X2.4742Y-2.163
X2.4823Y-2.7461
X2.5118Y-2.7087
X2.5197Y-3.126
X2.5236Y-2.7638
X2.5512Y-3.0551
X2.563Y-2.9449
X2.5702Y-2.7299
X2.6181Y-2.7835
X2.6245Y-2.7032
X2.6417Y-3.126
X2.6435Y-2.2654
X2.6474Y-2.0213
X2.6593Y-2.3362
X2.6634Y-2.7244
X2.685Y-2.8091
X2.7077Y-3.0069
X2.7098Y-2.7843
X2.7162Y-2.8362
X2.7283Y-2.9016
X2.7498Y-2.2929
X2.7498Y-2.352
X2.7539Y-2.8661
X2.8002Y-2.1063
X2.8071Y-2.4764
X2.811Y-2.9409
X2.8169Y-2.5984
X2.8209Y-2.2795
X2.8307Y-2.6575
X2.8543Y-2.3484
X2.8583Y-2.4469
X2.8976Y-2.7346
X2.9124Y-2.8882
X2.9154Y-2.5945
X2.9173Y-2.6575
X2.939Y-2.3484
X2.9449Y-2.8661
X2.9567Y-2.1752
X2.9961Y-2.5984
X3.0Y-3.0276
X3.0157Y-1.998
X3.0256Y-2.9547
X3.0512Y-2.6102
X3.0709Y-2.7047
X3.0925Y-2.1634
X3.0945Y-2.9606
X3.0984Y-2.0807
X3.1024Y-2.2461
X3.1496Y-2.5315
X3.185Y-2.748
X3.2323Y-3.1142
X3.2598Y-2.8583
X3.2835Y-2.0886
X3.3583Y-2.7244
X3.3701Y-2.937
X3.4882Y-2.8268
X3.5Y-3.1142
X3.5315Y-2.9862
X3.5709Y-3.0433
X3.5945Y-3.0157
X3.617Y-2.7798
X3.7224Y-2.4626
X3.7795Y-2.189
X3.9252Y-2.7598
X3.9803Y-2.9528
X4.0748Y-2.8228
X4.0827Y-2.7165
X4.1604Y-2.6417
X4.2077Y-2.5758
X4.2087Y-2.2402
X4.2087Y-2.4567
X4.2165Y-2.9567
X4.2313Y-3.1142
X4.2461Y-2.0866
X4.2598Y-3.0413
X4.3228Y-2.2441
X4.3228Y-2.7126
X4.3268Y-2.8543
X4.3307Y-2.5
X4.3346Y-2.4094
X4.3386Y-2.7756
X4.3504Y-2.8898
X4.3701Y-2.1398
X4.4528Y-2.9567
X4.5315Y-2.128
X4.5827Y-2.2087
X4.6112Y-2.9144
X4.6299Y-1.998
X4.6398Y-3.0984
X4.6614Y-2.1575
X4.7362Y-3.0
X4.7874Y-2.002
X4.7913Y-2.1535
X4.8031Y-3.1004
X4.811Y-2.9213
X4.9213Y-2.9213
X4.9528Y-3.1004
X4.9606Y-1.998
X4.9606Y-2.1457
X4.9882Y-2.9547
X5.0354Y-2.5945
X5.0354Y-2.6378
X5.0453Y-2.0157
X5.0738Y-2.313
X5.0738Y-2.4695
X5.0787Y-2.752
X5.0787Y-3.0965
X5.0866Y-2.9626
X5.0945Y-2.1043
T2
X4.2638Y-2.8661
T3
X2.3396Y-2.0276
X3.0492Y-3.1043
X3.7933Y-3.1053
X3.8933Y-3.1053
X3.9933Y-3.1053
X4.0933Y-3.1053
X4.4104Y-3.0886
X4.436Y-2.0246
T4
X2.0866Y-2.4114
X2.0866Y-2.7067
X2.2835Y-2.4114
X2.2835Y-2.7067
T0
M30
