%TF.GenerationSoftware,KiCad,Pcbnew,(6.0.0)*%
%TF.CreationDate,2022-01-24T21:03:07-07:00*%
%TF.ProjectId,SolarGPS,536f6c61-7247-4505-932e-6b696361645f,rev?*%
%TF.SameCoordinates,Original*%
%TF.FileFunction,Copper,L2,Bot*%
%TF.FilePolarity,Positive*%
%FSLAX46Y46*%
G04 Gerber Fmt 4.6, Leading zero omitted, Abs format (unit mm)*
G04 Created by KiCad (PCBNEW (6.0.0)) date 2022-01-24 21:03:07*
%MOMM*%
%LPD*%
G01*
G04 APERTURE LIST*
%TA.AperFunction,ComponentPad*%
%ADD10R,1.700000X1.700000*%
%TD*%
%TA.AperFunction,ComponentPad*%
%ADD11C,3.500000*%
%TD*%
%TA.AperFunction,ComponentPad*%
%ADD12C,1.524000*%
%TD*%
%TA.AperFunction,ViaPad*%
%ADD13C,0.800000*%
%TD*%
%TA.AperFunction,ViaPad*%
%ADD14C,0.600000*%
%TD*%
%TA.AperFunction,Conductor*%
%ADD15C,0.200000*%
%TD*%
%TA.AperFunction,Conductor*%
%ADD16C,0.300000*%
%TD*%
G04 APERTURE END LIST*
D10*
%TO.P,J2,1,Pin_1*%
%TO.N,Net-(D3-Pad2)*%
X110000000Y-50000000D03*
%TD*%
%TO.P,J5,1,Pin_1*%
%TO.N,Net-(D1-Pad2)*%
X110000000Y-77000000D03*
%TD*%
%TO.P,J6,1,Pin_1*%
%TO.N,GND*%
X53000000Y-77000000D03*
%TD*%
D11*
%TO.P,J7,1,Pin_1*%
%TO.N,GND*%
X48900000Y-61000000D03*
X56500000Y-66000000D03*
X49000000Y-66000000D03*
X56500000Y-61000000D03*
%TD*%
D10*
%TO.P,J3,1,Pin_1*%
%TO.N,GND*%
X53000000Y-50000000D03*
%TD*%
D12*
%TO.P,C17,1*%
%TO.N,VBATMID*%
X60200000Y-66250000D03*
%TO.P,C17,2*%
%TO.N,GND*%
X60200000Y-60750000D03*
%TD*%
%TO.P,C14,1*%
%TO.N,VBAT*%
X82900000Y-66200000D03*
%TO.P,C14,2*%
%TO.N,VBATMID*%
X82900000Y-60700000D03*
%TD*%
D13*
%TO.N,VDD*%
X75450000Y-68450000D03*
X69375000Y-75575000D03*
%TO.N,GND*%
X62050000Y-74800000D03*
X94200000Y-74400000D03*
X98950000Y-74200000D03*
X92650000Y-69650000D03*
X100250000Y-69850000D03*
X114650000Y-71850000D03*
X120400000Y-57800000D03*
X116700000Y-62450000D03*
X111600000Y-62800000D03*
X112050000Y-64500000D03*
X108800000Y-66850000D03*
X106600000Y-74150000D03*
X108700000Y-74100000D03*
X114400000Y-69150000D03*
X123150000Y-67400000D03*
X121800000Y-67450000D03*
X120200000Y-67450000D03*
X118800000Y-67450000D03*
X118750000Y-66300000D03*
X118750000Y-65200000D03*
X118700000Y-63750000D03*
X118700000Y-62600000D03*
X120550000Y-61400000D03*
X123350000Y-61450000D03*
X123300000Y-60200000D03*
X123250000Y-59050000D03*
X121650000Y-59050000D03*
X100400000Y-57850000D03*
X99700000Y-51450000D03*
X90600000Y-51550000D03*
X81600000Y-51550000D03*
X79350000Y-57550000D03*
X78800000Y-61750000D03*
X87750000Y-60650000D03*
X87500000Y-64650000D03*
X82650000Y-64000000D03*
X76850000Y-65050000D03*
X87350000Y-72300000D03*
X77900000Y-72500000D03*
X77500000Y-69800000D03*
X64050000Y-60250000D03*
X67200000Y-54050000D03*
X77050000Y-51600000D03*
X73750000Y-57600000D03*
X66150000Y-57150000D03*
X67900000Y-58900000D03*
X61650000Y-57900000D03*
X55200000Y-54350000D03*
X63000000Y-54950000D03*
X57950000Y-50900000D03*
X55050000Y-52800000D03*
X52450000Y-53150000D03*
X51500000Y-55850000D03*
X53000000Y-59050000D03*
X58700000Y-75200000D03*
X60000000Y-76250000D03*
X56150000Y-75800000D03*
X66100000Y-70852467D03*
X65450000Y-67050000D03*
D14*
%TO.N,SOLAR+*%
X69900000Y-50650000D03*
X61600000Y-54100000D03*
D13*
%TO.N,VBAT*%
X61100000Y-52750000D03*
%TO.N,VSTOR*%
X69250000Y-51700000D03*
X70450000Y-56600000D03*
D14*
%TO.N,VBAT*%
X69100000Y-58650000D03*
%TO.N,SOLAR_SENSE1*%
X89300000Y-73250000D03*
X89350000Y-59250000D03*
%TO.N,VBATMID*%
X81050000Y-68050000D03*
D13*
%TO.N,VDD*%
X67650000Y-62750000D03*
X61400000Y-70150000D03*
D14*
%TO.N,LED*%
X52900000Y-66500000D03*
%TO.N,Net-(D1-Pad2)*%
X101900000Y-56300000D03*
D13*
%TO.N,VBAT*%
X107700000Y-71900000D03*
X107000000Y-66500000D03*
%TO.N,GPS_EXINT*%
X106050000Y-56750000D03*
X105900000Y-70200000D03*
%TO.N,RESET*%
X67900000Y-74800000D03*
X53600000Y-74200000D03*
%TO.N,GPS_UART_MISO*%
X104150000Y-74450000D03*
X103800000Y-53550000D03*
%TO.N,GPS_UART_MOSI*%
X104750000Y-54500000D03*
X105308388Y-73510500D03*
%TO.N,LED*%
X73200000Y-74950000D03*
X58919547Y-72015105D03*
%TO.N,EXTCOMIN*%
X70550000Y-67800000D03*
X54700000Y-69350000D03*
%TO.N,/SWDIO*%
X53450000Y-69400000D03*
X71800000Y-68100000D03*
%TO.N,LIS_CS*%
X66500000Y-68750000D03*
X72650000Y-65950000D03*
%TO.N,LIS_INT*%
X63950000Y-67200000D03*
X71750000Y-65400000D03*
%TO.N,SPI_CLK*%
X68650000Y-67300000D03*
X64500000Y-71491967D03*
%TO.N,SPI_MOSI*%
X67950000Y-66350000D03*
X67150000Y-70400000D03*
%TD*%
D15*
%TO.N,EXTCOMIN*%
X70550000Y-68580141D02*
X70550000Y-67800000D01*
X66998674Y-72131467D02*
X70550000Y-68580141D01*
X58530142Y-69750000D02*
X60911609Y-72131467D01*
X60911609Y-72131467D02*
X66998674Y-72131467D01*
X54700000Y-69350000D02*
X55100000Y-69750000D01*
X55100000Y-69750000D02*
X58530142Y-69750000D01*
%TO.N,/SWDIO*%
X55528821Y-71478821D02*
X53450000Y-69400000D01*
X58121179Y-71478821D02*
X55528821Y-71478821D01*
X58450000Y-71150000D02*
X58121179Y-71478821D01*
X59450000Y-71150000D02*
X58450000Y-71150000D01*
X67429022Y-72470978D02*
X60770978Y-72470978D01*
X60770978Y-72470978D02*
X59450000Y-71150000D01*
X71800000Y-68100000D02*
X67429022Y-72470978D01*
%TO.N,LED*%
X59754442Y-72850000D02*
X58919547Y-72015105D01*
X71100000Y-72850000D02*
X59754442Y-72850000D01*
X73200000Y-74950000D02*
X71100000Y-72850000D01*
X52650000Y-70100000D02*
X54371179Y-71821179D01*
X52650000Y-66750000D02*
X52650000Y-70100000D01*
X54371179Y-71821179D02*
X58725621Y-71821179D01*
X52900000Y-66500000D02*
X52650000Y-66750000D01*
X58725621Y-71821179D02*
X58919547Y-72015105D01*
%TO.N,VDD*%
X75450000Y-75050000D02*
X75450000Y-68450000D01*
X74450000Y-76050000D02*
X75450000Y-75050000D01*
X69850000Y-76050000D02*
X74450000Y-76050000D01*
X69375000Y-75575000D02*
X69850000Y-76050000D01*
%TO.N,RESET*%
X54250000Y-73550000D02*
X66650000Y-73550000D01*
X66650000Y-73550000D02*
X67900000Y-74800000D01*
X53600000Y-74200000D02*
X54250000Y-73550000D01*
%TO.N,SPI_CLK*%
X68650000Y-70000000D02*
X67158033Y-71491967D01*
X68650000Y-67300000D02*
X68650000Y-70000000D01*
X67158033Y-71491967D02*
X64500000Y-71491967D01*
%TO.N,SPI_MOSI*%
X67700000Y-66600000D02*
X67700000Y-69850000D01*
X67950000Y-66350000D02*
X67700000Y-66600000D01*
X67700000Y-69850000D02*
X67150000Y-70400000D01*
%TO.N,SOLAR+*%
X61300000Y-50650000D02*
X69900000Y-50650000D01*
X60350000Y-51600000D02*
X61300000Y-50650000D01*
X60750000Y-54100000D02*
X59750000Y-53100000D01*
X61600000Y-54100000D02*
X60750000Y-54100000D01*
X59750000Y-53100000D02*
X59750000Y-52200000D01*
X59750000Y-52200000D02*
X60350000Y-51600000D01*
D16*
%TO.N,VBAT*%
X63200000Y-52750000D02*
X61100000Y-52750000D01*
X69100000Y-58650000D02*
X63200000Y-52750000D01*
D15*
%TO.N,VSTOR*%
X69250000Y-51700000D02*
X70450000Y-52900000D01*
X70450000Y-52900000D02*
X70450000Y-56600000D01*
D16*
%TO.N,VBAT*%
X83950000Y-58650000D02*
X69100000Y-58650000D01*
X86300000Y-61000000D02*
X84550000Y-59250000D01*
X84550000Y-59250000D02*
X83950000Y-58650000D01*
X86300000Y-62800000D02*
X86300000Y-61000000D01*
X82900000Y-66200000D02*
X86300000Y-62800000D01*
D15*
%TO.N,VBATMID*%
X81050000Y-62550000D02*
X81050000Y-68050000D01*
X82900000Y-60700000D02*
X81050000Y-62550000D01*
%TO.N,SOLAR_SENSE1*%
X89350000Y-73200000D02*
X89300000Y-73250000D01*
X89350000Y-59250000D02*
X89350000Y-73200000D01*
D16*
%TO.N,VBATMID*%
X60200000Y-66250000D02*
X65750000Y-60700000D01*
X65750000Y-60700000D02*
X82900000Y-60700000D01*
D15*
%TO.N,VDD*%
X66900000Y-62750000D02*
X67650000Y-62750000D01*
X62800000Y-66850000D02*
X66900000Y-62750000D01*
X61400000Y-70150000D02*
X62800000Y-68750000D01*
X62800000Y-68750000D02*
X62800000Y-66850000D01*
%TO.N,GPS_UART_MISO*%
X103800000Y-74100000D02*
X104150000Y-74450000D01*
X103800000Y-53550000D02*
X103800000Y-74100000D01*
D16*
%TO.N,Net-(D1-Pad2)*%
X108900000Y-75900000D02*
X109825480Y-76825480D01*
X103550000Y-75900000D02*
X108900000Y-75900000D01*
X101900000Y-56300000D02*
X101900000Y-74250000D01*
X101900000Y-74250000D02*
X103550000Y-75900000D01*
D15*
%TO.N,GPS_UART_MOSI*%
X104500000Y-72702112D02*
X105308388Y-73510500D01*
X104500000Y-54750000D02*
X104500000Y-72702112D01*
X104750000Y-54500000D02*
X104500000Y-54750000D01*
%TO.N,VBAT*%
X107000000Y-71200000D02*
X107700000Y-71900000D01*
X107000000Y-66500000D02*
X107000000Y-71200000D01*
%TO.N,GPS_EXINT*%
X105900000Y-56900000D02*
X106050000Y-56750000D01*
X105900000Y-70200000D02*
X105900000Y-56900000D01*
%TO.N,LIS_INT*%
X66300000Y-64850000D02*
X63950000Y-67200000D01*
X71200000Y-64850000D02*
X66300000Y-64850000D01*
X71750000Y-65400000D02*
X71200000Y-64850000D01*
%TO.N,LIS_CS*%
X66500000Y-66350000D02*
X66500000Y-68750000D01*
X68550000Y-65300000D02*
X67550000Y-65300000D01*
X69350000Y-66100000D02*
X68550000Y-65300000D01*
X67550000Y-65300000D02*
X66500000Y-66350000D01*
X72650000Y-65950000D02*
X72500000Y-66100000D01*
X72500000Y-66100000D02*
X69350000Y-66100000D01*
%TD*%
%TA.AperFunction,Conductor*%
%TO.N,GND*%
G36*
X61163022Y-50218907D02*
G01*
X61198986Y-50268407D01*
X61198986Y-50329593D01*
X61163022Y-50379093D01*
X61143914Y-50389959D01*
X61129937Y-50395964D01*
X61125051Y-50399978D01*
X61120687Y-50404342D01*
X61102632Y-50418613D01*
X61094652Y-50423532D01*
X61076982Y-50446769D01*
X61068190Y-50456839D01*
X59575349Y-51949680D01*
X59572220Y-51952380D01*
X59567731Y-51954575D01*
X59561513Y-51961278D01*
X59534107Y-51990822D01*
X59531531Y-51993498D01*
X59517752Y-52007277D01*
X59515207Y-52010987D01*
X59511771Y-52014900D01*
X59491599Y-52036646D01*
X59488212Y-52045134D01*
X59488212Y-52045135D01*
X59487334Y-52047336D01*
X59477020Y-52066652D01*
X59475679Y-52068607D01*
X59475678Y-52068610D01*
X59470508Y-52076146D01*
X59468398Y-52085038D01*
X59464359Y-52102058D01*
X59459986Y-52115884D01*
X59452706Y-52134132D01*
X59450117Y-52140622D01*
X59449500Y-52146915D01*
X59449500Y-52153084D01*
X59446825Y-52175943D01*
X59444660Y-52185066D01*
X59448596Y-52213987D01*
X59449500Y-52227337D01*
X59449500Y-53046492D01*
X59449197Y-53050617D01*
X59447575Y-53055342D01*
X59447918Y-53064476D01*
X59449430Y-53104761D01*
X59449500Y-53108474D01*
X59449500Y-53127948D01*
X59450325Y-53132378D01*
X59450661Y-53137571D01*
X59451774Y-53167208D01*
X59455380Y-53175602D01*
X59455381Y-53175605D01*
X59456317Y-53177783D01*
X59462683Y-53198734D01*
X59464791Y-53210053D01*
X59469588Y-53217835D01*
X59478768Y-53232728D01*
X59485451Y-53245595D01*
X59495964Y-53270063D01*
X59499978Y-53274949D01*
X59504342Y-53279313D01*
X59518613Y-53297368D01*
X59523532Y-53305348D01*
X59546769Y-53323018D01*
X59556839Y-53331810D01*
X60499680Y-54274651D01*
X60502380Y-54277780D01*
X60504575Y-54282269D01*
X60511278Y-54288487D01*
X60540822Y-54315893D01*
X60543498Y-54318469D01*
X60557277Y-54332248D01*
X60560987Y-54334793D01*
X60564900Y-54338229D01*
X60586646Y-54358401D01*
X60595132Y-54361787D01*
X60595134Y-54361788D01*
X60597337Y-54362667D01*
X60616648Y-54372978D01*
X60618607Y-54374322D01*
X60618610Y-54374323D01*
X60626146Y-54379493D01*
X60635038Y-54381603D01*
X60635040Y-54381604D01*
X60652066Y-54385644D01*
X60665885Y-54390014D01*
X60690622Y-54399883D01*
X60696915Y-54400500D01*
X60703085Y-54400500D01*
X60725941Y-54403175D01*
X60735066Y-54405340D01*
X60763988Y-54401404D01*
X60777337Y-54400500D01*
X61152597Y-54400500D01*
X61210788Y-54419407D01*
X61228380Y-54435798D01*
X61258431Y-54471549D01*
X61258434Y-54471551D01*
X61262970Y-54476948D01*
X61268841Y-54480856D01*
X61268842Y-54480857D01*
X61281143Y-54489045D01*
X61382313Y-54556390D01*
X61482920Y-54587821D01*
X61512425Y-54597039D01*
X61512426Y-54597039D01*
X61519157Y-54599142D01*
X61590828Y-54600456D01*
X61655445Y-54601641D01*
X61655447Y-54601641D01*
X61662499Y-54601770D01*
X61669302Y-54599915D01*
X61669304Y-54599915D01*
X61744503Y-54579413D01*
X61800817Y-54564060D01*
X61922991Y-54489045D01*
X61930403Y-54480857D01*
X62014468Y-54387982D01*
X62019200Y-54382754D01*
X62081710Y-54253733D01*
X62091229Y-54197159D01*
X62104862Y-54116124D01*
X62104862Y-54116120D01*
X62105496Y-54112354D01*
X62105647Y-54100000D01*
X62085323Y-53958082D01*
X62025984Y-53827572D01*
X61932400Y-53718963D01*
X61812095Y-53640985D01*
X61674739Y-53599907D01*
X61591497Y-53599398D01*
X61538427Y-53599074D01*
X61538426Y-53599074D01*
X61531376Y-53599031D01*
X61524599Y-53600968D01*
X61524598Y-53600968D01*
X61400309Y-53636490D01*
X61400307Y-53636491D01*
X61393529Y-53638428D01*
X61272280Y-53714930D01*
X61267613Y-53720214D01*
X61267611Y-53720216D01*
X61227147Y-53766034D01*
X61174455Y-53797134D01*
X61152943Y-53799500D01*
X60915480Y-53799500D01*
X60857289Y-53780593D01*
X60845476Y-53770504D01*
X60079496Y-53004525D01*
X60051719Y-52950008D01*
X60050500Y-52934521D01*
X60050500Y-52750000D01*
X60494318Y-52750000D01*
X60514956Y-52906762D01*
X60575464Y-53052841D01*
X60671718Y-53178282D01*
X60797159Y-53274536D01*
X60943238Y-53335044D01*
X61100000Y-53355682D01*
X61256762Y-53335044D01*
X61402841Y-53274536D01*
X61528282Y-53178282D01*
X61558246Y-53139233D01*
X61608669Y-53104577D01*
X61636787Y-53100500D01*
X63013810Y-53100500D01*
X63072001Y-53119407D01*
X63083814Y-53129496D01*
X68570031Y-58615713D01*
X68598191Y-58672880D01*
X68612980Y-58785979D01*
X68615821Y-58792435D01*
X68615821Y-58792436D01*
X68647806Y-58865126D01*
X68670720Y-58917203D01*
X68684525Y-58933626D01*
X68758431Y-59021549D01*
X68758434Y-59021551D01*
X68762970Y-59026948D01*
X68882313Y-59106390D01*
X68982920Y-59137821D01*
X69012425Y-59147039D01*
X69012426Y-59147039D01*
X69019157Y-59149142D01*
X69090828Y-59150456D01*
X69155445Y-59151641D01*
X69155447Y-59151641D01*
X69162499Y-59151770D01*
X69169302Y-59149915D01*
X69169304Y-59149915D01*
X69244503Y-59129413D01*
X69300817Y-59114060D01*
X69422991Y-59039045D01*
X69427723Y-59033817D01*
X69427728Y-59033813D01*
X69428407Y-59033062D01*
X69429134Y-59032645D01*
X69433151Y-59029310D01*
X69433730Y-59030007D01*
X69481476Y-59002609D01*
X69501803Y-59000500D01*
X83763810Y-59000500D01*
X83822001Y-59019407D01*
X83833814Y-59029496D01*
X85920504Y-61116186D01*
X85948281Y-61170703D01*
X85949500Y-61186190D01*
X85949500Y-62613810D01*
X85930593Y-62672001D01*
X85920504Y-62683814D01*
X83333141Y-65271177D01*
X83278624Y-65298954D01*
X83233865Y-65295746D01*
X83094474Y-65252597D01*
X83082524Y-65251341D01*
X82911568Y-65233373D01*
X82911566Y-65233373D01*
X82906752Y-65232867D01*
X82858689Y-65237241D01*
X82723592Y-65249535D01*
X82723588Y-65249536D01*
X82718773Y-65249974D01*
X82667764Y-65264987D01*
X82542344Y-65301900D01*
X82542341Y-65301901D01*
X82537697Y-65303268D01*
X82533403Y-65305513D01*
X82374717Y-65388471D01*
X82374713Y-65388474D01*
X82370420Y-65390718D01*
X82366644Y-65393754D01*
X82366641Y-65393756D01*
X82305526Y-65442894D01*
X82223316Y-65508993D01*
X82220207Y-65512698D01*
X82220204Y-65512701D01*
X82105103Y-65649873D01*
X82101986Y-65653588D01*
X82099650Y-65657836D01*
X82099650Y-65657837D01*
X82081016Y-65691732D01*
X82011052Y-65818996D01*
X81953978Y-65998917D01*
X81947894Y-66053154D01*
X81934836Y-66169571D01*
X81932937Y-66186496D01*
X81938005Y-66246846D01*
X81947842Y-66363987D01*
X81948732Y-66374590D01*
X81950065Y-66379238D01*
X81950065Y-66379239D01*
X81995662Y-66538254D01*
X82000760Y-66556034D01*
X82002975Y-66560344D01*
X82084827Y-66719612D01*
X82084830Y-66719616D01*
X82087040Y-66723917D01*
X82204285Y-66871844D01*
X82207972Y-66874982D01*
X82207974Y-66874984D01*
X82344342Y-66991042D01*
X82344347Y-66991045D01*
X82348030Y-66994180D01*
X82352253Y-66996540D01*
X82352257Y-66996543D01*
X82472274Y-67063618D01*
X82512800Y-67086267D01*
X82553592Y-67099521D01*
X82687718Y-67143101D01*
X82687721Y-67143102D01*
X82692317Y-67144595D01*
X82697113Y-67145167D01*
X82697118Y-67145168D01*
X82786031Y-67155770D01*
X82879745Y-67166945D01*
X82884567Y-67166574D01*
X82884570Y-67166574D01*
X82946278Y-67161826D01*
X83067945Y-67152464D01*
X83249748Y-67101703D01*
X83418229Y-67016598D01*
X83566970Y-66900388D01*
X83570132Y-66896725D01*
X83570137Y-66896720D01*
X83656386Y-66796799D01*
X83690307Y-66757501D01*
X83697908Y-66744122D01*
X83781153Y-66597584D01*
X83781154Y-66597581D01*
X83783542Y-66593378D01*
X83785782Y-66586646D01*
X83841596Y-66418863D01*
X83841596Y-66418861D01*
X83843123Y-66414272D01*
X83843840Y-66408601D01*
X83860464Y-66277005D01*
X83866780Y-66227005D01*
X83866845Y-66222388D01*
X83867051Y-66207570D01*
X83867157Y-66200000D01*
X83854579Y-66071718D01*
X83849210Y-66016955D01*
X83849209Y-66016951D01*
X83848738Y-66012145D01*
X83804362Y-65865166D01*
X83805644Y-65803996D01*
X83829133Y-65766549D01*
X86513937Y-63081745D01*
X86530240Y-63068580D01*
X86532274Y-63067267D01*
X86532278Y-63067264D01*
X86539152Y-63062825D01*
X86558985Y-63037668D01*
X86562899Y-63033263D01*
X86562898Y-63033262D01*
X86565551Y-63030131D01*
X86568428Y-63027254D01*
X86579044Y-63012399D01*
X86581835Y-63008681D01*
X86583313Y-63006807D01*
X86611392Y-62971189D01*
X86613958Y-62963882D01*
X86614605Y-62962637D01*
X86619111Y-62956331D01*
X86632792Y-62910585D01*
X86634233Y-62906149D01*
X86647993Y-62866967D01*
X86647994Y-62866964D01*
X86650055Y-62861094D01*
X86650500Y-62855956D01*
X86650500Y-62853818D01*
X86650574Y-62852099D01*
X86650689Y-62850738D01*
X86652544Y-62844536D01*
X86650576Y-62794446D01*
X86650500Y-62790559D01*
X86650500Y-61047953D01*
X86652718Y-61027115D01*
X86653230Y-61024739D01*
X86653230Y-61024738D01*
X86654952Y-61016740D01*
X86651186Y-60984923D01*
X86650839Y-60979043D01*
X86650837Y-60979043D01*
X86650500Y-60974967D01*
X86650500Y-60970885D01*
X86647505Y-60952892D01*
X86646850Y-60948290D01*
X86644463Y-60928130D01*
X86641236Y-60900862D01*
X86637882Y-60893877D01*
X86637461Y-60892546D01*
X86636188Y-60884897D01*
X86613495Y-60842840D01*
X86611395Y-60838717D01*
X86593420Y-60801283D01*
X86593418Y-60801279D01*
X86590726Y-60795674D01*
X86587408Y-60791726D01*
X86585900Y-60790218D01*
X86584718Y-60788929D01*
X86583852Y-60787903D01*
X86580778Y-60782206D01*
X86574773Y-60776655D01*
X86574769Y-60776650D01*
X86543982Y-60748191D01*
X86541179Y-60745497D01*
X84231745Y-58436063D01*
X84218580Y-58419760D01*
X84217267Y-58417726D01*
X84217264Y-58417722D01*
X84212825Y-58410848D01*
X84187668Y-58391015D01*
X84183263Y-58387101D01*
X84183262Y-58387102D01*
X84180131Y-58384449D01*
X84177254Y-58381572D01*
X84162399Y-58370956D01*
X84158681Y-58368165D01*
X84127614Y-58343673D01*
X84127613Y-58343673D01*
X84121189Y-58338608D01*
X84113882Y-58336042D01*
X84112637Y-58335395D01*
X84106331Y-58330889D01*
X84074542Y-58321382D01*
X84060585Y-58317208D01*
X84056149Y-58315767D01*
X84016967Y-58302007D01*
X84016964Y-58302006D01*
X84011094Y-58299945D01*
X84005956Y-58299500D01*
X84003818Y-58299500D01*
X84002099Y-58299426D01*
X84000738Y-58299311D01*
X83994536Y-58297456D01*
X83986365Y-58297777D01*
X83944446Y-58299424D01*
X83940559Y-58299500D01*
X69502997Y-58299500D01*
X69444806Y-58280593D01*
X69437917Y-58275103D01*
X69437006Y-58274308D01*
X69432400Y-58268963D01*
X69312095Y-58190985D01*
X69174739Y-58149907D01*
X69135756Y-58149669D01*
X69077682Y-58130407D01*
X69066357Y-58120675D01*
X63481745Y-52536063D01*
X63468580Y-52519760D01*
X63467267Y-52517726D01*
X63467264Y-52517722D01*
X63462825Y-52510848D01*
X63437668Y-52491015D01*
X63433263Y-52487101D01*
X63433262Y-52487102D01*
X63430131Y-52484449D01*
X63427254Y-52481572D01*
X63412399Y-52470956D01*
X63408681Y-52468165D01*
X63377614Y-52443673D01*
X63377613Y-52443673D01*
X63371189Y-52438608D01*
X63363882Y-52436042D01*
X63362637Y-52435395D01*
X63356331Y-52430889D01*
X63324542Y-52421382D01*
X63310585Y-52417208D01*
X63306149Y-52415767D01*
X63266967Y-52402007D01*
X63266964Y-52402006D01*
X63261094Y-52399945D01*
X63255956Y-52399500D01*
X63253818Y-52399500D01*
X63252099Y-52399426D01*
X63250738Y-52399311D01*
X63244536Y-52397456D01*
X63236365Y-52397777D01*
X63194446Y-52399424D01*
X63190559Y-52399500D01*
X61636787Y-52399500D01*
X61578596Y-52380593D01*
X61558245Y-52360767D01*
X61532236Y-52326871D01*
X61528282Y-52321718D01*
X61402841Y-52225464D01*
X61256762Y-52164956D01*
X61100000Y-52144318D01*
X60943238Y-52164956D01*
X60797159Y-52225464D01*
X60671718Y-52321718D01*
X60575464Y-52447159D01*
X60514956Y-52593238D01*
X60494318Y-52750000D01*
X60050500Y-52750000D01*
X60050500Y-52365479D01*
X60069407Y-52307288D01*
X60079496Y-52295475D01*
X61395475Y-50979496D01*
X61449992Y-50951719D01*
X61465479Y-50950500D01*
X68992563Y-50950500D01*
X69050754Y-50969407D01*
X69086718Y-51018907D01*
X69086718Y-51080093D01*
X69050754Y-51129593D01*
X69030449Y-51140964D01*
X69015785Y-51147038D01*
X68947159Y-51175464D01*
X68821718Y-51271718D01*
X68725464Y-51397159D01*
X68664956Y-51543238D01*
X68644318Y-51700000D01*
X68664956Y-51856762D01*
X68725464Y-52002841D01*
X68821718Y-52128282D01*
X68947159Y-52224536D01*
X69093238Y-52285044D01*
X69250000Y-52305682D01*
X69361284Y-52291031D01*
X69421443Y-52302181D01*
X69444209Y-52319180D01*
X70120504Y-52995476D01*
X70148281Y-53049993D01*
X70149500Y-53065480D01*
X70149500Y-56024846D01*
X70130593Y-56083037D01*
X70110769Y-56103387D01*
X70021718Y-56171718D01*
X69925464Y-56297159D01*
X69864956Y-56443238D01*
X69844318Y-56600000D01*
X69864956Y-56756762D01*
X69925464Y-56902841D01*
X70021718Y-57028282D01*
X70147159Y-57124536D01*
X70293238Y-57185044D01*
X70450000Y-57205682D01*
X70606762Y-57185044D01*
X70752841Y-57124536D01*
X70878282Y-57028282D01*
X70974536Y-56902841D01*
X71035044Y-56756762D01*
X71055682Y-56600000D01*
X71035044Y-56443238D01*
X70974536Y-56297159D01*
X70878282Y-56171718D01*
X70789232Y-56103387D01*
X70754577Y-56052963D01*
X70750500Y-56024846D01*
X70750500Y-53550000D01*
X103194318Y-53550000D01*
X103214956Y-53706762D01*
X103275464Y-53852841D01*
X103371718Y-53978282D01*
X103460768Y-54046612D01*
X103495423Y-54097037D01*
X103499500Y-54125154D01*
X103499500Y-74046492D01*
X103499197Y-74050617D01*
X103497575Y-74055342D01*
X103497918Y-74064476D01*
X103499430Y-74104761D01*
X103499500Y-74108474D01*
X103499500Y-74127948D01*
X103500325Y-74132378D01*
X103500661Y-74137571D01*
X103501774Y-74167208D01*
X103505380Y-74175602D01*
X103505381Y-74175605D01*
X103506317Y-74177783D01*
X103512683Y-74198734D01*
X103514791Y-74210053D01*
X103519588Y-74217835D01*
X103528768Y-74232728D01*
X103535451Y-74245595D01*
X103545964Y-74270063D01*
X103546665Y-74270916D01*
X103559738Y-74332875D01*
X103544318Y-74450000D01*
X103545165Y-74456434D01*
X103545834Y-74461517D01*
X103564956Y-74606762D01*
X103625464Y-74752841D01*
X103721718Y-74878282D01*
X103847159Y-74974536D01*
X103993238Y-75035044D01*
X104150000Y-75055682D01*
X104306762Y-75035044D01*
X104452841Y-74974536D01*
X104578282Y-74878282D01*
X104674536Y-74752841D01*
X104735044Y-74606762D01*
X104754166Y-74461517D01*
X104754835Y-74456434D01*
X104755682Y-74450000D01*
X104735044Y-74293238D01*
X104674536Y-74147159D01*
X104578282Y-74021718D01*
X104452841Y-73925464D01*
X104306762Y-73864956D01*
X104186577Y-73849133D01*
X104131353Y-73822793D01*
X104102158Y-73769023D01*
X104100500Y-73750981D01*
X104100500Y-72970705D01*
X104119407Y-72912514D01*
X104168907Y-72876550D01*
X104230093Y-72876550D01*
X104270654Y-72902791D01*
X104273532Y-72907460D01*
X104296769Y-72925130D01*
X104306839Y-72933922D01*
X104689208Y-73316291D01*
X104716985Y-73370808D01*
X104717357Y-73399214D01*
X104702706Y-73510500D01*
X104723344Y-73667262D01*
X104783852Y-73813341D01*
X104880106Y-73938782D01*
X105005547Y-74035036D01*
X105151626Y-74095544D01*
X105308388Y-74116182D01*
X105465150Y-74095544D01*
X105611229Y-74035036D01*
X105736670Y-73938782D01*
X105832924Y-73813341D01*
X105893432Y-73667262D01*
X105914070Y-73510500D01*
X105893432Y-73353738D01*
X105832924Y-73207659D01*
X105736670Y-73082218D01*
X105611229Y-72985964D01*
X105465150Y-72925456D01*
X105308388Y-72904818D01*
X105197104Y-72919469D01*
X105136945Y-72908319D01*
X105114179Y-72891320D01*
X104829496Y-72606637D01*
X104801719Y-72552120D01*
X104800500Y-72536633D01*
X104800500Y-70200000D01*
X105294318Y-70200000D01*
X105314956Y-70356762D01*
X105375464Y-70502841D01*
X105471718Y-70628282D01*
X105597159Y-70724536D01*
X105743238Y-70785044D01*
X105900000Y-70805682D01*
X106056762Y-70785044D01*
X106202841Y-70724536D01*
X106328282Y-70628282D01*
X106424536Y-70502841D01*
X106485044Y-70356762D01*
X106502347Y-70225332D01*
X106513353Y-70202257D01*
X106502347Y-70174668D01*
X106493389Y-70106626D01*
X106485044Y-70043238D01*
X106424536Y-69897159D01*
X106328282Y-69771718D01*
X106239232Y-69703387D01*
X106204577Y-69652963D01*
X106200500Y-69624846D01*
X106200500Y-66538254D01*
X106211406Y-66504689D01*
X106209642Y-66497743D01*
X106386647Y-66497743D01*
X106397653Y-66525332D01*
X106414956Y-66656762D01*
X106417440Y-66662759D01*
X106418734Y-66665884D01*
X106475464Y-66802841D01*
X106571718Y-66928282D01*
X106660678Y-66996543D01*
X106660768Y-66996612D01*
X106695423Y-67047037D01*
X106699500Y-67075154D01*
X106699500Y-70161746D01*
X106688594Y-70195311D01*
X106699500Y-70238254D01*
X106699500Y-71146492D01*
X106699197Y-71150617D01*
X106697575Y-71155342D01*
X106699259Y-71200207D01*
X106699430Y-71204761D01*
X106699500Y-71208474D01*
X106699500Y-71227948D01*
X106700325Y-71232378D01*
X106700661Y-71237571D01*
X106701774Y-71267208D01*
X106705380Y-71275602D01*
X106705381Y-71275605D01*
X106706317Y-71277783D01*
X106712683Y-71298734D01*
X106714791Y-71310053D01*
X106719588Y-71317835D01*
X106728768Y-71332728D01*
X106735451Y-71345595D01*
X106745964Y-71370063D01*
X106749978Y-71374949D01*
X106754342Y-71379313D01*
X106768613Y-71397368D01*
X106773532Y-71405348D01*
X106796769Y-71423018D01*
X106806839Y-71431810D01*
X107080820Y-71705791D01*
X107108597Y-71760308D01*
X107108969Y-71788714D01*
X107094318Y-71900000D01*
X107114956Y-72056762D01*
X107175464Y-72202841D01*
X107271718Y-72328282D01*
X107397159Y-72424536D01*
X107543238Y-72485044D01*
X107700000Y-72505682D01*
X107856762Y-72485044D01*
X108002841Y-72424536D01*
X108128282Y-72328282D01*
X108224536Y-72202841D01*
X108285044Y-72056762D01*
X108305682Y-71900000D01*
X108285044Y-71743238D01*
X108224536Y-71597159D01*
X108128282Y-71471718D01*
X108002841Y-71375464D01*
X107856762Y-71314956D01*
X107700000Y-71294318D01*
X107588716Y-71308969D01*
X107528557Y-71297819D01*
X107505791Y-71280820D01*
X107329496Y-71104525D01*
X107301719Y-71050008D01*
X107300500Y-71034521D01*
X107300500Y-67075154D01*
X107319407Y-67016963D01*
X107339232Y-66996612D01*
X107339322Y-66996543D01*
X107428282Y-66928282D01*
X107524536Y-66802841D01*
X107581266Y-66665884D01*
X107582560Y-66662759D01*
X107585044Y-66656762D01*
X107605682Y-66500000D01*
X107585044Y-66343238D01*
X107524536Y-66197159D01*
X107428282Y-66071718D01*
X107302841Y-65975464D01*
X107156762Y-65914956D01*
X107000000Y-65894318D01*
X106843238Y-65914956D01*
X106697159Y-65975464D01*
X106571718Y-66071718D01*
X106475464Y-66197159D01*
X106414956Y-66343238D01*
X106406780Y-66405340D01*
X106397653Y-66474668D01*
X106386647Y-66497743D01*
X106209642Y-66497743D01*
X106200500Y-66461746D01*
X106200500Y-57403788D01*
X106219407Y-57345597D01*
X106261614Y-57312324D01*
X106320492Y-57287935D01*
X106352841Y-57274536D01*
X106478282Y-57178282D01*
X106574536Y-57052841D01*
X106635044Y-56906762D01*
X106655682Y-56750000D01*
X106635044Y-56593238D01*
X106574536Y-56447159D01*
X106478282Y-56321718D01*
X106352841Y-56225464D01*
X106206762Y-56164956D01*
X106050000Y-56144318D01*
X105893238Y-56164956D01*
X105747159Y-56225464D01*
X105621718Y-56321718D01*
X105525464Y-56447159D01*
X105464956Y-56593238D01*
X105444318Y-56750000D01*
X105464956Y-56906762D01*
X105525464Y-57052841D01*
X105529415Y-57057990D01*
X105579042Y-57122666D01*
X105599500Y-57182933D01*
X105599500Y-69624846D01*
X105580593Y-69683037D01*
X105560769Y-69703387D01*
X105471718Y-69771718D01*
X105375464Y-69897159D01*
X105314956Y-70043238D01*
X105294318Y-70200000D01*
X104800500Y-70200000D01*
X104800500Y-55185854D01*
X104819407Y-55127663D01*
X104868907Y-55091699D01*
X104886577Y-55087701D01*
X104906762Y-55085044D01*
X105052841Y-55024536D01*
X105178282Y-54928282D01*
X105274536Y-54802841D01*
X105335044Y-54656762D01*
X105355682Y-54500000D01*
X105335044Y-54343238D01*
X105274536Y-54197159D01*
X105178282Y-54071718D01*
X105052841Y-53975464D01*
X104906762Y-53914956D01*
X104750000Y-53894318D01*
X104593238Y-53914956D01*
X104587241Y-53917440D01*
X104458643Y-53970707D01*
X104397646Y-53975508D01*
X104345477Y-53943538D01*
X104322062Y-53887010D01*
X104329293Y-53841357D01*
X104382560Y-53712759D01*
X104385044Y-53706762D01*
X104405682Y-53550000D01*
X104385044Y-53393238D01*
X104324536Y-53247159D01*
X104228282Y-53121718D01*
X104102841Y-53025464D01*
X103956762Y-52964956D01*
X103800000Y-52944318D01*
X103643238Y-52964956D01*
X103497159Y-53025464D01*
X103371718Y-53121718D01*
X103275464Y-53247159D01*
X103214956Y-53393238D01*
X103194318Y-53550000D01*
X70750500Y-53550000D01*
X70750500Y-52953508D01*
X70750803Y-52949383D01*
X70752425Y-52944658D01*
X70750570Y-52895238D01*
X70750500Y-52891525D01*
X70750500Y-52872052D01*
X70749675Y-52867622D01*
X70749338Y-52862417D01*
X70748569Y-52841926D01*
X70748226Y-52832791D01*
X70743681Y-52822212D01*
X70737317Y-52801263D01*
X70736884Y-52798936D01*
X70736882Y-52798931D01*
X70735209Y-52789947D01*
X70721232Y-52767271D01*
X70714548Y-52754404D01*
X70706795Y-52736358D01*
X70706794Y-52736357D01*
X70704036Y-52729937D01*
X70700022Y-52725051D01*
X70695658Y-52720687D01*
X70681387Y-52702632D01*
X70681264Y-52702433D01*
X70676468Y-52694652D01*
X70653231Y-52676982D01*
X70643161Y-52668190D01*
X69869180Y-51894209D01*
X69841403Y-51839692D01*
X69841031Y-51811283D01*
X69854835Y-51706433D01*
X69855682Y-51700000D01*
X69835044Y-51543238D01*
X69774536Y-51397159D01*
X69763192Y-51382375D01*
X69700422Y-51300571D01*
X69679998Y-51242895D01*
X69697376Y-51184229D01*
X69745917Y-51146982D01*
X69808488Y-51145809D01*
X69819157Y-51149142D01*
X69890828Y-51150456D01*
X69955445Y-51151641D01*
X69955447Y-51151641D01*
X69962499Y-51151770D01*
X69969302Y-51149915D01*
X69969304Y-51149915D01*
X70091845Y-51116506D01*
X70100817Y-51114060D01*
X70222991Y-51039045D01*
X70236386Y-51024247D01*
X70314468Y-50937982D01*
X70319200Y-50932754D01*
X70381710Y-50803733D01*
X70405496Y-50662354D01*
X70405647Y-50650000D01*
X70385323Y-50508082D01*
X70356793Y-50445334D01*
X70328905Y-50383996D01*
X70328904Y-50383995D01*
X70325984Y-50377572D01*
X70313963Y-50363621D01*
X70290304Y-50307197D01*
X70304328Y-50247641D01*
X70350680Y-50207702D01*
X70388964Y-50200000D01*
X108550501Y-50200000D01*
X108608692Y-50218907D01*
X108644656Y-50268407D01*
X108649501Y-50299000D01*
X108649501Y-50897376D01*
X108649790Y-50900035D01*
X108649790Y-50900038D01*
X108655404Y-50951719D01*
X108656149Y-50958580D01*
X108658330Y-50964397D01*
X108687698Y-51042737D01*
X108706474Y-51092824D01*
X108792454Y-51207546D01*
X108907176Y-51293526D01*
X108913782Y-51296003D01*
X108913785Y-51296004D01*
X108965683Y-51315459D01*
X109041420Y-51343851D01*
X109102623Y-51350500D01*
X109999664Y-51350500D01*
X110897376Y-51350499D01*
X110900035Y-51350210D01*
X110900038Y-51350210D01*
X110952405Y-51344522D01*
X110952407Y-51344522D01*
X110958580Y-51343851D01*
X111017678Y-51321697D01*
X111086215Y-51296004D01*
X111086218Y-51296003D01*
X111092824Y-51293526D01*
X111207546Y-51207546D01*
X111293526Y-51092824D01*
X111312303Y-51042737D01*
X111341670Y-50964397D01*
X111343851Y-50958580D01*
X111350500Y-50897377D01*
X111350500Y-50299000D01*
X111369407Y-50240809D01*
X111418907Y-50204845D01*
X111449500Y-50200000D01*
X120966040Y-50200000D01*
X120988227Y-50202518D01*
X120988778Y-50202645D01*
X120988779Y-50202645D01*
X120999642Y-50205143D01*
X121010515Y-50202683D01*
X121020797Y-50202701D01*
X121031781Y-50201785D01*
X121307954Y-50217295D01*
X121318976Y-50218536D01*
X121506865Y-50250460D01*
X121617572Y-50269270D01*
X121628396Y-50271740D01*
X121675801Y-50285397D01*
X121919445Y-50355590D01*
X121929918Y-50359255D01*
X122209739Y-50475160D01*
X122219736Y-50479974D01*
X122283230Y-50515066D01*
X122484821Y-50626482D01*
X122494221Y-50632388D01*
X122741236Y-50807654D01*
X122749916Y-50814576D01*
X122975753Y-51016396D01*
X122983604Y-51024247D01*
X123179000Y-51242895D01*
X123185424Y-51250084D01*
X123192344Y-51258761D01*
X123251171Y-51341670D01*
X123367612Y-51505779D01*
X123373518Y-51515179D01*
X123479222Y-51706434D01*
X123520023Y-51780258D01*
X123524840Y-51790261D01*
X123640745Y-52070082D01*
X123644410Y-52080555D01*
X123687296Y-52229415D01*
X123728260Y-52371604D01*
X123730730Y-52382428D01*
X123739601Y-52434637D01*
X123780779Y-52676991D01*
X123781463Y-52681019D01*
X123782705Y-52692046D01*
X123796379Y-52935524D01*
X123798186Y-52967701D01*
X123797341Y-52977630D01*
X123797375Y-52977630D01*
X123797355Y-52988777D01*
X123794857Y-52999642D01*
X123797317Y-53010514D01*
X123797317Y-53010516D01*
X123797559Y-53011583D01*
X123800000Y-53033432D01*
X123800000Y-63151000D01*
X123781093Y-63209191D01*
X123731593Y-63245155D01*
X123701000Y-63250000D01*
X122099000Y-63250000D01*
X122040809Y-63231093D01*
X122004845Y-63181593D01*
X122000000Y-63151000D01*
X122000000Y-62450000D01*
X119650000Y-62450000D01*
X119650000Y-66450000D01*
X122050000Y-66450000D01*
X122050000Y-65749000D01*
X122068907Y-65690809D01*
X122118407Y-65654845D01*
X122149000Y-65650000D01*
X123701000Y-65650000D01*
X123759191Y-65668907D01*
X123795155Y-65718407D01*
X123800000Y-65749000D01*
X123800000Y-73966040D01*
X123797482Y-73988227D01*
X123794857Y-73999642D01*
X123797317Y-74010515D01*
X123797299Y-74020797D01*
X123798215Y-74031781D01*
X123783055Y-74301738D01*
X123782706Y-74307949D01*
X123781464Y-74318976D01*
X123763371Y-74425464D01*
X123730730Y-74617572D01*
X123728260Y-74628396D01*
X123722130Y-74649674D01*
X123680676Y-74793566D01*
X123644412Y-74919440D01*
X123640745Y-74929918D01*
X123524840Y-75209739D01*
X123520026Y-75219736D01*
X123435248Y-75373129D01*
X123373518Y-75484821D01*
X123367612Y-75494221D01*
X123328442Y-75549426D01*
X123194221Y-75738594D01*
X123192346Y-75741236D01*
X123185426Y-75749914D01*
X123147410Y-75792454D01*
X122983604Y-75975753D01*
X122975753Y-75983604D01*
X122953733Y-76003282D01*
X122757069Y-76179032D01*
X122749916Y-76185424D01*
X122741239Y-76192344D01*
X122659168Y-76250576D01*
X122494221Y-76367612D01*
X122484821Y-76373518D01*
X122219736Y-76520026D01*
X122209739Y-76524840D01*
X121929918Y-76640745D01*
X121919445Y-76644410D01*
X121757246Y-76691139D01*
X121628396Y-76728260D01*
X121617572Y-76730730D01*
X121612493Y-76731593D01*
X121318976Y-76781464D01*
X121307954Y-76782705D01*
X121032297Y-76798186D01*
X121022370Y-76797341D01*
X121022370Y-76797375D01*
X121011223Y-76797355D01*
X121000358Y-76794857D01*
X120989486Y-76797317D01*
X120989484Y-76797317D01*
X120988417Y-76797559D01*
X120966568Y-76800000D01*
X111449499Y-76800000D01*
X111391308Y-76781093D01*
X111355344Y-76731593D01*
X111350499Y-76701000D01*
X111350499Y-76102624D01*
X111350164Y-76099536D01*
X111344522Y-76047595D01*
X111344522Y-76047593D01*
X111343851Y-76041420D01*
X111293526Y-75907176D01*
X111207546Y-75792454D01*
X111092824Y-75706474D01*
X111086218Y-75703997D01*
X111086215Y-75703996D01*
X111025119Y-75681093D01*
X110958580Y-75656149D01*
X110897377Y-75649500D01*
X110775304Y-75649500D01*
X109184081Y-75649501D01*
X109126523Y-75631049D01*
X109112414Y-75620967D01*
X109108681Y-75618165D01*
X109077614Y-75593673D01*
X109077613Y-75593673D01*
X109071189Y-75588608D01*
X109063882Y-75586042D01*
X109062637Y-75585395D01*
X109056331Y-75580889D01*
X109024542Y-75571382D01*
X109010585Y-75567208D01*
X109006149Y-75565767D01*
X108966967Y-75552007D01*
X108966964Y-75552006D01*
X108961094Y-75549945D01*
X108955956Y-75549500D01*
X108953818Y-75549500D01*
X108952099Y-75549426D01*
X108950738Y-75549311D01*
X108944536Y-75547456D01*
X108936365Y-75547777D01*
X108894446Y-75549424D01*
X108890559Y-75549500D01*
X103736190Y-75549500D01*
X103677999Y-75530593D01*
X103666186Y-75520504D01*
X102279496Y-74133814D01*
X102251719Y-74079297D01*
X102250500Y-74063810D01*
X102250500Y-56696804D01*
X102269407Y-56638613D01*
X102276102Y-56630368D01*
X102314468Y-56587982D01*
X102314468Y-56587981D01*
X102319200Y-56582754D01*
X102381710Y-56453733D01*
X102383683Y-56442010D01*
X102404862Y-56316124D01*
X102404862Y-56316120D01*
X102405496Y-56312354D01*
X102405647Y-56300000D01*
X102385323Y-56158082D01*
X102325984Y-56027572D01*
X102232400Y-55918963D01*
X102112095Y-55840985D01*
X101974739Y-55799907D01*
X101891497Y-55799398D01*
X101838427Y-55799074D01*
X101838426Y-55799074D01*
X101831376Y-55799031D01*
X101824599Y-55800968D01*
X101824598Y-55800968D01*
X101700309Y-55836490D01*
X101700307Y-55836491D01*
X101693529Y-55838428D01*
X101572280Y-55914930D01*
X101567613Y-55920214D01*
X101567611Y-55920216D01*
X101482044Y-56017103D01*
X101482042Y-56017105D01*
X101477377Y-56022388D01*
X101416447Y-56152163D01*
X101415362Y-56159132D01*
X101415361Y-56159135D01*
X101413402Y-56171718D01*
X101394391Y-56293823D01*
X101395306Y-56300820D01*
X101395306Y-56300821D01*
X101412065Y-56428982D01*
X101412980Y-56435979D01*
X101415821Y-56442435D01*
X101415821Y-56442436D01*
X101431152Y-56477277D01*
X101470720Y-56567203D01*
X101498015Y-56599674D01*
X101526283Y-56633303D01*
X101549253Y-56690013D01*
X101549500Y-56697005D01*
X101549500Y-74202052D01*
X101547282Y-74222888D01*
X101545049Y-74233261D01*
X101546011Y-74241386D01*
X101548814Y-74265071D01*
X101549161Y-74270963D01*
X101549164Y-74270963D01*
X101549500Y-74275030D01*
X101549500Y-74279115D01*
X101550170Y-74283141D01*
X101550171Y-74283152D01*
X101552496Y-74297119D01*
X101553152Y-74301726D01*
X101558764Y-74349138D01*
X101562118Y-74356122D01*
X101562539Y-74357454D01*
X101563812Y-74365103D01*
X101586505Y-74407160D01*
X101588605Y-74411283D01*
X101606580Y-74448717D01*
X101606582Y-74448721D01*
X101609274Y-74454326D01*
X101612592Y-74458274D01*
X101614100Y-74459782D01*
X101615282Y-74461071D01*
X101616148Y-74462097D01*
X101619222Y-74467794D01*
X101625227Y-74473345D01*
X101625231Y-74473350D01*
X101656018Y-74501809D01*
X101658821Y-74504503D01*
X103268255Y-76113937D01*
X103281420Y-76130240D01*
X103282733Y-76132274D01*
X103282736Y-76132278D01*
X103287175Y-76139152D01*
X103312332Y-76158985D01*
X103316737Y-76162899D01*
X103316738Y-76162898D01*
X103319869Y-76165551D01*
X103322746Y-76168428D01*
X103337601Y-76179044D01*
X103341312Y-76181830D01*
X103378811Y-76211392D01*
X103386118Y-76213958D01*
X103387364Y-76214605D01*
X103393669Y-76219111D01*
X103439403Y-76232788D01*
X103443839Y-76234229D01*
X103483033Y-76247993D01*
X103483036Y-76247994D01*
X103488906Y-76250055D01*
X103494044Y-76250500D01*
X103496180Y-76250500D01*
X103497919Y-76250575D01*
X103499262Y-76250689D01*
X103505463Y-76252543D01*
X103513638Y-76252222D01*
X103513639Y-76252222D01*
X103555538Y-76250576D01*
X103559424Y-76250500D01*
X108550500Y-76250500D01*
X108608691Y-76269407D01*
X108644655Y-76318907D01*
X108649500Y-76349500D01*
X108649500Y-76701000D01*
X108630593Y-76759191D01*
X108581093Y-76795155D01*
X108550500Y-76800000D01*
X50033130Y-76800000D01*
X50011474Y-76797602D01*
X50010109Y-76797296D01*
X50010106Y-76797296D01*
X49999230Y-76794858D01*
X49988373Y-76797378D01*
X49988002Y-76797379D01*
X49973603Y-76796381D01*
X49926171Y-76789592D01*
X49898256Y-76781267D01*
X49845041Y-76756378D01*
X49820760Y-76740291D01*
X49777091Y-76700989D01*
X49758543Y-76678531D01*
X49737968Y-76644412D01*
X49728203Y-76628219D01*
X49716994Y-76601332D01*
X49714741Y-76592407D01*
X49705203Y-76554635D01*
X49702785Y-76540771D01*
X49704161Y-76529943D01*
X49700629Y-76519365D01*
X49700459Y-76517630D01*
X49696352Y-76497610D01*
X49620103Y-75575000D01*
X68769318Y-75575000D01*
X68770165Y-75581432D01*
X68770165Y-75581434D01*
X68771776Y-75593673D01*
X68789956Y-75731762D01*
X68850464Y-75877841D01*
X68946718Y-76003282D01*
X69072159Y-76099536D01*
X69218238Y-76160044D01*
X69375000Y-76180682D01*
X69486284Y-76166031D01*
X69546443Y-76177181D01*
X69569209Y-76194180D01*
X69599680Y-76224651D01*
X69602380Y-76227780D01*
X69604575Y-76232269D01*
X69611278Y-76238487D01*
X69640822Y-76265893D01*
X69643498Y-76268469D01*
X69657276Y-76282247D01*
X69660987Y-76284792D01*
X69664892Y-76288220D01*
X69686646Y-76308401D01*
X69695133Y-76311787D01*
X69697336Y-76312666D01*
X69716652Y-76322980D01*
X69718607Y-76324321D01*
X69718610Y-76324322D01*
X69726146Y-76329492D01*
X69752058Y-76335641D01*
X69765884Y-76340014D01*
X69784132Y-76347294D01*
X69784134Y-76347294D01*
X69790622Y-76349883D01*
X69796915Y-76350500D01*
X69803084Y-76350500D01*
X69825943Y-76353175D01*
X69826173Y-76353230D01*
X69826175Y-76353230D01*
X69835066Y-76355340D01*
X69863988Y-76351404D01*
X69877337Y-76350500D01*
X74396492Y-76350500D01*
X74400617Y-76350803D01*
X74405342Y-76352425D01*
X74454761Y-76350570D01*
X74458474Y-76350500D01*
X74477948Y-76350500D01*
X74482378Y-76349675D01*
X74487571Y-76349339D01*
X74503602Y-76348737D01*
X74508075Y-76348569D01*
X74517208Y-76348226D01*
X74525602Y-76344620D01*
X74525605Y-76344619D01*
X74527783Y-76343683D01*
X74548734Y-76337317D01*
X74560053Y-76335209D01*
X74582729Y-76321232D01*
X74595596Y-76314548D01*
X74613642Y-76306795D01*
X74613643Y-76306794D01*
X74620063Y-76304036D01*
X74624949Y-76300022D01*
X74629313Y-76295658D01*
X74647368Y-76281387D01*
X74655348Y-76276468D01*
X74673018Y-76253231D01*
X74681810Y-76243161D01*
X75624651Y-75300320D01*
X75627780Y-75297620D01*
X75632269Y-75295425D01*
X75665893Y-75259178D01*
X75668469Y-75256502D01*
X75682248Y-75242723D01*
X75684793Y-75239013D01*
X75688229Y-75235100D01*
X75702187Y-75220053D01*
X75708401Y-75213354D01*
X75711788Y-75204866D01*
X75712667Y-75202663D01*
X75722978Y-75183352D01*
X75724322Y-75181393D01*
X75724323Y-75181390D01*
X75729493Y-75173854D01*
X75735644Y-75147934D01*
X75740014Y-75134115D01*
X75749883Y-75109378D01*
X75750500Y-75103085D01*
X75750500Y-75096915D01*
X75753175Y-75074056D01*
X75753230Y-75073826D01*
X75755340Y-75064934D01*
X75751404Y-75036012D01*
X75750500Y-75022663D01*
X75750500Y-73243823D01*
X88794391Y-73243823D01*
X88795306Y-73250820D01*
X88795306Y-73250821D01*
X88809606Y-73360174D01*
X88812980Y-73385979D01*
X88815821Y-73392435D01*
X88815821Y-73392436D01*
X88867771Y-73510500D01*
X88870720Y-73517203D01*
X88883792Y-73532754D01*
X88958431Y-73621549D01*
X88958434Y-73621551D01*
X88962970Y-73626948D01*
X88968841Y-73630856D01*
X88968842Y-73630857D01*
X88981143Y-73639045D01*
X89082313Y-73706390D01*
X89182920Y-73737821D01*
X89212425Y-73747039D01*
X89212426Y-73747039D01*
X89219157Y-73749142D01*
X89290828Y-73750456D01*
X89355445Y-73751641D01*
X89355447Y-73751641D01*
X89362499Y-73751770D01*
X89369302Y-73749915D01*
X89369304Y-73749915D01*
X89444503Y-73729413D01*
X89500817Y-73714060D01*
X89622991Y-73639045D01*
X89630403Y-73630857D01*
X89714468Y-73537982D01*
X89719200Y-73532754D01*
X89781710Y-73403733D01*
X89785875Y-73378982D01*
X89804862Y-73266124D01*
X89804862Y-73266120D01*
X89805496Y-73262354D01*
X89805647Y-73250000D01*
X89785323Y-73108082D01*
X89748431Y-73026942D01*
X89728905Y-72983996D01*
X89728904Y-72983995D01*
X89725984Y-72977572D01*
X89674501Y-72917823D01*
X89650840Y-72861398D01*
X89650500Y-72853200D01*
X89650500Y-59702044D01*
X89669407Y-59643853D01*
X89676102Y-59635608D01*
X89764468Y-59537982D01*
X89769200Y-59532754D01*
X89831710Y-59403733D01*
X89835875Y-59378982D01*
X89854862Y-59266124D01*
X89854862Y-59266120D01*
X89855496Y-59262354D01*
X89855647Y-59250000D01*
X89835323Y-59108082D01*
X89775984Y-58977572D01*
X89682400Y-58868963D01*
X89562095Y-58790985D01*
X89424739Y-58749907D01*
X89341497Y-58749398D01*
X89288427Y-58749074D01*
X89288426Y-58749074D01*
X89281376Y-58749031D01*
X89274599Y-58750968D01*
X89274598Y-58750968D01*
X89150309Y-58786490D01*
X89150307Y-58786491D01*
X89143529Y-58788428D01*
X89022280Y-58864930D01*
X89017613Y-58870214D01*
X89017611Y-58870216D01*
X88932044Y-58967103D01*
X88932042Y-58967105D01*
X88927377Y-58972388D01*
X88866447Y-59102163D01*
X88865362Y-59109132D01*
X88865361Y-59109135D01*
X88859112Y-59149271D01*
X88844391Y-59243823D01*
X88845306Y-59250820D01*
X88845306Y-59250821D01*
X88846814Y-59262354D01*
X88862980Y-59385979D01*
X88865821Y-59392435D01*
X88865821Y-59392436D01*
X88909465Y-59491623D01*
X88920720Y-59517203D01*
X89012970Y-59626948D01*
X89016999Y-59629630D01*
X89047265Y-59681636D01*
X89049500Y-59702554D01*
X89049500Y-72761613D01*
X89030593Y-72819804D01*
X89003328Y-72845340D01*
X88972280Y-72864930D01*
X88967613Y-72870214D01*
X88967611Y-72870216D01*
X88882044Y-72967103D01*
X88882042Y-72967105D01*
X88877377Y-72972388D01*
X88816447Y-73102163D01*
X88815362Y-73109132D01*
X88815361Y-73109135D01*
X88804158Y-73181093D01*
X88794391Y-73243823D01*
X75750500Y-73243823D01*
X75750500Y-69025154D01*
X75769407Y-68966963D01*
X75789232Y-68946612D01*
X75878282Y-68878282D01*
X75974536Y-68752841D01*
X76035044Y-68606762D01*
X76055682Y-68450000D01*
X76035044Y-68293238D01*
X75974536Y-68147159D01*
X75878282Y-68021718D01*
X75752841Y-67925464D01*
X75606762Y-67864956D01*
X75450000Y-67844318D01*
X75293238Y-67864956D01*
X75147159Y-67925464D01*
X75021718Y-68021718D01*
X74925464Y-68147159D01*
X74864956Y-68293238D01*
X74844318Y-68450000D01*
X74864956Y-68606762D01*
X74925464Y-68752841D01*
X75021718Y-68878282D01*
X75110768Y-68946612D01*
X75145423Y-68997037D01*
X75149500Y-69025154D01*
X75149500Y-74884520D01*
X75130593Y-74942711D01*
X75120504Y-74954524D01*
X74354525Y-75720504D01*
X74300008Y-75748281D01*
X74284521Y-75749500D01*
X73238254Y-75749500D01*
X73204689Y-75738594D01*
X73161746Y-75749500D01*
X70070596Y-75749500D01*
X70012405Y-75730593D01*
X69976441Y-75681093D01*
X69972443Y-75637580D01*
X69980682Y-75575000D01*
X69960044Y-75418238D01*
X69899536Y-75272159D01*
X69803282Y-75146718D01*
X69677841Y-75050464D01*
X69531762Y-74989956D01*
X69375000Y-74969318D01*
X69218238Y-74989956D01*
X69072159Y-75050464D01*
X68946718Y-75146718D01*
X68850464Y-75272159D01*
X68789956Y-75418238D01*
X68769318Y-75575000D01*
X49620103Y-75575000D01*
X49299079Y-71690607D01*
X51360222Y-71690607D01*
X51389673Y-71862004D01*
X51391925Y-71867295D01*
X51391925Y-71867297D01*
X51408578Y-71906434D01*
X51457765Y-72022029D01*
X51560843Y-72162097D01*
X51565225Y-72165819D01*
X51565227Y-72165822D01*
X51636117Y-72226047D01*
X51693380Y-72274695D01*
X51722065Y-72289342D01*
X51843141Y-72351167D01*
X51843144Y-72351168D01*
X51848265Y-72353783D01*
X51853850Y-72355150D01*
X51853851Y-72355150D01*
X52012910Y-72394072D01*
X52012913Y-72394073D01*
X52017190Y-72395119D01*
X52021588Y-72395392D01*
X52021589Y-72395392D01*
X52026651Y-72395706D01*
X52026653Y-72395706D01*
X52028167Y-72395800D01*
X52153547Y-72395800D01*
X52282739Y-72380738D01*
X52288145Y-72378776D01*
X52288148Y-72378775D01*
X52440804Y-72323363D01*
X52446212Y-72321400D01*
X52451022Y-72318247D01*
X52451025Y-72318245D01*
X52553175Y-72251272D01*
X52591650Y-72226047D01*
X52600972Y-72216207D01*
X52648701Y-72165822D01*
X52711251Y-72099793D01*
X52798599Y-71949412D01*
X52843519Y-71801100D01*
X52847343Y-71788474D01*
X52847343Y-71788471D01*
X52849010Y-71782969D01*
X52859778Y-71609393D01*
X52830327Y-71437996D01*
X52813040Y-71397368D01*
X52764486Y-71283261D01*
X52762235Y-71277971D01*
X52684662Y-71172560D01*
X52662566Y-71142535D01*
X52662565Y-71142534D01*
X52659157Y-71137903D01*
X52654775Y-71134181D01*
X52654773Y-71134178D01*
X52531006Y-71029031D01*
X52531005Y-71029030D01*
X52526620Y-71025305D01*
X52441332Y-70981755D01*
X52376859Y-70948833D01*
X52376856Y-70948832D01*
X52371735Y-70946217D01*
X52319406Y-70933412D01*
X52207090Y-70905928D01*
X52207087Y-70905927D01*
X52202810Y-70904881D01*
X52198412Y-70904608D01*
X52198411Y-70904608D01*
X52193349Y-70904294D01*
X52193347Y-70904294D01*
X52191833Y-70904200D01*
X52066453Y-70904200D01*
X51937261Y-70919262D01*
X51931855Y-70921224D01*
X51931852Y-70921225D01*
X51804558Y-70967431D01*
X51773788Y-70978600D01*
X51768978Y-70981753D01*
X51768975Y-70981755D01*
X51709663Y-71020642D01*
X51628350Y-71073953D01*
X51624394Y-71078130D01*
X51624393Y-71078130D01*
X51610938Y-71092333D01*
X51508749Y-71200207D01*
X51463689Y-71277783D01*
X51424301Y-71345596D01*
X51421401Y-71350588D01*
X51404816Y-71405348D01*
X51375612Y-71501772D01*
X51370990Y-71517031D01*
X51360222Y-71690607D01*
X49299079Y-71690607D01*
X49261287Y-71233330D01*
X49200336Y-70495821D01*
X49200000Y-70487668D01*
X49200000Y-68082268D01*
X49218907Y-68024077D01*
X49268407Y-67988113D01*
X49282746Y-67984611D01*
X49465570Y-67954181D01*
X49472357Y-67952551D01*
X49736274Y-67869086D01*
X49742755Y-67866520D01*
X49992282Y-67746698D01*
X49998346Y-67743239D01*
X50228491Y-67589461D01*
X50234010Y-67585180D01*
X50312834Y-67514580D01*
X50319533Y-67503046D01*
X50319146Y-67499261D01*
X50318035Y-67497640D01*
X49228996Y-66408601D01*
X49201219Y-66354084D01*
X49200000Y-66338597D01*
X49200000Y-66259403D01*
X49218907Y-66201212D01*
X49268407Y-66165248D01*
X49329593Y-66165248D01*
X49369004Y-66189399D01*
X50493358Y-67313753D01*
X50505241Y-67319807D01*
X50508180Y-67319342D01*
X50510846Y-67317223D01*
X50623155Y-67183615D01*
X50627264Y-67177959D01*
X50773740Y-66943093D01*
X50777005Y-66936926D01*
X50866246Y-66735066D01*
X52344660Y-66735066D01*
X52348212Y-66761166D01*
X52348596Y-66763987D01*
X52349500Y-66777337D01*
X52349500Y-70046492D01*
X52349197Y-70050617D01*
X52347575Y-70055342D01*
X52348951Y-70092010D01*
X52349430Y-70104761D01*
X52349500Y-70108474D01*
X52349500Y-70127948D01*
X52350325Y-70132378D01*
X52350661Y-70137571D01*
X52351774Y-70167208D01*
X52355380Y-70175602D01*
X52355381Y-70175605D01*
X52356317Y-70177783D01*
X52362683Y-70198734D01*
X52364791Y-70210053D01*
X52369588Y-70217835D01*
X52378768Y-70232728D01*
X52385451Y-70245595D01*
X52395964Y-70270063D01*
X52399978Y-70274949D01*
X52404342Y-70279313D01*
X52418613Y-70297368D01*
X52423532Y-70305348D01*
X52446769Y-70323018D01*
X52456839Y-70331810D01*
X54120859Y-71995830D01*
X54123559Y-71998959D01*
X54125754Y-72003448D01*
X54132457Y-72009666D01*
X54162001Y-72037072D01*
X54164677Y-72039648D01*
X54178456Y-72053427D01*
X54182166Y-72055972D01*
X54186079Y-72059408D01*
X54189692Y-72062759D01*
X54207825Y-72079580D01*
X54216311Y-72082966D01*
X54216313Y-72082967D01*
X54218516Y-72083846D01*
X54237827Y-72094157D01*
X54239786Y-72095501D01*
X54239789Y-72095502D01*
X54247325Y-72100672D01*
X54256217Y-72102782D01*
X54256219Y-72102783D01*
X54273245Y-72106823D01*
X54287064Y-72111193D01*
X54311801Y-72121062D01*
X54318094Y-72121679D01*
X54324264Y-72121679D01*
X54347120Y-72124354D01*
X54356245Y-72126519D01*
X54385167Y-72122583D01*
X54398516Y-72121679D01*
X56471663Y-72121679D01*
X56529854Y-72140586D01*
X56565818Y-72190086D01*
X56565818Y-72251272D01*
X56557272Y-72270400D01*
X56501401Y-72366588D01*
X56485252Y-72419907D01*
X56466721Y-72481093D01*
X56450990Y-72533031D01*
X56440222Y-72706607D01*
X56469673Y-72878004D01*
X56471925Y-72883295D01*
X56471925Y-72883297D01*
X56533047Y-73026942D01*
X56537765Y-73038029D01*
X56541170Y-73042656D01*
X56541174Y-73042663D01*
X56577351Y-73091822D01*
X56596613Y-73149896D01*
X56578061Y-73208201D01*
X56528782Y-73244466D01*
X56497615Y-73249500D01*
X54303508Y-73249500D01*
X54299383Y-73249197D01*
X54294658Y-73247575D01*
X54245239Y-73249430D01*
X54241526Y-73249500D01*
X54222052Y-73249500D01*
X54217622Y-73250325D01*
X54212429Y-73250661D01*
X54196398Y-73251263D01*
X54191925Y-73251431D01*
X54182792Y-73251774D01*
X54174398Y-73255380D01*
X54174395Y-73255381D01*
X54172217Y-73256317D01*
X54151266Y-73262683D01*
X54139947Y-73264791D01*
X54132164Y-73269588D01*
X54132165Y-73269588D01*
X54117272Y-73278768D01*
X54104404Y-73285452D01*
X54086358Y-73293205D01*
X54086357Y-73293206D01*
X54079937Y-73295964D01*
X54075051Y-73299978D01*
X54070687Y-73304342D01*
X54052632Y-73318613D01*
X54044652Y-73323532D01*
X54026982Y-73346769D01*
X54018190Y-73356839D01*
X53794209Y-73580820D01*
X53739692Y-73608597D01*
X53711286Y-73608969D01*
X53600000Y-73594318D01*
X53443238Y-73614956D01*
X53297159Y-73675464D01*
X53171718Y-73771718D01*
X53075464Y-73897159D01*
X53014956Y-74043238D01*
X52994318Y-74200000D01*
X53014956Y-74356762D01*
X53075464Y-74502841D01*
X53171718Y-74628282D01*
X53297159Y-74724536D01*
X53443238Y-74785044D01*
X53600000Y-74805682D01*
X53756762Y-74785044D01*
X53902841Y-74724536D01*
X54028282Y-74628282D01*
X54124536Y-74502841D01*
X54185044Y-74356762D01*
X54205682Y-74200000D01*
X54191031Y-74088716D01*
X54202181Y-74028557D01*
X54219180Y-74005791D01*
X54345475Y-73879496D01*
X54399992Y-73851719D01*
X54415479Y-73850500D01*
X66484521Y-73850500D01*
X66542712Y-73869407D01*
X66554525Y-73879496D01*
X67280820Y-74605791D01*
X67308597Y-74660308D01*
X67308969Y-74688714D01*
X67294318Y-74800000D01*
X67314956Y-74956762D01*
X67375464Y-75102841D01*
X67471718Y-75228282D01*
X67597159Y-75324536D01*
X67743238Y-75385044D01*
X67900000Y-75405682D01*
X68056762Y-75385044D01*
X68202841Y-75324536D01*
X68328282Y-75228282D01*
X68424536Y-75102841D01*
X68485044Y-74956762D01*
X68505682Y-74800000D01*
X68485044Y-74643238D01*
X68424536Y-74497159D01*
X68328282Y-74371718D01*
X68202841Y-74275464D01*
X68056762Y-74214956D01*
X67900000Y-74194318D01*
X67788716Y-74208969D01*
X67728557Y-74197819D01*
X67705791Y-74180820D01*
X66900320Y-73375349D01*
X66897620Y-73372220D01*
X66895425Y-73367731D01*
X66887279Y-73360174D01*
X66859178Y-73334107D01*
X66856502Y-73331531D01*
X66844475Y-73319504D01*
X66816698Y-73264987D01*
X66826269Y-73204555D01*
X66869534Y-73161290D01*
X66914479Y-73150500D01*
X70934521Y-73150500D01*
X70992712Y-73169407D01*
X71004525Y-73179496D01*
X72580820Y-74755791D01*
X72608597Y-74810308D01*
X72608969Y-74838714D01*
X72594318Y-74950000D01*
X72614956Y-75106762D01*
X72675464Y-75252841D01*
X72771718Y-75378282D01*
X72897159Y-75474536D01*
X73043238Y-75535044D01*
X73152466Y-75549424D01*
X73174668Y-75552347D01*
X73197743Y-75563353D01*
X73225332Y-75552347D01*
X73247534Y-75549424D01*
X73356762Y-75535044D01*
X73502841Y-75474536D01*
X73628282Y-75378282D01*
X73724536Y-75252841D01*
X73785044Y-75106762D01*
X73805682Y-74950000D01*
X73785044Y-74793238D01*
X73724536Y-74647159D01*
X73628282Y-74521718D01*
X73502841Y-74425464D01*
X73356762Y-74364956D01*
X73200000Y-74344318D01*
X73088716Y-74358969D01*
X73028557Y-74347819D01*
X73005791Y-74330820D01*
X71350320Y-72675349D01*
X71347620Y-72672220D01*
X71345425Y-72667731D01*
X71309178Y-72634107D01*
X71306502Y-72631531D01*
X71292723Y-72617752D01*
X71289013Y-72615207D01*
X71285100Y-72611771D01*
X71270055Y-72597815D01*
X71263354Y-72591599D01*
X71252664Y-72587334D01*
X71233348Y-72577020D01*
X71231393Y-72575679D01*
X71231390Y-72575678D01*
X71223854Y-72570508D01*
X71197941Y-72564359D01*
X71184116Y-72559986D01*
X71165868Y-72552706D01*
X71165866Y-72552706D01*
X71159378Y-72550117D01*
X71153085Y-72549500D01*
X71146916Y-72549500D01*
X71124057Y-72546825D01*
X71123827Y-72546770D01*
X71123825Y-72546770D01*
X71114934Y-72544660D01*
X71086013Y-72548596D01*
X71072663Y-72549500D01*
X68014479Y-72549500D01*
X67956288Y-72530593D01*
X67920324Y-72481093D01*
X67920324Y-72419907D01*
X67944475Y-72380496D01*
X71605791Y-68719180D01*
X71660308Y-68691403D01*
X71688714Y-68691031D01*
X71800000Y-68705682D01*
X71956762Y-68685044D01*
X72102841Y-68624536D01*
X72228282Y-68528282D01*
X72324536Y-68402841D01*
X72385044Y-68256762D01*
X72405682Y-68100000D01*
X72385044Y-67943238D01*
X72324536Y-67797159D01*
X72228282Y-67671718D01*
X72102841Y-67575464D01*
X71956762Y-67514956D01*
X71800000Y-67494318D01*
X71643238Y-67514956D01*
X71497159Y-67575464D01*
X71371718Y-67671718D01*
X71321620Y-67737008D01*
X71318403Y-67741200D01*
X71267979Y-67775856D01*
X71206814Y-67774255D01*
X71158273Y-67737008D01*
X71141708Y-67693855D01*
X71135891Y-67649674D01*
X71135044Y-67643238D01*
X71074536Y-67497159D01*
X70978282Y-67371718D01*
X70852841Y-67275464D01*
X70706762Y-67214956D01*
X70575569Y-67197684D01*
X70556434Y-67195165D01*
X70550000Y-67194318D01*
X70543566Y-67195165D01*
X70524431Y-67197684D01*
X70393238Y-67214956D01*
X70247159Y-67275464D01*
X70121718Y-67371718D01*
X70025464Y-67497159D01*
X69964956Y-67643238D01*
X69944318Y-67800000D01*
X69964956Y-67956762D01*
X70025464Y-68102841D01*
X70121718Y-68228282D01*
X70206371Y-68293238D01*
X70210768Y-68296612D01*
X70245423Y-68347037D01*
X70249500Y-68375154D01*
X70249500Y-68414662D01*
X70230593Y-68472853D01*
X70220504Y-68484666D01*
X69119504Y-69585666D01*
X69064987Y-69613443D01*
X69004555Y-69603872D01*
X68961290Y-69560607D01*
X68950500Y-69515662D01*
X68950500Y-67875154D01*
X68969407Y-67816963D01*
X68989232Y-67796612D01*
X68993202Y-67793566D01*
X69078282Y-67728282D01*
X69174536Y-67602841D01*
X69235044Y-67456762D01*
X69255682Y-67300000D01*
X69235044Y-67143238D01*
X69174536Y-66997159D01*
X69078282Y-66871718D01*
X68952841Y-66775464D01*
X68806762Y-66714956D01*
X68650000Y-66694318D01*
X68643566Y-66695165D01*
X68643565Y-66695165D01*
X68616249Y-66698761D01*
X68556089Y-66687611D01*
X68513972Y-66643228D01*
X68505986Y-66582566D01*
X68511862Y-66562729D01*
X68535044Y-66506762D01*
X68555682Y-66350000D01*
X68535044Y-66193238D01*
X68532314Y-66186646D01*
X68499224Y-66106762D01*
X68474536Y-66047159D01*
X68378282Y-65921718D01*
X68252841Y-65825464D01*
X68169551Y-65790964D01*
X68123026Y-65751227D01*
X68108742Y-65691732D01*
X68132157Y-65635205D01*
X68184326Y-65603235D01*
X68207437Y-65600500D01*
X68384521Y-65600500D01*
X68442712Y-65619407D01*
X68454525Y-65629496D01*
X69099680Y-66274651D01*
X69102380Y-66277780D01*
X69104575Y-66282269D01*
X69111278Y-66288487D01*
X69140822Y-66315893D01*
X69143498Y-66318469D01*
X69157277Y-66332248D01*
X69160987Y-66334793D01*
X69164900Y-66338229D01*
X69186646Y-66358401D01*
X69195132Y-66361787D01*
X69195134Y-66361788D01*
X69197337Y-66362667D01*
X69216648Y-66372978D01*
X69218607Y-66374322D01*
X69218610Y-66374323D01*
X69226146Y-66379493D01*
X69235038Y-66381603D01*
X69235040Y-66381604D01*
X69252066Y-66385644D01*
X69265885Y-66390014D01*
X69290622Y-66399883D01*
X69296915Y-66400500D01*
X69303085Y-66400500D01*
X69325941Y-66403175D01*
X69335066Y-66405340D01*
X69363988Y-66401404D01*
X69377337Y-66400500D01*
X72217067Y-66400500D01*
X72277334Y-66420958D01*
X72294748Y-66434320D01*
X72347159Y-66474536D01*
X72493238Y-66535044D01*
X72650000Y-66555682D01*
X72806762Y-66535044D01*
X72952841Y-66474536D01*
X73078282Y-66378282D01*
X73174536Y-66252841D01*
X73235044Y-66106762D01*
X73255682Y-65950000D01*
X73235044Y-65793238D01*
X73174536Y-65647159D01*
X73078282Y-65521718D01*
X72952841Y-65425464D01*
X72806762Y-65364956D01*
X72650000Y-65344318D01*
X72493238Y-65364956D01*
X72487241Y-65367440D01*
X72477621Y-65371425D01*
X72416624Y-65376227D01*
X72364454Y-65344259D01*
X72341580Y-65292884D01*
X72337291Y-65260308D01*
X72335044Y-65243238D01*
X72274536Y-65097159D01*
X72178282Y-64971718D01*
X72052841Y-64875464D01*
X71906762Y-64814956D01*
X71750000Y-64794318D01*
X71638716Y-64808969D01*
X71578557Y-64797819D01*
X71555791Y-64780820D01*
X71450320Y-64675349D01*
X71447620Y-64672220D01*
X71445425Y-64667731D01*
X71409178Y-64634107D01*
X71406502Y-64631531D01*
X71392723Y-64617752D01*
X71389013Y-64615207D01*
X71385100Y-64611771D01*
X71370055Y-64597815D01*
X71363354Y-64591599D01*
X71352664Y-64587334D01*
X71333348Y-64577020D01*
X71331393Y-64575679D01*
X71331390Y-64575678D01*
X71323854Y-64570508D01*
X71297941Y-64564359D01*
X71284116Y-64559986D01*
X71265868Y-64552706D01*
X71265866Y-64552706D01*
X71259378Y-64550117D01*
X71253085Y-64549500D01*
X71246916Y-64549500D01*
X71224057Y-64546825D01*
X71223827Y-64546770D01*
X71223825Y-64546770D01*
X71214934Y-64544660D01*
X71187174Y-64548438D01*
X71186013Y-64548596D01*
X71172663Y-64549500D01*
X66353508Y-64549500D01*
X66349383Y-64549197D01*
X66344658Y-64547575D01*
X66295239Y-64549430D01*
X66291526Y-64549500D01*
X66272052Y-64549500D01*
X66267622Y-64550325D01*
X66262429Y-64550661D01*
X66246398Y-64551263D01*
X66241925Y-64551431D01*
X66232792Y-64551774D01*
X66224398Y-64555380D01*
X66224395Y-64555381D01*
X66222217Y-64556317D01*
X66201266Y-64562683D01*
X66189947Y-64564791D01*
X66182164Y-64569588D01*
X66182165Y-64569588D01*
X66167272Y-64578768D01*
X66154404Y-64585452D01*
X66136358Y-64593205D01*
X66136357Y-64593206D01*
X66129937Y-64595964D01*
X66125051Y-64599978D01*
X66120687Y-64604342D01*
X66102632Y-64618613D01*
X66094652Y-64623532D01*
X66076982Y-64646769D01*
X66068190Y-64656839D01*
X64144209Y-66580820D01*
X64089692Y-66608597D01*
X64061286Y-66608969D01*
X63950000Y-66594318D01*
X63793238Y-66614956D01*
X63787241Y-66617440D01*
X63684214Y-66660115D01*
X63623217Y-66664916D01*
X63571048Y-66632946D01*
X63547633Y-66576418D01*
X63561917Y-66516923D01*
X63576324Y-66498647D01*
X66995475Y-63079496D01*
X67049992Y-63051719D01*
X67065479Y-63050500D01*
X67074846Y-63050500D01*
X67133037Y-63069407D01*
X67153387Y-63089231D01*
X67221718Y-63178282D01*
X67347159Y-63274536D01*
X67493238Y-63335044D01*
X67650000Y-63355682D01*
X67806762Y-63335044D01*
X67952841Y-63274536D01*
X68078282Y-63178282D01*
X68174536Y-63052841D01*
X68235044Y-62906762D01*
X68255682Y-62750000D01*
X68235044Y-62593238D01*
X68174536Y-62447159D01*
X68078282Y-62321718D01*
X67952841Y-62225464D01*
X67806762Y-62164956D01*
X67650000Y-62144318D01*
X67493238Y-62164956D01*
X67347159Y-62225464D01*
X67221718Y-62321718D01*
X67155842Y-62407570D01*
X67153388Y-62410768D01*
X67102963Y-62445423D01*
X67074846Y-62449500D01*
X66953514Y-62449500D01*
X66949385Y-62449197D01*
X66944658Y-62447574D01*
X66903266Y-62449128D01*
X66895223Y-62449430D01*
X66891509Y-62449500D01*
X66872052Y-62449500D01*
X66867622Y-62450325D01*
X66862436Y-62450661D01*
X66841925Y-62451431D01*
X66841924Y-62451431D01*
X66832792Y-62451774D01*
X66824398Y-62455380D01*
X66824395Y-62455381D01*
X66822217Y-62456317D01*
X66801266Y-62462683D01*
X66789947Y-62464791D01*
X66767269Y-62478770D01*
X66754410Y-62485450D01*
X66729938Y-62495964D01*
X66725051Y-62499977D01*
X66720685Y-62504343D01*
X66702629Y-62518615D01*
X66702432Y-62518736D01*
X66702431Y-62518737D01*
X66694652Y-62523532D01*
X66689120Y-62530807D01*
X66689119Y-62530808D01*
X66676993Y-62546755D01*
X66668193Y-62556835D01*
X62625349Y-66599680D01*
X62622220Y-66602380D01*
X62617731Y-66604575D01*
X62611513Y-66611278D01*
X62584107Y-66640822D01*
X62581531Y-66643498D01*
X62567752Y-66657277D01*
X62565207Y-66660987D01*
X62561771Y-66664900D01*
X62541599Y-66686646D01*
X62538212Y-66695134D01*
X62538212Y-66695135D01*
X62537334Y-66697336D01*
X62527020Y-66716652D01*
X62525679Y-66718607D01*
X62525678Y-66718610D01*
X62520508Y-66726146D01*
X62518398Y-66735038D01*
X62514359Y-66752058D01*
X62509986Y-66765884D01*
X62505787Y-66776409D01*
X62500117Y-66790622D01*
X62499500Y-66796915D01*
X62499500Y-66803084D01*
X62496825Y-66825943D01*
X62494660Y-66835066D01*
X62496881Y-66851383D01*
X62498596Y-66863987D01*
X62499500Y-66877337D01*
X62499500Y-68584521D01*
X62480593Y-68642712D01*
X62470504Y-68654525D01*
X61594209Y-69530820D01*
X61539692Y-69558597D01*
X61511286Y-69558969D01*
X61400000Y-69544318D01*
X61243238Y-69564956D01*
X61237241Y-69567440D01*
X61223678Y-69573058D01*
X61097159Y-69625464D01*
X60971718Y-69721718D01*
X60875464Y-69847159D01*
X60814956Y-69993238D01*
X60794318Y-70150000D01*
X60814956Y-70306762D01*
X60875464Y-70452841D01*
X60971718Y-70578282D01*
X61097159Y-70674536D01*
X61243238Y-70735044D01*
X61400000Y-70755682D01*
X61556762Y-70735044D01*
X61702841Y-70674536D01*
X61828282Y-70578282D01*
X61924536Y-70452841D01*
X61985044Y-70306762D01*
X62005682Y-70150000D01*
X61991031Y-70038716D01*
X62002181Y-69978557D01*
X62019180Y-69955791D01*
X62974651Y-69000320D01*
X62977780Y-68997620D01*
X62982269Y-68995425D01*
X63015893Y-68959178D01*
X63018469Y-68956502D01*
X63032248Y-68942723D01*
X63034793Y-68939013D01*
X63038229Y-68935100D01*
X63052185Y-68920055D01*
X63058401Y-68913354D01*
X63062666Y-68902664D01*
X63072980Y-68883348D01*
X63074321Y-68881393D01*
X63074322Y-68881390D01*
X63079492Y-68873854D01*
X63085641Y-68847941D01*
X63090014Y-68834116D01*
X63097294Y-68815868D01*
X63097294Y-68815866D01*
X63099883Y-68809378D01*
X63100500Y-68803085D01*
X63100500Y-68796916D01*
X63103175Y-68774057D01*
X63103230Y-68773827D01*
X63103230Y-68773825D01*
X63105340Y-68764934D01*
X63101404Y-68736012D01*
X63100500Y-68722663D01*
X63100500Y-67015479D01*
X63119407Y-66957288D01*
X63129496Y-66945475D01*
X63248647Y-66826324D01*
X63303164Y-66798547D01*
X63363596Y-66808118D01*
X63406861Y-66851383D01*
X63416432Y-66911815D01*
X63410115Y-66934214D01*
X63382224Y-67001550D01*
X63364956Y-67043238D01*
X63344318Y-67200000D01*
X63364956Y-67356762D01*
X63425464Y-67502841D01*
X63521718Y-67628282D01*
X63647159Y-67724536D01*
X63793238Y-67785044D01*
X63950000Y-67805682D01*
X64106762Y-67785044D01*
X64252841Y-67724536D01*
X64378282Y-67628282D01*
X64474536Y-67502841D01*
X64535044Y-67356762D01*
X64555682Y-67200000D01*
X64541031Y-67088716D01*
X64552181Y-67028557D01*
X64569180Y-67005791D01*
X66395475Y-65179496D01*
X66449992Y-65151719D01*
X66465479Y-65150500D01*
X67035521Y-65150500D01*
X67093712Y-65169407D01*
X67129676Y-65218907D01*
X67129676Y-65280093D01*
X67105525Y-65319504D01*
X66325349Y-66099680D01*
X66322220Y-66102380D01*
X66317731Y-66104575D01*
X66311513Y-66111278D01*
X66284107Y-66140822D01*
X66281531Y-66143498D01*
X66267752Y-66157277D01*
X66265207Y-66160987D01*
X66261771Y-66164900D01*
X66241599Y-66186646D01*
X66238212Y-66195134D01*
X66238212Y-66195135D01*
X66237334Y-66197336D01*
X66227020Y-66216652D01*
X66225679Y-66218607D01*
X66225678Y-66218610D01*
X66220508Y-66226146D01*
X66218398Y-66235038D01*
X66214359Y-66252058D01*
X66209986Y-66265884D01*
X66202706Y-66284132D01*
X66200117Y-66290622D01*
X66199500Y-66296915D01*
X66199500Y-66303084D01*
X66196825Y-66325943D01*
X66194660Y-66335066D01*
X66197836Y-66358401D01*
X66198596Y-66363987D01*
X66199500Y-66377337D01*
X66199500Y-68174846D01*
X66180593Y-68233037D01*
X66160769Y-68253387D01*
X66071718Y-68321718D01*
X65975464Y-68447159D01*
X65914956Y-68593238D01*
X65894318Y-68750000D01*
X65914956Y-68906762D01*
X65917440Y-68912759D01*
X65919513Y-68917764D01*
X65975464Y-69052841D01*
X66071718Y-69178282D01*
X66197159Y-69274536D01*
X66343238Y-69335044D01*
X66500000Y-69355682D01*
X66656762Y-69335044D01*
X66802841Y-69274536D01*
X66928282Y-69178282D01*
X67024536Y-69052841D01*
X67080487Y-68917764D01*
X67082560Y-68912759D01*
X67085044Y-68906762D01*
X67105682Y-68750000D01*
X67085044Y-68593238D01*
X67024536Y-68447159D01*
X66928282Y-68321718D01*
X66839232Y-68253387D01*
X66804577Y-68202963D01*
X66800500Y-68174846D01*
X66800500Y-66515479D01*
X66819407Y-66457288D01*
X66829497Y-66445475D01*
X67213293Y-66061680D01*
X67267809Y-66033903D01*
X67328241Y-66043474D01*
X67371506Y-66086739D01*
X67381077Y-66147171D01*
X67374762Y-66169565D01*
X67364956Y-66193238D01*
X67344318Y-66350000D01*
X67364956Y-66506762D01*
X67388422Y-66563413D01*
X67395051Y-66587942D01*
X67396330Y-66597336D01*
X67398596Y-66613988D01*
X67399500Y-66627337D01*
X67399500Y-69684521D01*
X67380593Y-69742712D01*
X67370504Y-69754525D01*
X67344209Y-69780820D01*
X67289692Y-69808597D01*
X67261286Y-69808969D01*
X67150000Y-69794318D01*
X66993238Y-69814956D01*
X66847159Y-69875464D01*
X66721718Y-69971718D01*
X66625464Y-70097159D01*
X66564956Y-70243238D01*
X66544318Y-70400000D01*
X66564956Y-70556762D01*
X66625464Y-70702841D01*
X66721718Y-70828282D01*
X66847159Y-70924536D01*
X66993238Y-70985044D01*
X67012243Y-70987546D01*
X67067468Y-71013886D01*
X67096664Y-71067657D01*
X67088678Y-71128319D01*
X67069326Y-71155703D01*
X67062558Y-71162471D01*
X67008041Y-71190248D01*
X66992554Y-71191467D01*
X65075154Y-71191467D01*
X65016963Y-71172560D01*
X64996612Y-71152735D01*
X64994310Y-71149735D01*
X64928282Y-71063685D01*
X64802841Y-70967431D01*
X64656762Y-70906923D01*
X64500000Y-70886285D01*
X64343238Y-70906923D01*
X64197159Y-70967431D01*
X64071718Y-71063685D01*
X63975464Y-71189126D01*
X63946904Y-71258075D01*
X63922315Y-71317440D01*
X63914956Y-71335205D01*
X63894318Y-71491967D01*
X63914956Y-71648729D01*
X63917440Y-71654727D01*
X63917441Y-71654729D01*
X63933741Y-71694082D01*
X63938541Y-71755079D01*
X63906572Y-71807248D01*
X63850044Y-71830662D01*
X63842277Y-71830967D01*
X61077088Y-71830967D01*
X61018897Y-71812060D01*
X61007084Y-71801971D01*
X58780462Y-69575349D01*
X58777762Y-69572220D01*
X58775567Y-69567731D01*
X58766122Y-69558969D01*
X58739320Y-69534107D01*
X58736644Y-69531531D01*
X58722865Y-69517752D01*
X58719155Y-69515207D01*
X58715242Y-69511771D01*
X58700197Y-69497815D01*
X58693496Y-69491599D01*
X58682806Y-69487334D01*
X58663490Y-69477020D01*
X58661535Y-69475679D01*
X58661532Y-69475678D01*
X58653996Y-69470508D01*
X58628083Y-69464359D01*
X58614258Y-69459986D01*
X58596010Y-69452706D01*
X58596008Y-69452706D01*
X58589520Y-69450117D01*
X58583227Y-69449500D01*
X58577058Y-69449500D01*
X58554199Y-69446825D01*
X58553969Y-69446770D01*
X58553967Y-69446770D01*
X58545076Y-69444660D01*
X58516155Y-69448596D01*
X58502805Y-69449500D01*
X55403835Y-69449500D01*
X55345644Y-69430593D01*
X55309680Y-69381093D01*
X55305262Y-69353194D01*
X55305682Y-69350000D01*
X55285044Y-69193238D01*
X55224536Y-69047159D01*
X55128282Y-68921718D01*
X55002841Y-68825464D01*
X54856762Y-68764956D01*
X54700000Y-68744318D01*
X54543238Y-68764956D01*
X54397159Y-68825464D01*
X54271718Y-68921718D01*
X54175464Y-69047159D01*
X54172982Y-69053150D01*
X54172979Y-69053156D01*
X54155886Y-69094424D01*
X54116150Y-69140950D01*
X54056655Y-69155234D01*
X54000127Y-69131819D01*
X53978687Y-69106042D01*
X53977019Y-69103152D01*
X53974536Y-69097159D01*
X53878282Y-68971718D01*
X53752841Y-68875464D01*
X53606762Y-68814956D01*
X53450000Y-68794318D01*
X53293238Y-68814956D01*
X53147159Y-68875464D01*
X53109766Y-68904157D01*
X53052092Y-68924580D01*
X52993426Y-68907203D01*
X52956179Y-68858661D01*
X52950500Y-68825614D01*
X52950500Y-67505932D01*
X55179502Y-67505932D01*
X55179902Y-67508461D01*
X55182488Y-67511663D01*
X55342036Y-67641553D01*
X55347739Y-67645562D01*
X55584878Y-67788331D01*
X55591103Y-67791503D01*
X55845987Y-67899433D01*
X55852599Y-67901696D01*
X56120140Y-67972633D01*
X56127007Y-67973944D01*
X56401886Y-68006478D01*
X56408851Y-68006807D01*
X56685577Y-68000284D01*
X56692527Y-67999627D01*
X56965570Y-67954181D01*
X56972357Y-67952551D01*
X57236274Y-67869086D01*
X57242755Y-67866520D01*
X57492282Y-67746698D01*
X57498346Y-67743239D01*
X57728491Y-67589461D01*
X57734010Y-67585180D01*
X57812834Y-67514580D01*
X57819533Y-67503046D01*
X57819146Y-67499261D01*
X57818035Y-67497640D01*
X56511086Y-66190691D01*
X56499203Y-66184637D01*
X56494172Y-66185433D01*
X55185556Y-67494049D01*
X55179502Y-67505932D01*
X52950500Y-67505932D01*
X52950500Y-67080664D01*
X52969407Y-67022473D01*
X53023460Y-66985150D01*
X53062630Y-66974471D01*
X53100817Y-66964060D01*
X53222991Y-66889045D01*
X53233589Y-66877337D01*
X53314468Y-66787982D01*
X53319200Y-66782754D01*
X53381710Y-66653733D01*
X53383453Y-66643378D01*
X53404862Y-66516124D01*
X53404862Y-66516120D01*
X53405496Y-66512354D01*
X53405647Y-66500000D01*
X53385323Y-66358082D01*
X53348431Y-66276942D01*
X53328905Y-66233996D01*
X53328904Y-66233995D01*
X53325984Y-66227572D01*
X53232400Y-66118963D01*
X53112095Y-66040985D01*
X52974739Y-65999907D01*
X52891497Y-65999398D01*
X52838427Y-65999074D01*
X52838426Y-65999074D01*
X52831376Y-65999031D01*
X52824599Y-66000968D01*
X52824598Y-66000968D01*
X52700309Y-66036490D01*
X52700307Y-66036491D01*
X52693529Y-66038428D01*
X52572280Y-66114930D01*
X52567613Y-66120214D01*
X52567611Y-66120216D01*
X52482044Y-66217103D01*
X52482042Y-66217105D01*
X52477377Y-66222388D01*
X52474381Y-66228770D01*
X52474380Y-66228771D01*
X52464413Y-66250000D01*
X52416447Y-66352163D01*
X52415362Y-66359132D01*
X52415361Y-66359135D01*
X52401919Y-66445475D01*
X52394391Y-66493823D01*
X52399457Y-66532560D01*
X52399669Y-66534184D01*
X52390017Y-66586015D01*
X52391599Y-66586646D01*
X52387334Y-66597336D01*
X52377020Y-66616652D01*
X52375679Y-66618607D01*
X52375678Y-66618610D01*
X52370508Y-66626146D01*
X52368398Y-66635038D01*
X52364359Y-66652058D01*
X52359986Y-66665884D01*
X52352851Y-66683769D01*
X52350117Y-66690622D01*
X52349500Y-66696915D01*
X52349500Y-66703084D01*
X52346825Y-66725943D01*
X52346777Y-66726146D01*
X52344660Y-66735066D01*
X50866246Y-66735066D01*
X50888924Y-66683769D01*
X50891292Y-66677194D01*
X50966424Y-66410795D01*
X50967841Y-66403954D01*
X51004817Y-66128663D01*
X51005234Y-66123621D01*
X51009040Y-66002528D01*
X51008941Y-65997481D01*
X51004898Y-65940388D01*
X54492009Y-65940388D01*
X54502877Y-66216971D01*
X54503644Y-66223916D01*
X54553372Y-66496205D01*
X54555109Y-66502970D01*
X54642705Y-66765527D01*
X54645383Y-66771993D01*
X54769105Y-67019598D01*
X54772656Y-67025602D01*
X54930035Y-67253312D01*
X54934394Y-67258754D01*
X54984874Y-67313362D01*
X54996512Y-67319880D01*
X55000704Y-67319384D01*
X55001718Y-67318677D01*
X56309309Y-66011086D01*
X56314551Y-66000797D01*
X56684637Y-66000797D01*
X56685433Y-66005828D01*
X57993358Y-67313753D01*
X58005241Y-67319807D01*
X58008180Y-67319342D01*
X58010846Y-67317223D01*
X58123155Y-67183615D01*
X58127264Y-67177959D01*
X58273740Y-66943093D01*
X58277005Y-66936926D01*
X58388924Y-66683769D01*
X58391292Y-66677194D01*
X58466424Y-66410795D01*
X58467841Y-66403954D01*
X58490333Y-66236496D01*
X59232937Y-66236496D01*
X59236339Y-66277005D01*
X59247866Y-66414272D01*
X59248732Y-66424590D01*
X59250065Y-66429238D01*
X59250065Y-66429239D01*
X59297401Y-66594318D01*
X59300760Y-66606034D01*
X59302975Y-66610344D01*
X59384827Y-66769612D01*
X59384830Y-66769616D01*
X59387040Y-66773917D01*
X59504285Y-66921844D01*
X59507972Y-66924982D01*
X59507974Y-66924984D01*
X59644342Y-67041042D01*
X59644347Y-67041045D01*
X59648030Y-67044180D01*
X59652253Y-67046540D01*
X59652257Y-67046543D01*
X59727719Y-67088717D01*
X59812800Y-67136267D01*
X59840195Y-67145168D01*
X59987718Y-67193101D01*
X59987721Y-67193102D01*
X59992317Y-67194595D01*
X59997113Y-67195167D01*
X59997118Y-67195168D01*
X60086031Y-67205770D01*
X60179745Y-67216945D01*
X60184567Y-67216574D01*
X60184570Y-67216574D01*
X60246278Y-67211826D01*
X60367945Y-67202464D01*
X60549748Y-67151703D01*
X60718229Y-67066598D01*
X60866970Y-66950388D01*
X60870132Y-66946725D01*
X60870137Y-66946720D01*
X60952429Y-66851383D01*
X60990307Y-66807501D01*
X60992817Y-66803084D01*
X61081153Y-66647584D01*
X61081154Y-66647581D01*
X61083542Y-66643378D01*
X61086317Y-66635038D01*
X61141596Y-66468863D01*
X61141596Y-66468861D01*
X61143123Y-66464272D01*
X61144006Y-66457288D01*
X61158301Y-66344122D01*
X61166780Y-66277005D01*
X61167157Y-66250000D01*
X61153701Y-66112759D01*
X61149210Y-66066955D01*
X61149209Y-66066951D01*
X61148738Y-66062145D01*
X61104362Y-65915166D01*
X61105644Y-65853996D01*
X61129133Y-65816549D01*
X65866186Y-61079496D01*
X65920703Y-61051719D01*
X65936190Y-61050500D01*
X81885521Y-61050500D01*
X81943712Y-61069407D01*
X81979676Y-61118907D01*
X81979676Y-61180093D01*
X81955525Y-61219504D01*
X80875349Y-62299680D01*
X80872220Y-62302380D01*
X80867731Y-62304575D01*
X80861513Y-62311278D01*
X80834107Y-62340822D01*
X80831531Y-62343498D01*
X80817752Y-62357277D01*
X80815207Y-62360987D01*
X80811771Y-62364900D01*
X80791599Y-62386646D01*
X80788212Y-62395134D01*
X80788212Y-62395135D01*
X80787334Y-62397336D01*
X80777020Y-62416652D01*
X80775679Y-62418607D01*
X80775678Y-62418610D01*
X80770508Y-62426146D01*
X80764508Y-62451431D01*
X80764359Y-62452058D01*
X80759986Y-62465884D01*
X80752706Y-62484132D01*
X80750117Y-62490622D01*
X80749500Y-62496915D01*
X80749500Y-62503084D01*
X80746825Y-62525943D01*
X80744660Y-62535066D01*
X80746251Y-62546755D01*
X80748596Y-62563987D01*
X80749500Y-62577337D01*
X80749500Y-67597333D01*
X80730593Y-67655524D01*
X80722061Y-67664737D01*
X80722280Y-67664930D01*
X80632044Y-67767103D01*
X80632042Y-67767105D01*
X80627377Y-67772388D01*
X80566447Y-67902163D01*
X80565362Y-67909132D01*
X80565361Y-67909135D01*
X80558348Y-67954181D01*
X80544391Y-68043823D01*
X80545306Y-68050820D01*
X80545306Y-68050821D01*
X80557230Y-68142010D01*
X80562980Y-68185979D01*
X80565821Y-68192435D01*
X80565821Y-68192436D01*
X80611660Y-68296612D01*
X80620720Y-68317203D01*
X80628847Y-68326871D01*
X80708431Y-68421549D01*
X80708434Y-68421551D01*
X80712970Y-68426948D01*
X80718841Y-68430856D01*
X80718842Y-68430857D01*
X80731143Y-68439045D01*
X80832313Y-68506390D01*
X80885893Y-68523129D01*
X80962425Y-68547039D01*
X80962426Y-68547039D01*
X80969157Y-68549142D01*
X81040828Y-68550456D01*
X81105445Y-68551641D01*
X81105447Y-68551641D01*
X81112499Y-68551770D01*
X81119302Y-68549915D01*
X81119304Y-68549915D01*
X81217552Y-68523129D01*
X81250817Y-68514060D01*
X81372991Y-68439045D01*
X81380403Y-68430857D01*
X81464468Y-68337982D01*
X81469200Y-68332754D01*
X81531710Y-68203733D01*
X81535875Y-68178982D01*
X81554862Y-68066124D01*
X81554862Y-68066120D01*
X81555496Y-68062354D01*
X81555647Y-68050000D01*
X81535323Y-67908082D01*
X81488380Y-67804835D01*
X81478905Y-67783996D01*
X81478904Y-67783995D01*
X81475984Y-67777572D01*
X81426881Y-67720585D01*
X81387007Y-67674309D01*
X81387005Y-67674307D01*
X81382400Y-67668963D01*
X81382512Y-67668866D01*
X81352998Y-67619549D01*
X81350500Y-67597449D01*
X81350500Y-62715479D01*
X81369407Y-62657288D01*
X81379496Y-62645475D01*
X82413977Y-61610994D01*
X82468494Y-61583217D01*
X82514573Y-61586843D01*
X82687718Y-61643101D01*
X82687721Y-61643102D01*
X82692317Y-61644595D01*
X82697113Y-61645167D01*
X82697118Y-61645168D01*
X82786031Y-61655770D01*
X82879745Y-61666945D01*
X82884567Y-61666574D01*
X82884570Y-61666574D01*
X82946278Y-61661826D01*
X83067945Y-61652464D01*
X83249748Y-61601703D01*
X83418229Y-61516598D01*
X83566970Y-61400388D01*
X83570132Y-61396725D01*
X83570137Y-61396720D01*
X83652577Y-61301212D01*
X83690307Y-61257501D01*
X83711893Y-61219504D01*
X83781153Y-61097584D01*
X83781154Y-61097581D01*
X83783542Y-61093378D01*
X83791517Y-61069407D01*
X83841596Y-60918863D01*
X83841596Y-60918861D01*
X83843123Y-60914272D01*
X83845419Y-60896102D01*
X83859014Y-60788483D01*
X83866780Y-60727005D01*
X83867157Y-60700000D01*
X83853568Y-60561403D01*
X83849210Y-60516955D01*
X83849209Y-60516951D01*
X83848738Y-60512145D01*
X83794181Y-60331445D01*
X83705566Y-60164783D01*
X83586266Y-60018508D01*
X83504671Y-59951007D01*
X83444554Y-59901274D01*
X83444553Y-59901273D01*
X83440827Y-59898191D01*
X83274788Y-59808414D01*
X83094474Y-59752597D01*
X83082524Y-59751341D01*
X82911568Y-59733373D01*
X82911566Y-59733373D01*
X82906752Y-59732867D01*
X82851883Y-59737860D01*
X82723592Y-59749535D01*
X82723588Y-59749536D01*
X82718773Y-59749974D01*
X82648851Y-59770553D01*
X82542344Y-59801900D01*
X82542341Y-59801901D01*
X82537697Y-59803268D01*
X82522611Y-59811155D01*
X82374717Y-59888471D01*
X82374713Y-59888474D01*
X82370420Y-59890718D01*
X82366644Y-59893754D01*
X82366641Y-59893756D01*
X82227088Y-60005960D01*
X82223316Y-60008993D01*
X82220207Y-60012698D01*
X82220204Y-60012701D01*
X82118341Y-60134097D01*
X82101986Y-60153588D01*
X82099650Y-60157836D01*
X82099650Y-60157837D01*
X82022488Y-60298194D01*
X81977886Y-60340078D01*
X81935734Y-60349500D01*
X65797948Y-60349500D01*
X65777112Y-60347282D01*
X65775830Y-60347006D01*
X65766739Y-60345049D01*
X65734929Y-60348814D01*
X65729037Y-60349161D01*
X65729037Y-60349164D01*
X65724970Y-60349500D01*
X65720885Y-60349500D01*
X65716859Y-60350170D01*
X65716848Y-60350171D01*
X65702881Y-60352496D01*
X65698269Y-60353153D01*
X65650861Y-60358764D01*
X65643878Y-60362117D01*
X65642544Y-60362539D01*
X65634897Y-60363812D01*
X65627696Y-60367698D01*
X65627695Y-60367698D01*
X65592861Y-60386494D01*
X65588703Y-60388612D01*
X65551288Y-60406578D01*
X65551287Y-60406579D01*
X65545674Y-60409274D01*
X65541726Y-60412592D01*
X65540216Y-60414102D01*
X65538929Y-60415282D01*
X65537903Y-60416148D01*
X65532206Y-60419222D01*
X65526655Y-60425227D01*
X65526650Y-60425231D01*
X65498191Y-60456018D01*
X65495497Y-60458821D01*
X60633141Y-65321177D01*
X60578624Y-65348954D01*
X60533865Y-65345746D01*
X60394474Y-65302597D01*
X60389660Y-65302091D01*
X60211568Y-65283373D01*
X60211566Y-65283373D01*
X60206752Y-65282867D01*
X60151883Y-65287860D01*
X60023592Y-65299535D01*
X60023588Y-65299536D01*
X60018773Y-65299974D01*
X59952416Y-65319504D01*
X59842344Y-65351900D01*
X59842341Y-65351901D01*
X59837697Y-65353268D01*
X59833403Y-65355513D01*
X59674717Y-65438471D01*
X59674713Y-65438474D01*
X59670420Y-65440718D01*
X59666644Y-65443754D01*
X59666641Y-65443756D01*
X59527088Y-65555960D01*
X59523316Y-65558993D01*
X59520207Y-65562698D01*
X59520204Y-65562701D01*
X59431087Y-65668907D01*
X59401986Y-65703588D01*
X59399650Y-65707836D01*
X59399650Y-65707837D01*
X59349258Y-65799500D01*
X59311052Y-65868996D01*
X59253978Y-66048917D01*
X59247221Y-66109154D01*
X59233693Y-66229758D01*
X59232937Y-66236496D01*
X58490333Y-66236496D01*
X58504817Y-66128663D01*
X58505234Y-66123621D01*
X58509040Y-66002528D01*
X58508941Y-65997481D01*
X58489322Y-65720406D01*
X58488337Y-65713485D01*
X58430080Y-65442894D01*
X58428134Y-65436193D01*
X58332331Y-65176507D01*
X58329454Y-65170135D01*
X58198016Y-64926538D01*
X58194277Y-64920646D01*
X58029829Y-64698002D01*
X58025285Y-64692681D01*
X58017256Y-64684525D01*
X58005418Y-64678376D01*
X58000489Y-64679116D01*
X56690691Y-65988914D01*
X56684637Y-66000797D01*
X56314551Y-66000797D01*
X56315363Y-65999203D01*
X56314567Y-65994172D01*
X55004907Y-64684512D01*
X54993024Y-64678458D01*
X54990907Y-64678793D01*
X54987176Y-64681855D01*
X54840464Y-64867959D01*
X54836541Y-64873731D01*
X54697511Y-65113088D01*
X54694444Y-65119350D01*
X54590526Y-65375910D01*
X54588371Y-65382541D01*
X54521643Y-65651173D01*
X54520441Y-65658061D01*
X54492229Y-65933406D01*
X54492009Y-65940388D01*
X51004898Y-65940388D01*
X50989322Y-65720406D01*
X50988337Y-65713485D01*
X50930080Y-65442894D01*
X50928134Y-65436193D01*
X50832331Y-65176507D01*
X50829454Y-65170135D01*
X50698016Y-64926538D01*
X50694277Y-64920646D01*
X50529829Y-64698002D01*
X50525285Y-64692681D01*
X50517256Y-64684525D01*
X50505418Y-64678376D01*
X50500489Y-64679116D01*
X49369004Y-65810601D01*
X49314487Y-65838378D01*
X49254055Y-65828807D01*
X49210790Y-65785542D01*
X49200000Y-65740597D01*
X49200000Y-65661403D01*
X49218907Y-65603212D01*
X49228996Y-65591399D01*
X50316889Y-64503506D01*
X50320856Y-64495719D01*
X55179423Y-64495719D01*
X55180040Y-64500315D01*
X55180333Y-64500728D01*
X56488914Y-65809309D01*
X56500797Y-65815363D01*
X56505828Y-65814567D01*
X57816889Y-64503506D01*
X57822943Y-64491623D01*
X57822673Y-64489918D01*
X57819132Y-64485671D01*
X57605837Y-64322890D01*
X57599997Y-64319053D01*
X57358491Y-64183803D01*
X57352178Y-64180832D01*
X57094028Y-64080962D01*
X57087351Y-64078907D01*
X56817711Y-64016409D01*
X56810804Y-64015315D01*
X56535046Y-63991431D01*
X56528057Y-63991322D01*
X56251690Y-64006531D01*
X56244759Y-64007407D01*
X55973269Y-64061409D01*
X55966558Y-64063244D01*
X55705383Y-64154963D01*
X55698975Y-64157737D01*
X55453340Y-64285333D01*
X55447394Y-64288976D01*
X55222186Y-64449913D01*
X55216811Y-64454359D01*
X55185754Y-64483985D01*
X55179423Y-64495719D01*
X50320856Y-64495719D01*
X50322943Y-64491623D01*
X50322673Y-64489918D01*
X50319132Y-64485671D01*
X50105837Y-64322890D01*
X50099997Y-64319053D01*
X49858491Y-64183803D01*
X49852178Y-64180832D01*
X49594028Y-64080962D01*
X49587351Y-64078907D01*
X49317711Y-64016409D01*
X49310806Y-64015315D01*
X49290456Y-64013552D01*
X49234114Y-63989693D01*
X49202556Y-63937273D01*
X49200000Y-63914921D01*
X49200000Y-63065624D01*
X49218907Y-63007433D01*
X49268407Y-62971469D01*
X49282745Y-62967968D01*
X49365559Y-62954184D01*
X49372357Y-62952551D01*
X49636274Y-62869086D01*
X49642755Y-62866520D01*
X49892282Y-62746698D01*
X49898346Y-62743239D01*
X50128491Y-62589461D01*
X50134010Y-62585180D01*
X50212834Y-62514580D01*
X50217857Y-62505932D01*
X55179502Y-62505932D01*
X55179902Y-62508461D01*
X55182488Y-62511663D01*
X55342036Y-62641553D01*
X55347739Y-62645562D01*
X55584878Y-62788331D01*
X55591103Y-62791503D01*
X55845987Y-62899433D01*
X55852599Y-62901696D01*
X56120140Y-62972633D01*
X56127007Y-62973944D01*
X56401886Y-63006478D01*
X56408851Y-63006807D01*
X56685577Y-63000284D01*
X56692527Y-62999627D01*
X56965570Y-62954181D01*
X56972357Y-62952551D01*
X57236274Y-62869086D01*
X57242755Y-62866520D01*
X57492282Y-62746698D01*
X57498346Y-62743239D01*
X57728491Y-62589461D01*
X57734010Y-62585180D01*
X57812834Y-62514580D01*
X57819533Y-62503046D01*
X57819146Y-62499261D01*
X57818035Y-62497640D01*
X56511086Y-61190691D01*
X56499203Y-61184637D01*
X56494172Y-61185433D01*
X55185556Y-62494049D01*
X55179502Y-62505932D01*
X50217857Y-62505932D01*
X50219533Y-62503046D01*
X50219146Y-62499261D01*
X50218035Y-62497640D01*
X49228996Y-61508601D01*
X49201219Y-61454084D01*
X49200000Y-61438597D01*
X49200000Y-61359403D01*
X49218907Y-61301212D01*
X49268407Y-61265248D01*
X49329593Y-61265248D01*
X49369004Y-61289399D01*
X50393358Y-62313753D01*
X50405241Y-62319807D01*
X50408180Y-62319342D01*
X50410846Y-62317223D01*
X50523155Y-62183615D01*
X50527264Y-62177959D01*
X50673740Y-61943093D01*
X50677005Y-61936926D01*
X50788924Y-61683769D01*
X50791292Y-61677194D01*
X50866424Y-61410795D01*
X50867841Y-61403954D01*
X50904817Y-61128663D01*
X50905234Y-61123621D01*
X50909040Y-61002528D01*
X50908941Y-60997481D01*
X50904898Y-60940388D01*
X54492009Y-60940388D01*
X54502877Y-61216971D01*
X54503644Y-61223916D01*
X54553372Y-61496205D01*
X54555109Y-61502970D01*
X54642705Y-61765527D01*
X54645383Y-61771993D01*
X54769105Y-62019598D01*
X54772656Y-62025602D01*
X54930035Y-62253312D01*
X54934394Y-62258754D01*
X54984874Y-62313362D01*
X54996512Y-62319880D01*
X55000704Y-62319384D01*
X55001718Y-62318677D01*
X56309309Y-61011086D01*
X56314551Y-61000797D01*
X56684637Y-61000797D01*
X56685433Y-61005828D01*
X57993358Y-62313753D01*
X58005241Y-62319807D01*
X58008180Y-62319342D01*
X58010846Y-62317223D01*
X58123155Y-62183615D01*
X58127264Y-62177959D01*
X58273740Y-61943093D01*
X58277005Y-61936926D01*
X58388924Y-61683769D01*
X58391292Y-61677194D01*
X58425995Y-61554147D01*
X59581287Y-61554147D01*
X59581777Y-61557246D01*
X59583713Y-61559698D01*
X59613662Y-61585186D01*
X59621576Y-61590687D01*
X59787053Y-61683168D01*
X59795875Y-61687023D01*
X59976168Y-61745604D01*
X59985581Y-61747673D01*
X60173818Y-61770119D01*
X60183445Y-61770321D01*
X60372452Y-61755777D01*
X60381943Y-61754104D01*
X60564527Y-61703125D01*
X60573507Y-61699643D01*
X60742713Y-61614171D01*
X60750851Y-61609006D01*
X60810661Y-61562277D01*
X60818121Y-61551219D01*
X60818050Y-61549191D01*
X60815354Y-61544959D01*
X60211086Y-60940691D01*
X60199203Y-60934637D01*
X60194172Y-60935433D01*
X59587341Y-61542264D01*
X59581287Y-61554147D01*
X58425995Y-61554147D01*
X58466424Y-61410795D01*
X58467841Y-61403954D01*
X58504817Y-61128663D01*
X58505234Y-61123621D01*
X58509040Y-61002528D01*
X58508941Y-60997481D01*
X58490749Y-60740566D01*
X59179589Y-60740566D01*
X59195451Y-60929476D01*
X59197189Y-60938944D01*
X59249440Y-61121166D01*
X59252991Y-61130134D01*
X59339639Y-61298734D01*
X59344859Y-61306833D01*
X59387602Y-61360762D01*
X59398714Y-61368145D01*
X59400924Y-61368052D01*
X59404886Y-61365509D01*
X60009309Y-60761086D01*
X60014551Y-60750797D01*
X60384637Y-60750797D01*
X60385433Y-60755828D01*
X60992508Y-61362903D01*
X61004391Y-61368957D01*
X61007673Y-61368438D01*
X61009879Y-61366708D01*
X61031071Y-61342155D01*
X61036629Y-61334277D01*
X61130264Y-61169450D01*
X61134180Y-61160655D01*
X61194019Y-60980773D01*
X61196153Y-60971379D01*
X61220170Y-60781259D01*
X61220557Y-60775732D01*
X61220877Y-60752759D01*
X61220647Y-60747262D01*
X61201945Y-60556513D01*
X61200076Y-60547075D01*
X61145282Y-60365591D01*
X61141612Y-60356687D01*
X61052616Y-60189308D01*
X61047284Y-60181283D01*
X61012739Y-60138927D01*
X61001528Y-60131702D01*
X60998946Y-60131847D01*
X60995534Y-60134071D01*
X60390691Y-60738914D01*
X60384637Y-60750797D01*
X60014551Y-60750797D01*
X60015363Y-60749203D01*
X60014567Y-60744172D01*
X59407944Y-60137549D01*
X59396061Y-60131495D01*
X59393143Y-60131957D01*
X59390452Y-60134097D01*
X59360737Y-60169510D01*
X59355296Y-60177458D01*
X59263975Y-60343571D01*
X59260175Y-60352435D01*
X59202857Y-60533125D01*
X59200853Y-60542553D01*
X59179723Y-60730938D01*
X59179589Y-60740566D01*
X58490749Y-60740566D01*
X58489322Y-60720406D01*
X58488337Y-60713485D01*
X58430080Y-60442894D01*
X58428134Y-60436193D01*
X58332331Y-60176507D01*
X58329454Y-60170135D01*
X58209925Y-59948610D01*
X59581796Y-59948610D01*
X59581914Y-59951007D01*
X59584299Y-59954694D01*
X60188914Y-60559309D01*
X60200797Y-60565363D01*
X60205828Y-60564567D01*
X60812277Y-59958118D01*
X60818331Y-59946235D01*
X60817898Y-59943500D01*
X60815550Y-59940569D01*
X60774616Y-59906705D01*
X60766633Y-59901321D01*
X60599875Y-59811155D01*
X60591004Y-59807426D01*
X60409905Y-59751366D01*
X60400473Y-59749430D01*
X60211943Y-59729615D01*
X60202305Y-59729548D01*
X60013518Y-59746728D01*
X60004055Y-59748534D01*
X59822205Y-59802055D01*
X59813264Y-59805668D01*
X59645281Y-59893487D01*
X59637205Y-59898772D01*
X59589099Y-59937451D01*
X59581796Y-59948610D01*
X58209925Y-59948610D01*
X58198016Y-59926538D01*
X58194277Y-59920646D01*
X58029829Y-59698002D01*
X58025285Y-59692681D01*
X58017256Y-59684525D01*
X58005418Y-59678376D01*
X58000489Y-59679116D01*
X56690691Y-60988914D01*
X56684637Y-61000797D01*
X56314551Y-61000797D01*
X56315363Y-60999203D01*
X56314567Y-60994172D01*
X55004907Y-59684512D01*
X54993024Y-59678458D01*
X54990907Y-59678793D01*
X54987176Y-59681855D01*
X54840464Y-59867959D01*
X54836541Y-59873731D01*
X54697511Y-60113088D01*
X54694444Y-60119350D01*
X54590526Y-60375910D01*
X54588371Y-60382541D01*
X54521643Y-60651173D01*
X54520441Y-60658061D01*
X54492229Y-60933406D01*
X54492009Y-60940388D01*
X50904898Y-60940388D01*
X50889322Y-60720406D01*
X50888337Y-60713485D01*
X50830080Y-60442894D01*
X50828134Y-60436193D01*
X50732331Y-60176507D01*
X50729454Y-60170135D01*
X50598016Y-59926538D01*
X50594277Y-59920646D01*
X50429829Y-59698002D01*
X50425285Y-59692681D01*
X50417256Y-59684525D01*
X50405418Y-59678376D01*
X50400489Y-59679116D01*
X49369004Y-60710601D01*
X49314487Y-60738378D01*
X49254055Y-60728807D01*
X49210790Y-60685542D01*
X49200000Y-60640597D01*
X49200000Y-60561403D01*
X49218907Y-60503212D01*
X49228996Y-60491399D01*
X50216889Y-59503506D01*
X50220856Y-59495719D01*
X55179423Y-59495719D01*
X55180040Y-59500315D01*
X55180333Y-59500728D01*
X56488914Y-60809309D01*
X56500797Y-60815363D01*
X56505828Y-60814567D01*
X57816889Y-59503506D01*
X57822943Y-59491623D01*
X57822673Y-59489918D01*
X57819132Y-59485671D01*
X57605837Y-59322890D01*
X57599997Y-59319053D01*
X57358491Y-59183803D01*
X57352178Y-59180832D01*
X57094028Y-59080962D01*
X57087351Y-59078907D01*
X56817711Y-59016409D01*
X56810804Y-59015315D01*
X56535046Y-58991431D01*
X56528057Y-58991322D01*
X56251690Y-59006531D01*
X56244759Y-59007407D01*
X55973269Y-59061409D01*
X55966558Y-59063244D01*
X55705383Y-59154963D01*
X55698975Y-59157737D01*
X55453340Y-59285333D01*
X55447394Y-59288976D01*
X55222186Y-59449913D01*
X55216811Y-59454359D01*
X55185754Y-59483985D01*
X55179423Y-59495719D01*
X50220856Y-59495719D01*
X50222943Y-59491623D01*
X50222673Y-59489918D01*
X50219132Y-59485671D01*
X50005837Y-59322890D01*
X49999997Y-59319053D01*
X49758491Y-59183803D01*
X49752178Y-59180832D01*
X49494028Y-59080962D01*
X49487351Y-59078907D01*
X49276646Y-59030069D01*
X49224227Y-58998511D01*
X49200369Y-58942169D01*
X49200000Y-58933626D01*
X49200000Y-56512395D01*
X49200340Y-56504200D01*
X49205505Y-56442010D01*
X49267135Y-55700000D01*
X58700000Y-55700000D01*
X60750000Y-55700000D01*
X60766183Y-55085044D01*
X60774588Y-54765674D01*
X60774588Y-54765673D01*
X60775000Y-54750000D01*
X58725000Y-54750000D01*
X58724775Y-54758553D01*
X58715062Y-55127663D01*
X58700000Y-55700000D01*
X49267135Y-55700000D01*
X49698773Y-50503178D01*
X49702766Y-50483905D01*
X49703003Y-50481580D01*
X49706570Y-50471017D01*
X49705204Y-50459954D01*
X49705251Y-50459492D01*
X49707741Y-50445334D01*
X49719390Y-50399091D01*
X49730530Y-50372288D01*
X49760715Y-50322048D01*
X49779145Y-50299632D01*
X49809964Y-50271740D01*
X49822601Y-50260304D01*
X49846741Y-50244195D01*
X49899734Y-50219160D01*
X49927508Y-50210744D01*
X49974939Y-50203715D01*
X49988984Y-50202692D01*
X49999642Y-50205143D01*
X50011583Y-50202441D01*
X50033432Y-50200000D01*
X61104831Y-50200000D01*
X61163022Y-50218907D01*
G37*
%TD.AperFunction*%
%TD*%
M02*
