%TF.GenerationSoftware,KiCad,Pcbnew,(5.1.12)-1*%
%TF.CreationDate,2021-11-29T20:05:01-07:00*%
%TF.ProjectId,SolarGPS,536f6c61-7247-4505-932e-6b696361645f,rev?*%
%TF.SameCoordinates,Original*%
%TF.FileFunction,Legend,Top*%
%TF.FilePolarity,Positive*%
%FSLAX46Y46*%
G04 Gerber Fmt 4.6, Leading zero omitted, Abs format (unit mm)*
G04 Created by KiCad (PCBNEW (5.1.12)-1) date 2021-11-29 20:05:01*
%MOMM*%
%LPD*%
G01*
G04 APERTURE LIST*
%ADD10C,0.150000*%
%ADD11C,0.120000*%
%ADD12C,0.250000*%
%ADD13C,0.200000*%
%ADD14C,0.127000*%
G04 APERTURE END LIST*
D10*
X97450000Y-58950000D02*
X88400000Y-58950000D01*
X97450000Y-58950000D02*
X97450000Y-61950000D01*
X97450000Y-68000000D02*
X88400000Y-68000000D01*
X97450000Y-65000000D02*
X97450000Y-68000000D01*
X101950000Y-62000000D02*
X97450000Y-62000000D01*
X101950000Y-65000000D02*
X97450000Y-65000000D01*
X110752380Y-66308333D02*
X109752380Y-66308333D01*
X110228571Y-66308333D02*
X110228571Y-65736904D01*
X110752380Y-65736904D02*
X109752380Y-65736904D01*
X110704761Y-64879761D02*
X110752380Y-64975000D01*
X110752380Y-65165476D01*
X110704761Y-65260714D01*
X110609523Y-65308333D01*
X110228571Y-65308333D01*
X110133333Y-65260714D01*
X110085714Y-65165476D01*
X110085714Y-64975000D01*
X110133333Y-64879761D01*
X110228571Y-64832142D01*
X110323809Y-64832142D01*
X110419047Y-65308333D01*
X110752380Y-64260714D02*
X110704761Y-64355952D01*
X110609523Y-64403571D01*
X109752380Y-64403571D01*
X110752380Y-63879761D02*
X110085714Y-63879761D01*
X109752380Y-63879761D02*
X109800000Y-63927380D01*
X109847619Y-63879761D01*
X109800000Y-63832142D01*
X109752380Y-63879761D01*
X109847619Y-63879761D01*
X110704761Y-62975000D02*
X110752380Y-63070238D01*
X110752380Y-63260714D01*
X110704761Y-63355952D01*
X110657142Y-63403571D01*
X110561904Y-63451190D01*
X110276190Y-63451190D01*
X110180952Y-63403571D01*
X110133333Y-63355952D01*
X110085714Y-63260714D01*
X110085714Y-63070238D01*
X110133333Y-62975000D01*
X110752380Y-62403571D02*
X110704761Y-62498809D01*
X110657142Y-62546428D01*
X110561904Y-62594047D01*
X110276190Y-62594047D01*
X110180952Y-62546428D01*
X110133333Y-62498809D01*
X110085714Y-62403571D01*
X110085714Y-62260714D01*
X110133333Y-62165476D01*
X110180952Y-62117857D01*
X110276190Y-62070238D01*
X110561904Y-62070238D01*
X110657142Y-62117857D01*
X110704761Y-62165476D01*
X110752380Y-62260714D01*
X110752380Y-62403571D01*
X110752380Y-61641666D02*
X110085714Y-61641666D01*
X110276190Y-61641666D02*
X110180952Y-61594047D01*
X110133333Y-61546428D01*
X110085714Y-61451190D01*
X110085714Y-61355952D01*
X110704761Y-60641666D02*
X110752380Y-60736904D01*
X110752380Y-60927380D01*
X110704761Y-61022619D01*
X110609523Y-61070238D01*
X110228571Y-61070238D01*
X110133333Y-61022619D01*
X110085714Y-60927380D01*
X110085714Y-60736904D01*
X110133333Y-60641666D01*
X110228571Y-60594047D01*
X110323809Y-60594047D01*
X110419047Y-61070238D01*
X111402380Y-67522619D02*
X111402380Y-66951190D01*
X112402380Y-67236904D02*
X111402380Y-67236904D01*
X112354761Y-66236904D02*
X112402380Y-66332142D01*
X112402380Y-66522619D01*
X112354761Y-66617857D01*
X112259523Y-66665476D01*
X111878571Y-66665476D01*
X111783333Y-66617857D01*
X111735714Y-66522619D01*
X111735714Y-66332142D01*
X111783333Y-66236904D01*
X111878571Y-66189285D01*
X111973809Y-66189285D01*
X112069047Y-66665476D01*
X112354761Y-65332142D02*
X112402380Y-65427380D01*
X112402380Y-65617857D01*
X112354761Y-65713095D01*
X112307142Y-65760714D01*
X112211904Y-65808333D01*
X111926190Y-65808333D01*
X111830952Y-65760714D01*
X111783333Y-65713095D01*
X111735714Y-65617857D01*
X111735714Y-65427380D01*
X111783333Y-65332142D01*
X112402380Y-64903571D02*
X111402380Y-64903571D01*
X112402380Y-64474999D02*
X111878571Y-64474999D01*
X111783333Y-64522619D01*
X111735714Y-64617857D01*
X111735714Y-64760714D01*
X111783333Y-64855952D01*
X111830952Y-64903571D01*
X111735714Y-63998809D02*
X112402380Y-63998809D01*
X111830952Y-63998809D02*
X111783333Y-63951190D01*
X111735714Y-63855952D01*
X111735714Y-63713095D01*
X111783333Y-63617857D01*
X111878571Y-63570238D01*
X112402380Y-63570238D01*
X112402380Y-62951190D02*
X112354761Y-63046428D01*
X112307142Y-63094047D01*
X112211904Y-63141666D01*
X111926190Y-63141666D01*
X111830952Y-63094047D01*
X111783333Y-63046428D01*
X111735714Y-62951190D01*
X111735714Y-62808333D01*
X111783333Y-62713095D01*
X111830952Y-62665476D01*
X111926190Y-62617857D01*
X112211904Y-62617857D01*
X112307142Y-62665476D01*
X112354761Y-62713095D01*
X112402380Y-62808333D01*
X112402380Y-62951190D01*
X112402380Y-62046428D02*
X112354761Y-62141666D01*
X112259523Y-62189285D01*
X111402380Y-62189285D01*
X112402380Y-61522619D02*
X112354761Y-61617857D01*
X112307142Y-61665476D01*
X112211904Y-61713095D01*
X111926190Y-61713095D01*
X111830952Y-61665476D01*
X111783333Y-61617857D01*
X111735714Y-61522619D01*
X111735714Y-61379761D01*
X111783333Y-61284523D01*
X111830952Y-61236904D01*
X111926190Y-61189285D01*
X112211904Y-61189285D01*
X112307142Y-61236904D01*
X112354761Y-61284523D01*
X112402380Y-61379761D01*
X112402380Y-61522619D01*
X111735714Y-60332142D02*
X112545238Y-60332142D01*
X112640476Y-60379761D01*
X112688095Y-60427380D01*
X112735714Y-60522619D01*
X112735714Y-60665476D01*
X112688095Y-60760714D01*
X112354761Y-60332142D02*
X112402380Y-60427380D01*
X112402380Y-60617857D01*
X112354761Y-60713095D01*
X112307142Y-60760714D01*
X112211904Y-60808333D01*
X111926190Y-60808333D01*
X111830952Y-60760714D01*
X111783333Y-60713095D01*
X111735714Y-60617857D01*
X111735714Y-60427380D01*
X111783333Y-60332142D01*
X111735714Y-59951190D02*
X112402380Y-59713095D01*
X111735714Y-59474999D02*
X112402380Y-59713095D01*
X112640476Y-59808333D01*
X112688095Y-59855952D01*
X112735714Y-59951190D01*
D11*
X58000000Y-50000000D02*
X58000000Y-77000000D01*
D10*
X90301190Y-74777380D02*
X90634523Y-75777380D01*
X90967857Y-74777380D01*
X91825000Y-75777380D02*
X91253571Y-75777380D01*
X91539285Y-75777380D02*
X91539285Y-74777380D01*
X91444047Y-74920238D01*
X91348809Y-75015476D01*
X91253571Y-75063095D01*
X92253571Y-75682142D02*
X92301190Y-75729761D01*
X92253571Y-75777380D01*
X92205952Y-75729761D01*
X92253571Y-75682142D01*
X92253571Y-75777380D01*
X92920238Y-74777380D02*
X93015476Y-74777380D01*
X93110714Y-74825000D01*
X93158333Y-74872619D01*
X93205952Y-74967857D01*
X93253571Y-75158333D01*
X93253571Y-75396428D01*
X93205952Y-75586904D01*
X93158333Y-75682142D01*
X93110714Y-75729761D01*
X93015476Y-75777380D01*
X92920238Y-75777380D01*
X92825000Y-75729761D01*
X92777380Y-75682142D01*
X92729761Y-75586904D01*
X92682142Y-75396428D01*
X92682142Y-75158333D01*
X92729761Y-74967857D01*
X92777380Y-74872619D01*
X92825000Y-74825000D01*
X92920238Y-74777380D01*
X89991143Y-66565597D02*
X90119448Y-66486771D01*
X90272493Y-66304380D01*
X90297232Y-66200814D01*
X90291363Y-66133727D01*
X90249015Y-66036031D01*
X90176058Y-65974813D01*
X90072493Y-65950073D01*
X90005406Y-65955943D01*
X89907710Y-65998290D01*
X89748795Y-66113595D01*
X89651099Y-66155942D01*
X89584012Y-66161812D01*
X89480447Y-66137072D01*
X89407490Y-66075854D01*
X89365142Y-65978158D01*
X89359273Y-65911071D01*
X89384012Y-65807505D01*
X89537057Y-65625114D01*
X89665362Y-65546288D01*
X90420930Y-65682986D02*
X90727019Y-65318203D01*
X90578582Y-65939597D02*
X90026800Y-65041461D01*
X91007107Y-65428900D01*
X91154282Y-65179421D02*
X91282587Y-65100595D01*
X91435632Y-64918204D01*
X91460372Y-64814638D01*
X91454502Y-64747551D01*
X91412155Y-64649855D01*
X91339198Y-64588637D01*
X91235632Y-64563898D01*
X91168545Y-64569767D01*
X91070849Y-64612115D01*
X90911935Y-64727419D01*
X90814239Y-64769767D01*
X90747152Y-64775636D01*
X90643586Y-64750896D01*
X90570629Y-64689679D01*
X90528282Y-64591982D01*
X90522412Y-64524895D01*
X90547152Y-64421330D01*
X90700197Y-64238938D01*
X90828502Y-64160112D01*
X92335030Y-63994508D02*
X92237334Y-64036855D01*
X92103159Y-64048594D01*
X91901898Y-64066202D01*
X91804201Y-64108550D01*
X91742983Y-64181506D01*
X91955984Y-64298073D02*
X91858288Y-64340420D01*
X91724113Y-64352159D01*
X91547591Y-64266202D01*
X91292243Y-64051939D01*
X91176939Y-63893025D01*
X91165200Y-63758851D01*
X91189939Y-63655285D01*
X91312375Y-63509372D01*
X91410071Y-63467024D01*
X91544246Y-63455285D01*
X91720768Y-63541243D01*
X91976116Y-63755505D01*
X92091420Y-63914419D01*
X92103159Y-64048594D01*
X92078420Y-64152160D01*
X91955984Y-64298073D01*
X91740900Y-62998676D02*
X92361032Y-63519027D01*
X92464597Y-63543767D01*
X92531684Y-63537898D01*
X92629380Y-63495550D01*
X92751816Y-63349637D01*
X92776556Y-63246071D01*
X92770686Y-63178984D01*
X92728339Y-63081288D01*
X92108208Y-62560936D01*
X92930863Y-62691765D02*
X93236952Y-62326982D01*
X93088514Y-62948375D02*
X92536733Y-62050240D01*
X93517040Y-62437679D01*
X92873431Y-61648978D02*
X93240738Y-61211239D01*
X93823129Y-62072896D02*
X93057084Y-61430108D01*
X94515396Y-61099720D02*
X94521265Y-61166808D01*
X94465917Y-61306852D01*
X94404699Y-61379808D01*
X94276394Y-61458634D01*
X94142219Y-61470373D01*
X94038654Y-61445633D01*
X93862131Y-61359676D01*
X93752696Y-61267849D01*
X93637392Y-61108935D01*
X93595044Y-61011239D01*
X93583306Y-60877064D01*
X93638654Y-60737021D01*
X93699872Y-60664064D01*
X93828177Y-60585238D01*
X93895264Y-60579369D01*
X94863833Y-60832634D02*
X94097788Y-60189846D01*
X94462571Y-60495935D02*
X94829878Y-60058196D01*
X95231140Y-60394894D02*
X94465095Y-59752106D01*
X91440031Y-67035413D02*
X91746121Y-66670630D01*
X91597683Y-67292023D02*
X91045902Y-66393887D01*
X92026209Y-66781327D01*
X92240471Y-66525979D02*
X91474427Y-65883191D01*
X91719298Y-65591364D01*
X91816994Y-65549017D01*
X91884081Y-65543147D01*
X91987647Y-65567887D01*
X92097082Y-65659714D01*
X92139430Y-65757410D01*
X92145299Y-65824497D01*
X92120559Y-65928063D01*
X91875688Y-66219889D01*
X92883259Y-65759934D02*
X92117214Y-65117146D01*
X92362086Y-64825320D01*
X92459782Y-64782972D01*
X92526869Y-64777103D01*
X92630435Y-64801843D01*
X92739870Y-64893669D01*
X92782217Y-64991366D01*
X92788087Y-65058453D01*
X92763347Y-65162018D01*
X92518476Y-65453845D01*
X93893353Y-64556150D02*
X93314308Y-64505409D01*
X93526046Y-64993890D02*
X92760002Y-64351102D01*
X93004873Y-64059276D01*
X93102569Y-64016928D01*
X93169657Y-64011059D01*
X93273222Y-64035798D01*
X93382657Y-64127625D01*
X93425005Y-64225321D01*
X93430874Y-64292408D01*
X93406135Y-64395974D01*
X93161263Y-64687800D01*
X93525225Y-63439144D02*
X93647661Y-63293231D01*
X93745357Y-63250883D01*
X93879532Y-63239145D01*
X94056054Y-63325102D01*
X94311402Y-63539365D01*
X94426706Y-63698279D01*
X94438445Y-63832453D01*
X94413705Y-63936019D01*
X94291270Y-64081932D01*
X94193573Y-64124280D01*
X94059399Y-64136018D01*
X93882877Y-64050061D01*
X93627529Y-63835798D01*
X93512224Y-63676884D01*
X93500486Y-63542710D01*
X93525225Y-63439144D01*
X93984359Y-62891970D02*
X94964666Y-63279409D01*
X94412884Y-62381273D01*
X94991930Y-62432015D02*
X95206192Y-62176667D01*
X95699281Y-62403930D02*
X95393191Y-62768713D01*
X94627147Y-62125925D01*
X94933236Y-61761142D01*
X95974761Y-62075625D02*
X95208717Y-61432838D01*
X95361761Y-61250446D01*
X95490066Y-61171620D01*
X95624241Y-61159881D01*
X95727806Y-61184621D01*
X95904328Y-61270578D01*
X96013763Y-61362405D01*
X96129068Y-61521319D01*
X96171415Y-61619015D01*
X96183154Y-61753190D01*
X96127806Y-61893234D01*
X95974761Y-62075625D01*
X96544592Y-61248363D02*
X96611679Y-61242493D01*
X96617549Y-61309581D01*
X96550461Y-61315450D01*
X96544592Y-61248363D01*
X96617549Y-61309581D01*
X96325722Y-61064709D02*
X95857374Y-60733880D01*
X95851504Y-60666793D01*
X95918591Y-60660924D01*
X96325722Y-61064709D01*
X95851504Y-60666793D01*
X51746763Y-60212956D02*
X51705261Y-59738578D01*
X52701455Y-59651422D01*
X51775815Y-60545021D02*
X52772010Y-60457866D01*
X52801062Y-60789930D02*
X52850865Y-61359185D01*
X51829769Y-61161713D02*
X52825964Y-61074557D01*
X51883722Y-61778405D02*
X52879917Y-61691249D01*
X52405539Y-61732752D02*
X52455342Y-62302006D01*
X51933526Y-62347659D02*
X52929720Y-62260504D01*
X51975029Y-62822038D02*
X52971223Y-62734882D01*
X53012726Y-63209260D02*
X52206283Y-63279815D01*
X52115557Y-63335553D01*
X52072270Y-63387142D01*
X52033132Y-63486168D01*
X52049733Y-63675919D01*
X52105472Y-63766644D01*
X52157060Y-63809932D01*
X52256086Y-63849069D01*
X53062529Y-63778514D01*
X52107837Y-64340049D02*
X53104032Y-64252893D01*
X52421516Y-64647212D01*
X53162136Y-64917023D01*
X52165941Y-65004178D01*
X52824716Y-66523974D02*
X52795664Y-66191909D01*
X52273848Y-66237562D02*
X53270043Y-66150407D01*
X53311546Y-66624785D01*
X52398356Y-67660698D02*
X52843683Y-67287130D01*
X52348553Y-67091444D02*
X53344748Y-67004288D01*
X53377950Y-67383791D01*
X53338813Y-67482817D01*
X53295525Y-67534405D01*
X53204800Y-67590143D01*
X53062486Y-67602594D01*
X52963460Y-67563457D01*
X52911872Y-67520169D01*
X52856134Y-67429444D01*
X52822932Y-67049941D01*
X52957525Y-68041985D02*
X52986577Y-68374050D01*
X52477212Y-68562017D02*
X52435709Y-68087638D01*
X53431904Y-68000483D01*
X53473406Y-68474861D01*
X53036380Y-68943304D02*
X53065432Y-69275369D01*
X52556067Y-69463336D02*
X52514564Y-68988957D01*
X53510759Y-68901802D01*
X53552261Y-69376180D01*
X52688295Y-69881976D02*
X52645007Y-69933564D01*
X52593419Y-69890276D01*
X52636707Y-69838688D01*
X52688295Y-69881976D01*
X52593419Y-69890276D01*
X52972922Y-69857074D02*
X53538026Y-69759833D01*
X53589614Y-69803121D01*
X53546326Y-69854709D01*
X52972922Y-69857074D01*
X53589614Y-69803121D01*
X49803329Y-70240382D02*
X50189001Y-69780755D01*
X50364097Y-69927678D01*
X50389506Y-69986296D01*
X50393027Y-70026548D01*
X50378184Y-70088687D01*
X50323087Y-70154348D01*
X50264470Y-70179757D01*
X50224217Y-70183278D01*
X50162078Y-70168435D01*
X49986982Y-70021512D01*
X50736176Y-70239889D02*
X50823724Y-70313350D01*
X50849132Y-70371968D01*
X50856176Y-70452473D01*
X50804601Y-70558386D01*
X50676044Y-70711595D01*
X50580695Y-70780778D01*
X50500190Y-70787821D01*
X50438051Y-70772977D01*
X50350503Y-70699516D01*
X50325095Y-70640898D01*
X50318051Y-70560393D01*
X50369626Y-70454480D01*
X50498183Y-70301271D01*
X50593532Y-70232088D01*
X50674036Y-70225045D01*
X50736176Y-70239889D01*
X51086367Y-70533735D02*
X50810130Y-71085188D01*
X51173158Y-70830345D01*
X50985226Y-71232111D01*
X51480333Y-70864311D01*
X51471775Y-71230104D02*
X51624984Y-71358661D01*
X51488626Y-71654514D02*
X51269757Y-71470861D01*
X51655429Y-71011234D01*
X51874299Y-71194888D01*
X51948253Y-72040187D02*
X51978698Y-71692760D01*
X51685609Y-71819803D02*
X52071282Y-71360176D01*
X52246378Y-71507099D01*
X52271786Y-71565717D01*
X52275308Y-71605969D01*
X52260464Y-71668108D01*
X52205368Y-71733769D01*
X52146750Y-71759178D01*
X52106498Y-71762699D01*
X52044359Y-71747856D01*
X51869263Y-71600933D01*
X52850655Y-72387122D02*
X52897951Y-72464105D01*
X52901473Y-72504357D01*
X52886629Y-72566496D01*
X52831533Y-72632157D01*
X52772915Y-72657566D01*
X52732663Y-72661088D01*
X52670523Y-72646244D01*
X52495428Y-72499321D01*
X52881100Y-72039694D01*
X53034309Y-72168252D01*
X53059718Y-72226869D01*
X53063239Y-72267122D01*
X53048396Y-72329261D01*
X53011665Y-72373035D01*
X52953047Y-72398444D01*
X52912795Y-72401965D01*
X52850655Y-72387122D01*
X52697447Y-72258564D01*
X53226256Y-72739585D02*
X53042602Y-72958455D01*
X53275066Y-72370271D02*
X53226256Y-72739585D01*
X53581484Y-72627386D01*
X54019223Y-72994693D02*
X54281867Y-73215077D01*
X53764873Y-73564512D02*
X54150545Y-73104885D01*
X54049403Y-73803261D02*
X54435076Y-73343635D01*
X54251422Y-73562505D02*
X54514066Y-73782889D01*
X54312047Y-74023646D02*
X54697720Y-73564019D01*
X54732936Y-73966543D02*
X54886145Y-74095100D01*
X54749787Y-74390953D02*
X54530917Y-74207299D01*
X54916590Y-73747673D01*
X55135460Y-73931326D01*
X55293440Y-74809835D02*
X55340736Y-74886818D01*
X55450170Y-74978645D01*
X55512310Y-74993488D01*
X55552562Y-74989967D01*
X55611180Y-74964558D01*
X55647911Y-74920784D01*
X55662754Y-74858645D01*
X55659233Y-74818392D01*
X55633824Y-74759775D01*
X55564642Y-74664426D01*
X55539233Y-74605809D01*
X55535711Y-74565556D01*
X55550555Y-74503417D01*
X55587286Y-74459643D01*
X55645903Y-74434234D01*
X55686156Y-74430713D01*
X55748295Y-74445556D01*
X55857730Y-74537383D01*
X55905026Y-74614366D01*
X56120374Y-74757768D02*
X55808163Y-75129846D01*
X55793319Y-75191986D01*
X55796841Y-75232238D01*
X55822249Y-75290856D01*
X55909797Y-75364317D01*
X55971936Y-75379161D01*
X56012189Y-75375639D01*
X56070807Y-75350231D01*
X56383018Y-74978152D01*
X56216215Y-75621432D02*
X56601887Y-75161806D01*
X56478859Y-75841816D01*
X56864531Y-75382190D01*
X56734459Y-75981696D02*
X56737981Y-76021948D01*
X56697729Y-76025470D01*
X56694207Y-75985218D01*
X56734459Y-75981696D01*
X56697729Y-76025470D01*
X56844651Y-75850374D02*
X57043149Y-75569365D01*
X57083401Y-75565843D01*
X57086923Y-75606096D01*
X56844651Y-75850374D01*
X57083401Y-75565843D01*
D12*
X98405649Y-66655509D02*
X98194324Y-67688201D01*
X98982999Y-66988843D01*
X99033579Y-67567902D02*
X99322254Y-67734569D01*
X99184067Y-68259630D02*
X98771674Y-68021535D01*
X99271674Y-67155509D01*
X99684067Y-67393605D01*
X100050092Y-68759630D02*
X99999513Y-68180570D01*
X99555221Y-68473916D02*
X100055221Y-67607890D01*
X100385135Y-67798367D01*
X100443804Y-67887225D01*
X100461234Y-67952274D01*
X100454854Y-68058562D01*
X100383426Y-68182280D01*
X100294567Y-68240949D01*
X100229519Y-68258379D01*
X100123230Y-68251999D01*
X99793316Y-68061523D01*
X100421246Y-68973916D02*
X100921246Y-68107890D01*
X100833639Y-69212011D02*
X101333639Y-68345986D01*
X101539836Y-68465033D01*
X101639744Y-68577701D01*
X101674604Y-68707799D01*
X101668224Y-68814087D01*
X101614225Y-69002854D01*
X101542797Y-69126572D01*
X101406319Y-69267719D01*
X101317461Y-69326388D01*
X101187363Y-69361248D01*
X101039836Y-69331059D01*
X100833639Y-69212011D01*
X101699665Y-69712011D02*
X102199665Y-68845986D01*
X102213676Y-69678861D02*
X102626069Y-69916956D01*
X101988340Y-69878678D02*
X102777015Y-69179319D01*
X102565690Y-70212011D01*
X102854365Y-70378678D02*
X103354365Y-69512652D01*
X103349237Y-70664392D01*
X103849237Y-69798367D01*
X104421459Y-71283440D02*
X104921459Y-70417414D01*
X104683364Y-70829807D02*
X105178235Y-71115521D01*
X104916330Y-71569154D02*
X105416330Y-70703128D01*
X105590628Y-71353617D02*
X105879303Y-71520283D01*
X105741117Y-72045344D02*
X105328723Y-71807249D01*
X105828723Y-70941224D01*
X106241117Y-71179319D01*
X106524663Y-72497725D02*
X106112270Y-72259630D01*
X106612270Y-71393605D01*
X106813338Y-72664392D02*
X107313338Y-71798367D01*
X107890689Y-72131700D02*
X108055646Y-72226938D01*
X108114315Y-72315796D01*
X108149175Y-72445894D01*
X108095176Y-72634661D01*
X107928509Y-72923336D01*
X107792032Y-73064484D01*
X107661934Y-73099343D01*
X107555646Y-73092963D01*
X107390689Y-72997725D01*
X107332020Y-72908867D01*
X107297160Y-72778769D01*
X107351159Y-72590003D01*
X107517826Y-72301327D01*
X107654303Y-72160180D01*
X107784401Y-72125320D01*
X107890689Y-72131700D01*
X109062819Y-72863415D02*
X109004150Y-72774557D01*
X108880432Y-72703128D01*
X108732905Y-72672939D01*
X108602807Y-72707799D01*
X108513949Y-72766468D01*
X108377471Y-72907616D01*
X108306043Y-73031333D01*
X108252044Y-73220100D01*
X108245664Y-73326388D01*
X108280524Y-73456486D01*
X108380432Y-73569154D01*
X108462911Y-73616773D01*
X108610438Y-73646962D01*
X108675487Y-73629532D01*
X108842154Y-73340857D01*
X108677196Y-73245619D01*
X109493893Y-74212011D02*
X109443313Y-73632951D01*
X108999022Y-73926297D02*
X109499022Y-73060271D01*
X109828936Y-73250747D01*
X109887605Y-73339606D01*
X109905035Y-73404655D01*
X109898655Y-73510943D01*
X109827227Y-73634661D01*
X109738368Y-73693330D01*
X109673319Y-73710760D01*
X109567031Y-73704380D01*
X109237117Y-73513904D01*
X109966665Y-74155051D02*
X110379058Y-74393147D01*
X109741329Y-74354868D02*
X110530004Y-73655509D01*
X110318679Y-74688201D01*
X110607354Y-74854868D02*
X111107354Y-73988843D01*
X111437269Y-74179319D01*
X111495938Y-74268177D01*
X111513368Y-74333226D01*
X111506988Y-74439514D01*
X111435559Y-74563232D01*
X111346701Y-74621901D01*
X111281652Y-74639331D01*
X111175364Y-74632951D01*
X110845450Y-74442475D01*
X111473380Y-75354868D02*
X111973380Y-74488843D01*
X111735285Y-74901236D02*
X112230156Y-75186950D01*
X111968252Y-75640582D02*
X112468252Y-74774557D01*
D11*
X88300000Y-50000000D02*
X88300000Y-77000000D01*
%TO.C,U6*%
X96785000Y-71810000D02*
X97460000Y-71810000D01*
X94240000Y-68590000D02*
X94240000Y-68765000D01*
X94915000Y-68590000D02*
X94240000Y-68590000D01*
X97460000Y-68590000D02*
X97460000Y-68765000D01*
X96785000Y-68590000D02*
X97460000Y-68590000D01*
X94240000Y-71810000D02*
X94240000Y-71635000D01*
X94915000Y-71810000D02*
X94240000Y-71810000D01*
%TO.C,C26*%
X99215580Y-71540000D02*
X98934420Y-71540000D01*
X99215580Y-72560000D02*
X98934420Y-72560000D01*
D13*
%TO.C,U4*%
X109537000Y-50050000D02*
G75*
G03*
X109537000Y-50050000I-100000J0D01*
G01*
D14*
X111550000Y-50900000D02*
X110100000Y-50900000D01*
X112750000Y-52250000D02*
X112750000Y-56850000D01*
X111550000Y-58200000D02*
X110100000Y-58200000D01*
D11*
%TO.C,C9*%
X106112779Y-64490000D02*
X105787221Y-64490000D01*
X106112779Y-65510000D02*
X105787221Y-65510000D01*
%TO.C,C20*%
X106062779Y-62990000D02*
X105737221Y-62990000D01*
X106062779Y-64010000D02*
X105737221Y-64010000D01*
%TO.C,D2*%
X101912500Y-75560000D02*
X104597500Y-75560000D01*
X104597500Y-75560000D02*
X104597500Y-73640000D01*
X104597500Y-73640000D02*
X101912500Y-73640000D01*
%TO.C,R3*%
X99424721Y-74090000D02*
X99750279Y-74090000D01*
X99424721Y-75110000D02*
X99750279Y-75110000D01*
%TO.C,J1*%
X104350000Y-67000000D02*
X100450000Y-67000000D01*
X100450000Y-67000000D02*
X100450000Y-60000000D01*
X104350000Y-60000000D02*
X104350000Y-67000000D01*
X104350000Y-60000000D02*
X100450000Y-60000000D01*
%TO.C,J4*%
X99360000Y-52990000D02*
X99360000Y-57110000D01*
X89240000Y-52990000D02*
X89240000Y-57110000D01*
X99060000Y-51735000D02*
X99060000Y-52990000D01*
X99360000Y-52990000D02*
X99060000Y-52990000D01*
X99360000Y-57110000D02*
X99060000Y-57110000D01*
X89540000Y-52990000D02*
X89240000Y-52990000D01*
X89540000Y-57110000D02*
X89240000Y-57110000D01*
X97540000Y-52990000D02*
X97060000Y-52990000D01*
X97540000Y-57110000D02*
X97060000Y-57110000D01*
X95540000Y-52990000D02*
X95060000Y-52990000D01*
X95540000Y-57110000D02*
X95060000Y-57110000D01*
X93540000Y-52990000D02*
X93060000Y-52990000D01*
X93540000Y-57110000D02*
X93060000Y-57110000D01*
X91540000Y-52990000D02*
X91060000Y-52990000D01*
X91540000Y-57110000D02*
X91060000Y-57110000D01*
%TO.C,U6*%
D10*
X97913095Y-69977380D02*
X97913095Y-70786904D01*
X97960714Y-70882142D01*
X98008333Y-70929761D01*
X98103571Y-70977380D01*
X98294047Y-70977380D01*
X98389285Y-70929761D01*
X98436904Y-70882142D01*
X98484523Y-70786904D01*
X98484523Y-69977380D01*
X99389285Y-69977380D02*
X99198809Y-69977380D01*
X99103571Y-70025000D01*
X99055952Y-70072619D01*
X98960714Y-70215476D01*
X98913095Y-70405952D01*
X98913095Y-70786904D01*
X98960714Y-70882142D01*
X99008333Y-70929761D01*
X99103571Y-70977380D01*
X99294047Y-70977380D01*
X99389285Y-70929761D01*
X99436904Y-70882142D01*
X99484523Y-70786904D01*
X99484523Y-70548809D01*
X99436904Y-70453571D01*
X99389285Y-70405952D01*
X99294047Y-70358333D01*
X99103571Y-70358333D01*
X99008333Y-70405952D01*
X98960714Y-70453571D01*
X98913095Y-70548809D01*
X92470238Y-73127380D02*
X91994047Y-73127380D01*
X91994047Y-72127380D01*
X92803571Y-73127380D02*
X92803571Y-72127380D01*
X93232142Y-73079761D02*
X93375000Y-73127380D01*
X93613095Y-73127380D01*
X93708333Y-73079761D01*
X93755952Y-73032142D01*
X93803571Y-72936904D01*
X93803571Y-72841666D01*
X93755952Y-72746428D01*
X93708333Y-72698809D01*
X93613095Y-72651190D01*
X93422619Y-72603571D01*
X93327380Y-72555952D01*
X93279761Y-72508333D01*
X93232142Y-72413095D01*
X93232142Y-72317857D01*
X93279761Y-72222619D01*
X93327380Y-72175000D01*
X93422619Y-72127380D01*
X93660714Y-72127380D01*
X93803571Y-72175000D01*
X94136904Y-72127380D02*
X94755952Y-72127380D01*
X94422619Y-72508333D01*
X94565476Y-72508333D01*
X94660714Y-72555952D01*
X94708333Y-72603571D01*
X94755952Y-72698809D01*
X94755952Y-72936904D01*
X94708333Y-73032142D01*
X94660714Y-73079761D01*
X94565476Y-73127380D01*
X94279761Y-73127380D01*
X94184523Y-73079761D01*
X94136904Y-73032142D01*
X95184523Y-73127380D02*
X95184523Y-72127380D01*
X95422619Y-72127380D01*
X95565476Y-72175000D01*
X95660714Y-72270238D01*
X95708333Y-72365476D01*
X95755952Y-72555952D01*
X95755952Y-72698809D01*
X95708333Y-72889285D01*
X95660714Y-72984523D01*
X95565476Y-73079761D01*
X95422619Y-73127380D01*
X95184523Y-73127380D01*
X96184523Y-73127380D02*
X96184523Y-72127380D01*
X96184523Y-72603571D02*
X96755952Y-72603571D01*
X96755952Y-73127380D02*
X96755952Y-72127380D01*
%TO.C,C26*%
X98482142Y-73657142D02*
X98434523Y-73704761D01*
X98291666Y-73752380D01*
X98196428Y-73752380D01*
X98053571Y-73704761D01*
X97958333Y-73609523D01*
X97910714Y-73514285D01*
X97863095Y-73323809D01*
X97863095Y-73180952D01*
X97910714Y-72990476D01*
X97958333Y-72895238D01*
X98053571Y-72800000D01*
X98196428Y-72752380D01*
X98291666Y-72752380D01*
X98434523Y-72800000D01*
X98482142Y-72847619D01*
X98863095Y-72847619D02*
X98910714Y-72800000D01*
X99005952Y-72752380D01*
X99244047Y-72752380D01*
X99339285Y-72800000D01*
X99386904Y-72847619D01*
X99434523Y-72942857D01*
X99434523Y-73038095D01*
X99386904Y-73180952D01*
X98815476Y-73752380D01*
X99434523Y-73752380D01*
X100291666Y-72752380D02*
X100101190Y-72752380D01*
X100005952Y-72800000D01*
X99958333Y-72847619D01*
X99863095Y-72990476D01*
X99815476Y-73180952D01*
X99815476Y-73561904D01*
X99863095Y-73657142D01*
X99910714Y-73704761D01*
X100005952Y-73752380D01*
X100196428Y-73752380D01*
X100291666Y-73704761D01*
X100339285Y-73657142D01*
X100386904Y-73561904D01*
X100386904Y-73323809D01*
X100339285Y-73228571D01*
X100291666Y-73180952D01*
X100196428Y-73133333D01*
X100005952Y-73133333D01*
X99910714Y-73180952D01*
X99863095Y-73228571D01*
X99815476Y-73323809D01*
%TO.C,U4*%
X101041666Y-59408333D02*
X101141666Y-59441666D01*
X101308333Y-59441666D01*
X101375000Y-59408333D01*
X101408333Y-59375000D01*
X101441666Y-59308333D01*
X101441666Y-59241666D01*
X101408333Y-59175000D01*
X101375000Y-59141666D01*
X101308333Y-59108333D01*
X101175000Y-59075000D01*
X101108333Y-59041666D01*
X101075000Y-59008333D01*
X101041666Y-58941666D01*
X101041666Y-58875000D01*
X101075000Y-58808333D01*
X101108333Y-58775000D01*
X101175000Y-58741666D01*
X101341666Y-58741666D01*
X101441666Y-58775000D01*
X101641666Y-58741666D02*
X102041666Y-58741666D01*
X101841666Y-59441666D02*
X101841666Y-58741666D01*
X102275000Y-59441666D02*
X102275000Y-58741666D01*
X102508333Y-59241666D01*
X102741666Y-58741666D01*
X102741666Y-59441666D01*
X103008333Y-58741666D02*
X103441666Y-58741666D01*
X103208333Y-59008333D01*
X103308333Y-59008333D01*
X103375000Y-59041666D01*
X103408333Y-59075000D01*
X103441666Y-59141666D01*
X103441666Y-59308333D01*
X103408333Y-59375000D01*
X103375000Y-59408333D01*
X103308333Y-59441666D01*
X103108333Y-59441666D01*
X103041666Y-59408333D01*
X103008333Y-59375000D01*
X103708333Y-58808333D02*
X103741666Y-58775000D01*
X103808333Y-58741666D01*
X103975000Y-58741666D01*
X104041666Y-58775000D01*
X104075000Y-58808333D01*
X104108333Y-58875000D01*
X104108333Y-58941666D01*
X104075000Y-59041666D01*
X103675000Y-59441666D01*
X104108333Y-59441666D01*
X104341666Y-58741666D02*
X104508333Y-59441666D01*
X104641666Y-58941666D01*
X104775000Y-59441666D01*
X104941666Y-58741666D01*
X105441666Y-59075000D02*
X105541666Y-59108333D01*
X105575000Y-59141666D01*
X105608333Y-59208333D01*
X105608333Y-59308333D01*
X105575000Y-59375000D01*
X105541666Y-59408333D01*
X105475000Y-59441666D01*
X105208333Y-59441666D01*
X105208333Y-58741666D01*
X105441666Y-58741666D01*
X105508333Y-58775000D01*
X105541666Y-58808333D01*
X105575000Y-58875000D01*
X105575000Y-58941666D01*
X105541666Y-59008333D01*
X105508333Y-59041666D01*
X105441666Y-59075000D01*
X105208333Y-59075000D01*
X106241666Y-58741666D02*
X105908333Y-58741666D01*
X105875000Y-59075000D01*
X105908333Y-59041666D01*
X105975000Y-59008333D01*
X106141666Y-59008333D01*
X106208333Y-59041666D01*
X106241666Y-59075000D01*
X106275000Y-59141666D01*
X106275000Y-59308333D01*
X106241666Y-59375000D01*
X106208333Y-59408333D01*
X106141666Y-59441666D01*
X105975000Y-59441666D01*
X105908333Y-59408333D01*
X105875000Y-59375000D01*
X106575000Y-59441666D02*
X106575000Y-58741666D01*
X106808333Y-59241666D01*
X107041666Y-58741666D01*
X107041666Y-59441666D01*
X107375000Y-59441666D02*
X107375000Y-58741666D01*
X107608333Y-59241666D01*
X107841666Y-58741666D01*
X107841666Y-59441666D01*
X108541666Y-58775000D02*
X108475000Y-58741666D01*
X108375000Y-58741666D01*
X108275000Y-58775000D01*
X108208333Y-58841666D01*
X108175000Y-58908333D01*
X108141666Y-59041666D01*
X108141666Y-59141666D01*
X108175000Y-59275000D01*
X108208333Y-59341666D01*
X108275000Y-59408333D01*
X108375000Y-59441666D01*
X108441666Y-59441666D01*
X108541666Y-59408333D01*
X108575000Y-59375000D01*
X108575000Y-59141666D01*
X108441666Y-59141666D01*
X108875000Y-59441666D02*
X108875000Y-58741666D01*
X108875000Y-59075000D02*
X109275000Y-59075000D01*
X109275000Y-59441666D02*
X109275000Y-58741666D01*
X109908333Y-58741666D02*
X109775000Y-58741666D01*
X109708333Y-58775000D01*
X109675000Y-58808333D01*
X109608333Y-58908333D01*
X109575000Y-59041666D01*
X109575000Y-59308333D01*
X109608333Y-59375000D01*
X109641666Y-59408333D01*
X109708333Y-59441666D01*
X109841666Y-59441666D01*
X109908333Y-59408333D01*
X109941666Y-59375000D01*
X109975000Y-59308333D01*
X109975000Y-59141666D01*
X109941666Y-59075000D01*
X109908333Y-59041666D01*
X109841666Y-59008333D01*
X109708333Y-59008333D01*
X109641666Y-59041666D01*
X109608333Y-59075000D01*
X109575000Y-59141666D01*
X110175000Y-58741666D02*
X110575000Y-58741666D01*
X110375000Y-59441666D02*
X110375000Y-58741666D01*
X111208333Y-59441666D02*
X110975000Y-59108333D01*
X110808333Y-59441666D02*
X110808333Y-58741666D01*
X111075000Y-58741666D01*
X111141666Y-58775000D01*
X111175000Y-58808333D01*
X111208333Y-58875000D01*
X111208333Y-58975000D01*
X111175000Y-59041666D01*
X111141666Y-59075000D01*
X111075000Y-59108333D01*
X110808333Y-59108333D01*
%TO.C,C9*%
X105658333Y-66832142D02*
X105610714Y-66879761D01*
X105467857Y-66927380D01*
X105372619Y-66927380D01*
X105229761Y-66879761D01*
X105134523Y-66784523D01*
X105086904Y-66689285D01*
X105039285Y-66498809D01*
X105039285Y-66355952D01*
X105086904Y-66165476D01*
X105134523Y-66070238D01*
X105229761Y-65975000D01*
X105372619Y-65927380D01*
X105467857Y-65927380D01*
X105610714Y-65975000D01*
X105658333Y-66022619D01*
X106134523Y-66927380D02*
X106325000Y-66927380D01*
X106420238Y-66879761D01*
X106467857Y-66832142D01*
X106563095Y-66689285D01*
X106610714Y-66498809D01*
X106610714Y-66117857D01*
X106563095Y-66022619D01*
X106515476Y-65975000D01*
X106420238Y-65927380D01*
X106229761Y-65927380D01*
X106134523Y-65975000D01*
X106086904Y-66022619D01*
X106039285Y-66117857D01*
X106039285Y-66355952D01*
X106086904Y-66451190D01*
X106134523Y-66498809D01*
X106229761Y-66546428D01*
X106420238Y-66546428D01*
X106515476Y-66498809D01*
X106563095Y-66451190D01*
X106610714Y-66355952D01*
%TO.C,C20*%
X105382142Y-62357142D02*
X105334523Y-62404761D01*
X105191666Y-62452380D01*
X105096428Y-62452380D01*
X104953571Y-62404761D01*
X104858333Y-62309523D01*
X104810714Y-62214285D01*
X104763095Y-62023809D01*
X104763095Y-61880952D01*
X104810714Y-61690476D01*
X104858333Y-61595238D01*
X104953571Y-61500000D01*
X105096428Y-61452380D01*
X105191666Y-61452380D01*
X105334523Y-61500000D01*
X105382142Y-61547619D01*
X105763095Y-61547619D02*
X105810714Y-61500000D01*
X105905952Y-61452380D01*
X106144047Y-61452380D01*
X106239285Y-61500000D01*
X106286904Y-61547619D01*
X106334523Y-61642857D01*
X106334523Y-61738095D01*
X106286904Y-61880952D01*
X105715476Y-62452380D01*
X106334523Y-62452380D01*
X106953571Y-61452380D02*
X107048809Y-61452380D01*
X107144047Y-61500000D01*
X107191666Y-61547619D01*
X107239285Y-61642857D01*
X107286904Y-61833333D01*
X107286904Y-62071428D01*
X107239285Y-62261904D01*
X107191666Y-62357142D01*
X107144047Y-62404761D01*
X107048809Y-62452380D01*
X106953571Y-62452380D01*
X106858333Y-62404761D01*
X106810714Y-62357142D01*
X106763095Y-62261904D01*
X106715476Y-62071428D01*
X106715476Y-61833333D01*
X106763095Y-61642857D01*
X106810714Y-61547619D01*
X106858333Y-61500000D01*
X106953571Y-61452380D01*
%TO.C,D2*%
X105111904Y-75052380D02*
X105111904Y-74052380D01*
X105350000Y-74052380D01*
X105492857Y-74100000D01*
X105588095Y-74195238D01*
X105635714Y-74290476D01*
X105683333Y-74480952D01*
X105683333Y-74623809D01*
X105635714Y-74814285D01*
X105588095Y-74909523D01*
X105492857Y-75004761D01*
X105350000Y-75052380D01*
X105111904Y-75052380D01*
X106064285Y-74147619D02*
X106111904Y-74100000D01*
X106207142Y-74052380D01*
X106445238Y-74052380D01*
X106540476Y-74100000D01*
X106588095Y-74147619D01*
X106635714Y-74242857D01*
X106635714Y-74338095D01*
X106588095Y-74480952D01*
X106016666Y-75052380D01*
X106635714Y-75052380D01*
%TO.C,R3*%
X96883333Y-75752380D02*
X96550000Y-75276190D01*
X96311904Y-75752380D02*
X96311904Y-74752380D01*
X96692857Y-74752380D01*
X96788095Y-74800000D01*
X96835714Y-74847619D01*
X96883333Y-74942857D01*
X96883333Y-75085714D01*
X96835714Y-75180952D01*
X96788095Y-75228571D01*
X96692857Y-75276190D01*
X96311904Y-75276190D01*
X97216666Y-74752380D02*
X97835714Y-74752380D01*
X97502380Y-75133333D01*
X97645238Y-75133333D01*
X97740476Y-75180952D01*
X97788095Y-75228571D01*
X97835714Y-75323809D01*
X97835714Y-75561904D01*
X97788095Y-75657142D01*
X97740476Y-75704761D01*
X97645238Y-75752380D01*
X97359523Y-75752380D01*
X97264285Y-75704761D01*
X97216666Y-75657142D01*
%TO.C,J1*%
X99216666Y-62652380D02*
X99216666Y-63366666D01*
X99169047Y-63509523D01*
X99073809Y-63604761D01*
X98930952Y-63652380D01*
X98835714Y-63652380D01*
X100216666Y-63652380D02*
X99645238Y-63652380D01*
X99930952Y-63652380D02*
X99930952Y-62652380D01*
X99835714Y-62795238D01*
X99740476Y-62890476D01*
X99645238Y-62938095D01*
%TO.C,J4*%
X99691666Y-51627380D02*
X99691666Y-52341666D01*
X99644047Y-52484523D01*
X99548809Y-52579761D01*
X99405952Y-52627380D01*
X99310714Y-52627380D01*
X100596428Y-51960714D02*
X100596428Y-52627380D01*
X100358333Y-51579761D02*
X100120238Y-52294047D01*
X100739285Y-52294047D01*
%TD*%
M02*
