%TF.GenerationSoftware,KiCad,Pcbnew,(6.0.0)*%
%TF.CreationDate,2022-01-24T21:03:07-07:00*%
%TF.ProjectId,SolarGPS,536f6c61-7247-4505-932e-6b696361645f,rev?*%
%TF.SameCoordinates,Original*%
%TF.FileFunction,Legend,Top*%
%TF.FilePolarity,Positive*%
%FSLAX46Y46*%
G04 Gerber Fmt 4.6, Leading zero omitted, Abs format (unit mm)*
G04 Created by KiCad (PCBNEW (6.0.0)) date 2022-01-24 21:03:07*
%MOMM*%
%LPD*%
G01*
G04 APERTURE LIST*
%ADD10C,0.150000*%
%ADD11C,0.250000*%
%ADD12C,0.200000*%
%ADD13C,0.180000*%
%ADD14C,0.120000*%
%ADD15C,0.127000*%
G04 APERTURE END LIST*
D10*
X69696546Y-60431464D02*
X69775372Y-60559769D01*
X69957763Y-60712814D01*
X70061329Y-60737553D01*
X70128416Y-60731684D01*
X70226112Y-60689336D01*
X70287330Y-60616379D01*
X70312070Y-60512814D01*
X70306200Y-60445727D01*
X70263853Y-60348031D01*
X70148548Y-60189116D01*
X70106201Y-60091420D01*
X70100331Y-60024333D01*
X70125071Y-59920768D01*
X70186289Y-59847811D01*
X70283985Y-59805463D01*
X70351072Y-59799594D01*
X70454638Y-59824333D01*
X70637029Y-59977378D01*
X70715855Y-60105683D01*
X70579157Y-60861251D02*
X70943940Y-61167340D01*
X70322546Y-61018903D02*
X71220682Y-60467121D01*
X70833243Y-61447428D01*
X71082722Y-61594603D02*
X71161548Y-61722908D01*
X71343939Y-61875953D01*
X71447505Y-61900693D01*
X71514592Y-61894823D01*
X71612288Y-61852476D01*
X71673506Y-61779519D01*
X71698245Y-61675953D01*
X71692376Y-61608866D01*
X71650028Y-61511170D01*
X71534724Y-61352256D01*
X71492376Y-61254560D01*
X71486507Y-61187473D01*
X71511247Y-61083907D01*
X71572464Y-61010950D01*
X71670161Y-60968603D01*
X71737248Y-60962733D01*
X71840813Y-60987473D01*
X72023205Y-61140518D01*
X72102031Y-61268823D01*
X72267635Y-62775351D02*
X72225288Y-62677655D01*
X72213549Y-62543480D01*
X72195941Y-62342219D01*
X72153593Y-62244522D01*
X72080637Y-62183304D01*
X71964070Y-62396305D02*
X71921723Y-62298609D01*
X71909984Y-62164434D01*
X71995941Y-61987912D01*
X72210204Y-61732564D01*
X72369118Y-61617260D01*
X72503292Y-61605521D01*
X72606858Y-61630260D01*
X72752771Y-61752696D01*
X72795119Y-61850392D01*
X72806858Y-61984567D01*
X72720900Y-62161089D01*
X72506638Y-62416437D01*
X72347724Y-62531741D01*
X72213549Y-62543480D01*
X72109983Y-62518741D01*
X71964070Y-62396305D01*
X73263467Y-62181221D02*
X72743116Y-62801353D01*
X72718376Y-62904918D01*
X72724245Y-62972005D01*
X72766593Y-63069701D01*
X72912506Y-63192137D01*
X73016072Y-63216877D01*
X73083159Y-63211007D01*
X73180855Y-63168660D01*
X73701207Y-62548529D01*
X73570378Y-63371184D02*
X73935161Y-63677273D01*
X73313768Y-63528835D02*
X74211903Y-62977054D01*
X73824464Y-63957361D01*
X74613165Y-63313752D02*
X75050904Y-63681059D01*
X74189247Y-64263450D02*
X74832035Y-63497405D01*
X75162423Y-64955717D02*
X75095335Y-64961586D01*
X74955291Y-64906238D01*
X74882335Y-64845020D01*
X74803509Y-64716715D01*
X74791770Y-64582540D01*
X74816510Y-64478975D01*
X74902467Y-64302452D01*
X74994294Y-64193017D01*
X75153208Y-64077713D01*
X75250904Y-64035365D01*
X75385079Y-64023627D01*
X75525122Y-64078975D01*
X75598079Y-64140193D01*
X75676905Y-64268498D01*
X75682774Y-64335585D01*
X75429509Y-65304154D02*
X76072297Y-64538109D01*
X75766208Y-64902892D02*
X76203947Y-65270199D01*
X75867249Y-65671461D02*
X76510037Y-64905416D01*
X69252442Y-61849711D02*
X69617225Y-62155801D01*
X68995832Y-62007363D02*
X69893968Y-61455582D01*
X69506528Y-62435889D01*
X69761876Y-62650151D02*
X70404664Y-61884107D01*
X70696491Y-62128978D01*
X70738838Y-62226674D01*
X70744708Y-62293761D01*
X70719968Y-62397327D01*
X70628141Y-62506762D01*
X70530445Y-62549110D01*
X70463358Y-62554979D01*
X70359792Y-62530239D01*
X70067966Y-62285368D01*
X70527921Y-63292939D02*
X71170709Y-62526894D01*
X71462535Y-62771766D01*
X71504883Y-62869462D01*
X71510752Y-62936549D01*
X71486012Y-63040115D01*
X71394186Y-63149550D01*
X71296489Y-63191897D01*
X71229402Y-63197767D01*
X71125837Y-63173027D01*
X70834010Y-62928156D01*
X71731705Y-64303033D02*
X71782446Y-63723988D01*
X71293965Y-63935726D02*
X71936753Y-63169682D01*
X72228579Y-63414553D01*
X72270927Y-63512249D01*
X72276796Y-63579337D01*
X72252057Y-63682902D01*
X72160230Y-63792337D01*
X72062534Y-63834685D01*
X71995447Y-63840554D01*
X71891881Y-63815815D01*
X71600055Y-63570943D01*
X72848711Y-63934905D02*
X72994624Y-64057341D01*
X73036972Y-64155037D01*
X73048710Y-64289212D01*
X72962753Y-64465734D01*
X72748490Y-64721082D01*
X72589576Y-64836386D01*
X72455402Y-64848125D01*
X72351836Y-64823385D01*
X72205923Y-64700950D01*
X72163575Y-64603253D01*
X72151837Y-64469079D01*
X72237794Y-64292557D01*
X72452057Y-64037209D01*
X72610971Y-63921904D01*
X72745145Y-63910166D01*
X72848711Y-63934905D01*
X73395885Y-64394039D02*
X73008446Y-65374346D01*
X73906582Y-64822564D01*
X73855840Y-65401610D02*
X74111188Y-65615872D01*
X73883925Y-66108961D02*
X73519142Y-65802871D01*
X74161930Y-65036827D01*
X74526713Y-65342916D01*
X74212230Y-66384441D02*
X74855017Y-65618397D01*
X75037409Y-65771441D01*
X75116235Y-65899746D01*
X75127974Y-66033921D01*
X75103234Y-66137486D01*
X75017277Y-66314008D01*
X74925450Y-66423443D01*
X74766536Y-66538748D01*
X74668840Y-66581095D01*
X74534665Y-66592834D01*
X74394621Y-66537486D01*
X74212230Y-66384441D01*
X75039492Y-66954272D02*
X75045362Y-67021359D01*
X74978274Y-67027229D01*
X74972405Y-66960141D01*
X75039492Y-66954272D01*
X74978274Y-67027229D01*
X75223146Y-66735402D02*
X75553975Y-66267054D01*
X75621062Y-66261184D01*
X75626931Y-66328271D01*
X75223146Y-66735402D01*
X75621062Y-66261184D01*
X64176190Y-59152380D02*
X64509523Y-60152380D01*
X64842857Y-59152380D01*
X65700000Y-60152380D02*
X65128571Y-60152380D01*
X65414285Y-60152380D02*
X65414285Y-59152380D01*
X65319047Y-59295238D01*
X65223809Y-59390476D01*
X65128571Y-59438095D01*
X66128571Y-60057142D02*
X66176190Y-60104761D01*
X66128571Y-60152380D01*
X66080952Y-60104761D01*
X66128571Y-60057142D01*
X66128571Y-60152380D01*
X67128571Y-60152380D02*
X66557142Y-60152380D01*
X66842857Y-60152380D02*
X66842857Y-59152380D01*
X66747619Y-59295238D01*
X66652380Y-59390476D01*
X66557142Y-59438095D01*
X112054761Y-51111904D02*
X111673809Y-51111904D01*
X111673809Y-50311904D01*
X112321428Y-51111904D02*
X112321428Y-50311904D01*
X112588095Y-50311904D02*
X113045238Y-50311904D01*
X112816666Y-51111904D02*
X112816666Y-50311904D01*
X113311904Y-51111904D02*
X113311904Y-50311904D01*
X113311904Y-50692857D02*
X113769047Y-50692857D01*
X113769047Y-51111904D02*
X113769047Y-50311904D01*
X114150000Y-51111904D02*
X114150000Y-50311904D01*
X114530952Y-50311904D02*
X114530952Y-50959523D01*
X114569047Y-51035714D01*
X114607142Y-51073809D01*
X114683333Y-51111904D01*
X114835714Y-51111904D01*
X114911904Y-51073809D01*
X114950000Y-51035714D01*
X114988095Y-50959523D01*
X114988095Y-50311904D01*
X115369047Y-51111904D02*
X115369047Y-50311904D01*
X115635714Y-50883333D01*
X115902380Y-50311904D01*
X115902380Y-51111904D01*
X117159523Y-50692857D02*
X116892857Y-50692857D01*
X116892857Y-51111904D02*
X116892857Y-50311904D01*
X117273809Y-50311904D01*
X118035714Y-51111904D02*
X117769047Y-50730952D01*
X117578571Y-51111904D02*
X117578571Y-50311904D01*
X117883333Y-50311904D01*
X117959523Y-50350000D01*
X117997619Y-50388095D01*
X118035714Y-50464285D01*
X118035714Y-50578571D01*
X117997619Y-50654761D01*
X117959523Y-50692857D01*
X117883333Y-50730952D01*
X117578571Y-50730952D01*
X118378571Y-50692857D02*
X118645238Y-50692857D01*
X118759523Y-51111904D02*
X118378571Y-51111904D01*
X118378571Y-50311904D01*
X118759523Y-50311904D01*
X119102380Y-50692857D02*
X119369047Y-50692857D01*
X119483333Y-51111904D02*
X119102380Y-51111904D01*
X119102380Y-50311904D01*
X119483333Y-50311904D01*
X119826190Y-51035714D02*
X119864285Y-51073809D01*
X119826190Y-51111904D01*
X119788095Y-51073809D01*
X119826190Y-51035714D01*
X119826190Y-51111904D01*
X119826190Y-50807142D02*
X119788095Y-50350000D01*
X119826190Y-50311904D01*
X119864285Y-50350000D01*
X119826190Y-50807142D01*
X119826190Y-50311904D01*
D11*
X111550719Y-62126653D02*
X110922759Y-62973280D01*
X111933103Y-62672754D01*
X111734223Y-63218936D02*
X111925415Y-63491987D01*
X111578275Y-63909454D02*
X111305143Y-63519381D01*
X112124295Y-62945805D01*
X112397427Y-63335877D01*
X112151851Y-64728606D02*
X112350731Y-64182423D01*
X111824093Y-64260519D02*
X112643245Y-63686942D01*
X112861750Y-63999000D01*
X112877370Y-64104328D01*
X112865675Y-64170648D01*
X112814974Y-64264282D01*
X112697952Y-64346221D01*
X112592625Y-64361841D01*
X112526304Y-64350146D01*
X112432671Y-64299445D01*
X112214166Y-63987387D01*
X112397670Y-65079671D02*
X113216822Y-64506094D01*
X112670801Y-65469743D02*
X113489953Y-64896167D01*
X113626519Y-65091203D01*
X113669451Y-65235538D01*
X113646063Y-65368179D01*
X113595362Y-65461812D01*
X113466646Y-65610072D01*
X113349624Y-65692012D01*
X113166282Y-65762257D01*
X113060955Y-65777876D01*
X112928314Y-65754488D01*
X112807367Y-65664779D01*
X112670801Y-65469743D01*
X113244378Y-66288895D02*
X114063530Y-65715319D01*
X113724240Y-66476082D02*
X113997371Y-66866154D01*
X113435570Y-66561946D02*
X114445914Y-66261420D01*
X113817954Y-67108047D01*
X114009146Y-67381098D02*
X114828298Y-66807522D01*
X114336904Y-67849185D01*
X115156056Y-67275609D01*
X115047046Y-68863373D02*
X115866198Y-68289797D01*
X115476126Y-68562928D02*
X115803884Y-69031015D01*
X115374804Y-69331460D02*
X116193956Y-68757884D01*
X116077016Y-69421088D02*
X116268208Y-69694138D01*
X115921068Y-70111605D02*
X115647936Y-69721532D01*
X116467088Y-69147956D01*
X116740220Y-69538028D01*
X116440018Y-70852742D02*
X116166886Y-70462670D01*
X116986038Y-69889094D01*
X116631210Y-71125793D02*
X117450362Y-70552217D01*
X117832746Y-71098318D02*
X117941999Y-71254347D01*
X117957618Y-71359675D01*
X117934230Y-71492315D01*
X117805514Y-71640575D01*
X117532463Y-71831768D01*
X117349121Y-71902013D01*
X117216480Y-71878625D01*
X117122847Y-71827923D01*
X117013594Y-71671894D01*
X116997975Y-71566567D01*
X117021363Y-71433926D01*
X117150079Y-71285666D01*
X117423130Y-71094474D01*
X117606472Y-71024229D01*
X117739113Y-71047617D01*
X117832746Y-71098318D01*
X118585821Y-72256841D02*
X118570202Y-72151514D01*
X118488262Y-72034492D01*
X118367315Y-71944783D01*
X118234675Y-71921395D01*
X118129347Y-71937014D01*
X117946005Y-72007260D01*
X117828983Y-72089199D01*
X117700267Y-72237459D01*
X117649566Y-72331093D01*
X117626178Y-72463733D01*
X117669110Y-72608068D01*
X117723736Y-72686083D01*
X117844683Y-72775791D01*
X117911004Y-72787485D01*
X118184054Y-72596293D01*
X118074802Y-72440264D01*
X118406566Y-73661264D02*
X118605446Y-73115081D01*
X118078808Y-73193177D02*
X118897960Y-72619600D01*
X119116465Y-72931658D01*
X119132084Y-73036986D01*
X119120390Y-73103306D01*
X119069689Y-73196940D01*
X118952667Y-73278879D01*
X118847339Y-73294499D01*
X118781019Y-73282804D01*
X118687385Y-73232103D01*
X118468880Y-72920045D01*
X118859114Y-73809443D02*
X119132246Y-74199515D01*
X118570445Y-73895307D02*
X119580789Y-73594781D01*
X118952829Y-74441409D01*
X119144021Y-74714459D02*
X119963173Y-74140883D01*
X120181678Y-74452941D01*
X120197297Y-74558268D01*
X120185603Y-74624589D01*
X120134902Y-74718222D01*
X120017880Y-74800162D01*
X119912553Y-74815781D01*
X119846232Y-74804087D01*
X119752599Y-74753386D01*
X119534093Y-74441328D01*
X119717597Y-75533611D02*
X120536749Y-74960035D01*
X120146677Y-75233166D02*
X120474435Y-75701253D01*
X120045355Y-76001698D02*
X120864507Y-75428122D01*
D12*
X87060555Y-57156446D02*
X87565631Y-57661522D01*
X86656494Y-57358477D02*
X88070707Y-56651370D01*
X87363600Y-58065583D01*
X87717154Y-58419137D02*
X88777814Y-57358477D01*
X89181875Y-57762538D01*
X89232383Y-57914060D01*
X89232383Y-58015076D01*
X89181875Y-58166599D01*
X89030352Y-58318121D01*
X88878829Y-58368629D01*
X88777814Y-58368629D01*
X88626291Y-58318121D01*
X88222230Y-57914060D01*
X88777814Y-59479797D02*
X89838474Y-58419137D01*
X90242535Y-58823198D01*
X90293043Y-58974721D01*
X90293043Y-59075736D01*
X90242535Y-59227259D01*
X90091012Y-59378782D01*
X89939489Y-59429289D01*
X89838474Y-59429289D01*
X89686951Y-59378782D01*
X89282890Y-58974721D01*
X90343550Y-61045533D02*
X89838474Y-60540457D01*
X90899134Y-59479797D01*
X91404211Y-61096041D02*
X90899134Y-61601117D01*
X91606241Y-60186904D02*
X91404211Y-61096041D01*
X92313348Y-60894010D01*
X92414363Y-63116346D02*
X93475023Y-62055686D01*
X93727561Y-62308224D01*
X93828577Y-62510255D01*
X93828577Y-62712285D01*
X93778069Y-62863808D01*
X93626546Y-63116346D01*
X93475023Y-63267869D01*
X93222485Y-63419392D01*
X93070962Y-63469899D01*
X92868932Y-63469899D01*
X92666901Y-63368884D01*
X92414363Y-63116346D01*
X93475023Y-64177006D02*
X94535683Y-63116346D01*
X94586191Y-65288174D02*
X94737714Y-64429544D01*
X93980100Y-64682082D02*
X95040760Y-63621422D01*
X95444821Y-64025483D01*
X95495328Y-64177006D01*
X95495328Y-64278021D01*
X95444821Y-64429544D01*
X95293298Y-64581067D01*
X95141775Y-64631575D01*
X95040760Y-64631575D01*
X94889237Y-64581067D01*
X94485176Y-64177006D01*
X95596344Y-65187159D02*
X95949897Y-65540712D01*
X95545836Y-66247819D02*
X95040760Y-65742743D01*
X96101420Y-64682082D01*
X96606496Y-65187159D01*
X96707511Y-67207464D02*
X96606496Y-67207464D01*
X96404466Y-67106449D01*
X96303450Y-67005433D01*
X96202435Y-66803403D01*
X96202435Y-66601372D01*
X96252943Y-66449849D01*
X96404466Y-66197311D01*
X96555989Y-66045788D01*
X96808527Y-65894266D01*
X96960050Y-65843758D01*
X97162080Y-65843758D01*
X97364111Y-65944773D01*
X97465126Y-66045788D01*
X97566141Y-66247819D01*
X97566141Y-66348834D01*
X97970202Y-66550865D02*
X98576294Y-67156956D01*
X97212588Y-67914571D02*
X98273248Y-66853910D01*
X98374263Y-69076246D02*
X97869187Y-68571170D01*
X98929847Y-67510510D01*
X99434923Y-69126754D02*
X98929847Y-69631830D01*
X99636954Y-68217616D02*
X99434923Y-69126754D01*
X100344061Y-68924723D01*
X87701496Y-59697485D02*
X88307588Y-60303576D01*
X86943882Y-61061191D02*
X88004542Y-60000531D01*
X88863172Y-60859160D02*
X89065202Y-61061191D01*
X89115710Y-61212714D01*
X89115710Y-61414744D01*
X88964187Y-61667282D01*
X88610634Y-62020836D01*
X88358095Y-62172359D01*
X88156065Y-62172359D01*
X88004542Y-62121851D01*
X87802512Y-61919820D01*
X87752004Y-61768298D01*
X87752004Y-61566267D01*
X87903527Y-61313729D01*
X88257080Y-60960176D01*
X88509618Y-60808653D01*
X88711649Y-60808653D01*
X88863172Y-60859160D01*
X90075355Y-63081496D02*
X90428908Y-63435049D01*
X90024847Y-64142156D02*
X89519771Y-63637080D01*
X90580431Y-62576420D01*
X91085507Y-63081496D01*
X91186523Y-64293679D02*
X90681446Y-64798755D01*
X91388553Y-63384542D02*
X91186523Y-64293679D01*
X92095660Y-64091648D01*
X91944137Y-64950278D02*
X92297690Y-65303831D01*
X91893629Y-66010938D02*
X91388553Y-65505862D01*
X92449213Y-64445202D01*
X92954290Y-64950278D01*
X93257335Y-66263476D02*
X93358351Y-66465507D01*
X93358351Y-66566522D01*
X93307843Y-66718045D01*
X93156320Y-66869568D01*
X93004797Y-66920076D01*
X92903782Y-66920076D01*
X92752259Y-66869568D01*
X92348198Y-66465507D01*
X93408858Y-65404847D01*
X93762412Y-65758400D01*
X93812919Y-65909923D01*
X93812919Y-66010938D01*
X93762412Y-66162461D01*
X93661396Y-66263476D01*
X93509873Y-66313984D01*
X93408858Y-66313984D01*
X93257335Y-66263476D01*
X92903782Y-65909923D01*
X93661396Y-67172614D02*
X94166473Y-67677690D01*
X93257335Y-67374644D02*
X94671549Y-66667537D01*
X93964442Y-68081751D01*
X94823072Y-68940381D02*
X94317995Y-68435304D01*
X95378656Y-67374644D01*
X95681701Y-69799010D02*
X95176625Y-69293934D01*
X96237285Y-68233274D01*
X96035255Y-70051548D02*
X96136270Y-70253579D01*
X96388808Y-70506117D01*
X96540331Y-70556625D01*
X96641346Y-70556625D01*
X96792869Y-70506117D01*
X96893884Y-70405102D01*
X96944392Y-70253579D01*
X96944392Y-70152564D01*
X96893884Y-70001041D01*
X96742362Y-69748503D01*
X96691854Y-69596980D01*
X96691854Y-69495965D01*
X96742362Y-69344442D01*
X96843377Y-69243426D01*
X96994900Y-69192919D01*
X97095915Y-69192919D01*
X97247438Y-69243426D01*
X97499976Y-69495965D01*
X97600991Y-69697995D01*
D13*
X120610714Y-67425000D02*
X120515476Y-67377380D01*
X120372619Y-67377380D01*
X120229761Y-67425000D01*
X120134523Y-67520238D01*
X120086904Y-67615476D01*
X120039285Y-67805952D01*
X120039285Y-67948809D01*
X120086904Y-68139285D01*
X120134523Y-68234523D01*
X120229761Y-68329761D01*
X120372619Y-68377380D01*
X120467857Y-68377380D01*
X120610714Y-68329761D01*
X120658333Y-68282142D01*
X120658333Y-67948809D01*
X120467857Y-67948809D01*
X121086904Y-68377380D02*
X121086904Y-67377380D01*
X121658333Y-68377380D01*
X121658333Y-67377380D01*
X122086904Y-68329761D02*
X122229761Y-68377380D01*
X122467857Y-68377380D01*
X122563095Y-68329761D01*
X122610714Y-68282142D01*
X122658333Y-68186904D01*
X122658333Y-68091666D01*
X122610714Y-67996428D01*
X122563095Y-67948809D01*
X122467857Y-67901190D01*
X122277380Y-67853571D01*
X122182142Y-67805952D01*
X122134523Y-67758333D01*
X122086904Y-67663095D01*
X122086904Y-67567857D01*
X122134523Y-67472619D01*
X122182142Y-67425000D01*
X122277380Y-67377380D01*
X122515476Y-67377380D01*
X122658333Y-67425000D01*
X123039285Y-68329761D02*
X123182142Y-68377380D01*
X123420238Y-68377380D01*
X123515476Y-68329761D01*
X123563095Y-68282142D01*
X123610714Y-68186904D01*
X123610714Y-68091666D01*
X123563095Y-67996428D01*
X123515476Y-67948809D01*
X123420238Y-67901190D01*
X123229761Y-67853571D01*
X123134523Y-67805952D01*
X123086904Y-67758333D01*
X123039285Y-67663095D01*
X123039285Y-67567857D01*
X123086904Y-67472619D01*
X123134523Y-67425000D01*
X123229761Y-67377380D01*
X123467857Y-67377380D01*
X123610714Y-67425000D01*
D14*
%TO.C,U5*%
X67535876Y-56394562D02*
X67200000Y-56730437D01*
X67200000Y-56730437D02*
X66864124Y-56394562D01*
X66864124Y-51805438D02*
X67200000Y-51469563D01*
X67200000Y-51469563D02*
X67535876Y-51805438D01*
X64905438Y-53764124D02*
X64569563Y-54100000D01*
X64569563Y-54100000D02*
X64905438Y-54435876D01*
X69494562Y-54435876D02*
X69830437Y-54100000D01*
%TO.C,C13*%
X109188748Y-63915000D02*
X109711252Y-63915000D01*
X109188748Y-65385000D02*
X109711252Y-65385000D01*
%TO.C,C11*%
X75109420Y-69340000D02*
X75390580Y-69340000D01*
X75109420Y-70360000D02*
X75390580Y-70360000D01*
%TO.C,J1*%
X107570000Y-50200000D02*
X107570000Y-76800000D01*
X107570000Y-76800000D02*
X77200000Y-76800000D01*
X68570000Y-66250000D02*
X63570000Y-66250000D01*
X63570000Y-60750000D02*
X63570000Y-60900000D01*
X77200000Y-58500000D02*
X77200000Y-50200000D01*
X68570000Y-68500000D02*
X68570000Y-66250000D01*
X68570000Y-58500000D02*
X77200000Y-58500000D01*
X77200000Y-68500000D02*
X68570000Y-68500000D01*
X63570000Y-66250000D02*
X63570000Y-66100000D01*
X63570000Y-60750000D02*
X68570000Y-60750000D01*
X77200000Y-50200000D02*
X107570000Y-50200000D01*
X77200000Y-76800000D02*
X77200000Y-68500000D01*
X68570000Y-60750000D02*
X68570000Y-58500000D01*
%TO.C,Y1*%
X64455000Y-74015000D02*
X64455000Y-75365000D01*
X66205000Y-74015000D02*
X66205000Y-75365000D01*
%TO.C,J4*%
X52745000Y-72920000D02*
X52745000Y-72285000D01*
X53380000Y-72920000D02*
X52745000Y-72920000D01*
%TO.C,U1*%
X71340901Y-69175108D02*
X71500000Y-69016009D01*
X71500000Y-69016009D02*
X71659099Y-69175108D01*
X71659099Y-74824892D02*
X71500000Y-74983991D01*
X71500000Y-74983991D02*
X71340901Y-74824892D01*
X74324892Y-72159099D02*
X74483991Y-72000000D01*
X74483991Y-72000000D02*
X74324892Y-71840901D01*
X68675108Y-71840901D02*
X68516009Y-72000000D01*
%TO.C,R1*%
X59427500Y-74537258D02*
X59427500Y-74062742D01*
X60472500Y-74537258D02*
X60472500Y-74062742D01*
%TO.C,C18*%
X55515580Y-74810000D02*
X55234420Y-74810000D01*
X55515580Y-73790000D02*
X55234420Y-73790000D01*
%TO.C,C12*%
X60435000Y-51538748D02*
X60435000Y-52061252D01*
X58965000Y-51538748D02*
X58965000Y-52061252D01*
%TO.C,C10*%
X62875580Y-75420000D02*
X62594420Y-75420000D01*
X62875580Y-76440000D02*
X62594420Y-76440000D01*
%TO.C,C7*%
X52188748Y-56715000D02*
X52711252Y-56715000D01*
X52188748Y-58185000D02*
X52711252Y-58185000D01*
%TO.C,C4*%
X62910580Y-73930000D02*
X62629420Y-73930000D01*
X62910580Y-72910000D02*
X62629420Y-72910000D01*
%TO.C,R3*%
X53460000Y-64600279D02*
X53460000Y-64274721D01*
X52440000Y-64600279D02*
X52440000Y-64274721D01*
%TO.C,D2*%
X51990000Y-59715000D02*
X51990000Y-62400000D01*
X53910000Y-59715000D02*
X51990000Y-59715000D01*
X53910000Y-62400000D02*
X53910000Y-59715000D01*
%TO.C,C5*%
X57037221Y-58060000D02*
X57362779Y-58060000D01*
X57037221Y-57040000D02*
X57362779Y-57040000D01*
%TO.C,C8*%
X56937221Y-52315000D02*
X57262779Y-52315000D01*
X56937221Y-53335000D02*
X57262779Y-53335000D01*
%TO.C,R4*%
X54365000Y-56499721D02*
X54365000Y-56825279D01*
X55385000Y-56499721D02*
X55385000Y-56825279D01*
%TO.C,R5*%
X54210000Y-53837221D02*
X54210000Y-54162779D01*
X53190000Y-53837221D02*
X53190000Y-54162779D01*
D15*
%TO.C,U7*%
X56225000Y-56650000D02*
X58225000Y-56650000D01*
X56225000Y-53650000D02*
X58225000Y-53650000D01*
D12*
X55575000Y-53900000D02*
G75*
G03*
X55575000Y-53900000I-100000J0D01*
G01*
D14*
%TO.C,L2*%
X60575000Y-54991422D02*
X60575000Y-55508578D01*
X58875000Y-54991422D02*
X58875000Y-55508578D01*
%TO.C,C3*%
X74541422Y-52360000D02*
X75058578Y-52360000D01*
X74541422Y-50940000D02*
X75058578Y-50940000D01*
%TO.C,C6*%
X67825279Y-51210000D02*
X67499721Y-51210000D01*
X67825279Y-50190000D02*
X67499721Y-50190000D01*
%TO.C,C19*%
X71675279Y-55390000D02*
X71349721Y-55390000D01*
X71675279Y-56410000D02*
X71349721Y-56410000D01*
%TO.C,L3*%
X70140000Y-52397936D02*
X70140000Y-53602064D01*
X72860000Y-52397936D02*
X72860000Y-53602064D01*
%TO.C,ROV3*%
X64724721Y-51210000D02*
X65050279Y-51210000D01*
X64724721Y-50190000D02*
X65050279Y-50190000D01*
%TO.C,ROV4*%
X62340000Y-51662779D02*
X62340000Y-51337221D01*
X63360000Y-51662779D02*
X63360000Y-51337221D01*
%TO.C,C9*%
X59637221Y-63270000D02*
X59962779Y-63270000D01*
X59637221Y-62250000D02*
X59962779Y-62250000D01*
%TO.C,C20*%
X59624721Y-63570000D02*
X59950279Y-63570000D01*
X59624721Y-64590000D02*
X59950279Y-64590000D01*
%TO.C,C15*%
X68099721Y-57040000D02*
X68425279Y-57040000D01*
X68099721Y-58060000D02*
X68425279Y-58060000D01*
%TO.C,C2*%
X71661252Y-58245000D02*
X71138748Y-58245000D01*
X71661252Y-56775000D02*
X71138748Y-56775000D01*
%TO.C,C25*%
X68190580Y-75540000D02*
X67909420Y-75540000D01*
X68190580Y-76560000D02*
X67909420Y-76560000D01*
%TO.C,C26*%
X60484420Y-69460000D02*
X60765580Y-69460000D01*
X60484420Y-68440000D02*
X60765580Y-68440000D01*
%TO.C,U6*%
X62360000Y-67800000D02*
X62535000Y-67800000D01*
X65580000Y-71020000D02*
X65405000Y-71020000D01*
X62360000Y-70345000D02*
X62360000Y-71020000D01*
X65580000Y-67800000D02*
X65405000Y-67800000D01*
X65580000Y-68475000D02*
X65580000Y-67800000D01*
X65580000Y-70345000D02*
X65580000Y-71020000D01*
X62360000Y-68475000D02*
X62360000Y-67800000D01*
%TO.C,D1*%
X73200000Y-57050000D02*
X76350000Y-57050000D01*
X73200000Y-55350000D02*
X76350000Y-55350000D01*
X73200000Y-55350000D02*
X73200000Y-57050000D01*
%TO.C,D3*%
X73200000Y-53400000D02*
X73200000Y-55100000D01*
X73200000Y-53400000D02*
X76350000Y-53400000D01*
X73200000Y-55100000D02*
X76350000Y-55100000D01*
%TO.C,C16*%
X112390580Y-69710000D02*
X112109420Y-69710000D01*
X112390580Y-68690000D02*
X112109420Y-68690000D01*
%TO.C,R2*%
X109662258Y-69722500D02*
X109187742Y-69722500D01*
X109662258Y-68677500D02*
X109187742Y-68677500D01*
%TO.C,R6*%
X112562258Y-69977500D02*
X112087742Y-69977500D01*
X112562258Y-71022500D02*
X112087742Y-71022500D01*
%TO.C,R12*%
X109812258Y-72372500D02*
X109337742Y-72372500D01*
X109812258Y-71327500D02*
X109337742Y-71327500D01*
%TO.C,R15*%
X64872500Y-57612258D02*
X64872500Y-57137742D01*
X63827500Y-57612258D02*
X63827500Y-57137742D01*
%TO.C,R13*%
X112637258Y-72877500D02*
X112162742Y-72877500D01*
X112637258Y-73922500D02*
X112162742Y-73922500D01*
%TO.C,C23*%
X112540580Y-72360000D02*
X112259420Y-72360000D01*
X112540580Y-71340000D02*
X112259420Y-71340000D01*
%TO.C,C28*%
X63460000Y-57565580D02*
X63460000Y-57284420D01*
X62440000Y-57565580D02*
X62440000Y-57284420D01*
%TO.C,R14*%
X61127500Y-56037258D02*
X61127500Y-55562742D01*
X62172500Y-56037258D02*
X62172500Y-55562742D01*
%TO.C,U2*%
X108740000Y-51540000D02*
X108740000Y-51690000D01*
X118660000Y-61710000D02*
X118660000Y-61860000D01*
X118660000Y-51540000D02*
X118660000Y-51690000D01*
X108740000Y-61860000D02*
X118660000Y-61860000D01*
X108740000Y-61710000D02*
X108740000Y-61860000D01*
X108740000Y-51540000D02*
X118660000Y-51540000D01*
X108050000Y-51690000D02*
X108740000Y-51690000D01*
%TO.C,AE1*%
X123775000Y-66050000D02*
X123775000Y-63325000D01*
X121925000Y-66050000D02*
X121925000Y-62500000D01*
%TO.C,C21*%
X109134420Y-62390000D02*
X109415580Y-62390000D01*
X109134420Y-63410000D02*
X109415580Y-63410000D01*
%TD*%
M02*
