%TF.GenerationSoftware,KiCad,Pcbnew,(6.0.0)*%
%TF.CreationDate,2022-01-25T09:42:25-07:00*%
%TF.ProjectId,SolarGPS,536f6c61-7247-4505-932e-6b696361645f,rev?*%
%TF.SameCoordinates,Original*%
%TF.FileFunction,Paste,Top*%
%TF.FilePolarity,Positive*%
%FSLAX46Y46*%
G04 Gerber Fmt 4.6, Leading zero omitted, Abs format (unit mm)*
G04 Created by KiCad (PCBNEW (6.0.0)) date 2022-01-25 09:42:25*
%MOMM*%
%LPD*%
G01*
G04 APERTURE LIST*
G04 Aperture macros list*
%AMRoundRect*
0 Rectangle with rounded corners*
0 $1 Rounding radius*
0 $2 $3 $4 $5 $6 $7 $8 $9 X,Y pos of 4 corners*
0 Add a 4 corners polygon primitive as box body*
4,1,4,$2,$3,$4,$5,$6,$7,$8,$9,$2,$3,0*
0 Add four circle primitives for the rounded corners*
1,1,$1+$1,$2,$3*
1,1,$1+$1,$4,$5*
1,1,$1+$1,$6,$7*
1,1,$1+$1,$8,$9*
0 Add four rect primitives between the rounded corners*
20,1,$1+$1,$2,$3,$4,$5,0*
20,1,$1+$1,$4,$5,$6,$7,0*
20,1,$1+$1,$6,$7,$8,$9,0*
20,1,$1+$1,$8,$9,$2,$3,0*%
%AMOutline4P*
0 Free polygon, 4 corners , with rotation*
0 The origin of the aperture is its center*
0 number of corners: always 4*
0 $1 to $8 corner X, Y*
0 $9 Rotation angle, in degrees counterclockwise*
0 create outline with 4 corners*
4,1,4,$1,$2,$3,$4,$5,$6,$7,$8,$1,$2,$9*%
%AMFreePoly0*
4,1,17,0.230680,0.111820,0.364318,-0.021819,0.364320,-0.021820,0.364320,-0.021821,0.377501,-0.053640,0.377500,-0.053642,0.377500,-0.080000,0.364320,-0.111820,0.332500,-0.125000,-0.332500,-0.125000,-0.364320,-0.111820,-0.377500,-0.080000,-0.377500,0.080000,-0.364320,0.111820,-0.332500,0.125000,0.198860,0.125000,0.230680,0.111820,0.230680,0.111820,$1*%
%AMFreePoly1*
4,1,17,0.364320,0.111820,0.377500,0.080000,0.377500,0.053642,0.377501,0.053640,0.369779,0.035000,0.364320,0.021820,0.364318,0.021819,0.230680,-0.111820,0.198860,-0.125000,-0.332500,-0.125000,-0.364320,-0.111820,-0.377500,-0.080000,-0.377500,0.080000,-0.364320,0.111820,-0.332500,0.125000,0.332500,0.125000,0.364320,0.111820,0.364320,0.111820,$1*%
%AMFreePoly2*
4,1,17,0.053642,0.377500,0.080000,0.377500,0.111820,0.364320,0.125000,0.332500,0.125000,-0.332500,0.111820,-0.364320,0.080000,-0.377500,-0.080000,-0.377500,-0.111820,-0.364320,-0.125000,-0.332500,-0.125000,0.198860,-0.111820,0.230680,0.021819,0.364318,0.021820,0.364320,0.031140,0.368181,0.053640,0.377501,0.053642,0.377500,0.053642,0.377500,$1*%
%AMFreePoly3*
4,1,17,-0.021820,0.364320,0.111818,0.230681,0.111820,0.230680,0.111820,0.230679,0.125001,0.198860,0.125000,0.198858,0.125000,-0.332500,0.111820,-0.364320,0.080000,-0.377500,-0.080000,-0.377500,-0.111820,-0.364320,-0.125000,-0.332500,-0.125000,0.332500,-0.111820,0.364320,-0.080000,0.377500,-0.053640,0.377500,-0.021820,0.364320,-0.021820,0.364320,$1*%
%AMFreePoly4*
4,1,17,0.364320,0.111820,0.377500,0.080000,0.377500,-0.080000,0.364320,-0.111820,0.332500,-0.125000,-0.198858,-0.125000,-0.198860,-0.125001,-0.221360,-0.115681,-0.230680,-0.111820,-0.230681,-0.111818,-0.364320,0.021820,-0.377500,0.053640,-0.377500,0.080000,-0.364320,0.111820,-0.332500,0.125000,0.332500,0.125000,0.364320,0.111820,0.364320,0.111820,$1*%
%AMFreePoly5*
4,1,17,-0.198858,0.125000,0.332500,0.125000,0.364320,0.111820,0.377500,0.080000,0.377500,-0.080000,0.364320,-0.111820,0.332500,-0.125000,-0.332500,-0.125000,-0.364320,-0.111820,-0.377500,-0.080000,-0.377500,-0.053640,-0.364320,-0.021820,-0.230681,0.111818,-0.230680,0.111820,-0.221360,0.115681,-0.198860,0.125001,-0.198858,0.125000,-0.198858,0.125000,$1*%
%AMFreePoly6*
4,1,17,0.111820,0.364320,0.125000,0.332500,0.125000,-0.198858,0.125001,-0.198860,0.115681,-0.221360,0.111820,-0.230680,0.111818,-0.230681,-0.021820,-0.364320,-0.053640,-0.377500,-0.080000,-0.377500,-0.111820,-0.364320,-0.125000,-0.332500,-0.125000,0.332500,-0.111820,0.364320,-0.080000,0.377500,0.080000,0.377500,0.111820,0.364320,0.111820,0.364320,$1*%
%AMFreePoly7*
4,1,17,0.111820,0.364320,0.125000,0.332500,0.125000,-0.332500,0.111820,-0.364320,0.080000,-0.377500,0.053642,-0.377500,0.053640,-0.377501,0.031140,-0.368181,0.021820,-0.364320,0.021819,-0.364318,-0.111820,-0.230680,-0.125000,-0.198860,-0.125000,0.332500,-0.111820,0.364320,-0.080000,0.377500,0.080000,0.377500,0.111820,0.364320,0.111820,0.364320,$1*%
G04 Aperture macros list end*
%ADD10C,0.010000*%
%ADD11R,4.000000X0.300000*%
%ADD12RoundRect,0.250000X-0.475000X0.250000X-0.475000X-0.250000X0.475000X-0.250000X0.475000X0.250000X0*%
%ADD13RoundRect,0.218750X0.256250X-0.218750X0.256250X0.218750X-0.256250X0.218750X-0.256250X-0.218750X0*%
%ADD14RoundRect,0.243750X-0.456250X0.243750X-0.456250X-0.243750X0.456250X-0.243750X0.456250X0.243750X0*%
%ADD15RoundRect,0.218750X-0.218750X-0.256250X0.218750X-0.256250X0.218750X0.256250X-0.218750X0.256250X0*%
%ADD16RoundRect,0.250000X-0.250000X-0.475000X0.250000X-0.475000X0.250000X0.475000X-0.250000X0.475000X0*%
%ADD17RoundRect,0.218750X-0.256250X0.218750X-0.256250X-0.218750X0.256250X-0.218750X0.256250X0.218750X0*%
%ADD18RoundRect,0.012500X-0.287500X-0.112500X0.287500X-0.112500X0.287500X0.112500X-0.287500X0.112500X0*%
%ADD19RoundRect,0.012500X-0.437500X-0.112500X0.437500X-0.112500X0.437500X0.112500X-0.437500X0.112500X0*%
%ADD20RoundRect,0.243750X-0.656250X0.243750X-0.656250X-0.243750X0.656250X-0.243750X0.656250X0.243750X0*%
%ADD21RoundRect,0.243750X-0.243750X-0.456250X0.243750X-0.456250X0.243750X0.456250X-0.243750X0.456250X0*%
%ADD22RoundRect,0.218750X0.218750X0.256250X-0.218750X0.256250X-0.218750X-0.256250X0.218750X-0.256250X0*%
%ADD23RoundRect,0.250000X-1.075000X0.375000X-1.075000X-0.375000X1.075000X-0.375000X1.075000X0.375000X0*%
%ADD24RoundRect,0.250000X0.250000X0.475000X-0.250000X0.475000X-0.250000X-0.475000X0.250000X-0.475000X0*%
%ADD25RoundRect,0.225000X0.225000X0.250000X-0.225000X0.250000X-0.225000X-0.250000X0.225000X-0.250000X0*%
%ADD26RoundRect,0.225000X-0.225000X-0.250000X0.225000X-0.250000X0.225000X0.250000X-0.225000X0.250000X0*%
%ADD27RoundRect,0.087500X0.087500X-0.187500X0.087500X0.187500X-0.087500X0.187500X-0.087500X-0.187500X0*%
%ADD28RoundRect,0.087500X0.187500X-0.087500X0.187500X0.087500X-0.187500X0.087500X-0.187500X-0.087500X0*%
%ADD29R,1.000000X1.000000*%
%ADD30RoundRect,0.202500X0.000000X0.286378X-0.286378X0.000000X0.000000X-0.286378X0.286378X0.000000X0*%
%ADD31RoundRect,0.062500X0.220971X0.309359X-0.309359X-0.220971X-0.220971X-0.309359X0.309359X0.220971X0*%
%ADD32RoundRect,0.062500X-0.220971X0.309359X-0.309359X0.220971X0.220971X-0.309359X0.309359X-0.220971X0*%
%ADD33RoundRect,0.200000X0.200000X0.275000X-0.200000X0.275000X-0.200000X-0.275000X0.200000X-0.275000X0*%
%ADD34RoundRect,0.200000X0.275000X-0.200000X0.275000X0.200000X-0.275000X0.200000X-0.275000X-0.200000X0*%
%ADD35RoundRect,0.225000X0.250000X-0.225000X0.250000X0.225000X-0.250000X0.225000X-0.250000X-0.225000X0*%
%ADD36RoundRect,0.147500X-0.172500X0.147500X-0.172500X-0.147500X0.172500X-0.147500X0.172500X0.147500X0*%
%ADD37RoundRect,0.175000X-0.725000X-0.175000X0.725000X-0.175000X0.725000X0.175000X-0.725000X0.175000X0*%
%ADD38RoundRect,0.200000X-0.700000X-0.200000X0.700000X-0.200000X0.700000X0.200000X-0.700000X0.200000X0*%
%ADD39Outline4P,-0.400000X-0.325000X0.400000X-0.325000X0.400000X0.325000X-0.400000X0.325000X90.000000*%
%ADD40Outline4P,-0.400000X-0.800000X0.400000X-0.800000X0.400000X0.800000X-0.400000X0.800000X90.000000*%
%ADD41FreePoly0,45.000000*%
%ADD42RoundRect,0.062500X-0.220971X-0.309359X0.309359X0.220971X0.220971X0.309359X-0.309359X-0.220971X0*%
%ADD43FreePoly1,45.000000*%
%ADD44FreePoly2,45.000000*%
%ADD45RoundRect,0.062500X0.220971X-0.309359X0.309359X-0.220971X-0.220971X0.309359X-0.309359X0.220971X0*%
%ADD46FreePoly3,45.000000*%
%ADD47FreePoly4,45.000000*%
%ADD48FreePoly5,45.000000*%
%ADD49FreePoly6,45.000000*%
%ADD50FreePoly7,45.000000*%
%ADD51R,1.800000X1.000000*%
G04 APERTURE END LIST*
D10*
%TO.C,U7*%
X58375000Y-55275000D02*
X57925000Y-55275000D01*
X57925000Y-55275000D02*
X57922000Y-55275000D01*
X57922000Y-55275000D02*
X57920000Y-55275000D01*
X57920000Y-55275000D02*
X57917000Y-55274000D01*
X57917000Y-55274000D02*
X57915000Y-55274000D01*
X57915000Y-55274000D02*
X57912000Y-55273000D01*
X57912000Y-55273000D02*
X57910000Y-55273000D01*
X57910000Y-55273000D02*
X57907000Y-55272000D01*
X57907000Y-55272000D02*
X57905000Y-55271000D01*
X57905000Y-55271000D02*
X57902000Y-55270000D01*
X57902000Y-55270000D02*
X57900000Y-55268000D01*
X57900000Y-55268000D02*
X57898000Y-55267000D01*
X57898000Y-55267000D02*
X57896000Y-55265000D01*
X57896000Y-55265000D02*
X57894000Y-55264000D01*
X57894000Y-55264000D02*
X57892000Y-55262000D01*
X57892000Y-55262000D02*
X57890000Y-55260000D01*
X57890000Y-55260000D02*
X57888000Y-55258000D01*
X57888000Y-55258000D02*
X57886000Y-55256000D01*
X57886000Y-55256000D02*
X57885000Y-55254000D01*
X57885000Y-55254000D02*
X57883000Y-55252000D01*
X57883000Y-55252000D02*
X57882000Y-55250000D01*
X57882000Y-55250000D02*
X57880000Y-55248000D01*
X57880000Y-55248000D02*
X57879000Y-55245000D01*
X57879000Y-55245000D02*
X57878000Y-55243000D01*
X57878000Y-55243000D02*
X57877000Y-55240000D01*
X57877000Y-55240000D02*
X57877000Y-55238000D01*
X57877000Y-55238000D02*
X57876000Y-55235000D01*
X57876000Y-55235000D02*
X57876000Y-55233000D01*
X57876000Y-55233000D02*
X57875000Y-55230000D01*
X57875000Y-55230000D02*
X57875000Y-55228000D01*
X57875000Y-55228000D02*
X57875000Y-55225000D01*
X57875000Y-55225000D02*
X57875000Y-55075000D01*
X57875000Y-55075000D02*
X57875000Y-55072000D01*
X57875000Y-55072000D02*
X57875000Y-55070000D01*
X57875000Y-55070000D02*
X57876000Y-55067000D01*
X57876000Y-55067000D02*
X57876000Y-55065000D01*
X57876000Y-55065000D02*
X57877000Y-55062000D01*
X57877000Y-55062000D02*
X57877000Y-55060000D01*
X57877000Y-55060000D02*
X57878000Y-55057000D01*
X57878000Y-55057000D02*
X57879000Y-55055000D01*
X57879000Y-55055000D02*
X57880000Y-55052000D01*
X57880000Y-55052000D02*
X57882000Y-55050000D01*
X57882000Y-55050000D02*
X57883000Y-55048000D01*
X57883000Y-55048000D02*
X57885000Y-55046000D01*
X57885000Y-55046000D02*
X57886000Y-55044000D01*
X57886000Y-55044000D02*
X57888000Y-55042000D01*
X57888000Y-55042000D02*
X57890000Y-55040000D01*
X57890000Y-55040000D02*
X57892000Y-55038000D01*
X57892000Y-55038000D02*
X57894000Y-55036000D01*
X57894000Y-55036000D02*
X57896000Y-55035000D01*
X57896000Y-55035000D02*
X57898000Y-55033000D01*
X57898000Y-55033000D02*
X57900000Y-55032000D01*
X57900000Y-55032000D02*
X57902000Y-55030000D01*
X57902000Y-55030000D02*
X57905000Y-55029000D01*
X57905000Y-55029000D02*
X57907000Y-55028000D01*
X57907000Y-55028000D02*
X57910000Y-55027000D01*
X57910000Y-55027000D02*
X57912000Y-55027000D01*
X57912000Y-55027000D02*
X57915000Y-55026000D01*
X57915000Y-55026000D02*
X57917000Y-55026000D01*
X57917000Y-55026000D02*
X57920000Y-55025000D01*
X57920000Y-55025000D02*
X57922000Y-55025000D01*
X57922000Y-55025000D02*
X57925000Y-55025000D01*
X57925000Y-55025000D02*
X58375000Y-55025000D01*
X58375000Y-55025000D02*
X58378000Y-55025000D01*
X58378000Y-55025000D02*
X58380000Y-55025000D01*
X58380000Y-55025000D02*
X58383000Y-55026000D01*
X58383000Y-55026000D02*
X58385000Y-55026000D01*
X58385000Y-55026000D02*
X58388000Y-55027000D01*
X58388000Y-55027000D02*
X58390000Y-55027000D01*
X58390000Y-55027000D02*
X58393000Y-55028000D01*
X58393000Y-55028000D02*
X58395000Y-55029000D01*
X58395000Y-55029000D02*
X58398000Y-55030000D01*
X58398000Y-55030000D02*
X58400000Y-55032000D01*
X58400000Y-55032000D02*
X58402000Y-55033000D01*
X58402000Y-55033000D02*
X58404000Y-55035000D01*
X58404000Y-55035000D02*
X58406000Y-55036000D01*
X58406000Y-55036000D02*
X58408000Y-55038000D01*
X58408000Y-55038000D02*
X58410000Y-55040000D01*
X58410000Y-55040000D02*
X58412000Y-55042000D01*
X58412000Y-55042000D02*
X58414000Y-55044000D01*
X58414000Y-55044000D02*
X58415000Y-55046000D01*
X58415000Y-55046000D02*
X58417000Y-55048000D01*
X58417000Y-55048000D02*
X58418000Y-55050000D01*
X58418000Y-55050000D02*
X58420000Y-55052000D01*
X58420000Y-55052000D02*
X58421000Y-55055000D01*
X58421000Y-55055000D02*
X58422000Y-55057000D01*
X58422000Y-55057000D02*
X58423000Y-55060000D01*
X58423000Y-55060000D02*
X58423000Y-55062000D01*
X58423000Y-55062000D02*
X58424000Y-55065000D01*
X58424000Y-55065000D02*
X58424000Y-55067000D01*
X58424000Y-55067000D02*
X58425000Y-55070000D01*
X58425000Y-55070000D02*
X58425000Y-55072000D01*
X58425000Y-55072000D02*
X58425000Y-55075000D01*
X58425000Y-55075000D02*
X58425000Y-55225000D01*
X58425000Y-55225000D02*
X58425000Y-55228000D01*
X58425000Y-55228000D02*
X58425000Y-55230000D01*
X58425000Y-55230000D02*
X58424000Y-55233000D01*
X58424000Y-55233000D02*
X58424000Y-55235000D01*
X58424000Y-55235000D02*
X58423000Y-55238000D01*
X58423000Y-55238000D02*
X58423000Y-55240000D01*
X58423000Y-55240000D02*
X58422000Y-55243000D01*
X58422000Y-55243000D02*
X58421000Y-55245000D01*
X58421000Y-55245000D02*
X58420000Y-55248000D01*
X58420000Y-55248000D02*
X58418000Y-55250000D01*
X58418000Y-55250000D02*
X58417000Y-55252000D01*
X58417000Y-55252000D02*
X58415000Y-55254000D01*
X58415000Y-55254000D02*
X58414000Y-55256000D01*
X58414000Y-55256000D02*
X58412000Y-55258000D01*
X58412000Y-55258000D02*
X58410000Y-55260000D01*
X58410000Y-55260000D02*
X58408000Y-55262000D01*
X58408000Y-55262000D02*
X58406000Y-55264000D01*
X58406000Y-55264000D02*
X58404000Y-55265000D01*
X58404000Y-55265000D02*
X58402000Y-55267000D01*
X58402000Y-55267000D02*
X58400000Y-55268000D01*
X58400000Y-55268000D02*
X58398000Y-55270000D01*
X58398000Y-55270000D02*
X58395000Y-55271000D01*
X58395000Y-55271000D02*
X58393000Y-55272000D01*
X58393000Y-55272000D02*
X58390000Y-55273000D01*
X58390000Y-55273000D02*
X58388000Y-55273000D01*
X58388000Y-55273000D02*
X58385000Y-55274000D01*
X58385000Y-55274000D02*
X58383000Y-55274000D01*
X58383000Y-55274000D02*
X58380000Y-55275000D01*
X58380000Y-55275000D02*
X58378000Y-55275000D01*
X58378000Y-55275000D02*
X58375000Y-55275000D01*
X58375000Y-55275000D02*
X58375000Y-55275000D01*
G36*
X58383000Y-55026000D02*
G01*
X58385000Y-55026000D01*
X58388000Y-55027000D01*
X58390000Y-55027000D01*
X58393000Y-55028000D01*
X58395000Y-55029000D01*
X58398000Y-55030000D01*
X58400000Y-55032000D01*
X58402000Y-55033000D01*
X58404000Y-55035000D01*
X58406000Y-55036000D01*
X58414000Y-55044000D01*
X58415000Y-55046000D01*
X58417000Y-55048000D01*
X58418000Y-55050000D01*
X58420000Y-55052000D01*
X58421000Y-55055000D01*
X58422000Y-55057000D01*
X58423000Y-55060000D01*
X58423000Y-55062000D01*
X58424000Y-55065000D01*
X58424000Y-55067000D01*
X58425000Y-55070000D01*
X58425000Y-55230000D01*
X58424000Y-55233000D01*
X58424000Y-55235000D01*
X58423000Y-55238000D01*
X58423000Y-55240000D01*
X58422000Y-55243000D01*
X58421000Y-55245000D01*
X58420000Y-55248000D01*
X58418000Y-55250000D01*
X58417000Y-55252000D01*
X58415000Y-55254000D01*
X58414000Y-55256000D01*
X58406000Y-55264000D01*
X58404000Y-55265000D01*
X58402000Y-55267000D01*
X58400000Y-55268000D01*
X58398000Y-55270000D01*
X58395000Y-55271000D01*
X58393000Y-55272000D01*
X58390000Y-55273000D01*
X58388000Y-55273000D01*
X58385000Y-55274000D01*
X58383000Y-55274000D01*
X58380000Y-55275000D01*
X57920000Y-55275000D01*
X57917000Y-55274000D01*
X57915000Y-55274000D01*
X57912000Y-55273000D01*
X57910000Y-55273000D01*
X57907000Y-55272000D01*
X57905000Y-55271000D01*
X57902000Y-55270000D01*
X57900000Y-55268000D01*
X57898000Y-55267000D01*
X57896000Y-55265000D01*
X57894000Y-55264000D01*
X57886000Y-55256000D01*
X57885000Y-55254000D01*
X57883000Y-55252000D01*
X57882000Y-55250000D01*
X57880000Y-55248000D01*
X57879000Y-55245000D01*
X57878000Y-55243000D01*
X57877000Y-55240000D01*
X57877000Y-55238000D01*
X57876000Y-55235000D01*
X57876000Y-55233000D01*
X57875000Y-55230000D01*
X57875000Y-55070000D01*
X57876000Y-55067000D01*
X57876000Y-55065000D01*
X57877000Y-55062000D01*
X57877000Y-55060000D01*
X57878000Y-55057000D01*
X57879000Y-55055000D01*
X57880000Y-55052000D01*
X57882000Y-55050000D01*
X57883000Y-55048000D01*
X57885000Y-55046000D01*
X57886000Y-55044000D01*
X57894000Y-55036000D01*
X57896000Y-55035000D01*
X57898000Y-55033000D01*
X57900000Y-55032000D01*
X57902000Y-55030000D01*
X57905000Y-55029000D01*
X57907000Y-55028000D01*
X57910000Y-55027000D01*
X57912000Y-55027000D01*
X57915000Y-55026000D01*
X57917000Y-55026000D01*
X57920000Y-55025000D01*
X58380000Y-55025000D01*
X58383000Y-55026000D01*
G37*
X58383000Y-55026000D02*
X58385000Y-55026000D01*
X58388000Y-55027000D01*
X58390000Y-55027000D01*
X58393000Y-55028000D01*
X58395000Y-55029000D01*
X58398000Y-55030000D01*
X58400000Y-55032000D01*
X58402000Y-55033000D01*
X58404000Y-55035000D01*
X58406000Y-55036000D01*
X58414000Y-55044000D01*
X58415000Y-55046000D01*
X58417000Y-55048000D01*
X58418000Y-55050000D01*
X58420000Y-55052000D01*
X58421000Y-55055000D01*
X58422000Y-55057000D01*
X58423000Y-55060000D01*
X58423000Y-55062000D01*
X58424000Y-55065000D01*
X58424000Y-55067000D01*
X58425000Y-55070000D01*
X58425000Y-55230000D01*
X58424000Y-55233000D01*
X58424000Y-55235000D01*
X58423000Y-55238000D01*
X58423000Y-55240000D01*
X58422000Y-55243000D01*
X58421000Y-55245000D01*
X58420000Y-55248000D01*
X58418000Y-55250000D01*
X58417000Y-55252000D01*
X58415000Y-55254000D01*
X58414000Y-55256000D01*
X58406000Y-55264000D01*
X58404000Y-55265000D01*
X58402000Y-55267000D01*
X58400000Y-55268000D01*
X58398000Y-55270000D01*
X58395000Y-55271000D01*
X58393000Y-55272000D01*
X58390000Y-55273000D01*
X58388000Y-55273000D01*
X58385000Y-55274000D01*
X58383000Y-55274000D01*
X58380000Y-55275000D01*
X57920000Y-55275000D01*
X57917000Y-55274000D01*
X57915000Y-55274000D01*
X57912000Y-55273000D01*
X57910000Y-55273000D01*
X57907000Y-55272000D01*
X57905000Y-55271000D01*
X57902000Y-55270000D01*
X57900000Y-55268000D01*
X57898000Y-55267000D01*
X57896000Y-55265000D01*
X57894000Y-55264000D01*
X57886000Y-55256000D01*
X57885000Y-55254000D01*
X57883000Y-55252000D01*
X57882000Y-55250000D01*
X57880000Y-55248000D01*
X57879000Y-55245000D01*
X57878000Y-55243000D01*
X57877000Y-55240000D01*
X57877000Y-55238000D01*
X57876000Y-55235000D01*
X57876000Y-55233000D01*
X57875000Y-55230000D01*
X57875000Y-55070000D01*
X57876000Y-55067000D01*
X57876000Y-55065000D01*
X57877000Y-55062000D01*
X57877000Y-55060000D01*
X57878000Y-55057000D01*
X57879000Y-55055000D01*
X57880000Y-55052000D01*
X57882000Y-55050000D01*
X57883000Y-55048000D01*
X57885000Y-55046000D01*
X57886000Y-55044000D01*
X57894000Y-55036000D01*
X57896000Y-55035000D01*
X57898000Y-55033000D01*
X57900000Y-55032000D01*
X57902000Y-55030000D01*
X57905000Y-55029000D01*
X57907000Y-55028000D01*
X57910000Y-55027000D01*
X57912000Y-55027000D01*
X57915000Y-55026000D01*
X57917000Y-55026000D01*
X57920000Y-55025000D01*
X58380000Y-55025000D01*
X58383000Y-55026000D01*
X57625000Y-55275000D02*
X57175000Y-55275000D01*
X57175000Y-55275000D02*
X57172000Y-55275000D01*
X57172000Y-55275000D02*
X57170000Y-55275000D01*
X57170000Y-55275000D02*
X57167000Y-55274000D01*
X57167000Y-55274000D02*
X57165000Y-55274000D01*
X57165000Y-55274000D02*
X57162000Y-55273000D01*
X57162000Y-55273000D02*
X57160000Y-55273000D01*
X57160000Y-55273000D02*
X57157000Y-55272000D01*
X57157000Y-55272000D02*
X57155000Y-55271000D01*
X57155000Y-55271000D02*
X57152000Y-55270000D01*
X57152000Y-55270000D02*
X57150000Y-55268000D01*
X57150000Y-55268000D02*
X57148000Y-55267000D01*
X57148000Y-55267000D02*
X57146000Y-55265000D01*
X57146000Y-55265000D02*
X57144000Y-55264000D01*
X57144000Y-55264000D02*
X57142000Y-55262000D01*
X57142000Y-55262000D02*
X57140000Y-55260000D01*
X57140000Y-55260000D02*
X57138000Y-55258000D01*
X57138000Y-55258000D02*
X57136000Y-55256000D01*
X57136000Y-55256000D02*
X57135000Y-55254000D01*
X57135000Y-55254000D02*
X57133000Y-55252000D01*
X57133000Y-55252000D02*
X57132000Y-55250000D01*
X57132000Y-55250000D02*
X57130000Y-55248000D01*
X57130000Y-55248000D02*
X57129000Y-55245000D01*
X57129000Y-55245000D02*
X57128000Y-55243000D01*
X57128000Y-55243000D02*
X57127000Y-55240000D01*
X57127000Y-55240000D02*
X57127000Y-55238000D01*
X57127000Y-55238000D02*
X57126000Y-55235000D01*
X57126000Y-55235000D02*
X57126000Y-55233000D01*
X57126000Y-55233000D02*
X57125000Y-55230000D01*
X57125000Y-55230000D02*
X57125000Y-55228000D01*
X57125000Y-55228000D02*
X57125000Y-55225000D01*
X57125000Y-55225000D02*
X57125000Y-55075000D01*
X57125000Y-55075000D02*
X57125000Y-55072000D01*
X57125000Y-55072000D02*
X57125000Y-55070000D01*
X57125000Y-55070000D02*
X57126000Y-55067000D01*
X57126000Y-55067000D02*
X57126000Y-55065000D01*
X57126000Y-55065000D02*
X57127000Y-55062000D01*
X57127000Y-55062000D02*
X57127000Y-55060000D01*
X57127000Y-55060000D02*
X57128000Y-55057000D01*
X57128000Y-55057000D02*
X57129000Y-55055000D01*
X57129000Y-55055000D02*
X57130000Y-55052000D01*
X57130000Y-55052000D02*
X57132000Y-55050000D01*
X57132000Y-55050000D02*
X57133000Y-55048000D01*
X57133000Y-55048000D02*
X57135000Y-55046000D01*
X57135000Y-55046000D02*
X57136000Y-55044000D01*
X57136000Y-55044000D02*
X57138000Y-55042000D01*
X57138000Y-55042000D02*
X57140000Y-55040000D01*
X57140000Y-55040000D02*
X57142000Y-55038000D01*
X57142000Y-55038000D02*
X57144000Y-55036000D01*
X57144000Y-55036000D02*
X57146000Y-55035000D01*
X57146000Y-55035000D02*
X57148000Y-55033000D01*
X57148000Y-55033000D02*
X57150000Y-55032000D01*
X57150000Y-55032000D02*
X57152000Y-55030000D01*
X57152000Y-55030000D02*
X57155000Y-55029000D01*
X57155000Y-55029000D02*
X57157000Y-55028000D01*
X57157000Y-55028000D02*
X57160000Y-55027000D01*
X57160000Y-55027000D02*
X57162000Y-55027000D01*
X57162000Y-55027000D02*
X57165000Y-55026000D01*
X57165000Y-55026000D02*
X57167000Y-55026000D01*
X57167000Y-55026000D02*
X57170000Y-55025000D01*
X57170000Y-55025000D02*
X57172000Y-55025000D01*
X57172000Y-55025000D02*
X57175000Y-55025000D01*
X57175000Y-55025000D02*
X57625000Y-55025000D01*
X57625000Y-55025000D02*
X57628000Y-55025000D01*
X57628000Y-55025000D02*
X57630000Y-55025000D01*
X57630000Y-55025000D02*
X57633000Y-55026000D01*
X57633000Y-55026000D02*
X57635000Y-55026000D01*
X57635000Y-55026000D02*
X57638000Y-55027000D01*
X57638000Y-55027000D02*
X57640000Y-55027000D01*
X57640000Y-55027000D02*
X57643000Y-55028000D01*
X57643000Y-55028000D02*
X57645000Y-55029000D01*
X57645000Y-55029000D02*
X57648000Y-55030000D01*
X57648000Y-55030000D02*
X57650000Y-55032000D01*
X57650000Y-55032000D02*
X57652000Y-55033000D01*
X57652000Y-55033000D02*
X57654000Y-55035000D01*
X57654000Y-55035000D02*
X57656000Y-55036000D01*
X57656000Y-55036000D02*
X57658000Y-55038000D01*
X57658000Y-55038000D02*
X57660000Y-55040000D01*
X57660000Y-55040000D02*
X57662000Y-55042000D01*
X57662000Y-55042000D02*
X57664000Y-55044000D01*
X57664000Y-55044000D02*
X57665000Y-55046000D01*
X57665000Y-55046000D02*
X57667000Y-55048000D01*
X57667000Y-55048000D02*
X57668000Y-55050000D01*
X57668000Y-55050000D02*
X57670000Y-55052000D01*
X57670000Y-55052000D02*
X57671000Y-55055000D01*
X57671000Y-55055000D02*
X57672000Y-55057000D01*
X57672000Y-55057000D02*
X57673000Y-55060000D01*
X57673000Y-55060000D02*
X57673000Y-55062000D01*
X57673000Y-55062000D02*
X57674000Y-55065000D01*
X57674000Y-55065000D02*
X57674000Y-55067000D01*
X57674000Y-55067000D02*
X57675000Y-55070000D01*
X57675000Y-55070000D02*
X57675000Y-55072000D01*
X57675000Y-55072000D02*
X57675000Y-55075000D01*
X57675000Y-55075000D02*
X57675000Y-55225000D01*
X57675000Y-55225000D02*
X57675000Y-55228000D01*
X57675000Y-55228000D02*
X57675000Y-55230000D01*
X57675000Y-55230000D02*
X57674000Y-55233000D01*
X57674000Y-55233000D02*
X57674000Y-55235000D01*
X57674000Y-55235000D02*
X57673000Y-55238000D01*
X57673000Y-55238000D02*
X57673000Y-55240000D01*
X57673000Y-55240000D02*
X57672000Y-55243000D01*
X57672000Y-55243000D02*
X57671000Y-55245000D01*
X57671000Y-55245000D02*
X57670000Y-55248000D01*
X57670000Y-55248000D02*
X57668000Y-55250000D01*
X57668000Y-55250000D02*
X57667000Y-55252000D01*
X57667000Y-55252000D02*
X57665000Y-55254000D01*
X57665000Y-55254000D02*
X57664000Y-55256000D01*
X57664000Y-55256000D02*
X57662000Y-55258000D01*
X57662000Y-55258000D02*
X57660000Y-55260000D01*
X57660000Y-55260000D02*
X57658000Y-55262000D01*
X57658000Y-55262000D02*
X57656000Y-55264000D01*
X57656000Y-55264000D02*
X57654000Y-55265000D01*
X57654000Y-55265000D02*
X57652000Y-55267000D01*
X57652000Y-55267000D02*
X57650000Y-55268000D01*
X57650000Y-55268000D02*
X57648000Y-55270000D01*
X57648000Y-55270000D02*
X57645000Y-55271000D01*
X57645000Y-55271000D02*
X57643000Y-55272000D01*
X57643000Y-55272000D02*
X57640000Y-55273000D01*
X57640000Y-55273000D02*
X57638000Y-55273000D01*
X57638000Y-55273000D02*
X57635000Y-55274000D01*
X57635000Y-55274000D02*
X57633000Y-55274000D01*
X57633000Y-55274000D02*
X57630000Y-55275000D01*
X57630000Y-55275000D02*
X57628000Y-55275000D01*
X57628000Y-55275000D02*
X57625000Y-55275000D01*
X57625000Y-55275000D02*
X57625000Y-55275000D01*
G36*
X57633000Y-55026000D02*
G01*
X57635000Y-55026000D01*
X57638000Y-55027000D01*
X57640000Y-55027000D01*
X57643000Y-55028000D01*
X57645000Y-55029000D01*
X57648000Y-55030000D01*
X57650000Y-55032000D01*
X57652000Y-55033000D01*
X57654000Y-55035000D01*
X57656000Y-55036000D01*
X57664000Y-55044000D01*
X57665000Y-55046000D01*
X57667000Y-55048000D01*
X57668000Y-55050000D01*
X57670000Y-55052000D01*
X57671000Y-55055000D01*
X57672000Y-55057000D01*
X57673000Y-55060000D01*
X57673000Y-55062000D01*
X57674000Y-55065000D01*
X57674000Y-55067000D01*
X57675000Y-55070000D01*
X57675000Y-55230000D01*
X57674000Y-55233000D01*
X57674000Y-55235000D01*
X57673000Y-55238000D01*
X57673000Y-55240000D01*
X57672000Y-55243000D01*
X57671000Y-55245000D01*
X57670000Y-55248000D01*
X57668000Y-55250000D01*
X57667000Y-55252000D01*
X57665000Y-55254000D01*
X57664000Y-55256000D01*
X57656000Y-55264000D01*
X57654000Y-55265000D01*
X57652000Y-55267000D01*
X57650000Y-55268000D01*
X57648000Y-55270000D01*
X57645000Y-55271000D01*
X57643000Y-55272000D01*
X57640000Y-55273000D01*
X57638000Y-55273000D01*
X57635000Y-55274000D01*
X57633000Y-55274000D01*
X57630000Y-55275000D01*
X57170000Y-55275000D01*
X57167000Y-55274000D01*
X57165000Y-55274000D01*
X57162000Y-55273000D01*
X57160000Y-55273000D01*
X57157000Y-55272000D01*
X57155000Y-55271000D01*
X57152000Y-55270000D01*
X57150000Y-55268000D01*
X57148000Y-55267000D01*
X57146000Y-55265000D01*
X57144000Y-55264000D01*
X57136000Y-55256000D01*
X57135000Y-55254000D01*
X57133000Y-55252000D01*
X57132000Y-55250000D01*
X57130000Y-55248000D01*
X57129000Y-55245000D01*
X57128000Y-55243000D01*
X57127000Y-55240000D01*
X57127000Y-55238000D01*
X57126000Y-55235000D01*
X57126000Y-55233000D01*
X57125000Y-55230000D01*
X57125000Y-55070000D01*
X57126000Y-55067000D01*
X57126000Y-55065000D01*
X57127000Y-55062000D01*
X57127000Y-55060000D01*
X57128000Y-55057000D01*
X57129000Y-55055000D01*
X57130000Y-55052000D01*
X57132000Y-55050000D01*
X57133000Y-55048000D01*
X57135000Y-55046000D01*
X57136000Y-55044000D01*
X57144000Y-55036000D01*
X57146000Y-55035000D01*
X57148000Y-55033000D01*
X57150000Y-55032000D01*
X57152000Y-55030000D01*
X57155000Y-55029000D01*
X57157000Y-55028000D01*
X57160000Y-55027000D01*
X57162000Y-55027000D01*
X57165000Y-55026000D01*
X57167000Y-55026000D01*
X57170000Y-55025000D01*
X57630000Y-55025000D01*
X57633000Y-55026000D01*
G37*
X57633000Y-55026000D02*
X57635000Y-55026000D01*
X57638000Y-55027000D01*
X57640000Y-55027000D01*
X57643000Y-55028000D01*
X57645000Y-55029000D01*
X57648000Y-55030000D01*
X57650000Y-55032000D01*
X57652000Y-55033000D01*
X57654000Y-55035000D01*
X57656000Y-55036000D01*
X57664000Y-55044000D01*
X57665000Y-55046000D01*
X57667000Y-55048000D01*
X57668000Y-55050000D01*
X57670000Y-55052000D01*
X57671000Y-55055000D01*
X57672000Y-55057000D01*
X57673000Y-55060000D01*
X57673000Y-55062000D01*
X57674000Y-55065000D01*
X57674000Y-55067000D01*
X57675000Y-55070000D01*
X57675000Y-55230000D01*
X57674000Y-55233000D01*
X57674000Y-55235000D01*
X57673000Y-55238000D01*
X57673000Y-55240000D01*
X57672000Y-55243000D01*
X57671000Y-55245000D01*
X57670000Y-55248000D01*
X57668000Y-55250000D01*
X57667000Y-55252000D01*
X57665000Y-55254000D01*
X57664000Y-55256000D01*
X57656000Y-55264000D01*
X57654000Y-55265000D01*
X57652000Y-55267000D01*
X57650000Y-55268000D01*
X57648000Y-55270000D01*
X57645000Y-55271000D01*
X57643000Y-55272000D01*
X57640000Y-55273000D01*
X57638000Y-55273000D01*
X57635000Y-55274000D01*
X57633000Y-55274000D01*
X57630000Y-55275000D01*
X57170000Y-55275000D01*
X57167000Y-55274000D01*
X57165000Y-55274000D01*
X57162000Y-55273000D01*
X57160000Y-55273000D01*
X57157000Y-55272000D01*
X57155000Y-55271000D01*
X57152000Y-55270000D01*
X57150000Y-55268000D01*
X57148000Y-55267000D01*
X57146000Y-55265000D01*
X57144000Y-55264000D01*
X57136000Y-55256000D01*
X57135000Y-55254000D01*
X57133000Y-55252000D01*
X57132000Y-55250000D01*
X57130000Y-55248000D01*
X57129000Y-55245000D01*
X57128000Y-55243000D01*
X57127000Y-55240000D01*
X57127000Y-55238000D01*
X57126000Y-55235000D01*
X57126000Y-55233000D01*
X57125000Y-55230000D01*
X57125000Y-55070000D01*
X57126000Y-55067000D01*
X57126000Y-55065000D01*
X57127000Y-55062000D01*
X57127000Y-55060000D01*
X57128000Y-55057000D01*
X57129000Y-55055000D01*
X57130000Y-55052000D01*
X57132000Y-55050000D01*
X57133000Y-55048000D01*
X57135000Y-55046000D01*
X57136000Y-55044000D01*
X57144000Y-55036000D01*
X57146000Y-55035000D01*
X57148000Y-55033000D01*
X57150000Y-55032000D01*
X57152000Y-55030000D01*
X57155000Y-55029000D01*
X57157000Y-55028000D01*
X57160000Y-55027000D01*
X57162000Y-55027000D01*
X57165000Y-55026000D01*
X57167000Y-55026000D01*
X57170000Y-55025000D01*
X57630000Y-55025000D01*
X57633000Y-55026000D01*
%TD*%
D11*
%TO.C,J1*%
X64070000Y-65750000D03*
X64070000Y-65250000D03*
X64070000Y-64750000D03*
X64070000Y-64250000D03*
X64070000Y-63750000D03*
X64070000Y-63250000D03*
X64070000Y-62750000D03*
X64070000Y-62250000D03*
X64070000Y-61750000D03*
X64070000Y-61250000D03*
%TD*%
D12*
%TO.C,C12*%
X59700000Y-50850000D03*
X59700000Y-52750000D03*
%TD*%
D13*
%TO.C,R3*%
X52950000Y-65225000D03*
X52950000Y-63650000D03*
%TD*%
D14*
%TO.C,D2*%
X52950000Y-60462500D03*
X52950000Y-62337500D03*
%TD*%
D15*
%TO.C,C5*%
X56412500Y-57550000D03*
X57987500Y-57550000D03*
%TD*%
D16*
%TO.C,C7*%
X51500000Y-57450000D03*
X53400000Y-57450000D03*
%TD*%
D15*
%TO.C,C8*%
X56312500Y-52825000D03*
X57887500Y-52825000D03*
%TD*%
D17*
%TO.C,R4*%
X54875000Y-55875000D03*
X54875000Y-57450000D03*
%TD*%
%TO.C,R5*%
X53700000Y-53212500D03*
X53700000Y-54787500D03*
%TD*%
D18*
%TO.C,U7*%
X56325000Y-54150000D03*
X56325000Y-54650000D03*
X56325000Y-55150000D03*
X56325000Y-55650000D03*
X56325000Y-56150000D03*
D19*
X57975000Y-56150000D03*
X57975000Y-55650000D03*
X57975000Y-54650000D03*
X57975000Y-54150000D03*
%TD*%
D20*
%TO.C,L2*%
X59725000Y-54312500D03*
X59725000Y-56187500D03*
%TD*%
D21*
%TO.C,C3*%
X73862500Y-51650000D03*
X75737500Y-51650000D03*
%TD*%
D22*
%TO.C,C6*%
X68450000Y-50700000D03*
X66875000Y-50700000D03*
%TD*%
%TO.C,C19*%
X72300000Y-55900000D03*
X70725000Y-55900000D03*
%TD*%
D23*
%TO.C,L3*%
X71500000Y-51600000D03*
X71500000Y-54400000D03*
%TD*%
D15*
%TO.C,ROV3*%
X64100000Y-50700000D03*
X65675000Y-50700000D03*
%TD*%
D13*
%TO.C,ROV4*%
X62850000Y-52287500D03*
X62850000Y-50712500D03*
%TD*%
D15*
%TO.C,C9*%
X59012500Y-62760000D03*
X60587500Y-62760000D03*
%TD*%
%TO.C,C20*%
X59000000Y-64080000D03*
X60575000Y-64080000D03*
%TD*%
%TO.C,C15*%
X67475000Y-57550000D03*
X69050000Y-57550000D03*
%TD*%
D24*
%TO.C,C2*%
X72350000Y-57510000D03*
X70450000Y-57510000D03*
%TD*%
D25*
%TO.C,C25*%
X68825000Y-76050000D03*
X67275000Y-76050000D03*
%TD*%
D26*
%TO.C,C26*%
X59850000Y-68950000D03*
X61400000Y-68950000D03*
%TD*%
D27*
%TO.C,U6*%
X62970000Y-70635000D03*
X63470000Y-70635000D03*
X63970000Y-70635000D03*
X64470000Y-70635000D03*
X64970000Y-70635000D03*
D28*
X65195000Y-69910000D03*
X65195000Y-69410000D03*
X65195000Y-68910000D03*
D27*
X64970000Y-68185000D03*
X64470000Y-68185000D03*
X63970000Y-68185000D03*
X63470000Y-68185000D03*
X62970000Y-68185000D03*
D28*
X62745000Y-68910000D03*
X62745000Y-69410000D03*
X62745000Y-69910000D03*
%TD*%
D29*
%TO.C,D1*%
X73850000Y-56200000D03*
X76350000Y-56200000D03*
%TD*%
%TO.C,D3*%
X73850000Y-54250000D03*
X76350000Y-54250000D03*
%TD*%
D30*
%TO.C,U5*%
X66492893Y-54100000D03*
X67200000Y-53392893D03*
X67200000Y-54807107D03*
X67907107Y-54100000D03*
D31*
X69100349Y-53613864D03*
X68746796Y-53260311D03*
X68393243Y-52906757D03*
X68039689Y-52553204D03*
X67686136Y-52199651D03*
D32*
X66713864Y-52199651D03*
X66360311Y-52553204D03*
X66006757Y-52906757D03*
X65653204Y-53260311D03*
X65299651Y-53613864D03*
D31*
X65299651Y-54586136D03*
X65653204Y-54939689D03*
X66006757Y-55293243D03*
X66360311Y-55646796D03*
X66713864Y-56000349D03*
D32*
X67686136Y-56000349D03*
X68039689Y-55646796D03*
X68393243Y-55293243D03*
X68746796Y-54939689D03*
X69100349Y-54586136D03*
%TD*%
D25*
%TO.C,C16*%
X113025000Y-69200000D03*
X111475000Y-69200000D03*
%TD*%
D33*
%TO.C,R2*%
X110250000Y-69200000D03*
X108600000Y-69200000D03*
%TD*%
%TO.C,R6*%
X113150000Y-70500000D03*
X111500000Y-70500000D03*
%TD*%
%TO.C,R12*%
X110400000Y-71850000D03*
X108750000Y-71850000D03*
%TD*%
D34*
%TO.C,R15*%
X64350000Y-58200000D03*
X64350000Y-56550000D03*
%TD*%
D33*
%TO.C,R13*%
X113225000Y-73400000D03*
X111575000Y-73400000D03*
%TD*%
D25*
%TO.C,C23*%
X113175000Y-71850000D03*
X111625000Y-71850000D03*
%TD*%
D35*
%TO.C,C28*%
X62950000Y-58200000D03*
X62950000Y-56650000D03*
%TD*%
D34*
%TO.C,R14*%
X61650000Y-56625000D03*
X61650000Y-54975000D03*
%TD*%
D36*
%TO.C,C1*%
X120350000Y-59040000D03*
X120350000Y-60010000D03*
%TD*%
D37*
%TO.C,U2*%
X108950000Y-52300000D03*
D38*
X108950000Y-53400000D03*
X108950000Y-54500000D03*
X108950000Y-55600000D03*
X108950000Y-56700000D03*
X108950000Y-57800000D03*
X108950000Y-58900000D03*
X108950000Y-60000000D03*
D37*
X108950000Y-61100000D03*
X118450000Y-61100000D03*
D38*
X118450000Y-60000000D03*
X118450000Y-58900000D03*
X118450000Y-57800000D03*
X118450000Y-56700000D03*
X118450000Y-55600000D03*
X118450000Y-54500000D03*
X118450000Y-53400000D03*
D37*
X118450000Y-52300000D03*
%TD*%
D39*
%TO.C,AE1*%
X122350000Y-62850000D03*
D40*
X122850000Y-66050000D03*
D39*
X123350000Y-62850000D03*
%TD*%
D26*
%TO.C,C21*%
X108500000Y-62900000D03*
X110050000Y-62900000D03*
%TD*%
D25*
%TO.C,C10*%
X63510000Y-75930000D03*
X61960000Y-75930000D03*
%TD*%
D16*
%TO.C,C13*%
X108500000Y-64650000D03*
X110400000Y-64650000D03*
%TD*%
D41*
%TO.C,U1*%
X69026894Y-72351786D03*
D42*
X69422874Y-72662913D03*
X69776427Y-73016466D03*
X70129981Y-73370019D03*
X70483534Y-73723573D03*
X70837087Y-74077126D03*
D43*
X71148214Y-74473106D03*
D44*
X71851786Y-74473106D03*
D45*
X72162913Y-74077126D03*
X72516466Y-73723573D03*
X72870019Y-73370019D03*
X73223573Y-73016466D03*
X73577126Y-72662913D03*
D46*
X73973106Y-72351786D03*
D47*
X73973106Y-71648214D03*
D42*
X73577126Y-71337087D03*
X73223573Y-70983534D03*
X72870019Y-70629981D03*
X72516466Y-70276427D03*
X72162913Y-69922874D03*
D48*
X71851786Y-69526894D03*
D49*
X71148214Y-69526894D03*
D45*
X70837087Y-69922874D03*
X70483534Y-70276427D03*
X70129981Y-70629981D03*
X69776427Y-70983534D03*
X69422874Y-71337087D03*
D50*
X69026894Y-71648214D03*
%TD*%
D25*
%TO.C,C18*%
X56150000Y-74300000D03*
X54600000Y-74300000D03*
%TD*%
D26*
%TO.C,C11*%
X74475000Y-69850000D03*
X76025000Y-69850000D03*
%TD*%
D25*
%TO.C,C4*%
X63545000Y-73420000D03*
X61995000Y-73420000D03*
%TD*%
D34*
%TO.C,R1*%
X59950000Y-75125000D03*
X59950000Y-73475000D03*
%TD*%
D51*
%TO.C,Y1*%
X65330000Y-75940000D03*
X65330000Y-73440000D03*
%TD*%
M02*
