%TF.GenerationSoftware,KiCad,Pcbnew,(6.0.0)*%
%TF.CreationDate,2022-02-06T18:07:19-07:00*%
%TF.ProjectId,SolarGPS,536f6c61-7247-4505-932e-6b696361645f,rev?*%
%TF.SameCoordinates,Original*%
%TF.FileFunction,Soldermask,Top*%
%TF.FilePolarity,Negative*%
%FSLAX46Y46*%
G04 Gerber Fmt 4.6, Leading zero omitted, Abs format (unit mm)*
G04 Created by KiCad (PCBNEW (6.0.0)) date 2022-02-06 18:07:19*
%MOMM*%
%LPD*%
G01*
G04 APERTURE LIST*
G04 Aperture macros list*
%AMRoundRect*
0 Rectangle with rounded corners*
0 $1 Rounding radius*
0 $2 $3 $4 $5 $6 $7 $8 $9 X,Y pos of 4 corners*
0 Add a 4 corners polygon primitive as box body*
4,1,4,$2,$3,$4,$5,$6,$7,$8,$9,$2,$3,0*
0 Add four circle primitives for the rounded corners*
1,1,$1+$1,$2,$3*
1,1,$1+$1,$4,$5*
1,1,$1+$1,$6,$7*
1,1,$1+$1,$8,$9*
0 Add four rect primitives between the rounded corners*
20,1,$1+$1,$2,$3,$4,$5,0*
20,1,$1+$1,$4,$5,$6,$7,0*
20,1,$1+$1,$6,$7,$8,$9,0*
20,1,$1+$1,$8,$9,$2,$3,0*%
%AMRotRect*
0 Rectangle, with rotation*
0 The origin of the aperture is its center*
0 $1 length*
0 $2 width*
0 $3 Rotation angle, in degrees counterclockwise*
0 Add horizontal line*
21,1,$1,$2,0,0,$3*%
%AMOutline4P*
0 Free polygon, 4 corners , with rotation*
0 The origin of the aperture is its center*
0 number of corners: always 4*
0 $1 to $8 corner X, Y*
0 $9 Rotation angle, in degrees counterclockwise*
0 create outline with 4 corners*
4,1,4,$1,$2,$3,$4,$5,$6,$7,$8,$1,$2,$9*%
%AMFreePoly0*
4,1,17,0.230680,0.111820,0.364318,-0.021819,0.364320,-0.021820,0.364320,-0.021821,0.377501,-0.053640,0.377500,-0.053642,0.377500,-0.080000,0.364320,-0.111820,0.332500,-0.125000,-0.332500,-0.125000,-0.364320,-0.111820,-0.377500,-0.080000,-0.377500,0.080000,-0.364320,0.111820,-0.332500,0.125000,0.198860,0.125000,0.230680,0.111820,0.230680,0.111820,$1*%
%AMFreePoly1*
4,1,17,0.364320,0.111820,0.377500,0.080000,0.377500,0.053642,0.377501,0.053640,0.369779,0.035000,0.364320,0.021820,0.364318,0.021819,0.230680,-0.111820,0.198860,-0.125000,-0.332500,-0.125000,-0.364320,-0.111820,-0.377500,-0.080000,-0.377500,0.080000,-0.364320,0.111820,-0.332500,0.125000,0.332500,0.125000,0.364320,0.111820,0.364320,0.111820,$1*%
%AMFreePoly2*
4,1,17,0.053642,0.377500,0.080000,0.377500,0.111820,0.364320,0.125000,0.332500,0.125000,-0.332500,0.111820,-0.364320,0.080000,-0.377500,-0.080000,-0.377500,-0.111820,-0.364320,-0.125000,-0.332500,-0.125000,0.198860,-0.111820,0.230680,0.021819,0.364318,0.021820,0.364320,0.031140,0.368181,0.053640,0.377501,0.053642,0.377500,0.053642,0.377500,$1*%
%AMFreePoly3*
4,1,17,-0.021820,0.364320,0.111818,0.230681,0.111820,0.230680,0.111820,0.230679,0.125001,0.198860,0.125000,0.198858,0.125000,-0.332500,0.111820,-0.364320,0.080000,-0.377500,-0.080000,-0.377500,-0.111820,-0.364320,-0.125000,-0.332500,-0.125000,0.332500,-0.111820,0.364320,-0.080000,0.377500,-0.053640,0.377500,-0.021820,0.364320,-0.021820,0.364320,$1*%
%AMFreePoly4*
4,1,17,0.364320,0.111820,0.377500,0.080000,0.377500,-0.080000,0.364320,-0.111820,0.332500,-0.125000,-0.198858,-0.125000,-0.198860,-0.125001,-0.221360,-0.115681,-0.230680,-0.111820,-0.230681,-0.111818,-0.364320,0.021820,-0.377500,0.053640,-0.377500,0.080000,-0.364320,0.111820,-0.332500,0.125000,0.332500,0.125000,0.364320,0.111820,0.364320,0.111820,$1*%
%AMFreePoly5*
4,1,17,-0.198858,0.125000,0.332500,0.125000,0.364320,0.111820,0.377500,0.080000,0.377500,-0.080000,0.364320,-0.111820,0.332500,-0.125000,-0.332500,-0.125000,-0.364320,-0.111820,-0.377500,-0.080000,-0.377500,-0.053640,-0.364320,-0.021820,-0.230681,0.111818,-0.230680,0.111820,-0.221360,0.115681,-0.198860,0.125001,-0.198858,0.125000,-0.198858,0.125000,$1*%
%AMFreePoly6*
4,1,17,0.111820,0.364320,0.125000,0.332500,0.125000,-0.198858,0.125001,-0.198860,0.115681,-0.221360,0.111820,-0.230680,0.111818,-0.230681,-0.021820,-0.364320,-0.053640,-0.377500,-0.080000,-0.377500,-0.111820,-0.364320,-0.125000,-0.332500,-0.125000,0.332500,-0.111820,0.364320,-0.080000,0.377500,0.080000,0.377500,0.111820,0.364320,0.111820,0.364320,$1*%
%AMFreePoly7*
4,1,17,0.111820,0.364320,0.125000,0.332500,0.125000,-0.332500,0.111820,-0.364320,0.080000,-0.377500,0.053642,-0.377500,0.053640,-0.377501,0.031140,-0.368181,0.021820,-0.364320,0.021819,-0.364318,-0.111820,-0.230680,-0.125000,-0.198860,-0.125000,0.332500,-0.111820,0.364320,-0.080000,0.377500,0.080000,0.377500,0.111820,0.364320,0.111820,0.364320,$1*%
G04 Aperture macros list end*
%ADD10C,0.010000*%
%ADD11RoundRect,0.250000X-0.325000X-0.650000X0.325000X-0.650000X0.325000X0.650000X-0.325000X0.650000X0*%
%ADD12RoundRect,0.218750X0.218750X0.256250X-0.218750X0.256250X-0.218750X-0.256250X0.218750X-0.256250X0*%
%ADD13RoundRect,0.243750X-0.243750X-0.456250X0.243750X-0.456250X0.243750X0.456250X-0.243750X0.456250X0*%
%ADD14RoundRect,0.218750X-0.218750X-0.256250X0.218750X-0.256250X0.218750X0.256250X-0.218750X0.256250X0*%
%ADD15RoundRect,0.250000X0.650000X-0.325000X0.650000X0.325000X-0.650000X0.325000X-0.650000X-0.325000X0*%
%ADD16RoundRect,0.243750X-0.656250X0.243750X-0.656250X-0.243750X0.656250X-0.243750X0.656250X0.243750X0*%
%ADD17RoundRect,0.250000X-1.075000X0.375000X-1.075000X-0.375000X1.075000X-0.375000X1.075000X0.375000X0*%
%ADD18RoundRect,0.218750X0.256250X-0.218750X0.256250X0.218750X-0.256250X0.218750X-0.256250X-0.218750X0*%
%ADD19RoundRect,0.250000X0.250000X0.475000X-0.250000X0.475000X-0.250000X-0.475000X0.250000X-0.475000X0*%
%ADD20RoundRect,0.225000X0.225000X0.250000X-0.225000X0.250000X-0.225000X-0.250000X0.225000X-0.250000X0*%
%ADD21RoundRect,0.225000X-0.225000X-0.250000X0.225000X-0.250000X0.225000X0.250000X-0.225000X0.250000X0*%
%ADD22RoundRect,0.087500X0.087500X-0.187500X0.087500X0.187500X-0.087500X0.187500X-0.087500X-0.187500X0*%
%ADD23RoundRect,0.087500X0.187500X-0.087500X0.187500X0.087500X-0.187500X0.087500X-0.187500X-0.087500X0*%
%ADD24RoundRect,0.120000X2.000000X-0.150000X2.000000X0.150000X-2.000000X0.150000X-2.000000X-0.150000X0*%
%ADD25R,1.000000X1.000000*%
%ADD26RoundRect,0.062500X0.220971X0.309359X-0.309359X-0.220971X-0.220971X-0.309359X0.309359X0.220971X0*%
%ADD27RoundRect,0.062500X-0.220971X0.309359X-0.309359X0.220971X0.220971X-0.309359X0.309359X-0.220971X0*%
%ADD28RotRect,2.000000X2.000000X225.000000*%
%ADD29RoundRect,0.200000X0.200000X0.275000X-0.200000X0.275000X-0.200000X-0.275000X0.200000X-0.275000X0*%
%ADD30RoundRect,0.200000X0.275000X-0.200000X0.275000X0.200000X-0.275000X0.200000X-0.275000X-0.200000X0*%
%ADD31RoundRect,0.225000X0.250000X-0.225000X0.250000X0.225000X-0.250000X0.225000X-0.250000X-0.225000X0*%
%ADD32RoundRect,0.147500X-0.172500X0.147500X-0.172500X-0.147500X0.172500X-0.147500X0.172500X0.147500X0*%
%ADD33RoundRect,0.175000X-0.725000X-0.175000X0.725000X-0.175000X0.725000X0.175000X-0.725000X0.175000X0*%
%ADD34RoundRect,0.200000X-0.700000X-0.200000X0.700000X-0.200000X0.700000X0.200000X-0.700000X0.200000X0*%
%ADD35Outline4P,-0.400000X-0.325000X0.400000X-0.325000X0.400000X0.325000X-0.400000X0.325000X90.000000*%
%ADD36Outline4P,-0.400000X-0.800000X0.400000X-0.800000X0.400000X0.800000X-0.400000X0.800000X90.000000*%
%ADD37RoundRect,0.250000X-0.250000X-0.475000X0.250000X-0.475000X0.250000X0.475000X-0.250000X0.475000X0*%
%ADD38FreePoly0,45.000000*%
%ADD39RoundRect,0.062500X-0.220971X-0.309359X0.309359X0.220971X0.220971X0.309359X-0.309359X-0.220971X0*%
%ADD40FreePoly1,45.000000*%
%ADD41FreePoly2,45.000000*%
%ADD42RoundRect,0.062500X0.220971X-0.309359X0.309359X-0.220971X-0.220971X0.309359X-0.309359X0.220971X0*%
%ADD43FreePoly3,45.000000*%
%ADD44FreePoly4,45.000000*%
%ADD45FreePoly5,45.000000*%
%ADD46FreePoly6,45.000000*%
%ADD47FreePoly7,45.000000*%
%ADD48R,1.700000X1.700000*%
%ADD49O,1.700000X1.700000*%
%ADD50C,0.990600*%
%ADD51C,0.787400*%
%ADD52R,1.800000X1.000000*%
%ADD53C,3.000000*%
%ADD54C,1.524000*%
G04 APERTURE END LIST*
D10*
%TO.C,U7*%
X56695000Y-55575000D02*
X56695000Y-55725000D01*
X56695000Y-55725000D02*
X56695000Y-55731000D01*
X56695000Y-55731000D02*
X56694000Y-55738000D01*
X56694000Y-55738000D02*
X56694000Y-55744000D01*
X56694000Y-55744000D02*
X56692000Y-55750000D01*
X56692000Y-55750000D02*
X56691000Y-55756000D01*
X56691000Y-55756000D02*
X56689000Y-55762000D01*
X56689000Y-55762000D02*
X56687000Y-55768000D01*
X56687000Y-55768000D02*
X56685000Y-55774000D01*
X56685000Y-55774000D02*
X56682000Y-55779000D01*
X56682000Y-55779000D02*
X56679000Y-55785000D01*
X56679000Y-55785000D02*
X56676000Y-55790000D01*
X56676000Y-55790000D02*
X56672000Y-55796000D01*
X56672000Y-55796000D02*
X56668000Y-55801000D01*
X56668000Y-55801000D02*
X56664000Y-55805000D01*
X56664000Y-55805000D02*
X56660000Y-55810000D01*
X56660000Y-55810000D02*
X56655000Y-55814000D01*
X56655000Y-55814000D02*
X56651000Y-55818000D01*
X56651000Y-55818000D02*
X56646000Y-55822000D01*
X56646000Y-55822000D02*
X56640000Y-55826000D01*
X56640000Y-55826000D02*
X56635000Y-55829000D01*
X56635000Y-55829000D02*
X56629000Y-55832000D01*
X56629000Y-55832000D02*
X56624000Y-55835000D01*
X56624000Y-55835000D02*
X56618000Y-55837000D01*
X56618000Y-55837000D02*
X56612000Y-55839000D01*
X56612000Y-55839000D02*
X56606000Y-55841000D01*
X56606000Y-55841000D02*
X56600000Y-55842000D01*
X56600000Y-55842000D02*
X56594000Y-55844000D01*
X56594000Y-55844000D02*
X56588000Y-55844000D01*
X56588000Y-55844000D02*
X56581000Y-55845000D01*
X56581000Y-55845000D02*
X56575000Y-55845000D01*
X56575000Y-55845000D02*
X56075000Y-55845000D01*
X56075000Y-55845000D02*
X56069000Y-55845000D01*
X56069000Y-55845000D02*
X56062000Y-55844000D01*
X56062000Y-55844000D02*
X56056000Y-55844000D01*
X56056000Y-55844000D02*
X56050000Y-55842000D01*
X56050000Y-55842000D02*
X56044000Y-55841000D01*
X56044000Y-55841000D02*
X56038000Y-55839000D01*
X56038000Y-55839000D02*
X56032000Y-55837000D01*
X56032000Y-55837000D02*
X56026000Y-55835000D01*
X56026000Y-55835000D02*
X56021000Y-55832000D01*
X56021000Y-55832000D02*
X56015000Y-55829000D01*
X56015000Y-55829000D02*
X56010000Y-55826000D01*
X56010000Y-55826000D02*
X56004000Y-55822000D01*
X56004000Y-55822000D02*
X55999000Y-55818000D01*
X55999000Y-55818000D02*
X55995000Y-55814000D01*
X55995000Y-55814000D02*
X55990000Y-55810000D01*
X55990000Y-55810000D02*
X55986000Y-55805000D01*
X55986000Y-55805000D02*
X55982000Y-55801000D01*
X55982000Y-55801000D02*
X55978000Y-55796000D01*
X55978000Y-55796000D02*
X55974000Y-55790000D01*
X55974000Y-55790000D02*
X55971000Y-55785000D01*
X55971000Y-55785000D02*
X55968000Y-55779000D01*
X55968000Y-55779000D02*
X55965000Y-55774000D01*
X55965000Y-55774000D02*
X55963000Y-55768000D01*
X55963000Y-55768000D02*
X55961000Y-55762000D01*
X55961000Y-55762000D02*
X55959000Y-55756000D01*
X55959000Y-55756000D02*
X55958000Y-55750000D01*
X55958000Y-55750000D02*
X55956000Y-55744000D01*
X55956000Y-55744000D02*
X55956000Y-55738000D01*
X55956000Y-55738000D02*
X55955000Y-55731000D01*
X55955000Y-55731000D02*
X55955000Y-55725000D01*
X55955000Y-55725000D02*
X55955000Y-55575000D01*
X55955000Y-55575000D02*
X55955000Y-55569000D01*
X55955000Y-55569000D02*
X55956000Y-55562000D01*
X55956000Y-55562000D02*
X55956000Y-55556000D01*
X55956000Y-55556000D02*
X55958000Y-55550000D01*
X55958000Y-55550000D02*
X55959000Y-55544000D01*
X55959000Y-55544000D02*
X55961000Y-55538000D01*
X55961000Y-55538000D02*
X55963000Y-55532000D01*
X55963000Y-55532000D02*
X55965000Y-55526000D01*
X55965000Y-55526000D02*
X55968000Y-55521000D01*
X55968000Y-55521000D02*
X55971000Y-55515000D01*
X55971000Y-55515000D02*
X55974000Y-55510000D01*
X55974000Y-55510000D02*
X55978000Y-55504000D01*
X55978000Y-55504000D02*
X55982000Y-55499000D01*
X55982000Y-55499000D02*
X55986000Y-55495000D01*
X55986000Y-55495000D02*
X55990000Y-55490000D01*
X55990000Y-55490000D02*
X55995000Y-55486000D01*
X55995000Y-55486000D02*
X55999000Y-55482000D01*
X55999000Y-55482000D02*
X56004000Y-55478000D01*
X56004000Y-55478000D02*
X56010000Y-55474000D01*
X56010000Y-55474000D02*
X56015000Y-55471000D01*
X56015000Y-55471000D02*
X56021000Y-55468000D01*
X56021000Y-55468000D02*
X56026000Y-55465000D01*
X56026000Y-55465000D02*
X56032000Y-55463000D01*
X56032000Y-55463000D02*
X56038000Y-55461000D01*
X56038000Y-55461000D02*
X56044000Y-55459000D01*
X56044000Y-55459000D02*
X56050000Y-55458000D01*
X56050000Y-55458000D02*
X56056000Y-55456000D01*
X56056000Y-55456000D02*
X56062000Y-55456000D01*
X56062000Y-55456000D02*
X56069000Y-55455000D01*
X56069000Y-55455000D02*
X56075000Y-55455000D01*
X56075000Y-55455000D02*
X56575000Y-55455000D01*
X56575000Y-55455000D02*
X56581000Y-55455000D01*
X56581000Y-55455000D02*
X56588000Y-55456000D01*
X56588000Y-55456000D02*
X56594000Y-55456000D01*
X56594000Y-55456000D02*
X56600000Y-55458000D01*
X56600000Y-55458000D02*
X56606000Y-55459000D01*
X56606000Y-55459000D02*
X56612000Y-55461000D01*
X56612000Y-55461000D02*
X56618000Y-55463000D01*
X56618000Y-55463000D02*
X56624000Y-55465000D01*
X56624000Y-55465000D02*
X56629000Y-55468000D01*
X56629000Y-55468000D02*
X56635000Y-55471000D01*
X56635000Y-55471000D02*
X56640000Y-55474000D01*
X56640000Y-55474000D02*
X56646000Y-55478000D01*
X56646000Y-55478000D02*
X56651000Y-55482000D01*
X56651000Y-55482000D02*
X56655000Y-55486000D01*
X56655000Y-55486000D02*
X56660000Y-55490000D01*
X56660000Y-55490000D02*
X56664000Y-55495000D01*
X56664000Y-55495000D02*
X56668000Y-55499000D01*
X56668000Y-55499000D02*
X56672000Y-55504000D01*
X56672000Y-55504000D02*
X56676000Y-55510000D01*
X56676000Y-55510000D02*
X56679000Y-55515000D01*
X56679000Y-55515000D02*
X56682000Y-55521000D01*
X56682000Y-55521000D02*
X56685000Y-55526000D01*
X56685000Y-55526000D02*
X56687000Y-55532000D01*
X56687000Y-55532000D02*
X56689000Y-55538000D01*
X56689000Y-55538000D02*
X56691000Y-55544000D01*
X56691000Y-55544000D02*
X56692000Y-55550000D01*
X56692000Y-55550000D02*
X56694000Y-55556000D01*
X56694000Y-55556000D02*
X56694000Y-55562000D01*
X56694000Y-55562000D02*
X56695000Y-55569000D01*
X56695000Y-55569000D02*
X56695000Y-55575000D01*
X56695000Y-55575000D02*
X56695000Y-55575000D01*
G36*
X56588000Y-55456000D02*
G01*
X56594000Y-55456000D01*
X56600000Y-55458000D01*
X56606000Y-55459000D01*
X56624000Y-55465000D01*
X56629000Y-55468000D01*
X56635000Y-55471000D01*
X56640000Y-55474000D01*
X56646000Y-55478000D01*
X56651000Y-55482000D01*
X56655000Y-55486000D01*
X56660000Y-55490000D01*
X56664000Y-55495000D01*
X56668000Y-55499000D01*
X56672000Y-55504000D01*
X56676000Y-55510000D01*
X56679000Y-55515000D01*
X56682000Y-55521000D01*
X56685000Y-55526000D01*
X56691000Y-55544000D01*
X56692000Y-55550000D01*
X56694000Y-55556000D01*
X56694000Y-55562000D01*
X56695000Y-55569000D01*
X56695000Y-55731000D01*
X56694000Y-55738000D01*
X56694000Y-55744000D01*
X56692000Y-55750000D01*
X56691000Y-55756000D01*
X56685000Y-55774000D01*
X56682000Y-55779000D01*
X56679000Y-55785000D01*
X56676000Y-55790000D01*
X56672000Y-55796000D01*
X56668000Y-55801000D01*
X56664000Y-55805000D01*
X56660000Y-55810000D01*
X56655000Y-55814000D01*
X56651000Y-55818000D01*
X56646000Y-55822000D01*
X56640000Y-55826000D01*
X56635000Y-55829000D01*
X56629000Y-55832000D01*
X56624000Y-55835000D01*
X56606000Y-55841000D01*
X56600000Y-55842000D01*
X56594000Y-55844000D01*
X56588000Y-55844000D01*
X56581000Y-55845000D01*
X56069000Y-55845000D01*
X56062000Y-55844000D01*
X56056000Y-55844000D01*
X56050000Y-55842000D01*
X56044000Y-55841000D01*
X56026000Y-55835000D01*
X56021000Y-55832000D01*
X56015000Y-55829000D01*
X56010000Y-55826000D01*
X56004000Y-55822000D01*
X55999000Y-55818000D01*
X55995000Y-55814000D01*
X55990000Y-55810000D01*
X55986000Y-55805000D01*
X55982000Y-55801000D01*
X55978000Y-55796000D01*
X55974000Y-55790000D01*
X55971000Y-55785000D01*
X55968000Y-55779000D01*
X55965000Y-55774000D01*
X55959000Y-55756000D01*
X55958000Y-55750000D01*
X55956000Y-55744000D01*
X55956000Y-55738000D01*
X55955000Y-55731000D01*
X55955000Y-55569000D01*
X55956000Y-55562000D01*
X55956000Y-55556000D01*
X55958000Y-55550000D01*
X55959000Y-55544000D01*
X55965000Y-55526000D01*
X55968000Y-55521000D01*
X55971000Y-55515000D01*
X55974000Y-55510000D01*
X55978000Y-55504000D01*
X55982000Y-55499000D01*
X55986000Y-55495000D01*
X55990000Y-55490000D01*
X55995000Y-55486000D01*
X55999000Y-55482000D01*
X56004000Y-55478000D01*
X56010000Y-55474000D01*
X56015000Y-55471000D01*
X56021000Y-55468000D01*
X56026000Y-55465000D01*
X56044000Y-55459000D01*
X56050000Y-55458000D01*
X56056000Y-55456000D01*
X56062000Y-55456000D01*
X56069000Y-55455000D01*
X56581000Y-55455000D01*
X56588000Y-55456000D01*
G37*
X56588000Y-55456000D02*
X56594000Y-55456000D01*
X56600000Y-55458000D01*
X56606000Y-55459000D01*
X56624000Y-55465000D01*
X56629000Y-55468000D01*
X56635000Y-55471000D01*
X56640000Y-55474000D01*
X56646000Y-55478000D01*
X56651000Y-55482000D01*
X56655000Y-55486000D01*
X56660000Y-55490000D01*
X56664000Y-55495000D01*
X56668000Y-55499000D01*
X56672000Y-55504000D01*
X56676000Y-55510000D01*
X56679000Y-55515000D01*
X56682000Y-55521000D01*
X56685000Y-55526000D01*
X56691000Y-55544000D01*
X56692000Y-55550000D01*
X56694000Y-55556000D01*
X56694000Y-55562000D01*
X56695000Y-55569000D01*
X56695000Y-55731000D01*
X56694000Y-55738000D01*
X56694000Y-55744000D01*
X56692000Y-55750000D01*
X56691000Y-55756000D01*
X56685000Y-55774000D01*
X56682000Y-55779000D01*
X56679000Y-55785000D01*
X56676000Y-55790000D01*
X56672000Y-55796000D01*
X56668000Y-55801000D01*
X56664000Y-55805000D01*
X56660000Y-55810000D01*
X56655000Y-55814000D01*
X56651000Y-55818000D01*
X56646000Y-55822000D01*
X56640000Y-55826000D01*
X56635000Y-55829000D01*
X56629000Y-55832000D01*
X56624000Y-55835000D01*
X56606000Y-55841000D01*
X56600000Y-55842000D01*
X56594000Y-55844000D01*
X56588000Y-55844000D01*
X56581000Y-55845000D01*
X56069000Y-55845000D01*
X56062000Y-55844000D01*
X56056000Y-55844000D01*
X56050000Y-55842000D01*
X56044000Y-55841000D01*
X56026000Y-55835000D01*
X56021000Y-55832000D01*
X56015000Y-55829000D01*
X56010000Y-55826000D01*
X56004000Y-55822000D01*
X55999000Y-55818000D01*
X55995000Y-55814000D01*
X55990000Y-55810000D01*
X55986000Y-55805000D01*
X55982000Y-55801000D01*
X55978000Y-55796000D01*
X55974000Y-55790000D01*
X55971000Y-55785000D01*
X55968000Y-55779000D01*
X55965000Y-55774000D01*
X55959000Y-55756000D01*
X55958000Y-55750000D01*
X55956000Y-55744000D01*
X55956000Y-55738000D01*
X55955000Y-55731000D01*
X55955000Y-55569000D01*
X55956000Y-55562000D01*
X55956000Y-55556000D01*
X55958000Y-55550000D01*
X55959000Y-55544000D01*
X55965000Y-55526000D01*
X55968000Y-55521000D01*
X55971000Y-55515000D01*
X55974000Y-55510000D01*
X55978000Y-55504000D01*
X55982000Y-55499000D01*
X55986000Y-55495000D01*
X55990000Y-55490000D01*
X55995000Y-55486000D01*
X55999000Y-55482000D01*
X56004000Y-55478000D01*
X56010000Y-55474000D01*
X56015000Y-55471000D01*
X56021000Y-55468000D01*
X56026000Y-55465000D01*
X56044000Y-55459000D01*
X56050000Y-55458000D01*
X56056000Y-55456000D01*
X56062000Y-55456000D01*
X56069000Y-55455000D01*
X56581000Y-55455000D01*
X56588000Y-55456000D01*
X58495000Y-56075000D02*
X58495000Y-56225000D01*
X58495000Y-56225000D02*
X58495000Y-56231000D01*
X58495000Y-56231000D02*
X58494000Y-56238000D01*
X58494000Y-56238000D02*
X58494000Y-56244000D01*
X58494000Y-56244000D02*
X58492000Y-56250000D01*
X58492000Y-56250000D02*
X58491000Y-56256000D01*
X58491000Y-56256000D02*
X58489000Y-56262000D01*
X58489000Y-56262000D02*
X58487000Y-56268000D01*
X58487000Y-56268000D02*
X58485000Y-56274000D01*
X58485000Y-56274000D02*
X58482000Y-56279000D01*
X58482000Y-56279000D02*
X58479000Y-56285000D01*
X58479000Y-56285000D02*
X58476000Y-56290000D01*
X58476000Y-56290000D02*
X58472000Y-56296000D01*
X58472000Y-56296000D02*
X58468000Y-56301000D01*
X58468000Y-56301000D02*
X58464000Y-56305000D01*
X58464000Y-56305000D02*
X58460000Y-56310000D01*
X58460000Y-56310000D02*
X58455000Y-56314000D01*
X58455000Y-56314000D02*
X58451000Y-56318000D01*
X58451000Y-56318000D02*
X58446000Y-56322000D01*
X58446000Y-56322000D02*
X58440000Y-56326000D01*
X58440000Y-56326000D02*
X58435000Y-56329000D01*
X58435000Y-56329000D02*
X58429000Y-56332000D01*
X58429000Y-56332000D02*
X58424000Y-56335000D01*
X58424000Y-56335000D02*
X58418000Y-56337000D01*
X58418000Y-56337000D02*
X58412000Y-56339000D01*
X58412000Y-56339000D02*
X58406000Y-56341000D01*
X58406000Y-56341000D02*
X58400000Y-56342000D01*
X58400000Y-56342000D02*
X58394000Y-56344000D01*
X58394000Y-56344000D02*
X58388000Y-56344000D01*
X58388000Y-56344000D02*
X58381000Y-56345000D01*
X58381000Y-56345000D02*
X58375000Y-56345000D01*
X58375000Y-56345000D02*
X57575000Y-56345000D01*
X57575000Y-56345000D02*
X57569000Y-56345000D01*
X57569000Y-56345000D02*
X57562000Y-56344000D01*
X57562000Y-56344000D02*
X57556000Y-56344000D01*
X57556000Y-56344000D02*
X57550000Y-56342000D01*
X57550000Y-56342000D02*
X57544000Y-56341000D01*
X57544000Y-56341000D02*
X57538000Y-56339000D01*
X57538000Y-56339000D02*
X57532000Y-56337000D01*
X57532000Y-56337000D02*
X57526000Y-56335000D01*
X57526000Y-56335000D02*
X57521000Y-56332000D01*
X57521000Y-56332000D02*
X57515000Y-56329000D01*
X57515000Y-56329000D02*
X57510000Y-56326000D01*
X57510000Y-56326000D02*
X57504000Y-56322000D01*
X57504000Y-56322000D02*
X57499000Y-56318000D01*
X57499000Y-56318000D02*
X57495000Y-56314000D01*
X57495000Y-56314000D02*
X57490000Y-56310000D01*
X57490000Y-56310000D02*
X57486000Y-56305000D01*
X57486000Y-56305000D02*
X57482000Y-56301000D01*
X57482000Y-56301000D02*
X57478000Y-56296000D01*
X57478000Y-56296000D02*
X57474000Y-56290000D01*
X57474000Y-56290000D02*
X57471000Y-56285000D01*
X57471000Y-56285000D02*
X57468000Y-56279000D01*
X57468000Y-56279000D02*
X57465000Y-56274000D01*
X57465000Y-56274000D02*
X57463000Y-56268000D01*
X57463000Y-56268000D02*
X57461000Y-56262000D01*
X57461000Y-56262000D02*
X57459000Y-56256000D01*
X57459000Y-56256000D02*
X57458000Y-56250000D01*
X57458000Y-56250000D02*
X57456000Y-56244000D01*
X57456000Y-56244000D02*
X57456000Y-56238000D01*
X57456000Y-56238000D02*
X57455000Y-56231000D01*
X57455000Y-56231000D02*
X57455000Y-56225000D01*
X57455000Y-56225000D02*
X57455000Y-56075000D01*
X57455000Y-56075000D02*
X57455000Y-56069000D01*
X57455000Y-56069000D02*
X57456000Y-56062000D01*
X57456000Y-56062000D02*
X57456000Y-56056000D01*
X57456000Y-56056000D02*
X57458000Y-56050000D01*
X57458000Y-56050000D02*
X57459000Y-56044000D01*
X57459000Y-56044000D02*
X57461000Y-56038000D01*
X57461000Y-56038000D02*
X57463000Y-56032000D01*
X57463000Y-56032000D02*
X57465000Y-56026000D01*
X57465000Y-56026000D02*
X57468000Y-56021000D01*
X57468000Y-56021000D02*
X57471000Y-56015000D01*
X57471000Y-56015000D02*
X57474000Y-56010000D01*
X57474000Y-56010000D02*
X57478000Y-56004000D01*
X57478000Y-56004000D02*
X57482000Y-55999000D01*
X57482000Y-55999000D02*
X57486000Y-55995000D01*
X57486000Y-55995000D02*
X57490000Y-55990000D01*
X57490000Y-55990000D02*
X57495000Y-55986000D01*
X57495000Y-55986000D02*
X57499000Y-55982000D01*
X57499000Y-55982000D02*
X57504000Y-55978000D01*
X57504000Y-55978000D02*
X57510000Y-55974000D01*
X57510000Y-55974000D02*
X57515000Y-55971000D01*
X57515000Y-55971000D02*
X57521000Y-55968000D01*
X57521000Y-55968000D02*
X57526000Y-55965000D01*
X57526000Y-55965000D02*
X57532000Y-55963000D01*
X57532000Y-55963000D02*
X57538000Y-55961000D01*
X57538000Y-55961000D02*
X57544000Y-55959000D01*
X57544000Y-55959000D02*
X57550000Y-55958000D01*
X57550000Y-55958000D02*
X57556000Y-55956000D01*
X57556000Y-55956000D02*
X57562000Y-55956000D01*
X57562000Y-55956000D02*
X57569000Y-55955000D01*
X57569000Y-55955000D02*
X57575000Y-55955000D01*
X57575000Y-55955000D02*
X58375000Y-55955000D01*
X58375000Y-55955000D02*
X58381000Y-55955000D01*
X58381000Y-55955000D02*
X58388000Y-55956000D01*
X58388000Y-55956000D02*
X58394000Y-55956000D01*
X58394000Y-55956000D02*
X58400000Y-55958000D01*
X58400000Y-55958000D02*
X58406000Y-55959000D01*
X58406000Y-55959000D02*
X58412000Y-55961000D01*
X58412000Y-55961000D02*
X58418000Y-55963000D01*
X58418000Y-55963000D02*
X58424000Y-55965000D01*
X58424000Y-55965000D02*
X58429000Y-55968000D01*
X58429000Y-55968000D02*
X58435000Y-55971000D01*
X58435000Y-55971000D02*
X58440000Y-55974000D01*
X58440000Y-55974000D02*
X58446000Y-55978000D01*
X58446000Y-55978000D02*
X58451000Y-55982000D01*
X58451000Y-55982000D02*
X58455000Y-55986000D01*
X58455000Y-55986000D02*
X58460000Y-55990000D01*
X58460000Y-55990000D02*
X58464000Y-55995000D01*
X58464000Y-55995000D02*
X58468000Y-55999000D01*
X58468000Y-55999000D02*
X58472000Y-56004000D01*
X58472000Y-56004000D02*
X58476000Y-56010000D01*
X58476000Y-56010000D02*
X58479000Y-56015000D01*
X58479000Y-56015000D02*
X58482000Y-56021000D01*
X58482000Y-56021000D02*
X58485000Y-56026000D01*
X58485000Y-56026000D02*
X58487000Y-56032000D01*
X58487000Y-56032000D02*
X58489000Y-56038000D01*
X58489000Y-56038000D02*
X58491000Y-56044000D01*
X58491000Y-56044000D02*
X58492000Y-56050000D01*
X58492000Y-56050000D02*
X58494000Y-56056000D01*
X58494000Y-56056000D02*
X58494000Y-56062000D01*
X58494000Y-56062000D02*
X58495000Y-56069000D01*
X58495000Y-56069000D02*
X58495000Y-56075000D01*
X58495000Y-56075000D02*
X58495000Y-56075000D01*
G36*
X58388000Y-55956000D02*
G01*
X58394000Y-55956000D01*
X58400000Y-55958000D01*
X58406000Y-55959000D01*
X58424000Y-55965000D01*
X58429000Y-55968000D01*
X58435000Y-55971000D01*
X58440000Y-55974000D01*
X58446000Y-55978000D01*
X58451000Y-55982000D01*
X58455000Y-55986000D01*
X58460000Y-55990000D01*
X58464000Y-55995000D01*
X58468000Y-55999000D01*
X58472000Y-56004000D01*
X58476000Y-56010000D01*
X58479000Y-56015000D01*
X58482000Y-56021000D01*
X58485000Y-56026000D01*
X58491000Y-56044000D01*
X58492000Y-56050000D01*
X58494000Y-56056000D01*
X58494000Y-56062000D01*
X58495000Y-56069000D01*
X58495000Y-56231000D01*
X58494000Y-56238000D01*
X58494000Y-56244000D01*
X58492000Y-56250000D01*
X58491000Y-56256000D01*
X58485000Y-56274000D01*
X58482000Y-56279000D01*
X58479000Y-56285000D01*
X58476000Y-56290000D01*
X58472000Y-56296000D01*
X58468000Y-56301000D01*
X58464000Y-56305000D01*
X58460000Y-56310000D01*
X58455000Y-56314000D01*
X58451000Y-56318000D01*
X58446000Y-56322000D01*
X58440000Y-56326000D01*
X58435000Y-56329000D01*
X58429000Y-56332000D01*
X58424000Y-56335000D01*
X58406000Y-56341000D01*
X58400000Y-56342000D01*
X58394000Y-56344000D01*
X58388000Y-56344000D01*
X58381000Y-56345000D01*
X57569000Y-56345000D01*
X57562000Y-56344000D01*
X57556000Y-56344000D01*
X57550000Y-56342000D01*
X57544000Y-56341000D01*
X57526000Y-56335000D01*
X57521000Y-56332000D01*
X57515000Y-56329000D01*
X57510000Y-56326000D01*
X57504000Y-56322000D01*
X57499000Y-56318000D01*
X57495000Y-56314000D01*
X57490000Y-56310000D01*
X57486000Y-56305000D01*
X57482000Y-56301000D01*
X57478000Y-56296000D01*
X57474000Y-56290000D01*
X57471000Y-56285000D01*
X57468000Y-56279000D01*
X57465000Y-56274000D01*
X57459000Y-56256000D01*
X57458000Y-56250000D01*
X57456000Y-56244000D01*
X57456000Y-56238000D01*
X57455000Y-56231000D01*
X57455000Y-56069000D01*
X57456000Y-56062000D01*
X57456000Y-56056000D01*
X57458000Y-56050000D01*
X57459000Y-56044000D01*
X57465000Y-56026000D01*
X57468000Y-56021000D01*
X57471000Y-56015000D01*
X57474000Y-56010000D01*
X57478000Y-56004000D01*
X57482000Y-55999000D01*
X57486000Y-55995000D01*
X57490000Y-55990000D01*
X57495000Y-55986000D01*
X57499000Y-55982000D01*
X57504000Y-55978000D01*
X57510000Y-55974000D01*
X57515000Y-55971000D01*
X57521000Y-55968000D01*
X57526000Y-55965000D01*
X57544000Y-55959000D01*
X57550000Y-55958000D01*
X57556000Y-55956000D01*
X57562000Y-55956000D01*
X57569000Y-55955000D01*
X58381000Y-55955000D01*
X58388000Y-55956000D01*
G37*
X58388000Y-55956000D02*
X58394000Y-55956000D01*
X58400000Y-55958000D01*
X58406000Y-55959000D01*
X58424000Y-55965000D01*
X58429000Y-55968000D01*
X58435000Y-55971000D01*
X58440000Y-55974000D01*
X58446000Y-55978000D01*
X58451000Y-55982000D01*
X58455000Y-55986000D01*
X58460000Y-55990000D01*
X58464000Y-55995000D01*
X58468000Y-55999000D01*
X58472000Y-56004000D01*
X58476000Y-56010000D01*
X58479000Y-56015000D01*
X58482000Y-56021000D01*
X58485000Y-56026000D01*
X58491000Y-56044000D01*
X58492000Y-56050000D01*
X58494000Y-56056000D01*
X58494000Y-56062000D01*
X58495000Y-56069000D01*
X58495000Y-56231000D01*
X58494000Y-56238000D01*
X58494000Y-56244000D01*
X58492000Y-56250000D01*
X58491000Y-56256000D01*
X58485000Y-56274000D01*
X58482000Y-56279000D01*
X58479000Y-56285000D01*
X58476000Y-56290000D01*
X58472000Y-56296000D01*
X58468000Y-56301000D01*
X58464000Y-56305000D01*
X58460000Y-56310000D01*
X58455000Y-56314000D01*
X58451000Y-56318000D01*
X58446000Y-56322000D01*
X58440000Y-56326000D01*
X58435000Y-56329000D01*
X58429000Y-56332000D01*
X58424000Y-56335000D01*
X58406000Y-56341000D01*
X58400000Y-56342000D01*
X58394000Y-56344000D01*
X58388000Y-56344000D01*
X58381000Y-56345000D01*
X57569000Y-56345000D01*
X57562000Y-56344000D01*
X57556000Y-56344000D01*
X57550000Y-56342000D01*
X57544000Y-56341000D01*
X57526000Y-56335000D01*
X57521000Y-56332000D01*
X57515000Y-56329000D01*
X57510000Y-56326000D01*
X57504000Y-56322000D01*
X57499000Y-56318000D01*
X57495000Y-56314000D01*
X57490000Y-56310000D01*
X57486000Y-56305000D01*
X57482000Y-56301000D01*
X57478000Y-56296000D01*
X57474000Y-56290000D01*
X57471000Y-56285000D01*
X57468000Y-56279000D01*
X57465000Y-56274000D01*
X57459000Y-56256000D01*
X57458000Y-56250000D01*
X57456000Y-56244000D01*
X57456000Y-56238000D01*
X57455000Y-56231000D01*
X57455000Y-56069000D01*
X57456000Y-56062000D01*
X57456000Y-56056000D01*
X57458000Y-56050000D01*
X57459000Y-56044000D01*
X57465000Y-56026000D01*
X57468000Y-56021000D01*
X57471000Y-56015000D01*
X57474000Y-56010000D01*
X57478000Y-56004000D01*
X57482000Y-55999000D01*
X57486000Y-55995000D01*
X57490000Y-55990000D01*
X57495000Y-55986000D01*
X57499000Y-55982000D01*
X57504000Y-55978000D01*
X57510000Y-55974000D01*
X57515000Y-55971000D01*
X57521000Y-55968000D01*
X57526000Y-55965000D01*
X57544000Y-55959000D01*
X57550000Y-55958000D01*
X57556000Y-55956000D01*
X57562000Y-55956000D01*
X57569000Y-55955000D01*
X58381000Y-55955000D01*
X58388000Y-55956000D01*
X58495000Y-55075000D02*
X58495000Y-55225000D01*
X58495000Y-55225000D02*
X58495000Y-55231000D01*
X58495000Y-55231000D02*
X58494000Y-55238000D01*
X58494000Y-55238000D02*
X58494000Y-55244000D01*
X58494000Y-55244000D02*
X58492000Y-55250000D01*
X58492000Y-55250000D02*
X58491000Y-55256000D01*
X58491000Y-55256000D02*
X58489000Y-55262000D01*
X58489000Y-55262000D02*
X58487000Y-55268000D01*
X58487000Y-55268000D02*
X58485000Y-55274000D01*
X58485000Y-55274000D02*
X58482000Y-55279000D01*
X58482000Y-55279000D02*
X58479000Y-55285000D01*
X58479000Y-55285000D02*
X58476000Y-55290000D01*
X58476000Y-55290000D02*
X58472000Y-55296000D01*
X58472000Y-55296000D02*
X58468000Y-55301000D01*
X58468000Y-55301000D02*
X58464000Y-55305000D01*
X58464000Y-55305000D02*
X58460000Y-55310000D01*
X58460000Y-55310000D02*
X58455000Y-55314000D01*
X58455000Y-55314000D02*
X58451000Y-55318000D01*
X58451000Y-55318000D02*
X58446000Y-55322000D01*
X58446000Y-55322000D02*
X58440000Y-55326000D01*
X58440000Y-55326000D02*
X58435000Y-55329000D01*
X58435000Y-55329000D02*
X58429000Y-55332000D01*
X58429000Y-55332000D02*
X58424000Y-55335000D01*
X58424000Y-55335000D02*
X58418000Y-55337000D01*
X58418000Y-55337000D02*
X58412000Y-55339000D01*
X58412000Y-55339000D02*
X58406000Y-55341000D01*
X58406000Y-55341000D02*
X58400000Y-55342000D01*
X58400000Y-55342000D02*
X58394000Y-55344000D01*
X58394000Y-55344000D02*
X58388000Y-55344000D01*
X58388000Y-55344000D02*
X58381000Y-55345000D01*
X58381000Y-55345000D02*
X58375000Y-55345000D01*
X58375000Y-55345000D02*
X57175000Y-55345000D01*
X57175000Y-55345000D02*
X57169000Y-55345000D01*
X57169000Y-55345000D02*
X57162000Y-55344000D01*
X57162000Y-55344000D02*
X57156000Y-55344000D01*
X57156000Y-55344000D02*
X57150000Y-55342000D01*
X57150000Y-55342000D02*
X57144000Y-55341000D01*
X57144000Y-55341000D02*
X57138000Y-55339000D01*
X57138000Y-55339000D02*
X57132000Y-55337000D01*
X57132000Y-55337000D02*
X57126000Y-55335000D01*
X57126000Y-55335000D02*
X57121000Y-55332000D01*
X57121000Y-55332000D02*
X57115000Y-55329000D01*
X57115000Y-55329000D02*
X57110000Y-55326000D01*
X57110000Y-55326000D02*
X57104000Y-55322000D01*
X57104000Y-55322000D02*
X57099000Y-55318000D01*
X57099000Y-55318000D02*
X57095000Y-55314000D01*
X57095000Y-55314000D02*
X57090000Y-55310000D01*
X57090000Y-55310000D02*
X57086000Y-55305000D01*
X57086000Y-55305000D02*
X57082000Y-55301000D01*
X57082000Y-55301000D02*
X57078000Y-55296000D01*
X57078000Y-55296000D02*
X57074000Y-55290000D01*
X57074000Y-55290000D02*
X57071000Y-55285000D01*
X57071000Y-55285000D02*
X57068000Y-55279000D01*
X57068000Y-55279000D02*
X57065000Y-55274000D01*
X57065000Y-55274000D02*
X57063000Y-55268000D01*
X57063000Y-55268000D02*
X57061000Y-55262000D01*
X57061000Y-55262000D02*
X57059000Y-55256000D01*
X57059000Y-55256000D02*
X57058000Y-55250000D01*
X57058000Y-55250000D02*
X57056000Y-55244000D01*
X57056000Y-55244000D02*
X57056000Y-55238000D01*
X57056000Y-55238000D02*
X57055000Y-55231000D01*
X57055000Y-55231000D02*
X57055000Y-55225000D01*
X57055000Y-55225000D02*
X57055000Y-55075000D01*
X57055000Y-55075000D02*
X57055000Y-55069000D01*
X57055000Y-55069000D02*
X57056000Y-55062000D01*
X57056000Y-55062000D02*
X57056000Y-55056000D01*
X57056000Y-55056000D02*
X57058000Y-55050000D01*
X57058000Y-55050000D02*
X57059000Y-55044000D01*
X57059000Y-55044000D02*
X57061000Y-55038000D01*
X57061000Y-55038000D02*
X57063000Y-55032000D01*
X57063000Y-55032000D02*
X57065000Y-55026000D01*
X57065000Y-55026000D02*
X57068000Y-55021000D01*
X57068000Y-55021000D02*
X57071000Y-55015000D01*
X57071000Y-55015000D02*
X57074000Y-55010000D01*
X57074000Y-55010000D02*
X57078000Y-55004000D01*
X57078000Y-55004000D02*
X57082000Y-54999000D01*
X57082000Y-54999000D02*
X57086000Y-54995000D01*
X57086000Y-54995000D02*
X57090000Y-54990000D01*
X57090000Y-54990000D02*
X57095000Y-54986000D01*
X57095000Y-54986000D02*
X57099000Y-54982000D01*
X57099000Y-54982000D02*
X57104000Y-54978000D01*
X57104000Y-54978000D02*
X57110000Y-54974000D01*
X57110000Y-54974000D02*
X57115000Y-54971000D01*
X57115000Y-54971000D02*
X57121000Y-54968000D01*
X57121000Y-54968000D02*
X57126000Y-54965000D01*
X57126000Y-54965000D02*
X57132000Y-54963000D01*
X57132000Y-54963000D02*
X57138000Y-54961000D01*
X57138000Y-54961000D02*
X57144000Y-54959000D01*
X57144000Y-54959000D02*
X57150000Y-54958000D01*
X57150000Y-54958000D02*
X57156000Y-54956000D01*
X57156000Y-54956000D02*
X57162000Y-54956000D01*
X57162000Y-54956000D02*
X57169000Y-54955000D01*
X57169000Y-54955000D02*
X57175000Y-54955000D01*
X57175000Y-54955000D02*
X58375000Y-54955000D01*
X58375000Y-54955000D02*
X58381000Y-54955000D01*
X58381000Y-54955000D02*
X58388000Y-54956000D01*
X58388000Y-54956000D02*
X58394000Y-54956000D01*
X58394000Y-54956000D02*
X58400000Y-54958000D01*
X58400000Y-54958000D02*
X58406000Y-54959000D01*
X58406000Y-54959000D02*
X58412000Y-54961000D01*
X58412000Y-54961000D02*
X58418000Y-54963000D01*
X58418000Y-54963000D02*
X58424000Y-54965000D01*
X58424000Y-54965000D02*
X58429000Y-54968000D01*
X58429000Y-54968000D02*
X58435000Y-54971000D01*
X58435000Y-54971000D02*
X58440000Y-54974000D01*
X58440000Y-54974000D02*
X58446000Y-54978000D01*
X58446000Y-54978000D02*
X58451000Y-54982000D01*
X58451000Y-54982000D02*
X58455000Y-54986000D01*
X58455000Y-54986000D02*
X58460000Y-54990000D01*
X58460000Y-54990000D02*
X58464000Y-54995000D01*
X58464000Y-54995000D02*
X58468000Y-54999000D01*
X58468000Y-54999000D02*
X58472000Y-55004000D01*
X58472000Y-55004000D02*
X58476000Y-55010000D01*
X58476000Y-55010000D02*
X58479000Y-55015000D01*
X58479000Y-55015000D02*
X58482000Y-55021000D01*
X58482000Y-55021000D02*
X58485000Y-55026000D01*
X58485000Y-55026000D02*
X58487000Y-55032000D01*
X58487000Y-55032000D02*
X58489000Y-55038000D01*
X58489000Y-55038000D02*
X58491000Y-55044000D01*
X58491000Y-55044000D02*
X58492000Y-55050000D01*
X58492000Y-55050000D02*
X58494000Y-55056000D01*
X58494000Y-55056000D02*
X58494000Y-55062000D01*
X58494000Y-55062000D02*
X58495000Y-55069000D01*
X58495000Y-55069000D02*
X58495000Y-55075000D01*
X58495000Y-55075000D02*
X58495000Y-55075000D01*
G36*
X58388000Y-54956000D02*
G01*
X58394000Y-54956000D01*
X58400000Y-54958000D01*
X58406000Y-54959000D01*
X58424000Y-54965000D01*
X58429000Y-54968000D01*
X58435000Y-54971000D01*
X58440000Y-54974000D01*
X58446000Y-54978000D01*
X58451000Y-54982000D01*
X58455000Y-54986000D01*
X58460000Y-54990000D01*
X58464000Y-54995000D01*
X58468000Y-54999000D01*
X58472000Y-55004000D01*
X58476000Y-55010000D01*
X58479000Y-55015000D01*
X58482000Y-55021000D01*
X58485000Y-55026000D01*
X58491000Y-55044000D01*
X58492000Y-55050000D01*
X58494000Y-55056000D01*
X58494000Y-55062000D01*
X58495000Y-55069000D01*
X58495000Y-55231000D01*
X58494000Y-55238000D01*
X58494000Y-55244000D01*
X58492000Y-55250000D01*
X58491000Y-55256000D01*
X58485000Y-55274000D01*
X58482000Y-55279000D01*
X58479000Y-55285000D01*
X58476000Y-55290000D01*
X58472000Y-55296000D01*
X58468000Y-55301000D01*
X58464000Y-55305000D01*
X58460000Y-55310000D01*
X58455000Y-55314000D01*
X58451000Y-55318000D01*
X58446000Y-55322000D01*
X58440000Y-55326000D01*
X58435000Y-55329000D01*
X58429000Y-55332000D01*
X58424000Y-55335000D01*
X58406000Y-55341000D01*
X58400000Y-55342000D01*
X58394000Y-55344000D01*
X58388000Y-55344000D01*
X58381000Y-55345000D01*
X57169000Y-55345000D01*
X57162000Y-55344000D01*
X57156000Y-55344000D01*
X57150000Y-55342000D01*
X57144000Y-55341000D01*
X57126000Y-55335000D01*
X57121000Y-55332000D01*
X57115000Y-55329000D01*
X57110000Y-55326000D01*
X57104000Y-55322000D01*
X57099000Y-55318000D01*
X57095000Y-55314000D01*
X57090000Y-55310000D01*
X57086000Y-55305000D01*
X57082000Y-55301000D01*
X57078000Y-55296000D01*
X57074000Y-55290000D01*
X57071000Y-55285000D01*
X57068000Y-55279000D01*
X57065000Y-55274000D01*
X57059000Y-55256000D01*
X57058000Y-55250000D01*
X57056000Y-55244000D01*
X57056000Y-55238000D01*
X57055000Y-55231000D01*
X57055000Y-55069000D01*
X57056000Y-55062000D01*
X57056000Y-55056000D01*
X57058000Y-55050000D01*
X57059000Y-55044000D01*
X57065000Y-55026000D01*
X57068000Y-55021000D01*
X57071000Y-55015000D01*
X57074000Y-55010000D01*
X57078000Y-55004000D01*
X57082000Y-54999000D01*
X57086000Y-54995000D01*
X57090000Y-54990000D01*
X57095000Y-54986000D01*
X57099000Y-54982000D01*
X57104000Y-54978000D01*
X57110000Y-54974000D01*
X57115000Y-54971000D01*
X57121000Y-54968000D01*
X57126000Y-54965000D01*
X57144000Y-54959000D01*
X57150000Y-54958000D01*
X57156000Y-54956000D01*
X57162000Y-54956000D01*
X57169000Y-54955000D01*
X58381000Y-54955000D01*
X58388000Y-54956000D01*
G37*
X58388000Y-54956000D02*
X58394000Y-54956000D01*
X58400000Y-54958000D01*
X58406000Y-54959000D01*
X58424000Y-54965000D01*
X58429000Y-54968000D01*
X58435000Y-54971000D01*
X58440000Y-54974000D01*
X58446000Y-54978000D01*
X58451000Y-54982000D01*
X58455000Y-54986000D01*
X58460000Y-54990000D01*
X58464000Y-54995000D01*
X58468000Y-54999000D01*
X58472000Y-55004000D01*
X58476000Y-55010000D01*
X58479000Y-55015000D01*
X58482000Y-55021000D01*
X58485000Y-55026000D01*
X58491000Y-55044000D01*
X58492000Y-55050000D01*
X58494000Y-55056000D01*
X58494000Y-55062000D01*
X58495000Y-55069000D01*
X58495000Y-55231000D01*
X58494000Y-55238000D01*
X58494000Y-55244000D01*
X58492000Y-55250000D01*
X58491000Y-55256000D01*
X58485000Y-55274000D01*
X58482000Y-55279000D01*
X58479000Y-55285000D01*
X58476000Y-55290000D01*
X58472000Y-55296000D01*
X58468000Y-55301000D01*
X58464000Y-55305000D01*
X58460000Y-55310000D01*
X58455000Y-55314000D01*
X58451000Y-55318000D01*
X58446000Y-55322000D01*
X58440000Y-55326000D01*
X58435000Y-55329000D01*
X58429000Y-55332000D01*
X58424000Y-55335000D01*
X58406000Y-55341000D01*
X58400000Y-55342000D01*
X58394000Y-55344000D01*
X58388000Y-55344000D01*
X58381000Y-55345000D01*
X57169000Y-55345000D01*
X57162000Y-55344000D01*
X57156000Y-55344000D01*
X57150000Y-55342000D01*
X57144000Y-55341000D01*
X57126000Y-55335000D01*
X57121000Y-55332000D01*
X57115000Y-55329000D01*
X57110000Y-55326000D01*
X57104000Y-55322000D01*
X57099000Y-55318000D01*
X57095000Y-55314000D01*
X57090000Y-55310000D01*
X57086000Y-55305000D01*
X57082000Y-55301000D01*
X57078000Y-55296000D01*
X57074000Y-55290000D01*
X57071000Y-55285000D01*
X57068000Y-55279000D01*
X57065000Y-55274000D01*
X57059000Y-55256000D01*
X57058000Y-55250000D01*
X57056000Y-55244000D01*
X57056000Y-55238000D01*
X57055000Y-55231000D01*
X57055000Y-55069000D01*
X57056000Y-55062000D01*
X57056000Y-55056000D01*
X57058000Y-55050000D01*
X57059000Y-55044000D01*
X57065000Y-55026000D01*
X57068000Y-55021000D01*
X57071000Y-55015000D01*
X57074000Y-55010000D01*
X57078000Y-55004000D01*
X57082000Y-54999000D01*
X57086000Y-54995000D01*
X57090000Y-54990000D01*
X57095000Y-54986000D01*
X57099000Y-54982000D01*
X57104000Y-54978000D01*
X57110000Y-54974000D01*
X57115000Y-54971000D01*
X57121000Y-54968000D01*
X57126000Y-54965000D01*
X57144000Y-54959000D01*
X57150000Y-54958000D01*
X57156000Y-54956000D01*
X57162000Y-54956000D01*
X57169000Y-54955000D01*
X58381000Y-54955000D01*
X58388000Y-54956000D01*
X58495000Y-54575000D02*
X58495000Y-54725000D01*
X58495000Y-54725000D02*
X58495000Y-54731000D01*
X58495000Y-54731000D02*
X58494000Y-54738000D01*
X58494000Y-54738000D02*
X58494000Y-54744000D01*
X58494000Y-54744000D02*
X58492000Y-54750000D01*
X58492000Y-54750000D02*
X58491000Y-54756000D01*
X58491000Y-54756000D02*
X58489000Y-54762000D01*
X58489000Y-54762000D02*
X58487000Y-54768000D01*
X58487000Y-54768000D02*
X58485000Y-54774000D01*
X58485000Y-54774000D02*
X58482000Y-54779000D01*
X58482000Y-54779000D02*
X58479000Y-54785000D01*
X58479000Y-54785000D02*
X58476000Y-54790000D01*
X58476000Y-54790000D02*
X58472000Y-54796000D01*
X58472000Y-54796000D02*
X58468000Y-54801000D01*
X58468000Y-54801000D02*
X58464000Y-54805000D01*
X58464000Y-54805000D02*
X58460000Y-54810000D01*
X58460000Y-54810000D02*
X58455000Y-54814000D01*
X58455000Y-54814000D02*
X58451000Y-54818000D01*
X58451000Y-54818000D02*
X58446000Y-54822000D01*
X58446000Y-54822000D02*
X58440000Y-54826000D01*
X58440000Y-54826000D02*
X58435000Y-54829000D01*
X58435000Y-54829000D02*
X58429000Y-54832000D01*
X58429000Y-54832000D02*
X58424000Y-54835000D01*
X58424000Y-54835000D02*
X58418000Y-54837000D01*
X58418000Y-54837000D02*
X58412000Y-54839000D01*
X58412000Y-54839000D02*
X58406000Y-54841000D01*
X58406000Y-54841000D02*
X58400000Y-54842000D01*
X58400000Y-54842000D02*
X58394000Y-54844000D01*
X58394000Y-54844000D02*
X58388000Y-54844000D01*
X58388000Y-54844000D02*
X58381000Y-54845000D01*
X58381000Y-54845000D02*
X58375000Y-54845000D01*
X58375000Y-54845000D02*
X57575000Y-54845000D01*
X57575000Y-54845000D02*
X57569000Y-54845000D01*
X57569000Y-54845000D02*
X57562000Y-54844000D01*
X57562000Y-54844000D02*
X57556000Y-54844000D01*
X57556000Y-54844000D02*
X57550000Y-54842000D01*
X57550000Y-54842000D02*
X57544000Y-54841000D01*
X57544000Y-54841000D02*
X57538000Y-54839000D01*
X57538000Y-54839000D02*
X57532000Y-54837000D01*
X57532000Y-54837000D02*
X57526000Y-54835000D01*
X57526000Y-54835000D02*
X57521000Y-54832000D01*
X57521000Y-54832000D02*
X57515000Y-54829000D01*
X57515000Y-54829000D02*
X57510000Y-54826000D01*
X57510000Y-54826000D02*
X57504000Y-54822000D01*
X57504000Y-54822000D02*
X57499000Y-54818000D01*
X57499000Y-54818000D02*
X57495000Y-54814000D01*
X57495000Y-54814000D02*
X57490000Y-54810000D01*
X57490000Y-54810000D02*
X57486000Y-54805000D01*
X57486000Y-54805000D02*
X57482000Y-54801000D01*
X57482000Y-54801000D02*
X57478000Y-54796000D01*
X57478000Y-54796000D02*
X57474000Y-54790000D01*
X57474000Y-54790000D02*
X57471000Y-54785000D01*
X57471000Y-54785000D02*
X57468000Y-54779000D01*
X57468000Y-54779000D02*
X57465000Y-54774000D01*
X57465000Y-54774000D02*
X57463000Y-54768000D01*
X57463000Y-54768000D02*
X57461000Y-54762000D01*
X57461000Y-54762000D02*
X57459000Y-54756000D01*
X57459000Y-54756000D02*
X57458000Y-54750000D01*
X57458000Y-54750000D02*
X57456000Y-54744000D01*
X57456000Y-54744000D02*
X57456000Y-54738000D01*
X57456000Y-54738000D02*
X57455000Y-54731000D01*
X57455000Y-54731000D02*
X57455000Y-54725000D01*
X57455000Y-54725000D02*
X57455000Y-54575000D01*
X57455000Y-54575000D02*
X57455000Y-54569000D01*
X57455000Y-54569000D02*
X57456000Y-54562000D01*
X57456000Y-54562000D02*
X57456000Y-54556000D01*
X57456000Y-54556000D02*
X57458000Y-54550000D01*
X57458000Y-54550000D02*
X57459000Y-54544000D01*
X57459000Y-54544000D02*
X57461000Y-54538000D01*
X57461000Y-54538000D02*
X57463000Y-54532000D01*
X57463000Y-54532000D02*
X57465000Y-54526000D01*
X57465000Y-54526000D02*
X57468000Y-54521000D01*
X57468000Y-54521000D02*
X57471000Y-54515000D01*
X57471000Y-54515000D02*
X57474000Y-54510000D01*
X57474000Y-54510000D02*
X57478000Y-54504000D01*
X57478000Y-54504000D02*
X57482000Y-54499000D01*
X57482000Y-54499000D02*
X57486000Y-54495000D01*
X57486000Y-54495000D02*
X57490000Y-54490000D01*
X57490000Y-54490000D02*
X57495000Y-54486000D01*
X57495000Y-54486000D02*
X57499000Y-54482000D01*
X57499000Y-54482000D02*
X57504000Y-54478000D01*
X57504000Y-54478000D02*
X57510000Y-54474000D01*
X57510000Y-54474000D02*
X57515000Y-54471000D01*
X57515000Y-54471000D02*
X57521000Y-54468000D01*
X57521000Y-54468000D02*
X57526000Y-54465000D01*
X57526000Y-54465000D02*
X57532000Y-54463000D01*
X57532000Y-54463000D02*
X57538000Y-54461000D01*
X57538000Y-54461000D02*
X57544000Y-54459000D01*
X57544000Y-54459000D02*
X57550000Y-54458000D01*
X57550000Y-54458000D02*
X57556000Y-54456000D01*
X57556000Y-54456000D02*
X57562000Y-54456000D01*
X57562000Y-54456000D02*
X57569000Y-54455000D01*
X57569000Y-54455000D02*
X57575000Y-54455000D01*
X57575000Y-54455000D02*
X58375000Y-54455000D01*
X58375000Y-54455000D02*
X58381000Y-54455000D01*
X58381000Y-54455000D02*
X58388000Y-54456000D01*
X58388000Y-54456000D02*
X58394000Y-54456000D01*
X58394000Y-54456000D02*
X58400000Y-54458000D01*
X58400000Y-54458000D02*
X58406000Y-54459000D01*
X58406000Y-54459000D02*
X58412000Y-54461000D01*
X58412000Y-54461000D02*
X58418000Y-54463000D01*
X58418000Y-54463000D02*
X58424000Y-54465000D01*
X58424000Y-54465000D02*
X58429000Y-54468000D01*
X58429000Y-54468000D02*
X58435000Y-54471000D01*
X58435000Y-54471000D02*
X58440000Y-54474000D01*
X58440000Y-54474000D02*
X58446000Y-54478000D01*
X58446000Y-54478000D02*
X58451000Y-54482000D01*
X58451000Y-54482000D02*
X58455000Y-54486000D01*
X58455000Y-54486000D02*
X58460000Y-54490000D01*
X58460000Y-54490000D02*
X58464000Y-54495000D01*
X58464000Y-54495000D02*
X58468000Y-54499000D01*
X58468000Y-54499000D02*
X58472000Y-54504000D01*
X58472000Y-54504000D02*
X58476000Y-54510000D01*
X58476000Y-54510000D02*
X58479000Y-54515000D01*
X58479000Y-54515000D02*
X58482000Y-54521000D01*
X58482000Y-54521000D02*
X58485000Y-54526000D01*
X58485000Y-54526000D02*
X58487000Y-54532000D01*
X58487000Y-54532000D02*
X58489000Y-54538000D01*
X58489000Y-54538000D02*
X58491000Y-54544000D01*
X58491000Y-54544000D02*
X58492000Y-54550000D01*
X58492000Y-54550000D02*
X58494000Y-54556000D01*
X58494000Y-54556000D02*
X58494000Y-54562000D01*
X58494000Y-54562000D02*
X58495000Y-54569000D01*
X58495000Y-54569000D02*
X58495000Y-54575000D01*
X58495000Y-54575000D02*
X58495000Y-54575000D01*
G36*
X58388000Y-54456000D02*
G01*
X58394000Y-54456000D01*
X58400000Y-54458000D01*
X58406000Y-54459000D01*
X58424000Y-54465000D01*
X58429000Y-54468000D01*
X58435000Y-54471000D01*
X58440000Y-54474000D01*
X58446000Y-54478000D01*
X58451000Y-54482000D01*
X58455000Y-54486000D01*
X58460000Y-54490000D01*
X58464000Y-54495000D01*
X58468000Y-54499000D01*
X58472000Y-54504000D01*
X58476000Y-54510000D01*
X58479000Y-54515000D01*
X58482000Y-54521000D01*
X58485000Y-54526000D01*
X58491000Y-54544000D01*
X58492000Y-54550000D01*
X58494000Y-54556000D01*
X58494000Y-54562000D01*
X58495000Y-54569000D01*
X58495000Y-54731000D01*
X58494000Y-54738000D01*
X58494000Y-54744000D01*
X58492000Y-54750000D01*
X58491000Y-54756000D01*
X58485000Y-54774000D01*
X58482000Y-54779000D01*
X58479000Y-54785000D01*
X58476000Y-54790000D01*
X58472000Y-54796000D01*
X58468000Y-54801000D01*
X58464000Y-54805000D01*
X58460000Y-54810000D01*
X58455000Y-54814000D01*
X58451000Y-54818000D01*
X58446000Y-54822000D01*
X58440000Y-54826000D01*
X58435000Y-54829000D01*
X58429000Y-54832000D01*
X58424000Y-54835000D01*
X58406000Y-54841000D01*
X58400000Y-54842000D01*
X58394000Y-54844000D01*
X58388000Y-54844000D01*
X58381000Y-54845000D01*
X57569000Y-54845000D01*
X57562000Y-54844000D01*
X57556000Y-54844000D01*
X57550000Y-54842000D01*
X57544000Y-54841000D01*
X57526000Y-54835000D01*
X57521000Y-54832000D01*
X57515000Y-54829000D01*
X57510000Y-54826000D01*
X57504000Y-54822000D01*
X57499000Y-54818000D01*
X57495000Y-54814000D01*
X57490000Y-54810000D01*
X57486000Y-54805000D01*
X57482000Y-54801000D01*
X57478000Y-54796000D01*
X57474000Y-54790000D01*
X57471000Y-54785000D01*
X57468000Y-54779000D01*
X57465000Y-54774000D01*
X57459000Y-54756000D01*
X57458000Y-54750000D01*
X57456000Y-54744000D01*
X57456000Y-54738000D01*
X57455000Y-54731000D01*
X57455000Y-54569000D01*
X57456000Y-54562000D01*
X57456000Y-54556000D01*
X57458000Y-54550000D01*
X57459000Y-54544000D01*
X57465000Y-54526000D01*
X57468000Y-54521000D01*
X57471000Y-54515000D01*
X57474000Y-54510000D01*
X57478000Y-54504000D01*
X57482000Y-54499000D01*
X57486000Y-54495000D01*
X57490000Y-54490000D01*
X57495000Y-54486000D01*
X57499000Y-54482000D01*
X57504000Y-54478000D01*
X57510000Y-54474000D01*
X57515000Y-54471000D01*
X57521000Y-54468000D01*
X57526000Y-54465000D01*
X57544000Y-54459000D01*
X57550000Y-54458000D01*
X57556000Y-54456000D01*
X57562000Y-54456000D01*
X57569000Y-54455000D01*
X58381000Y-54455000D01*
X58388000Y-54456000D01*
G37*
X58388000Y-54456000D02*
X58394000Y-54456000D01*
X58400000Y-54458000D01*
X58406000Y-54459000D01*
X58424000Y-54465000D01*
X58429000Y-54468000D01*
X58435000Y-54471000D01*
X58440000Y-54474000D01*
X58446000Y-54478000D01*
X58451000Y-54482000D01*
X58455000Y-54486000D01*
X58460000Y-54490000D01*
X58464000Y-54495000D01*
X58468000Y-54499000D01*
X58472000Y-54504000D01*
X58476000Y-54510000D01*
X58479000Y-54515000D01*
X58482000Y-54521000D01*
X58485000Y-54526000D01*
X58491000Y-54544000D01*
X58492000Y-54550000D01*
X58494000Y-54556000D01*
X58494000Y-54562000D01*
X58495000Y-54569000D01*
X58495000Y-54731000D01*
X58494000Y-54738000D01*
X58494000Y-54744000D01*
X58492000Y-54750000D01*
X58491000Y-54756000D01*
X58485000Y-54774000D01*
X58482000Y-54779000D01*
X58479000Y-54785000D01*
X58476000Y-54790000D01*
X58472000Y-54796000D01*
X58468000Y-54801000D01*
X58464000Y-54805000D01*
X58460000Y-54810000D01*
X58455000Y-54814000D01*
X58451000Y-54818000D01*
X58446000Y-54822000D01*
X58440000Y-54826000D01*
X58435000Y-54829000D01*
X58429000Y-54832000D01*
X58424000Y-54835000D01*
X58406000Y-54841000D01*
X58400000Y-54842000D01*
X58394000Y-54844000D01*
X58388000Y-54844000D01*
X58381000Y-54845000D01*
X57569000Y-54845000D01*
X57562000Y-54844000D01*
X57556000Y-54844000D01*
X57550000Y-54842000D01*
X57544000Y-54841000D01*
X57526000Y-54835000D01*
X57521000Y-54832000D01*
X57515000Y-54829000D01*
X57510000Y-54826000D01*
X57504000Y-54822000D01*
X57499000Y-54818000D01*
X57495000Y-54814000D01*
X57490000Y-54810000D01*
X57486000Y-54805000D01*
X57482000Y-54801000D01*
X57478000Y-54796000D01*
X57474000Y-54790000D01*
X57471000Y-54785000D01*
X57468000Y-54779000D01*
X57465000Y-54774000D01*
X57459000Y-54756000D01*
X57458000Y-54750000D01*
X57456000Y-54744000D01*
X57456000Y-54738000D01*
X57455000Y-54731000D01*
X57455000Y-54569000D01*
X57456000Y-54562000D01*
X57456000Y-54556000D01*
X57458000Y-54550000D01*
X57459000Y-54544000D01*
X57465000Y-54526000D01*
X57468000Y-54521000D01*
X57471000Y-54515000D01*
X57474000Y-54510000D01*
X57478000Y-54504000D01*
X57482000Y-54499000D01*
X57486000Y-54495000D01*
X57490000Y-54490000D01*
X57495000Y-54486000D01*
X57499000Y-54482000D01*
X57504000Y-54478000D01*
X57510000Y-54474000D01*
X57515000Y-54471000D01*
X57521000Y-54468000D01*
X57526000Y-54465000D01*
X57544000Y-54459000D01*
X57550000Y-54458000D01*
X57556000Y-54456000D01*
X57562000Y-54456000D01*
X57569000Y-54455000D01*
X58381000Y-54455000D01*
X58388000Y-54456000D01*
X56695000Y-56075000D02*
X56695000Y-56225000D01*
X56695000Y-56225000D02*
X56695000Y-56231000D01*
X56695000Y-56231000D02*
X56694000Y-56238000D01*
X56694000Y-56238000D02*
X56694000Y-56244000D01*
X56694000Y-56244000D02*
X56692000Y-56250000D01*
X56692000Y-56250000D02*
X56691000Y-56256000D01*
X56691000Y-56256000D02*
X56689000Y-56262000D01*
X56689000Y-56262000D02*
X56687000Y-56268000D01*
X56687000Y-56268000D02*
X56685000Y-56274000D01*
X56685000Y-56274000D02*
X56682000Y-56279000D01*
X56682000Y-56279000D02*
X56679000Y-56285000D01*
X56679000Y-56285000D02*
X56676000Y-56290000D01*
X56676000Y-56290000D02*
X56672000Y-56296000D01*
X56672000Y-56296000D02*
X56668000Y-56301000D01*
X56668000Y-56301000D02*
X56664000Y-56305000D01*
X56664000Y-56305000D02*
X56660000Y-56310000D01*
X56660000Y-56310000D02*
X56655000Y-56314000D01*
X56655000Y-56314000D02*
X56651000Y-56318000D01*
X56651000Y-56318000D02*
X56646000Y-56322000D01*
X56646000Y-56322000D02*
X56640000Y-56326000D01*
X56640000Y-56326000D02*
X56635000Y-56329000D01*
X56635000Y-56329000D02*
X56629000Y-56332000D01*
X56629000Y-56332000D02*
X56624000Y-56335000D01*
X56624000Y-56335000D02*
X56618000Y-56337000D01*
X56618000Y-56337000D02*
X56612000Y-56339000D01*
X56612000Y-56339000D02*
X56606000Y-56341000D01*
X56606000Y-56341000D02*
X56600000Y-56342000D01*
X56600000Y-56342000D02*
X56594000Y-56344000D01*
X56594000Y-56344000D02*
X56588000Y-56344000D01*
X56588000Y-56344000D02*
X56581000Y-56345000D01*
X56581000Y-56345000D02*
X56575000Y-56345000D01*
X56575000Y-56345000D02*
X56075000Y-56345000D01*
X56075000Y-56345000D02*
X56069000Y-56345000D01*
X56069000Y-56345000D02*
X56062000Y-56344000D01*
X56062000Y-56344000D02*
X56056000Y-56344000D01*
X56056000Y-56344000D02*
X56050000Y-56342000D01*
X56050000Y-56342000D02*
X56044000Y-56341000D01*
X56044000Y-56341000D02*
X56038000Y-56339000D01*
X56038000Y-56339000D02*
X56032000Y-56337000D01*
X56032000Y-56337000D02*
X56026000Y-56335000D01*
X56026000Y-56335000D02*
X56021000Y-56332000D01*
X56021000Y-56332000D02*
X56015000Y-56329000D01*
X56015000Y-56329000D02*
X56010000Y-56326000D01*
X56010000Y-56326000D02*
X56004000Y-56322000D01*
X56004000Y-56322000D02*
X55999000Y-56318000D01*
X55999000Y-56318000D02*
X55995000Y-56314000D01*
X55995000Y-56314000D02*
X55990000Y-56310000D01*
X55990000Y-56310000D02*
X55986000Y-56305000D01*
X55986000Y-56305000D02*
X55982000Y-56301000D01*
X55982000Y-56301000D02*
X55978000Y-56296000D01*
X55978000Y-56296000D02*
X55974000Y-56290000D01*
X55974000Y-56290000D02*
X55971000Y-56285000D01*
X55971000Y-56285000D02*
X55968000Y-56279000D01*
X55968000Y-56279000D02*
X55965000Y-56274000D01*
X55965000Y-56274000D02*
X55963000Y-56268000D01*
X55963000Y-56268000D02*
X55961000Y-56262000D01*
X55961000Y-56262000D02*
X55959000Y-56256000D01*
X55959000Y-56256000D02*
X55958000Y-56250000D01*
X55958000Y-56250000D02*
X55956000Y-56244000D01*
X55956000Y-56244000D02*
X55956000Y-56238000D01*
X55956000Y-56238000D02*
X55955000Y-56231000D01*
X55955000Y-56231000D02*
X55955000Y-56225000D01*
X55955000Y-56225000D02*
X55955000Y-56075000D01*
X55955000Y-56075000D02*
X55955000Y-56069000D01*
X55955000Y-56069000D02*
X55956000Y-56062000D01*
X55956000Y-56062000D02*
X55956000Y-56056000D01*
X55956000Y-56056000D02*
X55958000Y-56050000D01*
X55958000Y-56050000D02*
X55959000Y-56044000D01*
X55959000Y-56044000D02*
X55961000Y-56038000D01*
X55961000Y-56038000D02*
X55963000Y-56032000D01*
X55963000Y-56032000D02*
X55965000Y-56026000D01*
X55965000Y-56026000D02*
X55968000Y-56021000D01*
X55968000Y-56021000D02*
X55971000Y-56015000D01*
X55971000Y-56015000D02*
X55974000Y-56010000D01*
X55974000Y-56010000D02*
X55978000Y-56004000D01*
X55978000Y-56004000D02*
X55982000Y-55999000D01*
X55982000Y-55999000D02*
X55986000Y-55995000D01*
X55986000Y-55995000D02*
X55990000Y-55990000D01*
X55990000Y-55990000D02*
X55995000Y-55986000D01*
X55995000Y-55986000D02*
X55999000Y-55982000D01*
X55999000Y-55982000D02*
X56004000Y-55978000D01*
X56004000Y-55978000D02*
X56010000Y-55974000D01*
X56010000Y-55974000D02*
X56015000Y-55971000D01*
X56015000Y-55971000D02*
X56021000Y-55968000D01*
X56021000Y-55968000D02*
X56026000Y-55965000D01*
X56026000Y-55965000D02*
X56032000Y-55963000D01*
X56032000Y-55963000D02*
X56038000Y-55961000D01*
X56038000Y-55961000D02*
X56044000Y-55959000D01*
X56044000Y-55959000D02*
X56050000Y-55958000D01*
X56050000Y-55958000D02*
X56056000Y-55956000D01*
X56056000Y-55956000D02*
X56062000Y-55956000D01*
X56062000Y-55956000D02*
X56069000Y-55955000D01*
X56069000Y-55955000D02*
X56075000Y-55955000D01*
X56075000Y-55955000D02*
X56575000Y-55955000D01*
X56575000Y-55955000D02*
X56581000Y-55955000D01*
X56581000Y-55955000D02*
X56588000Y-55956000D01*
X56588000Y-55956000D02*
X56594000Y-55956000D01*
X56594000Y-55956000D02*
X56600000Y-55958000D01*
X56600000Y-55958000D02*
X56606000Y-55959000D01*
X56606000Y-55959000D02*
X56612000Y-55961000D01*
X56612000Y-55961000D02*
X56618000Y-55963000D01*
X56618000Y-55963000D02*
X56624000Y-55965000D01*
X56624000Y-55965000D02*
X56629000Y-55968000D01*
X56629000Y-55968000D02*
X56635000Y-55971000D01*
X56635000Y-55971000D02*
X56640000Y-55974000D01*
X56640000Y-55974000D02*
X56646000Y-55978000D01*
X56646000Y-55978000D02*
X56651000Y-55982000D01*
X56651000Y-55982000D02*
X56655000Y-55986000D01*
X56655000Y-55986000D02*
X56660000Y-55990000D01*
X56660000Y-55990000D02*
X56664000Y-55995000D01*
X56664000Y-55995000D02*
X56668000Y-55999000D01*
X56668000Y-55999000D02*
X56672000Y-56004000D01*
X56672000Y-56004000D02*
X56676000Y-56010000D01*
X56676000Y-56010000D02*
X56679000Y-56015000D01*
X56679000Y-56015000D02*
X56682000Y-56021000D01*
X56682000Y-56021000D02*
X56685000Y-56026000D01*
X56685000Y-56026000D02*
X56687000Y-56032000D01*
X56687000Y-56032000D02*
X56689000Y-56038000D01*
X56689000Y-56038000D02*
X56691000Y-56044000D01*
X56691000Y-56044000D02*
X56692000Y-56050000D01*
X56692000Y-56050000D02*
X56694000Y-56056000D01*
X56694000Y-56056000D02*
X56694000Y-56062000D01*
X56694000Y-56062000D02*
X56695000Y-56069000D01*
X56695000Y-56069000D02*
X56695000Y-56075000D01*
X56695000Y-56075000D02*
X56695000Y-56075000D01*
G36*
X56588000Y-55956000D02*
G01*
X56594000Y-55956000D01*
X56600000Y-55958000D01*
X56606000Y-55959000D01*
X56624000Y-55965000D01*
X56629000Y-55968000D01*
X56635000Y-55971000D01*
X56640000Y-55974000D01*
X56646000Y-55978000D01*
X56651000Y-55982000D01*
X56655000Y-55986000D01*
X56660000Y-55990000D01*
X56664000Y-55995000D01*
X56668000Y-55999000D01*
X56672000Y-56004000D01*
X56676000Y-56010000D01*
X56679000Y-56015000D01*
X56682000Y-56021000D01*
X56685000Y-56026000D01*
X56691000Y-56044000D01*
X56692000Y-56050000D01*
X56694000Y-56056000D01*
X56694000Y-56062000D01*
X56695000Y-56069000D01*
X56695000Y-56231000D01*
X56694000Y-56238000D01*
X56694000Y-56244000D01*
X56692000Y-56250000D01*
X56691000Y-56256000D01*
X56685000Y-56274000D01*
X56682000Y-56279000D01*
X56679000Y-56285000D01*
X56676000Y-56290000D01*
X56672000Y-56296000D01*
X56668000Y-56301000D01*
X56664000Y-56305000D01*
X56660000Y-56310000D01*
X56655000Y-56314000D01*
X56651000Y-56318000D01*
X56646000Y-56322000D01*
X56640000Y-56326000D01*
X56635000Y-56329000D01*
X56629000Y-56332000D01*
X56624000Y-56335000D01*
X56606000Y-56341000D01*
X56600000Y-56342000D01*
X56594000Y-56344000D01*
X56588000Y-56344000D01*
X56581000Y-56345000D01*
X56069000Y-56345000D01*
X56062000Y-56344000D01*
X56056000Y-56344000D01*
X56050000Y-56342000D01*
X56044000Y-56341000D01*
X56026000Y-56335000D01*
X56021000Y-56332000D01*
X56015000Y-56329000D01*
X56010000Y-56326000D01*
X56004000Y-56322000D01*
X55999000Y-56318000D01*
X55995000Y-56314000D01*
X55990000Y-56310000D01*
X55986000Y-56305000D01*
X55982000Y-56301000D01*
X55978000Y-56296000D01*
X55974000Y-56290000D01*
X55971000Y-56285000D01*
X55968000Y-56279000D01*
X55965000Y-56274000D01*
X55959000Y-56256000D01*
X55958000Y-56250000D01*
X55956000Y-56244000D01*
X55956000Y-56238000D01*
X55955000Y-56231000D01*
X55955000Y-56069000D01*
X55956000Y-56062000D01*
X55956000Y-56056000D01*
X55958000Y-56050000D01*
X55959000Y-56044000D01*
X55965000Y-56026000D01*
X55968000Y-56021000D01*
X55971000Y-56015000D01*
X55974000Y-56010000D01*
X55978000Y-56004000D01*
X55982000Y-55999000D01*
X55986000Y-55995000D01*
X55990000Y-55990000D01*
X55995000Y-55986000D01*
X55999000Y-55982000D01*
X56004000Y-55978000D01*
X56010000Y-55974000D01*
X56015000Y-55971000D01*
X56021000Y-55968000D01*
X56026000Y-55965000D01*
X56044000Y-55959000D01*
X56050000Y-55958000D01*
X56056000Y-55956000D01*
X56062000Y-55956000D01*
X56069000Y-55955000D01*
X56581000Y-55955000D01*
X56588000Y-55956000D01*
G37*
X56588000Y-55956000D02*
X56594000Y-55956000D01*
X56600000Y-55958000D01*
X56606000Y-55959000D01*
X56624000Y-55965000D01*
X56629000Y-55968000D01*
X56635000Y-55971000D01*
X56640000Y-55974000D01*
X56646000Y-55978000D01*
X56651000Y-55982000D01*
X56655000Y-55986000D01*
X56660000Y-55990000D01*
X56664000Y-55995000D01*
X56668000Y-55999000D01*
X56672000Y-56004000D01*
X56676000Y-56010000D01*
X56679000Y-56015000D01*
X56682000Y-56021000D01*
X56685000Y-56026000D01*
X56691000Y-56044000D01*
X56692000Y-56050000D01*
X56694000Y-56056000D01*
X56694000Y-56062000D01*
X56695000Y-56069000D01*
X56695000Y-56231000D01*
X56694000Y-56238000D01*
X56694000Y-56244000D01*
X56692000Y-56250000D01*
X56691000Y-56256000D01*
X56685000Y-56274000D01*
X56682000Y-56279000D01*
X56679000Y-56285000D01*
X56676000Y-56290000D01*
X56672000Y-56296000D01*
X56668000Y-56301000D01*
X56664000Y-56305000D01*
X56660000Y-56310000D01*
X56655000Y-56314000D01*
X56651000Y-56318000D01*
X56646000Y-56322000D01*
X56640000Y-56326000D01*
X56635000Y-56329000D01*
X56629000Y-56332000D01*
X56624000Y-56335000D01*
X56606000Y-56341000D01*
X56600000Y-56342000D01*
X56594000Y-56344000D01*
X56588000Y-56344000D01*
X56581000Y-56345000D01*
X56069000Y-56345000D01*
X56062000Y-56344000D01*
X56056000Y-56344000D01*
X56050000Y-56342000D01*
X56044000Y-56341000D01*
X56026000Y-56335000D01*
X56021000Y-56332000D01*
X56015000Y-56329000D01*
X56010000Y-56326000D01*
X56004000Y-56322000D01*
X55999000Y-56318000D01*
X55995000Y-56314000D01*
X55990000Y-56310000D01*
X55986000Y-56305000D01*
X55982000Y-56301000D01*
X55978000Y-56296000D01*
X55974000Y-56290000D01*
X55971000Y-56285000D01*
X55968000Y-56279000D01*
X55965000Y-56274000D01*
X55959000Y-56256000D01*
X55958000Y-56250000D01*
X55956000Y-56244000D01*
X55956000Y-56238000D01*
X55955000Y-56231000D01*
X55955000Y-56069000D01*
X55956000Y-56062000D01*
X55956000Y-56056000D01*
X55958000Y-56050000D01*
X55959000Y-56044000D01*
X55965000Y-56026000D01*
X55968000Y-56021000D01*
X55971000Y-56015000D01*
X55974000Y-56010000D01*
X55978000Y-56004000D01*
X55982000Y-55999000D01*
X55986000Y-55995000D01*
X55990000Y-55990000D01*
X55995000Y-55986000D01*
X55999000Y-55982000D01*
X56004000Y-55978000D01*
X56010000Y-55974000D01*
X56015000Y-55971000D01*
X56021000Y-55968000D01*
X56026000Y-55965000D01*
X56044000Y-55959000D01*
X56050000Y-55958000D01*
X56056000Y-55956000D01*
X56062000Y-55956000D01*
X56069000Y-55955000D01*
X56581000Y-55955000D01*
X56588000Y-55956000D01*
X56695000Y-55075000D02*
X56695000Y-55225000D01*
X56695000Y-55225000D02*
X56695000Y-55231000D01*
X56695000Y-55231000D02*
X56694000Y-55238000D01*
X56694000Y-55238000D02*
X56694000Y-55244000D01*
X56694000Y-55244000D02*
X56692000Y-55250000D01*
X56692000Y-55250000D02*
X56691000Y-55256000D01*
X56691000Y-55256000D02*
X56689000Y-55262000D01*
X56689000Y-55262000D02*
X56687000Y-55268000D01*
X56687000Y-55268000D02*
X56685000Y-55274000D01*
X56685000Y-55274000D02*
X56682000Y-55279000D01*
X56682000Y-55279000D02*
X56679000Y-55285000D01*
X56679000Y-55285000D02*
X56676000Y-55290000D01*
X56676000Y-55290000D02*
X56672000Y-55296000D01*
X56672000Y-55296000D02*
X56668000Y-55301000D01*
X56668000Y-55301000D02*
X56664000Y-55305000D01*
X56664000Y-55305000D02*
X56660000Y-55310000D01*
X56660000Y-55310000D02*
X56655000Y-55314000D01*
X56655000Y-55314000D02*
X56651000Y-55318000D01*
X56651000Y-55318000D02*
X56646000Y-55322000D01*
X56646000Y-55322000D02*
X56640000Y-55326000D01*
X56640000Y-55326000D02*
X56635000Y-55329000D01*
X56635000Y-55329000D02*
X56629000Y-55332000D01*
X56629000Y-55332000D02*
X56624000Y-55335000D01*
X56624000Y-55335000D02*
X56618000Y-55337000D01*
X56618000Y-55337000D02*
X56612000Y-55339000D01*
X56612000Y-55339000D02*
X56606000Y-55341000D01*
X56606000Y-55341000D02*
X56600000Y-55342000D01*
X56600000Y-55342000D02*
X56594000Y-55344000D01*
X56594000Y-55344000D02*
X56588000Y-55344000D01*
X56588000Y-55344000D02*
X56581000Y-55345000D01*
X56581000Y-55345000D02*
X56575000Y-55345000D01*
X56575000Y-55345000D02*
X56075000Y-55345000D01*
X56075000Y-55345000D02*
X56069000Y-55345000D01*
X56069000Y-55345000D02*
X56062000Y-55344000D01*
X56062000Y-55344000D02*
X56056000Y-55344000D01*
X56056000Y-55344000D02*
X56050000Y-55342000D01*
X56050000Y-55342000D02*
X56044000Y-55341000D01*
X56044000Y-55341000D02*
X56038000Y-55339000D01*
X56038000Y-55339000D02*
X56032000Y-55337000D01*
X56032000Y-55337000D02*
X56026000Y-55335000D01*
X56026000Y-55335000D02*
X56021000Y-55332000D01*
X56021000Y-55332000D02*
X56015000Y-55329000D01*
X56015000Y-55329000D02*
X56010000Y-55326000D01*
X56010000Y-55326000D02*
X56004000Y-55322000D01*
X56004000Y-55322000D02*
X55999000Y-55318000D01*
X55999000Y-55318000D02*
X55995000Y-55314000D01*
X55995000Y-55314000D02*
X55990000Y-55310000D01*
X55990000Y-55310000D02*
X55986000Y-55305000D01*
X55986000Y-55305000D02*
X55982000Y-55301000D01*
X55982000Y-55301000D02*
X55978000Y-55296000D01*
X55978000Y-55296000D02*
X55974000Y-55290000D01*
X55974000Y-55290000D02*
X55971000Y-55285000D01*
X55971000Y-55285000D02*
X55968000Y-55279000D01*
X55968000Y-55279000D02*
X55965000Y-55274000D01*
X55965000Y-55274000D02*
X55963000Y-55268000D01*
X55963000Y-55268000D02*
X55961000Y-55262000D01*
X55961000Y-55262000D02*
X55959000Y-55256000D01*
X55959000Y-55256000D02*
X55958000Y-55250000D01*
X55958000Y-55250000D02*
X55956000Y-55244000D01*
X55956000Y-55244000D02*
X55956000Y-55238000D01*
X55956000Y-55238000D02*
X55955000Y-55231000D01*
X55955000Y-55231000D02*
X55955000Y-55225000D01*
X55955000Y-55225000D02*
X55955000Y-55075000D01*
X55955000Y-55075000D02*
X55955000Y-55069000D01*
X55955000Y-55069000D02*
X55956000Y-55062000D01*
X55956000Y-55062000D02*
X55956000Y-55056000D01*
X55956000Y-55056000D02*
X55958000Y-55050000D01*
X55958000Y-55050000D02*
X55959000Y-55044000D01*
X55959000Y-55044000D02*
X55961000Y-55038000D01*
X55961000Y-55038000D02*
X55963000Y-55032000D01*
X55963000Y-55032000D02*
X55965000Y-55026000D01*
X55965000Y-55026000D02*
X55968000Y-55021000D01*
X55968000Y-55021000D02*
X55971000Y-55015000D01*
X55971000Y-55015000D02*
X55974000Y-55010000D01*
X55974000Y-55010000D02*
X55978000Y-55004000D01*
X55978000Y-55004000D02*
X55982000Y-54999000D01*
X55982000Y-54999000D02*
X55986000Y-54995000D01*
X55986000Y-54995000D02*
X55990000Y-54990000D01*
X55990000Y-54990000D02*
X55995000Y-54986000D01*
X55995000Y-54986000D02*
X55999000Y-54982000D01*
X55999000Y-54982000D02*
X56004000Y-54978000D01*
X56004000Y-54978000D02*
X56010000Y-54974000D01*
X56010000Y-54974000D02*
X56015000Y-54971000D01*
X56015000Y-54971000D02*
X56021000Y-54968000D01*
X56021000Y-54968000D02*
X56026000Y-54965000D01*
X56026000Y-54965000D02*
X56032000Y-54963000D01*
X56032000Y-54963000D02*
X56038000Y-54961000D01*
X56038000Y-54961000D02*
X56044000Y-54959000D01*
X56044000Y-54959000D02*
X56050000Y-54958000D01*
X56050000Y-54958000D02*
X56056000Y-54956000D01*
X56056000Y-54956000D02*
X56062000Y-54956000D01*
X56062000Y-54956000D02*
X56069000Y-54955000D01*
X56069000Y-54955000D02*
X56075000Y-54955000D01*
X56075000Y-54955000D02*
X56575000Y-54955000D01*
X56575000Y-54955000D02*
X56581000Y-54955000D01*
X56581000Y-54955000D02*
X56588000Y-54956000D01*
X56588000Y-54956000D02*
X56594000Y-54956000D01*
X56594000Y-54956000D02*
X56600000Y-54958000D01*
X56600000Y-54958000D02*
X56606000Y-54959000D01*
X56606000Y-54959000D02*
X56612000Y-54961000D01*
X56612000Y-54961000D02*
X56618000Y-54963000D01*
X56618000Y-54963000D02*
X56624000Y-54965000D01*
X56624000Y-54965000D02*
X56629000Y-54968000D01*
X56629000Y-54968000D02*
X56635000Y-54971000D01*
X56635000Y-54971000D02*
X56640000Y-54974000D01*
X56640000Y-54974000D02*
X56646000Y-54978000D01*
X56646000Y-54978000D02*
X56651000Y-54982000D01*
X56651000Y-54982000D02*
X56655000Y-54986000D01*
X56655000Y-54986000D02*
X56660000Y-54990000D01*
X56660000Y-54990000D02*
X56664000Y-54995000D01*
X56664000Y-54995000D02*
X56668000Y-54999000D01*
X56668000Y-54999000D02*
X56672000Y-55004000D01*
X56672000Y-55004000D02*
X56676000Y-55010000D01*
X56676000Y-55010000D02*
X56679000Y-55015000D01*
X56679000Y-55015000D02*
X56682000Y-55021000D01*
X56682000Y-55021000D02*
X56685000Y-55026000D01*
X56685000Y-55026000D02*
X56687000Y-55032000D01*
X56687000Y-55032000D02*
X56689000Y-55038000D01*
X56689000Y-55038000D02*
X56691000Y-55044000D01*
X56691000Y-55044000D02*
X56692000Y-55050000D01*
X56692000Y-55050000D02*
X56694000Y-55056000D01*
X56694000Y-55056000D02*
X56694000Y-55062000D01*
X56694000Y-55062000D02*
X56695000Y-55069000D01*
X56695000Y-55069000D02*
X56695000Y-55075000D01*
X56695000Y-55075000D02*
X56695000Y-55075000D01*
G36*
X56588000Y-54956000D02*
G01*
X56594000Y-54956000D01*
X56600000Y-54958000D01*
X56606000Y-54959000D01*
X56624000Y-54965000D01*
X56629000Y-54968000D01*
X56635000Y-54971000D01*
X56640000Y-54974000D01*
X56646000Y-54978000D01*
X56651000Y-54982000D01*
X56655000Y-54986000D01*
X56660000Y-54990000D01*
X56664000Y-54995000D01*
X56668000Y-54999000D01*
X56672000Y-55004000D01*
X56676000Y-55010000D01*
X56679000Y-55015000D01*
X56682000Y-55021000D01*
X56685000Y-55026000D01*
X56691000Y-55044000D01*
X56692000Y-55050000D01*
X56694000Y-55056000D01*
X56694000Y-55062000D01*
X56695000Y-55069000D01*
X56695000Y-55231000D01*
X56694000Y-55238000D01*
X56694000Y-55244000D01*
X56692000Y-55250000D01*
X56691000Y-55256000D01*
X56685000Y-55274000D01*
X56682000Y-55279000D01*
X56679000Y-55285000D01*
X56676000Y-55290000D01*
X56672000Y-55296000D01*
X56668000Y-55301000D01*
X56664000Y-55305000D01*
X56660000Y-55310000D01*
X56655000Y-55314000D01*
X56651000Y-55318000D01*
X56646000Y-55322000D01*
X56640000Y-55326000D01*
X56635000Y-55329000D01*
X56629000Y-55332000D01*
X56624000Y-55335000D01*
X56606000Y-55341000D01*
X56600000Y-55342000D01*
X56594000Y-55344000D01*
X56588000Y-55344000D01*
X56581000Y-55345000D01*
X56069000Y-55345000D01*
X56062000Y-55344000D01*
X56056000Y-55344000D01*
X56050000Y-55342000D01*
X56044000Y-55341000D01*
X56026000Y-55335000D01*
X56021000Y-55332000D01*
X56015000Y-55329000D01*
X56010000Y-55326000D01*
X56004000Y-55322000D01*
X55999000Y-55318000D01*
X55995000Y-55314000D01*
X55990000Y-55310000D01*
X55986000Y-55305000D01*
X55982000Y-55301000D01*
X55978000Y-55296000D01*
X55974000Y-55290000D01*
X55971000Y-55285000D01*
X55968000Y-55279000D01*
X55965000Y-55274000D01*
X55959000Y-55256000D01*
X55958000Y-55250000D01*
X55956000Y-55244000D01*
X55956000Y-55238000D01*
X55955000Y-55231000D01*
X55955000Y-55069000D01*
X55956000Y-55062000D01*
X55956000Y-55056000D01*
X55958000Y-55050000D01*
X55959000Y-55044000D01*
X55965000Y-55026000D01*
X55968000Y-55021000D01*
X55971000Y-55015000D01*
X55974000Y-55010000D01*
X55978000Y-55004000D01*
X55982000Y-54999000D01*
X55986000Y-54995000D01*
X55990000Y-54990000D01*
X55995000Y-54986000D01*
X55999000Y-54982000D01*
X56004000Y-54978000D01*
X56010000Y-54974000D01*
X56015000Y-54971000D01*
X56021000Y-54968000D01*
X56026000Y-54965000D01*
X56044000Y-54959000D01*
X56050000Y-54958000D01*
X56056000Y-54956000D01*
X56062000Y-54956000D01*
X56069000Y-54955000D01*
X56581000Y-54955000D01*
X56588000Y-54956000D01*
G37*
X56588000Y-54956000D02*
X56594000Y-54956000D01*
X56600000Y-54958000D01*
X56606000Y-54959000D01*
X56624000Y-54965000D01*
X56629000Y-54968000D01*
X56635000Y-54971000D01*
X56640000Y-54974000D01*
X56646000Y-54978000D01*
X56651000Y-54982000D01*
X56655000Y-54986000D01*
X56660000Y-54990000D01*
X56664000Y-54995000D01*
X56668000Y-54999000D01*
X56672000Y-55004000D01*
X56676000Y-55010000D01*
X56679000Y-55015000D01*
X56682000Y-55021000D01*
X56685000Y-55026000D01*
X56691000Y-55044000D01*
X56692000Y-55050000D01*
X56694000Y-55056000D01*
X56694000Y-55062000D01*
X56695000Y-55069000D01*
X56695000Y-55231000D01*
X56694000Y-55238000D01*
X56694000Y-55244000D01*
X56692000Y-55250000D01*
X56691000Y-55256000D01*
X56685000Y-55274000D01*
X56682000Y-55279000D01*
X56679000Y-55285000D01*
X56676000Y-55290000D01*
X56672000Y-55296000D01*
X56668000Y-55301000D01*
X56664000Y-55305000D01*
X56660000Y-55310000D01*
X56655000Y-55314000D01*
X56651000Y-55318000D01*
X56646000Y-55322000D01*
X56640000Y-55326000D01*
X56635000Y-55329000D01*
X56629000Y-55332000D01*
X56624000Y-55335000D01*
X56606000Y-55341000D01*
X56600000Y-55342000D01*
X56594000Y-55344000D01*
X56588000Y-55344000D01*
X56581000Y-55345000D01*
X56069000Y-55345000D01*
X56062000Y-55344000D01*
X56056000Y-55344000D01*
X56050000Y-55342000D01*
X56044000Y-55341000D01*
X56026000Y-55335000D01*
X56021000Y-55332000D01*
X56015000Y-55329000D01*
X56010000Y-55326000D01*
X56004000Y-55322000D01*
X55999000Y-55318000D01*
X55995000Y-55314000D01*
X55990000Y-55310000D01*
X55986000Y-55305000D01*
X55982000Y-55301000D01*
X55978000Y-55296000D01*
X55974000Y-55290000D01*
X55971000Y-55285000D01*
X55968000Y-55279000D01*
X55965000Y-55274000D01*
X55959000Y-55256000D01*
X55958000Y-55250000D01*
X55956000Y-55244000D01*
X55956000Y-55238000D01*
X55955000Y-55231000D01*
X55955000Y-55069000D01*
X55956000Y-55062000D01*
X55956000Y-55056000D01*
X55958000Y-55050000D01*
X55959000Y-55044000D01*
X55965000Y-55026000D01*
X55968000Y-55021000D01*
X55971000Y-55015000D01*
X55974000Y-55010000D01*
X55978000Y-55004000D01*
X55982000Y-54999000D01*
X55986000Y-54995000D01*
X55990000Y-54990000D01*
X55995000Y-54986000D01*
X55999000Y-54982000D01*
X56004000Y-54978000D01*
X56010000Y-54974000D01*
X56015000Y-54971000D01*
X56021000Y-54968000D01*
X56026000Y-54965000D01*
X56044000Y-54959000D01*
X56050000Y-54958000D01*
X56056000Y-54956000D01*
X56062000Y-54956000D01*
X56069000Y-54955000D01*
X56581000Y-54955000D01*
X56588000Y-54956000D01*
X56695000Y-54075000D02*
X56695000Y-54225000D01*
X56695000Y-54225000D02*
X56695000Y-54231000D01*
X56695000Y-54231000D02*
X56694000Y-54238000D01*
X56694000Y-54238000D02*
X56694000Y-54244000D01*
X56694000Y-54244000D02*
X56692000Y-54250000D01*
X56692000Y-54250000D02*
X56691000Y-54256000D01*
X56691000Y-54256000D02*
X56689000Y-54262000D01*
X56689000Y-54262000D02*
X56687000Y-54268000D01*
X56687000Y-54268000D02*
X56685000Y-54274000D01*
X56685000Y-54274000D02*
X56682000Y-54279000D01*
X56682000Y-54279000D02*
X56679000Y-54285000D01*
X56679000Y-54285000D02*
X56676000Y-54290000D01*
X56676000Y-54290000D02*
X56672000Y-54296000D01*
X56672000Y-54296000D02*
X56668000Y-54301000D01*
X56668000Y-54301000D02*
X56664000Y-54305000D01*
X56664000Y-54305000D02*
X56660000Y-54310000D01*
X56660000Y-54310000D02*
X56655000Y-54314000D01*
X56655000Y-54314000D02*
X56651000Y-54318000D01*
X56651000Y-54318000D02*
X56646000Y-54322000D01*
X56646000Y-54322000D02*
X56640000Y-54326000D01*
X56640000Y-54326000D02*
X56635000Y-54329000D01*
X56635000Y-54329000D02*
X56629000Y-54332000D01*
X56629000Y-54332000D02*
X56624000Y-54335000D01*
X56624000Y-54335000D02*
X56618000Y-54337000D01*
X56618000Y-54337000D02*
X56612000Y-54339000D01*
X56612000Y-54339000D02*
X56606000Y-54341000D01*
X56606000Y-54341000D02*
X56600000Y-54342000D01*
X56600000Y-54342000D02*
X56594000Y-54344000D01*
X56594000Y-54344000D02*
X56588000Y-54344000D01*
X56588000Y-54344000D02*
X56581000Y-54345000D01*
X56581000Y-54345000D02*
X56575000Y-54345000D01*
X56575000Y-54345000D02*
X56075000Y-54345000D01*
X56075000Y-54345000D02*
X56069000Y-54345000D01*
X56069000Y-54345000D02*
X56062000Y-54344000D01*
X56062000Y-54344000D02*
X56056000Y-54344000D01*
X56056000Y-54344000D02*
X56050000Y-54342000D01*
X56050000Y-54342000D02*
X56044000Y-54341000D01*
X56044000Y-54341000D02*
X56038000Y-54339000D01*
X56038000Y-54339000D02*
X56032000Y-54337000D01*
X56032000Y-54337000D02*
X56026000Y-54335000D01*
X56026000Y-54335000D02*
X56021000Y-54332000D01*
X56021000Y-54332000D02*
X56015000Y-54329000D01*
X56015000Y-54329000D02*
X56010000Y-54326000D01*
X56010000Y-54326000D02*
X56004000Y-54322000D01*
X56004000Y-54322000D02*
X55999000Y-54318000D01*
X55999000Y-54318000D02*
X55995000Y-54314000D01*
X55995000Y-54314000D02*
X55990000Y-54310000D01*
X55990000Y-54310000D02*
X55986000Y-54305000D01*
X55986000Y-54305000D02*
X55982000Y-54301000D01*
X55982000Y-54301000D02*
X55978000Y-54296000D01*
X55978000Y-54296000D02*
X55974000Y-54290000D01*
X55974000Y-54290000D02*
X55971000Y-54285000D01*
X55971000Y-54285000D02*
X55968000Y-54279000D01*
X55968000Y-54279000D02*
X55965000Y-54274000D01*
X55965000Y-54274000D02*
X55963000Y-54268000D01*
X55963000Y-54268000D02*
X55961000Y-54262000D01*
X55961000Y-54262000D02*
X55959000Y-54256000D01*
X55959000Y-54256000D02*
X55958000Y-54250000D01*
X55958000Y-54250000D02*
X55956000Y-54244000D01*
X55956000Y-54244000D02*
X55956000Y-54238000D01*
X55956000Y-54238000D02*
X55955000Y-54231000D01*
X55955000Y-54231000D02*
X55955000Y-54225000D01*
X55955000Y-54225000D02*
X55955000Y-54075000D01*
X55955000Y-54075000D02*
X55955000Y-54069000D01*
X55955000Y-54069000D02*
X55956000Y-54062000D01*
X55956000Y-54062000D02*
X55956000Y-54056000D01*
X55956000Y-54056000D02*
X55958000Y-54050000D01*
X55958000Y-54050000D02*
X55959000Y-54044000D01*
X55959000Y-54044000D02*
X55961000Y-54038000D01*
X55961000Y-54038000D02*
X55963000Y-54032000D01*
X55963000Y-54032000D02*
X55965000Y-54026000D01*
X55965000Y-54026000D02*
X55968000Y-54021000D01*
X55968000Y-54021000D02*
X55971000Y-54015000D01*
X55971000Y-54015000D02*
X55974000Y-54010000D01*
X55974000Y-54010000D02*
X55978000Y-54004000D01*
X55978000Y-54004000D02*
X55982000Y-53999000D01*
X55982000Y-53999000D02*
X55986000Y-53995000D01*
X55986000Y-53995000D02*
X55990000Y-53990000D01*
X55990000Y-53990000D02*
X55995000Y-53986000D01*
X55995000Y-53986000D02*
X55999000Y-53982000D01*
X55999000Y-53982000D02*
X56004000Y-53978000D01*
X56004000Y-53978000D02*
X56010000Y-53974000D01*
X56010000Y-53974000D02*
X56015000Y-53971000D01*
X56015000Y-53971000D02*
X56021000Y-53968000D01*
X56021000Y-53968000D02*
X56026000Y-53965000D01*
X56026000Y-53965000D02*
X56032000Y-53963000D01*
X56032000Y-53963000D02*
X56038000Y-53961000D01*
X56038000Y-53961000D02*
X56044000Y-53959000D01*
X56044000Y-53959000D02*
X56050000Y-53958000D01*
X56050000Y-53958000D02*
X56056000Y-53956000D01*
X56056000Y-53956000D02*
X56062000Y-53956000D01*
X56062000Y-53956000D02*
X56069000Y-53955000D01*
X56069000Y-53955000D02*
X56075000Y-53955000D01*
X56075000Y-53955000D02*
X56575000Y-53955000D01*
X56575000Y-53955000D02*
X56581000Y-53955000D01*
X56581000Y-53955000D02*
X56588000Y-53956000D01*
X56588000Y-53956000D02*
X56594000Y-53956000D01*
X56594000Y-53956000D02*
X56600000Y-53958000D01*
X56600000Y-53958000D02*
X56606000Y-53959000D01*
X56606000Y-53959000D02*
X56612000Y-53961000D01*
X56612000Y-53961000D02*
X56618000Y-53963000D01*
X56618000Y-53963000D02*
X56624000Y-53965000D01*
X56624000Y-53965000D02*
X56629000Y-53968000D01*
X56629000Y-53968000D02*
X56635000Y-53971000D01*
X56635000Y-53971000D02*
X56640000Y-53974000D01*
X56640000Y-53974000D02*
X56646000Y-53978000D01*
X56646000Y-53978000D02*
X56651000Y-53982000D01*
X56651000Y-53982000D02*
X56655000Y-53986000D01*
X56655000Y-53986000D02*
X56660000Y-53990000D01*
X56660000Y-53990000D02*
X56664000Y-53995000D01*
X56664000Y-53995000D02*
X56668000Y-53999000D01*
X56668000Y-53999000D02*
X56672000Y-54004000D01*
X56672000Y-54004000D02*
X56676000Y-54010000D01*
X56676000Y-54010000D02*
X56679000Y-54015000D01*
X56679000Y-54015000D02*
X56682000Y-54021000D01*
X56682000Y-54021000D02*
X56685000Y-54026000D01*
X56685000Y-54026000D02*
X56687000Y-54032000D01*
X56687000Y-54032000D02*
X56689000Y-54038000D01*
X56689000Y-54038000D02*
X56691000Y-54044000D01*
X56691000Y-54044000D02*
X56692000Y-54050000D01*
X56692000Y-54050000D02*
X56694000Y-54056000D01*
X56694000Y-54056000D02*
X56694000Y-54062000D01*
X56694000Y-54062000D02*
X56695000Y-54069000D01*
X56695000Y-54069000D02*
X56695000Y-54075000D01*
X56695000Y-54075000D02*
X56695000Y-54075000D01*
G36*
X56588000Y-53956000D02*
G01*
X56594000Y-53956000D01*
X56600000Y-53958000D01*
X56606000Y-53959000D01*
X56624000Y-53965000D01*
X56629000Y-53968000D01*
X56635000Y-53971000D01*
X56640000Y-53974000D01*
X56646000Y-53978000D01*
X56651000Y-53982000D01*
X56655000Y-53986000D01*
X56660000Y-53990000D01*
X56664000Y-53995000D01*
X56668000Y-53999000D01*
X56672000Y-54004000D01*
X56676000Y-54010000D01*
X56679000Y-54015000D01*
X56682000Y-54021000D01*
X56685000Y-54026000D01*
X56691000Y-54044000D01*
X56692000Y-54050000D01*
X56694000Y-54056000D01*
X56694000Y-54062000D01*
X56695000Y-54069000D01*
X56695000Y-54231000D01*
X56694000Y-54238000D01*
X56694000Y-54244000D01*
X56692000Y-54250000D01*
X56691000Y-54256000D01*
X56685000Y-54274000D01*
X56682000Y-54279000D01*
X56679000Y-54285000D01*
X56676000Y-54290000D01*
X56672000Y-54296000D01*
X56668000Y-54301000D01*
X56664000Y-54305000D01*
X56660000Y-54310000D01*
X56655000Y-54314000D01*
X56651000Y-54318000D01*
X56646000Y-54322000D01*
X56640000Y-54326000D01*
X56635000Y-54329000D01*
X56629000Y-54332000D01*
X56624000Y-54335000D01*
X56606000Y-54341000D01*
X56600000Y-54342000D01*
X56594000Y-54344000D01*
X56588000Y-54344000D01*
X56581000Y-54345000D01*
X56069000Y-54345000D01*
X56062000Y-54344000D01*
X56056000Y-54344000D01*
X56050000Y-54342000D01*
X56044000Y-54341000D01*
X56026000Y-54335000D01*
X56021000Y-54332000D01*
X56015000Y-54329000D01*
X56010000Y-54326000D01*
X56004000Y-54322000D01*
X55999000Y-54318000D01*
X55995000Y-54314000D01*
X55990000Y-54310000D01*
X55986000Y-54305000D01*
X55982000Y-54301000D01*
X55978000Y-54296000D01*
X55974000Y-54290000D01*
X55971000Y-54285000D01*
X55968000Y-54279000D01*
X55965000Y-54274000D01*
X55959000Y-54256000D01*
X55958000Y-54250000D01*
X55956000Y-54244000D01*
X55956000Y-54238000D01*
X55955000Y-54231000D01*
X55955000Y-54069000D01*
X55956000Y-54062000D01*
X55956000Y-54056000D01*
X55958000Y-54050000D01*
X55959000Y-54044000D01*
X55965000Y-54026000D01*
X55968000Y-54021000D01*
X55971000Y-54015000D01*
X55974000Y-54010000D01*
X55978000Y-54004000D01*
X55982000Y-53999000D01*
X55986000Y-53995000D01*
X55990000Y-53990000D01*
X55995000Y-53986000D01*
X55999000Y-53982000D01*
X56004000Y-53978000D01*
X56010000Y-53974000D01*
X56015000Y-53971000D01*
X56021000Y-53968000D01*
X56026000Y-53965000D01*
X56044000Y-53959000D01*
X56050000Y-53958000D01*
X56056000Y-53956000D01*
X56062000Y-53956000D01*
X56069000Y-53955000D01*
X56581000Y-53955000D01*
X56588000Y-53956000D01*
G37*
X56588000Y-53956000D02*
X56594000Y-53956000D01*
X56600000Y-53958000D01*
X56606000Y-53959000D01*
X56624000Y-53965000D01*
X56629000Y-53968000D01*
X56635000Y-53971000D01*
X56640000Y-53974000D01*
X56646000Y-53978000D01*
X56651000Y-53982000D01*
X56655000Y-53986000D01*
X56660000Y-53990000D01*
X56664000Y-53995000D01*
X56668000Y-53999000D01*
X56672000Y-54004000D01*
X56676000Y-54010000D01*
X56679000Y-54015000D01*
X56682000Y-54021000D01*
X56685000Y-54026000D01*
X56691000Y-54044000D01*
X56692000Y-54050000D01*
X56694000Y-54056000D01*
X56694000Y-54062000D01*
X56695000Y-54069000D01*
X56695000Y-54231000D01*
X56694000Y-54238000D01*
X56694000Y-54244000D01*
X56692000Y-54250000D01*
X56691000Y-54256000D01*
X56685000Y-54274000D01*
X56682000Y-54279000D01*
X56679000Y-54285000D01*
X56676000Y-54290000D01*
X56672000Y-54296000D01*
X56668000Y-54301000D01*
X56664000Y-54305000D01*
X56660000Y-54310000D01*
X56655000Y-54314000D01*
X56651000Y-54318000D01*
X56646000Y-54322000D01*
X56640000Y-54326000D01*
X56635000Y-54329000D01*
X56629000Y-54332000D01*
X56624000Y-54335000D01*
X56606000Y-54341000D01*
X56600000Y-54342000D01*
X56594000Y-54344000D01*
X56588000Y-54344000D01*
X56581000Y-54345000D01*
X56069000Y-54345000D01*
X56062000Y-54344000D01*
X56056000Y-54344000D01*
X56050000Y-54342000D01*
X56044000Y-54341000D01*
X56026000Y-54335000D01*
X56021000Y-54332000D01*
X56015000Y-54329000D01*
X56010000Y-54326000D01*
X56004000Y-54322000D01*
X55999000Y-54318000D01*
X55995000Y-54314000D01*
X55990000Y-54310000D01*
X55986000Y-54305000D01*
X55982000Y-54301000D01*
X55978000Y-54296000D01*
X55974000Y-54290000D01*
X55971000Y-54285000D01*
X55968000Y-54279000D01*
X55965000Y-54274000D01*
X55959000Y-54256000D01*
X55958000Y-54250000D01*
X55956000Y-54244000D01*
X55956000Y-54238000D01*
X55955000Y-54231000D01*
X55955000Y-54069000D01*
X55956000Y-54062000D01*
X55956000Y-54056000D01*
X55958000Y-54050000D01*
X55959000Y-54044000D01*
X55965000Y-54026000D01*
X55968000Y-54021000D01*
X55971000Y-54015000D01*
X55974000Y-54010000D01*
X55978000Y-54004000D01*
X55982000Y-53999000D01*
X55986000Y-53995000D01*
X55990000Y-53990000D01*
X55995000Y-53986000D01*
X55999000Y-53982000D01*
X56004000Y-53978000D01*
X56010000Y-53974000D01*
X56015000Y-53971000D01*
X56021000Y-53968000D01*
X56026000Y-53965000D01*
X56044000Y-53959000D01*
X56050000Y-53958000D01*
X56056000Y-53956000D01*
X56062000Y-53956000D01*
X56069000Y-53955000D01*
X56581000Y-53955000D01*
X56588000Y-53956000D01*
X56695000Y-54575000D02*
X56695000Y-54725000D01*
X56695000Y-54725000D02*
X56695000Y-54731000D01*
X56695000Y-54731000D02*
X56694000Y-54738000D01*
X56694000Y-54738000D02*
X56694000Y-54744000D01*
X56694000Y-54744000D02*
X56692000Y-54750000D01*
X56692000Y-54750000D02*
X56691000Y-54756000D01*
X56691000Y-54756000D02*
X56689000Y-54762000D01*
X56689000Y-54762000D02*
X56687000Y-54768000D01*
X56687000Y-54768000D02*
X56685000Y-54774000D01*
X56685000Y-54774000D02*
X56682000Y-54779000D01*
X56682000Y-54779000D02*
X56679000Y-54785000D01*
X56679000Y-54785000D02*
X56676000Y-54790000D01*
X56676000Y-54790000D02*
X56672000Y-54796000D01*
X56672000Y-54796000D02*
X56668000Y-54801000D01*
X56668000Y-54801000D02*
X56664000Y-54805000D01*
X56664000Y-54805000D02*
X56660000Y-54810000D01*
X56660000Y-54810000D02*
X56655000Y-54814000D01*
X56655000Y-54814000D02*
X56651000Y-54818000D01*
X56651000Y-54818000D02*
X56646000Y-54822000D01*
X56646000Y-54822000D02*
X56640000Y-54826000D01*
X56640000Y-54826000D02*
X56635000Y-54829000D01*
X56635000Y-54829000D02*
X56629000Y-54832000D01*
X56629000Y-54832000D02*
X56624000Y-54835000D01*
X56624000Y-54835000D02*
X56618000Y-54837000D01*
X56618000Y-54837000D02*
X56612000Y-54839000D01*
X56612000Y-54839000D02*
X56606000Y-54841000D01*
X56606000Y-54841000D02*
X56600000Y-54842000D01*
X56600000Y-54842000D02*
X56594000Y-54844000D01*
X56594000Y-54844000D02*
X56588000Y-54844000D01*
X56588000Y-54844000D02*
X56581000Y-54845000D01*
X56581000Y-54845000D02*
X56575000Y-54845000D01*
X56575000Y-54845000D02*
X56075000Y-54845000D01*
X56075000Y-54845000D02*
X56069000Y-54845000D01*
X56069000Y-54845000D02*
X56062000Y-54844000D01*
X56062000Y-54844000D02*
X56056000Y-54844000D01*
X56056000Y-54844000D02*
X56050000Y-54842000D01*
X56050000Y-54842000D02*
X56044000Y-54841000D01*
X56044000Y-54841000D02*
X56038000Y-54839000D01*
X56038000Y-54839000D02*
X56032000Y-54837000D01*
X56032000Y-54837000D02*
X56026000Y-54835000D01*
X56026000Y-54835000D02*
X56021000Y-54832000D01*
X56021000Y-54832000D02*
X56015000Y-54829000D01*
X56015000Y-54829000D02*
X56010000Y-54826000D01*
X56010000Y-54826000D02*
X56004000Y-54822000D01*
X56004000Y-54822000D02*
X55999000Y-54818000D01*
X55999000Y-54818000D02*
X55995000Y-54814000D01*
X55995000Y-54814000D02*
X55990000Y-54810000D01*
X55990000Y-54810000D02*
X55986000Y-54805000D01*
X55986000Y-54805000D02*
X55982000Y-54801000D01*
X55982000Y-54801000D02*
X55978000Y-54796000D01*
X55978000Y-54796000D02*
X55974000Y-54790000D01*
X55974000Y-54790000D02*
X55971000Y-54785000D01*
X55971000Y-54785000D02*
X55968000Y-54779000D01*
X55968000Y-54779000D02*
X55965000Y-54774000D01*
X55965000Y-54774000D02*
X55963000Y-54768000D01*
X55963000Y-54768000D02*
X55961000Y-54762000D01*
X55961000Y-54762000D02*
X55959000Y-54756000D01*
X55959000Y-54756000D02*
X55958000Y-54750000D01*
X55958000Y-54750000D02*
X55956000Y-54744000D01*
X55956000Y-54744000D02*
X55956000Y-54738000D01*
X55956000Y-54738000D02*
X55955000Y-54731000D01*
X55955000Y-54731000D02*
X55955000Y-54725000D01*
X55955000Y-54725000D02*
X55955000Y-54575000D01*
X55955000Y-54575000D02*
X55955000Y-54569000D01*
X55955000Y-54569000D02*
X55956000Y-54562000D01*
X55956000Y-54562000D02*
X55956000Y-54556000D01*
X55956000Y-54556000D02*
X55958000Y-54550000D01*
X55958000Y-54550000D02*
X55959000Y-54544000D01*
X55959000Y-54544000D02*
X55961000Y-54538000D01*
X55961000Y-54538000D02*
X55963000Y-54532000D01*
X55963000Y-54532000D02*
X55965000Y-54526000D01*
X55965000Y-54526000D02*
X55968000Y-54521000D01*
X55968000Y-54521000D02*
X55971000Y-54515000D01*
X55971000Y-54515000D02*
X55974000Y-54510000D01*
X55974000Y-54510000D02*
X55978000Y-54504000D01*
X55978000Y-54504000D02*
X55982000Y-54499000D01*
X55982000Y-54499000D02*
X55986000Y-54495000D01*
X55986000Y-54495000D02*
X55990000Y-54490000D01*
X55990000Y-54490000D02*
X55995000Y-54486000D01*
X55995000Y-54486000D02*
X55999000Y-54482000D01*
X55999000Y-54482000D02*
X56004000Y-54478000D01*
X56004000Y-54478000D02*
X56010000Y-54474000D01*
X56010000Y-54474000D02*
X56015000Y-54471000D01*
X56015000Y-54471000D02*
X56021000Y-54468000D01*
X56021000Y-54468000D02*
X56026000Y-54465000D01*
X56026000Y-54465000D02*
X56032000Y-54463000D01*
X56032000Y-54463000D02*
X56038000Y-54461000D01*
X56038000Y-54461000D02*
X56044000Y-54459000D01*
X56044000Y-54459000D02*
X56050000Y-54458000D01*
X56050000Y-54458000D02*
X56056000Y-54456000D01*
X56056000Y-54456000D02*
X56062000Y-54456000D01*
X56062000Y-54456000D02*
X56069000Y-54455000D01*
X56069000Y-54455000D02*
X56075000Y-54455000D01*
X56075000Y-54455000D02*
X56575000Y-54455000D01*
X56575000Y-54455000D02*
X56581000Y-54455000D01*
X56581000Y-54455000D02*
X56588000Y-54456000D01*
X56588000Y-54456000D02*
X56594000Y-54456000D01*
X56594000Y-54456000D02*
X56600000Y-54458000D01*
X56600000Y-54458000D02*
X56606000Y-54459000D01*
X56606000Y-54459000D02*
X56612000Y-54461000D01*
X56612000Y-54461000D02*
X56618000Y-54463000D01*
X56618000Y-54463000D02*
X56624000Y-54465000D01*
X56624000Y-54465000D02*
X56629000Y-54468000D01*
X56629000Y-54468000D02*
X56635000Y-54471000D01*
X56635000Y-54471000D02*
X56640000Y-54474000D01*
X56640000Y-54474000D02*
X56646000Y-54478000D01*
X56646000Y-54478000D02*
X56651000Y-54482000D01*
X56651000Y-54482000D02*
X56655000Y-54486000D01*
X56655000Y-54486000D02*
X56660000Y-54490000D01*
X56660000Y-54490000D02*
X56664000Y-54495000D01*
X56664000Y-54495000D02*
X56668000Y-54499000D01*
X56668000Y-54499000D02*
X56672000Y-54504000D01*
X56672000Y-54504000D02*
X56676000Y-54510000D01*
X56676000Y-54510000D02*
X56679000Y-54515000D01*
X56679000Y-54515000D02*
X56682000Y-54521000D01*
X56682000Y-54521000D02*
X56685000Y-54526000D01*
X56685000Y-54526000D02*
X56687000Y-54532000D01*
X56687000Y-54532000D02*
X56689000Y-54538000D01*
X56689000Y-54538000D02*
X56691000Y-54544000D01*
X56691000Y-54544000D02*
X56692000Y-54550000D01*
X56692000Y-54550000D02*
X56694000Y-54556000D01*
X56694000Y-54556000D02*
X56694000Y-54562000D01*
X56694000Y-54562000D02*
X56695000Y-54569000D01*
X56695000Y-54569000D02*
X56695000Y-54575000D01*
X56695000Y-54575000D02*
X56695000Y-54575000D01*
G36*
X56588000Y-54456000D02*
G01*
X56594000Y-54456000D01*
X56600000Y-54458000D01*
X56606000Y-54459000D01*
X56624000Y-54465000D01*
X56629000Y-54468000D01*
X56635000Y-54471000D01*
X56640000Y-54474000D01*
X56646000Y-54478000D01*
X56651000Y-54482000D01*
X56655000Y-54486000D01*
X56660000Y-54490000D01*
X56664000Y-54495000D01*
X56668000Y-54499000D01*
X56672000Y-54504000D01*
X56676000Y-54510000D01*
X56679000Y-54515000D01*
X56682000Y-54521000D01*
X56685000Y-54526000D01*
X56691000Y-54544000D01*
X56692000Y-54550000D01*
X56694000Y-54556000D01*
X56694000Y-54562000D01*
X56695000Y-54569000D01*
X56695000Y-54731000D01*
X56694000Y-54738000D01*
X56694000Y-54744000D01*
X56692000Y-54750000D01*
X56691000Y-54756000D01*
X56685000Y-54774000D01*
X56682000Y-54779000D01*
X56679000Y-54785000D01*
X56676000Y-54790000D01*
X56672000Y-54796000D01*
X56668000Y-54801000D01*
X56664000Y-54805000D01*
X56660000Y-54810000D01*
X56655000Y-54814000D01*
X56651000Y-54818000D01*
X56646000Y-54822000D01*
X56640000Y-54826000D01*
X56635000Y-54829000D01*
X56629000Y-54832000D01*
X56624000Y-54835000D01*
X56606000Y-54841000D01*
X56600000Y-54842000D01*
X56594000Y-54844000D01*
X56588000Y-54844000D01*
X56581000Y-54845000D01*
X56069000Y-54845000D01*
X56062000Y-54844000D01*
X56056000Y-54844000D01*
X56050000Y-54842000D01*
X56044000Y-54841000D01*
X56026000Y-54835000D01*
X56021000Y-54832000D01*
X56015000Y-54829000D01*
X56010000Y-54826000D01*
X56004000Y-54822000D01*
X55999000Y-54818000D01*
X55995000Y-54814000D01*
X55990000Y-54810000D01*
X55986000Y-54805000D01*
X55982000Y-54801000D01*
X55978000Y-54796000D01*
X55974000Y-54790000D01*
X55971000Y-54785000D01*
X55968000Y-54779000D01*
X55965000Y-54774000D01*
X55959000Y-54756000D01*
X55958000Y-54750000D01*
X55956000Y-54744000D01*
X55956000Y-54738000D01*
X55955000Y-54731000D01*
X55955000Y-54569000D01*
X55956000Y-54562000D01*
X55956000Y-54556000D01*
X55958000Y-54550000D01*
X55959000Y-54544000D01*
X55965000Y-54526000D01*
X55968000Y-54521000D01*
X55971000Y-54515000D01*
X55974000Y-54510000D01*
X55978000Y-54504000D01*
X55982000Y-54499000D01*
X55986000Y-54495000D01*
X55990000Y-54490000D01*
X55995000Y-54486000D01*
X55999000Y-54482000D01*
X56004000Y-54478000D01*
X56010000Y-54474000D01*
X56015000Y-54471000D01*
X56021000Y-54468000D01*
X56026000Y-54465000D01*
X56044000Y-54459000D01*
X56050000Y-54458000D01*
X56056000Y-54456000D01*
X56062000Y-54456000D01*
X56069000Y-54455000D01*
X56581000Y-54455000D01*
X56588000Y-54456000D01*
G37*
X56588000Y-54456000D02*
X56594000Y-54456000D01*
X56600000Y-54458000D01*
X56606000Y-54459000D01*
X56624000Y-54465000D01*
X56629000Y-54468000D01*
X56635000Y-54471000D01*
X56640000Y-54474000D01*
X56646000Y-54478000D01*
X56651000Y-54482000D01*
X56655000Y-54486000D01*
X56660000Y-54490000D01*
X56664000Y-54495000D01*
X56668000Y-54499000D01*
X56672000Y-54504000D01*
X56676000Y-54510000D01*
X56679000Y-54515000D01*
X56682000Y-54521000D01*
X56685000Y-54526000D01*
X56691000Y-54544000D01*
X56692000Y-54550000D01*
X56694000Y-54556000D01*
X56694000Y-54562000D01*
X56695000Y-54569000D01*
X56695000Y-54731000D01*
X56694000Y-54738000D01*
X56694000Y-54744000D01*
X56692000Y-54750000D01*
X56691000Y-54756000D01*
X56685000Y-54774000D01*
X56682000Y-54779000D01*
X56679000Y-54785000D01*
X56676000Y-54790000D01*
X56672000Y-54796000D01*
X56668000Y-54801000D01*
X56664000Y-54805000D01*
X56660000Y-54810000D01*
X56655000Y-54814000D01*
X56651000Y-54818000D01*
X56646000Y-54822000D01*
X56640000Y-54826000D01*
X56635000Y-54829000D01*
X56629000Y-54832000D01*
X56624000Y-54835000D01*
X56606000Y-54841000D01*
X56600000Y-54842000D01*
X56594000Y-54844000D01*
X56588000Y-54844000D01*
X56581000Y-54845000D01*
X56069000Y-54845000D01*
X56062000Y-54844000D01*
X56056000Y-54844000D01*
X56050000Y-54842000D01*
X56044000Y-54841000D01*
X56026000Y-54835000D01*
X56021000Y-54832000D01*
X56015000Y-54829000D01*
X56010000Y-54826000D01*
X56004000Y-54822000D01*
X55999000Y-54818000D01*
X55995000Y-54814000D01*
X55990000Y-54810000D01*
X55986000Y-54805000D01*
X55982000Y-54801000D01*
X55978000Y-54796000D01*
X55974000Y-54790000D01*
X55971000Y-54785000D01*
X55968000Y-54779000D01*
X55965000Y-54774000D01*
X55959000Y-54756000D01*
X55958000Y-54750000D01*
X55956000Y-54744000D01*
X55956000Y-54738000D01*
X55955000Y-54731000D01*
X55955000Y-54569000D01*
X55956000Y-54562000D01*
X55956000Y-54556000D01*
X55958000Y-54550000D01*
X55959000Y-54544000D01*
X55965000Y-54526000D01*
X55968000Y-54521000D01*
X55971000Y-54515000D01*
X55974000Y-54510000D01*
X55978000Y-54504000D01*
X55982000Y-54499000D01*
X55986000Y-54495000D01*
X55990000Y-54490000D01*
X55995000Y-54486000D01*
X55999000Y-54482000D01*
X56004000Y-54478000D01*
X56010000Y-54474000D01*
X56015000Y-54471000D01*
X56021000Y-54468000D01*
X56026000Y-54465000D01*
X56044000Y-54459000D01*
X56050000Y-54458000D01*
X56056000Y-54456000D01*
X56062000Y-54456000D01*
X56069000Y-54455000D01*
X56581000Y-54455000D01*
X56588000Y-54456000D01*
X58495000Y-54075000D02*
X58495000Y-54225000D01*
X58495000Y-54225000D02*
X58495000Y-54231000D01*
X58495000Y-54231000D02*
X58494000Y-54238000D01*
X58494000Y-54238000D02*
X58494000Y-54244000D01*
X58494000Y-54244000D02*
X58492000Y-54250000D01*
X58492000Y-54250000D02*
X58491000Y-54256000D01*
X58491000Y-54256000D02*
X58489000Y-54262000D01*
X58489000Y-54262000D02*
X58487000Y-54268000D01*
X58487000Y-54268000D02*
X58485000Y-54274000D01*
X58485000Y-54274000D02*
X58482000Y-54279000D01*
X58482000Y-54279000D02*
X58479000Y-54285000D01*
X58479000Y-54285000D02*
X58476000Y-54290000D01*
X58476000Y-54290000D02*
X58472000Y-54296000D01*
X58472000Y-54296000D02*
X58468000Y-54301000D01*
X58468000Y-54301000D02*
X58464000Y-54305000D01*
X58464000Y-54305000D02*
X58460000Y-54310000D01*
X58460000Y-54310000D02*
X58455000Y-54314000D01*
X58455000Y-54314000D02*
X58451000Y-54318000D01*
X58451000Y-54318000D02*
X58446000Y-54322000D01*
X58446000Y-54322000D02*
X58440000Y-54326000D01*
X58440000Y-54326000D02*
X58435000Y-54329000D01*
X58435000Y-54329000D02*
X58429000Y-54332000D01*
X58429000Y-54332000D02*
X58424000Y-54335000D01*
X58424000Y-54335000D02*
X58418000Y-54337000D01*
X58418000Y-54337000D02*
X58412000Y-54339000D01*
X58412000Y-54339000D02*
X58406000Y-54341000D01*
X58406000Y-54341000D02*
X58400000Y-54342000D01*
X58400000Y-54342000D02*
X58394000Y-54344000D01*
X58394000Y-54344000D02*
X58388000Y-54344000D01*
X58388000Y-54344000D02*
X58381000Y-54345000D01*
X58381000Y-54345000D02*
X58375000Y-54345000D01*
X58375000Y-54345000D02*
X57575000Y-54345000D01*
X57575000Y-54345000D02*
X57569000Y-54345000D01*
X57569000Y-54345000D02*
X57562000Y-54344000D01*
X57562000Y-54344000D02*
X57556000Y-54344000D01*
X57556000Y-54344000D02*
X57550000Y-54342000D01*
X57550000Y-54342000D02*
X57544000Y-54341000D01*
X57544000Y-54341000D02*
X57538000Y-54339000D01*
X57538000Y-54339000D02*
X57532000Y-54337000D01*
X57532000Y-54337000D02*
X57526000Y-54335000D01*
X57526000Y-54335000D02*
X57521000Y-54332000D01*
X57521000Y-54332000D02*
X57515000Y-54329000D01*
X57515000Y-54329000D02*
X57510000Y-54326000D01*
X57510000Y-54326000D02*
X57504000Y-54322000D01*
X57504000Y-54322000D02*
X57499000Y-54318000D01*
X57499000Y-54318000D02*
X57495000Y-54314000D01*
X57495000Y-54314000D02*
X57490000Y-54310000D01*
X57490000Y-54310000D02*
X57486000Y-54305000D01*
X57486000Y-54305000D02*
X57482000Y-54301000D01*
X57482000Y-54301000D02*
X57478000Y-54296000D01*
X57478000Y-54296000D02*
X57474000Y-54290000D01*
X57474000Y-54290000D02*
X57471000Y-54285000D01*
X57471000Y-54285000D02*
X57468000Y-54279000D01*
X57468000Y-54279000D02*
X57465000Y-54274000D01*
X57465000Y-54274000D02*
X57463000Y-54268000D01*
X57463000Y-54268000D02*
X57461000Y-54262000D01*
X57461000Y-54262000D02*
X57459000Y-54256000D01*
X57459000Y-54256000D02*
X57458000Y-54250000D01*
X57458000Y-54250000D02*
X57456000Y-54244000D01*
X57456000Y-54244000D02*
X57456000Y-54238000D01*
X57456000Y-54238000D02*
X57455000Y-54231000D01*
X57455000Y-54231000D02*
X57455000Y-54225000D01*
X57455000Y-54225000D02*
X57455000Y-54075000D01*
X57455000Y-54075000D02*
X57455000Y-54069000D01*
X57455000Y-54069000D02*
X57456000Y-54062000D01*
X57456000Y-54062000D02*
X57456000Y-54056000D01*
X57456000Y-54056000D02*
X57458000Y-54050000D01*
X57458000Y-54050000D02*
X57459000Y-54044000D01*
X57459000Y-54044000D02*
X57461000Y-54038000D01*
X57461000Y-54038000D02*
X57463000Y-54032000D01*
X57463000Y-54032000D02*
X57465000Y-54026000D01*
X57465000Y-54026000D02*
X57468000Y-54021000D01*
X57468000Y-54021000D02*
X57471000Y-54015000D01*
X57471000Y-54015000D02*
X57474000Y-54010000D01*
X57474000Y-54010000D02*
X57478000Y-54004000D01*
X57478000Y-54004000D02*
X57482000Y-53999000D01*
X57482000Y-53999000D02*
X57486000Y-53995000D01*
X57486000Y-53995000D02*
X57490000Y-53990000D01*
X57490000Y-53990000D02*
X57495000Y-53986000D01*
X57495000Y-53986000D02*
X57499000Y-53982000D01*
X57499000Y-53982000D02*
X57504000Y-53978000D01*
X57504000Y-53978000D02*
X57510000Y-53974000D01*
X57510000Y-53974000D02*
X57515000Y-53971000D01*
X57515000Y-53971000D02*
X57521000Y-53968000D01*
X57521000Y-53968000D02*
X57526000Y-53965000D01*
X57526000Y-53965000D02*
X57532000Y-53963000D01*
X57532000Y-53963000D02*
X57538000Y-53961000D01*
X57538000Y-53961000D02*
X57544000Y-53959000D01*
X57544000Y-53959000D02*
X57550000Y-53958000D01*
X57550000Y-53958000D02*
X57556000Y-53956000D01*
X57556000Y-53956000D02*
X57562000Y-53956000D01*
X57562000Y-53956000D02*
X57569000Y-53955000D01*
X57569000Y-53955000D02*
X57575000Y-53955000D01*
X57575000Y-53955000D02*
X58375000Y-53955000D01*
X58375000Y-53955000D02*
X58381000Y-53955000D01*
X58381000Y-53955000D02*
X58388000Y-53956000D01*
X58388000Y-53956000D02*
X58394000Y-53956000D01*
X58394000Y-53956000D02*
X58400000Y-53958000D01*
X58400000Y-53958000D02*
X58406000Y-53959000D01*
X58406000Y-53959000D02*
X58412000Y-53961000D01*
X58412000Y-53961000D02*
X58418000Y-53963000D01*
X58418000Y-53963000D02*
X58424000Y-53965000D01*
X58424000Y-53965000D02*
X58429000Y-53968000D01*
X58429000Y-53968000D02*
X58435000Y-53971000D01*
X58435000Y-53971000D02*
X58440000Y-53974000D01*
X58440000Y-53974000D02*
X58446000Y-53978000D01*
X58446000Y-53978000D02*
X58451000Y-53982000D01*
X58451000Y-53982000D02*
X58455000Y-53986000D01*
X58455000Y-53986000D02*
X58460000Y-53990000D01*
X58460000Y-53990000D02*
X58464000Y-53995000D01*
X58464000Y-53995000D02*
X58468000Y-53999000D01*
X58468000Y-53999000D02*
X58472000Y-54004000D01*
X58472000Y-54004000D02*
X58476000Y-54010000D01*
X58476000Y-54010000D02*
X58479000Y-54015000D01*
X58479000Y-54015000D02*
X58482000Y-54021000D01*
X58482000Y-54021000D02*
X58485000Y-54026000D01*
X58485000Y-54026000D02*
X58487000Y-54032000D01*
X58487000Y-54032000D02*
X58489000Y-54038000D01*
X58489000Y-54038000D02*
X58491000Y-54044000D01*
X58491000Y-54044000D02*
X58492000Y-54050000D01*
X58492000Y-54050000D02*
X58494000Y-54056000D01*
X58494000Y-54056000D02*
X58494000Y-54062000D01*
X58494000Y-54062000D02*
X58495000Y-54069000D01*
X58495000Y-54069000D02*
X58495000Y-54075000D01*
X58495000Y-54075000D02*
X58495000Y-54075000D01*
G36*
X58388000Y-53956000D02*
G01*
X58394000Y-53956000D01*
X58400000Y-53958000D01*
X58406000Y-53959000D01*
X58424000Y-53965000D01*
X58429000Y-53968000D01*
X58435000Y-53971000D01*
X58440000Y-53974000D01*
X58446000Y-53978000D01*
X58451000Y-53982000D01*
X58455000Y-53986000D01*
X58460000Y-53990000D01*
X58464000Y-53995000D01*
X58468000Y-53999000D01*
X58472000Y-54004000D01*
X58476000Y-54010000D01*
X58479000Y-54015000D01*
X58482000Y-54021000D01*
X58485000Y-54026000D01*
X58491000Y-54044000D01*
X58492000Y-54050000D01*
X58494000Y-54056000D01*
X58494000Y-54062000D01*
X58495000Y-54069000D01*
X58495000Y-54231000D01*
X58494000Y-54238000D01*
X58494000Y-54244000D01*
X58492000Y-54250000D01*
X58491000Y-54256000D01*
X58485000Y-54274000D01*
X58482000Y-54279000D01*
X58479000Y-54285000D01*
X58476000Y-54290000D01*
X58472000Y-54296000D01*
X58468000Y-54301000D01*
X58464000Y-54305000D01*
X58460000Y-54310000D01*
X58455000Y-54314000D01*
X58451000Y-54318000D01*
X58446000Y-54322000D01*
X58440000Y-54326000D01*
X58435000Y-54329000D01*
X58429000Y-54332000D01*
X58424000Y-54335000D01*
X58406000Y-54341000D01*
X58400000Y-54342000D01*
X58394000Y-54344000D01*
X58388000Y-54344000D01*
X58381000Y-54345000D01*
X57569000Y-54345000D01*
X57562000Y-54344000D01*
X57556000Y-54344000D01*
X57550000Y-54342000D01*
X57544000Y-54341000D01*
X57526000Y-54335000D01*
X57521000Y-54332000D01*
X57515000Y-54329000D01*
X57510000Y-54326000D01*
X57504000Y-54322000D01*
X57499000Y-54318000D01*
X57495000Y-54314000D01*
X57490000Y-54310000D01*
X57486000Y-54305000D01*
X57482000Y-54301000D01*
X57478000Y-54296000D01*
X57474000Y-54290000D01*
X57471000Y-54285000D01*
X57468000Y-54279000D01*
X57465000Y-54274000D01*
X57459000Y-54256000D01*
X57458000Y-54250000D01*
X57456000Y-54244000D01*
X57456000Y-54238000D01*
X57455000Y-54231000D01*
X57455000Y-54069000D01*
X57456000Y-54062000D01*
X57456000Y-54056000D01*
X57458000Y-54050000D01*
X57459000Y-54044000D01*
X57465000Y-54026000D01*
X57468000Y-54021000D01*
X57471000Y-54015000D01*
X57474000Y-54010000D01*
X57478000Y-54004000D01*
X57482000Y-53999000D01*
X57486000Y-53995000D01*
X57490000Y-53990000D01*
X57495000Y-53986000D01*
X57499000Y-53982000D01*
X57504000Y-53978000D01*
X57510000Y-53974000D01*
X57515000Y-53971000D01*
X57521000Y-53968000D01*
X57526000Y-53965000D01*
X57544000Y-53959000D01*
X57550000Y-53958000D01*
X57556000Y-53956000D01*
X57562000Y-53956000D01*
X57569000Y-53955000D01*
X58381000Y-53955000D01*
X58388000Y-53956000D01*
G37*
X58388000Y-53956000D02*
X58394000Y-53956000D01*
X58400000Y-53958000D01*
X58406000Y-53959000D01*
X58424000Y-53965000D01*
X58429000Y-53968000D01*
X58435000Y-53971000D01*
X58440000Y-53974000D01*
X58446000Y-53978000D01*
X58451000Y-53982000D01*
X58455000Y-53986000D01*
X58460000Y-53990000D01*
X58464000Y-53995000D01*
X58468000Y-53999000D01*
X58472000Y-54004000D01*
X58476000Y-54010000D01*
X58479000Y-54015000D01*
X58482000Y-54021000D01*
X58485000Y-54026000D01*
X58491000Y-54044000D01*
X58492000Y-54050000D01*
X58494000Y-54056000D01*
X58494000Y-54062000D01*
X58495000Y-54069000D01*
X58495000Y-54231000D01*
X58494000Y-54238000D01*
X58494000Y-54244000D01*
X58492000Y-54250000D01*
X58491000Y-54256000D01*
X58485000Y-54274000D01*
X58482000Y-54279000D01*
X58479000Y-54285000D01*
X58476000Y-54290000D01*
X58472000Y-54296000D01*
X58468000Y-54301000D01*
X58464000Y-54305000D01*
X58460000Y-54310000D01*
X58455000Y-54314000D01*
X58451000Y-54318000D01*
X58446000Y-54322000D01*
X58440000Y-54326000D01*
X58435000Y-54329000D01*
X58429000Y-54332000D01*
X58424000Y-54335000D01*
X58406000Y-54341000D01*
X58400000Y-54342000D01*
X58394000Y-54344000D01*
X58388000Y-54344000D01*
X58381000Y-54345000D01*
X57569000Y-54345000D01*
X57562000Y-54344000D01*
X57556000Y-54344000D01*
X57550000Y-54342000D01*
X57544000Y-54341000D01*
X57526000Y-54335000D01*
X57521000Y-54332000D01*
X57515000Y-54329000D01*
X57510000Y-54326000D01*
X57504000Y-54322000D01*
X57499000Y-54318000D01*
X57495000Y-54314000D01*
X57490000Y-54310000D01*
X57486000Y-54305000D01*
X57482000Y-54301000D01*
X57478000Y-54296000D01*
X57474000Y-54290000D01*
X57471000Y-54285000D01*
X57468000Y-54279000D01*
X57465000Y-54274000D01*
X57459000Y-54256000D01*
X57458000Y-54250000D01*
X57456000Y-54244000D01*
X57456000Y-54238000D01*
X57455000Y-54231000D01*
X57455000Y-54069000D01*
X57456000Y-54062000D01*
X57456000Y-54056000D01*
X57458000Y-54050000D01*
X57459000Y-54044000D01*
X57465000Y-54026000D01*
X57468000Y-54021000D01*
X57471000Y-54015000D01*
X57474000Y-54010000D01*
X57478000Y-54004000D01*
X57482000Y-53999000D01*
X57486000Y-53995000D01*
X57490000Y-53990000D01*
X57495000Y-53986000D01*
X57499000Y-53982000D01*
X57504000Y-53978000D01*
X57510000Y-53974000D01*
X57515000Y-53971000D01*
X57521000Y-53968000D01*
X57526000Y-53965000D01*
X57544000Y-53959000D01*
X57550000Y-53958000D01*
X57556000Y-53956000D01*
X57562000Y-53956000D01*
X57569000Y-53955000D01*
X58381000Y-53955000D01*
X58388000Y-53956000D01*
X58495000Y-55575000D02*
X58495000Y-55725000D01*
X58495000Y-55725000D02*
X58495000Y-55731000D01*
X58495000Y-55731000D02*
X58494000Y-55738000D01*
X58494000Y-55738000D02*
X58494000Y-55744000D01*
X58494000Y-55744000D02*
X58492000Y-55750000D01*
X58492000Y-55750000D02*
X58491000Y-55756000D01*
X58491000Y-55756000D02*
X58489000Y-55762000D01*
X58489000Y-55762000D02*
X58487000Y-55768000D01*
X58487000Y-55768000D02*
X58485000Y-55774000D01*
X58485000Y-55774000D02*
X58482000Y-55779000D01*
X58482000Y-55779000D02*
X58479000Y-55785000D01*
X58479000Y-55785000D02*
X58476000Y-55790000D01*
X58476000Y-55790000D02*
X58472000Y-55796000D01*
X58472000Y-55796000D02*
X58468000Y-55801000D01*
X58468000Y-55801000D02*
X58464000Y-55805000D01*
X58464000Y-55805000D02*
X58460000Y-55810000D01*
X58460000Y-55810000D02*
X58455000Y-55814000D01*
X58455000Y-55814000D02*
X58451000Y-55818000D01*
X58451000Y-55818000D02*
X58446000Y-55822000D01*
X58446000Y-55822000D02*
X58440000Y-55826000D01*
X58440000Y-55826000D02*
X58435000Y-55829000D01*
X58435000Y-55829000D02*
X58429000Y-55832000D01*
X58429000Y-55832000D02*
X58424000Y-55835000D01*
X58424000Y-55835000D02*
X58418000Y-55837000D01*
X58418000Y-55837000D02*
X58412000Y-55839000D01*
X58412000Y-55839000D02*
X58406000Y-55841000D01*
X58406000Y-55841000D02*
X58400000Y-55842000D01*
X58400000Y-55842000D02*
X58394000Y-55844000D01*
X58394000Y-55844000D02*
X58388000Y-55844000D01*
X58388000Y-55844000D02*
X58381000Y-55845000D01*
X58381000Y-55845000D02*
X58375000Y-55845000D01*
X58375000Y-55845000D02*
X57575000Y-55845000D01*
X57575000Y-55845000D02*
X57569000Y-55845000D01*
X57569000Y-55845000D02*
X57562000Y-55844000D01*
X57562000Y-55844000D02*
X57556000Y-55844000D01*
X57556000Y-55844000D02*
X57550000Y-55842000D01*
X57550000Y-55842000D02*
X57544000Y-55841000D01*
X57544000Y-55841000D02*
X57538000Y-55839000D01*
X57538000Y-55839000D02*
X57532000Y-55837000D01*
X57532000Y-55837000D02*
X57526000Y-55835000D01*
X57526000Y-55835000D02*
X57521000Y-55832000D01*
X57521000Y-55832000D02*
X57515000Y-55829000D01*
X57515000Y-55829000D02*
X57510000Y-55826000D01*
X57510000Y-55826000D02*
X57504000Y-55822000D01*
X57504000Y-55822000D02*
X57499000Y-55818000D01*
X57499000Y-55818000D02*
X57495000Y-55814000D01*
X57495000Y-55814000D02*
X57490000Y-55810000D01*
X57490000Y-55810000D02*
X57486000Y-55805000D01*
X57486000Y-55805000D02*
X57482000Y-55801000D01*
X57482000Y-55801000D02*
X57478000Y-55796000D01*
X57478000Y-55796000D02*
X57474000Y-55790000D01*
X57474000Y-55790000D02*
X57471000Y-55785000D01*
X57471000Y-55785000D02*
X57468000Y-55779000D01*
X57468000Y-55779000D02*
X57465000Y-55774000D01*
X57465000Y-55774000D02*
X57463000Y-55768000D01*
X57463000Y-55768000D02*
X57461000Y-55762000D01*
X57461000Y-55762000D02*
X57459000Y-55756000D01*
X57459000Y-55756000D02*
X57458000Y-55750000D01*
X57458000Y-55750000D02*
X57456000Y-55744000D01*
X57456000Y-55744000D02*
X57456000Y-55738000D01*
X57456000Y-55738000D02*
X57455000Y-55731000D01*
X57455000Y-55731000D02*
X57455000Y-55725000D01*
X57455000Y-55725000D02*
X57455000Y-55575000D01*
X57455000Y-55575000D02*
X57455000Y-55569000D01*
X57455000Y-55569000D02*
X57456000Y-55562000D01*
X57456000Y-55562000D02*
X57456000Y-55556000D01*
X57456000Y-55556000D02*
X57458000Y-55550000D01*
X57458000Y-55550000D02*
X57459000Y-55544000D01*
X57459000Y-55544000D02*
X57461000Y-55538000D01*
X57461000Y-55538000D02*
X57463000Y-55532000D01*
X57463000Y-55532000D02*
X57465000Y-55526000D01*
X57465000Y-55526000D02*
X57468000Y-55521000D01*
X57468000Y-55521000D02*
X57471000Y-55515000D01*
X57471000Y-55515000D02*
X57474000Y-55510000D01*
X57474000Y-55510000D02*
X57478000Y-55504000D01*
X57478000Y-55504000D02*
X57482000Y-55499000D01*
X57482000Y-55499000D02*
X57486000Y-55495000D01*
X57486000Y-55495000D02*
X57490000Y-55490000D01*
X57490000Y-55490000D02*
X57495000Y-55486000D01*
X57495000Y-55486000D02*
X57499000Y-55482000D01*
X57499000Y-55482000D02*
X57504000Y-55478000D01*
X57504000Y-55478000D02*
X57510000Y-55474000D01*
X57510000Y-55474000D02*
X57515000Y-55471000D01*
X57515000Y-55471000D02*
X57521000Y-55468000D01*
X57521000Y-55468000D02*
X57526000Y-55465000D01*
X57526000Y-55465000D02*
X57532000Y-55463000D01*
X57532000Y-55463000D02*
X57538000Y-55461000D01*
X57538000Y-55461000D02*
X57544000Y-55459000D01*
X57544000Y-55459000D02*
X57550000Y-55458000D01*
X57550000Y-55458000D02*
X57556000Y-55456000D01*
X57556000Y-55456000D02*
X57562000Y-55456000D01*
X57562000Y-55456000D02*
X57569000Y-55455000D01*
X57569000Y-55455000D02*
X57575000Y-55455000D01*
X57575000Y-55455000D02*
X58375000Y-55455000D01*
X58375000Y-55455000D02*
X58381000Y-55455000D01*
X58381000Y-55455000D02*
X58388000Y-55456000D01*
X58388000Y-55456000D02*
X58394000Y-55456000D01*
X58394000Y-55456000D02*
X58400000Y-55458000D01*
X58400000Y-55458000D02*
X58406000Y-55459000D01*
X58406000Y-55459000D02*
X58412000Y-55461000D01*
X58412000Y-55461000D02*
X58418000Y-55463000D01*
X58418000Y-55463000D02*
X58424000Y-55465000D01*
X58424000Y-55465000D02*
X58429000Y-55468000D01*
X58429000Y-55468000D02*
X58435000Y-55471000D01*
X58435000Y-55471000D02*
X58440000Y-55474000D01*
X58440000Y-55474000D02*
X58446000Y-55478000D01*
X58446000Y-55478000D02*
X58451000Y-55482000D01*
X58451000Y-55482000D02*
X58455000Y-55486000D01*
X58455000Y-55486000D02*
X58460000Y-55490000D01*
X58460000Y-55490000D02*
X58464000Y-55495000D01*
X58464000Y-55495000D02*
X58468000Y-55499000D01*
X58468000Y-55499000D02*
X58472000Y-55504000D01*
X58472000Y-55504000D02*
X58476000Y-55510000D01*
X58476000Y-55510000D02*
X58479000Y-55515000D01*
X58479000Y-55515000D02*
X58482000Y-55521000D01*
X58482000Y-55521000D02*
X58485000Y-55526000D01*
X58485000Y-55526000D02*
X58487000Y-55532000D01*
X58487000Y-55532000D02*
X58489000Y-55538000D01*
X58489000Y-55538000D02*
X58491000Y-55544000D01*
X58491000Y-55544000D02*
X58492000Y-55550000D01*
X58492000Y-55550000D02*
X58494000Y-55556000D01*
X58494000Y-55556000D02*
X58494000Y-55562000D01*
X58494000Y-55562000D02*
X58495000Y-55569000D01*
X58495000Y-55569000D02*
X58495000Y-55575000D01*
X58495000Y-55575000D02*
X58495000Y-55575000D01*
G36*
X58388000Y-55456000D02*
G01*
X58394000Y-55456000D01*
X58400000Y-55458000D01*
X58406000Y-55459000D01*
X58424000Y-55465000D01*
X58429000Y-55468000D01*
X58435000Y-55471000D01*
X58440000Y-55474000D01*
X58446000Y-55478000D01*
X58451000Y-55482000D01*
X58455000Y-55486000D01*
X58460000Y-55490000D01*
X58464000Y-55495000D01*
X58468000Y-55499000D01*
X58472000Y-55504000D01*
X58476000Y-55510000D01*
X58479000Y-55515000D01*
X58482000Y-55521000D01*
X58485000Y-55526000D01*
X58491000Y-55544000D01*
X58492000Y-55550000D01*
X58494000Y-55556000D01*
X58494000Y-55562000D01*
X58495000Y-55569000D01*
X58495000Y-55731000D01*
X58494000Y-55738000D01*
X58494000Y-55744000D01*
X58492000Y-55750000D01*
X58491000Y-55756000D01*
X58485000Y-55774000D01*
X58482000Y-55779000D01*
X58479000Y-55785000D01*
X58476000Y-55790000D01*
X58472000Y-55796000D01*
X58468000Y-55801000D01*
X58464000Y-55805000D01*
X58460000Y-55810000D01*
X58455000Y-55814000D01*
X58451000Y-55818000D01*
X58446000Y-55822000D01*
X58440000Y-55826000D01*
X58435000Y-55829000D01*
X58429000Y-55832000D01*
X58424000Y-55835000D01*
X58406000Y-55841000D01*
X58400000Y-55842000D01*
X58394000Y-55844000D01*
X58388000Y-55844000D01*
X58381000Y-55845000D01*
X57569000Y-55845000D01*
X57562000Y-55844000D01*
X57556000Y-55844000D01*
X57550000Y-55842000D01*
X57544000Y-55841000D01*
X57526000Y-55835000D01*
X57521000Y-55832000D01*
X57515000Y-55829000D01*
X57510000Y-55826000D01*
X57504000Y-55822000D01*
X57499000Y-55818000D01*
X57495000Y-55814000D01*
X57490000Y-55810000D01*
X57486000Y-55805000D01*
X57482000Y-55801000D01*
X57478000Y-55796000D01*
X57474000Y-55790000D01*
X57471000Y-55785000D01*
X57468000Y-55779000D01*
X57465000Y-55774000D01*
X57459000Y-55756000D01*
X57458000Y-55750000D01*
X57456000Y-55744000D01*
X57456000Y-55738000D01*
X57455000Y-55731000D01*
X57455000Y-55569000D01*
X57456000Y-55562000D01*
X57456000Y-55556000D01*
X57458000Y-55550000D01*
X57459000Y-55544000D01*
X57465000Y-55526000D01*
X57468000Y-55521000D01*
X57471000Y-55515000D01*
X57474000Y-55510000D01*
X57478000Y-55504000D01*
X57482000Y-55499000D01*
X57486000Y-55495000D01*
X57490000Y-55490000D01*
X57495000Y-55486000D01*
X57499000Y-55482000D01*
X57504000Y-55478000D01*
X57510000Y-55474000D01*
X57515000Y-55471000D01*
X57521000Y-55468000D01*
X57526000Y-55465000D01*
X57544000Y-55459000D01*
X57550000Y-55458000D01*
X57556000Y-55456000D01*
X57562000Y-55456000D01*
X57569000Y-55455000D01*
X58381000Y-55455000D01*
X58388000Y-55456000D01*
G37*
X58388000Y-55456000D02*
X58394000Y-55456000D01*
X58400000Y-55458000D01*
X58406000Y-55459000D01*
X58424000Y-55465000D01*
X58429000Y-55468000D01*
X58435000Y-55471000D01*
X58440000Y-55474000D01*
X58446000Y-55478000D01*
X58451000Y-55482000D01*
X58455000Y-55486000D01*
X58460000Y-55490000D01*
X58464000Y-55495000D01*
X58468000Y-55499000D01*
X58472000Y-55504000D01*
X58476000Y-55510000D01*
X58479000Y-55515000D01*
X58482000Y-55521000D01*
X58485000Y-55526000D01*
X58491000Y-55544000D01*
X58492000Y-55550000D01*
X58494000Y-55556000D01*
X58494000Y-55562000D01*
X58495000Y-55569000D01*
X58495000Y-55731000D01*
X58494000Y-55738000D01*
X58494000Y-55744000D01*
X58492000Y-55750000D01*
X58491000Y-55756000D01*
X58485000Y-55774000D01*
X58482000Y-55779000D01*
X58479000Y-55785000D01*
X58476000Y-55790000D01*
X58472000Y-55796000D01*
X58468000Y-55801000D01*
X58464000Y-55805000D01*
X58460000Y-55810000D01*
X58455000Y-55814000D01*
X58451000Y-55818000D01*
X58446000Y-55822000D01*
X58440000Y-55826000D01*
X58435000Y-55829000D01*
X58429000Y-55832000D01*
X58424000Y-55835000D01*
X58406000Y-55841000D01*
X58400000Y-55842000D01*
X58394000Y-55844000D01*
X58388000Y-55844000D01*
X58381000Y-55845000D01*
X57569000Y-55845000D01*
X57562000Y-55844000D01*
X57556000Y-55844000D01*
X57550000Y-55842000D01*
X57544000Y-55841000D01*
X57526000Y-55835000D01*
X57521000Y-55832000D01*
X57515000Y-55829000D01*
X57510000Y-55826000D01*
X57504000Y-55822000D01*
X57499000Y-55818000D01*
X57495000Y-55814000D01*
X57490000Y-55810000D01*
X57486000Y-55805000D01*
X57482000Y-55801000D01*
X57478000Y-55796000D01*
X57474000Y-55790000D01*
X57471000Y-55785000D01*
X57468000Y-55779000D01*
X57465000Y-55774000D01*
X57459000Y-55756000D01*
X57458000Y-55750000D01*
X57456000Y-55744000D01*
X57456000Y-55738000D01*
X57455000Y-55731000D01*
X57455000Y-55569000D01*
X57456000Y-55562000D01*
X57456000Y-55556000D01*
X57458000Y-55550000D01*
X57459000Y-55544000D01*
X57465000Y-55526000D01*
X57468000Y-55521000D01*
X57471000Y-55515000D01*
X57474000Y-55510000D01*
X57478000Y-55504000D01*
X57482000Y-55499000D01*
X57486000Y-55495000D01*
X57490000Y-55490000D01*
X57495000Y-55486000D01*
X57499000Y-55482000D01*
X57504000Y-55478000D01*
X57510000Y-55474000D01*
X57515000Y-55471000D01*
X57521000Y-55468000D01*
X57526000Y-55465000D01*
X57544000Y-55459000D01*
X57550000Y-55458000D01*
X57556000Y-55456000D01*
X57562000Y-55456000D01*
X57569000Y-55455000D01*
X58381000Y-55455000D01*
X58388000Y-55456000D01*
%TD*%
D11*
%TO.C,C12*%
X56375000Y-51200000D03*
X59325000Y-51200000D03*
%TD*%
D12*
%TO.C,R3*%
X55425000Y-63600000D03*
X53850000Y-63600000D03*
%TD*%
D13*
%TO.C,D2*%
X50662500Y-63600000D03*
X52537500Y-63600000D03*
%TD*%
D14*
%TO.C,C5*%
X56362500Y-57450000D03*
X57937500Y-57450000D03*
%TD*%
D15*
%TO.C,C7*%
X56900000Y-61825000D03*
X56900000Y-58875000D03*
%TD*%
D14*
%TO.C,C8*%
X56312500Y-52950000D03*
X57887500Y-52950000D03*
%TD*%
D12*
%TO.C,R4*%
X53987500Y-55700000D03*
X52412500Y-55700000D03*
%TD*%
D14*
%TO.C,R5*%
X52425000Y-54200000D03*
X54000000Y-54200000D03*
%TD*%
D16*
%TO.C,L2*%
X59725000Y-54312500D03*
X59725000Y-56187500D03*
%TD*%
D13*
%TO.C,C3*%
X73862500Y-51650000D03*
X75737500Y-51650000D03*
%TD*%
D12*
%TO.C,C6*%
X68450000Y-50700000D03*
X66875000Y-50700000D03*
%TD*%
%TO.C,C19*%
X72300000Y-55900000D03*
X70725000Y-55900000D03*
%TD*%
D17*
%TO.C,L3*%
X71500000Y-51600000D03*
X71500000Y-54400000D03*
%TD*%
D14*
%TO.C,ROV3*%
X64100000Y-50700000D03*
X65675000Y-50700000D03*
%TD*%
D18*
%TO.C,ROV4*%
X62850000Y-52287500D03*
X62850000Y-50712500D03*
%TD*%
D14*
%TO.C,C9*%
X59012500Y-62760000D03*
X60587500Y-62760000D03*
%TD*%
%TO.C,C20*%
X59000000Y-64080000D03*
X60575000Y-64080000D03*
%TD*%
%TO.C,C15*%
X67475000Y-57550000D03*
X69050000Y-57550000D03*
%TD*%
D19*
%TO.C,C2*%
X72350000Y-57510000D03*
X70450000Y-57510000D03*
%TD*%
D20*
%TO.C,C25*%
X69750000Y-76100000D03*
X68200000Y-76100000D03*
%TD*%
D21*
%TO.C,C26*%
X59850000Y-68950000D03*
X61400000Y-68950000D03*
%TD*%
D22*
%TO.C,U6*%
X62970000Y-70635000D03*
X63470000Y-70635000D03*
X63970000Y-70635000D03*
X64470000Y-70635000D03*
X64970000Y-70635000D03*
D23*
X65195000Y-69910000D03*
X65195000Y-69410000D03*
X65195000Y-68910000D03*
D22*
X64970000Y-68185000D03*
X64470000Y-68185000D03*
X63970000Y-68185000D03*
X63470000Y-68185000D03*
X62970000Y-68185000D03*
D23*
X62745000Y-68910000D03*
X62745000Y-69410000D03*
X62745000Y-69910000D03*
%TD*%
D24*
%TO.C,J1*%
X64070000Y-65750000D03*
X64070000Y-65250000D03*
X64070000Y-64750000D03*
X64070000Y-64250000D03*
X64070000Y-63750000D03*
X64070000Y-63250000D03*
X64070000Y-62750000D03*
X64070000Y-62250000D03*
X64070000Y-61750000D03*
X64070000Y-61250000D03*
%TD*%
D25*
%TO.C,D1*%
X73850000Y-56200000D03*
X76350000Y-56200000D03*
%TD*%
%TO.C,D3*%
X73850000Y-54250000D03*
X76350000Y-54250000D03*
%TD*%
D26*
%TO.C,U5*%
X69100349Y-53613864D03*
X68746796Y-53260311D03*
X68393243Y-52906757D03*
X68039689Y-52553204D03*
X67686136Y-52199651D03*
D27*
X66713864Y-52199651D03*
X66360311Y-52553204D03*
X66006757Y-52906757D03*
X65653204Y-53260311D03*
X65299651Y-53613864D03*
D26*
X65299651Y-54586136D03*
X65653204Y-54939689D03*
X66006757Y-55293243D03*
X66360311Y-55646796D03*
X66713864Y-56000349D03*
D27*
X67686136Y-56000349D03*
X68039689Y-55646796D03*
X68393243Y-55293243D03*
X68746796Y-54939689D03*
X69100349Y-54586136D03*
D28*
X67200000Y-54100000D03*
%TD*%
D20*
%TO.C,C16*%
X113125000Y-69150000D03*
X111575000Y-69150000D03*
%TD*%
D29*
%TO.C,R2*%
X110125000Y-67650000D03*
X108475000Y-67650000D03*
%TD*%
%TO.C,R6*%
X113150000Y-70500000D03*
X111500000Y-70500000D03*
%TD*%
%TO.C,R12*%
X110400000Y-71850000D03*
X108750000Y-71850000D03*
%TD*%
D30*
%TO.C,R15*%
X64350000Y-58200000D03*
X64350000Y-56550000D03*
%TD*%
D29*
%TO.C,R13*%
X113225000Y-73400000D03*
X111575000Y-73400000D03*
%TD*%
D20*
%TO.C,C23*%
X113175000Y-71850000D03*
X111625000Y-71850000D03*
%TD*%
D31*
%TO.C,C28*%
X62950000Y-58200000D03*
X62950000Y-56650000D03*
%TD*%
D30*
%TO.C,R14*%
X61650000Y-56625000D03*
X61650000Y-54975000D03*
%TD*%
D32*
%TO.C,C1*%
X120350000Y-59040000D03*
X120350000Y-60010000D03*
%TD*%
D33*
%TO.C,U2*%
X108950000Y-52300000D03*
D34*
X108950000Y-53400000D03*
X108950000Y-54500000D03*
X108950000Y-55600000D03*
X108950000Y-56700000D03*
X108950000Y-57800000D03*
X108950000Y-58900000D03*
X108950000Y-60000000D03*
D33*
X108950000Y-61100000D03*
X118450000Y-61100000D03*
D34*
X118450000Y-60000000D03*
X118450000Y-58900000D03*
X118450000Y-57800000D03*
X118450000Y-56700000D03*
X118450000Y-55600000D03*
X118450000Y-54500000D03*
X118450000Y-53400000D03*
D33*
X118450000Y-52300000D03*
%TD*%
D35*
%TO.C,AE1*%
X122350000Y-62850000D03*
D36*
X122850000Y-66050000D03*
D35*
X123350000Y-62850000D03*
%TD*%
D21*
%TO.C,C21*%
X108500000Y-62900000D03*
X110050000Y-62900000D03*
%TD*%
D20*
%TO.C,C10*%
X63510000Y-75930000D03*
X61960000Y-75930000D03*
%TD*%
D37*
%TO.C,C13*%
X108500000Y-64650000D03*
X110400000Y-64650000D03*
%TD*%
D38*
%TO.C,U1*%
X69026894Y-72351786D03*
D39*
X69422874Y-72662913D03*
X69776427Y-73016466D03*
X70129981Y-73370019D03*
X70483534Y-73723573D03*
X70837087Y-74077126D03*
D40*
X71148214Y-74473106D03*
D41*
X71851786Y-74473106D03*
D42*
X72162913Y-74077126D03*
X72516466Y-73723573D03*
X72870019Y-73370019D03*
X73223573Y-73016466D03*
X73577126Y-72662913D03*
D43*
X73973106Y-72351786D03*
D44*
X73973106Y-71648214D03*
D39*
X73577126Y-71337087D03*
X73223573Y-70983534D03*
X72870019Y-70629981D03*
X72516466Y-70276427D03*
X72162913Y-69922874D03*
D45*
X71851786Y-69526894D03*
D46*
X71148214Y-69526894D03*
D42*
X70837087Y-69922874D03*
X70483534Y-70276427D03*
X70129981Y-70629981D03*
X69776427Y-70983534D03*
X69422874Y-71337087D03*
D47*
X69026894Y-71648214D03*
%TD*%
D31*
%TO.C,C18*%
X50850000Y-75675000D03*
X50850000Y-74125000D03*
%TD*%
D21*
%TO.C,C11*%
X74475000Y-69850000D03*
X76025000Y-69850000D03*
%TD*%
D20*
%TO.C,C4*%
X63545000Y-73420000D03*
X61995000Y-73420000D03*
%TD*%
D48*
%TO.C,J8*%
X85300000Y-77050000D03*
D49*
X87840000Y-77050000D03*
X90380000Y-77050000D03*
X92920000Y-77050000D03*
%TD*%
D29*
%TO.C,R7*%
X110125000Y-69500000D03*
X108475000Y-69500000D03*
%TD*%
D30*
%TO.C,R1*%
X59950000Y-75125000D03*
X59950000Y-73475000D03*
%TD*%
D50*
%TO.C,J4*%
X55150000Y-75300000D03*
X56166000Y-70220000D03*
X57182000Y-75300000D03*
D51*
X55531000Y-71490000D03*
X56801000Y-71490000D03*
X55531000Y-72760000D03*
X56801000Y-72760000D03*
X55531000Y-74030000D03*
X56801000Y-74030000D03*
%TD*%
D52*
%TO.C,Y1*%
X65330000Y-75940000D03*
X65330000Y-73440000D03*
%TD*%
D48*
%TO.C,J2*%
X110000000Y-50000000D03*
%TD*%
%TO.C,J5*%
X110000000Y-77000000D03*
%TD*%
%TO.C,J6*%
X53000000Y-77000000D03*
%TD*%
D53*
%TO.C,J7*%
X54000000Y-59750000D03*
X49000000Y-59750000D03*
X49000000Y-67250000D03*
X54000000Y-67250000D03*
%TD*%
D48*
%TO.C,J3*%
X53000000Y-50000000D03*
%TD*%
D54*
%TO.C,C17*%
X59000000Y-66250000D03*
X59000000Y-60750000D03*
%TD*%
%TO.C,C14*%
X82900000Y-66200000D03*
X82900000Y-60700000D03*
%TD*%
M02*
