M48
; DRILL file {KiCad (6.0.0)} date Sun Feb  6 18:07:21 2022
; FORMAT={-:-/ absolute / inch / decimal}
; #@! TF.CreationDate,2022-02-06T18:07:21-07:00
; #@! TF.GenerationSoftware,Kicad,Pcbnew,(6.0.0)
; #@! TF.FileFunction,Plated,1,2,PTH
FMAT,2
INCH
; #@! TA.AperFunction,Plated,PTH,ViaDrill
T1C0.0118
; #@! TA.AperFunction,Plated,PTH,ViaDrill
T2C0.0157
; #@! TA.AperFunction,Plated,PTH,ComponentDrill
T3C0.0300
; #@! TA.AperFunction,Plated,PTH,ComponentDrill
T4C0.0394
; #@! TA.AperFunction,Plated,PTH,ComponentDrill
T5C0.0728
%
G90
G05
T1
X2.0197Y-2.1339
X2.063Y-2.0925
X2.1378Y-2.8642
X2.1713Y-2.0157
X2.1713Y-2.0768
X2.1752Y-2.2559
X2.1752Y-2.4409
X2.2579Y-2.3917
X2.2756Y-2.4941
X2.2795Y-2.7972
X2.3091Y-2.8386
X2.311Y-2.9606
X2.3583Y-2.6713
X2.3622Y-3.002
X2.3839Y-2.8051
X2.4055Y-2.0768
X2.4252Y-2.1299
X2.4272Y-2.2795
X2.439Y-2.939
X2.4803Y-2.1634
X2.4921Y-2.8169
X2.5177Y-2.6457
X2.5394Y-2.8146
X2.565Y-2.6358
X2.6024Y-2.7895
X2.6043Y-2.25
X2.6181Y-2.7067
X2.6437Y-2.7717
X2.6457Y-2.128
X2.6516Y-2.9941
X2.6732Y-2.3189
X2.6732Y-2.9449
X2.6752Y-2.6122
X2.6969Y-2.5413
X2.7028Y-2.6496
X2.7205Y-2.3091
X2.7264Y-2.0354
X2.752Y-1.9941
X2.7736Y-2.2283
X2.7776Y-2.6693
X2.8091Y-2.5728
X2.8268Y-2.6811
X2.8602Y-2.5965
X2.9035Y-2.2677
X3.0256Y-2.561
X3.0335Y-2.0315
X3.0512Y-2.748
X3.0669Y-2.8543
X3.1024Y-2.4311
X3.124Y-2.2657
X3.2126Y-2.0295
X3.2539Y-2.5197
X3.3951Y-2.8264
X3.4449Y-2.5453
X3.4547Y-2.3878
X3.4744Y-2.9488
X3.5177Y-2.3327
X3.5669Y-2.0295
X3.6161Y-2.9665
X3.6476Y-2.7421
X3.8622Y-2.9823
X3.9252Y-2.0256
X3.9469Y-2.75
X3.9508Y-2.9803
X3.9528Y-2.2776
X4.0118Y-2.2165
X4.0354Y-2.9567
X4.0866Y-2.1083
X4.1004Y-2.9311
X4.124Y-2.1457
X4.146Y-2.8941
X4.1693Y-2.7638
X4.1752Y-2.2343
X4.1969Y-2.9193
X4.2126Y-2.6181
X4.2402Y-2.8307
X4.2795Y-2.9173
X4.3937Y-2.4724
X4.4114Y-2.5394
X4.5039Y-2.7224
X4.5138Y-2.8287
X4.5945Y-2.4587
X4.6732Y-2.4646
X4.6732Y-2.5098
X4.6752Y-2.5669
X4.6752Y-2.6102
X4.6772Y-2.6555
X4.7323Y-2.6555
X4.7402Y-2.2756
X4.7461Y-2.4173
X4.7894Y-2.3248
X4.7953Y-2.6555
X4.8484Y-2.6535
X4.8524Y-2.3248
X4.8543Y-2.3701
X4.8563Y-2.4193
T2
X2.063Y-2.2402
X2.3386Y-2.2697
X2.4173Y-2.7618
X2.6634Y-2.4705
X2.7441Y-2.9665
X2.9705Y-2.6949
X3.1909Y-2.6791
T3
X2.3228Y-2.3917
X2.3228Y-2.6083
X3.2638Y-2.3898
X3.2638Y-2.6063
T4
X2.0866Y-1.9685
X2.0866Y-3.0315
X3.3583Y-3.0335
X3.4583Y-3.0335
X3.5583Y-3.0335
X3.6583Y-3.0335
X4.3307Y-1.9685
X4.3307Y-3.0315
T5
X1.9291Y-2.3524
X1.9291Y-2.6476
X2.126Y-2.3524
X2.126Y-2.6476
T0
M30
