%TF.GenerationSoftware,KiCad,Pcbnew,(6.0.2)*%
%TF.CreationDate,2022-05-15T09:33:53-06:00*%
%TF.ProjectId,SolarGPS,536f6c61-7247-4505-932e-6b696361645f,rev?*%
%TF.SameCoordinates,Original*%
%TF.FileFunction,Legend,Bot*%
%TF.FilePolarity,Positive*%
%FSLAX46Y46*%
G04 Gerber Fmt 4.6, Leading zero omitted, Abs format (unit mm)*
G04 Created by KiCad (PCBNEW (6.0.2)) date 2022-05-15 09:33:53*
%MOMM*%
%LPD*%
G01*
G04 APERTURE LIST*
%ADD10C,0.300000*%
%ADD11C,0.200000*%
%ADD12C,0.250000*%
%ADD13C,0.120000*%
G04 APERTURE END LIST*
D10*
X55392857Y-75200000D02*
X55535714Y-75128571D01*
X55750000Y-75128571D01*
X55964285Y-75200000D01*
X56107142Y-75342857D01*
X56178571Y-75485714D01*
X56250000Y-75771428D01*
X56250000Y-75985714D01*
X56178571Y-76271428D01*
X56107142Y-76414285D01*
X55964285Y-76557142D01*
X55750000Y-76628571D01*
X55607142Y-76628571D01*
X55392857Y-76557142D01*
X55321428Y-76485714D01*
X55321428Y-75985714D01*
X55607142Y-75985714D01*
X54678571Y-76628571D02*
X54678571Y-75128571D01*
X53821428Y-76628571D01*
X53821428Y-75128571D01*
X53107142Y-76628571D02*
X53107142Y-75128571D01*
X52750000Y-75128571D01*
X52535714Y-75200000D01*
X52392857Y-75342857D01*
X52321428Y-75485714D01*
X52250000Y-75771428D01*
X52250000Y-75985714D01*
X52321428Y-76271428D01*
X52392857Y-76414285D01*
X52535714Y-76557142D01*
X52750000Y-76628571D01*
X53107142Y-76628571D01*
D11*
X118504761Y-53204761D02*
X118361904Y-53252380D01*
X118123809Y-53252380D01*
X118028571Y-53204761D01*
X117980952Y-53157142D01*
X117933333Y-53061904D01*
X117933333Y-52966666D01*
X117980952Y-52871428D01*
X118028571Y-52823809D01*
X118123809Y-52776190D01*
X118314285Y-52728571D01*
X118409523Y-52680952D01*
X118457142Y-52633333D01*
X118504761Y-52538095D01*
X118504761Y-52442857D01*
X118457142Y-52347619D01*
X118409523Y-52300000D01*
X118314285Y-52252380D01*
X118076190Y-52252380D01*
X117933333Y-52300000D01*
X117504761Y-52871428D02*
X116742857Y-52871428D01*
X117123809Y-53252380D02*
X117123809Y-52490476D01*
X113004761Y-78704761D02*
X112861904Y-78752380D01*
X112623809Y-78752380D01*
X112528571Y-78704761D01*
X112480952Y-78657142D01*
X112433333Y-78561904D01*
X112433333Y-78466666D01*
X112480952Y-78371428D01*
X112528571Y-78323809D01*
X112623809Y-78276190D01*
X112814285Y-78228571D01*
X112909523Y-78180952D01*
X112957142Y-78133333D01*
X113004761Y-78038095D01*
X113004761Y-77942857D01*
X112957142Y-77847619D01*
X112909523Y-77800000D01*
X112814285Y-77752380D01*
X112576190Y-77752380D01*
X112433333Y-77800000D01*
X112004761Y-78371428D02*
X111242857Y-78371428D01*
X111623809Y-78752380D02*
X111623809Y-77990476D01*
D10*
X55942857Y-54000000D02*
X56085714Y-53928571D01*
X56300000Y-53928571D01*
X56514285Y-54000000D01*
X56657142Y-54142857D01*
X56728571Y-54285714D01*
X56800000Y-54571428D01*
X56800000Y-54785714D01*
X56728571Y-55071428D01*
X56657142Y-55214285D01*
X56514285Y-55357142D01*
X56300000Y-55428571D01*
X56157142Y-55428571D01*
X55942857Y-55357142D01*
X55871428Y-55285714D01*
X55871428Y-54785714D01*
X56157142Y-54785714D01*
X55228571Y-55428571D02*
X55228571Y-53928571D01*
X54371428Y-55428571D01*
X54371428Y-53928571D01*
X53657142Y-55428571D02*
X53657142Y-53928571D01*
X53300000Y-53928571D01*
X53085714Y-54000000D01*
X52942857Y-54142857D01*
X52871428Y-54285714D01*
X52800000Y-54571428D01*
X52800000Y-54785714D01*
X52871428Y-55071428D01*
X52942857Y-55214285D01*
X53085714Y-55357142D01*
X53300000Y-55428571D01*
X53657142Y-55428571D01*
D11*
X94421428Y-66078571D02*
X94421428Y-64578571D01*
X94064285Y-64578571D01*
X93850000Y-64650000D01*
X93707142Y-64792857D01*
X93635714Y-64935714D01*
X93564285Y-65221428D01*
X93564285Y-65435714D01*
X93635714Y-65721428D01*
X93707142Y-65864285D01*
X93850000Y-66007142D01*
X94064285Y-66078571D01*
X94421428Y-66078571D01*
X92635714Y-64578571D02*
X92350000Y-64578571D01*
X92207142Y-64650000D01*
X92064285Y-64792857D01*
X91992857Y-65078571D01*
X91992857Y-65578571D01*
X92064285Y-65864285D01*
X92207142Y-66007142D01*
X92350000Y-66078571D01*
X92635714Y-66078571D01*
X92778571Y-66007142D01*
X92921428Y-65864285D01*
X92992857Y-65578571D01*
X92992857Y-65078571D01*
X92921428Y-64792857D01*
X92778571Y-64650000D01*
X92635714Y-64578571D01*
X91350000Y-66078571D02*
X91350000Y-64578571D01*
X90492857Y-66078571D01*
X90492857Y-64578571D01*
X89992857Y-64578571D02*
X89135714Y-64578571D01*
X89564285Y-66078571D02*
X89564285Y-64578571D01*
X86778571Y-66078571D02*
X87492857Y-66078571D01*
X87492857Y-64578571D01*
X85992857Y-64578571D02*
X85707142Y-64578571D01*
X85564285Y-64650000D01*
X85421428Y-64792857D01*
X85350000Y-65078571D01*
X85350000Y-65578571D01*
X85421428Y-65864285D01*
X85564285Y-66007142D01*
X85707142Y-66078571D01*
X85992857Y-66078571D01*
X86135714Y-66007142D01*
X86278571Y-65864285D01*
X86350000Y-65578571D01*
X86350000Y-65078571D01*
X86278571Y-64792857D01*
X86135714Y-64650000D01*
X85992857Y-64578571D01*
X84421428Y-64578571D02*
X84135714Y-64578571D01*
X83992857Y-64650000D01*
X83850000Y-64792857D01*
X83778571Y-65078571D01*
X83778571Y-65578571D01*
X83850000Y-65864285D01*
X83992857Y-66007142D01*
X84135714Y-66078571D01*
X84421428Y-66078571D01*
X84564285Y-66007142D01*
X84707142Y-65864285D01*
X84778571Y-65578571D01*
X84778571Y-65078571D01*
X84707142Y-64792857D01*
X84564285Y-64650000D01*
X84421428Y-64578571D01*
X83135714Y-66078571D02*
X83135714Y-64578571D01*
X82278571Y-66078571D02*
X82921428Y-65221428D01*
X82278571Y-64578571D02*
X83135714Y-65435714D01*
X80492857Y-66078571D02*
X80492857Y-64578571D01*
X80492857Y-65292857D02*
X79635714Y-65292857D01*
X79635714Y-66078571D02*
X79635714Y-64578571D01*
X78921428Y-65292857D02*
X78421428Y-65292857D01*
X78207142Y-66078571D02*
X78921428Y-66078571D01*
X78921428Y-64578571D01*
X78207142Y-64578571D01*
X76707142Y-66078571D02*
X77207142Y-65364285D01*
X77564285Y-66078571D02*
X77564285Y-64578571D01*
X76992857Y-64578571D01*
X76850000Y-64650000D01*
X76778571Y-64721428D01*
X76707142Y-64864285D01*
X76707142Y-65078571D01*
X76778571Y-65221428D01*
X76850000Y-65292857D01*
X76992857Y-65364285D01*
X77564285Y-65364285D01*
X76064285Y-65292857D02*
X75564285Y-65292857D01*
X75350000Y-66078571D02*
X76064285Y-66078571D01*
X76064285Y-64578571D01*
X75350000Y-64578571D01*
D12*
X115669642Y-67606071D02*
X115169642Y-69106071D01*
X114669642Y-67606071D01*
X114169642Y-69106071D02*
X114169642Y-67606071D01*
X113812500Y-67606071D01*
X113598214Y-67677500D01*
X113455357Y-67820357D01*
X113383928Y-67963214D01*
X113312500Y-68248928D01*
X113312500Y-68463214D01*
X113383928Y-68748928D01*
X113455357Y-68891785D01*
X113598214Y-69034642D01*
X113812500Y-69106071D01*
X114169642Y-69106071D01*
X112669642Y-69106071D02*
X112669642Y-67606071D01*
X112312500Y-67606071D01*
X112098214Y-67677500D01*
X111955357Y-67820357D01*
X111883928Y-67963214D01*
X111812500Y-68248928D01*
X111812500Y-68463214D01*
X111883928Y-68748928D01*
X111955357Y-68891785D01*
X112098214Y-69034642D01*
X112312500Y-69106071D01*
X112669642Y-69106071D01*
X115455357Y-71521071D02*
X115455357Y-70021071D01*
X114955357Y-71092500D01*
X114455357Y-70021071D01*
X114455357Y-71521071D01*
X113455357Y-70021071D02*
X113169642Y-70021071D01*
X113026785Y-70092500D01*
X112883928Y-70235357D01*
X112812500Y-70521071D01*
X112812500Y-71021071D01*
X112883928Y-71306785D01*
X113026785Y-71449642D01*
X113169642Y-71521071D01*
X113455357Y-71521071D01*
X113598214Y-71449642D01*
X113741071Y-71306785D01*
X113812500Y-71021071D01*
X113812500Y-70521071D01*
X113741071Y-70235357D01*
X113598214Y-70092500D01*
X113455357Y-70021071D01*
X112241071Y-71449642D02*
X112026785Y-71521071D01*
X111669642Y-71521071D01*
X111526785Y-71449642D01*
X111455357Y-71378214D01*
X111383928Y-71235357D01*
X111383928Y-71092500D01*
X111455357Y-70949642D01*
X111526785Y-70878214D01*
X111669642Y-70806785D01*
X111955357Y-70735357D01*
X112098214Y-70663928D01*
X112169642Y-70592500D01*
X112241071Y-70449642D01*
X112241071Y-70306785D01*
X112169642Y-70163928D01*
X112098214Y-70092500D01*
X111955357Y-70021071D01*
X111598214Y-70021071D01*
X111383928Y-70092500D01*
X110741071Y-71521071D02*
X110741071Y-70021071D01*
X115455357Y-73936071D02*
X115455357Y-72436071D01*
X114955357Y-73507500D01*
X114455357Y-72436071D01*
X114455357Y-73936071D01*
X113741071Y-73936071D02*
X113741071Y-72436071D01*
X113098214Y-73864642D02*
X112883928Y-73936071D01*
X112526785Y-73936071D01*
X112383928Y-73864642D01*
X112312500Y-73793214D01*
X112241071Y-73650357D01*
X112241071Y-73507500D01*
X112312500Y-73364642D01*
X112383928Y-73293214D01*
X112526785Y-73221785D01*
X112812500Y-73150357D01*
X112955357Y-73078928D01*
X113026785Y-73007500D01*
X113098214Y-72864642D01*
X113098214Y-72721785D01*
X113026785Y-72578928D01*
X112955357Y-72507500D01*
X112812500Y-72436071D01*
X112455357Y-72436071D01*
X112241071Y-72507500D01*
X111312500Y-72436071D02*
X111026785Y-72436071D01*
X110883928Y-72507500D01*
X110741071Y-72650357D01*
X110669642Y-72936071D01*
X110669642Y-73436071D01*
X110741071Y-73721785D01*
X110883928Y-73864642D01*
X111026785Y-73936071D01*
X111312500Y-73936071D01*
X111455357Y-73864642D01*
X111598214Y-73721785D01*
X111669642Y-73436071D01*
X111669642Y-72936071D01*
X111598214Y-72650357D01*
X111455357Y-72507500D01*
X111312500Y-72436071D01*
X114669642Y-74922500D02*
X114812500Y-74851071D01*
X115026785Y-74851071D01*
X115241071Y-74922500D01*
X115383928Y-75065357D01*
X115455357Y-75208214D01*
X115526785Y-75493928D01*
X115526785Y-75708214D01*
X115455357Y-75993928D01*
X115383928Y-76136785D01*
X115241071Y-76279642D01*
X115026785Y-76351071D01*
X114883928Y-76351071D01*
X114669642Y-76279642D01*
X114598214Y-76208214D01*
X114598214Y-75708214D01*
X114883928Y-75708214D01*
X113955357Y-76351071D02*
X113955357Y-74851071D01*
X113098214Y-76351071D01*
X113098214Y-74851071D01*
X112383928Y-76351071D02*
X112383928Y-74851071D01*
X112026785Y-74851071D01*
X111812500Y-74922500D01*
X111669642Y-75065357D01*
X111598214Y-75208214D01*
X111526785Y-75493928D01*
X111526785Y-75708214D01*
X111598214Y-75993928D01*
X111669642Y-76136785D01*
X111812500Y-76279642D01*
X112026785Y-76351071D01*
X112383928Y-76351071D01*
D11*
%TO.C,C8*%
X68333095Y-70432142D02*
X69856904Y-70432142D01*
X69095000Y-69670238D02*
X69095000Y-71194047D01*
D13*
X72495000Y-62675000D02*
X94495000Y-62675000D01*
X94495000Y-61675000D02*
X94495000Y-70175000D01*
X72495000Y-70175000D02*
X94495000Y-70175000D01*
X72495000Y-61675000D02*
X94495000Y-61675000D01*
X72495000Y-61675000D02*
X72495000Y-70175000D01*
%TO.C,J8*%
X119205000Y-77350000D02*
X116545000Y-77350000D01*
X119205000Y-69670000D02*
X119205000Y-77350000D01*
X117875000Y-67070000D02*
X116545000Y-67070000D01*
X116545000Y-69670000D02*
X116545000Y-77350000D01*
X116545000Y-67070000D02*
X116545000Y-68400000D01*
X119205000Y-69670000D02*
X116545000Y-69670000D01*
%TD*%
M02*
