M48
; DRILL file {KiCad (6.0.1)} date Wed Apr 20 12:26:55 2022
; FORMAT={-:-/ absolute / inch / decimal}
; #@! TF.CreationDate,2022-04-20T12:26:55-06:00
; #@! TF.GenerationSoftware,Kicad,Pcbnew,(6.0.1)
; #@! TF.FileFunction,Plated,1,2,PTH
FMAT,2
INCH
; #@! TA.AperFunction,Plated,PTH,ViaDrill
T1C0.0118
; #@! TA.AperFunction,Plated,PTH,ViaDrill
T2C0.0157
; #@! TA.AperFunction,Plated,PTH,ComponentDrill
T3C0.0394
; #@! TA.AperFunction,Plated,PTH,ComponentDrill
T4C0.0728
%
G90
G05
T1
X2.002Y-2.2894
X2.0098Y-2.998
X2.0256Y-2.6083
X2.0512Y-2.9114
X2.0846Y-2.1496
X2.189Y-2.2795
X2.2028Y-3.0906
X2.2441Y-2.6043
X2.2579Y-2.1575
X2.2657Y-3.1969
X2.2677Y-3.0256
X2.2854Y-2.3425
X2.313Y-2.6024
X2.3307Y-3.0217
X2.3366Y-2.7067
X2.3366Y-2.8287
X2.3445Y-2.7461
X2.3445Y-2.7874
X2.3465Y-2.878
X2.3563Y-3.1969
X2.372Y-2.2047
X2.3839Y-2.313
X2.3937Y-2.002
X2.3957Y-2.2323
X2.5138Y-2.7657
X2.5846Y-2.7913
X2.5906Y-2.7402
X2.5945Y-2.8425
X2.6378Y-2.7441
X2.7028Y-1.998
X2.7047Y-2.7165
X2.7244Y-2.3504
X2.7244Y-2.9488
X2.7795Y-2.5
X2.7835Y-2.3543
X2.7913Y-2.8661
X2.7992Y-2.813
X2.8031Y-2.7228
X2.8543Y-2.7795
X2.8543Y-2.8898
X2.874Y-2.3583
X2.878Y-2.7362
X2.8819Y-2.815
X2.8819Y-2.9173
X2.9154Y-3.1969
X2.9272Y-3.0315
X2.9291Y-2.9488
X2.9311Y-3.0748
X3.0039Y-2.9394
X3.0118Y-2.6654
X3.0315Y-2.9646
X3.0689Y-2.9803
X3.0787Y-2.6693
X3.0846Y-2.0197
X3.0984Y-2.9961
X3.126Y-3.0173
X3.2756Y-2.5551
X3.2756Y-3.2028
X3.3661Y-2.9409
X3.4094Y-2.5472
X3.4173Y-2.0354
X3.5Y-3.1181
X3.6102Y-2.9606
X3.6378Y-2.0217
X3.6496Y-3.1929
X3.939Y-2.0217
X3.9941Y-3.1772
X4.1142Y-2.7894
X4.1181Y-2.6535
X4.1811Y-2.8583
X4.2382Y-2.8976
X4.2638Y-2.4449
X4.2874Y-2.0177
X4.374Y-2.4508
X4.4272Y-2.0256
X4.4331Y-2.6102
X4.5354Y-2.8406
X4.5374Y-3.0354
X4.5413Y-2.1634
X4.5433Y-2.3386
X4.6398Y-2.6673
X4.6516Y-2.7835
X4.6752Y-3.1299
X4.6772Y-3.0906
X4.6831Y-2.8858
X4.7028Y-1.998
X4.7224Y-2.6555
X4.7264Y-3.1909
X4.8268Y-3.189
X4.8524Y-2.5965
X4.8543Y-2.4764
X4.8543Y-2.5374
X4.8543Y-2.6575
X4.8878Y-2.4469
X4.9311Y-2.6594
X4.9469Y-3.189
X4.9626Y-2.4488
X4.9843Y-2.002
X4.9902Y-2.6594
X4.9902Y-2.7933
X5.0335Y-2.7933
X5.0335Y-2.9902
X5.0354Y-2.4449
X5.0748Y-2.7913
X5.0768Y-2.122
X5.0807Y-2.3091
X5.0925Y-2.4449
T2
X2.3346Y-2.6555
X3.6575Y-2.5984
X3.6575Y-3.0827
X5.0335Y-3.1713
T3
X2.0866Y-2.0472
X2.0866Y-3.1496
X2.6297Y-3.0669
X2.6297Y-3.1669
X2.7297Y-3.0669
X2.7297Y-3.1669
X2.8297Y-3.0669
X2.8297Y-3.1669
X3.7874Y-3.0768
X4.4341Y-2.7067
X4.4341Y-2.8067
X4.4341Y-2.9067
X4.4341Y-3.0067
X4.5276Y-2.0472
X4.5276Y-3.1496
T4
X2.0472Y-2.4508
X2.0472Y-2.7461
X2.2441Y-2.4508
X2.2441Y-2.7461
T0
M30
