%TF.GenerationSoftware,KiCad,Pcbnew,(6.0.2)*%
%TF.CreationDate,2022-05-15T09:33:53-06:00*%
%TF.ProjectId,SolarGPS,536f6c61-7247-4505-932e-6b696361645f,rev?*%
%TF.SameCoordinates,Original*%
%TF.FileFunction,Paste,Top*%
%TF.FilePolarity,Positive*%
%FSLAX46Y46*%
G04 Gerber Fmt 4.6, Leading zero omitted, Abs format (unit mm)*
G04 Created by KiCad (PCBNEW (6.0.2)) date 2022-05-15 09:33:53*
%MOMM*%
%LPD*%
G01*
G04 APERTURE LIST*
G04 Aperture macros list*
%AMRoundRect*
0 Rectangle with rounded corners*
0 $1 Rounding radius*
0 $2 $3 $4 $5 $6 $7 $8 $9 X,Y pos of 4 corners*
0 Add a 4 corners polygon primitive as box body*
4,1,4,$2,$3,$4,$5,$6,$7,$8,$9,$2,$3,0*
0 Add four circle primitives for the rounded corners*
1,1,$1+$1,$2,$3*
1,1,$1+$1,$4,$5*
1,1,$1+$1,$6,$7*
1,1,$1+$1,$8,$9*
0 Add four rect primitives between the rounded corners*
20,1,$1+$1,$2,$3,$4,$5,0*
20,1,$1+$1,$4,$5,$6,$7,0*
20,1,$1+$1,$6,$7,$8,$9,0*
20,1,$1+$1,$8,$9,$2,$3,0*%
%AMOutline4P*
0 Free polygon, 4 corners , with rotation*
0 The origin of the aperture is its center*
0 number of corners: always 4*
0 $1 to $8 corner X, Y*
0 $9 Rotation angle, in degrees counterclockwise*
0 create outline with 4 corners*
4,1,4,$1,$2,$3,$4,$5,$6,$7,$8,$1,$2,$9*%
%AMFreePoly0*
4,1,17,0.230680,0.111820,0.364318,-0.021819,0.364320,-0.021820,0.364320,-0.021821,0.377501,-0.053640,0.377500,-0.053642,0.377500,-0.080000,0.364320,-0.111820,0.332500,-0.125000,-0.332500,-0.125000,-0.364320,-0.111820,-0.377500,-0.080000,-0.377500,0.080000,-0.364320,0.111820,-0.332500,0.125000,0.198860,0.125000,0.230680,0.111820,0.230680,0.111820,$1*%
%AMFreePoly1*
4,1,17,0.364320,0.111820,0.377500,0.080000,0.377500,0.053642,0.377501,0.053640,0.369779,0.035000,0.364320,0.021820,0.364318,0.021819,0.230680,-0.111820,0.198860,-0.125000,-0.332500,-0.125000,-0.364320,-0.111820,-0.377500,-0.080000,-0.377500,0.080000,-0.364320,0.111820,-0.332500,0.125000,0.332500,0.125000,0.364320,0.111820,0.364320,0.111820,$1*%
%AMFreePoly2*
4,1,17,0.053642,0.377500,0.080000,0.377500,0.111820,0.364320,0.125000,0.332500,0.125000,-0.332500,0.111820,-0.364320,0.080000,-0.377500,-0.080000,-0.377500,-0.111820,-0.364320,-0.125000,-0.332500,-0.125000,0.198860,-0.111820,0.230680,0.021819,0.364318,0.021820,0.364320,0.031140,0.368181,0.053640,0.377501,0.053642,0.377500,0.053642,0.377500,$1*%
%AMFreePoly3*
4,1,17,-0.021820,0.364320,0.111818,0.230681,0.111820,0.230680,0.111820,0.230679,0.125001,0.198860,0.125000,0.198858,0.125000,-0.332500,0.111820,-0.364320,0.080000,-0.377500,-0.080000,-0.377500,-0.111820,-0.364320,-0.125000,-0.332500,-0.125000,0.332500,-0.111820,0.364320,-0.080000,0.377500,-0.053640,0.377500,-0.021820,0.364320,-0.021820,0.364320,$1*%
%AMFreePoly4*
4,1,17,0.364320,0.111820,0.377500,0.080000,0.377500,-0.080000,0.364320,-0.111820,0.332500,-0.125000,-0.198858,-0.125000,-0.198860,-0.125001,-0.221360,-0.115681,-0.230680,-0.111820,-0.230681,-0.111818,-0.364320,0.021820,-0.377500,0.053640,-0.377500,0.080000,-0.364320,0.111820,-0.332500,0.125000,0.332500,0.125000,0.364320,0.111820,0.364320,0.111820,$1*%
%AMFreePoly5*
4,1,17,-0.198858,0.125000,0.332500,0.125000,0.364320,0.111820,0.377500,0.080000,0.377500,-0.080000,0.364320,-0.111820,0.332500,-0.125000,-0.332500,-0.125000,-0.364320,-0.111820,-0.377500,-0.080000,-0.377500,-0.053640,-0.364320,-0.021820,-0.230681,0.111818,-0.230680,0.111820,-0.221360,0.115681,-0.198860,0.125001,-0.198858,0.125000,-0.198858,0.125000,$1*%
%AMFreePoly6*
4,1,17,0.111820,0.364320,0.125000,0.332500,0.125000,-0.198858,0.125001,-0.198860,0.115681,-0.221360,0.111820,-0.230680,0.111818,-0.230681,-0.021820,-0.364320,-0.053640,-0.377500,-0.080000,-0.377500,-0.111820,-0.364320,-0.125000,-0.332500,-0.125000,0.332500,-0.111820,0.364320,-0.080000,0.377500,0.080000,0.377500,0.111820,0.364320,0.111820,0.364320,$1*%
%AMFreePoly7*
4,1,17,0.111820,0.364320,0.125000,0.332500,0.125000,-0.332500,0.111820,-0.364320,0.080000,-0.377500,0.053642,-0.377500,0.053640,-0.377501,0.031140,-0.368181,0.021820,-0.364320,0.021819,-0.364318,-0.111820,-0.230680,-0.125000,-0.198860,-0.125000,0.332500,-0.111820,0.364320,-0.080000,0.377500,0.080000,0.377500,0.111820,0.364320,0.111820,0.364320,$1*%
G04 Aperture macros list end*
%ADD10RoundRect,0.243750X0.456250X-0.243750X0.456250X0.243750X-0.456250X0.243750X-0.456250X-0.243750X0*%
%ADD11RoundRect,0.225000X-0.225000X-0.250000X0.225000X-0.250000X0.225000X0.250000X-0.225000X0.250000X0*%
%ADD12RoundRect,0.225000X0.250000X-0.225000X0.250000X0.225000X-0.250000X0.225000X-0.250000X-0.225000X0*%
%ADD13RoundRect,0.087500X-0.087500X0.187500X-0.087500X-0.187500X0.087500X-0.187500X0.087500X0.187500X0*%
%ADD14RoundRect,0.087500X-0.187500X0.087500X-0.187500X-0.087500X0.187500X-0.087500X0.187500X0.087500X0*%
%ADD15RoundRect,0.147500X0.147500X0.172500X-0.147500X0.172500X-0.147500X-0.172500X0.147500X-0.172500X0*%
%ADD16RoundRect,0.175000X0.175000X-0.725000X0.175000X0.725000X-0.175000X0.725000X-0.175000X-0.725000X0*%
%ADD17RoundRect,0.200000X0.200000X-0.700000X0.200000X0.700000X-0.200000X0.700000X-0.200000X-0.700000X0*%
%ADD18Outline4P,-0.400000X-0.325000X0.400000X-0.325000X0.400000X0.325000X-0.400000X0.325000X270.000000*%
%ADD19Outline4P,-0.400000X-0.800000X0.400000X-0.800000X0.400000X0.800000X-0.400000X0.800000X270.000000*%
%ADD20RoundRect,0.250000X-0.250000X-0.475000X0.250000X-0.475000X0.250000X0.475000X-0.250000X0.475000X0*%
%ADD21RoundRect,0.225000X0.225000X0.250000X-0.225000X0.250000X-0.225000X-0.250000X0.225000X-0.250000X0*%
%ADD22R,4.000000X0.300000*%
%ADD23RoundRect,0.200000X-0.275000X0.200000X-0.275000X-0.200000X0.275000X-0.200000X0.275000X0.200000X0*%
%ADD24RoundRect,0.200000X0.200000X0.275000X-0.200000X0.275000X-0.200000X-0.275000X0.200000X-0.275000X0*%
%ADD25RoundRect,0.225000X-0.250000X0.225000X-0.250000X-0.225000X0.250000X-0.225000X0.250000X0.225000X0*%
%ADD26RoundRect,0.200000X0.275000X-0.200000X0.275000X0.200000X-0.275000X0.200000X-0.275000X-0.200000X0*%
%ADD27RoundRect,0.200000X-0.200000X-0.275000X0.200000X-0.275000X0.200000X0.275000X-0.200000X0.275000X0*%
%ADD28RoundRect,0.250000X-0.325000X-0.650000X0.325000X-0.650000X0.325000X0.650000X-0.325000X0.650000X0*%
%ADD29R,1.000000X1.000000*%
%ADD30FreePoly0,90.000000*%
%ADD31RoundRect,0.062500X0.062500X-0.375000X0.062500X0.375000X-0.062500X0.375000X-0.062500X-0.375000X0*%
%ADD32FreePoly1,90.000000*%
%ADD33FreePoly2,90.000000*%
%ADD34RoundRect,0.062500X0.375000X-0.062500X0.375000X0.062500X-0.375000X0.062500X-0.375000X-0.062500X0*%
%ADD35FreePoly3,90.000000*%
%ADD36FreePoly4,90.000000*%
%ADD37FreePoly5,90.000000*%
%ADD38FreePoly6,90.000000*%
%ADD39FreePoly7,90.000000*%
%ADD40RoundRect,0.202500X0.202500X0.202500X-0.202500X0.202500X-0.202500X-0.202500X0.202500X-0.202500X0*%
%ADD41RoundRect,0.062500X0.375000X0.062500X-0.375000X0.062500X-0.375000X-0.062500X0.375000X-0.062500X0*%
%ADD42RoundRect,0.062500X0.062500X0.375000X-0.062500X0.375000X-0.062500X-0.375000X0.062500X-0.375000X0*%
%ADD43R,1.800000X1.000000*%
%ADD44R,1.000000X4.300000*%
%ADD45RoundRect,0.250000X-0.475000X0.250000X-0.475000X-0.250000X0.475000X-0.250000X0.475000X0.250000X0*%
G04 APERTURE END LIST*
D10*
%TO.C,D2*%
X111200000Y-65937500D03*
X111200000Y-64062500D03*
%TD*%
D11*
%TO.C,C5*%
X125125000Y-79000000D03*
X126675000Y-79000000D03*
%TD*%
D12*
%TO.C,C26*%
X74100000Y-74875000D03*
X74100000Y-73325000D03*
%TD*%
D13*
%TO.C,U6*%
X72500000Y-71375000D03*
X72000000Y-71375000D03*
X71500000Y-71375000D03*
X71000000Y-71375000D03*
X70500000Y-71375000D03*
D14*
X70275000Y-72100000D03*
X70275000Y-72600000D03*
X70275000Y-73100000D03*
D13*
X70500000Y-73825000D03*
X71000000Y-73825000D03*
X71500000Y-73825000D03*
X72000000Y-73825000D03*
X72500000Y-73825000D03*
D14*
X72725000Y-73100000D03*
X72725000Y-72600000D03*
X72725000Y-72100000D03*
%TD*%
D15*
%TO.C,C1*%
X129035000Y-65950000D03*
X128065000Y-65950000D03*
%TD*%
D16*
%TO.C,U2*%
X120100000Y-77150000D03*
D17*
X121200000Y-77150000D03*
X122300000Y-77150000D03*
X123400000Y-77150000D03*
X124500000Y-77150000D03*
X125600000Y-77150000D03*
X126700000Y-77150000D03*
X127800000Y-77150000D03*
D16*
X128900000Y-77150000D03*
X128900000Y-67650000D03*
D17*
X127800000Y-67650000D03*
X126700000Y-67650000D03*
X125600000Y-67650000D03*
X124500000Y-67650000D03*
X123400000Y-67650000D03*
X122300000Y-67650000D03*
X121200000Y-67650000D03*
D16*
X120100000Y-67650000D03*
%TD*%
D18*
%TO.C,AE1*%
X128250000Y-64750000D03*
X129250000Y-64750000D03*
D19*
X128750000Y-61550000D03*
%TD*%
D20*
%TO.C,C4*%
X73650000Y-57700000D03*
X75550000Y-57700000D03*
%TD*%
D21*
%TO.C,C13*%
X58175000Y-79050000D03*
X56625000Y-79050000D03*
%TD*%
D22*
%TO.C,J1*%
X66500000Y-67250000D03*
X66500000Y-66750000D03*
X66500000Y-66250000D03*
X66500000Y-65750000D03*
X66500000Y-65250000D03*
X66500000Y-64750000D03*
X66500000Y-64250000D03*
X66500000Y-63750000D03*
X66500000Y-63250000D03*
X66500000Y-62750000D03*
%TD*%
D23*
%TO.C,ROK2*%
X61300000Y-55175000D03*
X61300000Y-56825000D03*
%TD*%
D12*
%TO.C,C6*%
X69100000Y-52675000D03*
X69100000Y-51125000D03*
%TD*%
D24*
%TO.C,ROV1*%
X61425000Y-50700000D03*
X59775000Y-50700000D03*
%TD*%
D23*
%TO.C,ROK3*%
X61300000Y-52375000D03*
X61300000Y-54025000D03*
%TD*%
D11*
%TO.C,C14*%
X63425000Y-69100000D03*
X64975000Y-69100000D03*
%TD*%
D25*
%TO.C,C2*%
X62700000Y-77625000D03*
X62700000Y-79175000D03*
%TD*%
D26*
%TO.C,ROV2*%
X62700000Y-52325000D03*
X62700000Y-50675000D03*
%TD*%
D12*
%TO.C,C9*%
X65700000Y-59375000D03*
X65700000Y-57825000D03*
%TD*%
%TO.C,C7*%
X67200000Y-59375000D03*
X67200000Y-57825000D03*
%TD*%
D27*
%TO.C,R3*%
X69825000Y-78300000D03*
X71475000Y-78300000D03*
%TD*%
D28*
%TO.C,C12*%
X55725000Y-57500000D03*
X58675000Y-57500000D03*
%TD*%
D25*
%TO.C,C19*%
X64200000Y-77625000D03*
X64200000Y-79175000D03*
%TD*%
D11*
%TO.C,C3*%
X61125000Y-63800000D03*
X62675000Y-63800000D03*
%TD*%
D29*
%TO.C,D3*%
X73750000Y-55800000D03*
X76250000Y-55800000D03*
%TD*%
D30*
%TO.C,U3*%
X61100000Y-74997500D03*
D31*
X61600000Y-74937500D03*
X62100000Y-74937500D03*
X62600000Y-74937500D03*
X63100000Y-74937500D03*
X63600000Y-74937500D03*
D32*
X64100000Y-74997500D03*
D33*
X64597500Y-74500000D03*
D34*
X64537500Y-74000000D03*
X64537500Y-73500000D03*
X64537500Y-73000000D03*
X64537500Y-72500000D03*
X64537500Y-72000000D03*
D35*
X64597500Y-71500000D03*
D36*
X64100000Y-71002500D03*
D31*
X63600000Y-71062500D03*
X63100000Y-71062500D03*
X62600000Y-71062500D03*
X62100000Y-71062500D03*
X61600000Y-71062500D03*
D37*
X61100000Y-71002500D03*
D38*
X60602500Y-71500000D03*
D34*
X60662500Y-72000000D03*
X60662500Y-72500000D03*
X60662500Y-73000000D03*
X60662500Y-73500000D03*
X60662500Y-74000000D03*
D39*
X60602500Y-74500000D03*
%TD*%
D25*
%TO.C,C16*%
X51400000Y-76025000D03*
X51400000Y-77575000D03*
%TD*%
D29*
%TO.C,D1*%
X73750000Y-53900000D03*
X76250000Y-53900000D03*
%TD*%
D21*
%TO.C,C15*%
X58175000Y-77700000D03*
X56625000Y-77700000D03*
%TD*%
D40*
%TO.C,U1*%
X65300000Y-54900000D03*
X66300000Y-54900000D03*
X65300000Y-53900000D03*
X66300000Y-53900000D03*
D41*
X67487500Y-55400000D03*
X67487500Y-54900000D03*
X67487500Y-54400000D03*
X67487500Y-53900000D03*
X67487500Y-53400000D03*
D42*
X66800000Y-52712500D03*
X66300000Y-52712500D03*
X65800000Y-52712500D03*
X65300000Y-52712500D03*
X64800000Y-52712500D03*
D41*
X64112500Y-53400000D03*
X64112500Y-53900000D03*
X64112500Y-54400000D03*
X64112500Y-54900000D03*
X64112500Y-55400000D03*
D42*
X64800000Y-56087500D03*
X65300000Y-56087500D03*
X65800000Y-56087500D03*
X66300000Y-56087500D03*
X66800000Y-56087500D03*
%TD*%
D27*
%TO.C,ROK1*%
X61275000Y-58100000D03*
X62925000Y-58100000D03*
%TD*%
D28*
%TO.C,C10*%
X55725000Y-55100000D03*
X58675000Y-55100000D03*
%TD*%
D43*
%TO.C,Y1*%
X59900000Y-76650000D03*
X59900000Y-79150000D03*
%TD*%
D44*
%TO.C,L1*%
X72225000Y-57700000D03*
X68925000Y-57700000D03*
%TD*%
D26*
%TO.C,R2*%
X111200000Y-62725000D03*
X111200000Y-61075000D03*
%TD*%
D23*
%TO.C,R1*%
X58100000Y-73275000D03*
X58100000Y-74925000D03*
%TD*%
D45*
%TO.C,C11*%
X71200000Y-52250000D03*
X71200000Y-54150000D03*
%TD*%
M02*
