M48
; DRILL file {KiCad (6.0.2)} date Sun May 15 09:33:42 2022
; FORMAT={-:-/ absolute / inch / decimal}
; #@! TF.CreationDate,2022-05-15T09:33:42-06:00
; #@! TF.GenerationSoftware,Kicad,Pcbnew,(6.0.2)
; #@! TF.FileFunction,Plated,1,2,PTH
FMAT,2
INCH
; #@! TA.AperFunction,Plated,PTH,ViaDrill
T1C0.0118
; #@! TA.AperFunction,Plated,PTH,ViaDrill
T2C0.0157
; #@! TA.AperFunction,Plated,PTH,ComponentDrill
T3C0.0394
; #@! TA.AperFunction,Plated,PTH,ComponentDrill
T4C0.0728
%
G90
G05
T1
X2.0217Y-3.0965
X2.0591Y-2.9528
X2.1181Y-2.9567
X2.1476Y-2.1555
X2.1476Y-2.189
X2.1476Y-2.25
X2.1496Y-2.2835
X2.1772Y-2.8307
X2.2244Y-2.998
X2.2776Y-2.998
X2.3189Y-1.9961
X2.3307Y-2.8307
X2.3425Y-2.9685
X2.3543Y-2.7638
X2.3681Y-2.5098
X2.374Y-2.6142
X2.4311Y-3.1181
X2.4331Y-2.4016
X2.4331Y-2.7244
X2.437Y-2.685
X2.4764Y-2.2205
X2.4764Y-3.0276
X2.4843Y-2.6693
X2.5157Y-2.2854
X2.5185Y-3.0209
X2.5433Y-2.3346
X2.5591Y-2.7756
X2.5728Y-3.1201
X2.5906Y-2.1417
X2.5906Y-2.2598
X2.6043Y-2.7559
X2.6063Y-2.7992
X2.6378Y-2.2598
X2.6535Y-2.7953
X2.6929Y-2.8661
X2.7244Y-2.1339
X2.7343Y-2.9386
X2.7461Y-2.5059
X2.7874Y-2.0079
X2.7953Y-2.7795
X2.815Y-2.937
X2.8169Y-2.0079
X2.8209Y-2.5669
X2.8543Y-2.5
X2.8543Y-2.5295
X2.8543Y-2.9449
X2.8917Y-3.0827
X2.8976Y-2.3268
X2.9606Y-2.9488
X2.9705Y-2.3287
X3.0039Y-2.0512
X3.0118Y-2.2697
X3.0472Y-2.1969
X4.3681Y-2.2815
X4.3701Y-2.1398
X4.439Y-2.5965
X4.4488Y-2.9252
X4.4626Y-2.3327
X4.4626Y-2.4587
X4.4626Y-2.5138
X4.4646Y-2.9646
X4.5118Y-2.5906
X4.5315Y-2.128
X4.626Y-2.5846
X4.6299Y-1.998
X4.6398Y-3.1024
X4.7244Y-3.1004
X4.7362Y-2.5787
X4.7835Y-2.5827
X4.7874Y-2.002
X4.8051Y-3.1043
X4.8445Y-2.4528
X4.8465Y-2.4094
X4.8465Y-2.4902
X4.8465Y-2.5236
X4.8484Y-2.565
X4.878Y-2.5925
X4.8799Y-3.1142
X4.8878Y-2.3878
X4.9016Y-2.9685
X4.9331Y-2.3858
X4.939Y-2.5906
X4.9606Y-1.998
X4.9803Y-2.3858
X4.9882Y-2.7283
X4.9902Y-2.5965
X5.0394Y-2.378
X5.0453Y-2.0157
X5.0748Y-2.7283
X5.0886Y-2.2402
X5.0906Y-2.378
X5.0945Y-2.1043
T2
X2.3425Y-2.1693
X2.6339Y-2.4055
T3
X2.126Y-3.0709
X2.1654Y-2.0472
X4.5276Y-2.0472
X4.5276Y-3.0709
X4.6407Y-2.6929
X4.6407Y-2.7929
X4.6407Y-2.8929
X4.6407Y-2.9929
T4
X2.0472Y-2.4114
X2.0472Y-2.7067
X2.2441Y-2.4114
X2.2441Y-2.7067
T0
M30
