%TF.GenerationSoftware,KiCad,Pcbnew,(6.0.1)*%
%TF.CreationDate,2022-04-20T12:26:56-06:00*%
%TF.ProjectId,SolarGPS,536f6c61-7247-4505-932e-6b696361645f,rev?*%
%TF.SameCoordinates,Original*%
%TF.FileFunction,Legend,Bot*%
%TF.FilePolarity,Positive*%
%FSLAX46Y46*%
G04 Gerber Fmt 4.6, Leading zero omitted, Abs format (unit mm)*
G04 Created by KiCad (PCBNEW (6.0.1)) date 2022-04-20 12:26:56*
%MOMM*%
%LPD*%
G01*
G04 APERTURE LIST*
%ADD10C,0.300000*%
%ADD11C,0.200000*%
%ADD12C,0.250000*%
%ADD13C,0.150000*%
%ADD14C,0.120000*%
G04 APERTURE END LIST*
D10*
X54242857Y-76500000D02*
X54385714Y-76428571D01*
X54600000Y-76428571D01*
X54814285Y-76500000D01*
X54957142Y-76642857D01*
X55028571Y-76785714D01*
X55100000Y-77071428D01*
X55100000Y-77285714D01*
X55028571Y-77571428D01*
X54957142Y-77714285D01*
X54814285Y-77857142D01*
X54600000Y-77928571D01*
X54457142Y-77928571D01*
X54242857Y-77857142D01*
X54171428Y-77785714D01*
X54171428Y-77285714D01*
X54457142Y-77285714D01*
X53528571Y-77928571D02*
X53528571Y-76428571D01*
X52671428Y-77928571D01*
X52671428Y-76428571D01*
X51957142Y-77928571D02*
X51957142Y-76428571D01*
X51600000Y-76428571D01*
X51385714Y-76500000D01*
X51242857Y-76642857D01*
X51171428Y-76785714D01*
X51100000Y-77071428D01*
X51100000Y-77285714D01*
X51171428Y-77571428D01*
X51242857Y-77714285D01*
X51385714Y-77857142D01*
X51600000Y-77928571D01*
X51957142Y-77928571D01*
D11*
X118504761Y-53204761D02*
X118361904Y-53252380D01*
X118123809Y-53252380D01*
X118028571Y-53204761D01*
X117980952Y-53157142D01*
X117933333Y-53061904D01*
X117933333Y-52966666D01*
X117980952Y-52871428D01*
X118028571Y-52823809D01*
X118123809Y-52776190D01*
X118314285Y-52728571D01*
X118409523Y-52680952D01*
X118457142Y-52633333D01*
X118504761Y-52538095D01*
X118504761Y-52442857D01*
X118457142Y-52347619D01*
X118409523Y-52300000D01*
X118314285Y-52252380D01*
X118076190Y-52252380D01*
X117933333Y-52300000D01*
X117504761Y-52871428D02*
X116742857Y-52871428D01*
X117123809Y-53252380D02*
X117123809Y-52490476D01*
X112954761Y-80754761D02*
X112811904Y-80802380D01*
X112573809Y-80802380D01*
X112478571Y-80754761D01*
X112430952Y-80707142D01*
X112383333Y-80611904D01*
X112383333Y-80516666D01*
X112430952Y-80421428D01*
X112478571Y-80373809D01*
X112573809Y-80326190D01*
X112764285Y-80278571D01*
X112859523Y-80230952D01*
X112907142Y-80183333D01*
X112954761Y-80088095D01*
X112954761Y-79992857D01*
X112907142Y-79897619D01*
X112859523Y-79850000D01*
X112764285Y-79802380D01*
X112526190Y-79802380D01*
X112383333Y-79850000D01*
X111954761Y-80421428D02*
X111192857Y-80421428D01*
X111573809Y-80802380D02*
X111573809Y-80040476D01*
D10*
X54042857Y-54100000D02*
X54185714Y-54028571D01*
X54400000Y-54028571D01*
X54614285Y-54100000D01*
X54757142Y-54242857D01*
X54828571Y-54385714D01*
X54900000Y-54671428D01*
X54900000Y-54885714D01*
X54828571Y-55171428D01*
X54757142Y-55314285D01*
X54614285Y-55457142D01*
X54400000Y-55528571D01*
X54257142Y-55528571D01*
X54042857Y-55457142D01*
X53971428Y-55385714D01*
X53971428Y-54885714D01*
X54257142Y-54885714D01*
X53328571Y-55528571D02*
X53328571Y-54028571D01*
X52471428Y-55528571D01*
X52471428Y-54028571D01*
X51757142Y-55528571D02*
X51757142Y-54028571D01*
X51400000Y-54028571D01*
X51185714Y-54100000D01*
X51042857Y-54242857D01*
X50971428Y-54385714D01*
X50900000Y-54671428D01*
X50900000Y-54885714D01*
X50971428Y-55171428D01*
X51042857Y-55314285D01*
X51185714Y-55457142D01*
X51400000Y-55528571D01*
X51757142Y-55528571D01*
D11*
X94421428Y-66078571D02*
X94421428Y-64578571D01*
X94064285Y-64578571D01*
X93850000Y-64650000D01*
X93707142Y-64792857D01*
X93635714Y-64935714D01*
X93564285Y-65221428D01*
X93564285Y-65435714D01*
X93635714Y-65721428D01*
X93707142Y-65864285D01*
X93850000Y-66007142D01*
X94064285Y-66078571D01*
X94421428Y-66078571D01*
X92635714Y-64578571D02*
X92350000Y-64578571D01*
X92207142Y-64650000D01*
X92064285Y-64792857D01*
X91992857Y-65078571D01*
X91992857Y-65578571D01*
X92064285Y-65864285D01*
X92207142Y-66007142D01*
X92350000Y-66078571D01*
X92635714Y-66078571D01*
X92778571Y-66007142D01*
X92921428Y-65864285D01*
X92992857Y-65578571D01*
X92992857Y-65078571D01*
X92921428Y-64792857D01*
X92778571Y-64650000D01*
X92635714Y-64578571D01*
X91350000Y-66078571D02*
X91350000Y-64578571D01*
X90492857Y-66078571D01*
X90492857Y-64578571D01*
X89992857Y-64578571D02*
X89135714Y-64578571D01*
X89564285Y-66078571D02*
X89564285Y-64578571D01*
X86778571Y-66078571D02*
X87492857Y-66078571D01*
X87492857Y-64578571D01*
X85992857Y-64578571D02*
X85707142Y-64578571D01*
X85564285Y-64650000D01*
X85421428Y-64792857D01*
X85350000Y-65078571D01*
X85350000Y-65578571D01*
X85421428Y-65864285D01*
X85564285Y-66007142D01*
X85707142Y-66078571D01*
X85992857Y-66078571D01*
X86135714Y-66007142D01*
X86278571Y-65864285D01*
X86350000Y-65578571D01*
X86350000Y-65078571D01*
X86278571Y-64792857D01*
X86135714Y-64650000D01*
X85992857Y-64578571D01*
X84421428Y-64578571D02*
X84135714Y-64578571D01*
X83992857Y-64650000D01*
X83850000Y-64792857D01*
X83778571Y-65078571D01*
X83778571Y-65578571D01*
X83850000Y-65864285D01*
X83992857Y-66007142D01*
X84135714Y-66078571D01*
X84421428Y-66078571D01*
X84564285Y-66007142D01*
X84707142Y-65864285D01*
X84778571Y-65578571D01*
X84778571Y-65078571D01*
X84707142Y-64792857D01*
X84564285Y-64650000D01*
X84421428Y-64578571D01*
X83135714Y-66078571D02*
X83135714Y-64578571D01*
X82278571Y-66078571D02*
X82921428Y-65221428D01*
X82278571Y-64578571D02*
X83135714Y-65435714D01*
X80492857Y-66078571D02*
X80492857Y-64578571D01*
X80492857Y-65292857D02*
X79635714Y-65292857D01*
X79635714Y-66078571D02*
X79635714Y-64578571D01*
X78921428Y-65292857D02*
X78421428Y-65292857D01*
X78207142Y-66078571D02*
X78921428Y-66078571D01*
X78921428Y-64578571D01*
X78207142Y-64578571D01*
X76707142Y-66078571D02*
X77207142Y-65364285D01*
X77564285Y-66078571D02*
X77564285Y-64578571D01*
X76992857Y-64578571D01*
X76850000Y-64650000D01*
X76778571Y-64721428D01*
X76707142Y-64864285D01*
X76707142Y-65078571D01*
X76778571Y-65221428D01*
X76850000Y-65292857D01*
X76992857Y-65364285D01*
X77564285Y-65364285D01*
X76064285Y-65292857D02*
X75564285Y-65292857D01*
X75350000Y-66078571D02*
X76064285Y-66078571D01*
X76064285Y-64578571D01*
X75350000Y-64578571D01*
D12*
X110419642Y-67956071D02*
X109919642Y-69456071D01*
X109419642Y-67956071D01*
X108919642Y-69456071D02*
X108919642Y-67956071D01*
X108562500Y-67956071D01*
X108348214Y-68027500D01*
X108205357Y-68170357D01*
X108133928Y-68313214D01*
X108062500Y-68598928D01*
X108062500Y-68813214D01*
X108133928Y-69098928D01*
X108205357Y-69241785D01*
X108348214Y-69384642D01*
X108562500Y-69456071D01*
X108919642Y-69456071D01*
X107419642Y-69456071D02*
X107419642Y-67956071D01*
X107062500Y-67956071D01*
X106848214Y-68027500D01*
X106705357Y-68170357D01*
X106633928Y-68313214D01*
X106562500Y-68598928D01*
X106562500Y-68813214D01*
X106633928Y-69098928D01*
X106705357Y-69241785D01*
X106848214Y-69384642D01*
X107062500Y-69456071D01*
X107419642Y-69456071D01*
X110205357Y-71871071D02*
X110205357Y-70371071D01*
X109705357Y-71442500D01*
X109205357Y-70371071D01*
X109205357Y-71871071D01*
X108205357Y-70371071D02*
X107919642Y-70371071D01*
X107776785Y-70442500D01*
X107633928Y-70585357D01*
X107562500Y-70871071D01*
X107562500Y-71371071D01*
X107633928Y-71656785D01*
X107776785Y-71799642D01*
X107919642Y-71871071D01*
X108205357Y-71871071D01*
X108348214Y-71799642D01*
X108491071Y-71656785D01*
X108562500Y-71371071D01*
X108562500Y-70871071D01*
X108491071Y-70585357D01*
X108348214Y-70442500D01*
X108205357Y-70371071D01*
X106991071Y-71799642D02*
X106776785Y-71871071D01*
X106419642Y-71871071D01*
X106276785Y-71799642D01*
X106205357Y-71728214D01*
X106133928Y-71585357D01*
X106133928Y-71442500D01*
X106205357Y-71299642D01*
X106276785Y-71228214D01*
X106419642Y-71156785D01*
X106705357Y-71085357D01*
X106848214Y-71013928D01*
X106919642Y-70942500D01*
X106991071Y-70799642D01*
X106991071Y-70656785D01*
X106919642Y-70513928D01*
X106848214Y-70442500D01*
X106705357Y-70371071D01*
X106348214Y-70371071D01*
X106133928Y-70442500D01*
X105491071Y-71871071D02*
X105491071Y-70371071D01*
X110205357Y-74286071D02*
X110205357Y-72786071D01*
X109705357Y-73857500D01*
X109205357Y-72786071D01*
X109205357Y-74286071D01*
X108491071Y-74286071D02*
X108491071Y-72786071D01*
X107848214Y-74214642D02*
X107633928Y-74286071D01*
X107276785Y-74286071D01*
X107133928Y-74214642D01*
X107062500Y-74143214D01*
X106991071Y-74000357D01*
X106991071Y-73857500D01*
X107062500Y-73714642D01*
X107133928Y-73643214D01*
X107276785Y-73571785D01*
X107562500Y-73500357D01*
X107705357Y-73428928D01*
X107776785Y-73357500D01*
X107848214Y-73214642D01*
X107848214Y-73071785D01*
X107776785Y-72928928D01*
X107705357Y-72857500D01*
X107562500Y-72786071D01*
X107205357Y-72786071D01*
X106991071Y-72857500D01*
X106062500Y-72786071D02*
X105776785Y-72786071D01*
X105633928Y-72857500D01*
X105491071Y-73000357D01*
X105419642Y-73286071D01*
X105419642Y-73786071D01*
X105491071Y-74071785D01*
X105633928Y-74214642D01*
X105776785Y-74286071D01*
X106062500Y-74286071D01*
X106205357Y-74214642D01*
X106348214Y-74071785D01*
X106419642Y-73786071D01*
X106419642Y-73286071D01*
X106348214Y-73000357D01*
X106205357Y-72857500D01*
X106062500Y-72786071D01*
X109419642Y-75272500D02*
X109562500Y-75201071D01*
X109776785Y-75201071D01*
X109991071Y-75272500D01*
X110133928Y-75415357D01*
X110205357Y-75558214D01*
X110276785Y-75843928D01*
X110276785Y-76058214D01*
X110205357Y-76343928D01*
X110133928Y-76486785D01*
X109991071Y-76629642D01*
X109776785Y-76701071D01*
X109633928Y-76701071D01*
X109419642Y-76629642D01*
X109348214Y-76558214D01*
X109348214Y-76058214D01*
X109633928Y-76058214D01*
X108705357Y-76701071D02*
X108705357Y-75201071D01*
X107848214Y-76701071D01*
X107848214Y-75201071D01*
X107133928Y-76701071D02*
X107133928Y-75201071D01*
X106776785Y-75201071D01*
X106562500Y-75272500D01*
X106419642Y-75415357D01*
X106348214Y-75558214D01*
X106276785Y-75843928D01*
X106276785Y-76058214D01*
X106348214Y-76343928D01*
X106419642Y-76486785D01*
X106562500Y-76629642D01*
X106776785Y-76701071D01*
X107133928Y-76701071D01*
D13*
%TO.C,TP1*%
X96761904Y-80102380D02*
X96190476Y-80102380D01*
X96476190Y-81102380D02*
X96476190Y-80102380D01*
X95857142Y-81102380D02*
X95857142Y-80102380D01*
X95476190Y-80102380D01*
X95380952Y-80150000D01*
X95333333Y-80197619D01*
X95285714Y-80292857D01*
X95285714Y-80435714D01*
X95333333Y-80530952D01*
X95380952Y-80578571D01*
X95476190Y-80626190D01*
X95857142Y-80626190D01*
X94333333Y-81102380D02*
X94904761Y-81102380D01*
X94619047Y-81102380D02*
X94619047Y-80102380D01*
X94714285Y-80245238D01*
X94809523Y-80340476D01*
X94904761Y-80388095D01*
D11*
%TO.C,C8*%
X69838095Y-68507142D02*
X71361904Y-68507142D01*
X70600000Y-67745238D02*
X70600000Y-69269047D01*
D14*
%TO.C,TP1*%
X97700000Y-78150000D02*
G75*
G03*
X97700000Y-78150000I-1500000J0D01*
G01*
%TO.C,R3*%
X59237221Y-54290000D02*
X59562779Y-54290000D01*
X59237221Y-55310000D02*
X59562779Y-55310000D01*
%TO.C,C5*%
X128360000Y-78459420D02*
X128360000Y-78740580D01*
X127340000Y-78459420D02*
X127340000Y-78740580D01*
%TO.C,C9*%
X56562779Y-59910000D02*
X56237221Y-59910000D01*
X56562779Y-58890000D02*
X56237221Y-58890000D01*
%TO.C,C20*%
X62312779Y-62540000D02*
X61987221Y-62540000D01*
X62312779Y-63560000D02*
X61987221Y-63560000D01*
%TO.C,C26*%
X78710000Y-69559420D02*
X78710000Y-69840580D01*
X77690000Y-69559420D02*
X77690000Y-69840580D01*
%TO.C,U6*%
X77110000Y-69290000D02*
X76935000Y-69290000D01*
X73890000Y-72510000D02*
X74065000Y-72510000D01*
X77110000Y-71835000D02*
X77110000Y-72510000D01*
X73890000Y-69290000D02*
X74065000Y-69290000D01*
X73890000Y-69965000D02*
X73890000Y-69290000D01*
X73890000Y-71835000D02*
X73890000Y-72510000D01*
X77110000Y-69965000D02*
X77110000Y-69290000D01*
%TO.C,R7*%
X114977500Y-64112742D02*
X114977500Y-64587258D01*
X116022500Y-64112742D02*
X116022500Y-64587258D01*
%TO.C,TH1*%
X92462742Y-72222500D02*
X92937258Y-72222500D01*
X92462742Y-71177500D02*
X92937258Y-71177500D01*
%TO.C,C10*%
X76140580Y-81710000D02*
X75859420Y-81710000D01*
X76140580Y-80690000D02*
X75859420Y-80690000D01*
%TO.C,J2*%
X54330000Y-78670000D02*
X53000000Y-78670000D01*
X54330000Y-80000000D02*
X54330000Y-78670000D01*
X51670000Y-81270000D02*
X51670000Y-81330000D01*
X54330000Y-81270000D02*
X51670000Y-81270000D01*
X54330000Y-81330000D02*
X51670000Y-81330000D01*
X54330000Y-81270000D02*
X54330000Y-81330000D01*
%TO.C,U3*%
X82690000Y-77510000D02*
X83165000Y-77510000D01*
X82690000Y-72765000D02*
X82690000Y-72290000D01*
X82690000Y-72290000D02*
X83165000Y-72290000D01*
X87910000Y-72765000D02*
X87910000Y-72290000D01*
X82690000Y-77035000D02*
X82690000Y-77510000D01*
X87910000Y-72290000D02*
X87435000Y-72290000D01*
X87910000Y-77035000D02*
X87910000Y-77510000D01*
D13*
%TO.C,U4*%
X81675000Y-71175000D02*
X82000000Y-71175000D01*
X81675000Y-71175000D02*
X81675000Y-71500000D01*
X88925000Y-78425000D02*
X88700000Y-78425000D01*
X88925000Y-78425000D02*
X88925000Y-78100000D01*
X81675000Y-78425000D02*
X81675000Y-78100000D01*
X88700000Y-78425000D02*
X88700000Y-79850000D01*
X88925000Y-71175000D02*
X88600000Y-71175000D01*
X81675000Y-78425000D02*
X82000000Y-78425000D01*
X88925000Y-71175000D02*
X88925000Y-71500000D01*
D14*
%TO.C,C14*%
X85340580Y-80490000D02*
X85059420Y-80490000D01*
X85340580Y-81510000D02*
X85059420Y-81510000D01*
%TO.C,C21*%
X57290000Y-74990580D02*
X57290000Y-74709420D01*
X58310000Y-74990580D02*
X58310000Y-74709420D01*
%TO.C,J3*%
X54330000Y-53270000D02*
X54330000Y-53330000D01*
X54330000Y-50670000D02*
X53000000Y-50670000D01*
X54330000Y-53270000D02*
X51670000Y-53270000D01*
X54330000Y-52000000D02*
X54330000Y-50670000D01*
X54330000Y-53330000D02*
X51670000Y-53330000D01*
X51670000Y-53270000D02*
X51670000Y-53330000D01*
%TO.C,C17*%
X82790000Y-68040580D02*
X82790000Y-67759420D01*
X83810000Y-68040580D02*
X83810000Y-67759420D01*
%TO.C,C3*%
X61709420Y-70440000D02*
X61990580Y-70440000D01*
X61709420Y-71460000D02*
X61990580Y-71460000D01*
%TO.C,C22*%
X65290000Y-58884420D02*
X65290000Y-59165580D01*
X64270000Y-58884420D02*
X64270000Y-59165580D01*
%TO.C,D1*%
X103000000Y-80500000D02*
X103000000Y-78800000D01*
X103000000Y-78800000D02*
X105550000Y-78800000D01*
X103000000Y-80500000D02*
X105550000Y-80500000D01*
%TO.C,C8*%
X74000000Y-60750000D02*
X96000000Y-60750000D01*
X96000000Y-59750000D02*
X96000000Y-68250000D01*
X74000000Y-68250000D02*
X96000000Y-68250000D01*
X74000000Y-59750000D02*
X96000000Y-59750000D01*
X74000000Y-59750000D02*
X74000000Y-68250000D01*
%TO.C,C19*%
X85559420Y-68090000D02*
X85840580Y-68090000D01*
X85559420Y-69110000D02*
X85840580Y-69110000D01*
%TO.C,C2*%
X59860000Y-74709420D02*
X59860000Y-74990580D01*
X58840000Y-74709420D02*
X58840000Y-74990580D01*
%TO.C,D5*%
X64150000Y-60950000D02*
X64150000Y-63500000D01*
X64150000Y-60950000D02*
X65850000Y-60950000D01*
X65850000Y-60950000D02*
X65850000Y-63500000D01*
%TO.C,U1*%
X116700000Y-66190000D02*
X117500000Y-66190000D01*
X116700000Y-66190000D02*
X115900000Y-66190000D01*
X116700000Y-69310000D02*
X114900000Y-69310000D01*
X116700000Y-69310000D02*
X117500000Y-69310000D01*
%TO.C,C16*%
X61709420Y-67390000D02*
X61990580Y-67390000D01*
X61709420Y-68410000D02*
X61990580Y-68410000D01*
%TO.C,D3*%
X110600000Y-66500000D02*
X110600000Y-63950000D01*
X108900000Y-66500000D02*
X108900000Y-63950000D01*
X110600000Y-66500000D02*
X108900000Y-66500000D01*
%TO.C,D4*%
X63850000Y-60850000D02*
X62150000Y-60850000D01*
X63850000Y-60850000D02*
X63850000Y-58300000D01*
X62150000Y-60850000D02*
X62150000Y-58300000D01*
%TO.C,C7*%
X91160000Y-69540580D02*
X91160000Y-69259420D01*
X90140000Y-69540580D02*
X90140000Y-69259420D01*
%TO.C,C18*%
X65110000Y-78840580D02*
X65110000Y-78559420D01*
X64090000Y-78840580D02*
X64090000Y-78559420D01*
%TO.C,C6*%
X61709420Y-68940000D02*
X61990580Y-68940000D01*
X61709420Y-69960000D02*
X61990580Y-69960000D01*
%TO.C,J6*%
X116330000Y-53270000D02*
X116330000Y-53330000D01*
X116330000Y-53330000D02*
X113670000Y-53330000D01*
X116330000Y-50670000D02*
X115000000Y-50670000D01*
X116330000Y-52000000D02*
X116330000Y-50670000D01*
X116330000Y-53270000D02*
X113670000Y-53270000D01*
X113670000Y-53270000D02*
X113670000Y-53330000D01*
%TO.C,R2*%
X97987258Y-73122500D02*
X97512742Y-73122500D01*
X97987258Y-72077500D02*
X97512742Y-72077500D01*
%TO.C,C4*%
X76140580Y-79090000D02*
X75859420Y-79090000D01*
X76140580Y-80110000D02*
X75859420Y-80110000D01*
%TO.C,J5*%
X113670000Y-81270000D02*
X113670000Y-81330000D01*
X116330000Y-80000000D02*
X116330000Y-78670000D01*
X116330000Y-81270000D02*
X113670000Y-81270000D01*
X116330000Y-81330000D02*
X113670000Y-81330000D01*
X116330000Y-81270000D02*
X116330000Y-81330000D01*
X116330000Y-78670000D02*
X115000000Y-78670000D01*
%TO.C,J8*%
X113955000Y-77700000D02*
X111295000Y-77700000D01*
X113955000Y-70020000D02*
X113955000Y-77700000D01*
X112625000Y-67420000D02*
X111295000Y-67420000D01*
X111295000Y-70020000D02*
X111295000Y-77700000D01*
X111295000Y-67420000D02*
X111295000Y-68750000D01*
X113955000Y-70020000D02*
X111295000Y-70020000D01*
%TO.C,D6*%
X68700000Y-60600000D02*
X66150000Y-60600000D01*
X68700000Y-58900000D02*
X66150000Y-58900000D01*
X68700000Y-58900000D02*
X68700000Y-60600000D01*
%TO.C,L1*%
X69750000Y-52400000D02*
X69750000Y-56400000D01*
X65550000Y-52400000D02*
X65550000Y-56400000D01*
%TO.C,R1*%
X91677500Y-69162742D02*
X91677500Y-69637258D01*
X92722500Y-69162742D02*
X92722500Y-69637258D01*
%TO.C,Q1*%
X63400000Y-54190000D02*
X64050000Y-54190000D01*
X63400000Y-57310000D02*
X64050000Y-57310000D01*
X63400000Y-57310000D02*
X61725000Y-57310000D01*
X63400000Y-54190000D02*
X62750000Y-54190000D01*
%TO.C,Y1*%
X77825000Y-79225000D02*
X77825000Y-80575000D01*
X79575000Y-79225000D02*
X79575000Y-80575000D01*
%TO.C,C15*%
X61990580Y-65840000D02*
X61709420Y-65840000D01*
X61990580Y-66860000D02*
X61709420Y-66860000D01*
%TD*%
M02*
