%TF.GenerationSoftware,KiCad,Pcbnew,(6.0.1)*%
%TF.CreationDate,2022-04-20T12:26:56-06:00*%
%TF.ProjectId,SolarGPS,536f6c61-7247-4505-932e-6b696361645f,rev?*%
%TF.SameCoordinates,Original*%
%TF.FileFunction,Soldermask,Top*%
%TF.FilePolarity,Negative*%
%FSLAX46Y46*%
G04 Gerber Fmt 4.6, Leading zero omitted, Abs format (unit mm)*
G04 Created by KiCad (PCBNEW (6.0.1)) date 2022-04-20 12:26:56*
%MOMM*%
%LPD*%
G01*
G04 APERTURE LIST*
G04 Aperture macros list*
%AMRoundRect*
0 Rectangle with rounded corners*
0 $1 Rounding radius*
0 $2 $3 $4 $5 $6 $7 $8 $9 X,Y pos of 4 corners*
0 Add a 4 corners polygon primitive as box body*
4,1,4,$2,$3,$4,$5,$6,$7,$8,$9,$2,$3,0*
0 Add four circle primitives for the rounded corners*
1,1,$1+$1,$2,$3*
1,1,$1+$1,$4,$5*
1,1,$1+$1,$6,$7*
1,1,$1+$1,$8,$9*
0 Add four rect primitives between the rounded corners*
20,1,$1+$1,$2,$3,$4,$5,0*
20,1,$1+$1,$4,$5,$6,$7,0*
20,1,$1+$1,$6,$7,$8,$9,0*
20,1,$1+$1,$8,$9,$2,$3,0*%
%AMOutline4P*
0 Free polygon, 4 corners , with rotation*
0 The origin of the aperture is its center*
0 number of corners: always 4*
0 $1 to $8 corner X, Y*
0 $9 Rotation angle, in degrees counterclockwise*
0 create outline with 4 corners*
4,1,4,$1,$2,$3,$4,$5,$6,$7,$8,$1,$2,$9*%
G04 Aperture macros list end*
%ADD10C,0.300000*%
%ADD11C,2.000000*%
%ADD12RoundRect,0.243750X0.456250X-0.243750X0.456250X0.243750X-0.456250X0.243750X-0.456250X-0.243750X0*%
%ADD13C,3.000000*%
%ADD14RoundRect,0.147500X0.147500X0.172500X-0.147500X0.172500X-0.147500X-0.172500X0.147500X-0.172500X0*%
%ADD15RoundRect,0.175000X0.175000X-0.725000X0.175000X0.725000X-0.175000X0.725000X-0.175000X-0.725000X0*%
%ADD16RoundRect,0.200000X0.200000X-0.700000X0.200000X0.700000X-0.200000X0.700000X-0.200000X-0.700000X0*%
%ADD17Outline4P,-0.400000X-0.325000X0.400000X-0.325000X0.400000X0.325000X-0.400000X0.325000X270.000000*%
%ADD18Outline4P,-0.400000X-0.800000X0.400000X-0.800000X0.400000X0.800000X-0.400000X0.800000X270.000000*%
%ADD19R,3.000000X2.000000*%
%ADD20R,1.250000X0.300000*%
%ADD21R,1.700000X1.700000*%
%ADD22O,1.700000X1.700000*%
G04 APERTURE END LIST*
D10*
X53185714Y-55871071D02*
X52685714Y-55156785D01*
X52328571Y-55871071D02*
X52328571Y-54371071D01*
X52900000Y-54371071D01*
X53042857Y-54442500D01*
X53114285Y-54513928D01*
X53185714Y-54656785D01*
X53185714Y-54871071D01*
X53114285Y-55013928D01*
X53042857Y-55085357D01*
X52900000Y-55156785D01*
X52328571Y-55156785D01*
X53828571Y-55085357D02*
X54328571Y-55085357D01*
X54542857Y-55871071D02*
X53828571Y-55871071D01*
X53828571Y-54371071D01*
X54542857Y-54371071D01*
X55114285Y-55442500D02*
X55828571Y-55442500D01*
X54971428Y-55871071D02*
X55471428Y-54371071D01*
X55971428Y-55871071D01*
X57185714Y-55871071D02*
X56471428Y-55871071D01*
X56471428Y-54371071D01*
X52900000Y-56857500D02*
X52757142Y-56786071D01*
X52542857Y-56786071D01*
X52328571Y-56857500D01*
X52185714Y-57000357D01*
X52114285Y-57143214D01*
X52042857Y-57428928D01*
X52042857Y-57643214D01*
X52114285Y-57928928D01*
X52185714Y-58071785D01*
X52328571Y-58214642D01*
X52542857Y-58286071D01*
X52685714Y-58286071D01*
X52900000Y-58214642D01*
X52971428Y-58143214D01*
X52971428Y-57643214D01*
X52685714Y-57643214D01*
X53900000Y-56786071D02*
X54185714Y-56786071D01*
X54328571Y-56857500D01*
X54471428Y-57000357D01*
X54542857Y-57286071D01*
X54542857Y-57786071D01*
X54471428Y-58071785D01*
X54328571Y-58214642D01*
X54185714Y-58286071D01*
X53900000Y-58286071D01*
X53757142Y-58214642D01*
X53614285Y-58071785D01*
X53542857Y-57786071D01*
X53542857Y-57286071D01*
X53614285Y-57000357D01*
X53757142Y-56857500D01*
X53900000Y-56786071D01*
X55900000Y-58286071D02*
X55185714Y-58286071D01*
X55185714Y-56786071D01*
X56400000Y-58286071D02*
X56400000Y-56786071D01*
X56757142Y-56786071D01*
X56971428Y-56857500D01*
X57114285Y-57000357D01*
X57185714Y-57143214D01*
X57257142Y-57428928D01*
X57257142Y-57643214D01*
X57185714Y-57928928D01*
X57114285Y-58071785D01*
X56971428Y-58214642D01*
X56757142Y-58286071D01*
X56400000Y-58286071D01*
D11*
%TO.C,TP1*%
X96200000Y-78150000D03*
%TD*%
D12*
%TO.C,D2*%
X116000000Y-66937500D03*
X116000000Y-65062500D03*
%TD*%
D13*
%TO.C,J7*%
X57000000Y-62250000D03*
X52000000Y-62250000D03*
X52000000Y-69750000D03*
X57000000Y-69750000D03*
%TD*%
D14*
%TO.C,C1*%
X129085000Y-67750000D03*
X128115000Y-67750000D03*
%TD*%
D15*
%TO.C,U2*%
X120150000Y-78950000D03*
D16*
X121250000Y-78950000D03*
X122350000Y-78950000D03*
X123450000Y-78950000D03*
X124550000Y-78950000D03*
X125650000Y-78950000D03*
X126750000Y-78950000D03*
X127850000Y-78950000D03*
D15*
X128950000Y-78950000D03*
X128950000Y-69450000D03*
D16*
X127850000Y-69450000D03*
X126750000Y-69450000D03*
X125650000Y-69450000D03*
X124550000Y-69450000D03*
X123450000Y-69450000D03*
X122350000Y-69450000D03*
X121250000Y-69450000D03*
D15*
X120150000Y-69450000D03*
%TD*%
D17*
%TO.C,AE1*%
X128300000Y-66550000D03*
X129300000Y-66550000D03*
D18*
X128800000Y-63350000D03*
%TD*%
D19*
%TO.C,J1*%
X63125000Y-73290000D03*
X63125000Y-58710000D03*
D20*
X60800000Y-60250000D03*
X60800000Y-60750000D03*
X60800000Y-61250000D03*
X60800000Y-61750000D03*
X60800000Y-62250000D03*
X60800000Y-62750000D03*
X60800000Y-63250000D03*
X60800000Y-63750000D03*
X60800000Y-64250000D03*
X60800000Y-64750000D03*
X60800000Y-65250000D03*
X60800000Y-65750000D03*
X60800000Y-66250000D03*
X60800000Y-66750000D03*
X60800000Y-67250000D03*
X60800000Y-67750000D03*
X60800000Y-68250000D03*
X60800000Y-68750000D03*
X60800000Y-69250000D03*
X60800000Y-69750000D03*
X60800000Y-70250000D03*
X60800000Y-70750000D03*
X60800000Y-71250000D03*
X60800000Y-71750000D03*
%TD*%
D21*
%TO.C,J4*%
X71875000Y-77900000D03*
D22*
X71875000Y-80440000D03*
X69335000Y-77900000D03*
X69335000Y-80440000D03*
X66795000Y-77900000D03*
X66795000Y-80440000D03*
%TD*%
D21*
%TO.C,J2*%
X53000000Y-80000000D03*
%TD*%
%TO.C,J3*%
X53000000Y-52000000D03*
%TD*%
%TO.C,J6*%
X115000000Y-52000000D03*
%TD*%
%TO.C,J5*%
X115000000Y-80000000D03*
%TD*%
%TO.C,J8*%
X112625000Y-68750000D03*
D22*
X112625000Y-71290000D03*
X112625000Y-73830000D03*
X112625000Y-76370000D03*
%TD*%
M02*
