%TF.GenerationSoftware,KiCad,Pcbnew,(6.0.1)*%
%TF.CreationDate,2022-04-20T12:26:56-06:00*%
%TF.ProjectId,SolarGPS,536f6c61-7247-4505-932e-6b696361645f,rev?*%
%TF.SameCoordinates,Original*%
%TF.FileFunction,Copper,L1,Top*%
%TF.FilePolarity,Positive*%
%FSLAX46Y46*%
G04 Gerber Fmt 4.6, Leading zero omitted, Abs format (unit mm)*
G04 Created by KiCad (PCBNEW (6.0.1)) date 2022-04-20 12:26:56*
%MOMM*%
%LPD*%
G01*
G04 APERTURE LIST*
G04 Aperture macros list*
%AMRoundRect*
0 Rectangle with rounded corners*
0 $1 Rounding radius*
0 $2 $3 $4 $5 $6 $7 $8 $9 X,Y pos of 4 corners*
0 Add a 4 corners polygon primitive as box body*
4,1,4,$2,$3,$4,$5,$6,$7,$8,$9,$2,$3,0*
0 Add four circle primitives for the rounded corners*
1,1,$1+$1,$2,$3*
1,1,$1+$1,$4,$5*
1,1,$1+$1,$6,$7*
1,1,$1+$1,$8,$9*
0 Add four rect primitives between the rounded corners*
20,1,$1+$1,$2,$3,$4,$5,0*
20,1,$1+$1,$4,$5,$6,$7,0*
20,1,$1+$1,$6,$7,$8,$9,0*
20,1,$1+$1,$8,$9,$2,$3,0*%
%AMOutline4P*
0 Free polygon, 4 corners , with rotation*
0 The origin of the aperture is its center*
0 number of corners: always 4*
0 $1 to $8 corner X, Y*
0 $9 Rotation angle, in degrees counterclockwise*
0 create outline with 4 corners*
4,1,4,$1,$2,$3,$4,$5,$6,$7,$8,$1,$2,$9*%
G04 Aperture macros list end*
%TA.AperFunction,ComponentPad*%
%ADD10C,2.000000*%
%TD*%
%TA.AperFunction,SMDPad,CuDef*%
%ADD11RoundRect,0.243750X0.456250X-0.243750X0.456250X0.243750X-0.456250X0.243750X-0.456250X-0.243750X0*%
%TD*%
%TA.AperFunction,ComponentPad*%
%ADD12C,3.000000*%
%TD*%
%TA.AperFunction,SMDPad,CuDef*%
%ADD13RoundRect,0.147500X0.147500X0.172500X-0.147500X0.172500X-0.147500X-0.172500X0.147500X-0.172500X0*%
%TD*%
%TA.AperFunction,SMDPad,CuDef*%
%ADD14RoundRect,0.175000X0.175000X-0.725000X0.175000X0.725000X-0.175000X0.725000X-0.175000X-0.725000X0*%
%TD*%
%TA.AperFunction,SMDPad,CuDef*%
%ADD15RoundRect,0.200000X0.200000X-0.700000X0.200000X0.700000X-0.200000X0.700000X-0.200000X-0.700000X0*%
%TD*%
%TA.AperFunction,SMDPad,CuDef*%
%ADD16Outline4P,-0.400000X-0.325000X0.400000X-0.325000X0.400000X0.325000X-0.400000X0.325000X270.000000*%
%TD*%
%TA.AperFunction,SMDPad,CuDef*%
%ADD17Outline4P,-0.400000X-0.800000X0.400000X-0.800000X0.400000X0.800000X-0.400000X0.800000X270.000000*%
%TD*%
%TA.AperFunction,SMDPad,CuDef*%
%ADD18R,3.000000X2.000000*%
%TD*%
%TA.AperFunction,SMDPad,CuDef*%
%ADD19R,1.250000X0.300000*%
%TD*%
%TA.AperFunction,ComponentPad*%
%ADD20R,1.700000X1.700000*%
%TD*%
%TA.AperFunction,ComponentPad*%
%ADD21O,1.700000X1.700000*%
%TD*%
%TA.AperFunction,ViaPad*%
%ADD22C,0.600000*%
%TD*%
%TA.AperFunction,ViaPad*%
%ADD23C,0.800000*%
%TD*%
%TA.AperFunction,Conductor*%
%ADD24C,0.200000*%
%TD*%
%TA.AperFunction,Conductor*%
%ADD25C,0.300000*%
%TD*%
%TA.AperFunction,Conductor*%
%ADD26C,0.350000*%
%TD*%
%TA.AperFunction,Conductor*%
%ADD27C,0.400000*%
%TD*%
G04 APERTURE END LIST*
D10*
%TO.P,TP1,1,1*%
%TO.N,TP*%
X96200000Y-78150000D03*
%TD*%
D11*
%TO.P,D2,1,K*%
%TO.N,GND*%
X116000000Y-66937500D03*
%TO.P,D2,2,A*%
%TO.N,Net-(D2-Pad2)*%
X116000000Y-65062500D03*
%TD*%
D12*
%TO.P,J7,1,Pin_1*%
%TO.N,GND*%
X57000000Y-62250000D03*
X52000000Y-62250000D03*
X52000000Y-69750000D03*
X57000000Y-69750000D03*
%TD*%
D13*
%TO.P,C1,1*%
%TO.N,GND*%
X129085000Y-67750000D03*
%TO.P,C1,2*%
%TO.N,/GPS_RF*%
X128115000Y-67750000D03*
%TD*%
D14*
%TO.P,U2,1,GND*%
%TO.N,GND*%
X120150000Y-78950000D03*
D15*
%TO.P,U2,2,TXD*%
%TO.N,GPS_UART_MISO*%
X121250000Y-78950000D03*
%TO.P,U2,3,RXD*%
%TO.N,GPS_UART_MOSI*%
X122350000Y-78950000D03*
%TO.P,U2,4,TIMEPULSE*%
%TO.N,unconnected-(U2-Pad4)*%
X123450000Y-78950000D03*
%TO.P,U2,5,EXTINT*%
%TO.N,GPS_EXINT*%
X124550000Y-78950000D03*
%TO.P,U2,6,V_BCKP*%
%TO.N,Net-(C5-Pad2)*%
X125650000Y-78950000D03*
%TO.P,U2,7,VCC_IO*%
X126750000Y-78950000D03*
%TO.P,U2,8,VCC*%
X127850000Y-78950000D03*
D14*
%TO.P,U2,9,~{RESET}*%
%TO.N,unconnected-(U2-Pad9)*%
X128950000Y-78950000D03*
%TO.P,U2,10,GND*%
%TO.N,GND*%
X128950000Y-69450000D03*
D15*
%TO.P,U2,11,RF_IN*%
%TO.N,/GPS_RF*%
X127850000Y-69450000D03*
%TO.P,U2,12,GND*%
%TO.N,GND*%
X126750000Y-69450000D03*
%TO.P,U2,13,LNA_EN*%
%TO.N,unconnected-(U2-Pad13)*%
X125650000Y-69450000D03*
%TO.P,U2,14,VCC_RF*%
%TO.N,unconnected-(U2-Pad14)*%
X124550000Y-69450000D03*
%TO.P,U2,15,Reserved*%
%TO.N,unconnected-(U2-Pad15)*%
X123450000Y-69450000D03*
%TO.P,U2,16,SDA*%
%TO.N,unconnected-(U2-Pad16)*%
X122350000Y-69450000D03*
%TO.P,U2,17,SCL*%
%TO.N,unconnected-(U2-Pad17)*%
X121250000Y-69450000D03*
D14*
%TO.P,U2,18,~{SAFEBOOT}*%
%TO.N,unconnected-(U2-Pad18)*%
X120150000Y-69450000D03*
%TD*%
D16*
%TO.P,AE1,1,A*%
%TO.N,/GPS_RF*%
X128300000Y-66550000D03*
%TO.P,AE1,2,Shield*%
%TO.N,GND*%
X129300000Y-66550000D03*
D17*
X128800000Y-63350000D03*
%TD*%
D18*
%TO.P,J1,0*%
%TO.N,N/C*%
X63125000Y-73290000D03*
X63125000Y-58710000D03*
D19*
%TO.P,J1,1,Pin_1*%
%TO.N,unconnected-(J1-Pad1)*%
X60800000Y-60250000D03*
%TO.P,J1,2,Pin_2*%
%TO.N,/GDR*%
X60800000Y-60750000D03*
%TO.P,J1,3,Pin_3*%
%TO.N,/RESE*%
X60800000Y-61250000D03*
%TO.P,J1,4,Pin_4*%
%TO.N,unconnected-(J1-Pad4)*%
X60800000Y-61750000D03*
%TO.P,J1,5,Pin_5*%
%TO.N,/VSH2*%
X60800000Y-62250000D03*
%TO.P,J1,6,Pin_6*%
%TO.N,unconnected-(J1-Pad6)*%
X60800000Y-62750000D03*
%TO.P,J1,7,Pin_7*%
%TO.N,unconnected-(J1-Pad7)*%
X60800000Y-63250000D03*
%TO.P,J1,8,Pin_8*%
%TO.N,GND*%
X60800000Y-63750000D03*
%TO.P,J1,9,Pin_9*%
%TO.N,DISP_BUSY*%
X60800000Y-64250000D03*
%TO.P,J1,10,Pin_10*%
%TO.N,DISP_RES#*%
X60800000Y-64750000D03*
%TO.P,J1,11,Pin_11*%
%TO.N,DISP_DC*%
X60800000Y-65250000D03*
%TO.P,J1,12,Pin_12*%
%TO.N,DISP_CS*%
X60800000Y-65750000D03*
%TO.P,J1,13,Pin_13*%
%TO.N,SPI_CLK*%
X60800000Y-66250000D03*
%TO.P,J1,14,Pin_14*%
%TO.N,SPI_MOSI*%
X60800000Y-66750000D03*
%TO.P,J1,15,Pin_15*%
%TO.N,VBAT*%
X60800000Y-67250000D03*
%TO.P,J1,16,Pin_16*%
X60800000Y-67750000D03*
%TO.P,J1,17,Pin_17*%
%TO.N,GND*%
X60800000Y-68250000D03*
%TO.P,J1,18,Pin_18*%
%TO.N,Net-(C16-Pad1)*%
X60800000Y-68750000D03*
%TO.P,J1,19,Pin_19*%
%TO.N,unconnected-(J1-Pad19)*%
X60800000Y-69250000D03*
%TO.P,J1,20,Pin_20*%
%TO.N,/VSH1*%
X60800000Y-69750000D03*
%TO.P,J1,21,Pin_21*%
%TO.N,/VGH*%
X60800000Y-70250000D03*
%TO.P,J1,22,Pin_22*%
%TO.N,/VSL*%
X60800000Y-70750000D03*
%TO.P,J1,23,Pin_23*%
%TO.N,/VGL*%
X60800000Y-71250000D03*
%TO.P,J1,24,Pin_24*%
%TO.N,/VCOM*%
X60800000Y-71750000D03*
%TD*%
D20*
%TO.P,J4,1,MISO*%
%TO.N,SPI_MISO*%
X71875000Y-77900000D03*
D21*
%TO.P,J4,2,VCC*%
%TO.N,VBAT*%
X71875000Y-80440000D03*
%TO.P,J4,3,SCK*%
%TO.N,SPI_CLK*%
X69335000Y-77900000D03*
%TO.P,J4,4,MOSI*%
%TO.N,SPI_MOSI*%
X69335000Y-80440000D03*
%TO.P,J4,5,~{RST}*%
%TO.N,RESET*%
X66795000Y-77900000D03*
%TO.P,J4,6,GND*%
%TO.N,GND*%
X66795000Y-80440000D03*
%TD*%
D20*
%TO.P,J2,1,Pin_1*%
%TO.N,GND*%
X53000000Y-80000000D03*
%TD*%
%TO.P,J3,1,Pin_1*%
%TO.N,GND*%
X53000000Y-52000000D03*
%TD*%
%TO.P,J6,1,Pin_1*%
%TO.N,Net-(D3-Pad2)*%
X115000000Y-52000000D03*
%TD*%
%TO.P,J5,1,Pin_1*%
%TO.N,Net-(D1-Pad2)*%
X115000000Y-80000000D03*
%TD*%
%TO.P,J8,1,Pin_1*%
%TO.N,VBAT*%
X112625000Y-68750000D03*
D21*
%TO.P,J8,2,Pin_2*%
%TO.N,GPS_UART_MOSI*%
X112625000Y-71290000D03*
%TO.P,J8,3,Pin_3*%
%TO.N,GPS_UART_MISO*%
X112625000Y-73830000D03*
%TO.P,J8,4,Pin_4*%
%TO.N,GND*%
X112625000Y-76370000D03*
%TD*%
D22*
%TO.N,GND*%
X55950000Y-78500000D03*
X117850000Y-67750000D03*
X123300000Y-64450000D03*
X128950000Y-53900000D03*
X70600000Y-63500000D03*
X119950000Y-67450000D03*
X112450000Y-51450000D03*
X68650000Y-50750000D03*
X73000000Y-59900000D03*
X127850000Y-75950000D03*
X115350000Y-54950000D03*
X86600000Y-64700000D03*
X92400000Y-51350000D03*
X126050000Y-62200000D03*
X111100000Y-62250000D03*
X83200000Y-64900000D03*
X69200000Y-74900000D03*
X74050000Y-81200000D03*
X118750000Y-79500000D03*
X119450000Y-50750000D03*
X59200000Y-76750000D03*
X85500000Y-74700000D03*
X92700000Y-81100000D03*
X126750000Y-70950000D03*
X52950000Y-54600000D03*
X125250000Y-67550000D03*
X51050000Y-76150000D03*
X122600000Y-81000000D03*
X60550000Y-58750000D03*
X104600000Y-67400000D03*
X59850000Y-81200000D03*
X128900000Y-70900000D03*
X127850000Y-70950000D03*
X74450000Y-78100000D03*
X125650000Y-81000000D03*
X57350000Y-54800000D03*
X57550000Y-81200000D03*
X100050000Y-51350000D03*
X83200000Y-81350000D03*
X55600000Y-57900000D03*
X126750000Y-67550000D03*
X123300000Y-62900000D03*
X51450000Y-66250000D03*
X126600000Y-50850000D03*
X74400000Y-74900000D03*
X115200000Y-72150000D03*
X71200000Y-69159500D03*
X50850000Y-58150000D03*
X58750000Y-66100000D03*
X78350000Y-51300000D03*
X68700000Y-69000000D03*
X65900000Y-72200000D03*
X115250000Y-77100000D03*
X86800000Y-51700000D03*
X108900000Y-51250000D03*
X123300000Y-67500000D03*
X57000000Y-66150000D03*
X118800000Y-78500000D03*
X57600000Y-76850000D03*
X129350000Y-62100000D03*
X69200000Y-59700000D03*
X115400000Y-59400000D03*
X129050000Y-58650000D03*
X127900000Y-62100000D03*
X124150000Y-62150000D03*
X104500000Y-70850000D03*
X52100000Y-73950000D03*
X71100000Y-71450000D03*
X60800000Y-50850000D03*
X123250000Y-65950000D03*
X78200000Y-67800000D03*
X120050000Y-81050000D03*
X101450000Y-80700000D03*
X108300000Y-62100000D03*
X70700000Y-59800000D03*
%TO.N,Net-(C5-Pad2)*%
X118150000Y-70700000D03*
D23*
X127850000Y-80550000D03*
D22*
%TO.N,GPS_EXINT*%
X118950000Y-73300000D03*
%TO.N,DISP_CS*%
X77000000Y-75300000D03*
%TO.N,Net-(D2-Pad2)*%
X106200000Y-72600000D03*
D23*
%TO.N,VBAT*%
X92900000Y-66000000D03*
X59300000Y-67450000D03*
X92900000Y-78300000D03*
D22*
%TO.N,RESET*%
X91700000Y-75200000D03*
X74350000Y-77000000D03*
%TO.N,SPI_MOSI*%
X73200000Y-71500000D03*
X73200000Y-74100000D03*
X65800000Y-69600000D03*
%TO.N,SPI_CLK*%
X70900000Y-72800000D03*
X67000000Y-69700000D03*
%TO.N,SPI_MISO*%
X72500000Y-73400000D03*
X72500000Y-70600000D03*
%TO.N,LIS_INT*%
X76500000Y-67700000D03*
X88900000Y-79200000D03*
%TO.N,LIS_CS*%
X73100000Y-69500000D03*
X76300000Y-74659500D03*
%TO.N,/VCOM*%
X59600000Y-73100000D03*
%TO.N,/VSL*%
X59550000Y-70800000D03*
%TO.N,/VSH1*%
X59550000Y-69750000D03*
%TO.N,/VGL*%
X59350000Y-71850000D03*
X65650000Y-70900000D03*
%TO.N,/VGH*%
X63850000Y-70250000D03*
%TO.N,DISP_BUSY*%
X79400000Y-76640500D03*
%TO.N,DISP_RES#*%
X78700000Y-76100000D03*
%TO.N,DISP_DC*%
X77950000Y-75700000D03*
%TO.N,Net-(C16-Pad1)*%
X59350000Y-68750000D03*
%TO.N,/VSH2*%
X58050000Y-59500000D03*
%TO.N,/GDR*%
X60850000Y-56700000D03*
%TO.N,/RESE*%
X60250000Y-56000000D03*
%TO.N,GPS_EN*%
X112600000Y-66300000D03*
X107650000Y-73600000D03*
%TD*%
D24*
%TO.N,RESET*%
X89700000Y-79800000D02*
X91700000Y-77800000D01*
X78550000Y-79800000D02*
X89700000Y-79800000D01*
X75750000Y-77000000D02*
X78550000Y-79800000D01*
X91700000Y-77800000D02*
X91700000Y-75200000D01*
X74350000Y-77000000D02*
X75750000Y-77000000D01*
%TO.N,VBAT*%
X91000000Y-80200000D02*
X92900000Y-78300000D01*
X72115000Y-80200000D02*
X91000000Y-80200000D01*
X71875000Y-80440000D02*
X72115000Y-80200000D01*
%TO.N,/VSH2*%
X58750000Y-60850000D02*
X58750000Y-60200000D01*
X60150000Y-62250000D02*
X58750000Y-60850000D01*
X58750000Y-60200000D02*
X58050000Y-59500000D01*
X60800000Y-62250000D02*
X60150000Y-62250000D01*
D25*
%TO.N,Net-(C5-Pad2)*%
X125650000Y-78950000D02*
X125650000Y-74900000D01*
D26*
X126800000Y-79000000D02*
X126750000Y-78950000D01*
D25*
X127850000Y-78950000D02*
X127850000Y-77100000D01*
X127850000Y-77100000D02*
X126750000Y-76000000D01*
X122900000Y-72150000D02*
X125650000Y-74900000D01*
X126750000Y-76000000D02*
X125650000Y-74900000D01*
X119600000Y-72150000D02*
X122900000Y-72150000D01*
X126750000Y-78950000D02*
X126750000Y-76000000D01*
X118150000Y-70700000D02*
X119600000Y-72150000D01*
D26*
X127850000Y-80550000D02*
X127850000Y-78950000D01*
D24*
%TO.N,GPS_EXINT*%
X124550000Y-76100000D02*
X121750000Y-73300000D01*
X124550000Y-78950000D02*
X124550000Y-76100000D01*
X121750000Y-73300000D02*
X118950000Y-73300000D01*
%TO.N,DISP_CS*%
X71750000Y-65750000D02*
X60800000Y-65750000D01*
X77000000Y-71000000D02*
X71750000Y-65750000D01*
X77000000Y-75300000D02*
X77000000Y-71000000D01*
%TO.N,GPS_UART_MOSI*%
X112625000Y-71290000D02*
X112625000Y-71657500D01*
X115717500Y-74750000D02*
X120100000Y-74750000D01*
X120100000Y-74750000D02*
X122350000Y-77000000D01*
X112625000Y-71657500D02*
X115717500Y-74750000D01*
X122350000Y-77000000D02*
X122350000Y-78950000D01*
%TO.N,GPS_UART_MISO*%
X121250000Y-78950000D02*
X121250000Y-77900000D01*
X114445000Y-75650000D02*
X112625000Y-73830000D01*
X119000000Y-75650000D02*
X114445000Y-75650000D01*
X121250000Y-77900000D02*
X119000000Y-75650000D01*
D25*
%TO.N,Net-(D2-Pad2)*%
X109237500Y-65062500D02*
X116000000Y-65062500D01*
X106200000Y-68100000D02*
X109237500Y-65062500D01*
X106200000Y-72600000D02*
X106200000Y-68100000D01*
D24*
%TO.N,VBAT*%
X59600000Y-67750000D02*
X59300000Y-67450000D01*
X60800000Y-67750000D02*
X59600000Y-67750000D01*
D27*
X92900000Y-78300000D02*
X92900000Y-66000000D01*
D24*
X60800000Y-67250000D02*
X59500000Y-67250000D01*
X59500000Y-67250000D02*
X59300000Y-67450000D01*
%TO.N,SPI_MOSI*%
X62950000Y-66750000D02*
X65800000Y-69600000D01*
X72900000Y-79200000D02*
X73400000Y-78700000D01*
X70575000Y-79200000D02*
X72900000Y-79200000D01*
X73400000Y-74300000D02*
X73200000Y-74100000D01*
X73400000Y-78700000D02*
X73400000Y-74300000D01*
X60800000Y-66750000D02*
X62950000Y-66750000D01*
X73200000Y-74100000D02*
X73200000Y-71500000D01*
X69335000Y-80440000D02*
X70575000Y-79200000D01*
%TO.N,SPI_CLK*%
X60800000Y-66250000D02*
X63550000Y-66250000D01*
X63550000Y-66250000D02*
X67000000Y-69700000D01*
X70900000Y-76335000D02*
X70900000Y-72800000D01*
X69335000Y-77900000D02*
X70900000Y-76335000D01*
%TO.N,SPI_MISO*%
X72500000Y-73400000D02*
X71875000Y-74025000D01*
X71875000Y-74025000D02*
X71875000Y-77900000D01*
X72500000Y-73400000D02*
X72500000Y-70600000D01*
%TO.N,LIS_INT*%
X82550000Y-79200000D02*
X80850000Y-77500000D01*
X80850000Y-72050000D02*
X76500000Y-67700000D01*
X88900000Y-79200000D02*
X82550000Y-79200000D01*
X80850000Y-77500000D02*
X80850000Y-72050000D01*
%TO.N,LIS_CS*%
X76300000Y-74659500D02*
X76300000Y-71600000D01*
X76300000Y-71600000D02*
X74200000Y-69500000D01*
X74200000Y-69500000D02*
X73100000Y-69500000D01*
%TO.N,/VCOM*%
X59600000Y-73100000D02*
X59600000Y-72950000D01*
X59600000Y-72950000D02*
X60800000Y-71750000D01*
%TO.N,/VSL*%
X60800000Y-70750000D02*
X59600000Y-70750000D01*
X59600000Y-70750000D02*
X59550000Y-70800000D01*
%TO.N,/VSH1*%
X60800000Y-69750000D02*
X59550000Y-69750000D01*
%TO.N,/VGL*%
X65300000Y-71250000D02*
X60800000Y-71250000D01*
X59950000Y-71250000D02*
X60800000Y-71250000D01*
X65650000Y-70900000D02*
X65300000Y-71250000D01*
X59350000Y-71850000D02*
X59950000Y-71250000D01*
%TO.N,/VGH*%
X63850000Y-70250000D02*
X60800000Y-70250000D01*
%TO.N,DISP_BUSY*%
X60800000Y-64250000D02*
X72050000Y-64250000D01*
X79400000Y-71600000D02*
X79400000Y-76640500D01*
X72050000Y-64250000D02*
X79400000Y-71600000D01*
%TO.N,DISP_RES#*%
X78600000Y-76000000D02*
X78600000Y-71308438D01*
X72041562Y-64750000D02*
X60800000Y-64750000D01*
X78700000Y-76100000D02*
X78600000Y-76000000D01*
X78600000Y-71308438D02*
X72041562Y-64750000D01*
%TO.N,DISP_DC*%
X72000000Y-65250000D02*
X60800000Y-65250000D01*
X77900000Y-75650000D02*
X77900000Y-71150000D01*
X77900000Y-71150000D02*
X72000000Y-65250000D01*
X77950000Y-75700000D02*
X77900000Y-75650000D01*
%TO.N,Net-(C16-Pad1)*%
X59350000Y-68750000D02*
X60800000Y-68750000D01*
%TO.N,/GDR*%
X59700000Y-57850000D02*
X59700000Y-60444022D01*
X60005978Y-60750000D02*
X60800000Y-60750000D01*
X59700000Y-60444022D02*
X60005978Y-60750000D01*
X60850000Y-56700000D02*
X59700000Y-57850000D01*
%TO.N,/RESE*%
X59340480Y-56909520D02*
X59340480Y-60592940D01*
X59340480Y-60592940D02*
X59997540Y-61250000D01*
X60250000Y-56000000D02*
X59340480Y-56909520D01*
X59997540Y-61250000D02*
X60800000Y-61250000D01*
%TO.N,GPS_EN*%
X111100000Y-66300000D02*
X107650000Y-69750000D01*
X107650000Y-69750000D02*
X107650000Y-73600000D01*
X112600000Y-66300000D02*
X111100000Y-66300000D01*
%TD*%
%TA.AperFunction,Conductor*%
%TO.N,GND*%
G36*
X126985461Y-50201882D02*
G01*
X126991522Y-50203276D01*
X126991523Y-50203276D01*
X126999642Y-50205143D01*
X127007806Y-50203296D01*
X127028281Y-50201589D01*
X127144227Y-50208100D01*
X127309367Y-50217374D01*
X127317595Y-50218302D01*
X127618956Y-50269505D01*
X127627046Y-50271351D01*
X127920792Y-50355978D01*
X127928624Y-50358719D01*
X128211040Y-50475699D01*
X128218513Y-50479298D01*
X128486044Y-50627158D01*
X128493072Y-50631572D01*
X128742386Y-50808470D01*
X128748870Y-50813642D01*
X128976800Y-51017333D01*
X128982667Y-51023200D01*
X129186358Y-51251130D01*
X129191533Y-51257618D01*
X129368428Y-51506929D01*
X129372842Y-51513956D01*
X129520702Y-51781487D01*
X129524301Y-51788960D01*
X129592288Y-51953096D01*
X129641281Y-52071376D01*
X129644022Y-52079208D01*
X129728649Y-52372954D01*
X129730495Y-52381043D01*
X129781698Y-52682405D01*
X129782626Y-52690633D01*
X129796310Y-52934294D01*
X129798385Y-52971247D01*
X129796726Y-52990723D01*
X129796725Y-52991520D01*
X129794857Y-52999642D01*
X129796696Y-53007769D01*
X129796696Y-53007771D01*
X129798175Y-53014306D01*
X129800000Y-53030637D01*
X129800000Y-63626000D01*
X129782687Y-63673566D01*
X129738850Y-63698876D01*
X129726000Y-63700000D01*
X128124000Y-63700000D01*
X128076434Y-63682687D01*
X128051124Y-63638850D01*
X128050000Y-63626000D01*
X128050000Y-63000000D01*
X123750000Y-63000000D01*
X123750000Y-67000000D01*
X127673814Y-67000000D01*
X127721380Y-67017313D01*
X127746690Y-67061150D01*
X127744410Y-67096186D01*
X127341869Y-68377000D01*
X127330840Y-68412093D01*
X127300062Y-68452280D01*
X127250653Y-68463282D01*
X127207918Y-68442232D01*
X127192164Y-68426478D01*
X127182853Y-68419713D01*
X127080342Y-68367481D01*
X127069393Y-68363923D01*
X126984354Y-68350455D01*
X126978572Y-68350000D01*
X126890048Y-68350000D01*
X126880052Y-68353638D01*
X126877000Y-68358925D01*
X126877000Y-70536951D01*
X126880638Y-70546947D01*
X126885925Y-70549999D01*
X126978571Y-70549999D01*
X126984354Y-70549544D01*
X127069394Y-70536076D01*
X127080340Y-70532519D01*
X127182853Y-70480287D01*
X127192164Y-70473522D01*
X127247321Y-70418365D01*
X127293197Y-70396973D01*
X127342092Y-70410074D01*
X127351973Y-70418365D01*
X127411658Y-70478050D01*
X127416848Y-70480694D01*
X127416850Y-70480696D01*
X127519502Y-70533000D01*
X127519505Y-70533001D01*
X127524696Y-70535646D01*
X127530448Y-70536557D01*
X127530451Y-70536558D01*
X127615318Y-70549999D01*
X127618481Y-70550500D01*
X127850000Y-70550500D01*
X128081518Y-70550499D01*
X128084390Y-70550044D01*
X128084392Y-70550044D01*
X128123230Y-70543893D01*
X128175304Y-70535646D01*
X128270312Y-70487237D01*
X128283150Y-70480696D01*
X128283152Y-70480694D01*
X128288342Y-70478050D01*
X128365652Y-70400740D01*
X128411528Y-70379348D01*
X128460423Y-70392449D01*
X128470258Y-70400695D01*
X128549895Y-70480194D01*
X128559717Y-70487199D01*
X128661226Y-70536818D01*
X128672070Y-70540169D01*
X128736805Y-70549613D01*
X128742139Y-70550000D01*
X128809952Y-70550000D01*
X128819948Y-70546362D01*
X128823000Y-70541075D01*
X128823000Y-70536952D01*
X129077000Y-70536952D01*
X129080638Y-70546948D01*
X129085925Y-70550000D01*
X129157843Y-70550000D01*
X129163212Y-70549607D01*
X129228564Y-70539987D01*
X129239408Y-70536618D01*
X129340826Y-70486824D01*
X129350634Y-70479801D01*
X129430196Y-70400101D01*
X129437199Y-70390283D01*
X129486818Y-70288774D01*
X129490169Y-70277930D01*
X129499613Y-70213195D01*
X129500000Y-70207861D01*
X129500000Y-69590048D01*
X129496362Y-69580052D01*
X129491075Y-69577000D01*
X129090048Y-69577000D01*
X129080052Y-69580638D01*
X129077000Y-69585925D01*
X129077000Y-70536952D01*
X128823000Y-70536952D01*
X128823000Y-69309952D01*
X129077000Y-69309952D01*
X129080638Y-69319948D01*
X129085925Y-69323000D01*
X129486952Y-69323000D01*
X129496948Y-69319362D01*
X129500000Y-69314075D01*
X129500000Y-68692157D01*
X129499607Y-68686788D01*
X129489987Y-68621436D01*
X129486618Y-68610592D01*
X129436824Y-68509174D01*
X129429801Y-68499366D01*
X129350101Y-68419804D01*
X129340283Y-68412801D01*
X129238774Y-68363182D01*
X129227930Y-68359831D01*
X129163195Y-68350387D01*
X129157861Y-68350000D01*
X129090048Y-68350000D01*
X129080052Y-68353638D01*
X129077000Y-68358925D01*
X129077000Y-69309952D01*
X128823000Y-69309952D01*
X128823000Y-68363048D01*
X128819362Y-68353052D01*
X128814075Y-68350000D01*
X128742157Y-68350000D01*
X128736788Y-68350393D01*
X128671436Y-68360013D01*
X128660590Y-68363383D01*
X128656242Y-68365518D01*
X128605915Y-68370942D01*
X128563875Y-68342747D01*
X128549794Y-68294126D01*
X128550917Y-68285337D01*
X128598395Y-68034380D01*
X128600419Y-68023680D01*
X128600795Y-68023751D01*
X128600861Y-68023326D01*
X128600609Y-68023289D01*
X128600777Y-68022139D01*
X128601290Y-68019080D01*
X128776022Y-67095492D01*
X128787203Y-67068136D01*
X128809816Y-67034293D01*
X128813867Y-67028231D01*
X128825500Y-66969748D01*
X128825500Y-66274000D01*
X128842813Y-66226434D01*
X128886650Y-66201124D01*
X128899500Y-66200000D01*
X129726000Y-66200000D01*
X129773566Y-66217313D01*
X129798876Y-66261150D01*
X129800000Y-66274000D01*
X129800000Y-79968877D01*
X129798118Y-79985461D01*
X129794857Y-79999642D01*
X129796697Y-80007773D01*
X129796694Y-80009405D01*
X129798161Y-80028050D01*
X129784918Y-80230111D01*
X129783654Y-80239707D01*
X129740612Y-80456099D01*
X129739614Y-80461114D01*
X129737111Y-80470459D01*
X129666897Y-80677300D01*
X129664542Y-80684238D01*
X129660838Y-80693180D01*
X129560991Y-80895650D01*
X129556151Y-80904033D01*
X129430731Y-81091737D01*
X129424838Y-81099417D01*
X129358013Y-81175616D01*
X129275986Y-81269150D01*
X129269150Y-81275986D01*
X129184282Y-81350414D01*
X129099417Y-81424838D01*
X129091737Y-81430731D01*
X128904033Y-81556151D01*
X128895650Y-81560991D01*
X128876755Y-81570309D01*
X128715697Y-81649734D01*
X128693180Y-81660838D01*
X128684241Y-81664541D01*
X128470459Y-81737111D01*
X128461117Y-81739613D01*
X128350411Y-81761634D01*
X128239707Y-81783654D01*
X128230112Y-81784918D01*
X128028519Y-81798131D01*
X128011108Y-81796729D01*
X128008479Y-81796724D01*
X128000358Y-81794857D01*
X127992231Y-81796696D01*
X127992229Y-81796696D01*
X127985694Y-81798175D01*
X127969363Y-81800000D01*
X51031124Y-81800000D01*
X51014540Y-81798118D01*
X51014231Y-81798047D01*
X51000359Y-81794857D01*
X50992230Y-81796697D01*
X50983898Y-81796682D01*
X50983898Y-81796582D01*
X50972505Y-81797292D01*
X50937322Y-81793827D01*
X50851181Y-81785342D01*
X50836954Y-81782512D01*
X50761034Y-81759482D01*
X50700822Y-81741217D01*
X50687430Y-81735669D01*
X50561969Y-81668609D01*
X50549913Y-81660553D01*
X50439949Y-81570309D01*
X50429691Y-81560051D01*
X50426491Y-81556151D01*
X50339447Y-81450087D01*
X50331391Y-81438031D01*
X50264331Y-81312570D01*
X50258782Y-81299175D01*
X50217488Y-81163046D01*
X50214658Y-81148819D01*
X50203828Y-81038867D01*
X50202753Y-81027951D01*
X50203466Y-81016813D01*
X50203261Y-81016813D01*
X50203276Y-81008478D01*
X50205143Y-81000357D01*
X50201825Y-80985693D01*
X50200000Y-80969362D01*
X50200000Y-80866058D01*
X51950000Y-80866058D01*
X51950710Y-80873268D01*
X51960182Y-80920890D01*
X51965652Y-80934094D01*
X52001759Y-80988132D01*
X52011868Y-80998241D01*
X52065906Y-81034348D01*
X52079110Y-81039818D01*
X52126732Y-81049290D01*
X52133942Y-81050000D01*
X52859952Y-81050000D01*
X52869948Y-81046362D01*
X52873000Y-81041075D01*
X52873000Y-81036952D01*
X53127000Y-81036952D01*
X53130638Y-81046948D01*
X53135925Y-81050000D01*
X53866058Y-81050000D01*
X53873268Y-81049290D01*
X53920890Y-81039818D01*
X53934094Y-81034348D01*
X53988132Y-80998241D01*
X53998241Y-80988132D01*
X54034348Y-80934094D01*
X54039818Y-80920890D01*
X54049290Y-80873268D01*
X54050000Y-80866058D01*
X54050000Y-80574792D01*
X65752577Y-80574792D01*
X65756949Y-80626854D01*
X65758250Y-80633942D01*
X65813013Y-80824922D01*
X65815663Y-80831617D01*
X65906479Y-81008326D01*
X65910384Y-81014384D01*
X66033789Y-81170083D01*
X66038794Y-81175267D01*
X66190094Y-81304032D01*
X66196013Y-81308146D01*
X66369440Y-81405072D01*
X66376041Y-81407955D01*
X66564991Y-81469348D01*
X66572036Y-81470897D01*
X66655043Y-81480796D01*
X66665399Y-81478367D01*
X66668000Y-81474891D01*
X66668000Y-81470329D01*
X66922000Y-81470329D01*
X66925638Y-81480325D01*
X66929875Y-81482771D01*
X66974603Y-81479330D01*
X66981701Y-81478078D01*
X67173062Y-81424649D01*
X67179770Y-81422047D01*
X67357107Y-81332468D01*
X67363195Y-81328604D01*
X67519751Y-81206289D01*
X67524970Y-81201319D01*
X67654791Y-81050920D01*
X67658939Y-81045040D01*
X67757078Y-80872283D01*
X67760006Y-80865708D01*
X67822719Y-80677189D01*
X67824316Y-80670155D01*
X67835713Y-80579946D01*
X67833356Y-80569573D01*
X67829966Y-80567000D01*
X66935048Y-80567000D01*
X66925052Y-80570638D01*
X66922000Y-80575925D01*
X66922000Y-81470329D01*
X66668000Y-81470329D01*
X66668000Y-80580048D01*
X66664362Y-80570052D01*
X66659075Y-80567000D01*
X65764971Y-80567000D01*
X65754975Y-80570638D01*
X65752577Y-80574792D01*
X54050000Y-80574792D01*
X54050000Y-80300034D01*
X65754069Y-80300034D01*
X65756571Y-80310372D01*
X65760136Y-80313000D01*
X66654952Y-80313000D01*
X66664948Y-80309362D01*
X66668000Y-80304075D01*
X66668000Y-80299952D01*
X66922000Y-80299952D01*
X66925638Y-80309948D01*
X66930925Y-80313000D01*
X67824580Y-80313000D01*
X67834576Y-80309362D01*
X67836880Y-80305371D01*
X67830340Y-80238669D01*
X67828941Y-80231602D01*
X67771516Y-80041403D01*
X67768772Y-80034745D01*
X67675498Y-79859322D01*
X67671512Y-79853323D01*
X67545942Y-79699358D01*
X67540866Y-79694247D01*
X67387789Y-79567610D01*
X67381804Y-79563573D01*
X67207043Y-79469081D01*
X67200405Y-79466290D01*
X67010612Y-79407540D01*
X67003552Y-79406091D01*
X66934977Y-79398883D01*
X66924657Y-79401456D01*
X66922000Y-79405113D01*
X66922000Y-80299952D01*
X66668000Y-80299952D01*
X66668000Y-79410221D01*
X66664362Y-79400225D01*
X66660290Y-79397875D01*
X66600912Y-79403278D01*
X66593818Y-79404631D01*
X66403231Y-79460724D01*
X66396555Y-79463422D01*
X66220483Y-79555469D01*
X66214456Y-79559413D01*
X66059619Y-79683906D01*
X66054471Y-79688947D01*
X65926765Y-79841140D01*
X65922696Y-79847083D01*
X65826980Y-80021191D01*
X65824144Y-80027808D01*
X65764071Y-80217181D01*
X65762571Y-80224237D01*
X65754069Y-80300034D01*
X54050000Y-80300034D01*
X54050000Y-80140048D01*
X54046362Y-80130052D01*
X54041075Y-80127000D01*
X53140048Y-80127000D01*
X53130052Y-80130638D01*
X53127000Y-80135925D01*
X53127000Y-81036952D01*
X52873000Y-81036952D01*
X52873000Y-80140048D01*
X52869362Y-80130052D01*
X52864075Y-80127000D01*
X51963048Y-80127000D01*
X51953052Y-80130638D01*
X51950000Y-80135925D01*
X51950000Y-80866058D01*
X50200000Y-80866058D01*
X50200000Y-79859952D01*
X51950000Y-79859952D01*
X51953638Y-79869948D01*
X51958925Y-79873000D01*
X52859952Y-79873000D01*
X52869948Y-79869362D01*
X52873000Y-79864075D01*
X52873000Y-79859952D01*
X53127000Y-79859952D01*
X53130638Y-79869948D01*
X53135925Y-79873000D01*
X54036952Y-79873000D01*
X54046948Y-79869362D01*
X54050000Y-79864075D01*
X54050000Y-79133942D01*
X54049290Y-79126732D01*
X54039818Y-79079110D01*
X54034348Y-79065906D01*
X53998241Y-79011868D01*
X53988132Y-79001759D01*
X53934094Y-78965652D01*
X53920890Y-78960182D01*
X53873268Y-78950710D01*
X53866058Y-78950000D01*
X53140048Y-78950000D01*
X53130052Y-78953638D01*
X53127000Y-78958925D01*
X53127000Y-79859952D01*
X52873000Y-79859952D01*
X52873000Y-78963048D01*
X52869362Y-78953052D01*
X52864075Y-78950000D01*
X52133942Y-78950000D01*
X52126732Y-78950710D01*
X52079110Y-78960182D01*
X52065906Y-78965652D01*
X52011868Y-79001759D01*
X52001759Y-79011868D01*
X51965652Y-79065906D01*
X51960182Y-79079110D01*
X51950710Y-79126732D01*
X51950000Y-79133942D01*
X51950000Y-79859952D01*
X50200000Y-79859952D01*
X50200000Y-77885262D01*
X65739520Y-77885262D01*
X65739823Y-77888871D01*
X65739823Y-77888873D01*
X65749901Y-78008882D01*
X65756759Y-78090553D01*
X65813544Y-78288586D01*
X65815196Y-78291800D01*
X65815197Y-78291803D01*
X65897505Y-78451957D01*
X65907712Y-78471818D01*
X66035677Y-78633270D01*
X66038430Y-78635613D01*
X66038433Y-78635616D01*
X66069062Y-78661683D01*
X66192564Y-78766791D01*
X66239266Y-78792892D01*
X66369239Y-78865532D01*
X66369243Y-78865534D01*
X66372398Y-78867297D01*
X66375834Y-78868414D01*
X66375840Y-78868416D01*
X66494034Y-78906819D01*
X66568329Y-78930959D01*
X66605331Y-78935371D01*
X66769294Y-78954922D01*
X66769297Y-78954922D01*
X66772894Y-78955351D01*
X66868053Y-78948029D01*
X66974689Y-78939824D01*
X66974691Y-78939824D01*
X66978300Y-78939546D01*
X67124573Y-78898706D01*
X67173244Y-78885117D01*
X67173245Y-78885117D01*
X67176725Y-78884145D01*
X67180601Y-78882187D01*
X67357376Y-78792892D01*
X67357379Y-78792890D01*
X67360610Y-78791258D01*
X67522951Y-78664424D01*
X67543706Y-78640379D01*
X67655201Y-78511210D01*
X67655203Y-78511208D01*
X67657564Y-78508472D01*
X67659347Y-78505333D01*
X67659350Y-78505329D01*
X67752192Y-78341896D01*
X67759323Y-78329344D01*
X67769085Y-78300000D01*
X67823208Y-78137299D01*
X67824351Y-78133863D01*
X67825872Y-78121827D01*
X67849913Y-77931519D01*
X67849913Y-77931513D01*
X67850171Y-77929474D01*
X67850583Y-77900000D01*
X67850372Y-77897840D01*
X67830833Y-77698570D01*
X67830480Y-77694970D01*
X67770935Y-77497749D01*
X67674218Y-77315849D01*
X67544011Y-77156200D01*
X67445261Y-77074507D01*
X67388070Y-77027194D01*
X67388069Y-77027193D01*
X67385275Y-77024882D01*
X67374384Y-77018993D01*
X67207238Y-76928618D01*
X67204055Y-76926897D01*
X67200605Y-76925829D01*
X67200600Y-76925827D01*
X67065903Y-76884132D01*
X67007254Y-76865977D01*
X66802369Y-76844443D01*
X66798765Y-76844771D01*
X66798764Y-76844771D01*
X66717538Y-76852163D01*
X66597203Y-76863114D01*
X66548247Y-76877522D01*
X66403043Y-76920258D01*
X66403039Y-76920260D01*
X66399572Y-76921280D01*
X66324079Y-76960747D01*
X66220209Y-77015049D01*
X66220206Y-77015051D01*
X66217002Y-77016726D01*
X66214184Y-77018992D01*
X66214182Y-77018993D01*
X66059266Y-77143548D01*
X66059263Y-77143551D01*
X66056447Y-77145815D01*
X66054121Y-77148587D01*
X66054119Y-77148589D01*
X65926351Y-77300856D01*
X65926348Y-77300860D01*
X65924024Y-77303630D01*
X65824776Y-77484162D01*
X65823682Y-77487611D01*
X65763850Y-77676226D01*
X65762484Y-77680532D01*
X65762081Y-77684123D01*
X65762081Y-77684124D01*
X65760614Y-77697203D01*
X65739520Y-77885262D01*
X50200000Y-77885262D01*
X50200000Y-71843823D01*
X58844391Y-71843823D01*
X58845074Y-71849046D01*
X58845074Y-71849049D01*
X58850304Y-71889045D01*
X58862980Y-71985979D01*
X58901365Y-72073215D01*
X58915432Y-72105184D01*
X58920720Y-72117203D01*
X58924112Y-72121238D01*
X59009580Y-72222916D01*
X59009583Y-72222919D01*
X59012970Y-72226948D01*
X59017357Y-72229868D01*
X59127924Y-72303469D01*
X59127927Y-72303470D01*
X59132313Y-72306390D01*
X59269157Y-72349142D01*
X59274425Y-72349239D01*
X59274428Y-72349239D01*
X59334733Y-72350344D01*
X59412499Y-72351770D01*
X59417582Y-72350384D01*
X59417584Y-72350384D01*
X59545727Y-72315448D01*
X59545729Y-72315447D01*
X59550817Y-72314060D01*
X59627980Y-72266682D01*
X59668498Y-72241804D01*
X59668499Y-72241803D01*
X59672991Y-72239045D01*
X59769200Y-72132754D01*
X59831710Y-72003733D01*
X59835233Y-71982792D01*
X59837903Y-71966925D01*
X59862868Y-71922890D01*
X59910297Y-71905205D01*
X59957997Y-71922145D01*
X59983455Y-71964768D01*
X59984428Y-71969657D01*
X59986133Y-71978231D01*
X60016748Y-72024048D01*
X60028778Y-72073215D01*
X60007544Y-72117485D01*
X59537402Y-72587627D01*
X59505412Y-72606452D01*
X59393529Y-72638428D01*
X59272280Y-72714930D01*
X59249430Y-72740803D01*
X59186239Y-72812354D01*
X59177377Y-72822388D01*
X59116447Y-72952163D01*
X59115637Y-72957368D01*
X59115636Y-72957370D01*
X59110275Y-72991804D01*
X59094391Y-73093823D01*
X59095074Y-73099046D01*
X59095074Y-73099049D01*
X59098750Y-73127157D01*
X59112980Y-73235979D01*
X59170720Y-73367203D01*
X59193096Y-73393823D01*
X59259580Y-73472916D01*
X59259583Y-73472919D01*
X59262970Y-73476948D01*
X59267357Y-73479868D01*
X59377924Y-73553469D01*
X59377927Y-73553470D01*
X59382313Y-73556390D01*
X59519157Y-73599142D01*
X59524425Y-73599239D01*
X59524428Y-73599239D01*
X59584733Y-73600344D01*
X59662499Y-73601770D01*
X59667582Y-73600384D01*
X59667584Y-73600384D01*
X59795727Y-73565448D01*
X59795729Y-73565447D01*
X59800817Y-73564060D01*
X59922991Y-73489045D01*
X60019200Y-73382754D01*
X60081710Y-73253733D01*
X60105496Y-73112354D01*
X60105647Y-73100000D01*
X60085323Y-72958082D01*
X60083140Y-72953282D01*
X60081661Y-72948222D01*
X60084380Y-72947427D01*
X60081206Y-72907358D01*
X60100199Y-72874772D01*
X60472428Y-72502544D01*
X60852798Y-72122174D01*
X60898675Y-72100782D01*
X60905124Y-72100500D01*
X61373013Y-72100500D01*
X61420579Y-72117813D01*
X61445889Y-72161650D01*
X61441379Y-72202820D01*
X61440182Y-72205709D01*
X61436133Y-72211769D01*
X61434712Y-72218914D01*
X61434711Y-72218916D01*
X61427428Y-72255532D01*
X61424500Y-72270252D01*
X61424500Y-74309748D01*
X61436133Y-74368231D01*
X61480448Y-74434552D01*
X61486509Y-74438602D01*
X61524424Y-74463936D01*
X61546769Y-74478867D01*
X61591295Y-74487724D01*
X61601682Y-74489790D01*
X61601683Y-74489790D01*
X61605252Y-74490500D01*
X64644748Y-74490500D01*
X64648317Y-74489790D01*
X64648318Y-74489790D01*
X64658705Y-74487724D01*
X64703231Y-74478867D01*
X64725577Y-74463936D01*
X64763491Y-74438602D01*
X64769552Y-74434552D01*
X64813867Y-74368231D01*
X64825500Y-74309748D01*
X64825500Y-72270252D01*
X64813867Y-72211769D01*
X64807888Y-72202820D01*
X64773602Y-72151509D01*
X64769552Y-72145448D01*
X64756402Y-72136661D01*
X64709294Y-72105184D01*
X64709293Y-72105184D01*
X64703231Y-72101133D01*
X64658705Y-72092276D01*
X64648318Y-72090210D01*
X64648317Y-72090210D01*
X64644748Y-72089500D01*
X61676987Y-72089500D01*
X61629421Y-72072187D01*
X61604111Y-72028350D01*
X61608621Y-71987180D01*
X61609818Y-71984290D01*
X61613867Y-71978231D01*
X61615573Y-71969657D01*
X61624790Y-71923318D01*
X61624790Y-71923317D01*
X61625500Y-71919748D01*
X61625500Y-71624500D01*
X61642813Y-71576934D01*
X61686650Y-71551624D01*
X61699500Y-71550500D01*
X65245433Y-71550500D01*
X65250906Y-71550902D01*
X65255342Y-71552425D01*
X65262166Y-71552169D01*
X65262167Y-71552169D01*
X65305241Y-71550552D01*
X65308017Y-71550500D01*
X65327948Y-71550500D01*
X65331300Y-71549876D01*
X65334691Y-71549563D01*
X65334709Y-71549753D01*
X65338755Y-71549294D01*
X65367208Y-71548226D01*
X65373485Y-71545529D01*
X65373490Y-71545528D01*
X65380343Y-71542584D01*
X65396002Y-71537826D01*
X65403336Y-71536460D01*
X65410053Y-71535209D01*
X65415868Y-71531624D01*
X65415872Y-71531623D01*
X65434290Y-71520270D01*
X65443907Y-71515274D01*
X65465262Y-71506099D01*
X65465264Y-71506098D01*
X65470063Y-71504036D01*
X65474949Y-71500022D01*
X65481380Y-71493591D01*
X65494876Y-71482923D01*
X65499532Y-71480053D01*
X65505348Y-71476468D01*
X65517046Y-71461085D01*
X65524039Y-71451888D01*
X65530617Y-71444354D01*
X65553470Y-71421501D01*
X65599346Y-71400109D01*
X65607152Y-71399839D01*
X65662105Y-71400846D01*
X65712499Y-71401770D01*
X65717581Y-71400385D01*
X65717585Y-71400384D01*
X65845727Y-71365448D01*
X65845729Y-71365447D01*
X65850817Y-71364060D01*
X65920102Y-71321519D01*
X65968498Y-71291804D01*
X65968499Y-71291803D01*
X65972991Y-71289045D01*
X66069200Y-71182754D01*
X66131710Y-71053733D01*
X66155496Y-70912354D01*
X66155647Y-70900000D01*
X66149527Y-70857262D01*
X66136070Y-70763297D01*
X66136070Y-70763296D01*
X66135323Y-70758082D01*
X66108483Y-70699049D01*
X66078166Y-70632371D01*
X66075984Y-70627572D01*
X66009143Y-70550000D01*
X65985840Y-70522955D01*
X65985839Y-70522954D01*
X65982400Y-70518963D01*
X65977981Y-70516099D01*
X65977979Y-70516097D01*
X65922587Y-70480194D01*
X65862095Y-70440985D01*
X65740455Y-70404607D01*
X65729792Y-70401418D01*
X65729791Y-70401418D01*
X65724739Y-70399907D01*
X65651103Y-70399457D01*
X65586646Y-70399063D01*
X65586645Y-70399063D01*
X65581376Y-70399031D01*
X65443529Y-70438428D01*
X65322280Y-70514930D01*
X65291269Y-70550044D01*
X65236239Y-70612354D01*
X65227377Y-70622388D01*
X65166447Y-70752163D01*
X65159961Y-70793823D01*
X65145471Y-70886885D01*
X65121047Y-70931221D01*
X65072352Y-70949500D01*
X61699500Y-70949500D01*
X61651934Y-70932187D01*
X61626624Y-70888350D01*
X61625500Y-70875500D01*
X61625500Y-70624500D01*
X61642813Y-70576934D01*
X61686650Y-70551624D01*
X61699500Y-70550500D01*
X63414241Y-70550500D01*
X63461807Y-70567813D01*
X63470887Y-70576884D01*
X63509580Y-70622916D01*
X63509583Y-70622919D01*
X63512970Y-70626948D01*
X63517357Y-70629868D01*
X63627924Y-70703469D01*
X63627927Y-70703470D01*
X63632313Y-70706390D01*
X63769157Y-70749142D01*
X63774425Y-70749239D01*
X63774428Y-70749239D01*
X63834733Y-70750344D01*
X63912499Y-70751770D01*
X63917582Y-70750384D01*
X63917584Y-70750384D01*
X64045727Y-70715448D01*
X64045729Y-70715447D01*
X64050817Y-70714060D01*
X64143146Y-70657370D01*
X64168498Y-70641804D01*
X64168499Y-70641803D01*
X64172991Y-70639045D01*
X64269200Y-70532754D01*
X64331710Y-70403733D01*
X64355496Y-70262354D01*
X64355647Y-70250000D01*
X64350500Y-70214060D01*
X64336070Y-70113297D01*
X64336070Y-70113296D01*
X64335323Y-70108082D01*
X64280117Y-69986661D01*
X64278166Y-69982371D01*
X64275984Y-69977572D01*
X64192558Y-69880752D01*
X64185840Y-69872955D01*
X64185839Y-69872954D01*
X64182400Y-69868963D01*
X64177981Y-69866099D01*
X64177979Y-69866097D01*
X64114328Y-69824841D01*
X64062095Y-69790985D01*
X63946156Y-69756312D01*
X63929792Y-69751418D01*
X63929791Y-69751418D01*
X63924739Y-69749907D01*
X63851103Y-69749457D01*
X63786646Y-69749063D01*
X63786645Y-69749063D01*
X63781376Y-69749031D01*
X63643529Y-69788428D01*
X63522280Y-69864930D01*
X63500983Y-69889045D01*
X63469683Y-69924485D01*
X63425219Y-69948678D01*
X63414217Y-69949500D01*
X61699500Y-69949500D01*
X61651934Y-69932187D01*
X61626624Y-69888350D01*
X61625500Y-69875500D01*
X61625500Y-69580252D01*
X61622284Y-69564083D01*
X61615289Y-69528916D01*
X61615288Y-69528914D01*
X61613867Y-69521769D01*
X61614747Y-69521594D01*
X61612916Y-69479654D01*
X61613867Y-69478231D01*
X61615816Y-69468437D01*
X61624790Y-69423318D01*
X61624790Y-69423317D01*
X61625500Y-69419748D01*
X61625500Y-69080252D01*
X61618260Y-69043852D01*
X61615289Y-69028916D01*
X61615288Y-69028914D01*
X61613867Y-69021769D01*
X61614747Y-69021594D01*
X61612916Y-68979654D01*
X61613867Y-68978231D01*
X61625500Y-68919748D01*
X61625500Y-68580252D01*
X61613867Y-68521769D01*
X61614503Y-68521643D01*
X61612557Y-68477083D01*
X61614765Y-68471015D01*
X61614818Y-68470887D01*
X61624290Y-68423268D01*
X61625000Y-68416058D01*
X61625000Y-68390048D01*
X61621362Y-68380052D01*
X61616075Y-68377000D01*
X59988048Y-68377000D01*
X59978052Y-68380638D01*
X59966209Y-68401151D01*
X59965962Y-68401008D01*
X59953457Y-68427826D01*
X59907581Y-68449218D01*
X59901131Y-68449500D01*
X59785714Y-68449500D01*
X59738148Y-68432187D01*
X59729654Y-68423804D01*
X59685840Y-68372955D01*
X59685839Y-68372954D01*
X59682400Y-68368963D01*
X59677981Y-68366099D01*
X59677979Y-68366097D01*
X59638068Y-68340228D01*
X59562095Y-68290985D01*
X59451232Y-68257830D01*
X59429792Y-68251418D01*
X59429791Y-68251418D01*
X59424739Y-68249907D01*
X59351103Y-68249457D01*
X59286646Y-68249063D01*
X59286645Y-68249063D01*
X59281376Y-68249031D01*
X59143529Y-68288428D01*
X59022280Y-68364930D01*
X58991749Y-68399500D01*
X58938469Y-68459829D01*
X58927377Y-68472388D01*
X58866447Y-68602163D01*
X58865637Y-68607368D01*
X58865636Y-68607370D01*
X58856726Y-68664596D01*
X58844391Y-68743823D01*
X58845074Y-68749046D01*
X58845074Y-68749049D01*
X58851024Y-68794547D01*
X58862980Y-68885979D01*
X58920720Y-69017203D01*
X58924112Y-69021238D01*
X59009580Y-69122916D01*
X59009583Y-69122919D01*
X59012970Y-69126948D01*
X59017357Y-69129868D01*
X59127924Y-69203469D01*
X59127927Y-69203470D01*
X59132313Y-69206390D01*
X59149419Y-69211734D01*
X59207678Y-69229935D01*
X59247917Y-69260644D01*
X59259003Y-69310034D01*
X59235748Y-69354995D01*
X59229335Y-69359907D01*
X59226738Y-69362117D01*
X59222280Y-69364930D01*
X59173867Y-69419748D01*
X59140012Y-69458082D01*
X59127377Y-69472388D01*
X59066447Y-69602163D01*
X59065637Y-69607368D01*
X59065636Y-69607370D01*
X59065306Y-69609492D01*
X59044391Y-69743823D01*
X59045074Y-69749046D01*
X59045074Y-69749049D01*
X59051802Y-69800500D01*
X59062980Y-69885979D01*
X59120720Y-70017203D01*
X59124112Y-70021238D01*
X59209580Y-70122916D01*
X59209583Y-70122919D01*
X59212970Y-70126948D01*
X59241485Y-70145929D01*
X59325373Y-70201770D01*
X59332313Y-70206390D01*
X59337348Y-70207963D01*
X59337824Y-70208190D01*
X59373304Y-70244293D01*
X59377277Y-70294756D01*
X59347884Y-70335966D01*
X59343521Y-70338415D01*
X59343529Y-70338428D01*
X59222280Y-70414930D01*
X59199269Y-70440985D01*
X59133964Y-70514930D01*
X59127377Y-70522388D01*
X59066447Y-70652163D01*
X59065637Y-70657368D01*
X59065636Y-70657370D01*
X59059991Y-70693630D01*
X59044391Y-70793823D01*
X59045074Y-70799046D01*
X59045074Y-70799049D01*
X59050534Y-70840803D01*
X59062980Y-70935979D01*
X59079233Y-70972916D01*
X59112245Y-71047941D01*
X59120720Y-71067203D01*
X59135655Y-71084970D01*
X59209580Y-71172916D01*
X59209583Y-71172919D01*
X59212970Y-71176948D01*
X59246457Y-71199239D01*
X59281065Y-71222276D01*
X59311067Y-71263045D01*
X59307845Y-71313561D01*
X59272905Y-71350187D01*
X59260395Y-71355027D01*
X59197755Y-71372930D01*
X59143529Y-71388428D01*
X59139069Y-71391242D01*
X59131888Y-71395773D01*
X59022280Y-71464930D01*
X58991288Y-71500022D01*
X58933631Y-71565307D01*
X58927377Y-71572388D01*
X58866447Y-71702163D01*
X58865637Y-71707368D01*
X58865636Y-71707370D01*
X58858201Y-71755123D01*
X58844391Y-71843823D01*
X50200000Y-71843823D01*
X50200000Y-71041973D01*
X50892776Y-71041973D01*
X50894173Y-71047183D01*
X50895059Y-71047941D01*
X51094404Y-71194105D01*
X51099033Y-71196998D01*
X51317796Y-71312095D01*
X51322817Y-71314279D01*
X51556181Y-71395773D01*
X51561476Y-71397191D01*
X51804316Y-71443297D01*
X51809758Y-71443917D01*
X52056751Y-71453621D01*
X52062229Y-71453430D01*
X52307933Y-71426521D01*
X52313331Y-71425520D01*
X52552359Y-71362589D01*
X52557540Y-71360805D01*
X52784649Y-71263232D01*
X52789513Y-71260699D01*
X52999701Y-71130631D01*
X53004136Y-71127408D01*
X53099056Y-71047053D01*
X53101959Y-71041973D01*
X55892776Y-71041973D01*
X55894173Y-71047183D01*
X55895059Y-71047941D01*
X56094404Y-71194105D01*
X56099033Y-71196998D01*
X56317796Y-71312095D01*
X56322817Y-71314279D01*
X56556181Y-71395773D01*
X56561476Y-71397191D01*
X56804316Y-71443297D01*
X56809758Y-71443917D01*
X57056751Y-71453621D01*
X57062229Y-71453430D01*
X57307933Y-71426521D01*
X57313331Y-71425520D01*
X57552359Y-71362589D01*
X57557540Y-71360805D01*
X57784649Y-71263232D01*
X57789513Y-71260699D01*
X57999701Y-71130631D01*
X58004136Y-71127408D01*
X58099056Y-71047053D01*
X58104335Y-71037816D01*
X58103480Y-71033085D01*
X57009226Y-69938831D01*
X56999587Y-69934336D01*
X56993688Y-69935917D01*
X55897271Y-71032334D01*
X55892776Y-71041973D01*
X53101959Y-71041973D01*
X53104335Y-71037816D01*
X53103480Y-71033085D01*
X52009226Y-69938831D01*
X51999587Y-69934336D01*
X51993688Y-69935917D01*
X50897271Y-71032334D01*
X50892776Y-71041973D01*
X50200000Y-71041973D01*
X50200000Y-70166440D01*
X50217313Y-70118874D01*
X50261150Y-70093564D01*
X50311000Y-70102354D01*
X50343537Y-70141131D01*
X50346578Y-70152003D01*
X50356699Y-70202884D01*
X50358164Y-70208165D01*
X50441691Y-70440808D01*
X50443916Y-70445807D01*
X50560913Y-70663549D01*
X50563859Y-70668174D01*
X50700703Y-70851430D01*
X50709598Y-70857262D01*
X50713608Y-70856787D01*
X51811169Y-69759226D01*
X51815279Y-69750413D01*
X52184336Y-69750413D01*
X52185917Y-69756312D01*
X53279407Y-70849802D01*
X53289046Y-70854297D01*
X53293930Y-70852988D01*
X53359679Y-70778015D01*
X53362971Y-70773648D01*
X53496692Y-70565756D01*
X53499308Y-70560937D01*
X53600827Y-70335572D01*
X53602703Y-70330422D01*
X53669798Y-70092517D01*
X53670890Y-70087151D01*
X53702196Y-69841070D01*
X53702480Y-69837365D01*
X53704718Y-69751854D01*
X53704630Y-69748152D01*
X53701655Y-69708118D01*
X55295949Y-69708118D01*
X55307808Y-69955021D01*
X55308475Y-69960449D01*
X55356699Y-70202884D01*
X55358164Y-70208165D01*
X55441691Y-70440808D01*
X55443916Y-70445807D01*
X55560913Y-70663549D01*
X55563859Y-70668174D01*
X55700703Y-70851430D01*
X55709598Y-70857262D01*
X55713608Y-70856787D01*
X56811169Y-69759226D01*
X56815279Y-69750413D01*
X57184336Y-69750413D01*
X57185917Y-69756312D01*
X58279407Y-70849802D01*
X58289046Y-70854297D01*
X58293930Y-70852988D01*
X58359679Y-70778015D01*
X58362971Y-70773648D01*
X58496692Y-70565756D01*
X58499308Y-70560937D01*
X58600827Y-70335572D01*
X58602703Y-70330422D01*
X58669798Y-70092517D01*
X58670890Y-70087151D01*
X58702196Y-69841070D01*
X58702480Y-69837365D01*
X58704718Y-69751854D01*
X58704630Y-69748152D01*
X58686245Y-69500748D01*
X58685437Y-69495345D01*
X58630884Y-69254258D01*
X58629281Y-69249012D01*
X58539691Y-69018633D01*
X58537338Y-69013700D01*
X58414678Y-68799089D01*
X58411614Y-68794547D01*
X58297780Y-68650150D01*
X58288735Y-68644552D01*
X58284428Y-68645177D01*
X57188831Y-69740774D01*
X57184336Y-69750413D01*
X56815279Y-69750413D01*
X56815664Y-69749587D01*
X56814083Y-69743688D01*
X55720473Y-68650078D01*
X55710834Y-68645583D01*
X55706302Y-68646798D01*
X55613882Y-68757922D01*
X55610693Y-68762394D01*
X55482467Y-68973702D01*
X55479980Y-68978582D01*
X55384391Y-69206536D01*
X55382652Y-69211734D01*
X55321807Y-69451311D01*
X55320858Y-69456696D01*
X55296092Y-69702642D01*
X55295949Y-69708118D01*
X53701655Y-69708118D01*
X53686245Y-69500748D01*
X53685437Y-69495345D01*
X53630884Y-69254258D01*
X53629281Y-69249012D01*
X53539691Y-69018633D01*
X53537338Y-69013700D01*
X53414678Y-68799089D01*
X53411614Y-68794547D01*
X53297780Y-68650150D01*
X53288735Y-68644552D01*
X53284428Y-68645177D01*
X52188831Y-69740774D01*
X52184336Y-69750413D01*
X51815279Y-69750413D01*
X51815664Y-69749587D01*
X51814083Y-69743688D01*
X50720473Y-68650078D01*
X50710834Y-68645583D01*
X50706302Y-68646798D01*
X50613882Y-68757922D01*
X50610693Y-68762394D01*
X50482467Y-68973702D01*
X50479980Y-68978582D01*
X50384391Y-69206536D01*
X50382652Y-69211734D01*
X50345723Y-69357143D01*
X50317234Y-69398984D01*
X50268516Y-69412725D01*
X50222364Y-69391934D01*
X50200372Y-69346342D01*
X50200000Y-69338928D01*
X50200000Y-68461906D01*
X50895528Y-68461906D01*
X50896583Y-68466978D01*
X51990774Y-69561169D01*
X52000413Y-69565664D01*
X52006312Y-69564083D01*
X53100927Y-68469468D01*
X53104453Y-68461906D01*
X55895528Y-68461906D01*
X55896583Y-68466978D01*
X56990774Y-69561169D01*
X57000413Y-69565664D01*
X57006312Y-69564083D01*
X58100927Y-68469468D01*
X58105422Y-68459829D01*
X58103975Y-68454430D01*
X58074846Y-68427029D01*
X58070589Y-68423582D01*
X57867494Y-68282690D01*
X57862769Y-68279907D01*
X57641081Y-68170583D01*
X57635998Y-68168530D01*
X57400594Y-68093176D01*
X57395254Y-68091894D01*
X57151281Y-68052160D01*
X57145844Y-68051684D01*
X56898671Y-68048449D01*
X56893203Y-68048784D01*
X56648274Y-68082117D01*
X56642931Y-68083252D01*
X56405608Y-68152425D01*
X56400492Y-68154338D01*
X56176001Y-68257830D01*
X56171219Y-68260481D01*
X55964502Y-68396010D01*
X55960152Y-68399348D01*
X55900564Y-68452533D01*
X55895528Y-68461906D01*
X53104453Y-68461906D01*
X53105422Y-68459829D01*
X53103975Y-68454430D01*
X53074846Y-68427029D01*
X53070589Y-68423582D01*
X52867494Y-68282690D01*
X52862769Y-68279907D01*
X52641081Y-68170583D01*
X52635998Y-68168530D01*
X52400594Y-68093176D01*
X52395254Y-68091894D01*
X52151281Y-68052160D01*
X52145844Y-68051684D01*
X51898671Y-68048449D01*
X51893203Y-68048784D01*
X51648274Y-68082117D01*
X51642931Y-68083252D01*
X51405608Y-68152425D01*
X51400492Y-68154338D01*
X51176001Y-68257830D01*
X51171219Y-68260481D01*
X50964502Y-68396010D01*
X50960152Y-68399348D01*
X50900564Y-68452533D01*
X50895528Y-68461906D01*
X50200000Y-68461906D01*
X50200000Y-67450000D01*
X58694318Y-67450000D01*
X58694951Y-67454808D01*
X58709234Y-67563297D01*
X58714956Y-67606762D01*
X58775464Y-67752841D01*
X58778414Y-67756685D01*
X58778416Y-67756689D01*
X58867470Y-67872746D01*
X58871718Y-67878282D01*
X58875569Y-67881237D01*
X58993311Y-67971584D01*
X58993315Y-67971586D01*
X58997159Y-67974536D01*
X59143238Y-68035044D01*
X59148040Y-68035676D01*
X59148043Y-68035677D01*
X59295192Y-68055049D01*
X59300000Y-68055682D01*
X59304808Y-68055049D01*
X59451954Y-68035677D01*
X59456762Y-68035044D01*
X59458871Y-68034170D01*
X59493740Y-68033667D01*
X59503852Y-68036067D01*
X59514176Y-68039332D01*
X59540622Y-68049883D01*
X59546915Y-68050500D01*
X59556012Y-68050500D01*
X59573099Y-68052500D01*
X59578415Y-68053762D01*
X59578417Y-68053762D01*
X59585066Y-68055340D01*
X59615663Y-68051176D01*
X59625642Y-68050500D01*
X59901546Y-68050500D01*
X59949112Y-68067813D01*
X59971083Y-68099190D01*
X59978638Y-68119948D01*
X59983925Y-68123000D01*
X61611952Y-68123000D01*
X61621948Y-68119362D01*
X61625000Y-68114075D01*
X61625000Y-68083942D01*
X61624290Y-68076732D01*
X61614818Y-68029113D01*
X61614765Y-68028985D01*
X61614757Y-68028808D01*
X61613396Y-68021964D01*
X61614449Y-68021754D01*
X61612630Y-67980083D01*
X61613867Y-67978231D01*
X61622204Y-67936320D01*
X61624790Y-67923318D01*
X61624790Y-67923317D01*
X61625500Y-67919748D01*
X61625500Y-67580252D01*
X61624369Y-67574564D01*
X61615289Y-67528916D01*
X61615288Y-67528914D01*
X61613867Y-67521769D01*
X61614747Y-67521594D01*
X61612916Y-67479654D01*
X61613867Y-67478231D01*
X61619483Y-67450000D01*
X61624790Y-67423318D01*
X61624790Y-67423317D01*
X61625500Y-67419748D01*
X61625500Y-67124500D01*
X61642813Y-67076934D01*
X61686650Y-67051624D01*
X61699500Y-67050500D01*
X62794877Y-67050500D01*
X62842443Y-67067813D01*
X62847203Y-67072174D01*
X65277847Y-69502818D01*
X65299239Y-69548694D01*
X65298640Y-69566526D01*
X65295508Y-69586646D01*
X65294391Y-69593823D01*
X65295074Y-69599046D01*
X65295074Y-69599049D01*
X65300534Y-69640803D01*
X65312980Y-69735979D01*
X65338445Y-69793852D01*
X65368483Y-69862118D01*
X65370720Y-69867203D01*
X65378912Y-69876948D01*
X65459580Y-69972916D01*
X65459583Y-69972919D01*
X65462970Y-69976948D01*
X65467357Y-69979868D01*
X65577924Y-70053469D01*
X65577927Y-70053470D01*
X65582313Y-70056390D01*
X65719157Y-70099142D01*
X65724425Y-70099239D01*
X65724428Y-70099239D01*
X65784733Y-70100344D01*
X65862499Y-70101770D01*
X65867582Y-70100384D01*
X65867584Y-70100384D01*
X65995727Y-70065448D01*
X65995729Y-70065447D01*
X66000817Y-70064060D01*
X66084993Y-70012376D01*
X66118498Y-69991804D01*
X66118499Y-69991803D01*
X66122991Y-69989045D01*
X66219200Y-69882754D01*
X66281710Y-69753733D01*
X66305496Y-69612354D01*
X66305546Y-69608260D01*
X66305671Y-69607929D01*
X66305786Y-69606648D01*
X66306143Y-69606680D01*
X66323438Y-69560908D01*
X66367581Y-69536136D01*
X66417320Y-69545534D01*
X66431866Y-69556837D01*
X66477847Y-69602818D01*
X66499239Y-69648694D01*
X66498640Y-69666526D01*
X66495644Y-69685775D01*
X66494391Y-69693823D01*
X66495074Y-69699046D01*
X66495074Y-69699049D01*
X66501495Y-69748152D01*
X66512980Y-69835979D01*
X66570720Y-69967203D01*
X66574112Y-69971238D01*
X66659580Y-70072916D01*
X66659583Y-70072919D01*
X66662970Y-70076948D01*
X66675269Y-70085135D01*
X66777924Y-70153469D01*
X66777927Y-70153470D01*
X66782313Y-70156390D01*
X66919157Y-70199142D01*
X66924425Y-70199239D01*
X66924428Y-70199239D01*
X66984733Y-70200344D01*
X67062499Y-70201770D01*
X67067582Y-70200384D01*
X67067584Y-70200384D01*
X67195727Y-70165448D01*
X67195729Y-70165447D01*
X67200817Y-70164060D01*
X67301315Y-70102354D01*
X67318498Y-70091804D01*
X67318499Y-70091803D01*
X67322991Y-70089045D01*
X67419200Y-69982754D01*
X67481710Y-69853733D01*
X67505496Y-69712354D01*
X67505647Y-69700000D01*
X67500517Y-69664176D01*
X67486070Y-69563297D01*
X67486070Y-69563296D01*
X67485323Y-69558082D01*
X67458483Y-69499049D01*
X67428166Y-69432371D01*
X67425984Y-69427572D01*
X67338549Y-69326099D01*
X67335840Y-69322955D01*
X67335839Y-69322954D01*
X67332400Y-69318963D01*
X67327981Y-69316099D01*
X67327979Y-69316097D01*
X67276646Y-69282825D01*
X67212095Y-69240985D01*
X67086650Y-69203469D01*
X67079792Y-69201418D01*
X67079791Y-69201418D01*
X67074739Y-69199907D01*
X67024752Y-69199602D01*
X66954343Y-69199171D01*
X66906883Y-69181567D01*
X66902469Y-69177498D01*
X63901797Y-66176826D01*
X63880405Y-66130950D01*
X63893506Y-66082055D01*
X63934970Y-66053021D01*
X63954123Y-66050500D01*
X71594877Y-66050500D01*
X71642443Y-66067813D01*
X71647203Y-66072174D01*
X76677826Y-71102798D01*
X76699218Y-71148674D01*
X76699500Y-71155124D01*
X76699500Y-71408810D01*
X76682187Y-71456376D01*
X76638350Y-71481686D01*
X76588500Y-71472896D01*
X76557509Y-71438020D01*
X76556098Y-71434735D01*
X76556096Y-71434731D01*
X76554036Y-71429937D01*
X76550022Y-71425051D01*
X76543591Y-71418620D01*
X76532923Y-71405124D01*
X76530053Y-71400468D01*
X76526468Y-71394652D01*
X76516378Y-71386979D01*
X76501888Y-71375961D01*
X76494354Y-71369383D01*
X74451070Y-69326099D01*
X74447485Y-69321946D01*
X74445425Y-69317731D01*
X74408818Y-69283773D01*
X74406819Y-69281848D01*
X74392723Y-69267752D01*
X74389912Y-69265824D01*
X74387293Y-69263647D01*
X74387403Y-69263515D01*
X74384227Y-69260961D01*
X74368364Y-69246246D01*
X74368363Y-69246245D01*
X74363354Y-69241599D01*
X74357012Y-69239069D01*
X74357006Y-69239065D01*
X74350077Y-69236301D01*
X74335641Y-69228593D01*
X74329493Y-69224376D01*
X74329492Y-69224375D01*
X74323854Y-69220508D01*
X74317204Y-69218930D01*
X74317202Y-69218929D01*
X74296160Y-69213936D01*
X74285824Y-69210668D01*
X74275101Y-69206390D01*
X74259378Y-69200117D01*
X74253085Y-69199500D01*
X74243988Y-69199500D01*
X74226901Y-69197500D01*
X74221585Y-69196238D01*
X74221583Y-69196238D01*
X74214934Y-69194660D01*
X74194066Y-69197500D01*
X74184337Y-69198824D01*
X74174358Y-69199500D01*
X73535714Y-69199500D01*
X73488148Y-69182187D01*
X73479654Y-69173804D01*
X73435840Y-69122955D01*
X73435839Y-69122954D01*
X73432400Y-69118963D01*
X73427981Y-69116099D01*
X73427979Y-69116097D01*
X73372676Y-69080252D01*
X73312095Y-69040985D01*
X73208168Y-69009904D01*
X73179792Y-69001418D01*
X73179791Y-69001418D01*
X73174739Y-68999907D01*
X73101103Y-68999457D01*
X73036646Y-68999063D01*
X73036645Y-68999063D01*
X73031376Y-68999031D01*
X72893529Y-69038428D01*
X72772280Y-69114930D01*
X72754433Y-69135138D01*
X72685951Y-69212680D01*
X72677377Y-69222388D01*
X72616447Y-69352163D01*
X72615637Y-69357368D01*
X72615636Y-69357370D01*
X72610255Y-69391934D01*
X72594391Y-69493823D01*
X72595074Y-69499046D01*
X72595074Y-69499049D01*
X72600845Y-69543181D01*
X72612980Y-69635979D01*
X72670720Y-69767203D01*
X72674112Y-69771238D01*
X72759580Y-69872916D01*
X72759583Y-69872919D01*
X72762970Y-69876948D01*
X72767357Y-69879868D01*
X72877924Y-69953469D01*
X72877927Y-69953470D01*
X72882313Y-69956390D01*
X73019157Y-69999142D01*
X73024425Y-69999239D01*
X73024428Y-69999239D01*
X73084733Y-70000344D01*
X73162499Y-70001770D01*
X73167582Y-70000384D01*
X73167584Y-70000384D01*
X73295727Y-69965448D01*
X73295729Y-69965447D01*
X73300817Y-69964060D01*
X73372986Y-69919748D01*
X73418498Y-69891804D01*
X73418499Y-69891803D01*
X73422991Y-69889045D01*
X73481105Y-69824841D01*
X73525861Y-69801194D01*
X73535968Y-69800500D01*
X74044877Y-69800500D01*
X74092443Y-69817813D01*
X74097203Y-69822174D01*
X75977826Y-71702797D01*
X75999218Y-71748673D01*
X75999500Y-71755123D01*
X75999500Y-74218053D01*
X75982187Y-74265619D01*
X75975379Y-74272475D01*
X75972280Y-74274430D01*
X75937936Y-74313318D01*
X75884084Y-74374294D01*
X75877377Y-74381888D01*
X75816447Y-74511663D01*
X75815637Y-74516868D01*
X75815636Y-74516870D01*
X75806309Y-74576776D01*
X75794391Y-74653323D01*
X75795074Y-74658546D01*
X75795074Y-74658549D01*
X75800557Y-74700480D01*
X75812980Y-74795479D01*
X75870720Y-74926703D01*
X75879304Y-74936915D01*
X75959580Y-75032416D01*
X75959583Y-75032419D01*
X75962970Y-75036448D01*
X75988264Y-75053285D01*
X76077924Y-75112969D01*
X76077927Y-75112970D01*
X76082313Y-75115890D01*
X76219157Y-75158642D01*
X76224425Y-75158739D01*
X76224428Y-75158739D01*
X76284733Y-75159844D01*
X76362499Y-75161270D01*
X76411645Y-75147871D01*
X76462088Y-75152062D01*
X76498037Y-75187698D01*
X76504227Y-75230649D01*
X76494391Y-75293823D01*
X76495074Y-75299046D01*
X76495074Y-75299049D01*
X76499918Y-75336091D01*
X76512980Y-75435979D01*
X76570720Y-75567203D01*
X76574112Y-75571238D01*
X76659580Y-75672916D01*
X76659583Y-75672919D01*
X76662970Y-75676948D01*
X76673462Y-75683932D01*
X76777924Y-75753469D01*
X76777927Y-75753470D01*
X76782313Y-75756390D01*
X76919157Y-75799142D01*
X76924425Y-75799239D01*
X76924428Y-75799239D01*
X76984733Y-75800344D01*
X77062499Y-75801770D01*
X77067582Y-75800384D01*
X77067584Y-75800384D01*
X77195727Y-75765448D01*
X77195729Y-75765447D01*
X77200817Y-75764060D01*
X77322991Y-75689045D01*
X77326527Y-75685139D01*
X77328579Y-75683435D01*
X77376235Y-75666371D01*
X77423710Y-75683932D01*
X77449223Y-75730775D01*
X77462980Y-75835979D01*
X77498519Y-75916748D01*
X77514251Y-75952500D01*
X77520720Y-75967203D01*
X77524899Y-75972174D01*
X77609580Y-76072916D01*
X77609583Y-76072919D01*
X77612970Y-76076948D01*
X77617357Y-76079868D01*
X77727924Y-76153469D01*
X77727927Y-76153470D01*
X77732313Y-76156390D01*
X77869157Y-76199142D01*
X77874425Y-76199239D01*
X77874428Y-76199239D01*
X77934733Y-76200344D01*
X78012499Y-76201770D01*
X78017582Y-76200384D01*
X78017584Y-76200384D01*
X78119919Y-76172484D01*
X78170364Y-76176675D01*
X78206313Y-76212312D01*
X78210283Y-76225841D01*
X78210879Y-76225675D01*
X78212296Y-76230751D01*
X78212980Y-76235979D01*
X78270720Y-76367203D01*
X78280626Y-76378988D01*
X78359580Y-76472916D01*
X78359583Y-76472919D01*
X78362970Y-76476948D01*
X78395128Y-76498354D01*
X78477924Y-76553469D01*
X78477927Y-76553470D01*
X78482313Y-76556390D01*
X78619157Y-76599142D01*
X78624425Y-76599239D01*
X78624428Y-76599239D01*
X78684733Y-76600344D01*
X78762499Y-76601770D01*
X78767581Y-76600385D01*
X78767585Y-76600384D01*
X78803900Y-76590483D01*
X78854345Y-76594675D01*
X78890294Y-76630311D01*
X78896739Y-76652282D01*
X78912154Y-76770162D01*
X78912980Y-76776479D01*
X78970720Y-76907703D01*
X78983792Y-76923254D01*
X79059580Y-77013416D01*
X79059583Y-77013419D01*
X79062970Y-77017448D01*
X79074138Y-77024882D01*
X79177924Y-77093969D01*
X79177927Y-77093970D01*
X79182313Y-77096890D01*
X79319157Y-77139642D01*
X79324425Y-77139739D01*
X79324428Y-77139739D01*
X79384733Y-77140844D01*
X79462499Y-77142270D01*
X79467582Y-77140884D01*
X79467584Y-77140884D01*
X79595727Y-77105948D01*
X79595729Y-77105947D01*
X79600817Y-77104560D01*
X79670452Y-77061804D01*
X79718498Y-77032304D01*
X79718499Y-77032303D01*
X79722991Y-77029545D01*
X79819200Y-76923254D01*
X79881710Y-76794233D01*
X79905496Y-76652854D01*
X79905647Y-76640500D01*
X79900877Y-76607189D01*
X79886070Y-76503797D01*
X79886070Y-76503796D01*
X79885323Y-76498582D01*
X79882335Y-76492009D01*
X79828166Y-76372871D01*
X79825984Y-76368072D01*
X79732400Y-76259463D01*
X79727973Y-76256593D01*
X79725854Y-76254745D01*
X79701391Y-76210430D01*
X79700500Y-76198981D01*
X79700500Y-71654572D01*
X79700902Y-71649096D01*
X79702426Y-71644658D01*
X79701923Y-71631247D01*
X79700552Y-71594744D01*
X79700500Y-71591968D01*
X79700500Y-71572052D01*
X79699875Y-71568695D01*
X79699562Y-71565307D01*
X79699750Y-71565290D01*
X79699294Y-71561242D01*
X79698933Y-71551624D01*
X79698226Y-71532792D01*
X79695529Y-71526515D01*
X79695528Y-71526510D01*
X79692584Y-71519657D01*
X79687818Y-71503957D01*
X79687761Y-71503650D01*
X79696100Y-71453722D01*
X79734581Y-71420835D01*
X79785198Y-71420378D01*
X79812844Y-71437815D01*
X80527826Y-72152797D01*
X80549218Y-72198673D01*
X80549500Y-72205123D01*
X80549500Y-77445433D01*
X80549098Y-77450906D01*
X80547575Y-77455342D01*
X80547831Y-77462166D01*
X80547831Y-77462167D01*
X80549448Y-77505241D01*
X80549500Y-77508017D01*
X80549500Y-77527948D01*
X80550124Y-77531300D01*
X80550437Y-77534691D01*
X80550247Y-77534709D01*
X80550706Y-77538755D01*
X80551774Y-77567208D01*
X80554471Y-77573485D01*
X80554472Y-77573490D01*
X80557416Y-77580343D01*
X80562174Y-77596002D01*
X80564791Y-77610053D01*
X80568376Y-77615868D01*
X80568377Y-77615872D01*
X80579730Y-77634290D01*
X80584726Y-77643907D01*
X80595964Y-77670063D01*
X80599978Y-77674949D01*
X80606409Y-77681380D01*
X80617076Y-77694875D01*
X80623532Y-77705348D01*
X80628971Y-77709484D01*
X80648112Y-77724039D01*
X80655646Y-77730617D01*
X82298203Y-79373174D01*
X82319595Y-79419050D01*
X82306494Y-79467945D01*
X82265030Y-79496979D01*
X82245877Y-79499500D01*
X78705123Y-79499500D01*
X78657557Y-79482187D01*
X78652797Y-79477826D01*
X76001070Y-76826099D01*
X75997485Y-76821946D01*
X75995425Y-76817731D01*
X75958818Y-76783773D01*
X75956819Y-76781848D01*
X75942723Y-76767752D01*
X75939912Y-76765824D01*
X75937293Y-76763647D01*
X75937403Y-76763515D01*
X75934227Y-76760961D01*
X75918364Y-76746246D01*
X75918363Y-76746245D01*
X75913354Y-76741599D01*
X75907012Y-76739069D01*
X75907006Y-76739065D01*
X75900077Y-76736301D01*
X75885641Y-76728593D01*
X75879493Y-76724376D01*
X75879492Y-76724375D01*
X75873854Y-76720508D01*
X75867204Y-76718930D01*
X75867202Y-76718929D01*
X75846160Y-76713936D01*
X75835824Y-76710668D01*
X75833932Y-76709913D01*
X75809378Y-76700117D01*
X75803085Y-76699500D01*
X75793988Y-76699500D01*
X75776901Y-76697500D01*
X75771585Y-76696238D01*
X75771583Y-76696238D01*
X75764934Y-76694660D01*
X75744066Y-76697500D01*
X75734337Y-76698824D01*
X75724358Y-76699500D01*
X74785714Y-76699500D01*
X74738148Y-76682187D01*
X74729654Y-76673804D01*
X74685840Y-76622955D01*
X74685839Y-76622954D01*
X74682400Y-76618963D01*
X74677981Y-76616099D01*
X74677979Y-76616097D01*
X74620720Y-76578984D01*
X74562095Y-76540985D01*
X74444862Y-76505925D01*
X74429792Y-76501418D01*
X74429791Y-76501418D01*
X74424739Y-76499907D01*
X74351103Y-76499457D01*
X74286646Y-76499063D01*
X74286645Y-76499063D01*
X74281376Y-76499031D01*
X74143529Y-76538428D01*
X74022280Y-76614930D01*
X73989292Y-76652282D01*
X73935951Y-76712680D01*
X73927377Y-76722388D01*
X73866447Y-76852163D01*
X73865637Y-76857368D01*
X73865636Y-76857370D01*
X73847619Y-76973090D01*
X73835670Y-76994781D01*
X73844037Y-77004752D01*
X73847875Y-77020466D01*
X73862980Y-77135979D01*
X73920720Y-77267203D01*
X73924112Y-77271238D01*
X74009580Y-77372916D01*
X74009583Y-77372919D01*
X74012970Y-77376948D01*
X74048590Y-77400659D01*
X74127924Y-77453469D01*
X74127927Y-77453470D01*
X74132313Y-77456390D01*
X74269157Y-77499142D01*
X74274425Y-77499239D01*
X74274428Y-77499239D01*
X74334733Y-77500344D01*
X74412499Y-77501770D01*
X74417582Y-77500384D01*
X74417584Y-77500384D01*
X74545727Y-77465448D01*
X74545729Y-77465447D01*
X74550817Y-77464060D01*
X74611904Y-77426552D01*
X74668498Y-77391804D01*
X74668499Y-77391803D01*
X74672991Y-77389045D01*
X74731105Y-77324841D01*
X74775861Y-77301194D01*
X74785968Y-77300500D01*
X75594877Y-77300500D01*
X75642443Y-77317813D01*
X75647203Y-77322174D01*
X78098203Y-79773174D01*
X78119595Y-79819050D01*
X78106494Y-79867945D01*
X78065030Y-79896979D01*
X78045877Y-79899500D01*
X72821892Y-79899500D01*
X72774326Y-79882187D01*
X72757991Y-79862015D01*
X72757922Y-79862061D01*
X72757440Y-79861336D01*
X72756556Y-79860244D01*
X72755920Y-79859047D01*
X72755912Y-79859035D01*
X72754218Y-79855849D01*
X72745585Y-79845263D01*
X72686790Y-79773174D01*
X72624011Y-79696200D01*
X72545824Y-79631518D01*
X72520209Y-79587858D01*
X72528650Y-79537948D01*
X72567199Y-79505141D01*
X72592993Y-79500500D01*
X72845433Y-79500500D01*
X72850906Y-79500902D01*
X72855342Y-79502425D01*
X72862166Y-79502169D01*
X72862167Y-79502169D01*
X72905241Y-79500552D01*
X72908017Y-79500500D01*
X72927948Y-79500500D01*
X72931300Y-79499876D01*
X72934691Y-79499563D01*
X72934709Y-79499753D01*
X72938755Y-79499294D01*
X72967208Y-79498226D01*
X72973485Y-79495529D01*
X72973490Y-79495528D01*
X72980343Y-79492584D01*
X72996002Y-79487826D01*
X73003336Y-79486460D01*
X73010053Y-79485209D01*
X73015868Y-79481624D01*
X73015872Y-79481623D01*
X73034290Y-79470270D01*
X73043907Y-79465274D01*
X73065262Y-79456099D01*
X73065264Y-79456098D01*
X73070063Y-79454036D01*
X73074949Y-79450022D01*
X73081380Y-79443591D01*
X73094876Y-79432923D01*
X73099532Y-79430053D01*
X73105348Y-79426468D01*
X73117703Y-79410221D01*
X73124039Y-79401888D01*
X73130617Y-79394354D01*
X73573901Y-78951070D01*
X73578054Y-78947485D01*
X73582269Y-78945425D01*
X73616227Y-78908818D01*
X73618152Y-78906819D01*
X73632248Y-78892723D01*
X73634176Y-78889912D01*
X73636353Y-78887293D01*
X73636485Y-78887403D01*
X73639039Y-78884227D01*
X73653754Y-78868364D01*
X73653755Y-78868363D01*
X73658401Y-78863354D01*
X73663696Y-78850081D01*
X73671405Y-78835644D01*
X73673299Y-78832884D01*
X73679493Y-78823854D01*
X73686067Y-78796152D01*
X73689335Y-78785819D01*
X73697947Y-78764231D01*
X73697947Y-78764230D01*
X73699883Y-78759378D01*
X73700500Y-78753085D01*
X73700500Y-78743992D01*
X73702500Y-78726906D01*
X73703762Y-78721586D01*
X73703762Y-78721583D01*
X73705340Y-78714934D01*
X73701176Y-78684337D01*
X73700500Y-78674358D01*
X73700500Y-77030061D01*
X73713303Y-76994887D01*
X73701897Y-76976016D01*
X73700500Y-76961706D01*
X73700500Y-74354572D01*
X73700902Y-74349096D01*
X73702426Y-74344658D01*
X73700552Y-74294744D01*
X73700500Y-74291968D01*
X73700500Y-74272052D01*
X73699875Y-74268695D01*
X73699562Y-74265307D01*
X73699750Y-74265290D01*
X73699294Y-74261242D01*
X73699094Y-74255912D01*
X73698226Y-74232792D01*
X73695529Y-74226514D01*
X73694027Y-74219849D01*
X73696084Y-74219385D01*
X73692503Y-74189582D01*
X73705021Y-74115177D01*
X73705496Y-74112354D01*
X73705647Y-74100000D01*
X73698983Y-74053469D01*
X73686070Y-73963297D01*
X73686070Y-73963296D01*
X73685323Y-73958082D01*
X73625984Y-73827572D01*
X73532400Y-73718963D01*
X73527973Y-73716093D01*
X73525854Y-73714245D01*
X73501391Y-73669930D01*
X73500500Y-73658481D01*
X73500500Y-71941489D01*
X73517813Y-71893923D01*
X73522273Y-71889486D01*
X73522991Y-71889045D01*
X73619200Y-71782754D01*
X73681710Y-71653733D01*
X73705496Y-71512354D01*
X73705647Y-71500000D01*
X73696742Y-71437815D01*
X73686070Y-71363297D01*
X73686070Y-71363296D01*
X73685323Y-71358082D01*
X73625984Y-71227572D01*
X73564649Y-71156390D01*
X73535840Y-71122955D01*
X73535839Y-71122954D01*
X73532400Y-71118963D01*
X73527981Y-71116099D01*
X73527979Y-71116097D01*
X73479955Y-71084970D01*
X73412095Y-71040985D01*
X73298881Y-71007127D01*
X73279792Y-71001418D01*
X73279791Y-71001418D01*
X73274739Y-70999907D01*
X73201103Y-70999457D01*
X73136646Y-70999063D01*
X73136645Y-70999063D01*
X73131376Y-70999031D01*
X72993529Y-71038428D01*
X72989069Y-71041242D01*
X72948552Y-71066806D01*
X72899086Y-71077546D01*
X72854289Y-71053977D01*
X72835122Y-71007127D01*
X72850554Y-70958918D01*
X72854202Y-70954563D01*
X72866657Y-70940803D01*
X72919200Y-70882754D01*
X72981710Y-70753733D01*
X73005496Y-70612354D01*
X73005647Y-70600000D01*
X72998344Y-70549005D01*
X72986070Y-70463297D01*
X72986070Y-70463296D01*
X72985323Y-70458082D01*
X72961211Y-70405049D01*
X72928166Y-70332371D01*
X72925984Y-70327572D01*
X72865216Y-70257048D01*
X72835840Y-70222955D01*
X72835839Y-70222954D01*
X72832400Y-70218963D01*
X72827981Y-70216099D01*
X72827979Y-70216097D01*
X72774631Y-70181519D01*
X72712095Y-70140985D01*
X72608168Y-70109904D01*
X72579792Y-70101418D01*
X72579791Y-70101418D01*
X72574739Y-70099907D01*
X72501103Y-70099457D01*
X72436646Y-70099063D01*
X72436645Y-70099063D01*
X72431376Y-70099031D01*
X72293529Y-70138428D01*
X72172280Y-70214930D01*
X72139744Y-70251770D01*
X72083964Y-70314930D01*
X72077377Y-70322388D01*
X72016447Y-70452163D01*
X72015637Y-70457368D01*
X72015636Y-70457370D01*
X72011406Y-70484541D01*
X71994391Y-70593823D01*
X71995074Y-70599046D01*
X71995074Y-70599049D01*
X71998750Y-70627157D01*
X72012980Y-70735979D01*
X72070720Y-70867203D01*
X72079469Y-70877611D01*
X72159580Y-70972916D01*
X72159583Y-70972919D01*
X72162970Y-70976948D01*
X72167356Y-70979867D01*
X72171287Y-70983382D01*
X72170311Y-70984473D01*
X72196507Y-71020068D01*
X72199500Y-71040901D01*
X72199500Y-72958553D01*
X72182187Y-73006119D01*
X72175379Y-73012975D01*
X72172280Y-73014930D01*
X72129255Y-73063647D01*
X72086239Y-73112354D01*
X72077377Y-73122388D01*
X72016447Y-73252163D01*
X71994391Y-73393823D01*
X71995074Y-73399046D01*
X71995074Y-73399049D01*
X71999704Y-73434453D01*
X71988705Y-73483863D01*
X71978655Y-73496374D01*
X71701099Y-73773930D01*
X71696946Y-73777515D01*
X71692731Y-73779575D01*
X71658774Y-73816181D01*
X71656848Y-73818181D01*
X71642752Y-73832277D01*
X71640824Y-73835088D01*
X71638647Y-73837707D01*
X71638515Y-73837597D01*
X71635961Y-73840773D01*
X71616599Y-73861646D01*
X71614069Y-73867988D01*
X71614065Y-73867994D01*
X71611301Y-73874923D01*
X71603593Y-73889359D01*
X71599376Y-73895507D01*
X71595508Y-73901146D01*
X71593930Y-73907796D01*
X71593929Y-73907798D01*
X71588936Y-73928840D01*
X71585668Y-73939176D01*
X71575117Y-73965622D01*
X71574500Y-73971915D01*
X71574500Y-73981012D01*
X71572500Y-73998098D01*
X71569660Y-74010066D01*
X71570582Y-74016839D01*
X71573824Y-74040663D01*
X71574500Y-74050642D01*
X71574500Y-76775500D01*
X71557187Y-76823066D01*
X71513350Y-76848376D01*
X71500500Y-76849500D01*
X71005252Y-76849500D01*
X71001683Y-76850210D01*
X71001682Y-76850210D01*
X71001366Y-76850273D01*
X71001240Y-76850254D01*
X70998069Y-76850566D01*
X70997989Y-76849753D01*
X70951336Y-76842573D01*
X70917961Y-76804516D01*
X70916856Y-76753909D01*
X70934603Y-76725369D01*
X71073905Y-76586067D01*
X71078054Y-76582485D01*
X71082269Y-76580425D01*
X71116214Y-76543832D01*
X71118139Y-76541833D01*
X71132248Y-76527724D01*
X71134174Y-76524916D01*
X71136356Y-76522290D01*
X71136495Y-76522406D01*
X71139042Y-76519224D01*
X71153752Y-76503366D01*
X71153753Y-76503365D01*
X71158401Y-76498354D01*
X71163698Y-76485077D01*
X71171406Y-76470641D01*
X71175625Y-76464491D01*
X71179492Y-76458854D01*
X71186064Y-76431160D01*
X71189332Y-76420824D01*
X71197949Y-76399225D01*
X71199883Y-76394378D01*
X71200500Y-76388085D01*
X71200500Y-76378988D01*
X71202500Y-76361901D01*
X71203762Y-76356585D01*
X71203762Y-76356583D01*
X71205340Y-76349934D01*
X71201176Y-76319337D01*
X71200500Y-76309358D01*
X71200500Y-73241489D01*
X71217813Y-73193923D01*
X71222273Y-73189486D01*
X71222991Y-73189045D01*
X71319200Y-73082754D01*
X71381710Y-72953733D01*
X71405496Y-72812354D01*
X71405647Y-72800000D01*
X71393464Y-72714930D01*
X71386070Y-72663297D01*
X71386070Y-72663296D01*
X71385323Y-72658082D01*
X71358483Y-72599049D01*
X71328166Y-72532371D01*
X71325984Y-72527572D01*
X71232400Y-72418963D01*
X71227981Y-72416099D01*
X71227979Y-72416097D01*
X71150404Y-72365816D01*
X71112095Y-72340985D01*
X70986650Y-72303469D01*
X70979792Y-72301418D01*
X70979791Y-72301418D01*
X70974739Y-72299907D01*
X70901103Y-72299457D01*
X70836646Y-72299063D01*
X70836645Y-72299063D01*
X70831376Y-72299031D01*
X70693529Y-72338428D01*
X70689069Y-72341242D01*
X70674580Y-72350384D01*
X70572280Y-72414930D01*
X70528772Y-72464194D01*
X70496708Y-72500500D01*
X70477377Y-72522388D01*
X70416447Y-72652163D01*
X70394391Y-72793823D01*
X70395074Y-72799046D01*
X70395074Y-72799049D01*
X70402412Y-72855164D01*
X70412980Y-72935979D01*
X70470720Y-73067203D01*
X70489046Y-73089005D01*
X70559580Y-73172916D01*
X70559583Y-73172919D01*
X70562970Y-73176948D01*
X70567356Y-73179867D01*
X70571287Y-73183382D01*
X70570311Y-73184473D01*
X70596507Y-73220068D01*
X70599500Y-73240901D01*
X70599500Y-76179877D01*
X70582187Y-76227443D01*
X70577826Y-76232203D01*
X69873326Y-76936703D01*
X69827450Y-76958095D01*
X69785806Y-76949472D01*
X69744055Y-76926897D01*
X69740605Y-76925829D01*
X69740600Y-76925827D01*
X69605903Y-76884132D01*
X69547254Y-76865977D01*
X69342369Y-76844443D01*
X69338765Y-76844771D01*
X69338764Y-76844771D01*
X69257538Y-76852163D01*
X69137203Y-76863114D01*
X69088247Y-76877522D01*
X68943043Y-76920258D01*
X68943039Y-76920260D01*
X68939572Y-76921280D01*
X68864079Y-76960747D01*
X68760209Y-77015049D01*
X68760206Y-77015051D01*
X68757002Y-77016726D01*
X68754184Y-77018992D01*
X68754182Y-77018993D01*
X68599266Y-77143548D01*
X68599263Y-77143551D01*
X68596447Y-77145815D01*
X68594121Y-77148587D01*
X68594119Y-77148589D01*
X68466351Y-77300856D01*
X68466348Y-77300860D01*
X68464024Y-77303630D01*
X68364776Y-77484162D01*
X68363682Y-77487611D01*
X68303850Y-77676226D01*
X68302484Y-77680532D01*
X68302081Y-77684123D01*
X68302081Y-77684124D01*
X68300614Y-77697203D01*
X68279520Y-77885262D01*
X68279823Y-77888871D01*
X68279823Y-77888873D01*
X68289901Y-78008882D01*
X68296759Y-78090553D01*
X68353544Y-78288586D01*
X68355196Y-78291800D01*
X68355197Y-78291803D01*
X68437505Y-78451957D01*
X68447712Y-78471818D01*
X68575677Y-78633270D01*
X68578430Y-78635613D01*
X68578433Y-78635616D01*
X68609062Y-78661683D01*
X68732564Y-78766791D01*
X68779266Y-78792892D01*
X68909239Y-78865532D01*
X68909243Y-78865534D01*
X68912398Y-78867297D01*
X68915834Y-78868414D01*
X68915840Y-78868416D01*
X69034034Y-78906819D01*
X69108329Y-78930959D01*
X69145331Y-78935371D01*
X69309294Y-78954922D01*
X69309297Y-78954922D01*
X69312894Y-78955351D01*
X69408053Y-78948029D01*
X69514689Y-78939824D01*
X69514691Y-78939824D01*
X69518300Y-78939546D01*
X69664573Y-78898706D01*
X69713244Y-78885117D01*
X69713245Y-78885117D01*
X69716725Y-78884145D01*
X69720601Y-78882187D01*
X69897376Y-78792892D01*
X69897379Y-78792890D01*
X69900610Y-78791258D01*
X70062951Y-78664424D01*
X70083706Y-78640379D01*
X70195201Y-78511210D01*
X70195203Y-78511208D01*
X70197564Y-78508472D01*
X70199347Y-78505333D01*
X70199350Y-78505329D01*
X70292192Y-78341896D01*
X70299323Y-78329344D01*
X70309085Y-78300000D01*
X70363208Y-78137299D01*
X70364351Y-78133863D01*
X70365872Y-78121827D01*
X70389913Y-77931519D01*
X70389913Y-77931513D01*
X70390171Y-77929474D01*
X70390583Y-77900000D01*
X70390372Y-77897840D01*
X70370833Y-77698570D01*
X70370480Y-77694970D01*
X70310935Y-77497749D01*
X70302026Y-77480994D01*
X70285019Y-77449006D01*
X70277974Y-77398880D01*
X70298031Y-77361940D01*
X70668003Y-76991968D01*
X70700370Y-76959602D01*
X70746245Y-76938210D01*
X70795140Y-76951311D01*
X70824174Y-76992775D01*
X70825165Y-77023029D01*
X70825566Y-77023069D01*
X70825266Y-77026116D01*
X70825274Y-77026361D01*
X70824500Y-77030252D01*
X70824500Y-78769748D01*
X70825210Y-78773317D01*
X70825210Y-78773318D01*
X70832718Y-78811063D01*
X70825018Y-78861093D01*
X70786960Y-78894469D01*
X70760140Y-78899500D01*
X70629567Y-78899500D01*
X70624094Y-78899098D01*
X70619658Y-78897575D01*
X70612834Y-78897831D01*
X70612833Y-78897831D01*
X70569759Y-78899448D01*
X70566983Y-78899500D01*
X70547052Y-78899500D01*
X70543700Y-78900124D01*
X70540309Y-78900437D01*
X70540291Y-78900247D01*
X70536245Y-78900706D01*
X70507792Y-78901774D01*
X70501515Y-78904471D01*
X70501510Y-78904472D01*
X70494657Y-78907416D01*
X70478998Y-78912174D01*
X70464947Y-78914791D01*
X70459132Y-78918376D01*
X70459128Y-78918377D01*
X70440710Y-78929730D01*
X70431093Y-78934726D01*
X70409738Y-78943901D01*
X70409736Y-78943902D01*
X70404937Y-78945964D01*
X70400051Y-78949978D01*
X70393620Y-78956409D01*
X70380125Y-78967076D01*
X70369652Y-78973532D01*
X70365516Y-78978971D01*
X70350961Y-78998112D01*
X70344383Y-79005646D01*
X69873326Y-79476703D01*
X69827450Y-79498095D01*
X69785806Y-79489472D01*
X69744055Y-79466897D01*
X69740605Y-79465829D01*
X69740600Y-79465827D01*
X69583429Y-79417175D01*
X69547254Y-79405977D01*
X69342369Y-79384443D01*
X69338765Y-79384771D01*
X69338764Y-79384771D01*
X69338215Y-79384821D01*
X69137203Y-79403114D01*
X69089428Y-79417175D01*
X68943043Y-79460258D01*
X68943039Y-79460260D01*
X68939572Y-79461280D01*
X68855674Y-79505141D01*
X68760209Y-79555049D01*
X68760206Y-79555051D01*
X68757002Y-79556726D01*
X68754184Y-79558992D01*
X68754182Y-79558993D01*
X68599266Y-79683548D01*
X68599263Y-79683551D01*
X68596447Y-79685815D01*
X68594121Y-79688587D01*
X68594119Y-79688589D01*
X68466351Y-79840856D01*
X68466348Y-79840860D01*
X68464024Y-79843630D01*
X68364776Y-80024162D01*
X68356580Y-80050000D01*
X68333830Y-80121718D01*
X68302484Y-80220532D01*
X68302081Y-80224123D01*
X68302081Y-80224124D01*
X68300461Y-80238570D01*
X68279520Y-80425262D01*
X68279823Y-80428871D01*
X68279823Y-80428873D01*
X68292172Y-80575925D01*
X68296759Y-80630553D01*
X68353544Y-80828586D01*
X68355196Y-80831800D01*
X68355197Y-80831803D01*
X68440734Y-80998241D01*
X68447712Y-81011818D01*
X68575677Y-81173270D01*
X68578430Y-81175613D01*
X68578433Y-81175616D01*
X68609062Y-81201683D01*
X68732564Y-81306791D01*
X68778508Y-81332468D01*
X68909239Y-81405532D01*
X68909243Y-81405534D01*
X68912398Y-81407297D01*
X68915834Y-81408414D01*
X68915840Y-81408416D01*
X69026758Y-81444455D01*
X69108329Y-81470959D01*
X69168033Y-81478078D01*
X69309294Y-81494922D01*
X69309297Y-81494922D01*
X69312894Y-81495351D01*
X69381714Y-81490056D01*
X69514689Y-81479824D01*
X69514691Y-81479824D01*
X69518300Y-81479546D01*
X69667009Y-81438026D01*
X69713244Y-81425117D01*
X69713245Y-81425117D01*
X69716725Y-81424145D01*
X69748776Y-81407955D01*
X69897376Y-81332892D01*
X69897379Y-81332890D01*
X69900610Y-81331258D01*
X70062951Y-81204424D01*
X70087817Y-81175616D01*
X70195201Y-81051210D01*
X70195203Y-81051208D01*
X70197564Y-81048472D01*
X70199347Y-81045333D01*
X70199350Y-81045329D01*
X70297065Y-80873318D01*
X70299323Y-80869344D01*
X70311812Y-80831803D01*
X70363208Y-80677299D01*
X70364351Y-80673863D01*
X70364820Y-80670155D01*
X70389913Y-80471519D01*
X70389913Y-80471513D01*
X70390171Y-80469474D01*
X70390583Y-80440000D01*
X70386108Y-80394354D01*
X70370833Y-80238570D01*
X70370480Y-80234970D01*
X70310935Y-80037749D01*
X70296218Y-80010070D01*
X70285019Y-79989006D01*
X70277974Y-79938880D01*
X70298031Y-79901940D01*
X70677797Y-79522174D01*
X70723673Y-79500782D01*
X70730123Y-79500500D01*
X71156798Y-79500500D01*
X71204364Y-79517813D01*
X71229674Y-79561650D01*
X71220884Y-79611500D01*
X71203167Y-79632171D01*
X71139266Y-79683548D01*
X71139263Y-79683551D01*
X71136447Y-79685815D01*
X71134121Y-79688587D01*
X71134119Y-79688589D01*
X71006351Y-79840856D01*
X71006348Y-79840860D01*
X71004024Y-79843630D01*
X70904776Y-80024162D01*
X70896580Y-80050000D01*
X70873830Y-80121718D01*
X70842484Y-80220532D01*
X70842081Y-80224123D01*
X70842081Y-80224124D01*
X70840461Y-80238570D01*
X70819520Y-80425262D01*
X70819823Y-80428871D01*
X70819823Y-80428873D01*
X70832172Y-80575925D01*
X70836759Y-80630553D01*
X70893544Y-80828586D01*
X70895196Y-80831800D01*
X70895197Y-80831803D01*
X70980734Y-80998241D01*
X70987712Y-81011818D01*
X71115677Y-81173270D01*
X71118430Y-81175613D01*
X71118433Y-81175616D01*
X71149062Y-81201683D01*
X71272564Y-81306791D01*
X71318508Y-81332468D01*
X71449239Y-81405532D01*
X71449243Y-81405534D01*
X71452398Y-81407297D01*
X71455834Y-81408414D01*
X71455840Y-81408416D01*
X71566758Y-81444455D01*
X71648329Y-81470959D01*
X71708033Y-81478078D01*
X71849294Y-81494922D01*
X71849297Y-81494922D01*
X71852894Y-81495351D01*
X71921714Y-81490056D01*
X72054689Y-81479824D01*
X72054691Y-81479824D01*
X72058300Y-81479546D01*
X72207009Y-81438026D01*
X72253244Y-81425117D01*
X72253245Y-81425117D01*
X72256725Y-81424145D01*
X72288776Y-81407955D01*
X72437376Y-81332892D01*
X72437379Y-81332890D01*
X72440610Y-81331258D01*
X72602951Y-81204424D01*
X72627817Y-81175616D01*
X72735201Y-81051210D01*
X72735203Y-81051208D01*
X72737564Y-81048472D01*
X72739347Y-81045333D01*
X72739350Y-81045329D01*
X72837065Y-80873318D01*
X72839093Y-80869748D01*
X113949500Y-80869748D01*
X113961133Y-80928231D01*
X113965184Y-80934293D01*
X113965184Y-80934294D01*
X114001158Y-80988132D01*
X114005448Y-80994552D01*
X114011509Y-80998602D01*
X114027948Y-81009586D01*
X114071769Y-81038867D01*
X114104256Y-81045329D01*
X114126682Y-81049790D01*
X114126683Y-81049790D01*
X114130252Y-81050500D01*
X115869748Y-81050500D01*
X115873317Y-81049790D01*
X115873318Y-81049790D01*
X115895744Y-81045329D01*
X115928231Y-81038867D01*
X115972053Y-81009586D01*
X115988491Y-80998602D01*
X115994552Y-80994552D01*
X115998842Y-80988132D01*
X116034816Y-80934294D01*
X116034816Y-80934293D01*
X116038867Y-80928231D01*
X116050500Y-80869748D01*
X116050500Y-79707843D01*
X119600000Y-79707843D01*
X119600393Y-79713212D01*
X119610013Y-79778564D01*
X119613382Y-79789408D01*
X119663176Y-79890826D01*
X119670199Y-79900634D01*
X119749899Y-79980196D01*
X119759717Y-79987199D01*
X119861226Y-80036818D01*
X119872070Y-80040169D01*
X119936805Y-80049613D01*
X119942139Y-80050000D01*
X120009952Y-80050000D01*
X120019948Y-80046362D01*
X120023000Y-80041075D01*
X120023000Y-79090048D01*
X120019362Y-79080052D01*
X120014075Y-79077000D01*
X119613048Y-79077000D01*
X119603052Y-79080638D01*
X119600000Y-79085925D01*
X119600000Y-79707843D01*
X116050500Y-79707843D01*
X116050500Y-79130252D01*
X116038867Y-79071769D01*
X116029722Y-79058082D01*
X115998602Y-79011509D01*
X115994552Y-79005448D01*
X115928231Y-78961133D01*
X115877641Y-78951070D01*
X115873318Y-78950210D01*
X115873317Y-78950210D01*
X115869748Y-78949500D01*
X114130252Y-78949500D01*
X114126683Y-78950210D01*
X114126682Y-78950210D01*
X114122359Y-78951070D01*
X114071769Y-78961133D01*
X114005448Y-79005448D01*
X114001398Y-79011509D01*
X113970279Y-79058082D01*
X113961133Y-79071769D01*
X113949500Y-79130252D01*
X113949500Y-80869748D01*
X72839093Y-80869748D01*
X72839323Y-80869344D01*
X72846303Y-80848362D01*
X72903208Y-80677300D01*
X72903209Y-80677297D01*
X72904351Y-80673863D01*
X72918076Y-80565222D01*
X72941212Y-80520204D01*
X72991491Y-80500500D01*
X90945433Y-80500500D01*
X90950906Y-80500902D01*
X90955342Y-80502425D01*
X90962166Y-80502169D01*
X90962167Y-80502169D01*
X91005241Y-80500552D01*
X91008017Y-80500500D01*
X91027948Y-80500500D01*
X91031300Y-80499876D01*
X91034691Y-80499563D01*
X91034709Y-80499753D01*
X91038755Y-80499294D01*
X91067208Y-80498226D01*
X91073485Y-80495529D01*
X91073490Y-80495528D01*
X91080343Y-80492584D01*
X91096002Y-80487826D01*
X91103336Y-80486460D01*
X91110053Y-80485209D01*
X91115868Y-80481624D01*
X91115872Y-80481623D01*
X91134290Y-80470270D01*
X91143907Y-80465274D01*
X91165262Y-80456099D01*
X91165264Y-80456098D01*
X91170063Y-80454036D01*
X91174949Y-80450022D01*
X91181380Y-80443591D01*
X91194876Y-80432923D01*
X91199532Y-80430053D01*
X91205348Y-80426468D01*
X91224039Y-80401888D01*
X91230617Y-80394354D01*
X92714508Y-78910463D01*
X92760384Y-78889071D01*
X92776492Y-78889422D01*
X92900000Y-78905682D01*
X92904808Y-78905049D01*
X93051957Y-78885677D01*
X93051960Y-78885676D01*
X93056762Y-78885044D01*
X93202841Y-78824536D01*
X93206685Y-78821586D01*
X93206689Y-78821584D01*
X93324431Y-78731237D01*
X93328282Y-78728282D01*
X93343720Y-78708163D01*
X93421584Y-78606689D01*
X93421586Y-78606685D01*
X93424536Y-78602841D01*
X93485044Y-78456762D01*
X93505682Y-78300000D01*
X93494950Y-78218481D01*
X93485677Y-78148043D01*
X93485676Y-78148040D01*
X93485044Y-78143238D01*
X93474772Y-78118440D01*
X94994770Y-78118440D01*
X95009200Y-78338604D01*
X95063511Y-78552452D01*
X95064927Y-78555524D01*
X95064929Y-78555529D01*
X95115131Y-78664424D01*
X95155883Y-78752821D01*
X95157835Y-78755583D01*
X95280987Y-78929839D01*
X95283222Y-78933002D01*
X95285649Y-78935366D01*
X95285653Y-78935371D01*
X95425669Y-79071769D01*
X95441264Y-79086961D01*
X95624717Y-79209540D01*
X95627831Y-79210878D01*
X95627833Y-79210879D01*
X95637837Y-79215177D01*
X95827436Y-79296635D01*
X96042632Y-79345329D01*
X96147165Y-79349436D01*
X96259703Y-79353858D01*
X96259707Y-79353858D01*
X96263098Y-79353991D01*
X96481452Y-79322331D01*
X96690379Y-79251410D01*
X96882884Y-79143602D01*
X96885489Y-79141435D01*
X96885494Y-79141432D01*
X97049910Y-79004687D01*
X97052518Y-79002518D01*
X97087729Y-78960182D01*
X97191432Y-78835494D01*
X97191435Y-78835489D01*
X97193602Y-78832884D01*
X97206445Y-78809952D01*
X119600000Y-78809952D01*
X119603638Y-78819948D01*
X119608925Y-78823000D01*
X120009952Y-78823000D01*
X120019948Y-78819362D01*
X120023000Y-78814075D01*
X120023000Y-77863048D01*
X120019362Y-77853052D01*
X120014075Y-77850000D01*
X119942157Y-77850000D01*
X119936788Y-77850393D01*
X119871436Y-77860013D01*
X119860592Y-77863382D01*
X119759174Y-77913176D01*
X119749366Y-77920199D01*
X119669804Y-77999899D01*
X119662801Y-78009717D01*
X119613182Y-78111226D01*
X119609831Y-78122070D01*
X119600387Y-78186805D01*
X119600000Y-78192139D01*
X119600000Y-78809952D01*
X97206445Y-78809952D01*
X97301410Y-78640379D01*
X97372331Y-78431452D01*
X97401152Y-78232675D01*
X97403678Y-78215257D01*
X97403678Y-78215256D01*
X97403991Y-78213098D01*
X97405643Y-78150000D01*
X97402743Y-78118440D01*
X97385765Y-77933668D01*
X97385764Y-77933663D01*
X97385454Y-77930289D01*
X97383640Y-77923854D01*
X97337734Y-77761084D01*
X97325565Y-77717936D01*
X97227980Y-77520053D01*
X97218993Y-77508017D01*
X97097999Y-77345988D01*
X97097998Y-77345987D01*
X97095967Y-77343267D01*
X96977797Y-77234032D01*
X96936445Y-77195806D01*
X96936443Y-77195805D01*
X96933949Y-77193499D01*
X96858374Y-77145815D01*
X96750219Y-77077574D01*
X96750217Y-77077573D01*
X96747350Y-77075764D01*
X96744203Y-77074508D01*
X96744200Y-77074507D01*
X96545575Y-76995264D01*
X96545572Y-76995263D01*
X96542421Y-76994006D01*
X96539094Y-76993344D01*
X96539090Y-76993343D01*
X96329348Y-76951623D01*
X96329346Y-76951623D01*
X96326024Y-76950962D01*
X96228949Y-76949691D01*
X96108799Y-76948118D01*
X96108794Y-76948118D01*
X96105406Y-76948074D01*
X96102060Y-76948649D01*
X96102059Y-76948649D01*
X96047086Y-76958095D01*
X95887957Y-76985438D01*
X95680957Y-77061804D01*
X95491341Y-77174614D01*
X95488797Y-77176845D01*
X95488793Y-77176848D01*
X95397854Y-77256600D01*
X95325457Y-77320090D01*
X95323360Y-77322749D01*
X95323359Y-77322751D01*
X95218008Y-77456390D01*
X95188863Y-77493360D01*
X95086131Y-77688620D01*
X95085125Y-77691859D01*
X95085124Y-77691862D01*
X95033109Y-77859378D01*
X95020703Y-77899333D01*
X95006378Y-78020363D01*
X94995717Y-78110443D01*
X94994770Y-78118440D01*
X93474772Y-78118440D01*
X93424536Y-77997159D01*
X93421586Y-77993315D01*
X93421584Y-77993311D01*
X93347037Y-77896160D01*
X93328282Y-77871718D01*
X93324434Y-77868766D01*
X93322172Y-77866503D01*
X93300781Y-77820626D01*
X93300500Y-77814179D01*
X93300500Y-76504792D01*
X111582577Y-76504792D01*
X111586949Y-76556854D01*
X111588250Y-76563942D01*
X111643013Y-76754922D01*
X111645663Y-76761617D01*
X111736479Y-76938326D01*
X111740384Y-76944384D01*
X111863789Y-77100083D01*
X111868794Y-77105267D01*
X112020094Y-77234032D01*
X112026013Y-77238146D01*
X112199440Y-77335072D01*
X112206041Y-77337955D01*
X112394991Y-77399348D01*
X112402036Y-77400897D01*
X112485043Y-77410796D01*
X112495399Y-77408367D01*
X112498000Y-77404891D01*
X112498000Y-77400329D01*
X112752000Y-77400329D01*
X112755638Y-77410325D01*
X112759875Y-77412771D01*
X112804603Y-77409330D01*
X112811701Y-77408078D01*
X113003062Y-77354649D01*
X113009770Y-77352047D01*
X113187107Y-77262468D01*
X113193195Y-77258604D01*
X113349751Y-77136289D01*
X113354970Y-77131319D01*
X113484791Y-76980920D01*
X113488939Y-76975040D01*
X113587078Y-76802283D01*
X113590006Y-76795708D01*
X113652719Y-76607189D01*
X113654316Y-76600155D01*
X113665713Y-76509946D01*
X113663356Y-76499573D01*
X113659966Y-76497000D01*
X112765048Y-76497000D01*
X112755052Y-76500638D01*
X112752000Y-76505925D01*
X112752000Y-77400329D01*
X112498000Y-77400329D01*
X112498000Y-76510048D01*
X112494362Y-76500052D01*
X112489075Y-76497000D01*
X111594971Y-76497000D01*
X111584975Y-76500638D01*
X111582577Y-76504792D01*
X93300500Y-76504792D01*
X93300500Y-76230034D01*
X111584069Y-76230034D01*
X111586571Y-76240372D01*
X111590136Y-76243000D01*
X112484952Y-76243000D01*
X112494948Y-76239362D01*
X112498000Y-76234075D01*
X112498000Y-76229952D01*
X112752000Y-76229952D01*
X112755638Y-76239948D01*
X112760925Y-76243000D01*
X113654580Y-76243000D01*
X113664576Y-76239362D01*
X113666880Y-76235371D01*
X113660340Y-76168669D01*
X113658941Y-76161602D01*
X113601516Y-75971403D01*
X113598772Y-75964745D01*
X113505498Y-75789322D01*
X113501512Y-75783323D01*
X113375942Y-75629358D01*
X113370866Y-75624247D01*
X113217789Y-75497610D01*
X113211804Y-75493573D01*
X113037043Y-75399081D01*
X113030405Y-75396290D01*
X112840612Y-75337540D01*
X112833552Y-75336091D01*
X112764977Y-75328883D01*
X112754657Y-75331456D01*
X112752000Y-75335113D01*
X112752000Y-76229952D01*
X112498000Y-76229952D01*
X112498000Y-75340221D01*
X112494362Y-75330225D01*
X112490290Y-75327875D01*
X112430912Y-75333278D01*
X112423818Y-75334631D01*
X112233231Y-75390724D01*
X112226555Y-75393422D01*
X112050483Y-75485469D01*
X112044456Y-75489413D01*
X111889619Y-75613906D01*
X111884471Y-75618947D01*
X111756765Y-75771140D01*
X111752696Y-75777083D01*
X111656980Y-75951191D01*
X111654144Y-75957808D01*
X111594071Y-76147181D01*
X111592571Y-76154237D01*
X111584069Y-76230034D01*
X93300500Y-76230034D01*
X93300500Y-73593823D01*
X107144391Y-73593823D01*
X107145074Y-73599046D01*
X107145074Y-73599049D01*
X107147183Y-73615177D01*
X107162980Y-73735979D01*
X107220720Y-73867203D01*
X107229804Y-73878010D01*
X107309580Y-73972916D01*
X107309583Y-73972919D01*
X107312970Y-73976948D01*
X107335288Y-73991804D01*
X107427924Y-74053469D01*
X107427927Y-74053470D01*
X107432313Y-74056390D01*
X107569157Y-74099142D01*
X107574425Y-74099239D01*
X107574428Y-74099239D01*
X107634733Y-74100344D01*
X107712499Y-74101770D01*
X107717582Y-74100384D01*
X107717584Y-74100384D01*
X107845727Y-74065448D01*
X107845729Y-74065447D01*
X107850817Y-74064060D01*
X107972991Y-73989045D01*
X108069200Y-73882754D01*
X108101900Y-73815262D01*
X111569520Y-73815262D01*
X111569823Y-73818871D01*
X111569823Y-73818873D01*
X111583439Y-73981012D01*
X111586759Y-74020553D01*
X111643544Y-74218586D01*
X111645196Y-74221800D01*
X111645197Y-74221803D01*
X111725439Y-74377937D01*
X111737712Y-74401818D01*
X111865677Y-74563270D01*
X111868430Y-74565613D01*
X111868433Y-74565616D01*
X111933681Y-74621146D01*
X112022564Y-74696791D01*
X112029165Y-74700480D01*
X112199239Y-74795532D01*
X112199243Y-74795534D01*
X112202398Y-74797297D01*
X112205834Y-74798414D01*
X112205840Y-74798416D01*
X112330256Y-74838841D01*
X112398329Y-74860959D01*
X112462176Y-74868572D01*
X112599294Y-74884922D01*
X112599297Y-74884922D01*
X112602894Y-74885351D01*
X112671714Y-74880056D01*
X112804689Y-74869824D01*
X112804691Y-74869824D01*
X112808300Y-74869546D01*
X113006725Y-74814145D01*
X113076808Y-74778744D01*
X113127070Y-74772750D01*
X113162498Y-74792469D01*
X114193930Y-75823901D01*
X114197515Y-75828054D01*
X114199575Y-75832269D01*
X114208775Y-75840803D01*
X114236181Y-75866226D01*
X114238181Y-75868152D01*
X114252277Y-75882248D01*
X114255088Y-75884176D01*
X114257707Y-75886353D01*
X114257597Y-75886485D01*
X114260773Y-75889039D01*
X114281646Y-75908401D01*
X114294919Y-75913696D01*
X114309355Y-75921404D01*
X114321146Y-75929493D01*
X114343248Y-75934738D01*
X114348848Y-75936067D01*
X114359181Y-75939335D01*
X114380769Y-75947947D01*
X114385622Y-75949883D01*
X114391915Y-75950500D01*
X114401008Y-75950500D01*
X114418094Y-75952500D01*
X114423414Y-75953762D01*
X114423417Y-75953762D01*
X114430066Y-75955340D01*
X114436834Y-75954419D01*
X114436837Y-75954419D01*
X114460663Y-75951176D01*
X114470642Y-75950500D01*
X118844877Y-75950500D01*
X118892443Y-75967813D01*
X118897203Y-75972174D01*
X120776993Y-77851964D01*
X120798385Y-77897840D01*
X120785284Y-77946735D01*
X120776997Y-77956611D01*
X120734347Y-77999261D01*
X120688471Y-78020652D01*
X120639577Y-78007551D01*
X120629742Y-77999305D01*
X120550105Y-77919806D01*
X120540283Y-77912801D01*
X120438774Y-77863182D01*
X120427930Y-77859831D01*
X120363195Y-77850387D01*
X120357861Y-77850000D01*
X120290048Y-77850000D01*
X120280052Y-77853638D01*
X120277000Y-77858925D01*
X120277000Y-80036952D01*
X120280638Y-80046948D01*
X120285925Y-80050000D01*
X120357843Y-80050000D01*
X120363212Y-80049607D01*
X120428564Y-80039987D01*
X120439408Y-80036618D01*
X120540826Y-79986824D01*
X120550638Y-79979799D01*
X120629582Y-79900717D01*
X120675439Y-79879284D01*
X120724345Y-79892343D01*
X120734279Y-79900671D01*
X120811658Y-79978050D01*
X120816848Y-79980694D01*
X120816850Y-79980696D01*
X120919502Y-80033000D01*
X120919505Y-80033001D01*
X120924696Y-80035646D01*
X120930448Y-80036557D01*
X120930451Y-80036558D01*
X121015324Y-80050000D01*
X121018481Y-80050500D01*
X121250000Y-80050500D01*
X121481518Y-80050499D01*
X121484390Y-80050044D01*
X121484392Y-80050044D01*
X121516090Y-80045024D01*
X121575304Y-80035646D01*
X121670312Y-79987237D01*
X121683150Y-79980696D01*
X121683152Y-79980694D01*
X121688342Y-79978050D01*
X121747674Y-79918718D01*
X121793550Y-79897326D01*
X121842445Y-79910427D01*
X121852326Y-79918718D01*
X121911658Y-79978050D01*
X121916848Y-79980694D01*
X121916850Y-79980696D01*
X122019502Y-80033000D01*
X122019505Y-80033001D01*
X122024696Y-80035646D01*
X122030448Y-80036557D01*
X122030451Y-80036558D01*
X122115324Y-80050000D01*
X122118481Y-80050500D01*
X122350000Y-80050500D01*
X122581518Y-80050499D01*
X122584390Y-80050044D01*
X122584392Y-80050044D01*
X122616090Y-80045024D01*
X122675304Y-80035646D01*
X122770312Y-79987237D01*
X122783150Y-79980696D01*
X122783152Y-79980694D01*
X122788342Y-79978050D01*
X122847674Y-79918718D01*
X122893550Y-79897326D01*
X122942445Y-79910427D01*
X122952326Y-79918718D01*
X123011658Y-79978050D01*
X123016848Y-79980694D01*
X123016850Y-79980696D01*
X123119502Y-80033000D01*
X123119505Y-80033001D01*
X123124696Y-80035646D01*
X123130448Y-80036557D01*
X123130451Y-80036558D01*
X123215324Y-80050000D01*
X123218481Y-80050500D01*
X123450000Y-80050500D01*
X123681518Y-80050499D01*
X123684390Y-80050044D01*
X123684392Y-80050044D01*
X123716090Y-80045024D01*
X123775304Y-80035646D01*
X123870312Y-79987237D01*
X123883150Y-79980696D01*
X123883152Y-79980694D01*
X123888342Y-79978050D01*
X123947674Y-79918718D01*
X123993550Y-79897326D01*
X124042445Y-79910427D01*
X124052326Y-79918718D01*
X124111658Y-79978050D01*
X124116848Y-79980694D01*
X124116850Y-79980696D01*
X124219502Y-80033000D01*
X124219505Y-80033001D01*
X124224696Y-80035646D01*
X124230448Y-80036557D01*
X124230451Y-80036558D01*
X124315324Y-80050000D01*
X124318481Y-80050500D01*
X124550000Y-80050500D01*
X124781518Y-80050499D01*
X124784390Y-80050044D01*
X124784392Y-80050044D01*
X124816090Y-80045024D01*
X124875304Y-80035646D01*
X124970312Y-79987237D01*
X124983150Y-79980696D01*
X124983152Y-79980694D01*
X124988342Y-79978050D01*
X125047674Y-79918718D01*
X125093550Y-79897326D01*
X125142445Y-79910427D01*
X125152326Y-79918718D01*
X125211658Y-79978050D01*
X125216848Y-79980694D01*
X125216850Y-79980696D01*
X125319502Y-80033000D01*
X125319505Y-80033001D01*
X125324696Y-80035646D01*
X125330448Y-80036557D01*
X125330451Y-80036558D01*
X125415324Y-80050000D01*
X125418481Y-80050500D01*
X125650000Y-80050500D01*
X125881518Y-80050499D01*
X125884390Y-80050044D01*
X125884392Y-80050044D01*
X125916090Y-80045024D01*
X125975304Y-80035646D01*
X126070312Y-79987237D01*
X126083150Y-79980696D01*
X126083152Y-79980694D01*
X126088342Y-79978050D01*
X126147674Y-79918718D01*
X126193550Y-79897326D01*
X126242445Y-79910427D01*
X126252326Y-79918718D01*
X126311658Y-79978050D01*
X126316848Y-79980694D01*
X126316850Y-79980696D01*
X126419502Y-80033000D01*
X126419505Y-80033001D01*
X126424696Y-80035646D01*
X126430448Y-80036557D01*
X126430451Y-80036558D01*
X126515324Y-80050000D01*
X126518481Y-80050500D01*
X126750000Y-80050500D01*
X126981518Y-80050499D01*
X126984390Y-80050044D01*
X126984392Y-80050044D01*
X127016090Y-80045024D01*
X127075304Y-80035646D01*
X127170312Y-79987237D01*
X127183150Y-79980696D01*
X127183152Y-79980694D01*
X127188342Y-79978050D01*
X127247674Y-79918718D01*
X127293550Y-79897326D01*
X127342445Y-79910427D01*
X127352326Y-79918718D01*
X127411658Y-79978050D01*
X127416846Y-79980693D01*
X127416848Y-79980695D01*
X127425721Y-79985216D01*
X127460243Y-80022236D01*
X127462893Y-80072786D01*
X127437176Y-80109857D01*
X127421718Y-80121718D01*
X127418763Y-80125569D01*
X127328416Y-80243311D01*
X127328414Y-80243315D01*
X127325464Y-80247159D01*
X127264956Y-80393238D01*
X127264324Y-80398040D01*
X127264323Y-80398043D01*
X127250967Y-80499498D01*
X127244318Y-80550000D01*
X127244951Y-80554808D01*
X127261991Y-80684238D01*
X127264956Y-80706762D01*
X127325464Y-80852841D01*
X127328414Y-80856685D01*
X127328416Y-80856689D01*
X127387811Y-80934094D01*
X127421718Y-80978282D01*
X127425569Y-80981237D01*
X127543311Y-81071584D01*
X127543315Y-81071586D01*
X127547159Y-81074536D01*
X127693238Y-81135044D01*
X127698040Y-81135676D01*
X127698043Y-81135677D01*
X127845192Y-81155049D01*
X127850000Y-81155682D01*
X127854808Y-81155049D01*
X128001957Y-81135677D01*
X128001960Y-81135676D01*
X128006762Y-81135044D01*
X128152841Y-81074536D01*
X128156685Y-81071586D01*
X128156689Y-81071584D01*
X128274431Y-80981237D01*
X128278282Y-80978282D01*
X128312189Y-80934094D01*
X128371584Y-80856689D01*
X128371586Y-80856685D01*
X128374536Y-80852841D01*
X128435044Y-80706762D01*
X128438010Y-80684238D01*
X128455049Y-80554808D01*
X128455682Y-80550000D01*
X128449033Y-80499498D01*
X128435677Y-80398043D01*
X128435676Y-80398040D01*
X128435044Y-80393238D01*
X128374536Y-80247159D01*
X128371586Y-80243315D01*
X128371584Y-80243311D01*
X128281237Y-80125569D01*
X128278282Y-80121718D01*
X128262824Y-80109857D01*
X128235628Y-80067166D01*
X128242235Y-80016980D01*
X128274279Y-79985216D01*
X128283152Y-79980695D01*
X128283154Y-79980693D01*
X128288342Y-79978050D01*
X128365298Y-79901094D01*
X128411174Y-79879702D01*
X128460069Y-79892803D01*
X128469904Y-79901048D01*
X128507803Y-79938880D01*
X128553931Y-79984927D01*
X128619504Y-80016980D01*
X128661081Y-80037304D01*
X128661083Y-80037305D01*
X128666241Y-80039826D01*
X128671924Y-80040655D01*
X128735983Y-80050000D01*
X128739410Y-80050500D01*
X129160590Y-80050500D01*
X129166616Y-80049613D01*
X129169598Y-80049174D01*
X129234396Y-80039635D01*
X129346610Y-79984541D01*
X129434927Y-79896069D01*
X129472575Y-79819050D01*
X129487304Y-79788919D01*
X129487305Y-79788917D01*
X129489826Y-79783759D01*
X129500500Y-79710590D01*
X129500500Y-78189410D01*
X129489635Y-78115604D01*
X129434541Y-78003390D01*
X129346069Y-77915073D01*
X129268574Y-77877192D01*
X129238919Y-77862696D01*
X129238917Y-77862695D01*
X129233759Y-77860174D01*
X129172737Y-77851272D01*
X129163243Y-77849887D01*
X129160590Y-77849500D01*
X128739410Y-77849500D01*
X128736741Y-77849893D01*
X128736740Y-77849893D01*
X128733344Y-77850393D01*
X128665604Y-77860365D01*
X128553390Y-77915459D01*
X128470065Y-77998931D01*
X128424208Y-78020363D01*
X128375303Y-78007305D01*
X128365368Y-77998976D01*
X128288342Y-77921950D01*
X128240904Y-77897779D01*
X128206382Y-77860758D01*
X128200500Y-77831845D01*
X128200500Y-77145287D01*
X128202158Y-77129712D01*
X128203663Y-77122722D01*
X128203663Y-77122721D01*
X128204951Y-77116739D01*
X128201013Y-77083467D01*
X128200500Y-77074769D01*
X128200500Y-77070885D01*
X128198989Y-77061804D01*
X128197407Y-77052299D01*
X128196916Y-77048849D01*
X128191955Y-77006935D01*
X128191955Y-77006934D01*
X128191236Y-77000862D01*
X128188589Y-76995350D01*
X128188259Y-76994213D01*
X128188075Y-76993405D01*
X128187890Y-76992820D01*
X128187582Y-76992068D01*
X128187192Y-76990929D01*
X128186188Y-76984897D01*
X128173157Y-76960747D01*
X128163234Y-76942355D01*
X128161652Y-76939249D01*
X128142745Y-76899875D01*
X128142738Y-76899865D01*
X128140726Y-76895674D01*
X128137408Y-76891726D01*
X128136455Y-76890773D01*
X128133532Y-76887310D01*
X128130778Y-76882206D01*
X128093623Y-76847860D01*
X128091528Y-76845846D01*
X127038396Y-75792714D01*
X127033375Y-75787019D01*
X127030778Y-75782206D01*
X126993623Y-75747860D01*
X126991528Y-75745846D01*
X125938396Y-74692714D01*
X125933375Y-74687019D01*
X125930778Y-74682206D01*
X125893623Y-74647860D01*
X125891528Y-74645846D01*
X123179866Y-71934184D01*
X123170025Y-71921998D01*
X123166145Y-71915989D01*
X123166143Y-71915987D01*
X123162825Y-71910848D01*
X123136514Y-71890106D01*
X123130001Y-71884319D01*
X123127254Y-71881572D01*
X123124776Y-71879801D01*
X123124771Y-71879797D01*
X123111920Y-71870614D01*
X123109157Y-71868540D01*
X123071189Y-71838608D01*
X123065420Y-71836582D01*
X123064383Y-71836012D01*
X123063680Y-71835570D01*
X123063140Y-71835289D01*
X123062383Y-71834972D01*
X123061307Y-71834445D01*
X123056331Y-71830889D01*
X123010023Y-71817040D01*
X123006707Y-71815963D01*
X122999374Y-71813388D01*
X122961094Y-71799945D01*
X122955956Y-71799500D01*
X122954619Y-71799500D01*
X122950088Y-71799116D01*
X122944536Y-71797456D01*
X122938426Y-71797696D01*
X122938425Y-71797696D01*
X122893963Y-71799443D01*
X122891058Y-71799500D01*
X119775834Y-71799500D01*
X119728268Y-71782187D01*
X119723508Y-71777826D01*
X118674745Y-70729063D01*
X118653818Y-70687228D01*
X118636070Y-70563296D01*
X118636069Y-70563294D01*
X118635323Y-70558082D01*
X118631442Y-70549545D01*
X118578166Y-70432371D01*
X118575984Y-70427572D01*
X118502189Y-70341929D01*
X118485840Y-70322955D01*
X118485839Y-70322954D01*
X118482400Y-70318963D01*
X118477981Y-70316099D01*
X118477979Y-70316097D01*
X118429070Y-70284396D01*
X118362095Y-70240985D01*
X118260461Y-70210590D01*
X119599500Y-70210590D01*
X119610365Y-70284396D01*
X119665459Y-70396610D01*
X119753931Y-70484927D01*
X119809557Y-70512118D01*
X119861081Y-70537304D01*
X119861083Y-70537305D01*
X119866241Y-70539826D01*
X119871924Y-70540655D01*
X119935983Y-70550000D01*
X119939410Y-70550500D01*
X120360590Y-70550500D01*
X120363994Y-70549999D01*
X120369598Y-70549174D01*
X120434396Y-70539635D01*
X120546610Y-70484541D01*
X120629935Y-70401069D01*
X120675792Y-70379637D01*
X120724697Y-70392695D01*
X120734632Y-70401024D01*
X120811658Y-70478050D01*
X120816848Y-70480694D01*
X120816850Y-70480696D01*
X120919502Y-70533000D01*
X120919505Y-70533001D01*
X120924696Y-70535646D01*
X120930448Y-70536557D01*
X120930451Y-70536558D01*
X121015318Y-70549999D01*
X121018481Y-70550500D01*
X121250000Y-70550500D01*
X121481518Y-70550499D01*
X121484390Y-70550044D01*
X121484392Y-70550044D01*
X121523230Y-70543893D01*
X121575304Y-70535646D01*
X121670312Y-70487237D01*
X121683150Y-70480696D01*
X121683152Y-70480694D01*
X121688342Y-70478050D01*
X121747674Y-70418718D01*
X121793550Y-70397326D01*
X121842445Y-70410427D01*
X121852326Y-70418718D01*
X121911658Y-70478050D01*
X121916848Y-70480694D01*
X121916850Y-70480696D01*
X122019502Y-70533000D01*
X122019505Y-70533001D01*
X122024696Y-70535646D01*
X122030448Y-70536557D01*
X122030451Y-70536558D01*
X122115318Y-70549999D01*
X122118481Y-70550500D01*
X122350000Y-70550500D01*
X122581518Y-70550499D01*
X122584390Y-70550044D01*
X122584392Y-70550044D01*
X122623230Y-70543893D01*
X122675304Y-70535646D01*
X122770312Y-70487237D01*
X122783150Y-70480696D01*
X122783152Y-70480694D01*
X122788342Y-70478050D01*
X122847674Y-70418718D01*
X122893550Y-70397326D01*
X122942445Y-70410427D01*
X122952326Y-70418718D01*
X123011658Y-70478050D01*
X123016848Y-70480694D01*
X123016850Y-70480696D01*
X123119502Y-70533000D01*
X123119505Y-70533001D01*
X123124696Y-70535646D01*
X123130448Y-70536557D01*
X123130451Y-70536558D01*
X123215318Y-70549999D01*
X123218481Y-70550500D01*
X123450000Y-70550500D01*
X123681518Y-70550499D01*
X123684390Y-70550044D01*
X123684392Y-70550044D01*
X123723230Y-70543893D01*
X123775304Y-70535646D01*
X123870312Y-70487237D01*
X123883150Y-70480696D01*
X123883152Y-70480694D01*
X123888342Y-70478050D01*
X123947674Y-70418718D01*
X123993550Y-70397326D01*
X124042445Y-70410427D01*
X124052326Y-70418718D01*
X124111658Y-70478050D01*
X124116848Y-70480694D01*
X124116850Y-70480696D01*
X124219502Y-70533000D01*
X124219505Y-70533001D01*
X124224696Y-70535646D01*
X124230448Y-70536557D01*
X124230451Y-70536558D01*
X124315318Y-70549999D01*
X124318481Y-70550500D01*
X124550000Y-70550500D01*
X124781518Y-70550499D01*
X124784390Y-70550044D01*
X124784392Y-70550044D01*
X124823230Y-70543893D01*
X124875304Y-70535646D01*
X124970312Y-70487237D01*
X124983150Y-70480696D01*
X124983152Y-70480694D01*
X124988342Y-70478050D01*
X125047674Y-70418718D01*
X125093550Y-70397326D01*
X125142445Y-70410427D01*
X125152326Y-70418718D01*
X125211658Y-70478050D01*
X125216848Y-70480694D01*
X125216850Y-70480696D01*
X125319502Y-70533000D01*
X125319505Y-70533001D01*
X125324696Y-70535646D01*
X125330448Y-70536557D01*
X125330451Y-70536558D01*
X125415318Y-70549999D01*
X125418481Y-70550500D01*
X125650000Y-70550500D01*
X125881518Y-70550499D01*
X125884390Y-70550044D01*
X125884392Y-70550044D01*
X125923230Y-70543893D01*
X125975304Y-70535646D01*
X126070312Y-70487237D01*
X126083150Y-70480696D01*
X126083152Y-70480694D01*
X126088342Y-70478050D01*
X126148027Y-70418365D01*
X126193903Y-70396973D01*
X126242798Y-70410074D01*
X126252679Y-70418365D01*
X126307836Y-70473522D01*
X126317147Y-70480287D01*
X126419658Y-70532519D01*
X126430607Y-70536077D01*
X126515646Y-70549545D01*
X126521428Y-70550000D01*
X126609952Y-70550000D01*
X126619948Y-70546362D01*
X126623000Y-70541075D01*
X126623000Y-68363049D01*
X126619362Y-68353053D01*
X126614075Y-68350001D01*
X126521429Y-68350001D01*
X126515646Y-68350456D01*
X126430606Y-68363924D01*
X126419660Y-68367481D01*
X126317147Y-68419713D01*
X126307836Y-68426478D01*
X126252679Y-68481635D01*
X126206803Y-68503027D01*
X126157908Y-68489926D01*
X126148027Y-68481635D01*
X126088342Y-68421950D01*
X126083152Y-68419306D01*
X126083150Y-68419304D01*
X125980498Y-68367000D01*
X125980495Y-68366999D01*
X125975304Y-68364354D01*
X125969552Y-68363443D01*
X125969549Y-68363442D01*
X125884392Y-68349955D01*
X125881519Y-68349500D01*
X125878610Y-68349500D01*
X125650001Y-68349501D01*
X125418482Y-68349501D01*
X125415610Y-68349956D01*
X125415608Y-68349956D01*
X125392360Y-68353638D01*
X125324696Y-68364354D01*
X125292737Y-68380638D01*
X125216850Y-68419304D01*
X125216848Y-68419306D01*
X125211658Y-68421950D01*
X125152326Y-68481282D01*
X125106450Y-68502674D01*
X125057555Y-68489573D01*
X125047674Y-68481282D01*
X124988342Y-68421950D01*
X124983152Y-68419306D01*
X124983150Y-68419304D01*
X124880498Y-68367000D01*
X124880495Y-68366999D01*
X124875304Y-68364354D01*
X124869552Y-68363443D01*
X124869549Y-68363442D01*
X124784392Y-68349955D01*
X124781519Y-68349500D01*
X124778610Y-68349500D01*
X124550001Y-68349501D01*
X124318482Y-68349501D01*
X124315610Y-68349956D01*
X124315608Y-68349956D01*
X124292360Y-68353638D01*
X124224696Y-68364354D01*
X124192737Y-68380638D01*
X124116850Y-68419304D01*
X124116848Y-68419306D01*
X124111658Y-68421950D01*
X124052326Y-68481282D01*
X124006450Y-68502674D01*
X123957555Y-68489573D01*
X123947674Y-68481282D01*
X123888342Y-68421950D01*
X123883152Y-68419306D01*
X123883150Y-68419304D01*
X123780498Y-68367000D01*
X123780495Y-68366999D01*
X123775304Y-68364354D01*
X123769552Y-68363443D01*
X123769549Y-68363442D01*
X123684392Y-68349955D01*
X123681519Y-68349500D01*
X123678610Y-68349500D01*
X123450001Y-68349501D01*
X123218482Y-68349501D01*
X123215610Y-68349956D01*
X123215608Y-68349956D01*
X123192360Y-68353638D01*
X123124696Y-68364354D01*
X123092737Y-68380638D01*
X123016850Y-68419304D01*
X123016848Y-68419306D01*
X123011658Y-68421950D01*
X122952326Y-68481282D01*
X122906450Y-68502674D01*
X122857555Y-68489573D01*
X122847674Y-68481282D01*
X122788342Y-68421950D01*
X122783152Y-68419306D01*
X122783150Y-68419304D01*
X122680498Y-68367000D01*
X122680495Y-68366999D01*
X122675304Y-68364354D01*
X122669552Y-68363443D01*
X122669549Y-68363442D01*
X122584392Y-68349955D01*
X122581519Y-68349500D01*
X122578610Y-68349500D01*
X122350001Y-68349501D01*
X122118482Y-68349501D01*
X122115610Y-68349956D01*
X122115608Y-68349956D01*
X122092360Y-68353638D01*
X122024696Y-68364354D01*
X121992737Y-68380638D01*
X121916850Y-68419304D01*
X121916848Y-68419306D01*
X121911658Y-68421950D01*
X121852326Y-68481282D01*
X121806450Y-68502674D01*
X121757555Y-68489573D01*
X121747674Y-68481282D01*
X121688342Y-68421950D01*
X121683152Y-68419306D01*
X121683150Y-68419304D01*
X121580498Y-68367000D01*
X121580495Y-68366999D01*
X121575304Y-68364354D01*
X121569552Y-68363443D01*
X121569549Y-68363442D01*
X121484392Y-68349955D01*
X121481519Y-68349500D01*
X121478610Y-68349500D01*
X121250001Y-68349501D01*
X121018482Y-68349501D01*
X121015610Y-68349956D01*
X121015608Y-68349956D01*
X120992360Y-68353638D01*
X120924696Y-68364354D01*
X120892737Y-68380638D01*
X120816850Y-68419304D01*
X120816848Y-68419306D01*
X120811658Y-68421950D01*
X120734702Y-68498906D01*
X120688826Y-68520298D01*
X120639931Y-68507197D01*
X120630096Y-68498952D01*
X120580274Y-68449218D01*
X120546069Y-68415073D01*
X120455788Y-68370942D01*
X120438919Y-68362696D01*
X120438917Y-68362695D01*
X120433759Y-68360174D01*
X120367143Y-68350456D01*
X120363243Y-68349887D01*
X120360590Y-68349500D01*
X119939410Y-68349500D01*
X119936741Y-68349893D01*
X119936740Y-68349893D01*
X119933344Y-68350393D01*
X119865604Y-68360365D01*
X119753390Y-68415459D01*
X119665073Y-68503931D01*
X119652859Y-68528918D01*
X119617056Y-68602163D01*
X119610174Y-68616241D01*
X119599500Y-68689410D01*
X119599500Y-70210590D01*
X118260461Y-70210590D01*
X118251436Y-70207891D01*
X118229792Y-70201418D01*
X118229791Y-70201418D01*
X118224739Y-70199907D01*
X118151103Y-70199457D01*
X118086646Y-70199063D01*
X118086645Y-70199063D01*
X118081376Y-70199031D01*
X117943529Y-70238428D01*
X117939069Y-70241242D01*
X117926548Y-70249142D01*
X117822280Y-70314930D01*
X117795491Y-70345263D01*
X117733964Y-70414930D01*
X117727377Y-70422388D01*
X117666447Y-70552163D01*
X117665637Y-70557368D01*
X117665636Y-70557370D01*
X117660771Y-70588616D01*
X117644391Y-70693823D01*
X117645074Y-70699046D01*
X117645074Y-70699049D01*
X117650534Y-70740803D01*
X117662980Y-70835979D01*
X117686024Y-70888350D01*
X117717075Y-70958918D01*
X117720720Y-70967203D01*
X117724112Y-70971238D01*
X117809580Y-71072916D01*
X117809583Y-71072919D01*
X117812970Y-71076948D01*
X117832633Y-71090037D01*
X117927924Y-71153469D01*
X117927927Y-71153470D01*
X117932313Y-71156390D01*
X118069157Y-71199142D01*
X118074425Y-71199239D01*
X118074428Y-71199239D01*
X118125179Y-71200169D01*
X118176149Y-71221831D01*
X119320134Y-72365816D01*
X119329975Y-72378002D01*
X119333855Y-72384011D01*
X119333857Y-72384013D01*
X119337175Y-72389152D01*
X119341980Y-72392940D01*
X119363486Y-72409894D01*
X119369999Y-72415681D01*
X119372747Y-72418429D01*
X119375225Y-72420200D01*
X119375230Y-72420204D01*
X119388081Y-72429387D01*
X119390864Y-72431476D01*
X119428811Y-72461392D01*
X119434585Y-72463420D01*
X119435629Y-72463994D01*
X119436327Y-72464433D01*
X119436867Y-72464714D01*
X119437622Y-72465030D01*
X119438694Y-72465555D01*
X119443670Y-72469111D01*
X119449527Y-72470863D01*
X119449530Y-72470864D01*
X119489974Y-72482959D01*
X119493290Y-72484036D01*
X119538906Y-72500055D01*
X119544044Y-72500500D01*
X119545381Y-72500500D01*
X119549912Y-72500884D01*
X119555464Y-72502544D01*
X119561574Y-72502304D01*
X119561575Y-72502304D01*
X119606037Y-72500557D01*
X119608942Y-72500500D01*
X122724166Y-72500500D01*
X122771732Y-72517813D01*
X122776492Y-72522174D01*
X125277826Y-75023508D01*
X125299218Y-75069384D01*
X125299500Y-75075834D01*
X125299500Y-77831845D01*
X125282187Y-77879411D01*
X125259096Y-77897779D01*
X125211658Y-77921950D01*
X125152326Y-77981282D01*
X125106450Y-78002674D01*
X125057555Y-77989573D01*
X125047674Y-77981282D01*
X124988342Y-77921950D01*
X124983152Y-77919306D01*
X124983150Y-77919304D01*
X124890905Y-77872303D01*
X124856383Y-77835283D01*
X124850500Y-77806369D01*
X124850500Y-76154567D01*
X124850902Y-76149094D01*
X124852425Y-76144658D01*
X124850552Y-76094759D01*
X124850500Y-76091983D01*
X124850500Y-76072052D01*
X124849876Y-76068700D01*
X124849563Y-76065309D01*
X124849753Y-76065291D01*
X124849294Y-76061242D01*
X124848482Y-76039620D01*
X124848226Y-76032792D01*
X124845529Y-76026515D01*
X124845528Y-76026510D01*
X124842584Y-76019657D01*
X124837826Y-76003998D01*
X124836460Y-75996664D01*
X124835209Y-75989947D01*
X124831624Y-75984132D01*
X124831623Y-75984128D01*
X124820270Y-75965710D01*
X124815274Y-75956093D01*
X124806099Y-75934738D01*
X124806098Y-75934736D01*
X124804036Y-75929937D01*
X124800022Y-75925051D01*
X124793591Y-75918620D01*
X124782923Y-75905124D01*
X124780053Y-75900468D01*
X124776468Y-75894652D01*
X124769087Y-75889039D01*
X124751888Y-75875961D01*
X124744354Y-75869383D01*
X122001070Y-73126099D01*
X121997485Y-73121946D01*
X121995425Y-73117731D01*
X121958818Y-73083773D01*
X121956819Y-73081848D01*
X121942723Y-73067752D01*
X121939912Y-73065824D01*
X121937293Y-73063647D01*
X121937403Y-73063515D01*
X121934227Y-73060961D01*
X121918364Y-73046246D01*
X121918363Y-73046245D01*
X121913354Y-73041599D01*
X121907012Y-73039069D01*
X121907006Y-73039065D01*
X121900077Y-73036301D01*
X121885641Y-73028593D01*
X121879493Y-73024376D01*
X121879492Y-73024375D01*
X121873854Y-73020508D01*
X121867204Y-73018930D01*
X121867202Y-73018929D01*
X121846160Y-73013936D01*
X121835824Y-73010668D01*
X121824422Y-73006119D01*
X121809378Y-73000117D01*
X121803085Y-72999500D01*
X121793988Y-72999500D01*
X121776901Y-72997500D01*
X121771585Y-72996238D01*
X121771583Y-72996238D01*
X121764934Y-72994660D01*
X121736761Y-72998494D01*
X121734337Y-72998824D01*
X121724358Y-72999500D01*
X119385714Y-72999500D01*
X119338148Y-72982187D01*
X119329654Y-72973804D01*
X119285840Y-72922955D01*
X119285839Y-72922954D01*
X119282400Y-72918963D01*
X119277981Y-72916099D01*
X119277979Y-72916097D01*
X119232564Y-72886661D01*
X119162095Y-72840985D01*
X119034620Y-72802862D01*
X119029792Y-72801418D01*
X119029791Y-72801418D01*
X119024739Y-72799907D01*
X118951103Y-72799457D01*
X118886646Y-72799063D01*
X118886645Y-72799063D01*
X118881376Y-72799031D01*
X118743529Y-72838428D01*
X118622280Y-72914930D01*
X118571069Y-72972916D01*
X118533964Y-73014930D01*
X118527377Y-73022388D01*
X118466447Y-73152163D01*
X118465637Y-73157368D01*
X118465636Y-73157370D01*
X118459945Y-73193923D01*
X118444391Y-73293823D01*
X118445074Y-73299046D01*
X118445074Y-73299049D01*
X118448126Y-73322388D01*
X118462980Y-73435979D01*
X118520720Y-73567203D01*
X118543096Y-73593823D01*
X118609580Y-73672916D01*
X118609583Y-73672919D01*
X118612970Y-73676948D01*
X118617357Y-73679868D01*
X118727924Y-73753469D01*
X118727927Y-73753470D01*
X118732313Y-73756390D01*
X118869157Y-73799142D01*
X118874425Y-73799239D01*
X118874428Y-73799239D01*
X118934733Y-73800344D01*
X119012499Y-73801770D01*
X119017582Y-73800384D01*
X119017584Y-73800384D01*
X119145727Y-73765448D01*
X119145729Y-73765447D01*
X119150817Y-73764060D01*
X119272991Y-73689045D01*
X119331105Y-73624841D01*
X119375861Y-73601194D01*
X119385968Y-73600500D01*
X121594877Y-73600500D01*
X121642443Y-73617813D01*
X121647203Y-73622174D01*
X124227826Y-76202797D01*
X124249218Y-76248673D01*
X124249500Y-76255123D01*
X124249500Y-77806369D01*
X124232187Y-77853935D01*
X124209095Y-77872303D01*
X124116850Y-77919304D01*
X124116848Y-77919306D01*
X124111658Y-77921950D01*
X124052326Y-77981282D01*
X124006450Y-78002674D01*
X123957555Y-77989573D01*
X123947674Y-77981282D01*
X123888342Y-77921950D01*
X123883152Y-77919306D01*
X123883150Y-77919304D01*
X123780498Y-77867000D01*
X123780495Y-77866999D01*
X123775304Y-77864354D01*
X123769552Y-77863443D01*
X123769549Y-77863442D01*
X123684392Y-77849955D01*
X123681519Y-77849500D01*
X123678610Y-77849500D01*
X123450001Y-77849501D01*
X123218482Y-77849501D01*
X123215610Y-77849956D01*
X123215608Y-77849956D01*
X123192360Y-77853638D01*
X123124696Y-77864354D01*
X123083662Y-77885262D01*
X123016850Y-77919304D01*
X123016848Y-77919306D01*
X123011658Y-77921950D01*
X122952326Y-77981282D01*
X122906450Y-78002674D01*
X122857555Y-77989573D01*
X122847674Y-77981282D01*
X122788342Y-77921950D01*
X122783152Y-77919306D01*
X122783150Y-77919304D01*
X122690905Y-77872303D01*
X122656383Y-77835283D01*
X122650500Y-77806369D01*
X122650500Y-77054573D01*
X122650902Y-77049096D01*
X122652426Y-77044658D01*
X122651771Y-77027194D01*
X122650552Y-76994744D01*
X122650500Y-76991968D01*
X122650500Y-76972052D01*
X122649875Y-76968695D01*
X122649562Y-76965307D01*
X122649750Y-76965290D01*
X122649294Y-76961242D01*
X122648226Y-76932792D01*
X122645529Y-76926515D01*
X122645528Y-76926510D01*
X122642584Y-76919657D01*
X122637826Y-76903998D01*
X122636460Y-76896662D01*
X122636459Y-76896660D01*
X122635209Y-76889947D01*
X122620270Y-76865710D01*
X122615274Y-76856094D01*
X122606097Y-76834734D01*
X122606096Y-76834732D01*
X122604036Y-76829938D01*
X122600023Y-76825052D01*
X122593591Y-76818620D01*
X122582923Y-76805124D01*
X122580053Y-76800468D01*
X122576468Y-76794652D01*
X122568181Y-76788350D01*
X122551888Y-76775961D01*
X122544354Y-76769383D01*
X120351070Y-74576099D01*
X120347485Y-74571946D01*
X120345425Y-74567731D01*
X120308818Y-74533773D01*
X120306819Y-74531848D01*
X120292723Y-74517752D01*
X120289912Y-74515824D01*
X120287293Y-74513647D01*
X120287403Y-74513515D01*
X120284227Y-74510961D01*
X120268364Y-74496246D01*
X120268363Y-74496245D01*
X120263354Y-74491599D01*
X120257012Y-74489069D01*
X120257006Y-74489065D01*
X120250077Y-74486301D01*
X120235641Y-74478593D01*
X120229493Y-74474376D01*
X120229492Y-74474375D01*
X120223854Y-74470508D01*
X120217204Y-74468930D01*
X120217202Y-74468929D01*
X120196160Y-74463936D01*
X120185824Y-74460668D01*
X120183932Y-74459913D01*
X120159378Y-74450117D01*
X120153085Y-74449500D01*
X120143988Y-74449500D01*
X120126901Y-74447500D01*
X120121585Y-74446238D01*
X120121583Y-74446238D01*
X120114934Y-74444660D01*
X120094066Y-74447500D01*
X120084337Y-74448824D01*
X120074358Y-74449500D01*
X115872623Y-74449500D01*
X115825057Y-74432187D01*
X115820297Y-74427826D01*
X113445097Y-72052626D01*
X113423705Y-72006750D01*
X113436806Y-71957855D01*
X113441406Y-71951947D01*
X113485197Y-71901216D01*
X113485204Y-71901206D01*
X113487564Y-71898472D01*
X113489347Y-71895333D01*
X113489350Y-71895329D01*
X113544949Y-71797456D01*
X113589323Y-71719344D01*
X113593307Y-71707370D01*
X113653208Y-71527299D01*
X113654351Y-71523863D01*
X113656866Y-71503957D01*
X113679913Y-71321519D01*
X113679913Y-71321513D01*
X113680171Y-71319474D01*
X113680583Y-71290000D01*
X113679061Y-71274471D01*
X113660833Y-71088570D01*
X113660480Y-71084970D01*
X113600935Y-70887749D01*
X113528583Y-70751673D01*
X113505917Y-70709044D01*
X113505916Y-70709042D01*
X113504218Y-70705849D01*
X113374011Y-70546200D01*
X113286653Y-70473931D01*
X113218070Y-70417194D01*
X113218069Y-70417193D01*
X113215275Y-70414882D01*
X113204384Y-70408993D01*
X113037238Y-70318618D01*
X113034055Y-70316897D01*
X113030605Y-70315829D01*
X113030600Y-70315827D01*
X112905996Y-70277256D01*
X112837254Y-70255977D01*
X112632369Y-70234443D01*
X112628765Y-70234771D01*
X112628764Y-70234771D01*
X112577075Y-70239475D01*
X112427203Y-70253114D01*
X112378247Y-70267522D01*
X112233043Y-70310258D01*
X112233039Y-70310260D01*
X112229572Y-70311280D01*
X112169835Y-70342510D01*
X112050209Y-70405049D01*
X112050206Y-70405051D01*
X112047002Y-70406726D01*
X112044184Y-70408992D01*
X112044182Y-70408993D01*
X111889266Y-70533548D01*
X111889263Y-70533551D01*
X111886447Y-70535815D01*
X111884121Y-70538587D01*
X111884119Y-70538589D01*
X111756351Y-70690856D01*
X111756348Y-70690860D01*
X111754024Y-70693630D01*
X111654776Y-70874162D01*
X111651479Y-70884556D01*
X111597736Y-71053977D01*
X111592484Y-71070532D01*
X111592081Y-71074123D01*
X111592081Y-71074124D01*
X111590461Y-71088570D01*
X111569520Y-71275262D01*
X111569823Y-71278871D01*
X111569823Y-71278873D01*
X111583719Y-71444354D01*
X111586759Y-71480553D01*
X111643544Y-71678586D01*
X111645196Y-71681800D01*
X111645197Y-71681803D01*
X111731638Y-71850000D01*
X111737712Y-71861818D01*
X111865677Y-72023270D01*
X111868430Y-72025613D01*
X111868433Y-72025616D01*
X111900170Y-72052626D01*
X112022564Y-72156791D01*
X112025726Y-72158558D01*
X112199239Y-72255532D01*
X112199243Y-72255534D01*
X112202398Y-72257297D01*
X112205834Y-72258414D01*
X112205840Y-72258416D01*
X112330256Y-72298841D01*
X112398329Y-72320959D01*
X112462168Y-72328571D01*
X112599294Y-72344922D01*
X112599297Y-72344922D01*
X112602894Y-72345351D01*
X112711699Y-72336979D01*
X112804689Y-72329824D01*
X112804691Y-72329824D01*
X112808300Y-72329546D01*
X112811792Y-72328571D01*
X112816507Y-72327255D01*
X112866977Y-72331139D01*
X112888732Y-72346203D01*
X115466430Y-74923901D01*
X115470015Y-74928054D01*
X115472075Y-74932269D01*
X115508681Y-74966226D01*
X115510681Y-74968152D01*
X115524776Y-74982247D01*
X115527587Y-74984175D01*
X115530212Y-74986356D01*
X115530107Y-74986482D01*
X115533277Y-74989042D01*
X115549137Y-75003755D01*
X115549139Y-75003756D01*
X115554146Y-75008401D01*
X115560490Y-75010932D01*
X115560493Y-75010934D01*
X115567423Y-75013699D01*
X115581859Y-75021407D01*
X115585026Y-75023579D01*
X115593646Y-75029492D01*
X115600296Y-75031070D01*
X115600298Y-75031071D01*
X115621340Y-75036064D01*
X115631676Y-75039332D01*
X115658122Y-75049883D01*
X115664415Y-75050500D01*
X115673512Y-75050500D01*
X115690599Y-75052500D01*
X115695915Y-75053762D01*
X115695917Y-75053762D01*
X115702566Y-75055340D01*
X115733163Y-75051176D01*
X115743142Y-75050500D01*
X119944877Y-75050500D01*
X119992443Y-75067813D01*
X119997203Y-75072174D01*
X122027826Y-77102797D01*
X122049218Y-77148673D01*
X122049500Y-77155123D01*
X122049500Y-77806369D01*
X122032187Y-77853935D01*
X122009095Y-77872303D01*
X121916850Y-77919304D01*
X121916848Y-77919306D01*
X121911658Y-77921950D01*
X121852326Y-77981282D01*
X121806450Y-78002674D01*
X121757555Y-77989573D01*
X121747674Y-77981282D01*
X121688342Y-77921950D01*
X121581832Y-77867680D01*
X121547438Y-77830956D01*
X121542584Y-77819657D01*
X121537826Y-77803998D01*
X121536460Y-77796662D01*
X121536459Y-77796660D01*
X121535209Y-77789947D01*
X121520270Y-77765710D01*
X121515274Y-77756094D01*
X121506097Y-77734734D01*
X121506096Y-77734732D01*
X121504036Y-77729938D01*
X121500023Y-77725052D01*
X121493591Y-77718620D01*
X121482923Y-77705124D01*
X121480053Y-77700468D01*
X121476468Y-77694652D01*
X121468536Y-77688620D01*
X121451888Y-77675961D01*
X121444354Y-77669383D01*
X119251070Y-75476099D01*
X119247485Y-75471946D01*
X119245425Y-75467731D01*
X119208818Y-75433773D01*
X119206819Y-75431848D01*
X119192723Y-75417752D01*
X119189912Y-75415824D01*
X119187293Y-75413647D01*
X119187403Y-75413515D01*
X119184227Y-75410961D01*
X119168364Y-75396246D01*
X119168363Y-75396245D01*
X119163354Y-75391599D01*
X119157012Y-75389069D01*
X119157006Y-75389065D01*
X119150077Y-75386301D01*
X119135641Y-75378593D01*
X119129493Y-75374376D01*
X119129492Y-75374375D01*
X119123854Y-75370508D01*
X119117204Y-75368930D01*
X119117202Y-75368929D01*
X119096160Y-75363936D01*
X119085824Y-75360668D01*
X119068441Y-75353733D01*
X119059378Y-75350117D01*
X119053085Y-75349500D01*
X119043988Y-75349500D01*
X119026901Y-75347500D01*
X119021585Y-75346238D01*
X119021583Y-75346238D01*
X119014934Y-75344660D01*
X118994066Y-75347500D01*
X118984337Y-75348824D01*
X118974358Y-75349500D01*
X114600124Y-75349500D01*
X114552558Y-75332187D01*
X114547798Y-75327826D01*
X113589332Y-74369360D01*
X113567940Y-74323484D01*
X113577315Y-74280482D01*
X113585758Y-74265619D01*
X113589323Y-74259344D01*
X113595885Y-74239620D01*
X113653208Y-74067299D01*
X113654351Y-74063863D01*
X113655097Y-74057962D01*
X113679913Y-73861519D01*
X113679913Y-73861513D01*
X113680171Y-73859474D01*
X113680583Y-73830000D01*
X113679954Y-73823579D01*
X113660833Y-73628570D01*
X113660480Y-73624970D01*
X113600935Y-73427749D01*
X113504218Y-73245849D01*
X113374011Y-73086200D01*
X113277210Y-73006119D01*
X113218070Y-72957194D01*
X113218069Y-72957193D01*
X113215275Y-72954882D01*
X113210247Y-72952163D01*
X113037238Y-72858618D01*
X113034055Y-72856897D01*
X113030605Y-72855829D01*
X113030600Y-72855827D01*
X112899279Y-72815177D01*
X112837254Y-72795977D01*
X112632369Y-72774443D01*
X112628765Y-72774771D01*
X112628764Y-72774771D01*
X112628215Y-72774821D01*
X112427203Y-72793114D01*
X112394082Y-72802862D01*
X112233043Y-72850258D01*
X112233039Y-72850260D01*
X112229572Y-72851280D01*
X112161895Y-72886661D01*
X112050209Y-72945049D01*
X112050206Y-72945051D01*
X112047002Y-72946726D01*
X112044184Y-72948992D01*
X112044182Y-72948993D01*
X111889266Y-73073548D01*
X111889263Y-73073551D01*
X111886447Y-73075815D01*
X111884121Y-73078587D01*
X111884119Y-73078589D01*
X111756351Y-73230856D01*
X111756348Y-73230860D01*
X111754024Y-73233630D01*
X111654776Y-73414162D01*
X111653682Y-73417611D01*
X111596127Y-73599049D01*
X111592484Y-73610532D01*
X111592081Y-73614123D01*
X111592081Y-73614124D01*
X111590461Y-73628570D01*
X111569520Y-73815262D01*
X108101900Y-73815262D01*
X108131710Y-73753733D01*
X108155496Y-73612354D01*
X108155647Y-73600000D01*
X108138025Y-73476948D01*
X108136070Y-73463297D01*
X108136070Y-73463296D01*
X108135323Y-73458082D01*
X108121532Y-73427749D01*
X108078166Y-73332371D01*
X108075984Y-73327572D01*
X107982400Y-73218963D01*
X107977973Y-73216093D01*
X107975854Y-73214245D01*
X107951391Y-73169930D01*
X107950500Y-73158481D01*
X107950500Y-69905123D01*
X107967813Y-69857557D01*
X107972174Y-69852797D01*
X108205223Y-69619748D01*
X111574500Y-69619748D01*
X111575210Y-69623317D01*
X111575210Y-69623318D01*
X111576689Y-69630752D01*
X111586133Y-69678231D01*
X111590184Y-69684293D01*
X111590184Y-69684294D01*
X111624720Y-69735979D01*
X111630448Y-69744552D01*
X111636509Y-69748602D01*
X111676977Y-69775642D01*
X111696769Y-69788867D01*
X111741295Y-69797724D01*
X111751682Y-69799790D01*
X111751683Y-69799790D01*
X111755252Y-69800500D01*
X113494748Y-69800500D01*
X113498317Y-69799790D01*
X113498318Y-69799790D01*
X113508705Y-69797724D01*
X113553231Y-69788867D01*
X113573024Y-69775642D01*
X113613491Y-69748602D01*
X113619552Y-69744552D01*
X113625280Y-69735979D01*
X113659816Y-69684294D01*
X113659816Y-69684293D01*
X113663867Y-69678231D01*
X113673311Y-69630752D01*
X113674790Y-69623318D01*
X113674790Y-69623317D01*
X113675500Y-69619748D01*
X113675500Y-67880252D01*
X113663867Y-67821769D01*
X113619552Y-67755448D01*
X113608947Y-67748362D01*
X113559294Y-67715184D01*
X113559293Y-67715184D01*
X113553231Y-67711133D01*
X113508705Y-67702276D01*
X113498318Y-67700210D01*
X113498317Y-67700210D01*
X113494748Y-67699500D01*
X111755252Y-67699500D01*
X111751683Y-67700210D01*
X111751682Y-67700210D01*
X111741295Y-67702276D01*
X111696769Y-67711133D01*
X111690707Y-67715184D01*
X111690706Y-67715184D01*
X111641053Y-67748362D01*
X111630448Y-67755448D01*
X111586133Y-67821769D01*
X111574500Y-67880252D01*
X111574500Y-69619748D01*
X108205223Y-69619748D01*
X110592441Y-67232530D01*
X115100000Y-67232530D01*
X115100163Y-67235998D01*
X115102513Y-67260856D01*
X115104430Y-67269590D01*
X115145318Y-67386021D01*
X115150436Y-67395687D01*
X115223141Y-67494124D01*
X115230876Y-67501859D01*
X115329313Y-67574564D01*
X115338979Y-67579682D01*
X115455410Y-67620570D01*
X115464144Y-67622487D01*
X115489002Y-67624837D01*
X115492470Y-67625000D01*
X115859952Y-67625000D01*
X115869948Y-67621362D01*
X115873000Y-67616075D01*
X115873000Y-67611952D01*
X116127000Y-67611952D01*
X116130638Y-67621948D01*
X116135925Y-67625000D01*
X116507530Y-67625000D01*
X116510998Y-67624837D01*
X116535856Y-67622487D01*
X116544590Y-67620570D01*
X116661021Y-67579682D01*
X116670687Y-67574564D01*
X116769124Y-67501859D01*
X116776859Y-67494124D01*
X116849564Y-67395687D01*
X116854682Y-67386021D01*
X116895570Y-67269590D01*
X116897487Y-67260856D01*
X116899837Y-67235998D01*
X116900000Y-67232530D01*
X116900000Y-67077548D01*
X116896362Y-67067552D01*
X116891075Y-67064500D01*
X116140048Y-67064500D01*
X116130052Y-67068138D01*
X116127000Y-67073425D01*
X116127000Y-67611952D01*
X115873000Y-67611952D01*
X115873000Y-67077548D01*
X115869362Y-67067552D01*
X115864075Y-67064500D01*
X115113048Y-67064500D01*
X115103052Y-67068138D01*
X115100000Y-67073425D01*
X115100000Y-67232530D01*
X110592441Y-67232530D01*
X111202797Y-66622174D01*
X111248673Y-66600782D01*
X111255123Y-66600500D01*
X112164241Y-66600500D01*
X112211807Y-66617813D01*
X112220887Y-66626884D01*
X112259580Y-66672916D01*
X112259583Y-66672919D01*
X112262970Y-66676948D01*
X112267357Y-66679868D01*
X112377924Y-66753469D01*
X112377927Y-66753470D01*
X112382313Y-66756390D01*
X112519157Y-66799142D01*
X112524425Y-66799239D01*
X112524428Y-66799239D01*
X112584733Y-66800344D01*
X112662499Y-66801770D01*
X112667582Y-66800384D01*
X112667584Y-66800384D01*
X112678338Y-66797452D01*
X115100000Y-66797452D01*
X115103638Y-66807448D01*
X115108925Y-66810500D01*
X115859952Y-66810500D01*
X115869948Y-66806862D01*
X115873000Y-66801575D01*
X115873000Y-66797452D01*
X116127000Y-66797452D01*
X116130638Y-66807448D01*
X116135925Y-66810500D01*
X116886952Y-66810500D01*
X116896948Y-66806862D01*
X116900000Y-66801575D01*
X116900000Y-66642470D01*
X116899837Y-66639002D01*
X116897487Y-66614144D01*
X116895570Y-66605410D01*
X116854682Y-66488979D01*
X116849564Y-66479313D01*
X116776859Y-66380876D01*
X116769124Y-66373141D01*
X116670687Y-66300436D01*
X116661021Y-66295318D01*
X116544590Y-66254430D01*
X116535856Y-66252513D01*
X116510998Y-66250163D01*
X116507530Y-66250000D01*
X116140048Y-66250000D01*
X116130052Y-66253638D01*
X116127000Y-66258925D01*
X116127000Y-66797452D01*
X115873000Y-66797452D01*
X115873000Y-66263048D01*
X115869362Y-66253052D01*
X115864075Y-66250000D01*
X115492470Y-66250000D01*
X115489002Y-66250163D01*
X115464144Y-66252513D01*
X115455410Y-66254430D01*
X115338979Y-66295318D01*
X115329313Y-66300436D01*
X115230876Y-66373141D01*
X115223141Y-66380876D01*
X115150436Y-66479313D01*
X115145318Y-66488979D01*
X115104430Y-66605410D01*
X115102513Y-66614144D01*
X115100163Y-66639002D01*
X115100000Y-66642470D01*
X115100000Y-66797452D01*
X112678338Y-66797452D01*
X112795727Y-66765448D01*
X112795729Y-66765447D01*
X112800817Y-66764060D01*
X112922991Y-66689045D01*
X113019200Y-66582754D01*
X113081710Y-66453733D01*
X113105496Y-66312354D01*
X113105647Y-66300000D01*
X113095112Y-66226434D01*
X113086070Y-66163297D01*
X113086070Y-66163296D01*
X113085323Y-66158082D01*
X113025984Y-66027572D01*
X112932400Y-65918963D01*
X112927981Y-65916099D01*
X112927979Y-65916097D01*
X112888068Y-65890228D01*
X112812095Y-65840985D01*
X112708168Y-65809904D01*
X112679792Y-65801418D01*
X112679791Y-65801418D01*
X112674739Y-65799907D01*
X112601103Y-65799457D01*
X112536646Y-65799063D01*
X112536645Y-65799063D01*
X112531376Y-65799031D01*
X112393529Y-65838428D01*
X112272280Y-65914930D01*
X112268025Y-65919748D01*
X112219683Y-65974485D01*
X112175219Y-65998678D01*
X112164217Y-65999500D01*
X111154567Y-65999500D01*
X111149094Y-65999098D01*
X111144658Y-65997575D01*
X111137834Y-65997831D01*
X111137833Y-65997831D01*
X111094759Y-65999448D01*
X111091983Y-65999500D01*
X111072052Y-65999500D01*
X111068700Y-66000124D01*
X111065309Y-66000437D01*
X111065291Y-66000247D01*
X111061245Y-66000706D01*
X111032792Y-66001774D01*
X111026515Y-66004471D01*
X111026510Y-66004472D01*
X111019657Y-66007416D01*
X111003998Y-66012174D01*
X110989947Y-66014791D01*
X110984132Y-66018376D01*
X110984128Y-66018377D01*
X110965710Y-66029730D01*
X110956093Y-66034726D01*
X110934738Y-66043901D01*
X110934736Y-66043902D01*
X110929937Y-66045964D01*
X110925051Y-66049978D01*
X110918620Y-66056409D01*
X110905125Y-66067076D01*
X110894652Y-66073532D01*
X110890516Y-66078971D01*
X110875961Y-66098112D01*
X110869383Y-66105646D01*
X107476099Y-69498930D01*
X107471946Y-69502515D01*
X107467731Y-69504575D01*
X107444709Y-69529393D01*
X107433774Y-69541181D01*
X107431848Y-69543181D01*
X107417752Y-69557277D01*
X107415824Y-69560088D01*
X107413647Y-69562707D01*
X107413515Y-69562597D01*
X107410961Y-69565773D01*
X107397716Y-69580052D01*
X107391599Y-69586646D01*
X107389069Y-69592988D01*
X107389065Y-69592994D01*
X107386301Y-69599923D01*
X107378593Y-69614359D01*
X107374897Y-69619748D01*
X107370508Y-69626146D01*
X107368930Y-69632796D01*
X107368929Y-69632798D01*
X107363936Y-69653840D01*
X107360668Y-69664176D01*
X107350117Y-69690622D01*
X107349500Y-69696915D01*
X107349500Y-69706012D01*
X107347500Y-69723098D01*
X107344660Y-69735066D01*
X107347948Y-69759226D01*
X107348824Y-69765663D01*
X107349500Y-69775642D01*
X107349500Y-73158553D01*
X107332187Y-73206119D01*
X107325379Y-73212975D01*
X107322280Y-73214930D01*
X107293608Y-73247395D01*
X107252605Y-73293823D01*
X107227377Y-73322388D01*
X107166447Y-73452163D01*
X107165637Y-73457368D01*
X107165636Y-73457370D01*
X107160275Y-73491804D01*
X107144391Y-73593823D01*
X93300500Y-73593823D01*
X93300500Y-72593823D01*
X105694391Y-72593823D01*
X105695074Y-72599046D01*
X105695074Y-72599049D01*
X105695353Y-72601183D01*
X105712980Y-72735979D01*
X105751001Y-72822388D01*
X105766943Y-72858618D01*
X105770720Y-72867203D01*
X105779804Y-72878010D01*
X105859580Y-72972916D01*
X105859583Y-72972919D01*
X105862970Y-72976948D01*
X105875269Y-72985135D01*
X105977924Y-73053469D01*
X105977927Y-73053470D01*
X105982313Y-73056390D01*
X106119157Y-73099142D01*
X106124425Y-73099239D01*
X106124428Y-73099239D01*
X106184733Y-73100344D01*
X106262499Y-73101770D01*
X106267582Y-73100384D01*
X106267584Y-73100384D01*
X106395727Y-73065448D01*
X106395729Y-73065447D01*
X106400817Y-73064060D01*
X106468687Y-73022388D01*
X106518498Y-72991804D01*
X106518499Y-72991803D01*
X106522991Y-72989045D01*
X106619200Y-72882754D01*
X106681710Y-72753733D01*
X106705496Y-72612354D01*
X106705647Y-72600000D01*
X106694502Y-72522174D01*
X106686070Y-72463297D01*
X106686070Y-72463296D01*
X106685323Y-72458082D01*
X106645905Y-72371385D01*
X106628166Y-72332371D01*
X106625984Y-72327572D01*
X106573518Y-72266682D01*
X106568440Y-72260789D01*
X106550500Y-72212485D01*
X106550500Y-68275834D01*
X106567813Y-68228268D01*
X106572174Y-68223508D01*
X109361008Y-65434674D01*
X109406884Y-65413282D01*
X109413334Y-65413000D01*
X115057920Y-65413000D01*
X115105486Y-65430313D01*
X115127740Y-65462481D01*
X115133271Y-65478231D01*
X115146702Y-65516476D01*
X115226070Y-65623930D01*
X115333524Y-65703298D01*
X115459566Y-65747560D01*
X115464049Y-65747984D01*
X115464050Y-65747984D01*
X115488939Y-65750337D01*
X115488946Y-65750337D01*
X115490667Y-65750500D01*
X115999707Y-65750500D01*
X116509332Y-65750499D01*
X116540434Y-65747560D01*
X116544686Y-65746067D01*
X116544690Y-65746066D01*
X116661259Y-65705130D01*
X116666476Y-65703298D01*
X116773930Y-65623930D01*
X116853298Y-65516476D01*
X116897560Y-65390434D01*
X116900500Y-65359333D01*
X116900499Y-64765668D01*
X116897560Y-64734566D01*
X116896067Y-64730314D01*
X116896066Y-64730310D01*
X116855130Y-64613741D01*
X116853298Y-64608524D01*
X116773930Y-64501070D01*
X116666476Y-64421702D01*
X116540434Y-64377440D01*
X116535951Y-64377016D01*
X116535950Y-64377016D01*
X116511061Y-64374663D01*
X116511054Y-64374663D01*
X116509333Y-64374500D01*
X116000293Y-64374500D01*
X115490668Y-64374501D01*
X115459566Y-64377440D01*
X115455314Y-64378933D01*
X115455310Y-64378934D01*
X115349454Y-64416108D01*
X115333524Y-64421702D01*
X115226070Y-64501070D01*
X115146702Y-64608524D01*
X115144870Y-64613741D01*
X115127740Y-64662519D01*
X115095644Y-64701662D01*
X115057920Y-64712000D01*
X109282792Y-64712000D01*
X109267218Y-64710342D01*
X109254240Y-64707548D01*
X109248165Y-64708267D01*
X109248164Y-64708267D01*
X109220959Y-64711487D01*
X109212261Y-64712000D01*
X109208385Y-64712000D01*
X109190806Y-64714926D01*
X109189815Y-64715091D01*
X109186366Y-64715582D01*
X109138362Y-64721263D01*
X109132848Y-64723911D01*
X109131706Y-64724243D01*
X109130908Y-64724425D01*
X109130308Y-64724615D01*
X109129548Y-64724926D01*
X109128433Y-64725308D01*
X109122397Y-64726312D01*
X109117014Y-64729217D01*
X109117013Y-64729217D01*
X109079863Y-64749263D01*
X109076756Y-64750847D01*
X109033174Y-64771774D01*
X109029226Y-64775092D01*
X109028273Y-64776045D01*
X109024810Y-64778968D01*
X109019706Y-64781722D01*
X109015550Y-64786217D01*
X109015551Y-64786217D01*
X108985360Y-64818877D01*
X108983346Y-64820972D01*
X105984184Y-67820134D01*
X105971998Y-67829975D01*
X105965989Y-67833855D01*
X105965987Y-67833857D01*
X105960848Y-67837175D01*
X105957060Y-67841980D01*
X105940106Y-67863486D01*
X105934319Y-67869999D01*
X105931572Y-67872746D01*
X105929801Y-67875224D01*
X105929797Y-67875229D01*
X105920614Y-67888080D01*
X105918540Y-67890843D01*
X105888608Y-67928811D01*
X105886582Y-67934580D01*
X105886012Y-67935617D01*
X105885570Y-67936320D01*
X105885289Y-67936860D01*
X105884972Y-67937617D01*
X105884445Y-67938693D01*
X105880889Y-67943669D01*
X105879136Y-67949531D01*
X105867040Y-67989977D01*
X105865963Y-67993293D01*
X105849945Y-68038906D01*
X105849500Y-68044044D01*
X105849500Y-68045381D01*
X105849116Y-68049912D01*
X105847456Y-68055464D01*
X105847696Y-68061574D01*
X105847696Y-68061575D01*
X105849443Y-68106037D01*
X105849500Y-68108942D01*
X105849500Y-72212725D01*
X105830966Y-72261710D01*
X105777377Y-72322388D01*
X105716447Y-72452163D01*
X105715637Y-72457368D01*
X105715636Y-72457370D01*
X105706128Y-72518437D01*
X105694391Y-72593823D01*
X93300500Y-72593823D01*
X93300500Y-66485821D01*
X93317813Y-66438255D01*
X93322172Y-66433497D01*
X93324434Y-66431234D01*
X93328282Y-66428282D01*
X93370593Y-66373141D01*
X93421584Y-66306689D01*
X93421586Y-66306685D01*
X93424536Y-66302841D01*
X93485044Y-66156762D01*
X93488443Y-66130950D01*
X93505049Y-66004808D01*
X93505682Y-66000000D01*
X93495117Y-65919748D01*
X93485677Y-65848043D01*
X93485676Y-65848040D01*
X93485044Y-65843238D01*
X93424536Y-65697159D01*
X93421586Y-65693315D01*
X93421584Y-65693311D01*
X93331237Y-65575569D01*
X93328282Y-65571718D01*
X93324431Y-65568763D01*
X93206689Y-65478416D01*
X93206685Y-65478414D01*
X93202841Y-65475464D01*
X93056762Y-65414956D01*
X93051960Y-65414324D01*
X93051957Y-65414323D01*
X92904808Y-65394951D01*
X92900000Y-65394318D01*
X92895192Y-65394951D01*
X92748043Y-65414323D01*
X92748040Y-65414324D01*
X92743238Y-65414956D01*
X92597159Y-65475464D01*
X92593315Y-65478414D01*
X92593311Y-65478416D01*
X92475569Y-65568763D01*
X92471718Y-65571718D01*
X92468763Y-65575569D01*
X92378416Y-65693311D01*
X92378414Y-65693315D01*
X92375464Y-65697159D01*
X92314956Y-65843238D01*
X92314324Y-65848040D01*
X92314323Y-65848043D01*
X92304883Y-65919748D01*
X92294318Y-66000000D01*
X92294951Y-66004808D01*
X92311558Y-66130950D01*
X92314956Y-66156762D01*
X92375464Y-66302841D01*
X92378414Y-66306685D01*
X92378416Y-66306689D01*
X92429407Y-66373141D01*
X92471718Y-66428282D01*
X92475566Y-66431234D01*
X92477828Y-66433497D01*
X92499219Y-66479374D01*
X92499500Y-66485821D01*
X92499500Y-77814179D01*
X92482187Y-77861745D01*
X92477828Y-77866503D01*
X92475566Y-77868766D01*
X92471718Y-77871718D01*
X92452963Y-77896160D01*
X92378416Y-77993311D01*
X92378414Y-77993315D01*
X92375464Y-77997159D01*
X92314956Y-78143238D01*
X92314324Y-78148040D01*
X92314323Y-78148043D01*
X92305050Y-78218481D01*
X92294318Y-78300000D01*
X92294951Y-78304808D01*
X92310578Y-78423507D01*
X92299622Y-78472926D01*
X92289537Y-78485492D01*
X90897203Y-79877826D01*
X90851327Y-79899218D01*
X90844877Y-79899500D01*
X90204123Y-79899500D01*
X90156557Y-79882187D01*
X90131247Y-79838350D01*
X90140037Y-79788500D01*
X90151797Y-79773174D01*
X91873901Y-78051070D01*
X91878054Y-78047485D01*
X91882269Y-78045425D01*
X91916227Y-78008818D01*
X91918152Y-78006819D01*
X91932248Y-77992723D01*
X91934176Y-77989912D01*
X91936353Y-77987293D01*
X91936485Y-77987403D01*
X91939039Y-77984227D01*
X91953754Y-77968364D01*
X91953755Y-77968363D01*
X91958401Y-77963354D01*
X91960931Y-77957012D01*
X91960935Y-77957006D01*
X91963699Y-77950077D01*
X91971407Y-77935641D01*
X91975624Y-77929493D01*
X91975625Y-77929492D01*
X91979492Y-77923854D01*
X91981485Y-77915459D01*
X91986064Y-77896160D01*
X91989332Y-77885824D01*
X91990992Y-77881664D01*
X91999883Y-77859378D01*
X92000500Y-77853085D01*
X92000500Y-77843988D01*
X92002500Y-77826901D01*
X92003762Y-77821585D01*
X92003762Y-77821583D01*
X92005340Y-77814934D01*
X92001176Y-77784337D01*
X92000500Y-77774358D01*
X92000500Y-75641489D01*
X92017813Y-75593923D01*
X92022273Y-75589486D01*
X92022991Y-75589045D01*
X92119200Y-75482754D01*
X92181710Y-75353733D01*
X92205496Y-75212354D01*
X92205647Y-75200000D01*
X92203885Y-75187698D01*
X92186070Y-75063297D01*
X92186070Y-75063296D01*
X92185323Y-75058082D01*
X92125984Y-74927572D01*
X92032400Y-74818963D01*
X92027981Y-74816099D01*
X92027979Y-74816097D01*
X91961102Y-74772750D01*
X91912095Y-74740985D01*
X91808168Y-74709904D01*
X91779792Y-74701418D01*
X91779791Y-74701418D01*
X91774739Y-74699907D01*
X91701103Y-74699457D01*
X91636646Y-74699063D01*
X91636645Y-74699063D01*
X91631376Y-74699031D01*
X91493529Y-74738428D01*
X91372280Y-74814930D01*
X91365193Y-74822955D01*
X91284569Y-74914245D01*
X91277377Y-74922388D01*
X91216447Y-75052163D01*
X91215637Y-75057368D01*
X91215636Y-75057370D01*
X91209266Y-75098287D01*
X91194391Y-75193823D01*
X91195074Y-75199046D01*
X91195074Y-75199049D01*
X91202412Y-75255164D01*
X91212980Y-75335979D01*
X91270720Y-75467203D01*
X91274112Y-75471238D01*
X91359580Y-75572916D01*
X91359583Y-75572919D01*
X91362970Y-75576948D01*
X91367356Y-75579867D01*
X91371287Y-75583382D01*
X91370311Y-75584473D01*
X91396507Y-75620068D01*
X91399500Y-75640901D01*
X91399500Y-77644877D01*
X91382187Y-77692443D01*
X91377826Y-77697203D01*
X89597203Y-79477826D01*
X89551327Y-79499218D01*
X89544877Y-79499500D01*
X89429166Y-79499500D01*
X89381600Y-79482187D01*
X89356290Y-79438350D01*
X89362571Y-79393237D01*
X89381710Y-79353733D01*
X89405496Y-79212354D01*
X89405647Y-79200000D01*
X89396180Y-79133892D01*
X89386070Y-79063297D01*
X89386070Y-79063296D01*
X89385323Y-79058082D01*
X89359551Y-79001398D01*
X89328166Y-78932371D01*
X89325984Y-78927572D01*
X89265182Y-78857008D01*
X89235840Y-78822955D01*
X89235839Y-78822954D01*
X89232400Y-78818963D01*
X89227981Y-78816099D01*
X89227979Y-78816097D01*
X89181265Y-78785819D01*
X89112095Y-78740985D01*
X89002345Y-78708163D01*
X88979792Y-78701418D01*
X88979791Y-78701418D01*
X88974739Y-78699907D01*
X88901103Y-78699457D01*
X88836646Y-78699063D01*
X88836645Y-78699063D01*
X88831376Y-78699031D01*
X88693529Y-78738428D01*
X88572280Y-78814930D01*
X88541232Y-78850086D01*
X88519683Y-78874485D01*
X88475219Y-78898678D01*
X88464217Y-78899500D01*
X82705123Y-78899500D01*
X82657557Y-78882187D01*
X82652797Y-78877826D01*
X81172174Y-77397203D01*
X81150782Y-77351327D01*
X81150500Y-77344877D01*
X81150500Y-72104567D01*
X81150902Y-72099094D01*
X81152425Y-72094658D01*
X81150552Y-72044759D01*
X81150500Y-72041983D01*
X81150500Y-72022052D01*
X81149876Y-72018700D01*
X81149563Y-72015309D01*
X81149753Y-72015291D01*
X81149294Y-72011242D01*
X81149190Y-72008480D01*
X81148226Y-71982792D01*
X81145529Y-71976515D01*
X81145528Y-71976510D01*
X81142584Y-71969657D01*
X81137826Y-71953998D01*
X81136460Y-71946664D01*
X81135209Y-71939947D01*
X81131624Y-71934132D01*
X81131623Y-71934128D01*
X81120270Y-71915710D01*
X81115274Y-71906093D01*
X81106099Y-71884738D01*
X81106098Y-71884736D01*
X81104036Y-71879937D01*
X81100022Y-71875051D01*
X81093591Y-71868620D01*
X81082923Y-71855124D01*
X81080053Y-71850468D01*
X81076468Y-71844652D01*
X81064525Y-71835570D01*
X81051888Y-71825961D01*
X81044354Y-71819383D01*
X77022657Y-67797686D01*
X77001265Y-67751810D01*
X77002008Y-67733084D01*
X77005496Y-67712354D01*
X77005647Y-67700000D01*
X77000135Y-67661510D01*
X76986070Y-67563297D01*
X76986070Y-67563296D01*
X76985323Y-67558082D01*
X76946040Y-67471682D01*
X76928166Y-67432371D01*
X76925984Y-67427572D01*
X76832400Y-67318963D01*
X76827981Y-67316099D01*
X76827979Y-67316097D01*
X76785803Y-67288760D01*
X76712095Y-67240985D01*
X76608168Y-67209904D01*
X76579792Y-67201418D01*
X76579791Y-67201418D01*
X76574739Y-67199907D01*
X76501103Y-67199457D01*
X76436646Y-67199063D01*
X76436645Y-67199063D01*
X76431376Y-67199031D01*
X76293529Y-67238428D01*
X76172280Y-67314930D01*
X76077377Y-67422388D01*
X76016447Y-67552163D01*
X76012074Y-67580252D01*
X76006622Y-67615265D01*
X75982197Y-67659601D01*
X75934988Y-67677865D01*
X75887084Y-67661510D01*
X75881177Y-67656206D01*
X72301070Y-64076099D01*
X72297485Y-64071946D01*
X72295425Y-64067731D01*
X72258818Y-64033773D01*
X72256819Y-64031848D01*
X72242723Y-64017752D01*
X72239912Y-64015824D01*
X72237293Y-64013647D01*
X72237403Y-64013515D01*
X72234227Y-64010961D01*
X72218364Y-63996246D01*
X72218363Y-63996245D01*
X72213354Y-63991599D01*
X72207012Y-63989069D01*
X72207006Y-63989065D01*
X72200077Y-63986301D01*
X72185641Y-63978593D01*
X72179493Y-63974376D01*
X72179492Y-63974375D01*
X72173854Y-63970508D01*
X72167204Y-63968930D01*
X72167202Y-63968929D01*
X72146160Y-63963936D01*
X72135824Y-63960668D01*
X72122740Y-63955448D01*
X72109378Y-63950117D01*
X72103085Y-63949500D01*
X72093988Y-63949500D01*
X72076901Y-63947500D01*
X72071585Y-63946238D01*
X72071583Y-63946238D01*
X72064934Y-63944660D01*
X72044066Y-63947500D01*
X72034337Y-63948824D01*
X72024358Y-63949500D01*
X61698454Y-63949500D01*
X61650888Y-63932187D01*
X61628917Y-63900810D01*
X61621362Y-63880052D01*
X61616075Y-63877000D01*
X59988048Y-63877000D01*
X59978052Y-63880638D01*
X59975000Y-63885925D01*
X59975000Y-63916058D01*
X59975710Y-63923268D01*
X59985182Y-63970887D01*
X59985235Y-63971015D01*
X59985243Y-63971192D01*
X59986604Y-63978036D01*
X59985551Y-63978246D01*
X59987370Y-64019917D01*
X59986133Y-64021769D01*
X59984711Y-64028918D01*
X59976991Y-64067731D01*
X59974500Y-64080252D01*
X59974500Y-64419748D01*
X59975210Y-64423317D01*
X59975210Y-64423318D01*
X59975543Y-64424989D01*
X59984995Y-64472510D01*
X59984995Y-64472511D01*
X59986133Y-64478231D01*
X59985253Y-64478406D01*
X59987084Y-64520346D01*
X59986133Y-64521769D01*
X59974500Y-64580252D01*
X59974500Y-64919748D01*
X59984995Y-64972510D01*
X59984995Y-64972511D01*
X59986133Y-64978231D01*
X59985253Y-64978406D01*
X59987084Y-65020346D01*
X59986133Y-65021769D01*
X59974500Y-65080252D01*
X59974500Y-65419748D01*
X59975210Y-65423317D01*
X59975210Y-65423318D01*
X59976602Y-65430313D01*
X59984995Y-65472510D01*
X59984995Y-65472511D01*
X59986133Y-65478231D01*
X59985253Y-65478406D01*
X59987084Y-65520346D01*
X59986133Y-65521769D01*
X59984712Y-65528914D01*
X59984711Y-65528916D01*
X59975210Y-65576682D01*
X59974500Y-65580252D01*
X59974500Y-65919748D01*
X59984995Y-65972510D01*
X59984995Y-65972511D01*
X59986133Y-65978231D01*
X59985253Y-65978406D01*
X59987084Y-66020346D01*
X59986133Y-66021769D01*
X59984712Y-66028914D01*
X59984711Y-66028916D01*
X59976974Y-66067813D01*
X59974500Y-66080252D01*
X59974500Y-66419748D01*
X59975210Y-66423317D01*
X59975210Y-66423318D01*
X59976198Y-66428282D01*
X59984995Y-66472510D01*
X59984995Y-66472511D01*
X59986133Y-66478231D01*
X59985253Y-66478406D01*
X59987084Y-66520346D01*
X59986133Y-66521769D01*
X59984712Y-66528914D01*
X59984711Y-66528916D01*
X59976974Y-66567813D01*
X59974500Y-66580252D01*
X59974500Y-66875500D01*
X59957187Y-66923066D01*
X59913350Y-66948376D01*
X59900500Y-66949500D01*
X59659285Y-66949500D01*
X59614236Y-66934207D01*
X59606693Y-66928419D01*
X59606688Y-66928416D01*
X59602841Y-66925464D01*
X59456762Y-66864956D01*
X59451960Y-66864324D01*
X59451957Y-66864323D01*
X59304808Y-66844951D01*
X59300000Y-66844318D01*
X59295192Y-66844951D01*
X59148043Y-66864323D01*
X59148040Y-66864324D01*
X59143238Y-66864956D01*
X58997159Y-66925464D01*
X58993315Y-66928414D01*
X58993311Y-66928416D01*
X58877459Y-67017313D01*
X58871718Y-67021718D01*
X58868763Y-67025569D01*
X58778416Y-67143311D01*
X58778414Y-67143315D01*
X58775464Y-67147159D01*
X58714956Y-67293238D01*
X58714324Y-67298040D01*
X58714323Y-67298043D01*
X58702741Y-67386021D01*
X58694318Y-67450000D01*
X50200000Y-67450000D01*
X50200000Y-63541973D01*
X50892776Y-63541973D01*
X50894173Y-63547183D01*
X50895059Y-63547941D01*
X51094404Y-63694105D01*
X51099033Y-63696998D01*
X51317796Y-63812095D01*
X51322817Y-63814279D01*
X51556181Y-63895773D01*
X51561476Y-63897191D01*
X51804316Y-63943297D01*
X51809758Y-63943917D01*
X52056751Y-63953621D01*
X52062229Y-63953430D01*
X52307933Y-63926521D01*
X52313331Y-63925520D01*
X52552359Y-63862589D01*
X52557540Y-63860805D01*
X52784649Y-63763232D01*
X52789513Y-63760699D01*
X52999701Y-63630631D01*
X53004136Y-63627408D01*
X53099056Y-63547053D01*
X53101959Y-63541973D01*
X55892776Y-63541973D01*
X55894173Y-63547183D01*
X55895059Y-63547941D01*
X56094404Y-63694105D01*
X56099033Y-63696998D01*
X56317796Y-63812095D01*
X56322817Y-63814279D01*
X56556181Y-63895773D01*
X56561476Y-63897191D01*
X56804316Y-63943297D01*
X56809758Y-63943917D01*
X57056751Y-63953621D01*
X57062229Y-63953430D01*
X57307933Y-63926521D01*
X57313331Y-63925520D01*
X57552359Y-63862589D01*
X57557540Y-63860805D01*
X57784649Y-63763232D01*
X57789513Y-63760699D01*
X57999701Y-63630631D01*
X58004136Y-63627408D01*
X58099056Y-63547053D01*
X58104335Y-63537816D01*
X58103480Y-63533085D01*
X57009226Y-62438831D01*
X56999587Y-62434336D01*
X56993688Y-62435917D01*
X55897271Y-63532334D01*
X55892776Y-63541973D01*
X53101959Y-63541973D01*
X53104335Y-63537816D01*
X53103480Y-63533085D01*
X52009226Y-62438831D01*
X51999587Y-62434336D01*
X51993688Y-62435917D01*
X50897271Y-63532334D01*
X50892776Y-63541973D01*
X50200000Y-63541973D01*
X50200000Y-62666440D01*
X50217313Y-62618874D01*
X50261150Y-62593564D01*
X50311000Y-62602354D01*
X50343537Y-62641131D01*
X50346578Y-62652003D01*
X50356699Y-62702884D01*
X50358164Y-62708165D01*
X50441691Y-62940808D01*
X50443916Y-62945807D01*
X50560913Y-63163549D01*
X50563859Y-63168174D01*
X50700703Y-63351430D01*
X50709598Y-63357262D01*
X50713608Y-63356787D01*
X51811169Y-62259226D01*
X51815279Y-62250413D01*
X52184336Y-62250413D01*
X52185917Y-62256312D01*
X53279407Y-63349802D01*
X53289046Y-63354297D01*
X53293930Y-63352988D01*
X53359679Y-63278015D01*
X53362971Y-63273648D01*
X53496692Y-63065756D01*
X53499308Y-63060937D01*
X53600827Y-62835572D01*
X53602703Y-62830422D01*
X53669798Y-62592517D01*
X53670890Y-62587151D01*
X53702196Y-62341070D01*
X53702480Y-62337365D01*
X53704718Y-62251854D01*
X53704630Y-62248152D01*
X53701655Y-62208118D01*
X55295949Y-62208118D01*
X55307808Y-62455021D01*
X55308475Y-62460449D01*
X55356699Y-62702884D01*
X55358164Y-62708165D01*
X55441691Y-62940808D01*
X55443916Y-62945807D01*
X55560913Y-63163549D01*
X55563859Y-63168174D01*
X55700703Y-63351430D01*
X55709598Y-63357262D01*
X55713608Y-63356787D01*
X56811169Y-62259226D01*
X56815279Y-62250413D01*
X57184336Y-62250413D01*
X57185917Y-62256312D01*
X58279407Y-63349802D01*
X58289046Y-63354297D01*
X58293930Y-63352988D01*
X58359679Y-63278015D01*
X58362971Y-63273648D01*
X58496692Y-63065756D01*
X58499308Y-63060937D01*
X58600827Y-62835572D01*
X58602703Y-62830422D01*
X58669798Y-62592517D01*
X58670890Y-62587151D01*
X58702196Y-62341070D01*
X58702480Y-62337365D01*
X58704718Y-62251854D01*
X58704630Y-62248152D01*
X58686245Y-62000748D01*
X58685437Y-61995345D01*
X58630884Y-61754258D01*
X58629281Y-61749012D01*
X58539691Y-61518633D01*
X58537338Y-61513700D01*
X58414678Y-61299089D01*
X58411614Y-61294547D01*
X58297780Y-61150150D01*
X58288735Y-61144552D01*
X58284428Y-61145177D01*
X57188831Y-62240774D01*
X57184336Y-62250413D01*
X56815279Y-62250413D01*
X56815664Y-62249587D01*
X56814083Y-62243688D01*
X55720473Y-61150078D01*
X55710834Y-61145583D01*
X55706302Y-61146798D01*
X55613882Y-61257922D01*
X55610693Y-61262394D01*
X55482467Y-61473702D01*
X55479980Y-61478582D01*
X55384391Y-61706536D01*
X55382652Y-61711734D01*
X55321807Y-61951311D01*
X55320858Y-61956696D01*
X55296092Y-62202642D01*
X55295949Y-62208118D01*
X53701655Y-62208118D01*
X53686245Y-62000748D01*
X53685437Y-61995345D01*
X53630884Y-61754258D01*
X53629281Y-61749012D01*
X53539691Y-61518633D01*
X53537338Y-61513700D01*
X53414678Y-61299089D01*
X53411614Y-61294547D01*
X53297780Y-61150150D01*
X53288735Y-61144552D01*
X53284428Y-61145177D01*
X52188831Y-62240774D01*
X52184336Y-62250413D01*
X51815279Y-62250413D01*
X51815664Y-62249587D01*
X51814083Y-62243688D01*
X50720473Y-61150078D01*
X50710834Y-61145583D01*
X50706302Y-61146798D01*
X50613882Y-61257922D01*
X50610693Y-61262394D01*
X50482467Y-61473702D01*
X50479980Y-61478582D01*
X50384391Y-61706536D01*
X50382652Y-61711734D01*
X50345723Y-61857143D01*
X50317234Y-61898984D01*
X50268516Y-61912725D01*
X50222364Y-61891934D01*
X50200372Y-61846342D01*
X50200000Y-61838928D01*
X50200000Y-60961906D01*
X50895528Y-60961906D01*
X50896583Y-60966978D01*
X51990774Y-62061169D01*
X52000413Y-62065664D01*
X52006312Y-62064083D01*
X53100927Y-60969468D01*
X53104453Y-60961906D01*
X55895528Y-60961906D01*
X55896583Y-60966978D01*
X56990774Y-62061169D01*
X57000413Y-62065664D01*
X57006312Y-62064083D01*
X58100927Y-60969468D01*
X58105422Y-60959829D01*
X58103975Y-60954430D01*
X58074846Y-60927029D01*
X58070589Y-60923582D01*
X57867494Y-60782690D01*
X57862769Y-60779907D01*
X57641081Y-60670583D01*
X57635998Y-60668530D01*
X57400594Y-60593176D01*
X57395254Y-60591894D01*
X57151281Y-60552160D01*
X57145844Y-60551684D01*
X56898671Y-60548449D01*
X56893203Y-60548784D01*
X56648274Y-60582117D01*
X56642931Y-60583252D01*
X56405608Y-60652425D01*
X56400492Y-60654338D01*
X56176001Y-60757830D01*
X56171219Y-60760481D01*
X55964502Y-60896010D01*
X55960152Y-60899348D01*
X55900564Y-60952533D01*
X55895528Y-60961906D01*
X53104453Y-60961906D01*
X53105422Y-60959829D01*
X53103975Y-60954430D01*
X53074846Y-60927029D01*
X53070589Y-60923582D01*
X52867494Y-60782690D01*
X52862769Y-60779907D01*
X52641081Y-60670583D01*
X52635998Y-60668530D01*
X52400594Y-60593176D01*
X52395254Y-60591894D01*
X52151281Y-60552160D01*
X52145844Y-60551684D01*
X51898671Y-60548449D01*
X51893203Y-60548784D01*
X51648274Y-60582117D01*
X51642931Y-60583252D01*
X51405608Y-60652425D01*
X51400492Y-60654338D01*
X51176001Y-60757830D01*
X51171219Y-60760481D01*
X50964502Y-60896010D01*
X50960152Y-60899348D01*
X50900564Y-60952533D01*
X50895528Y-60961906D01*
X50200000Y-60961906D01*
X50200000Y-59493823D01*
X57544391Y-59493823D01*
X57545074Y-59499046D01*
X57545074Y-59499049D01*
X57545573Y-59502862D01*
X57562980Y-59635979D01*
X57620720Y-59767203D01*
X57624112Y-59771238D01*
X57709580Y-59872916D01*
X57709583Y-59872919D01*
X57712970Y-59876948D01*
X57745898Y-59898867D01*
X57827924Y-59953469D01*
X57827927Y-59953470D01*
X57832313Y-59956390D01*
X57969157Y-59999142D01*
X57974425Y-59999239D01*
X57974428Y-59999239D01*
X58097212Y-60001490D01*
X58148181Y-60023152D01*
X58427826Y-60302797D01*
X58449218Y-60348673D01*
X58449500Y-60355123D01*
X58449500Y-60795433D01*
X58449098Y-60800906D01*
X58447575Y-60805342D01*
X58447831Y-60812166D01*
X58447831Y-60812167D01*
X58449448Y-60855241D01*
X58449500Y-60858017D01*
X58449500Y-60877948D01*
X58450124Y-60881300D01*
X58450437Y-60884691D01*
X58450247Y-60884709D01*
X58450706Y-60888755D01*
X58451774Y-60917208D01*
X58454471Y-60923485D01*
X58454472Y-60923490D01*
X58457416Y-60930343D01*
X58462174Y-60946002D01*
X58464791Y-60960053D01*
X58468376Y-60965868D01*
X58468377Y-60965872D01*
X58479730Y-60984290D01*
X58484726Y-60993907D01*
X58495964Y-61020063D01*
X58499978Y-61024949D01*
X58506409Y-61031380D01*
X58517076Y-61044875D01*
X58523532Y-61055348D01*
X58528971Y-61059484D01*
X58548112Y-61074039D01*
X58555646Y-61080617D01*
X59898930Y-62423901D01*
X59902515Y-62428054D01*
X59904575Y-62432269D01*
X59911649Y-62438831D01*
X59941181Y-62466226D01*
X59943181Y-62468152D01*
X59957277Y-62482248D01*
X59956680Y-62482845D01*
X59980497Y-62523645D01*
X59980262Y-62551280D01*
X59975211Y-62576677D01*
X59974500Y-62580252D01*
X59974500Y-62919748D01*
X59984995Y-62972510D01*
X59984995Y-62972511D01*
X59986133Y-62978231D01*
X59985253Y-62978406D01*
X59987084Y-63020346D01*
X59986133Y-63021769D01*
X59974500Y-63080252D01*
X59974500Y-63419748D01*
X59985312Y-63474102D01*
X59986133Y-63478231D01*
X59985497Y-63478357D01*
X59987443Y-63522917D01*
X59985235Y-63528985D01*
X59985182Y-63529113D01*
X59975710Y-63576732D01*
X59975000Y-63583942D01*
X59975000Y-63609952D01*
X59978638Y-63619948D01*
X59983925Y-63623000D01*
X61611952Y-63623000D01*
X61621948Y-63619362D01*
X61625000Y-63614075D01*
X61625000Y-63583942D01*
X61624290Y-63576732D01*
X61614818Y-63529113D01*
X61614765Y-63528985D01*
X61614757Y-63528808D01*
X61613396Y-63521964D01*
X61614449Y-63521754D01*
X61612630Y-63480083D01*
X61613867Y-63478231D01*
X61625500Y-63419748D01*
X61625500Y-63080252D01*
X61613867Y-63021769D01*
X61614747Y-63021594D01*
X61612916Y-62979654D01*
X61613867Y-62978231D01*
X61625500Y-62919748D01*
X61625500Y-62580252D01*
X61613867Y-62521769D01*
X61614747Y-62521594D01*
X61612916Y-62479654D01*
X61613867Y-62478231D01*
X61616067Y-62467175D01*
X61624790Y-62423318D01*
X61624790Y-62423317D01*
X61625500Y-62419748D01*
X61625500Y-62080252D01*
X61613867Y-62021769D01*
X61614747Y-62021594D01*
X61612916Y-61979654D01*
X61613867Y-61978231D01*
X61625500Y-61919748D01*
X61625500Y-61580252D01*
X61619459Y-61549883D01*
X61615289Y-61528916D01*
X61615288Y-61528914D01*
X61613867Y-61521769D01*
X61614747Y-61521594D01*
X61612916Y-61479654D01*
X61613867Y-61478231D01*
X61625500Y-61419748D01*
X61625500Y-61080252D01*
X61621369Y-61059484D01*
X61615289Y-61028916D01*
X61615288Y-61028914D01*
X61614300Y-61023943D01*
X61613867Y-61021769D01*
X61614747Y-61021594D01*
X61612916Y-60979654D01*
X61613867Y-60978231D01*
X61616106Y-60966978D01*
X61624790Y-60923318D01*
X61624790Y-60923317D01*
X61625500Y-60919748D01*
X61625500Y-60580252D01*
X61619912Y-60552160D01*
X61615289Y-60528916D01*
X61615288Y-60528914D01*
X61613867Y-60521769D01*
X61614747Y-60521594D01*
X61612916Y-60479654D01*
X61613867Y-60478231D01*
X61625500Y-60419748D01*
X61625500Y-60080252D01*
X61624790Y-60076682D01*
X61615289Y-60028916D01*
X61615288Y-60028914D01*
X61613867Y-60021769D01*
X61609818Y-60015709D01*
X61608621Y-60012820D01*
X61606411Y-59962250D01*
X61637225Y-59922090D01*
X61676987Y-59910500D01*
X64644748Y-59910500D01*
X64648317Y-59909790D01*
X64648318Y-59909790D01*
X64658705Y-59907724D01*
X64703231Y-59898867D01*
X64721954Y-59886357D01*
X64763491Y-59858602D01*
X64769552Y-59854552D01*
X64774097Y-59847750D01*
X64809816Y-59794294D01*
X64809816Y-59794293D01*
X64813867Y-59788231D01*
X64825500Y-59729748D01*
X64825500Y-57690252D01*
X64813867Y-57631769D01*
X64769552Y-57565448D01*
X64703231Y-57521133D01*
X64658705Y-57512276D01*
X64648318Y-57510210D01*
X64648317Y-57510210D01*
X64644748Y-57509500D01*
X61605252Y-57509500D01*
X61601683Y-57510210D01*
X61601682Y-57510210D01*
X61591295Y-57512276D01*
X61546769Y-57521133D01*
X61480448Y-57565448D01*
X61436133Y-57631769D01*
X61424500Y-57690252D01*
X61424500Y-59729748D01*
X61425210Y-59733317D01*
X61425210Y-59733318D01*
X61434711Y-59781080D01*
X61436133Y-59788231D01*
X61440182Y-59794291D01*
X61441379Y-59797180D01*
X61443589Y-59847750D01*
X61412775Y-59887910D01*
X61373013Y-59899500D01*
X60155252Y-59899500D01*
X60151683Y-59900210D01*
X60151682Y-59900210D01*
X60151285Y-59900289D01*
X60101299Y-59910232D01*
X60101296Y-59910232D01*
X60096769Y-59911133D01*
X60096630Y-59910436D01*
X60052247Y-59912374D01*
X60012089Y-59881558D01*
X60000500Y-59841799D01*
X60000500Y-58005123D01*
X60017813Y-57957557D01*
X60022174Y-57952797D01*
X60753470Y-57221501D01*
X60799346Y-57200109D01*
X60807152Y-57199839D01*
X60862105Y-57200846D01*
X60912499Y-57201770D01*
X60917581Y-57200385D01*
X60917585Y-57200384D01*
X61045727Y-57165448D01*
X61045729Y-57165447D01*
X61050817Y-57164060D01*
X61172991Y-57089045D01*
X61269200Y-56982754D01*
X61331710Y-56853733D01*
X61355496Y-56712354D01*
X61355647Y-56700000D01*
X61335323Y-56558082D01*
X61298688Y-56477506D01*
X61278166Y-56432371D01*
X61275984Y-56427572D01*
X61182400Y-56318963D01*
X61177981Y-56316099D01*
X61177979Y-56316097D01*
X61138068Y-56290228D01*
X61062095Y-56240985D01*
X60958168Y-56209904D01*
X60929792Y-56201418D01*
X60929791Y-56201418D01*
X60924739Y-56199907D01*
X60811095Y-56199213D01*
X60763636Y-56181610D01*
X60738595Y-56137619D01*
X60738574Y-56112937D01*
X60755021Y-56015177D01*
X60755496Y-56012354D01*
X60755647Y-56000000D01*
X60735323Y-55858082D01*
X60675984Y-55727572D01*
X60582400Y-55618963D01*
X60577981Y-55616099D01*
X60577979Y-55616097D01*
X60538068Y-55590228D01*
X60462095Y-55540985D01*
X60358168Y-55509904D01*
X60329792Y-55501418D01*
X60329791Y-55501418D01*
X60324739Y-55499907D01*
X60251103Y-55499457D01*
X60186646Y-55499063D01*
X60186645Y-55499063D01*
X60181376Y-55499031D01*
X60043529Y-55538428D01*
X59922280Y-55614930D01*
X59827377Y-55722388D01*
X59766447Y-55852163D01*
X59744391Y-55993823D01*
X59745074Y-55999046D01*
X59745074Y-55999049D01*
X59749704Y-56034453D01*
X59738705Y-56083863D01*
X59728655Y-56096374D01*
X59166579Y-56658450D01*
X59162426Y-56662035D01*
X59158211Y-56664095D01*
X59130634Y-56693823D01*
X59124254Y-56700701D01*
X59122328Y-56702701D01*
X59108232Y-56716797D01*
X59106304Y-56719608D01*
X59104127Y-56722227D01*
X59103995Y-56722117D01*
X59101441Y-56725293D01*
X59082079Y-56746166D01*
X59079549Y-56752508D01*
X59079545Y-56752514D01*
X59076781Y-56759443D01*
X59069073Y-56773879D01*
X59064856Y-56780027D01*
X59060988Y-56785666D01*
X59059410Y-56792316D01*
X59059409Y-56792318D01*
X59054416Y-56813360D01*
X59051148Y-56823696D01*
X59040597Y-56850142D01*
X59039980Y-56856435D01*
X59039980Y-56865532D01*
X59037980Y-56882618D01*
X59035140Y-56894586D01*
X59036062Y-56901359D01*
X59039304Y-56925183D01*
X59039980Y-56935162D01*
X59039980Y-59886357D01*
X59022667Y-59933923D01*
X58978830Y-59959233D01*
X58928980Y-59950443D01*
X58913654Y-59938683D01*
X58572657Y-59597686D01*
X58551265Y-59551810D01*
X58552008Y-59533084D01*
X58555496Y-59512354D01*
X58555647Y-59500000D01*
X58535323Y-59358082D01*
X58475984Y-59227572D01*
X58382400Y-59118963D01*
X58377981Y-59116099D01*
X58377979Y-59116097D01*
X58338068Y-59090228D01*
X58262095Y-59040985D01*
X58158168Y-59009904D01*
X58129792Y-59001418D01*
X58129791Y-59001418D01*
X58124739Y-58999907D01*
X58051103Y-58999457D01*
X57986646Y-58999063D01*
X57986645Y-58999063D01*
X57981376Y-58999031D01*
X57843529Y-59038428D01*
X57722280Y-59114930D01*
X57627377Y-59222388D01*
X57566447Y-59352163D01*
X57544391Y-59493823D01*
X50200000Y-59493823D01*
X50200000Y-52866058D01*
X51950000Y-52866058D01*
X51950710Y-52873268D01*
X51960182Y-52920890D01*
X51965652Y-52934094D01*
X52001759Y-52988132D01*
X52011868Y-52998241D01*
X52065906Y-53034348D01*
X52079110Y-53039818D01*
X52126732Y-53049290D01*
X52133942Y-53050000D01*
X52859952Y-53050000D01*
X52869948Y-53046362D01*
X52873000Y-53041075D01*
X52873000Y-53036952D01*
X53127000Y-53036952D01*
X53130638Y-53046948D01*
X53135925Y-53050000D01*
X53866058Y-53050000D01*
X53873268Y-53049290D01*
X53920890Y-53039818D01*
X53934094Y-53034348D01*
X53988132Y-52998241D01*
X53998241Y-52988132D01*
X54034348Y-52934094D01*
X54039818Y-52920890D01*
X54049290Y-52873268D01*
X54049637Y-52869748D01*
X113949500Y-52869748D01*
X113961133Y-52928231D01*
X114005448Y-52994552D01*
X114011509Y-52998602D01*
X114013066Y-52999642D01*
X114071769Y-53038867D01*
X114109449Y-53046362D01*
X114126682Y-53049790D01*
X114126683Y-53049790D01*
X114130252Y-53050500D01*
X115869748Y-53050500D01*
X115873317Y-53049790D01*
X115873318Y-53049790D01*
X115890551Y-53046362D01*
X115928231Y-53038867D01*
X115986935Y-52999642D01*
X115988491Y-52998602D01*
X115994552Y-52994552D01*
X116038867Y-52928231D01*
X116050500Y-52869748D01*
X116050500Y-51130252D01*
X116038867Y-51071769D01*
X116011709Y-51031124D01*
X115998602Y-51011509D01*
X115994552Y-51005448D01*
X115970785Y-50989567D01*
X115934294Y-50965184D01*
X115934293Y-50965184D01*
X115928231Y-50961133D01*
X115883705Y-50952276D01*
X115873318Y-50950210D01*
X115873317Y-50950210D01*
X115869748Y-50949500D01*
X114130252Y-50949500D01*
X114126683Y-50950210D01*
X114126682Y-50950210D01*
X114116295Y-50952276D01*
X114071769Y-50961133D01*
X114065707Y-50965184D01*
X114065706Y-50965184D01*
X114029215Y-50989567D01*
X114005448Y-51005448D01*
X114001398Y-51011509D01*
X113988292Y-51031124D01*
X113961133Y-51071769D01*
X113949500Y-51130252D01*
X113949500Y-52869748D01*
X54049637Y-52869748D01*
X54050000Y-52866058D01*
X54050000Y-52140048D01*
X54046362Y-52130052D01*
X54041075Y-52127000D01*
X53140048Y-52127000D01*
X53130052Y-52130638D01*
X53127000Y-52135925D01*
X53127000Y-53036952D01*
X52873000Y-53036952D01*
X52873000Y-52140048D01*
X52869362Y-52130052D01*
X52864075Y-52127000D01*
X51963048Y-52127000D01*
X51953052Y-52130638D01*
X51950000Y-52135925D01*
X51950000Y-52866058D01*
X50200000Y-52866058D01*
X50200000Y-51859952D01*
X51950000Y-51859952D01*
X51953638Y-51869948D01*
X51958925Y-51873000D01*
X52859952Y-51873000D01*
X52869948Y-51869362D01*
X52873000Y-51864075D01*
X52873000Y-51859952D01*
X53127000Y-51859952D01*
X53130638Y-51869948D01*
X53135925Y-51873000D01*
X54036952Y-51873000D01*
X54046948Y-51869362D01*
X54050000Y-51864075D01*
X54050000Y-51133942D01*
X54049290Y-51126732D01*
X54039818Y-51079110D01*
X54034348Y-51065906D01*
X53998241Y-51011868D01*
X53988132Y-51001759D01*
X53934094Y-50965652D01*
X53920890Y-50960182D01*
X53873268Y-50950710D01*
X53866058Y-50950000D01*
X53140048Y-50950000D01*
X53130052Y-50953638D01*
X53127000Y-50958925D01*
X53127000Y-51859952D01*
X52873000Y-51859952D01*
X52873000Y-50963048D01*
X52869362Y-50953052D01*
X52864075Y-50950000D01*
X52133942Y-50950000D01*
X52126732Y-50950710D01*
X52079110Y-50960182D01*
X52065906Y-50965652D01*
X52011868Y-51001759D01*
X52001759Y-51011868D01*
X51965652Y-51065906D01*
X51960182Y-51079110D01*
X51950710Y-51126732D01*
X51950000Y-51133942D01*
X51950000Y-51859952D01*
X50200000Y-51859952D01*
X50200000Y-51031124D01*
X50201882Y-51014540D01*
X50202579Y-51011509D01*
X50205143Y-51000359D01*
X50203303Y-50992230D01*
X50203318Y-50983898D01*
X50203418Y-50983898D01*
X50202708Y-50972504D01*
X50203640Y-50963048D01*
X50206173Y-50937322D01*
X50214658Y-50851181D01*
X50217488Y-50836954D01*
X50258782Y-50700825D01*
X50264331Y-50687430D01*
X50331391Y-50561969D01*
X50339447Y-50549913D01*
X50429691Y-50439949D01*
X50439949Y-50429691D01*
X50549913Y-50339447D01*
X50561969Y-50331391D01*
X50687430Y-50264331D01*
X50700822Y-50258783D01*
X50761034Y-50240518D01*
X50836954Y-50217488D01*
X50851181Y-50214658D01*
X50924393Y-50207447D01*
X50972049Y-50202753D01*
X50983187Y-50203466D01*
X50983187Y-50203261D01*
X50991522Y-50203276D01*
X50999643Y-50205143D01*
X51007770Y-50203304D01*
X51007772Y-50203304D01*
X51014307Y-50201825D01*
X51030638Y-50200000D01*
X126968877Y-50200000D01*
X126985461Y-50201882D01*
G37*
%TD.AperFunction*%
%TD*%
%TA.AperFunction,Conductor*%
%TO.N,/GPS_RF*%
G36*
X128357148Y-66351422D02*
G01*
X128401363Y-66360217D01*
X128431234Y-66366158D01*
X128457909Y-66377207D01*
X128514538Y-66415045D01*
X128534955Y-66435462D01*
X128572793Y-66492091D01*
X128583842Y-66518767D01*
X128598578Y-66592852D01*
X128600000Y-66607288D01*
X128600000Y-66924831D01*
X128599919Y-66928289D01*
X128599070Y-66946439D01*
X128598426Y-66953313D01*
X128595884Y-66971326D01*
X128595323Y-66974720D01*
X128401881Y-67997202D01*
X128261128Y-68741183D01*
X128250000Y-68800000D01*
X128250000Y-69642712D01*
X128248578Y-69657148D01*
X128233842Y-69731233D01*
X128222793Y-69757909D01*
X128184955Y-69814538D01*
X128164538Y-69834955D01*
X128107909Y-69872793D01*
X128081234Y-69883842D01*
X128051363Y-69889783D01*
X128007148Y-69898578D01*
X127992712Y-69900000D01*
X127707288Y-69900000D01*
X127692852Y-69898578D01*
X127648637Y-69889783D01*
X127618766Y-69883842D01*
X127592091Y-69872793D01*
X127535462Y-69834955D01*
X127515045Y-69814538D01*
X127477207Y-69757909D01*
X127466158Y-69731233D01*
X127451422Y-69657148D01*
X127450000Y-69642712D01*
X127450000Y-68741183D01*
X127450214Y-68735555D01*
X127452463Y-68706069D01*
X127454171Y-68694943D01*
X127460862Y-68666157D01*
X127462344Y-68660724D01*
X127972987Y-67035948D01*
X127984841Y-67020471D01*
X127983481Y-67019686D01*
X127994847Y-67000000D01*
X128000000Y-67000000D01*
X128000000Y-66607288D01*
X128001422Y-66592852D01*
X128016158Y-66518767D01*
X128027207Y-66492091D01*
X128065045Y-66435462D01*
X128085462Y-66415045D01*
X128142091Y-66377207D01*
X128168766Y-66366158D01*
X128198637Y-66360217D01*
X128242852Y-66351422D01*
X128257288Y-66350000D01*
X128342712Y-66350000D01*
X128357148Y-66351422D01*
G37*
%TD.AperFunction*%
%TD*%
M02*
